G04 #@! TF.FileFunction,Legend,Bot*
%FSLAX46Y46*%
G04 Gerber Fmt 4.6, Leading zero omitted, Abs format (unit mm)*
G04 Created by KiCad (PCBNEW 4.0.2-stable) date 2019-03-28 2:30:29 PM*
%MOMM*%
G01*
G04 APERTURE LIST*
%ADD10C,0.200000*%
%ADD11C,0.150000*%
%ADD12C,0.010000*%
%ADD13C,1.100000*%
%ADD14R,1.800000X1.800000*%
%ADD15O,1.800000X1.800000*%
G04 APERTURE END LIST*
D10*
D11*
X158226191Y-152035714D02*
X158226191Y-153035714D01*
X158226191Y-152083333D02*
X158130953Y-152035714D01*
X157940476Y-152035714D01*
X157845238Y-152083333D01*
X157797619Y-152130952D01*
X157750000Y-152226190D01*
X157750000Y-152511905D01*
X157797619Y-152607143D01*
X157845238Y-152654762D01*
X157940476Y-152702381D01*
X158130953Y-152702381D01*
X158226191Y-152654762D01*
X156892857Y-152702381D02*
X156892857Y-152178571D01*
X156940476Y-152083333D01*
X157035714Y-152035714D01*
X157226191Y-152035714D01*
X157321429Y-152083333D01*
X156892857Y-152654762D02*
X156988095Y-152702381D01*
X157226191Y-152702381D01*
X157321429Y-152654762D01*
X157369048Y-152559524D01*
X157369048Y-152464286D01*
X157321429Y-152369048D01*
X157226191Y-152321429D01*
X156988095Y-152321429D01*
X156892857Y-152273810D01*
X156416667Y-152035714D02*
X156416667Y-152702381D01*
X156416667Y-152130952D02*
X156369048Y-152083333D01*
X156273810Y-152035714D01*
X156130952Y-152035714D01*
X156035714Y-152083333D01*
X155988095Y-152178571D01*
X155988095Y-152702381D01*
X155130952Y-152654762D02*
X155226190Y-152702381D01*
X155416667Y-152702381D01*
X155511905Y-152654762D01*
X155559524Y-152559524D01*
X155559524Y-152178571D01*
X155511905Y-152083333D01*
X155416667Y-152035714D01*
X155226190Y-152035714D01*
X155130952Y-152083333D01*
X155083333Y-152178571D01*
X155083333Y-152273810D01*
X155559524Y-152369048D01*
X154511905Y-152702381D02*
X154607143Y-152654762D01*
X154654762Y-152559524D01*
X154654762Y-151702381D01*
X154130952Y-152702381D02*
X154130952Y-152035714D01*
X154130952Y-151702381D02*
X154178571Y-151750000D01*
X154130952Y-151797619D01*
X154083333Y-151750000D01*
X154130952Y-151702381D01*
X154130952Y-151797619D01*
X153750000Y-152035714D02*
X153226190Y-152035714D01*
X153750000Y-152702381D01*
X153226190Y-152702381D01*
X152464285Y-152654762D02*
X152559523Y-152702381D01*
X152750000Y-152702381D01*
X152845238Y-152654762D01*
X152892857Y-152559524D01*
X152892857Y-152178571D01*
X152845238Y-152083333D01*
X152750000Y-152035714D01*
X152559523Y-152035714D01*
X152464285Y-152083333D01*
X152416666Y-152178571D01*
X152416666Y-152273810D01*
X152892857Y-152369048D01*
X151559523Y-152702381D02*
X151559523Y-151702381D01*
X151559523Y-152654762D02*
X151654761Y-152702381D01*
X151845238Y-152702381D01*
X151940476Y-152654762D01*
X151988095Y-152607143D01*
X152035714Y-152511905D01*
X152035714Y-152226190D01*
X151988095Y-152130952D01*
X151940476Y-152083333D01*
X151845238Y-152035714D01*
X151654761Y-152035714D01*
X151559523Y-152083333D01*
X150321428Y-152702381D02*
X150321428Y-152035714D01*
X150321428Y-152226190D02*
X150273809Y-152130952D01*
X150226190Y-152083333D01*
X150130952Y-152035714D01*
X150035713Y-152035714D01*
X149178570Y-152702381D02*
X149749999Y-152702381D01*
X149464285Y-152702381D02*
X149464285Y-151702381D01*
X149559523Y-151845238D01*
X149654761Y-151940476D01*
X149749999Y-151988095D01*
X148749999Y-152607143D02*
X148702380Y-152654762D01*
X148749999Y-152702381D01*
X148797618Y-152654762D01*
X148749999Y-152607143D01*
X148749999Y-152702381D01*
X147749999Y-152702381D02*
X148321428Y-152702381D01*
X148035714Y-152702381D02*
X148035714Y-151702381D01*
X148130952Y-151845238D01*
X148226190Y-151940476D01*
X148321428Y-151988095D01*
X146369047Y-151702381D02*
X146273808Y-151702381D01*
X146178570Y-151750000D01*
X146130951Y-151797619D01*
X146083332Y-151892857D01*
X146035713Y-152083333D01*
X146035713Y-152321429D01*
X146083332Y-152511905D01*
X146130951Y-152607143D01*
X146178570Y-152654762D01*
X146273808Y-152702381D01*
X146369047Y-152702381D01*
X146464285Y-152654762D01*
X146511904Y-152607143D01*
X146559523Y-152511905D01*
X146607142Y-152321429D01*
X146607142Y-152083333D01*
X146559523Y-151892857D01*
X146511904Y-151797619D01*
X146464285Y-151750000D01*
X146369047Y-151702381D01*
X145702380Y-151702381D02*
X145083332Y-151702381D01*
X145416666Y-152083333D01*
X145273808Y-152083333D01*
X145178570Y-152130952D01*
X145130951Y-152178571D01*
X145083332Y-152273810D01*
X145083332Y-152511905D01*
X145130951Y-152607143D01*
X145178570Y-152654762D01*
X145273808Y-152702381D01*
X145559523Y-152702381D01*
X145654761Y-152654762D01*
X145702380Y-152607143D01*
X143940475Y-151654762D02*
X144797618Y-152940476D01*
X143654761Y-151797619D02*
X143607142Y-151750000D01*
X143511904Y-151702381D01*
X143273808Y-151702381D01*
X143178570Y-151750000D01*
X143130951Y-151797619D01*
X143083332Y-151892857D01*
X143083332Y-151988095D01*
X143130951Y-152130952D01*
X143702380Y-152702381D01*
X143083332Y-152702381D01*
X142464285Y-151702381D02*
X142369046Y-151702381D01*
X142273808Y-151750000D01*
X142226189Y-151797619D01*
X142178570Y-151892857D01*
X142130951Y-152083333D01*
X142130951Y-152321429D01*
X142178570Y-152511905D01*
X142226189Y-152607143D01*
X142273808Y-152654762D01*
X142369046Y-152702381D01*
X142464285Y-152702381D01*
X142559523Y-152654762D01*
X142607142Y-152607143D01*
X142654761Y-152511905D01*
X142702380Y-152321429D01*
X142702380Y-152083333D01*
X142654761Y-151892857D01*
X142607142Y-151797619D01*
X142559523Y-151750000D01*
X142464285Y-151702381D01*
X141178570Y-152702381D02*
X141749999Y-152702381D01*
X141464285Y-152702381D02*
X141464285Y-151702381D01*
X141559523Y-151845238D01*
X141654761Y-151940476D01*
X141749999Y-151988095D01*
X140702380Y-152702381D02*
X140511904Y-152702381D01*
X140416665Y-152654762D01*
X140369046Y-152607143D01*
X140273808Y-152464286D01*
X140226189Y-152273810D01*
X140226189Y-151892857D01*
X140273808Y-151797619D01*
X140321427Y-151750000D01*
X140416665Y-151702381D01*
X140607142Y-151702381D01*
X140702380Y-151750000D01*
X140749999Y-151797619D01*
X140797618Y-151892857D01*
X140797618Y-152130952D01*
X140749999Y-152226190D01*
X140702380Y-152273810D01*
X140607142Y-152321429D01*
X140416665Y-152321429D01*
X140321427Y-152273810D01*
X140273808Y-152226190D01*
X140226189Y-152130952D01*
X132226191Y-152035714D02*
X132226191Y-153035714D01*
X132226191Y-152083333D02*
X132130953Y-152035714D01*
X131940476Y-152035714D01*
X131845238Y-152083333D01*
X131797619Y-152130952D01*
X131750000Y-152226190D01*
X131750000Y-152511905D01*
X131797619Y-152607143D01*
X131845238Y-152654762D01*
X131940476Y-152702381D01*
X132130953Y-152702381D01*
X132226191Y-152654762D01*
X130892857Y-152702381D02*
X130892857Y-152178571D01*
X130940476Y-152083333D01*
X131035714Y-152035714D01*
X131226191Y-152035714D01*
X131321429Y-152083333D01*
X130892857Y-152654762D02*
X130988095Y-152702381D01*
X131226191Y-152702381D01*
X131321429Y-152654762D01*
X131369048Y-152559524D01*
X131369048Y-152464286D01*
X131321429Y-152369048D01*
X131226191Y-152321429D01*
X130988095Y-152321429D01*
X130892857Y-152273810D01*
X130416667Y-152035714D02*
X130416667Y-152702381D01*
X130416667Y-152130952D02*
X130369048Y-152083333D01*
X130273810Y-152035714D01*
X130130952Y-152035714D01*
X130035714Y-152083333D01*
X129988095Y-152178571D01*
X129988095Y-152702381D01*
X129130952Y-152654762D02*
X129226190Y-152702381D01*
X129416667Y-152702381D01*
X129511905Y-152654762D01*
X129559524Y-152559524D01*
X129559524Y-152178571D01*
X129511905Y-152083333D01*
X129416667Y-152035714D01*
X129226190Y-152035714D01*
X129130952Y-152083333D01*
X129083333Y-152178571D01*
X129083333Y-152273810D01*
X129559524Y-152369048D01*
X128511905Y-152702381D02*
X128607143Y-152654762D01*
X128654762Y-152559524D01*
X128654762Y-151702381D01*
X128130952Y-152702381D02*
X128130952Y-152035714D01*
X128130952Y-151702381D02*
X128178571Y-151750000D01*
X128130952Y-151797619D01*
X128083333Y-151750000D01*
X128130952Y-151702381D01*
X128130952Y-151797619D01*
X127750000Y-152035714D02*
X127226190Y-152035714D01*
X127750000Y-152702381D01*
X127226190Y-152702381D01*
X126464285Y-152654762D02*
X126559523Y-152702381D01*
X126750000Y-152702381D01*
X126845238Y-152654762D01*
X126892857Y-152559524D01*
X126892857Y-152178571D01*
X126845238Y-152083333D01*
X126750000Y-152035714D01*
X126559523Y-152035714D01*
X126464285Y-152083333D01*
X126416666Y-152178571D01*
X126416666Y-152273810D01*
X126892857Y-152369048D01*
X125559523Y-152702381D02*
X125559523Y-151702381D01*
X125559523Y-152654762D02*
X125654761Y-152702381D01*
X125845238Y-152702381D01*
X125940476Y-152654762D01*
X125988095Y-152607143D01*
X126035714Y-152511905D01*
X126035714Y-152226190D01*
X125988095Y-152130952D01*
X125940476Y-152083333D01*
X125845238Y-152035714D01*
X125654761Y-152035714D01*
X125559523Y-152083333D01*
X124321428Y-152702381D02*
X124321428Y-152035714D01*
X124321428Y-152226190D02*
X124273809Y-152130952D01*
X124226190Y-152083333D01*
X124130952Y-152035714D01*
X124035713Y-152035714D01*
X123178570Y-152702381D02*
X123749999Y-152702381D01*
X123464285Y-152702381D02*
X123464285Y-151702381D01*
X123559523Y-151845238D01*
X123654761Y-151940476D01*
X123749999Y-151988095D01*
X122749999Y-152607143D02*
X122702380Y-152654762D01*
X122749999Y-152702381D01*
X122797618Y-152654762D01*
X122749999Y-152607143D01*
X122749999Y-152702381D01*
X121749999Y-152702381D02*
X122321428Y-152702381D01*
X122035714Y-152702381D02*
X122035714Y-151702381D01*
X122130952Y-151845238D01*
X122226190Y-151940476D01*
X122321428Y-151988095D01*
X120369047Y-151702381D02*
X120273808Y-151702381D01*
X120178570Y-151750000D01*
X120130951Y-151797619D01*
X120083332Y-151892857D01*
X120035713Y-152083333D01*
X120035713Y-152321429D01*
X120083332Y-152511905D01*
X120130951Y-152607143D01*
X120178570Y-152654762D01*
X120273808Y-152702381D01*
X120369047Y-152702381D01*
X120464285Y-152654762D01*
X120511904Y-152607143D01*
X120559523Y-152511905D01*
X120607142Y-152321429D01*
X120607142Y-152083333D01*
X120559523Y-151892857D01*
X120511904Y-151797619D01*
X120464285Y-151750000D01*
X120369047Y-151702381D01*
X119702380Y-151702381D02*
X119083332Y-151702381D01*
X119416666Y-152083333D01*
X119273808Y-152083333D01*
X119178570Y-152130952D01*
X119130951Y-152178571D01*
X119083332Y-152273810D01*
X119083332Y-152511905D01*
X119130951Y-152607143D01*
X119178570Y-152654762D01*
X119273808Y-152702381D01*
X119559523Y-152702381D01*
X119654761Y-152654762D01*
X119702380Y-152607143D01*
X117940475Y-151654762D02*
X118797618Y-152940476D01*
X117654761Y-151797619D02*
X117607142Y-151750000D01*
X117511904Y-151702381D01*
X117273808Y-151702381D01*
X117178570Y-151750000D01*
X117130951Y-151797619D01*
X117083332Y-151892857D01*
X117083332Y-151988095D01*
X117130951Y-152130952D01*
X117702380Y-152702381D01*
X117083332Y-152702381D01*
X116464285Y-151702381D02*
X116369046Y-151702381D01*
X116273808Y-151750000D01*
X116226189Y-151797619D01*
X116178570Y-151892857D01*
X116130951Y-152083333D01*
X116130951Y-152321429D01*
X116178570Y-152511905D01*
X116226189Y-152607143D01*
X116273808Y-152654762D01*
X116369046Y-152702381D01*
X116464285Y-152702381D01*
X116559523Y-152654762D01*
X116607142Y-152607143D01*
X116654761Y-152511905D01*
X116702380Y-152321429D01*
X116702380Y-152083333D01*
X116654761Y-151892857D01*
X116607142Y-151797619D01*
X116559523Y-151750000D01*
X116464285Y-151702381D01*
X115178570Y-152702381D02*
X115749999Y-152702381D01*
X115464285Y-152702381D02*
X115464285Y-151702381D01*
X115559523Y-151845238D01*
X115654761Y-151940476D01*
X115749999Y-151988095D01*
X114702380Y-152702381D02*
X114511904Y-152702381D01*
X114416665Y-152654762D01*
X114369046Y-152607143D01*
X114273808Y-152464286D01*
X114226189Y-152273810D01*
X114226189Y-151892857D01*
X114273808Y-151797619D01*
X114321427Y-151750000D01*
X114416665Y-151702381D01*
X114607142Y-151702381D01*
X114702380Y-151750000D01*
X114749999Y-151797619D01*
X114797618Y-151892857D01*
X114797618Y-152130952D01*
X114749999Y-152226190D01*
X114702380Y-152273810D01*
X114607142Y-152321429D01*
X114416665Y-152321429D01*
X114321427Y-152273810D01*
X114273808Y-152226190D01*
X114226189Y-152130952D01*
X132226191Y-117035714D02*
X132226191Y-118035714D01*
X132226191Y-117083333D02*
X132130953Y-117035714D01*
X131940476Y-117035714D01*
X131845238Y-117083333D01*
X131797619Y-117130952D01*
X131750000Y-117226190D01*
X131750000Y-117511905D01*
X131797619Y-117607143D01*
X131845238Y-117654762D01*
X131940476Y-117702381D01*
X132130953Y-117702381D01*
X132226191Y-117654762D01*
X130892857Y-117702381D02*
X130892857Y-117178571D01*
X130940476Y-117083333D01*
X131035714Y-117035714D01*
X131226191Y-117035714D01*
X131321429Y-117083333D01*
X130892857Y-117654762D02*
X130988095Y-117702381D01*
X131226191Y-117702381D01*
X131321429Y-117654762D01*
X131369048Y-117559524D01*
X131369048Y-117464286D01*
X131321429Y-117369048D01*
X131226191Y-117321429D01*
X130988095Y-117321429D01*
X130892857Y-117273810D01*
X130416667Y-117035714D02*
X130416667Y-117702381D01*
X130416667Y-117130952D02*
X130369048Y-117083333D01*
X130273810Y-117035714D01*
X130130952Y-117035714D01*
X130035714Y-117083333D01*
X129988095Y-117178571D01*
X129988095Y-117702381D01*
X129130952Y-117654762D02*
X129226190Y-117702381D01*
X129416667Y-117702381D01*
X129511905Y-117654762D01*
X129559524Y-117559524D01*
X129559524Y-117178571D01*
X129511905Y-117083333D01*
X129416667Y-117035714D01*
X129226190Y-117035714D01*
X129130952Y-117083333D01*
X129083333Y-117178571D01*
X129083333Y-117273810D01*
X129559524Y-117369048D01*
X128511905Y-117702381D02*
X128607143Y-117654762D01*
X128654762Y-117559524D01*
X128654762Y-116702381D01*
X128130952Y-117702381D02*
X128130952Y-117035714D01*
X128130952Y-116702381D02*
X128178571Y-116750000D01*
X128130952Y-116797619D01*
X128083333Y-116750000D01*
X128130952Y-116702381D01*
X128130952Y-116797619D01*
X127750000Y-117035714D02*
X127226190Y-117035714D01*
X127750000Y-117702381D01*
X127226190Y-117702381D01*
X126464285Y-117654762D02*
X126559523Y-117702381D01*
X126750000Y-117702381D01*
X126845238Y-117654762D01*
X126892857Y-117559524D01*
X126892857Y-117178571D01*
X126845238Y-117083333D01*
X126750000Y-117035714D01*
X126559523Y-117035714D01*
X126464285Y-117083333D01*
X126416666Y-117178571D01*
X126416666Y-117273810D01*
X126892857Y-117369048D01*
X125559523Y-117702381D02*
X125559523Y-116702381D01*
X125559523Y-117654762D02*
X125654761Y-117702381D01*
X125845238Y-117702381D01*
X125940476Y-117654762D01*
X125988095Y-117607143D01*
X126035714Y-117511905D01*
X126035714Y-117226190D01*
X125988095Y-117130952D01*
X125940476Y-117083333D01*
X125845238Y-117035714D01*
X125654761Y-117035714D01*
X125559523Y-117083333D01*
X124321428Y-117702381D02*
X124321428Y-117035714D01*
X124321428Y-117226190D02*
X124273809Y-117130952D01*
X124226190Y-117083333D01*
X124130952Y-117035714D01*
X124035713Y-117035714D01*
X123178570Y-117702381D02*
X123749999Y-117702381D01*
X123464285Y-117702381D02*
X123464285Y-116702381D01*
X123559523Y-116845238D01*
X123654761Y-116940476D01*
X123749999Y-116988095D01*
X122749999Y-117607143D02*
X122702380Y-117654762D01*
X122749999Y-117702381D01*
X122797618Y-117654762D01*
X122749999Y-117607143D01*
X122749999Y-117702381D01*
X121749999Y-117702381D02*
X122321428Y-117702381D01*
X122035714Y-117702381D02*
X122035714Y-116702381D01*
X122130952Y-116845238D01*
X122226190Y-116940476D01*
X122321428Y-116988095D01*
X120369047Y-116702381D02*
X120273808Y-116702381D01*
X120178570Y-116750000D01*
X120130951Y-116797619D01*
X120083332Y-116892857D01*
X120035713Y-117083333D01*
X120035713Y-117321429D01*
X120083332Y-117511905D01*
X120130951Y-117607143D01*
X120178570Y-117654762D01*
X120273808Y-117702381D01*
X120369047Y-117702381D01*
X120464285Y-117654762D01*
X120511904Y-117607143D01*
X120559523Y-117511905D01*
X120607142Y-117321429D01*
X120607142Y-117083333D01*
X120559523Y-116892857D01*
X120511904Y-116797619D01*
X120464285Y-116750000D01*
X120369047Y-116702381D01*
X119702380Y-116702381D02*
X119083332Y-116702381D01*
X119416666Y-117083333D01*
X119273808Y-117083333D01*
X119178570Y-117130952D01*
X119130951Y-117178571D01*
X119083332Y-117273810D01*
X119083332Y-117511905D01*
X119130951Y-117607143D01*
X119178570Y-117654762D01*
X119273808Y-117702381D01*
X119559523Y-117702381D01*
X119654761Y-117654762D01*
X119702380Y-117607143D01*
X117940475Y-116654762D02*
X118797618Y-117940476D01*
X117654761Y-116797619D02*
X117607142Y-116750000D01*
X117511904Y-116702381D01*
X117273808Y-116702381D01*
X117178570Y-116750000D01*
X117130951Y-116797619D01*
X117083332Y-116892857D01*
X117083332Y-116988095D01*
X117130951Y-117130952D01*
X117702380Y-117702381D01*
X117083332Y-117702381D01*
X116464285Y-116702381D02*
X116369046Y-116702381D01*
X116273808Y-116750000D01*
X116226189Y-116797619D01*
X116178570Y-116892857D01*
X116130951Y-117083333D01*
X116130951Y-117321429D01*
X116178570Y-117511905D01*
X116226189Y-117607143D01*
X116273808Y-117654762D01*
X116369046Y-117702381D01*
X116464285Y-117702381D01*
X116559523Y-117654762D01*
X116607142Y-117607143D01*
X116654761Y-117511905D01*
X116702380Y-117321429D01*
X116702380Y-117083333D01*
X116654761Y-116892857D01*
X116607142Y-116797619D01*
X116559523Y-116750000D01*
X116464285Y-116702381D01*
X115178570Y-117702381D02*
X115749999Y-117702381D01*
X115464285Y-117702381D02*
X115464285Y-116702381D01*
X115559523Y-116845238D01*
X115654761Y-116940476D01*
X115749999Y-116988095D01*
X114702380Y-117702381D02*
X114511904Y-117702381D01*
X114416665Y-117654762D01*
X114369046Y-117607143D01*
X114273808Y-117464286D01*
X114226189Y-117273810D01*
X114226189Y-116892857D01*
X114273808Y-116797619D01*
X114321427Y-116750000D01*
X114416665Y-116702381D01*
X114607142Y-116702381D01*
X114702380Y-116750000D01*
X114749999Y-116797619D01*
X114797618Y-116892857D01*
X114797618Y-117130952D01*
X114749999Y-117226190D01*
X114702380Y-117273810D01*
X114607142Y-117321429D01*
X114416665Y-117321429D01*
X114321427Y-117273810D01*
X114273808Y-117226190D01*
X114226189Y-117130952D01*
X158226191Y-117035714D02*
X158226191Y-118035714D01*
X158226191Y-117083333D02*
X158130953Y-117035714D01*
X157940476Y-117035714D01*
X157845238Y-117083333D01*
X157797619Y-117130952D01*
X157750000Y-117226190D01*
X157750000Y-117511905D01*
X157797619Y-117607143D01*
X157845238Y-117654762D01*
X157940476Y-117702381D01*
X158130953Y-117702381D01*
X158226191Y-117654762D01*
X156892857Y-117702381D02*
X156892857Y-117178571D01*
X156940476Y-117083333D01*
X157035714Y-117035714D01*
X157226191Y-117035714D01*
X157321429Y-117083333D01*
X156892857Y-117654762D02*
X156988095Y-117702381D01*
X157226191Y-117702381D01*
X157321429Y-117654762D01*
X157369048Y-117559524D01*
X157369048Y-117464286D01*
X157321429Y-117369048D01*
X157226191Y-117321429D01*
X156988095Y-117321429D01*
X156892857Y-117273810D01*
X156416667Y-117035714D02*
X156416667Y-117702381D01*
X156416667Y-117130952D02*
X156369048Y-117083333D01*
X156273810Y-117035714D01*
X156130952Y-117035714D01*
X156035714Y-117083333D01*
X155988095Y-117178571D01*
X155988095Y-117702381D01*
X155130952Y-117654762D02*
X155226190Y-117702381D01*
X155416667Y-117702381D01*
X155511905Y-117654762D01*
X155559524Y-117559524D01*
X155559524Y-117178571D01*
X155511905Y-117083333D01*
X155416667Y-117035714D01*
X155226190Y-117035714D01*
X155130952Y-117083333D01*
X155083333Y-117178571D01*
X155083333Y-117273810D01*
X155559524Y-117369048D01*
X154511905Y-117702381D02*
X154607143Y-117654762D01*
X154654762Y-117559524D01*
X154654762Y-116702381D01*
X154130952Y-117702381D02*
X154130952Y-117035714D01*
X154130952Y-116702381D02*
X154178571Y-116750000D01*
X154130952Y-116797619D01*
X154083333Y-116750000D01*
X154130952Y-116702381D01*
X154130952Y-116797619D01*
X153750000Y-117035714D02*
X153226190Y-117035714D01*
X153750000Y-117702381D01*
X153226190Y-117702381D01*
X152464285Y-117654762D02*
X152559523Y-117702381D01*
X152750000Y-117702381D01*
X152845238Y-117654762D01*
X152892857Y-117559524D01*
X152892857Y-117178571D01*
X152845238Y-117083333D01*
X152750000Y-117035714D01*
X152559523Y-117035714D01*
X152464285Y-117083333D01*
X152416666Y-117178571D01*
X152416666Y-117273810D01*
X152892857Y-117369048D01*
X151559523Y-117702381D02*
X151559523Y-116702381D01*
X151559523Y-117654762D02*
X151654761Y-117702381D01*
X151845238Y-117702381D01*
X151940476Y-117654762D01*
X151988095Y-117607143D01*
X152035714Y-117511905D01*
X152035714Y-117226190D01*
X151988095Y-117130952D01*
X151940476Y-117083333D01*
X151845238Y-117035714D01*
X151654761Y-117035714D01*
X151559523Y-117083333D01*
X150321428Y-117702381D02*
X150321428Y-117035714D01*
X150321428Y-117226190D02*
X150273809Y-117130952D01*
X150226190Y-117083333D01*
X150130952Y-117035714D01*
X150035713Y-117035714D01*
X149178570Y-117702381D02*
X149749999Y-117702381D01*
X149464285Y-117702381D02*
X149464285Y-116702381D01*
X149559523Y-116845238D01*
X149654761Y-116940476D01*
X149749999Y-116988095D01*
X148749999Y-117607143D02*
X148702380Y-117654762D01*
X148749999Y-117702381D01*
X148797618Y-117654762D01*
X148749999Y-117607143D01*
X148749999Y-117702381D01*
X147749999Y-117702381D02*
X148321428Y-117702381D01*
X148035714Y-117702381D02*
X148035714Y-116702381D01*
X148130952Y-116845238D01*
X148226190Y-116940476D01*
X148321428Y-116988095D01*
X146369047Y-116702381D02*
X146273808Y-116702381D01*
X146178570Y-116750000D01*
X146130951Y-116797619D01*
X146083332Y-116892857D01*
X146035713Y-117083333D01*
X146035713Y-117321429D01*
X146083332Y-117511905D01*
X146130951Y-117607143D01*
X146178570Y-117654762D01*
X146273808Y-117702381D01*
X146369047Y-117702381D01*
X146464285Y-117654762D01*
X146511904Y-117607143D01*
X146559523Y-117511905D01*
X146607142Y-117321429D01*
X146607142Y-117083333D01*
X146559523Y-116892857D01*
X146511904Y-116797619D01*
X146464285Y-116750000D01*
X146369047Y-116702381D01*
X145702380Y-116702381D02*
X145083332Y-116702381D01*
X145416666Y-117083333D01*
X145273808Y-117083333D01*
X145178570Y-117130952D01*
X145130951Y-117178571D01*
X145083332Y-117273810D01*
X145083332Y-117511905D01*
X145130951Y-117607143D01*
X145178570Y-117654762D01*
X145273808Y-117702381D01*
X145559523Y-117702381D01*
X145654761Y-117654762D01*
X145702380Y-117607143D01*
X143940475Y-116654762D02*
X144797618Y-117940476D01*
X143654761Y-116797619D02*
X143607142Y-116750000D01*
X143511904Y-116702381D01*
X143273808Y-116702381D01*
X143178570Y-116750000D01*
X143130951Y-116797619D01*
X143083332Y-116892857D01*
X143083332Y-116988095D01*
X143130951Y-117130952D01*
X143702380Y-117702381D01*
X143083332Y-117702381D01*
X142464285Y-116702381D02*
X142369046Y-116702381D01*
X142273808Y-116750000D01*
X142226189Y-116797619D01*
X142178570Y-116892857D01*
X142130951Y-117083333D01*
X142130951Y-117321429D01*
X142178570Y-117511905D01*
X142226189Y-117607143D01*
X142273808Y-117654762D01*
X142369046Y-117702381D01*
X142464285Y-117702381D01*
X142559523Y-117654762D01*
X142607142Y-117607143D01*
X142654761Y-117511905D01*
X142702380Y-117321429D01*
X142702380Y-117083333D01*
X142654761Y-116892857D01*
X142607142Y-116797619D01*
X142559523Y-116750000D01*
X142464285Y-116702381D01*
X141178570Y-117702381D02*
X141749999Y-117702381D01*
X141464285Y-117702381D02*
X141464285Y-116702381D01*
X141559523Y-116845238D01*
X141654761Y-116940476D01*
X141749999Y-116988095D01*
X140702380Y-117702381D02*
X140511904Y-117702381D01*
X140416665Y-117654762D01*
X140369046Y-117607143D01*
X140273808Y-117464286D01*
X140226189Y-117273810D01*
X140226189Y-116892857D01*
X140273808Y-116797619D01*
X140321427Y-116750000D01*
X140416665Y-116702381D01*
X140607142Y-116702381D01*
X140702380Y-116750000D01*
X140749999Y-116797619D01*
X140797618Y-116892857D01*
X140797618Y-117130952D01*
X140749999Y-117226190D01*
X140702380Y-117273810D01*
X140607142Y-117321429D01*
X140416665Y-117321429D01*
X140321427Y-117273810D01*
X140273808Y-117226190D01*
X140226189Y-117130952D01*
X132095239Y-153880952D02*
X132190477Y-153833333D01*
X132238096Y-153785714D01*
X132285715Y-153690476D01*
X132285715Y-153642857D01*
X132238096Y-153547619D01*
X132190477Y-153500000D01*
X132095239Y-153452381D01*
X131904762Y-153452381D01*
X131809524Y-153500000D01*
X131761905Y-153547619D01*
X131714286Y-153642857D01*
X131714286Y-153690476D01*
X131761905Y-153785714D01*
X131809524Y-153833333D01*
X131904762Y-153880952D01*
X132095239Y-153880952D01*
X132190477Y-153928571D01*
X132238096Y-153976190D01*
X132285715Y-154071429D01*
X132285715Y-154261905D01*
X132238096Y-154357143D01*
X132190477Y-154404762D01*
X132095239Y-154452381D01*
X131904762Y-154452381D01*
X131809524Y-154404762D01*
X131761905Y-154357143D01*
X131714286Y-154261905D01*
X131714286Y-154071429D01*
X131761905Y-153976190D01*
X131809524Y-153928571D01*
X131904762Y-153880952D01*
X130761905Y-154452381D02*
X131333334Y-154452381D01*
X131047620Y-154452381D02*
X131047620Y-153452381D01*
X131142858Y-153595238D01*
X131238096Y-153690476D01*
X131333334Y-153738095D01*
X130142858Y-153452381D02*
X130047619Y-153452381D01*
X129952381Y-153500000D01*
X129904762Y-153547619D01*
X129857143Y-153642857D01*
X129809524Y-153833333D01*
X129809524Y-154071429D01*
X129857143Y-154261905D01*
X129904762Y-154357143D01*
X129952381Y-154404762D01*
X130047619Y-154452381D01*
X130142858Y-154452381D01*
X130238096Y-154404762D01*
X130285715Y-154357143D01*
X130333334Y-154261905D01*
X130380953Y-154071429D01*
X130380953Y-153833333D01*
X130333334Y-153642857D01*
X130285715Y-153547619D01*
X130238096Y-153500000D01*
X130142858Y-153452381D01*
X128047619Y-154452381D02*
X128380953Y-153976190D01*
X128619048Y-154452381D02*
X128619048Y-153452381D01*
X128238095Y-153452381D01*
X128142857Y-153500000D01*
X128095238Y-153547619D01*
X128047619Y-153642857D01*
X128047619Y-153785714D01*
X128095238Y-153880952D01*
X128142857Y-153928571D01*
X128238095Y-153976190D01*
X128619048Y-153976190D01*
X127428572Y-153452381D02*
X127238095Y-153452381D01*
X127142857Y-153500000D01*
X127047619Y-153595238D01*
X127000000Y-153785714D01*
X127000000Y-154119048D01*
X127047619Y-154309524D01*
X127142857Y-154404762D01*
X127238095Y-154452381D01*
X127428572Y-154452381D01*
X127523810Y-154404762D01*
X127619048Y-154309524D01*
X127666667Y-154119048D01*
X127666667Y-153785714D01*
X127619048Y-153595238D01*
X127523810Y-153500000D01*
X127428572Y-153452381D01*
X126714286Y-153452381D02*
X126142857Y-153452381D01*
X126428572Y-154452381D02*
X126428572Y-153452381D01*
X125857143Y-154166667D02*
X125380952Y-154166667D01*
X125952381Y-154452381D02*
X125619048Y-153452381D01*
X125285714Y-154452381D01*
X124380952Y-154452381D02*
X124714286Y-153976190D01*
X124952381Y-154452381D02*
X124952381Y-153452381D01*
X124571428Y-153452381D01*
X124476190Y-153500000D01*
X124428571Y-153547619D01*
X124380952Y-153642857D01*
X124380952Y-153785714D01*
X124428571Y-153880952D01*
X124476190Y-153928571D01*
X124571428Y-153976190D01*
X124952381Y-153976190D01*
X123761905Y-153976190D02*
X123761905Y-154452381D01*
X124095238Y-153452381D02*
X123761905Y-153976190D01*
X123428571Y-153452381D01*
X122380952Y-154404762D02*
X122238095Y-154452381D01*
X121999999Y-154452381D01*
X121904761Y-154404762D01*
X121857142Y-154357143D01*
X121809523Y-154261905D01*
X121809523Y-154166667D01*
X121857142Y-154071429D01*
X121904761Y-154023810D01*
X121999999Y-153976190D01*
X122190476Y-153928571D01*
X122285714Y-153880952D01*
X122333333Y-153833333D01*
X122380952Y-153738095D01*
X122380952Y-153642857D01*
X122333333Y-153547619D01*
X122285714Y-153500000D01*
X122190476Y-153452381D01*
X121952380Y-153452381D01*
X121809523Y-153500000D01*
X121476190Y-153452381D02*
X121238095Y-154452381D01*
X121047618Y-153738095D01*
X120857142Y-154452381D01*
X120619047Y-153452381D01*
X120238095Y-154452381D02*
X120238095Y-153452381D01*
X119904762Y-153452381D02*
X119333333Y-153452381D01*
X119619048Y-154452381D02*
X119619048Y-153452381D01*
X118428571Y-154357143D02*
X118476190Y-154404762D01*
X118619047Y-154452381D01*
X118714285Y-154452381D01*
X118857143Y-154404762D01*
X118952381Y-154309524D01*
X119000000Y-154214286D01*
X119047619Y-154023810D01*
X119047619Y-153880952D01*
X119000000Y-153690476D01*
X118952381Y-153595238D01*
X118857143Y-153500000D01*
X118714285Y-153452381D01*
X118619047Y-153452381D01*
X118476190Y-153500000D01*
X118428571Y-153547619D01*
X118000000Y-154452381D02*
X118000000Y-153452381D01*
X118000000Y-153928571D02*
X117428571Y-153928571D01*
X117428571Y-154452381D02*
X117428571Y-153452381D01*
X115857142Y-153928571D02*
X115714285Y-153976190D01*
X115666666Y-154023810D01*
X115619047Y-154119048D01*
X115619047Y-154261905D01*
X115666666Y-154357143D01*
X115714285Y-154404762D01*
X115809523Y-154452381D01*
X116190476Y-154452381D01*
X116190476Y-153452381D01*
X115857142Y-153452381D01*
X115761904Y-153500000D01*
X115714285Y-153547619D01*
X115666666Y-153642857D01*
X115666666Y-153738095D01*
X115714285Y-153833333D01*
X115761904Y-153880952D01*
X115857142Y-153928571D01*
X116190476Y-153928571D01*
X115000000Y-153452381D02*
X114809523Y-153452381D01*
X114714285Y-153500000D01*
X114619047Y-153595238D01*
X114571428Y-153785714D01*
X114571428Y-154119048D01*
X114619047Y-154309524D01*
X114714285Y-154404762D01*
X114809523Y-154452381D01*
X115000000Y-154452381D01*
X115095238Y-154404762D01*
X115190476Y-154309524D01*
X115238095Y-154119048D01*
X115238095Y-153785714D01*
X115190476Y-153595238D01*
X115095238Y-153500000D01*
X115000000Y-153452381D01*
X114190476Y-154166667D02*
X113714285Y-154166667D01*
X114285714Y-154452381D02*
X113952381Y-153452381D01*
X113619047Y-154452381D01*
X112714285Y-154452381D02*
X113047619Y-153976190D01*
X113285714Y-154452381D02*
X113285714Y-153452381D01*
X112904761Y-153452381D01*
X112809523Y-153500000D01*
X112761904Y-153547619D01*
X112714285Y-153642857D01*
X112714285Y-153785714D01*
X112761904Y-153880952D01*
X112809523Y-153928571D01*
X112904761Y-153976190D01*
X113285714Y-153976190D01*
X112285714Y-154452381D02*
X112285714Y-153452381D01*
X112047619Y-153452381D01*
X111904761Y-153500000D01*
X111809523Y-153595238D01*
X111761904Y-153690476D01*
X111714285Y-153880952D01*
X111714285Y-154023810D01*
X111761904Y-154214286D01*
X111809523Y-154309524D01*
X111904761Y-154404762D01*
X112047619Y-154452381D01*
X112285714Y-154452381D01*
X158095239Y-153880952D02*
X158190477Y-153833333D01*
X158238096Y-153785714D01*
X158285715Y-153690476D01*
X158285715Y-153642857D01*
X158238096Y-153547619D01*
X158190477Y-153500000D01*
X158095239Y-153452381D01*
X157904762Y-153452381D01*
X157809524Y-153500000D01*
X157761905Y-153547619D01*
X157714286Y-153642857D01*
X157714286Y-153690476D01*
X157761905Y-153785714D01*
X157809524Y-153833333D01*
X157904762Y-153880952D01*
X158095239Y-153880952D01*
X158190477Y-153928571D01*
X158238096Y-153976190D01*
X158285715Y-154071429D01*
X158285715Y-154261905D01*
X158238096Y-154357143D01*
X158190477Y-154404762D01*
X158095239Y-154452381D01*
X157904762Y-154452381D01*
X157809524Y-154404762D01*
X157761905Y-154357143D01*
X157714286Y-154261905D01*
X157714286Y-154071429D01*
X157761905Y-153976190D01*
X157809524Y-153928571D01*
X157904762Y-153880952D01*
X156761905Y-154452381D02*
X157333334Y-154452381D01*
X157047620Y-154452381D02*
X157047620Y-153452381D01*
X157142858Y-153595238D01*
X157238096Y-153690476D01*
X157333334Y-153738095D01*
X156142858Y-153452381D02*
X156047619Y-153452381D01*
X155952381Y-153500000D01*
X155904762Y-153547619D01*
X155857143Y-153642857D01*
X155809524Y-153833333D01*
X155809524Y-154071429D01*
X155857143Y-154261905D01*
X155904762Y-154357143D01*
X155952381Y-154404762D01*
X156047619Y-154452381D01*
X156142858Y-154452381D01*
X156238096Y-154404762D01*
X156285715Y-154357143D01*
X156333334Y-154261905D01*
X156380953Y-154071429D01*
X156380953Y-153833333D01*
X156333334Y-153642857D01*
X156285715Y-153547619D01*
X156238096Y-153500000D01*
X156142858Y-153452381D01*
X154047619Y-154452381D02*
X154380953Y-153976190D01*
X154619048Y-154452381D02*
X154619048Y-153452381D01*
X154238095Y-153452381D01*
X154142857Y-153500000D01*
X154095238Y-153547619D01*
X154047619Y-153642857D01*
X154047619Y-153785714D01*
X154095238Y-153880952D01*
X154142857Y-153928571D01*
X154238095Y-153976190D01*
X154619048Y-153976190D01*
X153428572Y-153452381D02*
X153238095Y-153452381D01*
X153142857Y-153500000D01*
X153047619Y-153595238D01*
X153000000Y-153785714D01*
X153000000Y-154119048D01*
X153047619Y-154309524D01*
X153142857Y-154404762D01*
X153238095Y-154452381D01*
X153428572Y-154452381D01*
X153523810Y-154404762D01*
X153619048Y-154309524D01*
X153666667Y-154119048D01*
X153666667Y-153785714D01*
X153619048Y-153595238D01*
X153523810Y-153500000D01*
X153428572Y-153452381D01*
X152714286Y-153452381D02*
X152142857Y-153452381D01*
X152428572Y-154452381D02*
X152428572Y-153452381D01*
X151857143Y-154166667D02*
X151380952Y-154166667D01*
X151952381Y-154452381D02*
X151619048Y-153452381D01*
X151285714Y-154452381D01*
X150380952Y-154452381D02*
X150714286Y-153976190D01*
X150952381Y-154452381D02*
X150952381Y-153452381D01*
X150571428Y-153452381D01*
X150476190Y-153500000D01*
X150428571Y-153547619D01*
X150380952Y-153642857D01*
X150380952Y-153785714D01*
X150428571Y-153880952D01*
X150476190Y-153928571D01*
X150571428Y-153976190D01*
X150952381Y-153976190D01*
X149761905Y-153976190D02*
X149761905Y-154452381D01*
X150095238Y-153452381D02*
X149761905Y-153976190D01*
X149428571Y-153452381D01*
X148380952Y-154404762D02*
X148238095Y-154452381D01*
X147999999Y-154452381D01*
X147904761Y-154404762D01*
X147857142Y-154357143D01*
X147809523Y-154261905D01*
X147809523Y-154166667D01*
X147857142Y-154071429D01*
X147904761Y-154023810D01*
X147999999Y-153976190D01*
X148190476Y-153928571D01*
X148285714Y-153880952D01*
X148333333Y-153833333D01*
X148380952Y-153738095D01*
X148380952Y-153642857D01*
X148333333Y-153547619D01*
X148285714Y-153500000D01*
X148190476Y-153452381D01*
X147952380Y-153452381D01*
X147809523Y-153500000D01*
X147476190Y-153452381D02*
X147238095Y-154452381D01*
X147047618Y-153738095D01*
X146857142Y-154452381D01*
X146619047Y-153452381D01*
X146238095Y-154452381D02*
X146238095Y-153452381D01*
X145904762Y-153452381D02*
X145333333Y-153452381D01*
X145619048Y-154452381D02*
X145619048Y-153452381D01*
X144428571Y-154357143D02*
X144476190Y-154404762D01*
X144619047Y-154452381D01*
X144714285Y-154452381D01*
X144857143Y-154404762D01*
X144952381Y-154309524D01*
X145000000Y-154214286D01*
X145047619Y-154023810D01*
X145047619Y-153880952D01*
X145000000Y-153690476D01*
X144952381Y-153595238D01*
X144857143Y-153500000D01*
X144714285Y-153452381D01*
X144619047Y-153452381D01*
X144476190Y-153500000D01*
X144428571Y-153547619D01*
X144000000Y-154452381D02*
X144000000Y-153452381D01*
X144000000Y-153928571D02*
X143428571Y-153928571D01*
X143428571Y-154452381D02*
X143428571Y-153452381D01*
X141857142Y-153928571D02*
X141714285Y-153976190D01*
X141666666Y-154023810D01*
X141619047Y-154119048D01*
X141619047Y-154261905D01*
X141666666Y-154357143D01*
X141714285Y-154404762D01*
X141809523Y-154452381D01*
X142190476Y-154452381D01*
X142190476Y-153452381D01*
X141857142Y-153452381D01*
X141761904Y-153500000D01*
X141714285Y-153547619D01*
X141666666Y-153642857D01*
X141666666Y-153738095D01*
X141714285Y-153833333D01*
X141761904Y-153880952D01*
X141857142Y-153928571D01*
X142190476Y-153928571D01*
X141000000Y-153452381D02*
X140809523Y-153452381D01*
X140714285Y-153500000D01*
X140619047Y-153595238D01*
X140571428Y-153785714D01*
X140571428Y-154119048D01*
X140619047Y-154309524D01*
X140714285Y-154404762D01*
X140809523Y-154452381D01*
X141000000Y-154452381D01*
X141095238Y-154404762D01*
X141190476Y-154309524D01*
X141238095Y-154119048D01*
X141238095Y-153785714D01*
X141190476Y-153595238D01*
X141095238Y-153500000D01*
X141000000Y-153452381D01*
X140190476Y-154166667D02*
X139714285Y-154166667D01*
X140285714Y-154452381D02*
X139952381Y-153452381D01*
X139619047Y-154452381D01*
X138714285Y-154452381D02*
X139047619Y-153976190D01*
X139285714Y-154452381D02*
X139285714Y-153452381D01*
X138904761Y-153452381D01*
X138809523Y-153500000D01*
X138761904Y-153547619D01*
X138714285Y-153642857D01*
X138714285Y-153785714D01*
X138761904Y-153880952D01*
X138809523Y-153928571D01*
X138904761Y-153976190D01*
X139285714Y-153976190D01*
X138285714Y-154452381D02*
X138285714Y-153452381D01*
X138047619Y-153452381D01*
X137904761Y-153500000D01*
X137809523Y-153595238D01*
X137761904Y-153690476D01*
X137714285Y-153880952D01*
X137714285Y-154023810D01*
X137761904Y-154214286D01*
X137809523Y-154309524D01*
X137904761Y-154404762D01*
X138047619Y-154452381D01*
X138285714Y-154452381D01*
X158095239Y-118880952D02*
X158190477Y-118833333D01*
X158238096Y-118785714D01*
X158285715Y-118690476D01*
X158285715Y-118642857D01*
X158238096Y-118547619D01*
X158190477Y-118500000D01*
X158095239Y-118452381D01*
X157904762Y-118452381D01*
X157809524Y-118500000D01*
X157761905Y-118547619D01*
X157714286Y-118642857D01*
X157714286Y-118690476D01*
X157761905Y-118785714D01*
X157809524Y-118833333D01*
X157904762Y-118880952D01*
X158095239Y-118880952D01*
X158190477Y-118928571D01*
X158238096Y-118976190D01*
X158285715Y-119071429D01*
X158285715Y-119261905D01*
X158238096Y-119357143D01*
X158190477Y-119404762D01*
X158095239Y-119452381D01*
X157904762Y-119452381D01*
X157809524Y-119404762D01*
X157761905Y-119357143D01*
X157714286Y-119261905D01*
X157714286Y-119071429D01*
X157761905Y-118976190D01*
X157809524Y-118928571D01*
X157904762Y-118880952D01*
X156761905Y-119452381D02*
X157333334Y-119452381D01*
X157047620Y-119452381D02*
X157047620Y-118452381D01*
X157142858Y-118595238D01*
X157238096Y-118690476D01*
X157333334Y-118738095D01*
X156142858Y-118452381D02*
X156047619Y-118452381D01*
X155952381Y-118500000D01*
X155904762Y-118547619D01*
X155857143Y-118642857D01*
X155809524Y-118833333D01*
X155809524Y-119071429D01*
X155857143Y-119261905D01*
X155904762Y-119357143D01*
X155952381Y-119404762D01*
X156047619Y-119452381D01*
X156142858Y-119452381D01*
X156238096Y-119404762D01*
X156285715Y-119357143D01*
X156333334Y-119261905D01*
X156380953Y-119071429D01*
X156380953Y-118833333D01*
X156333334Y-118642857D01*
X156285715Y-118547619D01*
X156238096Y-118500000D01*
X156142858Y-118452381D01*
X154047619Y-119452381D02*
X154380953Y-118976190D01*
X154619048Y-119452381D02*
X154619048Y-118452381D01*
X154238095Y-118452381D01*
X154142857Y-118500000D01*
X154095238Y-118547619D01*
X154047619Y-118642857D01*
X154047619Y-118785714D01*
X154095238Y-118880952D01*
X154142857Y-118928571D01*
X154238095Y-118976190D01*
X154619048Y-118976190D01*
X153428572Y-118452381D02*
X153238095Y-118452381D01*
X153142857Y-118500000D01*
X153047619Y-118595238D01*
X153000000Y-118785714D01*
X153000000Y-119119048D01*
X153047619Y-119309524D01*
X153142857Y-119404762D01*
X153238095Y-119452381D01*
X153428572Y-119452381D01*
X153523810Y-119404762D01*
X153619048Y-119309524D01*
X153666667Y-119119048D01*
X153666667Y-118785714D01*
X153619048Y-118595238D01*
X153523810Y-118500000D01*
X153428572Y-118452381D01*
X152714286Y-118452381D02*
X152142857Y-118452381D01*
X152428572Y-119452381D02*
X152428572Y-118452381D01*
X151857143Y-119166667D02*
X151380952Y-119166667D01*
X151952381Y-119452381D02*
X151619048Y-118452381D01*
X151285714Y-119452381D01*
X150380952Y-119452381D02*
X150714286Y-118976190D01*
X150952381Y-119452381D02*
X150952381Y-118452381D01*
X150571428Y-118452381D01*
X150476190Y-118500000D01*
X150428571Y-118547619D01*
X150380952Y-118642857D01*
X150380952Y-118785714D01*
X150428571Y-118880952D01*
X150476190Y-118928571D01*
X150571428Y-118976190D01*
X150952381Y-118976190D01*
X149761905Y-118976190D02*
X149761905Y-119452381D01*
X150095238Y-118452381D02*
X149761905Y-118976190D01*
X149428571Y-118452381D01*
X148380952Y-119404762D02*
X148238095Y-119452381D01*
X147999999Y-119452381D01*
X147904761Y-119404762D01*
X147857142Y-119357143D01*
X147809523Y-119261905D01*
X147809523Y-119166667D01*
X147857142Y-119071429D01*
X147904761Y-119023810D01*
X147999999Y-118976190D01*
X148190476Y-118928571D01*
X148285714Y-118880952D01*
X148333333Y-118833333D01*
X148380952Y-118738095D01*
X148380952Y-118642857D01*
X148333333Y-118547619D01*
X148285714Y-118500000D01*
X148190476Y-118452381D01*
X147952380Y-118452381D01*
X147809523Y-118500000D01*
X147476190Y-118452381D02*
X147238095Y-119452381D01*
X147047618Y-118738095D01*
X146857142Y-119452381D01*
X146619047Y-118452381D01*
X146238095Y-119452381D02*
X146238095Y-118452381D01*
X145904762Y-118452381D02*
X145333333Y-118452381D01*
X145619048Y-119452381D02*
X145619048Y-118452381D01*
X144428571Y-119357143D02*
X144476190Y-119404762D01*
X144619047Y-119452381D01*
X144714285Y-119452381D01*
X144857143Y-119404762D01*
X144952381Y-119309524D01*
X145000000Y-119214286D01*
X145047619Y-119023810D01*
X145047619Y-118880952D01*
X145000000Y-118690476D01*
X144952381Y-118595238D01*
X144857143Y-118500000D01*
X144714285Y-118452381D01*
X144619047Y-118452381D01*
X144476190Y-118500000D01*
X144428571Y-118547619D01*
X144000000Y-119452381D02*
X144000000Y-118452381D01*
X144000000Y-118928571D02*
X143428571Y-118928571D01*
X143428571Y-119452381D02*
X143428571Y-118452381D01*
X141857142Y-118928571D02*
X141714285Y-118976190D01*
X141666666Y-119023810D01*
X141619047Y-119119048D01*
X141619047Y-119261905D01*
X141666666Y-119357143D01*
X141714285Y-119404762D01*
X141809523Y-119452381D01*
X142190476Y-119452381D01*
X142190476Y-118452381D01*
X141857142Y-118452381D01*
X141761904Y-118500000D01*
X141714285Y-118547619D01*
X141666666Y-118642857D01*
X141666666Y-118738095D01*
X141714285Y-118833333D01*
X141761904Y-118880952D01*
X141857142Y-118928571D01*
X142190476Y-118928571D01*
X141000000Y-118452381D02*
X140809523Y-118452381D01*
X140714285Y-118500000D01*
X140619047Y-118595238D01*
X140571428Y-118785714D01*
X140571428Y-119119048D01*
X140619047Y-119309524D01*
X140714285Y-119404762D01*
X140809523Y-119452381D01*
X141000000Y-119452381D01*
X141095238Y-119404762D01*
X141190476Y-119309524D01*
X141238095Y-119119048D01*
X141238095Y-118785714D01*
X141190476Y-118595238D01*
X141095238Y-118500000D01*
X141000000Y-118452381D01*
X140190476Y-119166667D02*
X139714285Y-119166667D01*
X140285714Y-119452381D02*
X139952381Y-118452381D01*
X139619047Y-119452381D01*
X138714285Y-119452381D02*
X139047619Y-118976190D01*
X139285714Y-119452381D02*
X139285714Y-118452381D01*
X138904761Y-118452381D01*
X138809523Y-118500000D01*
X138761904Y-118547619D01*
X138714285Y-118642857D01*
X138714285Y-118785714D01*
X138761904Y-118880952D01*
X138809523Y-118928571D01*
X138904761Y-118976190D01*
X139285714Y-118976190D01*
X138285714Y-119452381D02*
X138285714Y-118452381D01*
X138047619Y-118452381D01*
X137904761Y-118500000D01*
X137809523Y-118595238D01*
X137761904Y-118690476D01*
X137714285Y-118880952D01*
X137714285Y-119023810D01*
X137761904Y-119214286D01*
X137809523Y-119309524D01*
X137904761Y-119404762D01*
X138047619Y-119452381D01*
X138285714Y-119452381D01*
X132095239Y-118880952D02*
X132190477Y-118833333D01*
X132238096Y-118785714D01*
X132285715Y-118690476D01*
X132285715Y-118642857D01*
X132238096Y-118547619D01*
X132190477Y-118500000D01*
X132095239Y-118452381D01*
X131904762Y-118452381D01*
X131809524Y-118500000D01*
X131761905Y-118547619D01*
X131714286Y-118642857D01*
X131714286Y-118690476D01*
X131761905Y-118785714D01*
X131809524Y-118833333D01*
X131904762Y-118880952D01*
X132095239Y-118880952D01*
X132190477Y-118928571D01*
X132238096Y-118976190D01*
X132285715Y-119071429D01*
X132285715Y-119261905D01*
X132238096Y-119357143D01*
X132190477Y-119404762D01*
X132095239Y-119452381D01*
X131904762Y-119452381D01*
X131809524Y-119404762D01*
X131761905Y-119357143D01*
X131714286Y-119261905D01*
X131714286Y-119071429D01*
X131761905Y-118976190D01*
X131809524Y-118928571D01*
X131904762Y-118880952D01*
X130761905Y-119452381D02*
X131333334Y-119452381D01*
X131047620Y-119452381D02*
X131047620Y-118452381D01*
X131142858Y-118595238D01*
X131238096Y-118690476D01*
X131333334Y-118738095D01*
X130142858Y-118452381D02*
X130047619Y-118452381D01*
X129952381Y-118500000D01*
X129904762Y-118547619D01*
X129857143Y-118642857D01*
X129809524Y-118833333D01*
X129809524Y-119071429D01*
X129857143Y-119261905D01*
X129904762Y-119357143D01*
X129952381Y-119404762D01*
X130047619Y-119452381D01*
X130142858Y-119452381D01*
X130238096Y-119404762D01*
X130285715Y-119357143D01*
X130333334Y-119261905D01*
X130380953Y-119071429D01*
X130380953Y-118833333D01*
X130333334Y-118642857D01*
X130285715Y-118547619D01*
X130238096Y-118500000D01*
X130142858Y-118452381D01*
X128047619Y-119452381D02*
X128380953Y-118976190D01*
X128619048Y-119452381D02*
X128619048Y-118452381D01*
X128238095Y-118452381D01*
X128142857Y-118500000D01*
X128095238Y-118547619D01*
X128047619Y-118642857D01*
X128047619Y-118785714D01*
X128095238Y-118880952D01*
X128142857Y-118928571D01*
X128238095Y-118976190D01*
X128619048Y-118976190D01*
X127428572Y-118452381D02*
X127238095Y-118452381D01*
X127142857Y-118500000D01*
X127047619Y-118595238D01*
X127000000Y-118785714D01*
X127000000Y-119119048D01*
X127047619Y-119309524D01*
X127142857Y-119404762D01*
X127238095Y-119452381D01*
X127428572Y-119452381D01*
X127523810Y-119404762D01*
X127619048Y-119309524D01*
X127666667Y-119119048D01*
X127666667Y-118785714D01*
X127619048Y-118595238D01*
X127523810Y-118500000D01*
X127428572Y-118452381D01*
X126714286Y-118452381D02*
X126142857Y-118452381D01*
X126428572Y-119452381D02*
X126428572Y-118452381D01*
X125857143Y-119166667D02*
X125380952Y-119166667D01*
X125952381Y-119452381D02*
X125619048Y-118452381D01*
X125285714Y-119452381D01*
X124380952Y-119452381D02*
X124714286Y-118976190D01*
X124952381Y-119452381D02*
X124952381Y-118452381D01*
X124571428Y-118452381D01*
X124476190Y-118500000D01*
X124428571Y-118547619D01*
X124380952Y-118642857D01*
X124380952Y-118785714D01*
X124428571Y-118880952D01*
X124476190Y-118928571D01*
X124571428Y-118976190D01*
X124952381Y-118976190D01*
X123761905Y-118976190D02*
X123761905Y-119452381D01*
X124095238Y-118452381D02*
X123761905Y-118976190D01*
X123428571Y-118452381D01*
X122380952Y-119404762D02*
X122238095Y-119452381D01*
X121999999Y-119452381D01*
X121904761Y-119404762D01*
X121857142Y-119357143D01*
X121809523Y-119261905D01*
X121809523Y-119166667D01*
X121857142Y-119071429D01*
X121904761Y-119023810D01*
X121999999Y-118976190D01*
X122190476Y-118928571D01*
X122285714Y-118880952D01*
X122333333Y-118833333D01*
X122380952Y-118738095D01*
X122380952Y-118642857D01*
X122333333Y-118547619D01*
X122285714Y-118500000D01*
X122190476Y-118452381D01*
X121952380Y-118452381D01*
X121809523Y-118500000D01*
X121476190Y-118452381D02*
X121238095Y-119452381D01*
X121047618Y-118738095D01*
X120857142Y-119452381D01*
X120619047Y-118452381D01*
X120238095Y-119452381D02*
X120238095Y-118452381D01*
X119904762Y-118452381D02*
X119333333Y-118452381D01*
X119619048Y-119452381D02*
X119619048Y-118452381D01*
X118428571Y-119357143D02*
X118476190Y-119404762D01*
X118619047Y-119452381D01*
X118714285Y-119452381D01*
X118857143Y-119404762D01*
X118952381Y-119309524D01*
X119000000Y-119214286D01*
X119047619Y-119023810D01*
X119047619Y-118880952D01*
X119000000Y-118690476D01*
X118952381Y-118595238D01*
X118857143Y-118500000D01*
X118714285Y-118452381D01*
X118619047Y-118452381D01*
X118476190Y-118500000D01*
X118428571Y-118547619D01*
X118000000Y-119452381D02*
X118000000Y-118452381D01*
X118000000Y-118928571D02*
X117428571Y-118928571D01*
X117428571Y-119452381D02*
X117428571Y-118452381D01*
X115857142Y-118928571D02*
X115714285Y-118976190D01*
X115666666Y-119023810D01*
X115619047Y-119119048D01*
X115619047Y-119261905D01*
X115666666Y-119357143D01*
X115714285Y-119404762D01*
X115809523Y-119452381D01*
X116190476Y-119452381D01*
X116190476Y-118452381D01*
X115857142Y-118452381D01*
X115761904Y-118500000D01*
X115714285Y-118547619D01*
X115666666Y-118642857D01*
X115666666Y-118738095D01*
X115714285Y-118833333D01*
X115761904Y-118880952D01*
X115857142Y-118928571D01*
X116190476Y-118928571D01*
X115000000Y-118452381D02*
X114809523Y-118452381D01*
X114714285Y-118500000D01*
X114619047Y-118595238D01*
X114571428Y-118785714D01*
X114571428Y-119119048D01*
X114619047Y-119309524D01*
X114714285Y-119404762D01*
X114809523Y-119452381D01*
X115000000Y-119452381D01*
X115095238Y-119404762D01*
X115190476Y-119309524D01*
X115238095Y-119119048D01*
X115238095Y-118785714D01*
X115190476Y-118595238D01*
X115095238Y-118500000D01*
X115000000Y-118452381D01*
X114190476Y-119166667D02*
X113714285Y-119166667D01*
X114285714Y-119452381D02*
X113952381Y-118452381D01*
X113619047Y-119452381D01*
X112714285Y-119452381D02*
X113047619Y-118976190D01*
X113285714Y-119452381D02*
X113285714Y-118452381D01*
X112904761Y-118452381D01*
X112809523Y-118500000D01*
X112761904Y-118547619D01*
X112714285Y-118642857D01*
X112714285Y-118785714D01*
X112761904Y-118880952D01*
X112809523Y-118928571D01*
X112904761Y-118976190D01*
X113285714Y-118976190D01*
X112285714Y-119452381D02*
X112285714Y-118452381D01*
X112047619Y-118452381D01*
X111904761Y-118500000D01*
X111809523Y-118595238D01*
X111761904Y-118690476D01*
X111714285Y-118880952D01*
X111714285Y-119023810D01*
X111761904Y-119214286D01*
X111809523Y-119309524D01*
X111904761Y-119404762D01*
X112047619Y-119452381D01*
X112285714Y-119452381D01*
D12*
G36*
X146710743Y-99033347D02*
X146370019Y-99074702D01*
X146033819Y-99144758D01*
X145704896Y-99243397D01*
X145386003Y-99370503D01*
X145343500Y-99390009D01*
X145038468Y-99549605D01*
X144749544Y-99735531D01*
X144478278Y-99945900D01*
X144226221Y-100178825D01*
X143994926Y-100432421D01*
X143785942Y-100704800D01*
X143600821Y-100994077D01*
X143441113Y-101298363D01*
X143308371Y-101615774D01*
X143204145Y-101944422D01*
X143186191Y-102014020D01*
X143151930Y-102160761D01*
X143125674Y-102295168D01*
X143106270Y-102426311D01*
X143092565Y-102563259D01*
X143083407Y-102715083D01*
X143078335Y-102862687D01*
X143081374Y-103198994D01*
X143109007Y-103518610D01*
X143162200Y-103826051D01*
X143241919Y-104125837D01*
X143349130Y-104422485D01*
X143468841Y-104688312D01*
X143639853Y-105001876D01*
X143834637Y-105295412D01*
X144051811Y-105567915D01*
X144289996Y-105818382D01*
X144547810Y-106045809D01*
X144823874Y-106249192D01*
X145116806Y-106427528D01*
X145425227Y-106579812D01*
X145747754Y-106705041D01*
X146083008Y-106802211D01*
X146429609Y-106870318D01*
X146479884Y-106877604D01*
X146562712Y-106886913D01*
X146666229Y-106895267D01*
X146782502Y-106902344D01*
X146903599Y-106907820D01*
X147021588Y-106911370D01*
X147128538Y-106912672D01*
X147216517Y-106911400D01*
X147256438Y-106909303D01*
X147579887Y-106873875D01*
X147886905Y-106817177D01*
X148186067Y-106737504D01*
X148291530Y-106703530D01*
X148548748Y-106616990D01*
X148783655Y-106695063D01*
X149040952Y-106772358D01*
X149291656Y-106829931D01*
X149547233Y-106869948D01*
X149819149Y-106894578D01*
X149848032Y-106896298D01*
X150042500Y-106907372D01*
X150042500Y-103014329D01*
X146804000Y-103014329D01*
X146792752Y-103034012D01*
X146761743Y-103070678D01*
X146715077Y-103120371D01*
X146656857Y-103179132D01*
X146591186Y-103243003D01*
X146522169Y-103308028D01*
X146453908Y-103370247D01*
X146390506Y-103425702D01*
X146336068Y-103470437D01*
X146313033Y-103487881D01*
X146256525Y-103528136D01*
X146209438Y-103560249D01*
X146177676Y-103580277D01*
X146167584Y-103585000D01*
X146158228Y-103570969D01*
X146149005Y-103535905D01*
X146146583Y-103521500D01*
X146134945Y-103443647D01*
X146128141Y-103390745D01*
X146127539Y-103356184D01*
X146133747Y-103335838D01*
X146110291Y-103335838D01*
X146064771Y-103369137D01*
X146034124Y-103388848D01*
X145986007Y-103416841D01*
X145927385Y-103449399D01*
X145865225Y-103482806D01*
X145806494Y-103513344D01*
X145758157Y-103537298D01*
X145727181Y-103550949D01*
X145720637Y-103552748D01*
X145722690Y-103541835D01*
X145740418Y-103513177D01*
X145760356Y-103485754D01*
X145824206Y-103383994D01*
X145874848Y-103267162D01*
X145909515Y-103144650D01*
X145925439Y-103025849D01*
X145923518Y-102970352D01*
X145769300Y-102970352D01*
X145765240Y-103085427D01*
X145740774Y-103191035D01*
X145684826Y-103320600D01*
X145604060Y-103432266D01*
X145501639Y-103523141D01*
X145380723Y-103590333D01*
X145264149Y-103627016D01*
X145202538Y-103639658D01*
X145158415Y-103645486D01*
X145118315Y-103644749D01*
X145068771Y-103637694D01*
X145032885Y-103631258D01*
X144895299Y-103590787D01*
X144827022Y-103553206D01*
X144560644Y-103553206D01*
X144560138Y-103553250D01*
X144542080Y-103546536D01*
X144502459Y-103528476D01*
X144447971Y-103502189D01*
X144410527Y-103483563D01*
X144329897Y-103439783D01*
X144240921Y-103386466D01*
X144160231Y-103333672D01*
X144144938Y-103322908D01*
X144073988Y-103270059D01*
X144002250Y-103213093D01*
X143934188Y-103155966D01*
X143874267Y-103102634D01*
X143826952Y-103057054D01*
X143796706Y-103023180D01*
X143787750Y-103006403D01*
X143799608Y-102987098D01*
X143832078Y-102952600D01*
X143880503Y-102906943D01*
X143940229Y-102854161D01*
X144006599Y-102798287D01*
X144074958Y-102743353D01*
X144140649Y-102693394D01*
X144187215Y-102660355D01*
X144279404Y-102601348D01*
X144375825Y-102545925D01*
X144466146Y-102499766D01*
X144528721Y-102472691D01*
X144551306Y-102464949D01*
X144556826Y-102468357D01*
X144544318Y-102487737D01*
X144519352Y-102519668D01*
X144458877Y-102612654D01*
X144407224Y-102723581D01*
X144370253Y-102838778D01*
X144359155Y-102893384D01*
X144351675Y-103031029D01*
X144369732Y-103171794D01*
X144411071Y-103307827D01*
X144473432Y-103431275D01*
X144538604Y-103517531D01*
X144557997Y-103542164D01*
X144560644Y-103553206D01*
X144827022Y-103553206D01*
X144773873Y-103523952D01*
X144671258Y-103433127D01*
X144590110Y-103320682D01*
X144533080Y-103188991D01*
X144531170Y-103182804D01*
X144506360Y-103049267D01*
X144511296Y-102916782D01*
X144544126Y-102789488D01*
X144602997Y-102671524D01*
X144686055Y-102567032D01*
X144791449Y-102480149D01*
X144864398Y-102438312D01*
X144914445Y-102414754D01*
X144955707Y-102399655D01*
X144997986Y-102391149D01*
X145051086Y-102387367D01*
X145124810Y-102386444D01*
X145136792Y-102386437D01*
X145216263Y-102387349D01*
X145273591Y-102391139D01*
X145318358Y-102399389D01*
X145360144Y-102413680D01*
X145394587Y-102428983D01*
X145513587Y-102501342D01*
X145614234Y-102596354D01*
X145692536Y-102709278D01*
X145744498Y-102835371D01*
X145748141Y-102848712D01*
X145769300Y-102970352D01*
X145923518Y-102970352D01*
X145922326Y-102935936D01*
X145891328Y-102798422D01*
X145838022Y-102663155D01*
X145778701Y-102559921D01*
X145744607Y-102509523D01*
X145727246Y-102480708D01*
X145725237Y-102468981D01*
X145737204Y-102469847D01*
X145752788Y-102475398D01*
X145794392Y-102493741D01*
X145852393Y-102522504D01*
X145917814Y-102556858D01*
X145981678Y-102591981D01*
X146035009Y-102623044D01*
X146068828Y-102645224D01*
X146069104Y-102645435D01*
X146080699Y-102655607D01*
X146089434Y-102668708D01*
X146095768Y-102689079D01*
X146100161Y-102721065D01*
X146103073Y-102769009D01*
X146104964Y-102837254D01*
X146106292Y-102930144D01*
X146107055Y-103004012D01*
X146110291Y-103335838D01*
X146133747Y-103335838D01*
X146134505Y-103333354D01*
X146150406Y-103315647D01*
X146176610Y-103296452D01*
X146195943Y-103282841D01*
X146242159Y-103246824D01*
X146301027Y-103196981D01*
X146362627Y-103141820D01*
X146387967Y-103118128D01*
X146503747Y-103008161D01*
X146435592Y-102938412D01*
X146391496Y-102896400D01*
X146332370Y-102844208D01*
X146268501Y-102790817D01*
X146244407Y-102771512D01*
X146187013Y-102725337D01*
X146149606Y-102689306D01*
X146128967Y-102654986D01*
X146121879Y-102613944D01*
X146125124Y-102557746D01*
X146134672Y-102483915D01*
X146145188Y-102406767D01*
X146272188Y-102497851D01*
X146344771Y-102552080D01*
X146423721Y-102614467D01*
X146494499Y-102673453D01*
X146508999Y-102686124D01*
X146563364Y-102736669D01*
X146621135Y-102794408D01*
X146677818Y-102854337D01*
X146728914Y-102911454D01*
X146769926Y-102960755D01*
X146796357Y-102997237D01*
X146804000Y-103014329D01*
X150042500Y-103014329D01*
X150042500Y-99408505D01*
X148327812Y-99408505D01*
X148314571Y-99419304D01*
X148279086Y-99440828D01*
X148227461Y-99469498D01*
X148190109Y-99489250D01*
X147959401Y-99622127D01*
X147727745Y-99780181D01*
X147501973Y-99957806D01*
X147288917Y-100149397D01*
X147095409Y-100349349D01*
X146987689Y-100475751D01*
X146793032Y-100739549D01*
X146618230Y-101022380D01*
X146465804Y-101319052D01*
X146338276Y-101624370D01*
X146238168Y-101933140D01*
X146193934Y-102110536D01*
X146177781Y-102186767D01*
X146164649Y-102254855D01*
X146155964Y-102306990D01*
X146153125Y-102334109D01*
X146149693Y-102367711D01*
X146143739Y-102382595D01*
X146126751Y-102379568D01*
X146087433Y-102364389D01*
X146031640Y-102339524D01*
X145965227Y-102307437D01*
X145965145Y-102307396D01*
X145786407Y-102225845D01*
X145618700Y-102166898D01*
X145453199Y-102128384D01*
X145281080Y-102108131D01*
X145137125Y-102103613D01*
X145048972Y-102105271D01*
X144961209Y-102109769D01*
X144884776Y-102116390D01*
X144836202Y-102123285D01*
X144622345Y-102178605D01*
X144404680Y-102262431D01*
X144187970Y-102372698D01*
X144021079Y-102476805D01*
X143968374Y-102515635D01*
X143904611Y-102567491D01*
X143833741Y-102628619D01*
X143759711Y-102695268D01*
X143686469Y-102763685D01*
X143617965Y-102830119D01*
X143558148Y-102890817D01*
X143510965Y-102942026D01*
X143480365Y-102979995D01*
X143470250Y-103000234D01*
X143482301Y-103032310D01*
X143516016Y-103080038D01*
X143567746Y-103139909D01*
X143633838Y-103208417D01*
X143710640Y-103282053D01*
X143794501Y-103357308D01*
X143881769Y-103430677D01*
X143968791Y-103498649D01*
X144047594Y-103554818D01*
X144255470Y-103681708D01*
X144459868Y-103779128D01*
X144664926Y-103848430D01*
X144874781Y-103890969D01*
X145093570Y-103908097D01*
X145129188Y-103908568D01*
X145321197Y-103901249D01*
X145499132Y-103875914D01*
X145671751Y-103830420D01*
X145847815Y-103762623D01*
X145977205Y-103701050D01*
X146042240Y-103668472D01*
X146095945Y-103642454D01*
X146132636Y-103625689D01*
X146146589Y-103620815D01*
X146151312Y-103636880D01*
X146161385Y-103677874D01*
X146175359Y-103737711D01*
X146191786Y-103810309D01*
X146192873Y-103815187D01*
X146276549Y-104124656D01*
X146388596Y-104433713D01*
X146526130Y-104736352D01*
X146686271Y-105026564D01*
X146866135Y-105298342D01*
X146969740Y-105434437D01*
X147040391Y-105517556D01*
X147128950Y-105613891D01*
X147228648Y-105716681D01*
X147332717Y-105819165D01*
X147434387Y-105914583D01*
X147526890Y-105996172D01*
X147557613Y-106021644D01*
X147778001Y-106187146D01*
X148013973Y-106340331D01*
X148165136Y-106426625D01*
X148228913Y-106461908D01*
X148280947Y-106492409D01*
X148315669Y-106514745D01*
X148327548Y-106525284D01*
X148313093Y-106537828D01*
X148271945Y-106555201D01*
X148208595Y-106576264D01*
X148127534Y-106599882D01*
X148033255Y-106624918D01*
X147930249Y-106650233D01*
X147823007Y-106674692D01*
X147716021Y-106697158D01*
X147613782Y-106716493D01*
X147520782Y-106731561D01*
X147502500Y-106734124D01*
X147389466Y-106745643D01*
X147253880Y-106753398D01*
X147104717Y-106757373D01*
X146950955Y-106757556D01*
X146801568Y-106753932D01*
X146665532Y-106746487D01*
X146554782Y-106735597D01*
X146209283Y-106675015D01*
X145874668Y-106585176D01*
X145552395Y-106466993D01*
X145243923Y-106321381D01*
X144950713Y-106149254D01*
X144674223Y-105951527D01*
X144415912Y-105729113D01*
X144177239Y-105482927D01*
X143959664Y-105213882D01*
X143831839Y-105029625D01*
X143657866Y-104734301D01*
X143512659Y-104427135D01*
X143396410Y-104110133D01*
X143309314Y-103785302D01*
X143251566Y-103454649D01*
X143223360Y-103120179D01*
X143224891Y-102783900D01*
X143256351Y-102447817D01*
X143317937Y-102113939D01*
X143409842Y-101784270D01*
X143494953Y-101550499D01*
X143636863Y-101239138D01*
X143806310Y-100942706D01*
X144002061Y-100662702D01*
X144222884Y-100400622D01*
X144467547Y-100157964D01*
X144734819Y-99936225D01*
X144946625Y-99786358D01*
X145151196Y-99663122D01*
X145378196Y-99547116D01*
X145618485Y-99442165D01*
X145862925Y-99352099D01*
X146102377Y-99280744D01*
X146221468Y-99252395D01*
X146489683Y-99206495D01*
X146772328Y-99180003D01*
X147061008Y-99172923D01*
X147347325Y-99185262D01*
X147622882Y-99217025D01*
X147807057Y-99251298D01*
X147875401Y-99267487D01*
X147954014Y-99287995D01*
X148037276Y-99311125D01*
X148119565Y-99335180D01*
X148195260Y-99358463D01*
X148258740Y-99379278D01*
X148304383Y-99395927D01*
X148326569Y-99406713D01*
X148327812Y-99408505D01*
X150042500Y-99408505D01*
X150042500Y-99024235D01*
X149843648Y-99035283D01*
X149584209Y-99056538D01*
X149340891Y-99091641D01*
X149102058Y-99142837D01*
X148856071Y-99212372D01*
X148754326Y-99245401D01*
X148537715Y-99318021D01*
X148385912Y-99261154D01*
X148063847Y-99157260D01*
X147732545Y-99082648D01*
X147394758Y-99037204D01*
X147053241Y-99020809D01*
X146710743Y-99033347D01*
X146710743Y-99033347D01*
G37*
X146710743Y-99033347D02*
X146370019Y-99074702D01*
X146033819Y-99144758D01*
X145704896Y-99243397D01*
X145386003Y-99370503D01*
X145343500Y-99390009D01*
X145038468Y-99549605D01*
X144749544Y-99735531D01*
X144478278Y-99945900D01*
X144226221Y-100178825D01*
X143994926Y-100432421D01*
X143785942Y-100704800D01*
X143600821Y-100994077D01*
X143441113Y-101298363D01*
X143308371Y-101615774D01*
X143204145Y-101944422D01*
X143186191Y-102014020D01*
X143151930Y-102160761D01*
X143125674Y-102295168D01*
X143106270Y-102426311D01*
X143092565Y-102563259D01*
X143083407Y-102715083D01*
X143078335Y-102862687D01*
X143081374Y-103198994D01*
X143109007Y-103518610D01*
X143162200Y-103826051D01*
X143241919Y-104125837D01*
X143349130Y-104422485D01*
X143468841Y-104688312D01*
X143639853Y-105001876D01*
X143834637Y-105295412D01*
X144051811Y-105567915D01*
X144289996Y-105818382D01*
X144547810Y-106045809D01*
X144823874Y-106249192D01*
X145116806Y-106427528D01*
X145425227Y-106579812D01*
X145747754Y-106705041D01*
X146083008Y-106802211D01*
X146429609Y-106870318D01*
X146479884Y-106877604D01*
X146562712Y-106886913D01*
X146666229Y-106895267D01*
X146782502Y-106902344D01*
X146903599Y-106907820D01*
X147021588Y-106911370D01*
X147128538Y-106912672D01*
X147216517Y-106911400D01*
X147256438Y-106909303D01*
X147579887Y-106873875D01*
X147886905Y-106817177D01*
X148186067Y-106737504D01*
X148291530Y-106703530D01*
X148548748Y-106616990D01*
X148783655Y-106695063D01*
X149040952Y-106772358D01*
X149291656Y-106829931D01*
X149547233Y-106869948D01*
X149819149Y-106894578D01*
X149848032Y-106896298D01*
X150042500Y-106907372D01*
X150042500Y-103014329D01*
X146804000Y-103014329D01*
X146792752Y-103034012D01*
X146761743Y-103070678D01*
X146715077Y-103120371D01*
X146656857Y-103179132D01*
X146591186Y-103243003D01*
X146522169Y-103308028D01*
X146453908Y-103370247D01*
X146390506Y-103425702D01*
X146336068Y-103470437D01*
X146313033Y-103487881D01*
X146256525Y-103528136D01*
X146209438Y-103560249D01*
X146177676Y-103580277D01*
X146167584Y-103585000D01*
X146158228Y-103570969D01*
X146149005Y-103535905D01*
X146146583Y-103521500D01*
X146134945Y-103443647D01*
X146128141Y-103390745D01*
X146127539Y-103356184D01*
X146133747Y-103335838D01*
X146110291Y-103335838D01*
X146064771Y-103369137D01*
X146034124Y-103388848D01*
X145986007Y-103416841D01*
X145927385Y-103449399D01*
X145865225Y-103482806D01*
X145806494Y-103513344D01*
X145758157Y-103537298D01*
X145727181Y-103550949D01*
X145720637Y-103552748D01*
X145722690Y-103541835D01*
X145740418Y-103513177D01*
X145760356Y-103485754D01*
X145824206Y-103383994D01*
X145874848Y-103267162D01*
X145909515Y-103144650D01*
X145925439Y-103025849D01*
X145923518Y-102970352D01*
X145769300Y-102970352D01*
X145765240Y-103085427D01*
X145740774Y-103191035D01*
X145684826Y-103320600D01*
X145604060Y-103432266D01*
X145501639Y-103523141D01*
X145380723Y-103590333D01*
X145264149Y-103627016D01*
X145202538Y-103639658D01*
X145158415Y-103645486D01*
X145118315Y-103644749D01*
X145068771Y-103637694D01*
X145032885Y-103631258D01*
X144895299Y-103590787D01*
X144827022Y-103553206D01*
X144560644Y-103553206D01*
X144560138Y-103553250D01*
X144542080Y-103546536D01*
X144502459Y-103528476D01*
X144447971Y-103502189D01*
X144410527Y-103483563D01*
X144329897Y-103439783D01*
X144240921Y-103386466D01*
X144160231Y-103333672D01*
X144144938Y-103322908D01*
X144073988Y-103270059D01*
X144002250Y-103213093D01*
X143934188Y-103155966D01*
X143874267Y-103102634D01*
X143826952Y-103057054D01*
X143796706Y-103023180D01*
X143787750Y-103006403D01*
X143799608Y-102987098D01*
X143832078Y-102952600D01*
X143880503Y-102906943D01*
X143940229Y-102854161D01*
X144006599Y-102798287D01*
X144074958Y-102743353D01*
X144140649Y-102693394D01*
X144187215Y-102660355D01*
X144279404Y-102601348D01*
X144375825Y-102545925D01*
X144466146Y-102499766D01*
X144528721Y-102472691D01*
X144551306Y-102464949D01*
X144556826Y-102468357D01*
X144544318Y-102487737D01*
X144519352Y-102519668D01*
X144458877Y-102612654D01*
X144407224Y-102723581D01*
X144370253Y-102838778D01*
X144359155Y-102893384D01*
X144351675Y-103031029D01*
X144369732Y-103171794D01*
X144411071Y-103307827D01*
X144473432Y-103431275D01*
X144538604Y-103517531D01*
X144557997Y-103542164D01*
X144560644Y-103553206D01*
X144827022Y-103553206D01*
X144773873Y-103523952D01*
X144671258Y-103433127D01*
X144590110Y-103320682D01*
X144533080Y-103188991D01*
X144531170Y-103182804D01*
X144506360Y-103049267D01*
X144511296Y-102916782D01*
X144544126Y-102789488D01*
X144602997Y-102671524D01*
X144686055Y-102567032D01*
X144791449Y-102480149D01*
X144864398Y-102438312D01*
X144914445Y-102414754D01*
X144955707Y-102399655D01*
X144997986Y-102391149D01*
X145051086Y-102387367D01*
X145124810Y-102386444D01*
X145136792Y-102386437D01*
X145216263Y-102387349D01*
X145273591Y-102391139D01*
X145318358Y-102399389D01*
X145360144Y-102413680D01*
X145394587Y-102428983D01*
X145513587Y-102501342D01*
X145614234Y-102596354D01*
X145692536Y-102709278D01*
X145744498Y-102835371D01*
X145748141Y-102848712D01*
X145769300Y-102970352D01*
X145923518Y-102970352D01*
X145922326Y-102935936D01*
X145891328Y-102798422D01*
X145838022Y-102663155D01*
X145778701Y-102559921D01*
X145744607Y-102509523D01*
X145727246Y-102480708D01*
X145725237Y-102468981D01*
X145737204Y-102469847D01*
X145752788Y-102475398D01*
X145794392Y-102493741D01*
X145852393Y-102522504D01*
X145917814Y-102556858D01*
X145981678Y-102591981D01*
X146035009Y-102623044D01*
X146068828Y-102645224D01*
X146069104Y-102645435D01*
X146080699Y-102655607D01*
X146089434Y-102668708D01*
X146095768Y-102689079D01*
X146100161Y-102721065D01*
X146103073Y-102769009D01*
X146104964Y-102837254D01*
X146106292Y-102930144D01*
X146107055Y-103004012D01*
X146110291Y-103335838D01*
X146133747Y-103335838D01*
X146134505Y-103333354D01*
X146150406Y-103315647D01*
X146176610Y-103296452D01*
X146195943Y-103282841D01*
X146242159Y-103246824D01*
X146301027Y-103196981D01*
X146362627Y-103141820D01*
X146387967Y-103118128D01*
X146503747Y-103008161D01*
X146435592Y-102938412D01*
X146391496Y-102896400D01*
X146332370Y-102844208D01*
X146268501Y-102790817D01*
X146244407Y-102771512D01*
X146187013Y-102725337D01*
X146149606Y-102689306D01*
X146128967Y-102654986D01*
X146121879Y-102613944D01*
X146125124Y-102557746D01*
X146134672Y-102483915D01*
X146145188Y-102406767D01*
X146272188Y-102497851D01*
X146344771Y-102552080D01*
X146423721Y-102614467D01*
X146494499Y-102673453D01*
X146508999Y-102686124D01*
X146563364Y-102736669D01*
X146621135Y-102794408D01*
X146677818Y-102854337D01*
X146728914Y-102911454D01*
X146769926Y-102960755D01*
X146796357Y-102997237D01*
X146804000Y-103014329D01*
X150042500Y-103014329D01*
X150042500Y-99408505D01*
X148327812Y-99408505D01*
X148314571Y-99419304D01*
X148279086Y-99440828D01*
X148227461Y-99469498D01*
X148190109Y-99489250D01*
X147959401Y-99622127D01*
X147727745Y-99780181D01*
X147501973Y-99957806D01*
X147288917Y-100149397D01*
X147095409Y-100349349D01*
X146987689Y-100475751D01*
X146793032Y-100739549D01*
X146618230Y-101022380D01*
X146465804Y-101319052D01*
X146338276Y-101624370D01*
X146238168Y-101933140D01*
X146193934Y-102110536D01*
X146177781Y-102186767D01*
X146164649Y-102254855D01*
X146155964Y-102306990D01*
X146153125Y-102334109D01*
X146149693Y-102367711D01*
X146143739Y-102382595D01*
X146126751Y-102379568D01*
X146087433Y-102364389D01*
X146031640Y-102339524D01*
X145965227Y-102307437D01*
X145965145Y-102307396D01*
X145786407Y-102225845D01*
X145618700Y-102166898D01*
X145453199Y-102128384D01*
X145281080Y-102108131D01*
X145137125Y-102103613D01*
X145048972Y-102105271D01*
X144961209Y-102109769D01*
X144884776Y-102116390D01*
X144836202Y-102123285D01*
X144622345Y-102178605D01*
X144404680Y-102262431D01*
X144187970Y-102372698D01*
X144021079Y-102476805D01*
X143968374Y-102515635D01*
X143904611Y-102567491D01*
X143833741Y-102628619D01*
X143759711Y-102695268D01*
X143686469Y-102763685D01*
X143617965Y-102830119D01*
X143558148Y-102890817D01*
X143510965Y-102942026D01*
X143480365Y-102979995D01*
X143470250Y-103000234D01*
X143482301Y-103032310D01*
X143516016Y-103080038D01*
X143567746Y-103139909D01*
X143633838Y-103208417D01*
X143710640Y-103282053D01*
X143794501Y-103357308D01*
X143881769Y-103430677D01*
X143968791Y-103498649D01*
X144047594Y-103554818D01*
X144255470Y-103681708D01*
X144459868Y-103779128D01*
X144664926Y-103848430D01*
X144874781Y-103890969D01*
X145093570Y-103908097D01*
X145129188Y-103908568D01*
X145321197Y-103901249D01*
X145499132Y-103875914D01*
X145671751Y-103830420D01*
X145847815Y-103762623D01*
X145977205Y-103701050D01*
X146042240Y-103668472D01*
X146095945Y-103642454D01*
X146132636Y-103625689D01*
X146146589Y-103620815D01*
X146151312Y-103636880D01*
X146161385Y-103677874D01*
X146175359Y-103737711D01*
X146191786Y-103810309D01*
X146192873Y-103815187D01*
X146276549Y-104124656D01*
X146388596Y-104433713D01*
X146526130Y-104736352D01*
X146686271Y-105026564D01*
X146866135Y-105298342D01*
X146969740Y-105434437D01*
X147040391Y-105517556D01*
X147128950Y-105613891D01*
X147228648Y-105716681D01*
X147332717Y-105819165D01*
X147434387Y-105914583D01*
X147526890Y-105996172D01*
X147557613Y-106021644D01*
X147778001Y-106187146D01*
X148013973Y-106340331D01*
X148165136Y-106426625D01*
X148228913Y-106461908D01*
X148280947Y-106492409D01*
X148315669Y-106514745D01*
X148327548Y-106525284D01*
X148313093Y-106537828D01*
X148271945Y-106555201D01*
X148208595Y-106576264D01*
X148127534Y-106599882D01*
X148033255Y-106624918D01*
X147930249Y-106650233D01*
X147823007Y-106674692D01*
X147716021Y-106697158D01*
X147613782Y-106716493D01*
X147520782Y-106731561D01*
X147502500Y-106734124D01*
X147389466Y-106745643D01*
X147253880Y-106753398D01*
X147104717Y-106757373D01*
X146950955Y-106757556D01*
X146801568Y-106753932D01*
X146665532Y-106746487D01*
X146554782Y-106735597D01*
X146209283Y-106675015D01*
X145874668Y-106585176D01*
X145552395Y-106466993D01*
X145243923Y-106321381D01*
X144950713Y-106149254D01*
X144674223Y-105951527D01*
X144415912Y-105729113D01*
X144177239Y-105482927D01*
X143959664Y-105213882D01*
X143831839Y-105029625D01*
X143657866Y-104734301D01*
X143512659Y-104427135D01*
X143396410Y-104110133D01*
X143309314Y-103785302D01*
X143251566Y-103454649D01*
X143223360Y-103120179D01*
X143224891Y-102783900D01*
X143256351Y-102447817D01*
X143317937Y-102113939D01*
X143409842Y-101784270D01*
X143494953Y-101550499D01*
X143636863Y-101239138D01*
X143806310Y-100942706D01*
X144002061Y-100662702D01*
X144222884Y-100400622D01*
X144467547Y-100157964D01*
X144734819Y-99936225D01*
X144946625Y-99786358D01*
X145151196Y-99663122D01*
X145378196Y-99547116D01*
X145618485Y-99442165D01*
X145862925Y-99352099D01*
X146102377Y-99280744D01*
X146221468Y-99252395D01*
X146489683Y-99206495D01*
X146772328Y-99180003D01*
X147061008Y-99172923D01*
X147347325Y-99185262D01*
X147622882Y-99217025D01*
X147807057Y-99251298D01*
X147875401Y-99267487D01*
X147954014Y-99287995D01*
X148037276Y-99311125D01*
X148119565Y-99335180D01*
X148195260Y-99358463D01*
X148258740Y-99379278D01*
X148304383Y-99395927D01*
X148326569Y-99406713D01*
X148327812Y-99408505D01*
X150042500Y-99408505D01*
X150042500Y-99024235D01*
X149843648Y-99035283D01*
X149584209Y-99056538D01*
X149340891Y-99091641D01*
X149102058Y-99142837D01*
X148856071Y-99212372D01*
X148754326Y-99245401D01*
X148537715Y-99318021D01*
X148385912Y-99261154D01*
X148063847Y-99157260D01*
X147732545Y-99082648D01*
X147394758Y-99037204D01*
X147053241Y-99020809D01*
X146710743Y-99033347D01*
G36*
X145283676Y-104371570D02*
X145238015Y-104394161D01*
X145198860Y-104423304D01*
X145161502Y-104464333D01*
X145121230Y-104522582D01*
X145073334Y-104603388D01*
X145063286Y-104621191D01*
X145014482Y-104704293D01*
X144974060Y-104762071D01*
X144937618Y-104798263D01*
X144900757Y-104816606D01*
X144859075Y-104820840D01*
X144831222Y-104818339D01*
X144768658Y-104800114D01*
X144725061Y-104762518D01*
X144697439Y-104701783D01*
X144684812Y-104633821D01*
X144673633Y-104537500D01*
X144533875Y-104537500D01*
X144533964Y-104612906D01*
X144546568Y-104721023D01*
X144582438Y-104815589D01*
X144639065Y-104891837D01*
X144707097Y-104941586D01*
X144763220Y-104961176D01*
X144831627Y-104972359D01*
X144897086Y-104973416D01*
X144933249Y-104967128D01*
X144980324Y-104950123D01*
X145019926Y-104929254D01*
X145055882Y-104900300D01*
X145092020Y-104859041D01*
X145132170Y-104801257D01*
X145180158Y-104722728D01*
X145224561Y-104645991D01*
X145269550Y-104575461D01*
X145311110Y-104530941D01*
X145354874Y-104508014D01*
X145406476Y-104502260D01*
X145407746Y-104502293D01*
X145476560Y-104517624D01*
X145526907Y-104557928D01*
X145557197Y-104621285D01*
X145565994Y-104693314D01*
X145570495Y-104749173D01*
X145586855Y-104779024D01*
X145620240Y-104787895D01*
X145659036Y-104783894D01*
X145700816Y-104774355D01*
X145719487Y-104760009D01*
X145723605Y-104733782D01*
X145723554Y-104730573D01*
X145710670Y-104611825D01*
X145677256Y-104516270D01*
X145622368Y-104442115D01*
X145545066Y-104387568D01*
X145542790Y-104386416D01*
X145447245Y-104353234D01*
X145354502Y-104351438D01*
X145283676Y-104371570D01*
X145283676Y-104371570D01*
G37*
X145283676Y-104371570D02*
X145238015Y-104394161D01*
X145198860Y-104423304D01*
X145161502Y-104464333D01*
X145121230Y-104522582D01*
X145073334Y-104603388D01*
X145063286Y-104621191D01*
X145014482Y-104704293D01*
X144974060Y-104762071D01*
X144937618Y-104798263D01*
X144900757Y-104816606D01*
X144859075Y-104820840D01*
X144831222Y-104818339D01*
X144768658Y-104800114D01*
X144725061Y-104762518D01*
X144697439Y-104701783D01*
X144684812Y-104633821D01*
X144673633Y-104537500D01*
X144533875Y-104537500D01*
X144533964Y-104612906D01*
X144546568Y-104721023D01*
X144582438Y-104815589D01*
X144639065Y-104891837D01*
X144707097Y-104941586D01*
X144763220Y-104961176D01*
X144831627Y-104972359D01*
X144897086Y-104973416D01*
X144933249Y-104967128D01*
X144980324Y-104950123D01*
X145019926Y-104929254D01*
X145055882Y-104900300D01*
X145092020Y-104859041D01*
X145132170Y-104801257D01*
X145180158Y-104722728D01*
X145224561Y-104645991D01*
X145269550Y-104575461D01*
X145311110Y-104530941D01*
X145354874Y-104508014D01*
X145406476Y-104502260D01*
X145407746Y-104502293D01*
X145476560Y-104517624D01*
X145526907Y-104557928D01*
X145557197Y-104621285D01*
X145565994Y-104693314D01*
X145570495Y-104749173D01*
X145586855Y-104779024D01*
X145620240Y-104787895D01*
X145659036Y-104783894D01*
X145700816Y-104774355D01*
X145719487Y-104760009D01*
X145723605Y-104733782D01*
X145723554Y-104730573D01*
X145710670Y-104611825D01*
X145677256Y-104516270D01*
X145622368Y-104442115D01*
X145545066Y-104387568D01*
X145542790Y-104386416D01*
X145447245Y-104353234D01*
X145354502Y-104351438D01*
X145283676Y-104371570D01*
G36*
X145216500Y-101505375D02*
X145041875Y-101505375D01*
X145041875Y-101378375D01*
X144899000Y-101378375D01*
X144899000Y-101505375D01*
X144724375Y-101505375D01*
X144724375Y-100902125D01*
X144581500Y-100902125D01*
X144581500Y-101664125D01*
X145359375Y-101664125D01*
X145359375Y-101029125D01*
X145597500Y-101029125D01*
X145597500Y-101648250D01*
X145740375Y-101648250D01*
X145740375Y-100886250D01*
X145216500Y-100886250D01*
X145216500Y-101505375D01*
X145216500Y-101505375D01*
G37*
X145216500Y-101505375D02*
X145041875Y-101505375D01*
X145041875Y-101378375D01*
X144899000Y-101378375D01*
X144899000Y-101505375D01*
X144724375Y-101505375D01*
X144724375Y-100902125D01*
X144581500Y-100902125D01*
X144581500Y-101664125D01*
X145359375Y-101664125D01*
X145359375Y-101029125D01*
X145597500Y-101029125D01*
X145597500Y-101648250D01*
X145740375Y-101648250D01*
X145740375Y-100886250D01*
X145216500Y-100886250D01*
X145216500Y-101505375D01*
G36*
X144899000Y-101314875D02*
X145041875Y-101314875D01*
X145041875Y-101140250D01*
X144899000Y-101140250D01*
X144899000Y-101314875D01*
X144899000Y-101314875D01*
G37*
X144899000Y-101314875D02*
X145041875Y-101314875D01*
X145041875Y-101140250D01*
X144899000Y-101140250D01*
X144899000Y-101314875D01*
G36*
X144899000Y-101076750D02*
X145041875Y-101076750D01*
X145041875Y-100902125D01*
X144899000Y-100902125D01*
X144899000Y-101076750D01*
X144899000Y-101076750D01*
G37*
X144899000Y-101076750D02*
X145041875Y-101076750D01*
X145041875Y-100902125D01*
X144899000Y-100902125D01*
X144899000Y-101076750D01*
G36*
X145041718Y-102702175D02*
X144961206Y-102739674D01*
X144897110Y-102796209D01*
X144850948Y-102866899D01*
X144824241Y-102946865D01*
X144818508Y-103031227D01*
X144835269Y-103115106D01*
X144876043Y-103193621D01*
X144942350Y-103261894D01*
X144955563Y-103271635D01*
X145026119Y-103305907D01*
X145110392Y-103324394D01*
X145194092Y-103324856D01*
X145237376Y-103315782D01*
X145321973Y-103273878D01*
X145386372Y-103212460D01*
X145429941Y-103137019D01*
X145452045Y-103053046D01*
X145452052Y-102966032D01*
X145429327Y-102881468D01*
X145383239Y-102804847D01*
X145313153Y-102741659D01*
X145304253Y-102735952D01*
X145246137Y-102705234D01*
X145191194Y-102691289D01*
X145137125Y-102688591D01*
X145041718Y-102702175D01*
X145041718Y-102702175D01*
G37*
X145041718Y-102702175D02*
X144961206Y-102739674D01*
X144897110Y-102796209D01*
X144850948Y-102866899D01*
X144824241Y-102946865D01*
X144818508Y-103031227D01*
X144835269Y-103115106D01*
X144876043Y-103193621D01*
X144942350Y-103261894D01*
X144955563Y-103271635D01*
X145026119Y-103305907D01*
X145110392Y-103324394D01*
X145194092Y-103324856D01*
X145237376Y-103315782D01*
X145321973Y-103273878D01*
X145386372Y-103212460D01*
X145429941Y-103137019D01*
X145452045Y-103053046D01*
X145452052Y-102966032D01*
X145429327Y-102881468D01*
X145383239Y-102804847D01*
X145313153Y-102741659D01*
X145304253Y-102735952D01*
X145246137Y-102705234D01*
X145191194Y-102691289D01*
X145137125Y-102688591D01*
X145041718Y-102702175D01*
G36*
X120910743Y-99033347D02*
X120570019Y-99074702D01*
X120233819Y-99144758D01*
X119904896Y-99243397D01*
X119586003Y-99370503D01*
X119543500Y-99390009D01*
X119238468Y-99549605D01*
X118949544Y-99735531D01*
X118678278Y-99945900D01*
X118426221Y-100178825D01*
X118194926Y-100432421D01*
X117985942Y-100704800D01*
X117800821Y-100994077D01*
X117641113Y-101298363D01*
X117508371Y-101615774D01*
X117404145Y-101944422D01*
X117386191Y-102014020D01*
X117351930Y-102160761D01*
X117325674Y-102295168D01*
X117306270Y-102426311D01*
X117292565Y-102563259D01*
X117283407Y-102715083D01*
X117278335Y-102862687D01*
X117281374Y-103198994D01*
X117309007Y-103518610D01*
X117362200Y-103826051D01*
X117441919Y-104125837D01*
X117549130Y-104422485D01*
X117668841Y-104688312D01*
X117839853Y-105001876D01*
X118034637Y-105295412D01*
X118251811Y-105567915D01*
X118489996Y-105818382D01*
X118747810Y-106045809D01*
X119023874Y-106249192D01*
X119316806Y-106427528D01*
X119625227Y-106579812D01*
X119947754Y-106705041D01*
X120283008Y-106802211D01*
X120629609Y-106870318D01*
X120679884Y-106877604D01*
X120762712Y-106886913D01*
X120866229Y-106895267D01*
X120982502Y-106902344D01*
X121103599Y-106907820D01*
X121221588Y-106911370D01*
X121328538Y-106912672D01*
X121416517Y-106911400D01*
X121456438Y-106909303D01*
X121779887Y-106873875D01*
X122086905Y-106817177D01*
X122386067Y-106737504D01*
X122491530Y-106703530D01*
X122748748Y-106616990D01*
X122983655Y-106695063D01*
X123240952Y-106772358D01*
X123491656Y-106829931D01*
X123747233Y-106869948D01*
X124019149Y-106894578D01*
X124048032Y-106896298D01*
X124242500Y-106907372D01*
X124242500Y-103014329D01*
X121004000Y-103014329D01*
X120992752Y-103034012D01*
X120961743Y-103070678D01*
X120915077Y-103120371D01*
X120856857Y-103179132D01*
X120791186Y-103243003D01*
X120722169Y-103308028D01*
X120653908Y-103370247D01*
X120590506Y-103425702D01*
X120536068Y-103470437D01*
X120513033Y-103487881D01*
X120456525Y-103528136D01*
X120409438Y-103560249D01*
X120377676Y-103580277D01*
X120367584Y-103585000D01*
X120358228Y-103570969D01*
X120349005Y-103535905D01*
X120346583Y-103521500D01*
X120334945Y-103443647D01*
X120328141Y-103390745D01*
X120327539Y-103356184D01*
X120333747Y-103335838D01*
X120310291Y-103335838D01*
X120264771Y-103369137D01*
X120234124Y-103388848D01*
X120186007Y-103416841D01*
X120127385Y-103449399D01*
X120065225Y-103482806D01*
X120006494Y-103513344D01*
X119958157Y-103537298D01*
X119927181Y-103550949D01*
X119920637Y-103552748D01*
X119922690Y-103541835D01*
X119940418Y-103513177D01*
X119960356Y-103485754D01*
X120024206Y-103383994D01*
X120074848Y-103267162D01*
X120109515Y-103144650D01*
X120125439Y-103025849D01*
X120123518Y-102970352D01*
X119969300Y-102970352D01*
X119965240Y-103085427D01*
X119940774Y-103191035D01*
X119884826Y-103320600D01*
X119804060Y-103432266D01*
X119701639Y-103523141D01*
X119580723Y-103590333D01*
X119464149Y-103627016D01*
X119402538Y-103639658D01*
X119358415Y-103645486D01*
X119318315Y-103644749D01*
X119268771Y-103637694D01*
X119232885Y-103631258D01*
X119095299Y-103590787D01*
X119027022Y-103553206D01*
X118760644Y-103553206D01*
X118760138Y-103553250D01*
X118742080Y-103546536D01*
X118702459Y-103528476D01*
X118647971Y-103502189D01*
X118610527Y-103483563D01*
X118529897Y-103439783D01*
X118440921Y-103386466D01*
X118360231Y-103333672D01*
X118344938Y-103322908D01*
X118273988Y-103270059D01*
X118202250Y-103213093D01*
X118134188Y-103155966D01*
X118074267Y-103102634D01*
X118026952Y-103057054D01*
X117996706Y-103023180D01*
X117987750Y-103006403D01*
X117999608Y-102987098D01*
X118032078Y-102952600D01*
X118080503Y-102906943D01*
X118140229Y-102854161D01*
X118206599Y-102798287D01*
X118274958Y-102743353D01*
X118340649Y-102693394D01*
X118387215Y-102660355D01*
X118479404Y-102601348D01*
X118575825Y-102545925D01*
X118666146Y-102499766D01*
X118728721Y-102472691D01*
X118751306Y-102464949D01*
X118756826Y-102468357D01*
X118744318Y-102487737D01*
X118719352Y-102519668D01*
X118658877Y-102612654D01*
X118607224Y-102723581D01*
X118570253Y-102838778D01*
X118559155Y-102893384D01*
X118551675Y-103031029D01*
X118569732Y-103171794D01*
X118611071Y-103307827D01*
X118673432Y-103431275D01*
X118738604Y-103517531D01*
X118757997Y-103542164D01*
X118760644Y-103553206D01*
X119027022Y-103553206D01*
X118973873Y-103523952D01*
X118871258Y-103433127D01*
X118790110Y-103320682D01*
X118733080Y-103188991D01*
X118731170Y-103182804D01*
X118706360Y-103049267D01*
X118711296Y-102916782D01*
X118744126Y-102789488D01*
X118802997Y-102671524D01*
X118886055Y-102567032D01*
X118991449Y-102480149D01*
X119064398Y-102438312D01*
X119114445Y-102414754D01*
X119155707Y-102399655D01*
X119197986Y-102391149D01*
X119251086Y-102387367D01*
X119324810Y-102386444D01*
X119336792Y-102386437D01*
X119416263Y-102387349D01*
X119473591Y-102391139D01*
X119518358Y-102399389D01*
X119560144Y-102413680D01*
X119594587Y-102428983D01*
X119713587Y-102501342D01*
X119814234Y-102596354D01*
X119892536Y-102709278D01*
X119944498Y-102835371D01*
X119948141Y-102848712D01*
X119969300Y-102970352D01*
X120123518Y-102970352D01*
X120122326Y-102935936D01*
X120091328Y-102798422D01*
X120038022Y-102663155D01*
X119978701Y-102559921D01*
X119944607Y-102509523D01*
X119927246Y-102480708D01*
X119925237Y-102468981D01*
X119937204Y-102469847D01*
X119952788Y-102475398D01*
X119994392Y-102493741D01*
X120052393Y-102522504D01*
X120117814Y-102556858D01*
X120181678Y-102591981D01*
X120235009Y-102623044D01*
X120268828Y-102645224D01*
X120269104Y-102645435D01*
X120280699Y-102655607D01*
X120289434Y-102668708D01*
X120295768Y-102689079D01*
X120300161Y-102721065D01*
X120303073Y-102769009D01*
X120304964Y-102837254D01*
X120306292Y-102930144D01*
X120307055Y-103004012D01*
X120310291Y-103335838D01*
X120333747Y-103335838D01*
X120334505Y-103333354D01*
X120350406Y-103315647D01*
X120376610Y-103296452D01*
X120395943Y-103282841D01*
X120442159Y-103246824D01*
X120501027Y-103196981D01*
X120562627Y-103141820D01*
X120587967Y-103118128D01*
X120703747Y-103008161D01*
X120635592Y-102938412D01*
X120591496Y-102896400D01*
X120532370Y-102844208D01*
X120468501Y-102790817D01*
X120444407Y-102771512D01*
X120387013Y-102725337D01*
X120349606Y-102689306D01*
X120328967Y-102654986D01*
X120321879Y-102613944D01*
X120325124Y-102557746D01*
X120334672Y-102483915D01*
X120345188Y-102406767D01*
X120472188Y-102497851D01*
X120544771Y-102552080D01*
X120623721Y-102614467D01*
X120694499Y-102673453D01*
X120708999Y-102686124D01*
X120763364Y-102736669D01*
X120821135Y-102794408D01*
X120877818Y-102854337D01*
X120928914Y-102911454D01*
X120969926Y-102960755D01*
X120996357Y-102997237D01*
X121004000Y-103014329D01*
X124242500Y-103014329D01*
X124242500Y-99408505D01*
X122527812Y-99408505D01*
X122514571Y-99419304D01*
X122479086Y-99440828D01*
X122427461Y-99469498D01*
X122390109Y-99489250D01*
X122159401Y-99622127D01*
X121927745Y-99780181D01*
X121701973Y-99957806D01*
X121488917Y-100149397D01*
X121295409Y-100349349D01*
X121187689Y-100475751D01*
X120993032Y-100739549D01*
X120818230Y-101022380D01*
X120665804Y-101319052D01*
X120538276Y-101624370D01*
X120438168Y-101933140D01*
X120393934Y-102110536D01*
X120377781Y-102186767D01*
X120364649Y-102254855D01*
X120355964Y-102306990D01*
X120353125Y-102334109D01*
X120349693Y-102367711D01*
X120343739Y-102382595D01*
X120326751Y-102379568D01*
X120287433Y-102364389D01*
X120231640Y-102339524D01*
X120165227Y-102307437D01*
X120165145Y-102307396D01*
X119986407Y-102225845D01*
X119818700Y-102166898D01*
X119653199Y-102128384D01*
X119481080Y-102108131D01*
X119337125Y-102103613D01*
X119248972Y-102105271D01*
X119161209Y-102109769D01*
X119084776Y-102116390D01*
X119036202Y-102123285D01*
X118822345Y-102178605D01*
X118604680Y-102262431D01*
X118387970Y-102372698D01*
X118221079Y-102476805D01*
X118168374Y-102515635D01*
X118104611Y-102567491D01*
X118033741Y-102628619D01*
X117959711Y-102695268D01*
X117886469Y-102763685D01*
X117817965Y-102830119D01*
X117758148Y-102890817D01*
X117710965Y-102942026D01*
X117680365Y-102979995D01*
X117670250Y-103000234D01*
X117682301Y-103032310D01*
X117716016Y-103080038D01*
X117767746Y-103139909D01*
X117833838Y-103208417D01*
X117910640Y-103282053D01*
X117994501Y-103357308D01*
X118081769Y-103430677D01*
X118168791Y-103498649D01*
X118247594Y-103554818D01*
X118455470Y-103681708D01*
X118659868Y-103779128D01*
X118864926Y-103848430D01*
X119074781Y-103890969D01*
X119293570Y-103908097D01*
X119329188Y-103908568D01*
X119521197Y-103901249D01*
X119699132Y-103875914D01*
X119871751Y-103830420D01*
X120047815Y-103762623D01*
X120177205Y-103701050D01*
X120242240Y-103668472D01*
X120295945Y-103642454D01*
X120332636Y-103625689D01*
X120346589Y-103620815D01*
X120351312Y-103636880D01*
X120361385Y-103677874D01*
X120375359Y-103737711D01*
X120391786Y-103810309D01*
X120392873Y-103815187D01*
X120476549Y-104124656D01*
X120588596Y-104433713D01*
X120726130Y-104736352D01*
X120886271Y-105026564D01*
X121066135Y-105298342D01*
X121169740Y-105434437D01*
X121240391Y-105517556D01*
X121328950Y-105613891D01*
X121428648Y-105716681D01*
X121532717Y-105819165D01*
X121634387Y-105914583D01*
X121726890Y-105996172D01*
X121757613Y-106021644D01*
X121978001Y-106187146D01*
X122213973Y-106340331D01*
X122365136Y-106426625D01*
X122428913Y-106461908D01*
X122480947Y-106492409D01*
X122515669Y-106514745D01*
X122527548Y-106525284D01*
X122513093Y-106537828D01*
X122471945Y-106555201D01*
X122408595Y-106576264D01*
X122327534Y-106599882D01*
X122233255Y-106624918D01*
X122130249Y-106650233D01*
X122023007Y-106674692D01*
X121916021Y-106697158D01*
X121813782Y-106716493D01*
X121720782Y-106731561D01*
X121702500Y-106734124D01*
X121589466Y-106745643D01*
X121453880Y-106753398D01*
X121304717Y-106757373D01*
X121150955Y-106757556D01*
X121001568Y-106753932D01*
X120865532Y-106746487D01*
X120754782Y-106735597D01*
X120409283Y-106675015D01*
X120074668Y-106585176D01*
X119752395Y-106466993D01*
X119443923Y-106321381D01*
X119150713Y-106149254D01*
X118874223Y-105951527D01*
X118615912Y-105729113D01*
X118377239Y-105482927D01*
X118159664Y-105213882D01*
X118031839Y-105029625D01*
X117857866Y-104734301D01*
X117712659Y-104427135D01*
X117596410Y-104110133D01*
X117509314Y-103785302D01*
X117451566Y-103454649D01*
X117423360Y-103120179D01*
X117424891Y-102783900D01*
X117456351Y-102447817D01*
X117517937Y-102113939D01*
X117609842Y-101784270D01*
X117694953Y-101550499D01*
X117836863Y-101239138D01*
X118006310Y-100942706D01*
X118202061Y-100662702D01*
X118422884Y-100400622D01*
X118667547Y-100157964D01*
X118934819Y-99936225D01*
X119146625Y-99786358D01*
X119351196Y-99663122D01*
X119578196Y-99547116D01*
X119818485Y-99442165D01*
X120062925Y-99352099D01*
X120302377Y-99280744D01*
X120421468Y-99252395D01*
X120689683Y-99206495D01*
X120972328Y-99180003D01*
X121261008Y-99172923D01*
X121547325Y-99185262D01*
X121822882Y-99217025D01*
X122007057Y-99251298D01*
X122075401Y-99267487D01*
X122154014Y-99287995D01*
X122237276Y-99311125D01*
X122319565Y-99335180D01*
X122395260Y-99358463D01*
X122458740Y-99379278D01*
X122504383Y-99395927D01*
X122526569Y-99406713D01*
X122527812Y-99408505D01*
X124242500Y-99408505D01*
X124242500Y-99024235D01*
X124043648Y-99035283D01*
X123784209Y-99056538D01*
X123540891Y-99091641D01*
X123302058Y-99142837D01*
X123056071Y-99212372D01*
X122954326Y-99245401D01*
X122737715Y-99318021D01*
X122585912Y-99261154D01*
X122263847Y-99157260D01*
X121932545Y-99082648D01*
X121594758Y-99037204D01*
X121253241Y-99020809D01*
X120910743Y-99033347D01*
X120910743Y-99033347D01*
G37*
X120910743Y-99033347D02*
X120570019Y-99074702D01*
X120233819Y-99144758D01*
X119904896Y-99243397D01*
X119586003Y-99370503D01*
X119543500Y-99390009D01*
X119238468Y-99549605D01*
X118949544Y-99735531D01*
X118678278Y-99945900D01*
X118426221Y-100178825D01*
X118194926Y-100432421D01*
X117985942Y-100704800D01*
X117800821Y-100994077D01*
X117641113Y-101298363D01*
X117508371Y-101615774D01*
X117404145Y-101944422D01*
X117386191Y-102014020D01*
X117351930Y-102160761D01*
X117325674Y-102295168D01*
X117306270Y-102426311D01*
X117292565Y-102563259D01*
X117283407Y-102715083D01*
X117278335Y-102862687D01*
X117281374Y-103198994D01*
X117309007Y-103518610D01*
X117362200Y-103826051D01*
X117441919Y-104125837D01*
X117549130Y-104422485D01*
X117668841Y-104688312D01*
X117839853Y-105001876D01*
X118034637Y-105295412D01*
X118251811Y-105567915D01*
X118489996Y-105818382D01*
X118747810Y-106045809D01*
X119023874Y-106249192D01*
X119316806Y-106427528D01*
X119625227Y-106579812D01*
X119947754Y-106705041D01*
X120283008Y-106802211D01*
X120629609Y-106870318D01*
X120679884Y-106877604D01*
X120762712Y-106886913D01*
X120866229Y-106895267D01*
X120982502Y-106902344D01*
X121103599Y-106907820D01*
X121221588Y-106911370D01*
X121328538Y-106912672D01*
X121416517Y-106911400D01*
X121456438Y-106909303D01*
X121779887Y-106873875D01*
X122086905Y-106817177D01*
X122386067Y-106737504D01*
X122491530Y-106703530D01*
X122748748Y-106616990D01*
X122983655Y-106695063D01*
X123240952Y-106772358D01*
X123491656Y-106829931D01*
X123747233Y-106869948D01*
X124019149Y-106894578D01*
X124048032Y-106896298D01*
X124242500Y-106907372D01*
X124242500Y-103014329D01*
X121004000Y-103014329D01*
X120992752Y-103034012D01*
X120961743Y-103070678D01*
X120915077Y-103120371D01*
X120856857Y-103179132D01*
X120791186Y-103243003D01*
X120722169Y-103308028D01*
X120653908Y-103370247D01*
X120590506Y-103425702D01*
X120536068Y-103470437D01*
X120513033Y-103487881D01*
X120456525Y-103528136D01*
X120409438Y-103560249D01*
X120377676Y-103580277D01*
X120367584Y-103585000D01*
X120358228Y-103570969D01*
X120349005Y-103535905D01*
X120346583Y-103521500D01*
X120334945Y-103443647D01*
X120328141Y-103390745D01*
X120327539Y-103356184D01*
X120333747Y-103335838D01*
X120310291Y-103335838D01*
X120264771Y-103369137D01*
X120234124Y-103388848D01*
X120186007Y-103416841D01*
X120127385Y-103449399D01*
X120065225Y-103482806D01*
X120006494Y-103513344D01*
X119958157Y-103537298D01*
X119927181Y-103550949D01*
X119920637Y-103552748D01*
X119922690Y-103541835D01*
X119940418Y-103513177D01*
X119960356Y-103485754D01*
X120024206Y-103383994D01*
X120074848Y-103267162D01*
X120109515Y-103144650D01*
X120125439Y-103025849D01*
X120123518Y-102970352D01*
X119969300Y-102970352D01*
X119965240Y-103085427D01*
X119940774Y-103191035D01*
X119884826Y-103320600D01*
X119804060Y-103432266D01*
X119701639Y-103523141D01*
X119580723Y-103590333D01*
X119464149Y-103627016D01*
X119402538Y-103639658D01*
X119358415Y-103645486D01*
X119318315Y-103644749D01*
X119268771Y-103637694D01*
X119232885Y-103631258D01*
X119095299Y-103590787D01*
X119027022Y-103553206D01*
X118760644Y-103553206D01*
X118760138Y-103553250D01*
X118742080Y-103546536D01*
X118702459Y-103528476D01*
X118647971Y-103502189D01*
X118610527Y-103483563D01*
X118529897Y-103439783D01*
X118440921Y-103386466D01*
X118360231Y-103333672D01*
X118344938Y-103322908D01*
X118273988Y-103270059D01*
X118202250Y-103213093D01*
X118134188Y-103155966D01*
X118074267Y-103102634D01*
X118026952Y-103057054D01*
X117996706Y-103023180D01*
X117987750Y-103006403D01*
X117999608Y-102987098D01*
X118032078Y-102952600D01*
X118080503Y-102906943D01*
X118140229Y-102854161D01*
X118206599Y-102798287D01*
X118274958Y-102743353D01*
X118340649Y-102693394D01*
X118387215Y-102660355D01*
X118479404Y-102601348D01*
X118575825Y-102545925D01*
X118666146Y-102499766D01*
X118728721Y-102472691D01*
X118751306Y-102464949D01*
X118756826Y-102468357D01*
X118744318Y-102487737D01*
X118719352Y-102519668D01*
X118658877Y-102612654D01*
X118607224Y-102723581D01*
X118570253Y-102838778D01*
X118559155Y-102893384D01*
X118551675Y-103031029D01*
X118569732Y-103171794D01*
X118611071Y-103307827D01*
X118673432Y-103431275D01*
X118738604Y-103517531D01*
X118757997Y-103542164D01*
X118760644Y-103553206D01*
X119027022Y-103553206D01*
X118973873Y-103523952D01*
X118871258Y-103433127D01*
X118790110Y-103320682D01*
X118733080Y-103188991D01*
X118731170Y-103182804D01*
X118706360Y-103049267D01*
X118711296Y-102916782D01*
X118744126Y-102789488D01*
X118802997Y-102671524D01*
X118886055Y-102567032D01*
X118991449Y-102480149D01*
X119064398Y-102438312D01*
X119114445Y-102414754D01*
X119155707Y-102399655D01*
X119197986Y-102391149D01*
X119251086Y-102387367D01*
X119324810Y-102386444D01*
X119336792Y-102386437D01*
X119416263Y-102387349D01*
X119473591Y-102391139D01*
X119518358Y-102399389D01*
X119560144Y-102413680D01*
X119594587Y-102428983D01*
X119713587Y-102501342D01*
X119814234Y-102596354D01*
X119892536Y-102709278D01*
X119944498Y-102835371D01*
X119948141Y-102848712D01*
X119969300Y-102970352D01*
X120123518Y-102970352D01*
X120122326Y-102935936D01*
X120091328Y-102798422D01*
X120038022Y-102663155D01*
X119978701Y-102559921D01*
X119944607Y-102509523D01*
X119927246Y-102480708D01*
X119925237Y-102468981D01*
X119937204Y-102469847D01*
X119952788Y-102475398D01*
X119994392Y-102493741D01*
X120052393Y-102522504D01*
X120117814Y-102556858D01*
X120181678Y-102591981D01*
X120235009Y-102623044D01*
X120268828Y-102645224D01*
X120269104Y-102645435D01*
X120280699Y-102655607D01*
X120289434Y-102668708D01*
X120295768Y-102689079D01*
X120300161Y-102721065D01*
X120303073Y-102769009D01*
X120304964Y-102837254D01*
X120306292Y-102930144D01*
X120307055Y-103004012D01*
X120310291Y-103335838D01*
X120333747Y-103335838D01*
X120334505Y-103333354D01*
X120350406Y-103315647D01*
X120376610Y-103296452D01*
X120395943Y-103282841D01*
X120442159Y-103246824D01*
X120501027Y-103196981D01*
X120562627Y-103141820D01*
X120587967Y-103118128D01*
X120703747Y-103008161D01*
X120635592Y-102938412D01*
X120591496Y-102896400D01*
X120532370Y-102844208D01*
X120468501Y-102790817D01*
X120444407Y-102771512D01*
X120387013Y-102725337D01*
X120349606Y-102689306D01*
X120328967Y-102654986D01*
X120321879Y-102613944D01*
X120325124Y-102557746D01*
X120334672Y-102483915D01*
X120345188Y-102406767D01*
X120472188Y-102497851D01*
X120544771Y-102552080D01*
X120623721Y-102614467D01*
X120694499Y-102673453D01*
X120708999Y-102686124D01*
X120763364Y-102736669D01*
X120821135Y-102794408D01*
X120877818Y-102854337D01*
X120928914Y-102911454D01*
X120969926Y-102960755D01*
X120996357Y-102997237D01*
X121004000Y-103014329D01*
X124242500Y-103014329D01*
X124242500Y-99408505D01*
X122527812Y-99408505D01*
X122514571Y-99419304D01*
X122479086Y-99440828D01*
X122427461Y-99469498D01*
X122390109Y-99489250D01*
X122159401Y-99622127D01*
X121927745Y-99780181D01*
X121701973Y-99957806D01*
X121488917Y-100149397D01*
X121295409Y-100349349D01*
X121187689Y-100475751D01*
X120993032Y-100739549D01*
X120818230Y-101022380D01*
X120665804Y-101319052D01*
X120538276Y-101624370D01*
X120438168Y-101933140D01*
X120393934Y-102110536D01*
X120377781Y-102186767D01*
X120364649Y-102254855D01*
X120355964Y-102306990D01*
X120353125Y-102334109D01*
X120349693Y-102367711D01*
X120343739Y-102382595D01*
X120326751Y-102379568D01*
X120287433Y-102364389D01*
X120231640Y-102339524D01*
X120165227Y-102307437D01*
X120165145Y-102307396D01*
X119986407Y-102225845D01*
X119818700Y-102166898D01*
X119653199Y-102128384D01*
X119481080Y-102108131D01*
X119337125Y-102103613D01*
X119248972Y-102105271D01*
X119161209Y-102109769D01*
X119084776Y-102116390D01*
X119036202Y-102123285D01*
X118822345Y-102178605D01*
X118604680Y-102262431D01*
X118387970Y-102372698D01*
X118221079Y-102476805D01*
X118168374Y-102515635D01*
X118104611Y-102567491D01*
X118033741Y-102628619D01*
X117959711Y-102695268D01*
X117886469Y-102763685D01*
X117817965Y-102830119D01*
X117758148Y-102890817D01*
X117710965Y-102942026D01*
X117680365Y-102979995D01*
X117670250Y-103000234D01*
X117682301Y-103032310D01*
X117716016Y-103080038D01*
X117767746Y-103139909D01*
X117833838Y-103208417D01*
X117910640Y-103282053D01*
X117994501Y-103357308D01*
X118081769Y-103430677D01*
X118168791Y-103498649D01*
X118247594Y-103554818D01*
X118455470Y-103681708D01*
X118659868Y-103779128D01*
X118864926Y-103848430D01*
X119074781Y-103890969D01*
X119293570Y-103908097D01*
X119329188Y-103908568D01*
X119521197Y-103901249D01*
X119699132Y-103875914D01*
X119871751Y-103830420D01*
X120047815Y-103762623D01*
X120177205Y-103701050D01*
X120242240Y-103668472D01*
X120295945Y-103642454D01*
X120332636Y-103625689D01*
X120346589Y-103620815D01*
X120351312Y-103636880D01*
X120361385Y-103677874D01*
X120375359Y-103737711D01*
X120391786Y-103810309D01*
X120392873Y-103815187D01*
X120476549Y-104124656D01*
X120588596Y-104433713D01*
X120726130Y-104736352D01*
X120886271Y-105026564D01*
X121066135Y-105298342D01*
X121169740Y-105434437D01*
X121240391Y-105517556D01*
X121328950Y-105613891D01*
X121428648Y-105716681D01*
X121532717Y-105819165D01*
X121634387Y-105914583D01*
X121726890Y-105996172D01*
X121757613Y-106021644D01*
X121978001Y-106187146D01*
X122213973Y-106340331D01*
X122365136Y-106426625D01*
X122428913Y-106461908D01*
X122480947Y-106492409D01*
X122515669Y-106514745D01*
X122527548Y-106525284D01*
X122513093Y-106537828D01*
X122471945Y-106555201D01*
X122408595Y-106576264D01*
X122327534Y-106599882D01*
X122233255Y-106624918D01*
X122130249Y-106650233D01*
X122023007Y-106674692D01*
X121916021Y-106697158D01*
X121813782Y-106716493D01*
X121720782Y-106731561D01*
X121702500Y-106734124D01*
X121589466Y-106745643D01*
X121453880Y-106753398D01*
X121304717Y-106757373D01*
X121150955Y-106757556D01*
X121001568Y-106753932D01*
X120865532Y-106746487D01*
X120754782Y-106735597D01*
X120409283Y-106675015D01*
X120074668Y-106585176D01*
X119752395Y-106466993D01*
X119443923Y-106321381D01*
X119150713Y-106149254D01*
X118874223Y-105951527D01*
X118615912Y-105729113D01*
X118377239Y-105482927D01*
X118159664Y-105213882D01*
X118031839Y-105029625D01*
X117857866Y-104734301D01*
X117712659Y-104427135D01*
X117596410Y-104110133D01*
X117509314Y-103785302D01*
X117451566Y-103454649D01*
X117423360Y-103120179D01*
X117424891Y-102783900D01*
X117456351Y-102447817D01*
X117517937Y-102113939D01*
X117609842Y-101784270D01*
X117694953Y-101550499D01*
X117836863Y-101239138D01*
X118006310Y-100942706D01*
X118202061Y-100662702D01*
X118422884Y-100400622D01*
X118667547Y-100157964D01*
X118934819Y-99936225D01*
X119146625Y-99786358D01*
X119351196Y-99663122D01*
X119578196Y-99547116D01*
X119818485Y-99442165D01*
X120062925Y-99352099D01*
X120302377Y-99280744D01*
X120421468Y-99252395D01*
X120689683Y-99206495D01*
X120972328Y-99180003D01*
X121261008Y-99172923D01*
X121547325Y-99185262D01*
X121822882Y-99217025D01*
X122007057Y-99251298D01*
X122075401Y-99267487D01*
X122154014Y-99287995D01*
X122237276Y-99311125D01*
X122319565Y-99335180D01*
X122395260Y-99358463D01*
X122458740Y-99379278D01*
X122504383Y-99395927D01*
X122526569Y-99406713D01*
X122527812Y-99408505D01*
X124242500Y-99408505D01*
X124242500Y-99024235D01*
X124043648Y-99035283D01*
X123784209Y-99056538D01*
X123540891Y-99091641D01*
X123302058Y-99142837D01*
X123056071Y-99212372D01*
X122954326Y-99245401D01*
X122737715Y-99318021D01*
X122585912Y-99261154D01*
X122263847Y-99157260D01*
X121932545Y-99082648D01*
X121594758Y-99037204D01*
X121253241Y-99020809D01*
X120910743Y-99033347D01*
G36*
X119483676Y-104371570D02*
X119438015Y-104394161D01*
X119398860Y-104423304D01*
X119361502Y-104464333D01*
X119321230Y-104522582D01*
X119273334Y-104603388D01*
X119263286Y-104621191D01*
X119214482Y-104704293D01*
X119174060Y-104762071D01*
X119137618Y-104798263D01*
X119100757Y-104816606D01*
X119059075Y-104820840D01*
X119031222Y-104818339D01*
X118968658Y-104800114D01*
X118925061Y-104762518D01*
X118897439Y-104701783D01*
X118884812Y-104633821D01*
X118873633Y-104537500D01*
X118733875Y-104537500D01*
X118733964Y-104612906D01*
X118746568Y-104721023D01*
X118782438Y-104815589D01*
X118839065Y-104891837D01*
X118907097Y-104941586D01*
X118963220Y-104961176D01*
X119031627Y-104972359D01*
X119097086Y-104973416D01*
X119133249Y-104967128D01*
X119180324Y-104950123D01*
X119219926Y-104929254D01*
X119255882Y-104900300D01*
X119292020Y-104859041D01*
X119332170Y-104801257D01*
X119380158Y-104722728D01*
X119424561Y-104645991D01*
X119469550Y-104575461D01*
X119511110Y-104530941D01*
X119554874Y-104508014D01*
X119606476Y-104502260D01*
X119607746Y-104502293D01*
X119676560Y-104517624D01*
X119726907Y-104557928D01*
X119757197Y-104621285D01*
X119765994Y-104693314D01*
X119770495Y-104749173D01*
X119786855Y-104779024D01*
X119820240Y-104787895D01*
X119859036Y-104783894D01*
X119900816Y-104774355D01*
X119919487Y-104760009D01*
X119923605Y-104733782D01*
X119923554Y-104730573D01*
X119910670Y-104611825D01*
X119877256Y-104516270D01*
X119822368Y-104442115D01*
X119745066Y-104387568D01*
X119742790Y-104386416D01*
X119647245Y-104353234D01*
X119554502Y-104351438D01*
X119483676Y-104371570D01*
X119483676Y-104371570D01*
G37*
X119483676Y-104371570D02*
X119438015Y-104394161D01*
X119398860Y-104423304D01*
X119361502Y-104464333D01*
X119321230Y-104522582D01*
X119273334Y-104603388D01*
X119263286Y-104621191D01*
X119214482Y-104704293D01*
X119174060Y-104762071D01*
X119137618Y-104798263D01*
X119100757Y-104816606D01*
X119059075Y-104820840D01*
X119031222Y-104818339D01*
X118968658Y-104800114D01*
X118925061Y-104762518D01*
X118897439Y-104701783D01*
X118884812Y-104633821D01*
X118873633Y-104537500D01*
X118733875Y-104537500D01*
X118733964Y-104612906D01*
X118746568Y-104721023D01*
X118782438Y-104815589D01*
X118839065Y-104891837D01*
X118907097Y-104941586D01*
X118963220Y-104961176D01*
X119031627Y-104972359D01*
X119097086Y-104973416D01*
X119133249Y-104967128D01*
X119180324Y-104950123D01*
X119219926Y-104929254D01*
X119255882Y-104900300D01*
X119292020Y-104859041D01*
X119332170Y-104801257D01*
X119380158Y-104722728D01*
X119424561Y-104645991D01*
X119469550Y-104575461D01*
X119511110Y-104530941D01*
X119554874Y-104508014D01*
X119606476Y-104502260D01*
X119607746Y-104502293D01*
X119676560Y-104517624D01*
X119726907Y-104557928D01*
X119757197Y-104621285D01*
X119765994Y-104693314D01*
X119770495Y-104749173D01*
X119786855Y-104779024D01*
X119820240Y-104787895D01*
X119859036Y-104783894D01*
X119900816Y-104774355D01*
X119919487Y-104760009D01*
X119923605Y-104733782D01*
X119923554Y-104730573D01*
X119910670Y-104611825D01*
X119877256Y-104516270D01*
X119822368Y-104442115D01*
X119745066Y-104387568D01*
X119742790Y-104386416D01*
X119647245Y-104353234D01*
X119554502Y-104351438D01*
X119483676Y-104371570D01*
G36*
X119416500Y-101505375D02*
X119241875Y-101505375D01*
X119241875Y-101378375D01*
X119099000Y-101378375D01*
X119099000Y-101505375D01*
X118924375Y-101505375D01*
X118924375Y-100902125D01*
X118781500Y-100902125D01*
X118781500Y-101664125D01*
X119559375Y-101664125D01*
X119559375Y-101029125D01*
X119797500Y-101029125D01*
X119797500Y-101648250D01*
X119940375Y-101648250D01*
X119940375Y-100886250D01*
X119416500Y-100886250D01*
X119416500Y-101505375D01*
X119416500Y-101505375D01*
G37*
X119416500Y-101505375D02*
X119241875Y-101505375D01*
X119241875Y-101378375D01*
X119099000Y-101378375D01*
X119099000Y-101505375D01*
X118924375Y-101505375D01*
X118924375Y-100902125D01*
X118781500Y-100902125D01*
X118781500Y-101664125D01*
X119559375Y-101664125D01*
X119559375Y-101029125D01*
X119797500Y-101029125D01*
X119797500Y-101648250D01*
X119940375Y-101648250D01*
X119940375Y-100886250D01*
X119416500Y-100886250D01*
X119416500Y-101505375D01*
G36*
X119099000Y-101314875D02*
X119241875Y-101314875D01*
X119241875Y-101140250D01*
X119099000Y-101140250D01*
X119099000Y-101314875D01*
X119099000Y-101314875D01*
G37*
X119099000Y-101314875D02*
X119241875Y-101314875D01*
X119241875Y-101140250D01*
X119099000Y-101140250D01*
X119099000Y-101314875D01*
G36*
X119099000Y-101076750D02*
X119241875Y-101076750D01*
X119241875Y-100902125D01*
X119099000Y-100902125D01*
X119099000Y-101076750D01*
X119099000Y-101076750D01*
G37*
X119099000Y-101076750D02*
X119241875Y-101076750D01*
X119241875Y-100902125D01*
X119099000Y-100902125D01*
X119099000Y-101076750D01*
G36*
X119241718Y-102702175D02*
X119161206Y-102739674D01*
X119097110Y-102796209D01*
X119050948Y-102866899D01*
X119024241Y-102946865D01*
X119018508Y-103031227D01*
X119035269Y-103115106D01*
X119076043Y-103193621D01*
X119142350Y-103261894D01*
X119155563Y-103271635D01*
X119226119Y-103305907D01*
X119310392Y-103324394D01*
X119394092Y-103324856D01*
X119437376Y-103315782D01*
X119521973Y-103273878D01*
X119586372Y-103212460D01*
X119629941Y-103137019D01*
X119652045Y-103053046D01*
X119652052Y-102966032D01*
X119629327Y-102881468D01*
X119583239Y-102804847D01*
X119513153Y-102741659D01*
X119504253Y-102735952D01*
X119446137Y-102705234D01*
X119391194Y-102691289D01*
X119337125Y-102688591D01*
X119241718Y-102702175D01*
X119241718Y-102702175D01*
G37*
X119241718Y-102702175D02*
X119161206Y-102739674D01*
X119097110Y-102796209D01*
X119050948Y-102866899D01*
X119024241Y-102946865D01*
X119018508Y-103031227D01*
X119035269Y-103115106D01*
X119076043Y-103193621D01*
X119142350Y-103261894D01*
X119155563Y-103271635D01*
X119226119Y-103305907D01*
X119310392Y-103324394D01*
X119394092Y-103324856D01*
X119437376Y-103315782D01*
X119521973Y-103273878D01*
X119586372Y-103212460D01*
X119629941Y-103137019D01*
X119652045Y-103053046D01*
X119652052Y-102966032D01*
X119629327Y-102881468D01*
X119583239Y-102804847D01*
X119513153Y-102741659D01*
X119504253Y-102735952D01*
X119446137Y-102705234D01*
X119391194Y-102691289D01*
X119337125Y-102688591D01*
X119241718Y-102702175D01*
G36*
X120908333Y-133860409D02*
X120567609Y-133901764D01*
X120231409Y-133971820D01*
X119902486Y-134070459D01*
X119583593Y-134197565D01*
X119541090Y-134217071D01*
X119236058Y-134376667D01*
X118947134Y-134562593D01*
X118675868Y-134772962D01*
X118423811Y-135005887D01*
X118192516Y-135259483D01*
X117983532Y-135531862D01*
X117798411Y-135821139D01*
X117638703Y-136125425D01*
X117505961Y-136442836D01*
X117401735Y-136771484D01*
X117383781Y-136841082D01*
X117349520Y-136987823D01*
X117323264Y-137122230D01*
X117303860Y-137253373D01*
X117290155Y-137390321D01*
X117280997Y-137542145D01*
X117275925Y-137689749D01*
X117278964Y-138026056D01*
X117306597Y-138345672D01*
X117359790Y-138653113D01*
X117439509Y-138952899D01*
X117546720Y-139249547D01*
X117666431Y-139515374D01*
X117837443Y-139828938D01*
X118032227Y-140122474D01*
X118249401Y-140394977D01*
X118487586Y-140645444D01*
X118745400Y-140872871D01*
X119021464Y-141076254D01*
X119314396Y-141254590D01*
X119622817Y-141406874D01*
X119945344Y-141532103D01*
X120280598Y-141629273D01*
X120627199Y-141697380D01*
X120677474Y-141704666D01*
X120760302Y-141713975D01*
X120863819Y-141722329D01*
X120980092Y-141729406D01*
X121101189Y-141734882D01*
X121219178Y-141738432D01*
X121326128Y-141739734D01*
X121414107Y-141738462D01*
X121454028Y-141736365D01*
X121777477Y-141700937D01*
X122084495Y-141644239D01*
X122383657Y-141564566D01*
X122489120Y-141530592D01*
X122746338Y-141444052D01*
X122981245Y-141522125D01*
X123238542Y-141599420D01*
X123489246Y-141656993D01*
X123744823Y-141697010D01*
X124016739Y-141721640D01*
X124045622Y-141723360D01*
X124240090Y-141734434D01*
X124240090Y-137841391D01*
X121001590Y-137841391D01*
X120990342Y-137861074D01*
X120959333Y-137897740D01*
X120912667Y-137947433D01*
X120854447Y-138006194D01*
X120788776Y-138070065D01*
X120719759Y-138135090D01*
X120651498Y-138197309D01*
X120588096Y-138252764D01*
X120533658Y-138297499D01*
X120510623Y-138314943D01*
X120454115Y-138355198D01*
X120407028Y-138387311D01*
X120375266Y-138407339D01*
X120365174Y-138412062D01*
X120355818Y-138398031D01*
X120346595Y-138362967D01*
X120344173Y-138348562D01*
X120332535Y-138270709D01*
X120325731Y-138217807D01*
X120325129Y-138183246D01*
X120331337Y-138162900D01*
X120307881Y-138162900D01*
X120262361Y-138196199D01*
X120231714Y-138215910D01*
X120183597Y-138243903D01*
X120124975Y-138276461D01*
X120062815Y-138309868D01*
X120004084Y-138340406D01*
X119955747Y-138364360D01*
X119924771Y-138378011D01*
X119918227Y-138379810D01*
X119920280Y-138368897D01*
X119938008Y-138340239D01*
X119957946Y-138312816D01*
X120021796Y-138211056D01*
X120072438Y-138094224D01*
X120107105Y-137971712D01*
X120123029Y-137852911D01*
X120121108Y-137797414D01*
X119966890Y-137797414D01*
X119962830Y-137912489D01*
X119938364Y-138018097D01*
X119882416Y-138147662D01*
X119801650Y-138259328D01*
X119699229Y-138350203D01*
X119578313Y-138417395D01*
X119461739Y-138454078D01*
X119400128Y-138466720D01*
X119356005Y-138472548D01*
X119315905Y-138471811D01*
X119266361Y-138464756D01*
X119230475Y-138458320D01*
X119092889Y-138417849D01*
X119024612Y-138380268D01*
X118758234Y-138380268D01*
X118757728Y-138380312D01*
X118739670Y-138373598D01*
X118700049Y-138355538D01*
X118645561Y-138329251D01*
X118608117Y-138310625D01*
X118527487Y-138266845D01*
X118438511Y-138213528D01*
X118357821Y-138160734D01*
X118342528Y-138149970D01*
X118271578Y-138097121D01*
X118199840Y-138040155D01*
X118131778Y-137983028D01*
X118071857Y-137929696D01*
X118024542Y-137884116D01*
X117994296Y-137850242D01*
X117985340Y-137833465D01*
X117997198Y-137814160D01*
X118029668Y-137779662D01*
X118078093Y-137734005D01*
X118137819Y-137681223D01*
X118204189Y-137625349D01*
X118272548Y-137570415D01*
X118338239Y-137520456D01*
X118384805Y-137487417D01*
X118476994Y-137428410D01*
X118573415Y-137372987D01*
X118663736Y-137326828D01*
X118726311Y-137299753D01*
X118748896Y-137292011D01*
X118754416Y-137295419D01*
X118741908Y-137314799D01*
X118716942Y-137346730D01*
X118656467Y-137439716D01*
X118604814Y-137550643D01*
X118567843Y-137665840D01*
X118556745Y-137720446D01*
X118549265Y-137858091D01*
X118567322Y-137998856D01*
X118608661Y-138134889D01*
X118671022Y-138258337D01*
X118736194Y-138344593D01*
X118755587Y-138369226D01*
X118758234Y-138380268D01*
X119024612Y-138380268D01*
X118971463Y-138351014D01*
X118868848Y-138260189D01*
X118787700Y-138147744D01*
X118730670Y-138016053D01*
X118728760Y-138009866D01*
X118703950Y-137876329D01*
X118708886Y-137743844D01*
X118741716Y-137616550D01*
X118800587Y-137498586D01*
X118883645Y-137394094D01*
X118989039Y-137307211D01*
X119061988Y-137265374D01*
X119112035Y-137241816D01*
X119153297Y-137226717D01*
X119195576Y-137218211D01*
X119248676Y-137214429D01*
X119322400Y-137213506D01*
X119334382Y-137213499D01*
X119413853Y-137214411D01*
X119471181Y-137218201D01*
X119515948Y-137226451D01*
X119557734Y-137240742D01*
X119592177Y-137256045D01*
X119711177Y-137328404D01*
X119811824Y-137423416D01*
X119890126Y-137536340D01*
X119942088Y-137662433D01*
X119945731Y-137675774D01*
X119966890Y-137797414D01*
X120121108Y-137797414D01*
X120119916Y-137762998D01*
X120088918Y-137625484D01*
X120035612Y-137490217D01*
X119976291Y-137386983D01*
X119942197Y-137336585D01*
X119924836Y-137307770D01*
X119922827Y-137296043D01*
X119934794Y-137296909D01*
X119950378Y-137302460D01*
X119991982Y-137320803D01*
X120049983Y-137349566D01*
X120115404Y-137383920D01*
X120179268Y-137419043D01*
X120232599Y-137450106D01*
X120266418Y-137472286D01*
X120266694Y-137472497D01*
X120278289Y-137482669D01*
X120287024Y-137495770D01*
X120293358Y-137516141D01*
X120297751Y-137548127D01*
X120300663Y-137596071D01*
X120302554Y-137664316D01*
X120303882Y-137757206D01*
X120304645Y-137831074D01*
X120307881Y-138162900D01*
X120331337Y-138162900D01*
X120332095Y-138160416D01*
X120347996Y-138142709D01*
X120374200Y-138123514D01*
X120393533Y-138109903D01*
X120439749Y-138073886D01*
X120498617Y-138024043D01*
X120560217Y-137968882D01*
X120585557Y-137945190D01*
X120701337Y-137835223D01*
X120633182Y-137765474D01*
X120589086Y-137723462D01*
X120529960Y-137671270D01*
X120466091Y-137617879D01*
X120441997Y-137598574D01*
X120384603Y-137552399D01*
X120347196Y-137516368D01*
X120326557Y-137482048D01*
X120319469Y-137441006D01*
X120322714Y-137384808D01*
X120332262Y-137310977D01*
X120342778Y-137233829D01*
X120469778Y-137324913D01*
X120542361Y-137379142D01*
X120621311Y-137441529D01*
X120692089Y-137500515D01*
X120706589Y-137513186D01*
X120760954Y-137563731D01*
X120818725Y-137621470D01*
X120875408Y-137681399D01*
X120926504Y-137738516D01*
X120967516Y-137787817D01*
X120993947Y-137824299D01*
X121001590Y-137841391D01*
X124240090Y-137841391D01*
X124240090Y-134235567D01*
X122525402Y-134235567D01*
X122512161Y-134246366D01*
X122476676Y-134267890D01*
X122425051Y-134296560D01*
X122387699Y-134316312D01*
X122156991Y-134449189D01*
X121925335Y-134607243D01*
X121699563Y-134784868D01*
X121486507Y-134976459D01*
X121292999Y-135176411D01*
X121185279Y-135302813D01*
X120990622Y-135566611D01*
X120815820Y-135849442D01*
X120663394Y-136146114D01*
X120535866Y-136451432D01*
X120435758Y-136760202D01*
X120391524Y-136937598D01*
X120375371Y-137013829D01*
X120362239Y-137081917D01*
X120353554Y-137134052D01*
X120350715Y-137161171D01*
X120347283Y-137194773D01*
X120341329Y-137209657D01*
X120324341Y-137206630D01*
X120285023Y-137191451D01*
X120229230Y-137166586D01*
X120162817Y-137134499D01*
X120162735Y-137134458D01*
X119983997Y-137052907D01*
X119816290Y-136993960D01*
X119650789Y-136955446D01*
X119478670Y-136935193D01*
X119334715Y-136930675D01*
X119246562Y-136932333D01*
X119158799Y-136936831D01*
X119082366Y-136943452D01*
X119033792Y-136950347D01*
X118819935Y-137005667D01*
X118602270Y-137089493D01*
X118385560Y-137199760D01*
X118218669Y-137303867D01*
X118165964Y-137342697D01*
X118102201Y-137394553D01*
X118031331Y-137455681D01*
X117957301Y-137522330D01*
X117884059Y-137590747D01*
X117815555Y-137657181D01*
X117755738Y-137717879D01*
X117708555Y-137769088D01*
X117677955Y-137807057D01*
X117667840Y-137827296D01*
X117679891Y-137859372D01*
X117713606Y-137907100D01*
X117765336Y-137966971D01*
X117831428Y-138035479D01*
X117908230Y-138109115D01*
X117992091Y-138184370D01*
X118079359Y-138257739D01*
X118166381Y-138325711D01*
X118245184Y-138381880D01*
X118453060Y-138508770D01*
X118657458Y-138606190D01*
X118862516Y-138675492D01*
X119072371Y-138718031D01*
X119291160Y-138735159D01*
X119326778Y-138735630D01*
X119518787Y-138728311D01*
X119696722Y-138702976D01*
X119869341Y-138657482D01*
X120045405Y-138589685D01*
X120174795Y-138528112D01*
X120239830Y-138495534D01*
X120293535Y-138469516D01*
X120330226Y-138452751D01*
X120344179Y-138447877D01*
X120348902Y-138463942D01*
X120358975Y-138504936D01*
X120372949Y-138564773D01*
X120389376Y-138637371D01*
X120390463Y-138642249D01*
X120474139Y-138951718D01*
X120586186Y-139260775D01*
X120723720Y-139563414D01*
X120883861Y-139853626D01*
X121063725Y-140125404D01*
X121167330Y-140261499D01*
X121237981Y-140344618D01*
X121326540Y-140440953D01*
X121426238Y-140543743D01*
X121530307Y-140646227D01*
X121631977Y-140741645D01*
X121724480Y-140823234D01*
X121755203Y-140848706D01*
X121975591Y-141014208D01*
X122211563Y-141167393D01*
X122362726Y-141253687D01*
X122426503Y-141288970D01*
X122478537Y-141319471D01*
X122513259Y-141341807D01*
X122525138Y-141352346D01*
X122510683Y-141364890D01*
X122469535Y-141382263D01*
X122406185Y-141403326D01*
X122325124Y-141426944D01*
X122230845Y-141451980D01*
X122127839Y-141477295D01*
X122020597Y-141501754D01*
X121913611Y-141524220D01*
X121811372Y-141543555D01*
X121718372Y-141558623D01*
X121700090Y-141561186D01*
X121587056Y-141572705D01*
X121451470Y-141580460D01*
X121302307Y-141584435D01*
X121148545Y-141584618D01*
X120999158Y-141580994D01*
X120863122Y-141573549D01*
X120752372Y-141562659D01*
X120406873Y-141502077D01*
X120072258Y-141412238D01*
X119749985Y-141294055D01*
X119441513Y-141148443D01*
X119148303Y-140976316D01*
X118871813Y-140778589D01*
X118613502Y-140556175D01*
X118374829Y-140309989D01*
X118157254Y-140040944D01*
X118029429Y-139856687D01*
X117855456Y-139561363D01*
X117710249Y-139254197D01*
X117594000Y-138937195D01*
X117506904Y-138612364D01*
X117449156Y-138281711D01*
X117420950Y-137947241D01*
X117422481Y-137610962D01*
X117453941Y-137274879D01*
X117515527Y-136941001D01*
X117607432Y-136611332D01*
X117692543Y-136377561D01*
X117834453Y-136066200D01*
X118003900Y-135769768D01*
X118199651Y-135489764D01*
X118420474Y-135227684D01*
X118665137Y-134985026D01*
X118932409Y-134763287D01*
X119144215Y-134613420D01*
X119348786Y-134490184D01*
X119575786Y-134374178D01*
X119816075Y-134269227D01*
X120060515Y-134179161D01*
X120299967Y-134107806D01*
X120419058Y-134079457D01*
X120687273Y-134033557D01*
X120969918Y-134007065D01*
X121258598Y-133999985D01*
X121544915Y-134012324D01*
X121820472Y-134044087D01*
X122004647Y-134078360D01*
X122072991Y-134094549D01*
X122151604Y-134115057D01*
X122234866Y-134138187D01*
X122317155Y-134162242D01*
X122392850Y-134185525D01*
X122456330Y-134206340D01*
X122501973Y-134222989D01*
X122524159Y-134233775D01*
X122525402Y-134235567D01*
X124240090Y-134235567D01*
X124240090Y-133851297D01*
X124041238Y-133862345D01*
X123781799Y-133883600D01*
X123538481Y-133918703D01*
X123299648Y-133969899D01*
X123053661Y-134039434D01*
X122951916Y-134072463D01*
X122735305Y-134145083D01*
X122583502Y-134088216D01*
X122261437Y-133984322D01*
X121930135Y-133909710D01*
X121592348Y-133864266D01*
X121250831Y-133847871D01*
X120908333Y-133860409D01*
X120908333Y-133860409D01*
G37*
X120908333Y-133860409D02*
X120567609Y-133901764D01*
X120231409Y-133971820D01*
X119902486Y-134070459D01*
X119583593Y-134197565D01*
X119541090Y-134217071D01*
X119236058Y-134376667D01*
X118947134Y-134562593D01*
X118675868Y-134772962D01*
X118423811Y-135005887D01*
X118192516Y-135259483D01*
X117983532Y-135531862D01*
X117798411Y-135821139D01*
X117638703Y-136125425D01*
X117505961Y-136442836D01*
X117401735Y-136771484D01*
X117383781Y-136841082D01*
X117349520Y-136987823D01*
X117323264Y-137122230D01*
X117303860Y-137253373D01*
X117290155Y-137390321D01*
X117280997Y-137542145D01*
X117275925Y-137689749D01*
X117278964Y-138026056D01*
X117306597Y-138345672D01*
X117359790Y-138653113D01*
X117439509Y-138952899D01*
X117546720Y-139249547D01*
X117666431Y-139515374D01*
X117837443Y-139828938D01*
X118032227Y-140122474D01*
X118249401Y-140394977D01*
X118487586Y-140645444D01*
X118745400Y-140872871D01*
X119021464Y-141076254D01*
X119314396Y-141254590D01*
X119622817Y-141406874D01*
X119945344Y-141532103D01*
X120280598Y-141629273D01*
X120627199Y-141697380D01*
X120677474Y-141704666D01*
X120760302Y-141713975D01*
X120863819Y-141722329D01*
X120980092Y-141729406D01*
X121101189Y-141734882D01*
X121219178Y-141738432D01*
X121326128Y-141739734D01*
X121414107Y-141738462D01*
X121454028Y-141736365D01*
X121777477Y-141700937D01*
X122084495Y-141644239D01*
X122383657Y-141564566D01*
X122489120Y-141530592D01*
X122746338Y-141444052D01*
X122981245Y-141522125D01*
X123238542Y-141599420D01*
X123489246Y-141656993D01*
X123744823Y-141697010D01*
X124016739Y-141721640D01*
X124045622Y-141723360D01*
X124240090Y-141734434D01*
X124240090Y-137841391D01*
X121001590Y-137841391D01*
X120990342Y-137861074D01*
X120959333Y-137897740D01*
X120912667Y-137947433D01*
X120854447Y-138006194D01*
X120788776Y-138070065D01*
X120719759Y-138135090D01*
X120651498Y-138197309D01*
X120588096Y-138252764D01*
X120533658Y-138297499D01*
X120510623Y-138314943D01*
X120454115Y-138355198D01*
X120407028Y-138387311D01*
X120375266Y-138407339D01*
X120365174Y-138412062D01*
X120355818Y-138398031D01*
X120346595Y-138362967D01*
X120344173Y-138348562D01*
X120332535Y-138270709D01*
X120325731Y-138217807D01*
X120325129Y-138183246D01*
X120331337Y-138162900D01*
X120307881Y-138162900D01*
X120262361Y-138196199D01*
X120231714Y-138215910D01*
X120183597Y-138243903D01*
X120124975Y-138276461D01*
X120062815Y-138309868D01*
X120004084Y-138340406D01*
X119955747Y-138364360D01*
X119924771Y-138378011D01*
X119918227Y-138379810D01*
X119920280Y-138368897D01*
X119938008Y-138340239D01*
X119957946Y-138312816D01*
X120021796Y-138211056D01*
X120072438Y-138094224D01*
X120107105Y-137971712D01*
X120123029Y-137852911D01*
X120121108Y-137797414D01*
X119966890Y-137797414D01*
X119962830Y-137912489D01*
X119938364Y-138018097D01*
X119882416Y-138147662D01*
X119801650Y-138259328D01*
X119699229Y-138350203D01*
X119578313Y-138417395D01*
X119461739Y-138454078D01*
X119400128Y-138466720D01*
X119356005Y-138472548D01*
X119315905Y-138471811D01*
X119266361Y-138464756D01*
X119230475Y-138458320D01*
X119092889Y-138417849D01*
X119024612Y-138380268D01*
X118758234Y-138380268D01*
X118757728Y-138380312D01*
X118739670Y-138373598D01*
X118700049Y-138355538D01*
X118645561Y-138329251D01*
X118608117Y-138310625D01*
X118527487Y-138266845D01*
X118438511Y-138213528D01*
X118357821Y-138160734D01*
X118342528Y-138149970D01*
X118271578Y-138097121D01*
X118199840Y-138040155D01*
X118131778Y-137983028D01*
X118071857Y-137929696D01*
X118024542Y-137884116D01*
X117994296Y-137850242D01*
X117985340Y-137833465D01*
X117997198Y-137814160D01*
X118029668Y-137779662D01*
X118078093Y-137734005D01*
X118137819Y-137681223D01*
X118204189Y-137625349D01*
X118272548Y-137570415D01*
X118338239Y-137520456D01*
X118384805Y-137487417D01*
X118476994Y-137428410D01*
X118573415Y-137372987D01*
X118663736Y-137326828D01*
X118726311Y-137299753D01*
X118748896Y-137292011D01*
X118754416Y-137295419D01*
X118741908Y-137314799D01*
X118716942Y-137346730D01*
X118656467Y-137439716D01*
X118604814Y-137550643D01*
X118567843Y-137665840D01*
X118556745Y-137720446D01*
X118549265Y-137858091D01*
X118567322Y-137998856D01*
X118608661Y-138134889D01*
X118671022Y-138258337D01*
X118736194Y-138344593D01*
X118755587Y-138369226D01*
X118758234Y-138380268D01*
X119024612Y-138380268D01*
X118971463Y-138351014D01*
X118868848Y-138260189D01*
X118787700Y-138147744D01*
X118730670Y-138016053D01*
X118728760Y-138009866D01*
X118703950Y-137876329D01*
X118708886Y-137743844D01*
X118741716Y-137616550D01*
X118800587Y-137498586D01*
X118883645Y-137394094D01*
X118989039Y-137307211D01*
X119061988Y-137265374D01*
X119112035Y-137241816D01*
X119153297Y-137226717D01*
X119195576Y-137218211D01*
X119248676Y-137214429D01*
X119322400Y-137213506D01*
X119334382Y-137213499D01*
X119413853Y-137214411D01*
X119471181Y-137218201D01*
X119515948Y-137226451D01*
X119557734Y-137240742D01*
X119592177Y-137256045D01*
X119711177Y-137328404D01*
X119811824Y-137423416D01*
X119890126Y-137536340D01*
X119942088Y-137662433D01*
X119945731Y-137675774D01*
X119966890Y-137797414D01*
X120121108Y-137797414D01*
X120119916Y-137762998D01*
X120088918Y-137625484D01*
X120035612Y-137490217D01*
X119976291Y-137386983D01*
X119942197Y-137336585D01*
X119924836Y-137307770D01*
X119922827Y-137296043D01*
X119934794Y-137296909D01*
X119950378Y-137302460D01*
X119991982Y-137320803D01*
X120049983Y-137349566D01*
X120115404Y-137383920D01*
X120179268Y-137419043D01*
X120232599Y-137450106D01*
X120266418Y-137472286D01*
X120266694Y-137472497D01*
X120278289Y-137482669D01*
X120287024Y-137495770D01*
X120293358Y-137516141D01*
X120297751Y-137548127D01*
X120300663Y-137596071D01*
X120302554Y-137664316D01*
X120303882Y-137757206D01*
X120304645Y-137831074D01*
X120307881Y-138162900D01*
X120331337Y-138162900D01*
X120332095Y-138160416D01*
X120347996Y-138142709D01*
X120374200Y-138123514D01*
X120393533Y-138109903D01*
X120439749Y-138073886D01*
X120498617Y-138024043D01*
X120560217Y-137968882D01*
X120585557Y-137945190D01*
X120701337Y-137835223D01*
X120633182Y-137765474D01*
X120589086Y-137723462D01*
X120529960Y-137671270D01*
X120466091Y-137617879D01*
X120441997Y-137598574D01*
X120384603Y-137552399D01*
X120347196Y-137516368D01*
X120326557Y-137482048D01*
X120319469Y-137441006D01*
X120322714Y-137384808D01*
X120332262Y-137310977D01*
X120342778Y-137233829D01*
X120469778Y-137324913D01*
X120542361Y-137379142D01*
X120621311Y-137441529D01*
X120692089Y-137500515D01*
X120706589Y-137513186D01*
X120760954Y-137563731D01*
X120818725Y-137621470D01*
X120875408Y-137681399D01*
X120926504Y-137738516D01*
X120967516Y-137787817D01*
X120993947Y-137824299D01*
X121001590Y-137841391D01*
X124240090Y-137841391D01*
X124240090Y-134235567D01*
X122525402Y-134235567D01*
X122512161Y-134246366D01*
X122476676Y-134267890D01*
X122425051Y-134296560D01*
X122387699Y-134316312D01*
X122156991Y-134449189D01*
X121925335Y-134607243D01*
X121699563Y-134784868D01*
X121486507Y-134976459D01*
X121292999Y-135176411D01*
X121185279Y-135302813D01*
X120990622Y-135566611D01*
X120815820Y-135849442D01*
X120663394Y-136146114D01*
X120535866Y-136451432D01*
X120435758Y-136760202D01*
X120391524Y-136937598D01*
X120375371Y-137013829D01*
X120362239Y-137081917D01*
X120353554Y-137134052D01*
X120350715Y-137161171D01*
X120347283Y-137194773D01*
X120341329Y-137209657D01*
X120324341Y-137206630D01*
X120285023Y-137191451D01*
X120229230Y-137166586D01*
X120162817Y-137134499D01*
X120162735Y-137134458D01*
X119983997Y-137052907D01*
X119816290Y-136993960D01*
X119650789Y-136955446D01*
X119478670Y-136935193D01*
X119334715Y-136930675D01*
X119246562Y-136932333D01*
X119158799Y-136936831D01*
X119082366Y-136943452D01*
X119033792Y-136950347D01*
X118819935Y-137005667D01*
X118602270Y-137089493D01*
X118385560Y-137199760D01*
X118218669Y-137303867D01*
X118165964Y-137342697D01*
X118102201Y-137394553D01*
X118031331Y-137455681D01*
X117957301Y-137522330D01*
X117884059Y-137590747D01*
X117815555Y-137657181D01*
X117755738Y-137717879D01*
X117708555Y-137769088D01*
X117677955Y-137807057D01*
X117667840Y-137827296D01*
X117679891Y-137859372D01*
X117713606Y-137907100D01*
X117765336Y-137966971D01*
X117831428Y-138035479D01*
X117908230Y-138109115D01*
X117992091Y-138184370D01*
X118079359Y-138257739D01*
X118166381Y-138325711D01*
X118245184Y-138381880D01*
X118453060Y-138508770D01*
X118657458Y-138606190D01*
X118862516Y-138675492D01*
X119072371Y-138718031D01*
X119291160Y-138735159D01*
X119326778Y-138735630D01*
X119518787Y-138728311D01*
X119696722Y-138702976D01*
X119869341Y-138657482D01*
X120045405Y-138589685D01*
X120174795Y-138528112D01*
X120239830Y-138495534D01*
X120293535Y-138469516D01*
X120330226Y-138452751D01*
X120344179Y-138447877D01*
X120348902Y-138463942D01*
X120358975Y-138504936D01*
X120372949Y-138564773D01*
X120389376Y-138637371D01*
X120390463Y-138642249D01*
X120474139Y-138951718D01*
X120586186Y-139260775D01*
X120723720Y-139563414D01*
X120883861Y-139853626D01*
X121063725Y-140125404D01*
X121167330Y-140261499D01*
X121237981Y-140344618D01*
X121326540Y-140440953D01*
X121426238Y-140543743D01*
X121530307Y-140646227D01*
X121631977Y-140741645D01*
X121724480Y-140823234D01*
X121755203Y-140848706D01*
X121975591Y-141014208D01*
X122211563Y-141167393D01*
X122362726Y-141253687D01*
X122426503Y-141288970D01*
X122478537Y-141319471D01*
X122513259Y-141341807D01*
X122525138Y-141352346D01*
X122510683Y-141364890D01*
X122469535Y-141382263D01*
X122406185Y-141403326D01*
X122325124Y-141426944D01*
X122230845Y-141451980D01*
X122127839Y-141477295D01*
X122020597Y-141501754D01*
X121913611Y-141524220D01*
X121811372Y-141543555D01*
X121718372Y-141558623D01*
X121700090Y-141561186D01*
X121587056Y-141572705D01*
X121451470Y-141580460D01*
X121302307Y-141584435D01*
X121148545Y-141584618D01*
X120999158Y-141580994D01*
X120863122Y-141573549D01*
X120752372Y-141562659D01*
X120406873Y-141502077D01*
X120072258Y-141412238D01*
X119749985Y-141294055D01*
X119441513Y-141148443D01*
X119148303Y-140976316D01*
X118871813Y-140778589D01*
X118613502Y-140556175D01*
X118374829Y-140309989D01*
X118157254Y-140040944D01*
X118029429Y-139856687D01*
X117855456Y-139561363D01*
X117710249Y-139254197D01*
X117594000Y-138937195D01*
X117506904Y-138612364D01*
X117449156Y-138281711D01*
X117420950Y-137947241D01*
X117422481Y-137610962D01*
X117453941Y-137274879D01*
X117515527Y-136941001D01*
X117607432Y-136611332D01*
X117692543Y-136377561D01*
X117834453Y-136066200D01*
X118003900Y-135769768D01*
X118199651Y-135489764D01*
X118420474Y-135227684D01*
X118665137Y-134985026D01*
X118932409Y-134763287D01*
X119144215Y-134613420D01*
X119348786Y-134490184D01*
X119575786Y-134374178D01*
X119816075Y-134269227D01*
X120060515Y-134179161D01*
X120299967Y-134107806D01*
X120419058Y-134079457D01*
X120687273Y-134033557D01*
X120969918Y-134007065D01*
X121258598Y-133999985D01*
X121544915Y-134012324D01*
X121820472Y-134044087D01*
X122004647Y-134078360D01*
X122072991Y-134094549D01*
X122151604Y-134115057D01*
X122234866Y-134138187D01*
X122317155Y-134162242D01*
X122392850Y-134185525D01*
X122456330Y-134206340D01*
X122501973Y-134222989D01*
X122524159Y-134233775D01*
X122525402Y-134235567D01*
X124240090Y-134235567D01*
X124240090Y-133851297D01*
X124041238Y-133862345D01*
X123781799Y-133883600D01*
X123538481Y-133918703D01*
X123299648Y-133969899D01*
X123053661Y-134039434D01*
X122951916Y-134072463D01*
X122735305Y-134145083D01*
X122583502Y-134088216D01*
X122261437Y-133984322D01*
X121930135Y-133909710D01*
X121592348Y-133864266D01*
X121250831Y-133847871D01*
X120908333Y-133860409D01*
G36*
X119481266Y-139198632D02*
X119435605Y-139221223D01*
X119396450Y-139250366D01*
X119359092Y-139291395D01*
X119318820Y-139349644D01*
X119270924Y-139430450D01*
X119260876Y-139448253D01*
X119212072Y-139531355D01*
X119171650Y-139589133D01*
X119135208Y-139625325D01*
X119098347Y-139643668D01*
X119056665Y-139647902D01*
X119028812Y-139645401D01*
X118966248Y-139627176D01*
X118922651Y-139589580D01*
X118895029Y-139528845D01*
X118882402Y-139460883D01*
X118871223Y-139364562D01*
X118731465Y-139364562D01*
X118731554Y-139439968D01*
X118744158Y-139548085D01*
X118780028Y-139642651D01*
X118836655Y-139718899D01*
X118904687Y-139768648D01*
X118960810Y-139788238D01*
X119029217Y-139799421D01*
X119094676Y-139800478D01*
X119130839Y-139794190D01*
X119177914Y-139777185D01*
X119217516Y-139756316D01*
X119253472Y-139727362D01*
X119289610Y-139686103D01*
X119329760Y-139628319D01*
X119377748Y-139549790D01*
X119422151Y-139473053D01*
X119467140Y-139402523D01*
X119508700Y-139358003D01*
X119552464Y-139335076D01*
X119604066Y-139329322D01*
X119605336Y-139329355D01*
X119674150Y-139344686D01*
X119724497Y-139384990D01*
X119754787Y-139448347D01*
X119763584Y-139520376D01*
X119768085Y-139576235D01*
X119784445Y-139606086D01*
X119817830Y-139614957D01*
X119856626Y-139610956D01*
X119898406Y-139601417D01*
X119917077Y-139587071D01*
X119921195Y-139560844D01*
X119921144Y-139557635D01*
X119908260Y-139438887D01*
X119874846Y-139343332D01*
X119819958Y-139269177D01*
X119742656Y-139214630D01*
X119740380Y-139213478D01*
X119644835Y-139180296D01*
X119552092Y-139178500D01*
X119481266Y-139198632D01*
X119481266Y-139198632D01*
G37*
X119481266Y-139198632D02*
X119435605Y-139221223D01*
X119396450Y-139250366D01*
X119359092Y-139291395D01*
X119318820Y-139349644D01*
X119270924Y-139430450D01*
X119260876Y-139448253D01*
X119212072Y-139531355D01*
X119171650Y-139589133D01*
X119135208Y-139625325D01*
X119098347Y-139643668D01*
X119056665Y-139647902D01*
X119028812Y-139645401D01*
X118966248Y-139627176D01*
X118922651Y-139589580D01*
X118895029Y-139528845D01*
X118882402Y-139460883D01*
X118871223Y-139364562D01*
X118731465Y-139364562D01*
X118731554Y-139439968D01*
X118744158Y-139548085D01*
X118780028Y-139642651D01*
X118836655Y-139718899D01*
X118904687Y-139768648D01*
X118960810Y-139788238D01*
X119029217Y-139799421D01*
X119094676Y-139800478D01*
X119130839Y-139794190D01*
X119177914Y-139777185D01*
X119217516Y-139756316D01*
X119253472Y-139727362D01*
X119289610Y-139686103D01*
X119329760Y-139628319D01*
X119377748Y-139549790D01*
X119422151Y-139473053D01*
X119467140Y-139402523D01*
X119508700Y-139358003D01*
X119552464Y-139335076D01*
X119604066Y-139329322D01*
X119605336Y-139329355D01*
X119674150Y-139344686D01*
X119724497Y-139384990D01*
X119754787Y-139448347D01*
X119763584Y-139520376D01*
X119768085Y-139576235D01*
X119784445Y-139606086D01*
X119817830Y-139614957D01*
X119856626Y-139610956D01*
X119898406Y-139601417D01*
X119917077Y-139587071D01*
X119921195Y-139560844D01*
X119921144Y-139557635D01*
X119908260Y-139438887D01*
X119874846Y-139343332D01*
X119819958Y-139269177D01*
X119742656Y-139214630D01*
X119740380Y-139213478D01*
X119644835Y-139180296D01*
X119552092Y-139178500D01*
X119481266Y-139198632D01*
G36*
X119414090Y-136332437D02*
X119239465Y-136332437D01*
X119239465Y-136205437D01*
X119096590Y-136205437D01*
X119096590Y-136332437D01*
X118921965Y-136332437D01*
X118921965Y-135729187D01*
X118779090Y-135729187D01*
X118779090Y-136491187D01*
X119556965Y-136491187D01*
X119556965Y-135856187D01*
X119795090Y-135856187D01*
X119795090Y-136475312D01*
X119937965Y-136475312D01*
X119937965Y-135713312D01*
X119414090Y-135713312D01*
X119414090Y-136332437D01*
X119414090Y-136332437D01*
G37*
X119414090Y-136332437D02*
X119239465Y-136332437D01*
X119239465Y-136205437D01*
X119096590Y-136205437D01*
X119096590Y-136332437D01*
X118921965Y-136332437D01*
X118921965Y-135729187D01*
X118779090Y-135729187D01*
X118779090Y-136491187D01*
X119556965Y-136491187D01*
X119556965Y-135856187D01*
X119795090Y-135856187D01*
X119795090Y-136475312D01*
X119937965Y-136475312D01*
X119937965Y-135713312D01*
X119414090Y-135713312D01*
X119414090Y-136332437D01*
G36*
X119096590Y-136141937D02*
X119239465Y-136141937D01*
X119239465Y-135967312D01*
X119096590Y-135967312D01*
X119096590Y-136141937D01*
X119096590Y-136141937D01*
G37*
X119096590Y-136141937D02*
X119239465Y-136141937D01*
X119239465Y-135967312D01*
X119096590Y-135967312D01*
X119096590Y-136141937D01*
G36*
X119096590Y-135903812D02*
X119239465Y-135903812D01*
X119239465Y-135729187D01*
X119096590Y-135729187D01*
X119096590Y-135903812D01*
X119096590Y-135903812D01*
G37*
X119096590Y-135903812D02*
X119239465Y-135903812D01*
X119239465Y-135729187D01*
X119096590Y-135729187D01*
X119096590Y-135903812D01*
G36*
X119239308Y-137529237D02*
X119158796Y-137566736D01*
X119094700Y-137623271D01*
X119048538Y-137693961D01*
X119021831Y-137773927D01*
X119016098Y-137858289D01*
X119032859Y-137942168D01*
X119073633Y-138020683D01*
X119139940Y-138088956D01*
X119153153Y-138098697D01*
X119223709Y-138132969D01*
X119307982Y-138151456D01*
X119391682Y-138151918D01*
X119434966Y-138142844D01*
X119519563Y-138100940D01*
X119583962Y-138039522D01*
X119627531Y-137964081D01*
X119649635Y-137880108D01*
X119649642Y-137793094D01*
X119626917Y-137708530D01*
X119580829Y-137631909D01*
X119510743Y-137568721D01*
X119501843Y-137563014D01*
X119443727Y-137532296D01*
X119388784Y-137518351D01*
X119334715Y-137515653D01*
X119239308Y-137529237D01*
X119239308Y-137529237D01*
G37*
X119239308Y-137529237D02*
X119158796Y-137566736D01*
X119094700Y-137623271D01*
X119048538Y-137693961D01*
X119021831Y-137773927D01*
X119016098Y-137858289D01*
X119032859Y-137942168D01*
X119073633Y-138020683D01*
X119139940Y-138088956D01*
X119153153Y-138098697D01*
X119223709Y-138132969D01*
X119307982Y-138151456D01*
X119391682Y-138151918D01*
X119434966Y-138142844D01*
X119519563Y-138100940D01*
X119583962Y-138039522D01*
X119627531Y-137964081D01*
X119649635Y-137880108D01*
X119649642Y-137793094D01*
X119626917Y-137708530D01*
X119580829Y-137631909D01*
X119510743Y-137568721D01*
X119501843Y-137563014D01*
X119443727Y-137532296D01*
X119388784Y-137518351D01*
X119334715Y-137515653D01*
X119239308Y-137529237D01*
G36*
X146758333Y-133860409D02*
X146417609Y-133901764D01*
X146081409Y-133971820D01*
X145752486Y-134070459D01*
X145433593Y-134197565D01*
X145391090Y-134217071D01*
X145086058Y-134376667D01*
X144797134Y-134562593D01*
X144525868Y-134772962D01*
X144273811Y-135005887D01*
X144042516Y-135259483D01*
X143833532Y-135531862D01*
X143648411Y-135821139D01*
X143488703Y-136125425D01*
X143355961Y-136442836D01*
X143251735Y-136771484D01*
X143233781Y-136841082D01*
X143199520Y-136987823D01*
X143173264Y-137122230D01*
X143153860Y-137253373D01*
X143140155Y-137390321D01*
X143130997Y-137542145D01*
X143125925Y-137689749D01*
X143128964Y-138026056D01*
X143156597Y-138345672D01*
X143209790Y-138653113D01*
X143289509Y-138952899D01*
X143396720Y-139249547D01*
X143516431Y-139515374D01*
X143687443Y-139828938D01*
X143882227Y-140122474D01*
X144099401Y-140394977D01*
X144337586Y-140645444D01*
X144595400Y-140872871D01*
X144871464Y-141076254D01*
X145164396Y-141254590D01*
X145472817Y-141406874D01*
X145795344Y-141532103D01*
X146130598Y-141629273D01*
X146477199Y-141697380D01*
X146527474Y-141704666D01*
X146610302Y-141713975D01*
X146713819Y-141722329D01*
X146830092Y-141729406D01*
X146951189Y-141734882D01*
X147069178Y-141738432D01*
X147176128Y-141739734D01*
X147264107Y-141738462D01*
X147304028Y-141736365D01*
X147627477Y-141700937D01*
X147934495Y-141644239D01*
X148233657Y-141564566D01*
X148339120Y-141530592D01*
X148596338Y-141444052D01*
X148831245Y-141522125D01*
X149088542Y-141599420D01*
X149339246Y-141656993D01*
X149594823Y-141697010D01*
X149866739Y-141721640D01*
X149895622Y-141723360D01*
X150090090Y-141734434D01*
X150090090Y-137841391D01*
X146851590Y-137841391D01*
X146840342Y-137861074D01*
X146809333Y-137897740D01*
X146762667Y-137947433D01*
X146704447Y-138006194D01*
X146638776Y-138070065D01*
X146569759Y-138135090D01*
X146501498Y-138197309D01*
X146438096Y-138252764D01*
X146383658Y-138297499D01*
X146360623Y-138314943D01*
X146304115Y-138355198D01*
X146257028Y-138387311D01*
X146225266Y-138407339D01*
X146215174Y-138412062D01*
X146205818Y-138398031D01*
X146196595Y-138362967D01*
X146194173Y-138348562D01*
X146182535Y-138270709D01*
X146175731Y-138217807D01*
X146175129Y-138183246D01*
X146181337Y-138162900D01*
X146157881Y-138162900D01*
X146112361Y-138196199D01*
X146081714Y-138215910D01*
X146033597Y-138243903D01*
X145974975Y-138276461D01*
X145912815Y-138309868D01*
X145854084Y-138340406D01*
X145805747Y-138364360D01*
X145774771Y-138378011D01*
X145768227Y-138379810D01*
X145770280Y-138368897D01*
X145788008Y-138340239D01*
X145807946Y-138312816D01*
X145871796Y-138211056D01*
X145922438Y-138094224D01*
X145957105Y-137971712D01*
X145973029Y-137852911D01*
X145971108Y-137797414D01*
X145816890Y-137797414D01*
X145812830Y-137912489D01*
X145788364Y-138018097D01*
X145732416Y-138147662D01*
X145651650Y-138259328D01*
X145549229Y-138350203D01*
X145428313Y-138417395D01*
X145311739Y-138454078D01*
X145250128Y-138466720D01*
X145206005Y-138472548D01*
X145165905Y-138471811D01*
X145116361Y-138464756D01*
X145080475Y-138458320D01*
X144942889Y-138417849D01*
X144874612Y-138380268D01*
X144608234Y-138380268D01*
X144607728Y-138380312D01*
X144589670Y-138373598D01*
X144550049Y-138355538D01*
X144495561Y-138329251D01*
X144458117Y-138310625D01*
X144377487Y-138266845D01*
X144288511Y-138213528D01*
X144207821Y-138160734D01*
X144192528Y-138149970D01*
X144121578Y-138097121D01*
X144049840Y-138040155D01*
X143981778Y-137983028D01*
X143921857Y-137929696D01*
X143874542Y-137884116D01*
X143844296Y-137850242D01*
X143835340Y-137833465D01*
X143847198Y-137814160D01*
X143879668Y-137779662D01*
X143928093Y-137734005D01*
X143987819Y-137681223D01*
X144054189Y-137625349D01*
X144122548Y-137570415D01*
X144188239Y-137520456D01*
X144234805Y-137487417D01*
X144326994Y-137428410D01*
X144423415Y-137372987D01*
X144513736Y-137326828D01*
X144576311Y-137299753D01*
X144598896Y-137292011D01*
X144604416Y-137295419D01*
X144591908Y-137314799D01*
X144566942Y-137346730D01*
X144506467Y-137439716D01*
X144454814Y-137550643D01*
X144417843Y-137665840D01*
X144406745Y-137720446D01*
X144399265Y-137858091D01*
X144417322Y-137998856D01*
X144458661Y-138134889D01*
X144521022Y-138258337D01*
X144586194Y-138344593D01*
X144605587Y-138369226D01*
X144608234Y-138380268D01*
X144874612Y-138380268D01*
X144821463Y-138351014D01*
X144718848Y-138260189D01*
X144637700Y-138147744D01*
X144580670Y-138016053D01*
X144578760Y-138009866D01*
X144553950Y-137876329D01*
X144558886Y-137743844D01*
X144591716Y-137616550D01*
X144650587Y-137498586D01*
X144733645Y-137394094D01*
X144839039Y-137307211D01*
X144911988Y-137265374D01*
X144962035Y-137241816D01*
X145003297Y-137226717D01*
X145045576Y-137218211D01*
X145098676Y-137214429D01*
X145172400Y-137213506D01*
X145184382Y-137213499D01*
X145263853Y-137214411D01*
X145321181Y-137218201D01*
X145365948Y-137226451D01*
X145407734Y-137240742D01*
X145442177Y-137256045D01*
X145561177Y-137328404D01*
X145661824Y-137423416D01*
X145740126Y-137536340D01*
X145792088Y-137662433D01*
X145795731Y-137675774D01*
X145816890Y-137797414D01*
X145971108Y-137797414D01*
X145969916Y-137762998D01*
X145938918Y-137625484D01*
X145885612Y-137490217D01*
X145826291Y-137386983D01*
X145792197Y-137336585D01*
X145774836Y-137307770D01*
X145772827Y-137296043D01*
X145784794Y-137296909D01*
X145800378Y-137302460D01*
X145841982Y-137320803D01*
X145899983Y-137349566D01*
X145965404Y-137383920D01*
X146029268Y-137419043D01*
X146082599Y-137450106D01*
X146116418Y-137472286D01*
X146116694Y-137472497D01*
X146128289Y-137482669D01*
X146137024Y-137495770D01*
X146143358Y-137516141D01*
X146147751Y-137548127D01*
X146150663Y-137596071D01*
X146152554Y-137664316D01*
X146153882Y-137757206D01*
X146154645Y-137831074D01*
X146157881Y-138162900D01*
X146181337Y-138162900D01*
X146182095Y-138160416D01*
X146197996Y-138142709D01*
X146224200Y-138123514D01*
X146243533Y-138109903D01*
X146289749Y-138073886D01*
X146348617Y-138024043D01*
X146410217Y-137968882D01*
X146435557Y-137945190D01*
X146551337Y-137835223D01*
X146483182Y-137765474D01*
X146439086Y-137723462D01*
X146379960Y-137671270D01*
X146316091Y-137617879D01*
X146291997Y-137598574D01*
X146234603Y-137552399D01*
X146197196Y-137516368D01*
X146176557Y-137482048D01*
X146169469Y-137441006D01*
X146172714Y-137384808D01*
X146182262Y-137310977D01*
X146192778Y-137233829D01*
X146319778Y-137324913D01*
X146392361Y-137379142D01*
X146471311Y-137441529D01*
X146542089Y-137500515D01*
X146556589Y-137513186D01*
X146610954Y-137563731D01*
X146668725Y-137621470D01*
X146725408Y-137681399D01*
X146776504Y-137738516D01*
X146817516Y-137787817D01*
X146843947Y-137824299D01*
X146851590Y-137841391D01*
X150090090Y-137841391D01*
X150090090Y-134235567D01*
X148375402Y-134235567D01*
X148362161Y-134246366D01*
X148326676Y-134267890D01*
X148275051Y-134296560D01*
X148237699Y-134316312D01*
X148006991Y-134449189D01*
X147775335Y-134607243D01*
X147549563Y-134784868D01*
X147336507Y-134976459D01*
X147142999Y-135176411D01*
X147035279Y-135302813D01*
X146840622Y-135566611D01*
X146665820Y-135849442D01*
X146513394Y-136146114D01*
X146385866Y-136451432D01*
X146285758Y-136760202D01*
X146241524Y-136937598D01*
X146225371Y-137013829D01*
X146212239Y-137081917D01*
X146203554Y-137134052D01*
X146200715Y-137161171D01*
X146197283Y-137194773D01*
X146191329Y-137209657D01*
X146174341Y-137206630D01*
X146135023Y-137191451D01*
X146079230Y-137166586D01*
X146012817Y-137134499D01*
X146012735Y-137134458D01*
X145833997Y-137052907D01*
X145666290Y-136993960D01*
X145500789Y-136955446D01*
X145328670Y-136935193D01*
X145184715Y-136930675D01*
X145096562Y-136932333D01*
X145008799Y-136936831D01*
X144932366Y-136943452D01*
X144883792Y-136950347D01*
X144669935Y-137005667D01*
X144452270Y-137089493D01*
X144235560Y-137199760D01*
X144068669Y-137303867D01*
X144015964Y-137342697D01*
X143952201Y-137394553D01*
X143881331Y-137455681D01*
X143807301Y-137522330D01*
X143734059Y-137590747D01*
X143665555Y-137657181D01*
X143605738Y-137717879D01*
X143558555Y-137769088D01*
X143527955Y-137807057D01*
X143517840Y-137827296D01*
X143529891Y-137859372D01*
X143563606Y-137907100D01*
X143615336Y-137966971D01*
X143681428Y-138035479D01*
X143758230Y-138109115D01*
X143842091Y-138184370D01*
X143929359Y-138257739D01*
X144016381Y-138325711D01*
X144095184Y-138381880D01*
X144303060Y-138508770D01*
X144507458Y-138606190D01*
X144712516Y-138675492D01*
X144922371Y-138718031D01*
X145141160Y-138735159D01*
X145176778Y-138735630D01*
X145368787Y-138728311D01*
X145546722Y-138702976D01*
X145719341Y-138657482D01*
X145895405Y-138589685D01*
X146024795Y-138528112D01*
X146089830Y-138495534D01*
X146143535Y-138469516D01*
X146180226Y-138452751D01*
X146194179Y-138447877D01*
X146198902Y-138463942D01*
X146208975Y-138504936D01*
X146222949Y-138564773D01*
X146239376Y-138637371D01*
X146240463Y-138642249D01*
X146324139Y-138951718D01*
X146436186Y-139260775D01*
X146573720Y-139563414D01*
X146733861Y-139853626D01*
X146913725Y-140125404D01*
X147017330Y-140261499D01*
X147087981Y-140344618D01*
X147176540Y-140440953D01*
X147276238Y-140543743D01*
X147380307Y-140646227D01*
X147481977Y-140741645D01*
X147574480Y-140823234D01*
X147605203Y-140848706D01*
X147825591Y-141014208D01*
X148061563Y-141167393D01*
X148212726Y-141253687D01*
X148276503Y-141288970D01*
X148328537Y-141319471D01*
X148363259Y-141341807D01*
X148375138Y-141352346D01*
X148360683Y-141364890D01*
X148319535Y-141382263D01*
X148256185Y-141403326D01*
X148175124Y-141426944D01*
X148080845Y-141451980D01*
X147977839Y-141477295D01*
X147870597Y-141501754D01*
X147763611Y-141524220D01*
X147661372Y-141543555D01*
X147568372Y-141558623D01*
X147550090Y-141561186D01*
X147437056Y-141572705D01*
X147301470Y-141580460D01*
X147152307Y-141584435D01*
X146998545Y-141584618D01*
X146849158Y-141580994D01*
X146713122Y-141573549D01*
X146602372Y-141562659D01*
X146256873Y-141502077D01*
X145922258Y-141412238D01*
X145599985Y-141294055D01*
X145291513Y-141148443D01*
X144998303Y-140976316D01*
X144721813Y-140778589D01*
X144463502Y-140556175D01*
X144224829Y-140309989D01*
X144007254Y-140040944D01*
X143879429Y-139856687D01*
X143705456Y-139561363D01*
X143560249Y-139254197D01*
X143444000Y-138937195D01*
X143356904Y-138612364D01*
X143299156Y-138281711D01*
X143270950Y-137947241D01*
X143272481Y-137610962D01*
X143303941Y-137274879D01*
X143365527Y-136941001D01*
X143457432Y-136611332D01*
X143542543Y-136377561D01*
X143684453Y-136066200D01*
X143853900Y-135769768D01*
X144049651Y-135489764D01*
X144270474Y-135227684D01*
X144515137Y-134985026D01*
X144782409Y-134763287D01*
X144994215Y-134613420D01*
X145198786Y-134490184D01*
X145425786Y-134374178D01*
X145666075Y-134269227D01*
X145910515Y-134179161D01*
X146149967Y-134107806D01*
X146269058Y-134079457D01*
X146537273Y-134033557D01*
X146819918Y-134007065D01*
X147108598Y-133999985D01*
X147394915Y-134012324D01*
X147670472Y-134044087D01*
X147854647Y-134078360D01*
X147922991Y-134094549D01*
X148001604Y-134115057D01*
X148084866Y-134138187D01*
X148167155Y-134162242D01*
X148242850Y-134185525D01*
X148306330Y-134206340D01*
X148351973Y-134222989D01*
X148374159Y-134233775D01*
X148375402Y-134235567D01*
X150090090Y-134235567D01*
X150090090Y-133851297D01*
X149891238Y-133862345D01*
X149631799Y-133883600D01*
X149388481Y-133918703D01*
X149149648Y-133969899D01*
X148903661Y-134039434D01*
X148801916Y-134072463D01*
X148585305Y-134145083D01*
X148433502Y-134088216D01*
X148111437Y-133984322D01*
X147780135Y-133909710D01*
X147442348Y-133864266D01*
X147100831Y-133847871D01*
X146758333Y-133860409D01*
X146758333Y-133860409D01*
G37*
X146758333Y-133860409D02*
X146417609Y-133901764D01*
X146081409Y-133971820D01*
X145752486Y-134070459D01*
X145433593Y-134197565D01*
X145391090Y-134217071D01*
X145086058Y-134376667D01*
X144797134Y-134562593D01*
X144525868Y-134772962D01*
X144273811Y-135005887D01*
X144042516Y-135259483D01*
X143833532Y-135531862D01*
X143648411Y-135821139D01*
X143488703Y-136125425D01*
X143355961Y-136442836D01*
X143251735Y-136771484D01*
X143233781Y-136841082D01*
X143199520Y-136987823D01*
X143173264Y-137122230D01*
X143153860Y-137253373D01*
X143140155Y-137390321D01*
X143130997Y-137542145D01*
X143125925Y-137689749D01*
X143128964Y-138026056D01*
X143156597Y-138345672D01*
X143209790Y-138653113D01*
X143289509Y-138952899D01*
X143396720Y-139249547D01*
X143516431Y-139515374D01*
X143687443Y-139828938D01*
X143882227Y-140122474D01*
X144099401Y-140394977D01*
X144337586Y-140645444D01*
X144595400Y-140872871D01*
X144871464Y-141076254D01*
X145164396Y-141254590D01*
X145472817Y-141406874D01*
X145795344Y-141532103D01*
X146130598Y-141629273D01*
X146477199Y-141697380D01*
X146527474Y-141704666D01*
X146610302Y-141713975D01*
X146713819Y-141722329D01*
X146830092Y-141729406D01*
X146951189Y-141734882D01*
X147069178Y-141738432D01*
X147176128Y-141739734D01*
X147264107Y-141738462D01*
X147304028Y-141736365D01*
X147627477Y-141700937D01*
X147934495Y-141644239D01*
X148233657Y-141564566D01*
X148339120Y-141530592D01*
X148596338Y-141444052D01*
X148831245Y-141522125D01*
X149088542Y-141599420D01*
X149339246Y-141656993D01*
X149594823Y-141697010D01*
X149866739Y-141721640D01*
X149895622Y-141723360D01*
X150090090Y-141734434D01*
X150090090Y-137841391D01*
X146851590Y-137841391D01*
X146840342Y-137861074D01*
X146809333Y-137897740D01*
X146762667Y-137947433D01*
X146704447Y-138006194D01*
X146638776Y-138070065D01*
X146569759Y-138135090D01*
X146501498Y-138197309D01*
X146438096Y-138252764D01*
X146383658Y-138297499D01*
X146360623Y-138314943D01*
X146304115Y-138355198D01*
X146257028Y-138387311D01*
X146225266Y-138407339D01*
X146215174Y-138412062D01*
X146205818Y-138398031D01*
X146196595Y-138362967D01*
X146194173Y-138348562D01*
X146182535Y-138270709D01*
X146175731Y-138217807D01*
X146175129Y-138183246D01*
X146181337Y-138162900D01*
X146157881Y-138162900D01*
X146112361Y-138196199D01*
X146081714Y-138215910D01*
X146033597Y-138243903D01*
X145974975Y-138276461D01*
X145912815Y-138309868D01*
X145854084Y-138340406D01*
X145805747Y-138364360D01*
X145774771Y-138378011D01*
X145768227Y-138379810D01*
X145770280Y-138368897D01*
X145788008Y-138340239D01*
X145807946Y-138312816D01*
X145871796Y-138211056D01*
X145922438Y-138094224D01*
X145957105Y-137971712D01*
X145973029Y-137852911D01*
X145971108Y-137797414D01*
X145816890Y-137797414D01*
X145812830Y-137912489D01*
X145788364Y-138018097D01*
X145732416Y-138147662D01*
X145651650Y-138259328D01*
X145549229Y-138350203D01*
X145428313Y-138417395D01*
X145311739Y-138454078D01*
X145250128Y-138466720D01*
X145206005Y-138472548D01*
X145165905Y-138471811D01*
X145116361Y-138464756D01*
X145080475Y-138458320D01*
X144942889Y-138417849D01*
X144874612Y-138380268D01*
X144608234Y-138380268D01*
X144607728Y-138380312D01*
X144589670Y-138373598D01*
X144550049Y-138355538D01*
X144495561Y-138329251D01*
X144458117Y-138310625D01*
X144377487Y-138266845D01*
X144288511Y-138213528D01*
X144207821Y-138160734D01*
X144192528Y-138149970D01*
X144121578Y-138097121D01*
X144049840Y-138040155D01*
X143981778Y-137983028D01*
X143921857Y-137929696D01*
X143874542Y-137884116D01*
X143844296Y-137850242D01*
X143835340Y-137833465D01*
X143847198Y-137814160D01*
X143879668Y-137779662D01*
X143928093Y-137734005D01*
X143987819Y-137681223D01*
X144054189Y-137625349D01*
X144122548Y-137570415D01*
X144188239Y-137520456D01*
X144234805Y-137487417D01*
X144326994Y-137428410D01*
X144423415Y-137372987D01*
X144513736Y-137326828D01*
X144576311Y-137299753D01*
X144598896Y-137292011D01*
X144604416Y-137295419D01*
X144591908Y-137314799D01*
X144566942Y-137346730D01*
X144506467Y-137439716D01*
X144454814Y-137550643D01*
X144417843Y-137665840D01*
X144406745Y-137720446D01*
X144399265Y-137858091D01*
X144417322Y-137998856D01*
X144458661Y-138134889D01*
X144521022Y-138258337D01*
X144586194Y-138344593D01*
X144605587Y-138369226D01*
X144608234Y-138380268D01*
X144874612Y-138380268D01*
X144821463Y-138351014D01*
X144718848Y-138260189D01*
X144637700Y-138147744D01*
X144580670Y-138016053D01*
X144578760Y-138009866D01*
X144553950Y-137876329D01*
X144558886Y-137743844D01*
X144591716Y-137616550D01*
X144650587Y-137498586D01*
X144733645Y-137394094D01*
X144839039Y-137307211D01*
X144911988Y-137265374D01*
X144962035Y-137241816D01*
X145003297Y-137226717D01*
X145045576Y-137218211D01*
X145098676Y-137214429D01*
X145172400Y-137213506D01*
X145184382Y-137213499D01*
X145263853Y-137214411D01*
X145321181Y-137218201D01*
X145365948Y-137226451D01*
X145407734Y-137240742D01*
X145442177Y-137256045D01*
X145561177Y-137328404D01*
X145661824Y-137423416D01*
X145740126Y-137536340D01*
X145792088Y-137662433D01*
X145795731Y-137675774D01*
X145816890Y-137797414D01*
X145971108Y-137797414D01*
X145969916Y-137762998D01*
X145938918Y-137625484D01*
X145885612Y-137490217D01*
X145826291Y-137386983D01*
X145792197Y-137336585D01*
X145774836Y-137307770D01*
X145772827Y-137296043D01*
X145784794Y-137296909D01*
X145800378Y-137302460D01*
X145841982Y-137320803D01*
X145899983Y-137349566D01*
X145965404Y-137383920D01*
X146029268Y-137419043D01*
X146082599Y-137450106D01*
X146116418Y-137472286D01*
X146116694Y-137472497D01*
X146128289Y-137482669D01*
X146137024Y-137495770D01*
X146143358Y-137516141D01*
X146147751Y-137548127D01*
X146150663Y-137596071D01*
X146152554Y-137664316D01*
X146153882Y-137757206D01*
X146154645Y-137831074D01*
X146157881Y-138162900D01*
X146181337Y-138162900D01*
X146182095Y-138160416D01*
X146197996Y-138142709D01*
X146224200Y-138123514D01*
X146243533Y-138109903D01*
X146289749Y-138073886D01*
X146348617Y-138024043D01*
X146410217Y-137968882D01*
X146435557Y-137945190D01*
X146551337Y-137835223D01*
X146483182Y-137765474D01*
X146439086Y-137723462D01*
X146379960Y-137671270D01*
X146316091Y-137617879D01*
X146291997Y-137598574D01*
X146234603Y-137552399D01*
X146197196Y-137516368D01*
X146176557Y-137482048D01*
X146169469Y-137441006D01*
X146172714Y-137384808D01*
X146182262Y-137310977D01*
X146192778Y-137233829D01*
X146319778Y-137324913D01*
X146392361Y-137379142D01*
X146471311Y-137441529D01*
X146542089Y-137500515D01*
X146556589Y-137513186D01*
X146610954Y-137563731D01*
X146668725Y-137621470D01*
X146725408Y-137681399D01*
X146776504Y-137738516D01*
X146817516Y-137787817D01*
X146843947Y-137824299D01*
X146851590Y-137841391D01*
X150090090Y-137841391D01*
X150090090Y-134235567D01*
X148375402Y-134235567D01*
X148362161Y-134246366D01*
X148326676Y-134267890D01*
X148275051Y-134296560D01*
X148237699Y-134316312D01*
X148006991Y-134449189D01*
X147775335Y-134607243D01*
X147549563Y-134784868D01*
X147336507Y-134976459D01*
X147142999Y-135176411D01*
X147035279Y-135302813D01*
X146840622Y-135566611D01*
X146665820Y-135849442D01*
X146513394Y-136146114D01*
X146385866Y-136451432D01*
X146285758Y-136760202D01*
X146241524Y-136937598D01*
X146225371Y-137013829D01*
X146212239Y-137081917D01*
X146203554Y-137134052D01*
X146200715Y-137161171D01*
X146197283Y-137194773D01*
X146191329Y-137209657D01*
X146174341Y-137206630D01*
X146135023Y-137191451D01*
X146079230Y-137166586D01*
X146012817Y-137134499D01*
X146012735Y-137134458D01*
X145833997Y-137052907D01*
X145666290Y-136993960D01*
X145500789Y-136955446D01*
X145328670Y-136935193D01*
X145184715Y-136930675D01*
X145096562Y-136932333D01*
X145008799Y-136936831D01*
X144932366Y-136943452D01*
X144883792Y-136950347D01*
X144669935Y-137005667D01*
X144452270Y-137089493D01*
X144235560Y-137199760D01*
X144068669Y-137303867D01*
X144015964Y-137342697D01*
X143952201Y-137394553D01*
X143881331Y-137455681D01*
X143807301Y-137522330D01*
X143734059Y-137590747D01*
X143665555Y-137657181D01*
X143605738Y-137717879D01*
X143558555Y-137769088D01*
X143527955Y-137807057D01*
X143517840Y-137827296D01*
X143529891Y-137859372D01*
X143563606Y-137907100D01*
X143615336Y-137966971D01*
X143681428Y-138035479D01*
X143758230Y-138109115D01*
X143842091Y-138184370D01*
X143929359Y-138257739D01*
X144016381Y-138325711D01*
X144095184Y-138381880D01*
X144303060Y-138508770D01*
X144507458Y-138606190D01*
X144712516Y-138675492D01*
X144922371Y-138718031D01*
X145141160Y-138735159D01*
X145176778Y-138735630D01*
X145368787Y-138728311D01*
X145546722Y-138702976D01*
X145719341Y-138657482D01*
X145895405Y-138589685D01*
X146024795Y-138528112D01*
X146089830Y-138495534D01*
X146143535Y-138469516D01*
X146180226Y-138452751D01*
X146194179Y-138447877D01*
X146198902Y-138463942D01*
X146208975Y-138504936D01*
X146222949Y-138564773D01*
X146239376Y-138637371D01*
X146240463Y-138642249D01*
X146324139Y-138951718D01*
X146436186Y-139260775D01*
X146573720Y-139563414D01*
X146733861Y-139853626D01*
X146913725Y-140125404D01*
X147017330Y-140261499D01*
X147087981Y-140344618D01*
X147176540Y-140440953D01*
X147276238Y-140543743D01*
X147380307Y-140646227D01*
X147481977Y-140741645D01*
X147574480Y-140823234D01*
X147605203Y-140848706D01*
X147825591Y-141014208D01*
X148061563Y-141167393D01*
X148212726Y-141253687D01*
X148276503Y-141288970D01*
X148328537Y-141319471D01*
X148363259Y-141341807D01*
X148375138Y-141352346D01*
X148360683Y-141364890D01*
X148319535Y-141382263D01*
X148256185Y-141403326D01*
X148175124Y-141426944D01*
X148080845Y-141451980D01*
X147977839Y-141477295D01*
X147870597Y-141501754D01*
X147763611Y-141524220D01*
X147661372Y-141543555D01*
X147568372Y-141558623D01*
X147550090Y-141561186D01*
X147437056Y-141572705D01*
X147301470Y-141580460D01*
X147152307Y-141584435D01*
X146998545Y-141584618D01*
X146849158Y-141580994D01*
X146713122Y-141573549D01*
X146602372Y-141562659D01*
X146256873Y-141502077D01*
X145922258Y-141412238D01*
X145599985Y-141294055D01*
X145291513Y-141148443D01*
X144998303Y-140976316D01*
X144721813Y-140778589D01*
X144463502Y-140556175D01*
X144224829Y-140309989D01*
X144007254Y-140040944D01*
X143879429Y-139856687D01*
X143705456Y-139561363D01*
X143560249Y-139254197D01*
X143444000Y-138937195D01*
X143356904Y-138612364D01*
X143299156Y-138281711D01*
X143270950Y-137947241D01*
X143272481Y-137610962D01*
X143303941Y-137274879D01*
X143365527Y-136941001D01*
X143457432Y-136611332D01*
X143542543Y-136377561D01*
X143684453Y-136066200D01*
X143853900Y-135769768D01*
X144049651Y-135489764D01*
X144270474Y-135227684D01*
X144515137Y-134985026D01*
X144782409Y-134763287D01*
X144994215Y-134613420D01*
X145198786Y-134490184D01*
X145425786Y-134374178D01*
X145666075Y-134269227D01*
X145910515Y-134179161D01*
X146149967Y-134107806D01*
X146269058Y-134079457D01*
X146537273Y-134033557D01*
X146819918Y-134007065D01*
X147108598Y-133999985D01*
X147394915Y-134012324D01*
X147670472Y-134044087D01*
X147854647Y-134078360D01*
X147922991Y-134094549D01*
X148001604Y-134115057D01*
X148084866Y-134138187D01*
X148167155Y-134162242D01*
X148242850Y-134185525D01*
X148306330Y-134206340D01*
X148351973Y-134222989D01*
X148374159Y-134233775D01*
X148375402Y-134235567D01*
X150090090Y-134235567D01*
X150090090Y-133851297D01*
X149891238Y-133862345D01*
X149631799Y-133883600D01*
X149388481Y-133918703D01*
X149149648Y-133969899D01*
X148903661Y-134039434D01*
X148801916Y-134072463D01*
X148585305Y-134145083D01*
X148433502Y-134088216D01*
X148111437Y-133984322D01*
X147780135Y-133909710D01*
X147442348Y-133864266D01*
X147100831Y-133847871D01*
X146758333Y-133860409D01*
G36*
X145331266Y-139198632D02*
X145285605Y-139221223D01*
X145246450Y-139250366D01*
X145209092Y-139291395D01*
X145168820Y-139349644D01*
X145120924Y-139430450D01*
X145110876Y-139448253D01*
X145062072Y-139531355D01*
X145021650Y-139589133D01*
X144985208Y-139625325D01*
X144948347Y-139643668D01*
X144906665Y-139647902D01*
X144878812Y-139645401D01*
X144816248Y-139627176D01*
X144772651Y-139589580D01*
X144745029Y-139528845D01*
X144732402Y-139460883D01*
X144721223Y-139364562D01*
X144581465Y-139364562D01*
X144581554Y-139439968D01*
X144594158Y-139548085D01*
X144630028Y-139642651D01*
X144686655Y-139718899D01*
X144754687Y-139768648D01*
X144810810Y-139788238D01*
X144879217Y-139799421D01*
X144944676Y-139800478D01*
X144980839Y-139794190D01*
X145027914Y-139777185D01*
X145067516Y-139756316D01*
X145103472Y-139727362D01*
X145139610Y-139686103D01*
X145179760Y-139628319D01*
X145227748Y-139549790D01*
X145272151Y-139473053D01*
X145317140Y-139402523D01*
X145358700Y-139358003D01*
X145402464Y-139335076D01*
X145454066Y-139329322D01*
X145455336Y-139329355D01*
X145524150Y-139344686D01*
X145574497Y-139384990D01*
X145604787Y-139448347D01*
X145613584Y-139520376D01*
X145618085Y-139576235D01*
X145634445Y-139606086D01*
X145667830Y-139614957D01*
X145706626Y-139610956D01*
X145748406Y-139601417D01*
X145767077Y-139587071D01*
X145771195Y-139560844D01*
X145771144Y-139557635D01*
X145758260Y-139438887D01*
X145724846Y-139343332D01*
X145669958Y-139269177D01*
X145592656Y-139214630D01*
X145590380Y-139213478D01*
X145494835Y-139180296D01*
X145402092Y-139178500D01*
X145331266Y-139198632D01*
X145331266Y-139198632D01*
G37*
X145331266Y-139198632D02*
X145285605Y-139221223D01*
X145246450Y-139250366D01*
X145209092Y-139291395D01*
X145168820Y-139349644D01*
X145120924Y-139430450D01*
X145110876Y-139448253D01*
X145062072Y-139531355D01*
X145021650Y-139589133D01*
X144985208Y-139625325D01*
X144948347Y-139643668D01*
X144906665Y-139647902D01*
X144878812Y-139645401D01*
X144816248Y-139627176D01*
X144772651Y-139589580D01*
X144745029Y-139528845D01*
X144732402Y-139460883D01*
X144721223Y-139364562D01*
X144581465Y-139364562D01*
X144581554Y-139439968D01*
X144594158Y-139548085D01*
X144630028Y-139642651D01*
X144686655Y-139718899D01*
X144754687Y-139768648D01*
X144810810Y-139788238D01*
X144879217Y-139799421D01*
X144944676Y-139800478D01*
X144980839Y-139794190D01*
X145027914Y-139777185D01*
X145067516Y-139756316D01*
X145103472Y-139727362D01*
X145139610Y-139686103D01*
X145179760Y-139628319D01*
X145227748Y-139549790D01*
X145272151Y-139473053D01*
X145317140Y-139402523D01*
X145358700Y-139358003D01*
X145402464Y-139335076D01*
X145454066Y-139329322D01*
X145455336Y-139329355D01*
X145524150Y-139344686D01*
X145574497Y-139384990D01*
X145604787Y-139448347D01*
X145613584Y-139520376D01*
X145618085Y-139576235D01*
X145634445Y-139606086D01*
X145667830Y-139614957D01*
X145706626Y-139610956D01*
X145748406Y-139601417D01*
X145767077Y-139587071D01*
X145771195Y-139560844D01*
X145771144Y-139557635D01*
X145758260Y-139438887D01*
X145724846Y-139343332D01*
X145669958Y-139269177D01*
X145592656Y-139214630D01*
X145590380Y-139213478D01*
X145494835Y-139180296D01*
X145402092Y-139178500D01*
X145331266Y-139198632D01*
G36*
X145264090Y-136332437D02*
X145089465Y-136332437D01*
X145089465Y-136205437D01*
X144946590Y-136205437D01*
X144946590Y-136332437D01*
X144771965Y-136332437D01*
X144771965Y-135729187D01*
X144629090Y-135729187D01*
X144629090Y-136491187D01*
X145406965Y-136491187D01*
X145406965Y-135856187D01*
X145645090Y-135856187D01*
X145645090Y-136475312D01*
X145787965Y-136475312D01*
X145787965Y-135713312D01*
X145264090Y-135713312D01*
X145264090Y-136332437D01*
X145264090Y-136332437D01*
G37*
X145264090Y-136332437D02*
X145089465Y-136332437D01*
X145089465Y-136205437D01*
X144946590Y-136205437D01*
X144946590Y-136332437D01*
X144771965Y-136332437D01*
X144771965Y-135729187D01*
X144629090Y-135729187D01*
X144629090Y-136491187D01*
X145406965Y-136491187D01*
X145406965Y-135856187D01*
X145645090Y-135856187D01*
X145645090Y-136475312D01*
X145787965Y-136475312D01*
X145787965Y-135713312D01*
X145264090Y-135713312D01*
X145264090Y-136332437D01*
G36*
X144946590Y-136141937D02*
X145089465Y-136141937D01*
X145089465Y-135967312D01*
X144946590Y-135967312D01*
X144946590Y-136141937D01*
X144946590Y-136141937D01*
G37*
X144946590Y-136141937D02*
X145089465Y-136141937D01*
X145089465Y-135967312D01*
X144946590Y-135967312D01*
X144946590Y-136141937D01*
G36*
X144946590Y-135903812D02*
X145089465Y-135903812D01*
X145089465Y-135729187D01*
X144946590Y-135729187D01*
X144946590Y-135903812D01*
X144946590Y-135903812D01*
G37*
X144946590Y-135903812D02*
X145089465Y-135903812D01*
X145089465Y-135729187D01*
X144946590Y-135729187D01*
X144946590Y-135903812D01*
G36*
X145089308Y-137529237D02*
X145008796Y-137566736D01*
X144944700Y-137623271D01*
X144898538Y-137693961D01*
X144871831Y-137773927D01*
X144866098Y-137858289D01*
X144882859Y-137942168D01*
X144923633Y-138020683D01*
X144989940Y-138088956D01*
X145003153Y-138098697D01*
X145073709Y-138132969D01*
X145157982Y-138151456D01*
X145241682Y-138151918D01*
X145284966Y-138142844D01*
X145369563Y-138100940D01*
X145433962Y-138039522D01*
X145477531Y-137964081D01*
X145499635Y-137880108D01*
X145499642Y-137793094D01*
X145476917Y-137708530D01*
X145430829Y-137631909D01*
X145360743Y-137568721D01*
X145351843Y-137563014D01*
X145293727Y-137532296D01*
X145238784Y-137518351D01*
X145184715Y-137515653D01*
X145089308Y-137529237D01*
X145089308Y-137529237D01*
G37*
X145089308Y-137529237D02*
X145008796Y-137566736D01*
X144944700Y-137623271D01*
X144898538Y-137693961D01*
X144871831Y-137773927D01*
X144866098Y-137858289D01*
X144882859Y-137942168D01*
X144923633Y-138020683D01*
X144989940Y-138088956D01*
X145003153Y-138098697D01*
X145073709Y-138132969D01*
X145157982Y-138151456D01*
X145241682Y-138151918D01*
X145284966Y-138142844D01*
X145369563Y-138100940D01*
X145433962Y-138039522D01*
X145477531Y-137964081D01*
X145499635Y-137880108D01*
X145499642Y-137793094D01*
X145476917Y-137708530D01*
X145430829Y-137631909D01*
X145360743Y-137568721D01*
X145351843Y-137563014D01*
X145293727Y-137532296D01*
X145238784Y-137518351D01*
X145184715Y-137515653D01*
X145089308Y-137529237D01*
%LPC*%
D10*
G36*
X151091307Y-146091201D02*
X151583063Y-147926460D01*
X148588693Y-148728799D01*
X148096937Y-146893540D01*
X151091307Y-146091201D01*
X151091307Y-146091201D01*
G37*
G36*
X154744264Y-143052233D02*
X156087767Y-144395736D01*
X153895736Y-146587767D01*
X152552233Y-145244264D01*
X154744264Y-143052233D01*
X154744264Y-143052233D01*
G37*
G36*
X156393540Y-138596937D02*
X158228799Y-139088693D01*
X157426460Y-142083063D01*
X155591201Y-141591307D01*
X156393540Y-138596937D01*
X156393540Y-138596937D01*
G37*
G36*
X158228799Y-136411307D02*
X156393540Y-136903063D01*
X155591201Y-133908693D01*
X157426460Y-133416937D01*
X158228799Y-136411307D01*
X158228799Y-136411307D01*
G37*
G36*
X156087767Y-131104264D02*
X154744264Y-132447767D01*
X152552233Y-130255736D01*
X153895736Y-128912233D01*
X156087767Y-131104264D01*
X156087767Y-131104264D01*
G37*
G36*
X151583063Y-127573540D02*
X151091307Y-129408799D01*
X148096937Y-128606460D01*
X148588693Y-126771201D01*
X151583063Y-127573540D01*
X151583063Y-127573540D01*
G37*
G36*
X142442276Y-133182661D02*
X144087724Y-134132661D01*
X142537724Y-136817339D01*
X140892276Y-135867339D01*
X142442276Y-133182661D01*
X142442276Y-133182661D01*
G37*
G36*
X151962276Y-138682661D02*
X153607724Y-139632661D01*
X152057724Y-142317339D01*
X150412276Y-141367339D01*
X151962276Y-138682661D01*
X151962276Y-138682661D01*
G37*
G36*
X146403063Y-146893540D02*
X145911307Y-148728799D01*
X142916937Y-147926460D01*
X143408693Y-146091201D01*
X146403063Y-146893540D01*
X146403063Y-146893540D01*
G37*
G36*
X141947767Y-145244264D02*
X140604264Y-146587767D01*
X138412233Y-144395736D01*
X139755736Y-143052233D01*
X141947767Y-145244264D01*
X141947767Y-145244264D01*
G37*
G36*
X138908799Y-141591307D02*
X137073540Y-142083063D01*
X136271201Y-139088693D01*
X138106460Y-138596937D01*
X138908799Y-141591307D01*
X138908799Y-141591307D01*
G37*
G36*
X137073540Y-133416937D02*
X138908799Y-133908693D01*
X138106460Y-136903063D01*
X136271201Y-136411307D01*
X137073540Y-133416937D01*
X137073540Y-133416937D01*
G37*
G36*
X140604264Y-128912233D02*
X141947767Y-130255736D01*
X139755736Y-132447767D01*
X138412233Y-131104264D01*
X140604264Y-128912233D01*
X140604264Y-128912233D01*
G37*
G36*
X145911307Y-126771201D02*
X146403063Y-128606460D01*
X143408693Y-129408799D01*
X142916937Y-127573540D01*
X145911307Y-126771201D01*
X145911307Y-126771201D01*
G37*
G36*
X125341307Y-146091201D02*
X125833063Y-147926460D01*
X122838693Y-148728799D01*
X122346937Y-146893540D01*
X125341307Y-146091201D01*
X125341307Y-146091201D01*
G37*
G36*
X128994264Y-143052233D02*
X130337767Y-144395736D01*
X128145736Y-146587767D01*
X126802233Y-145244264D01*
X128994264Y-143052233D01*
X128994264Y-143052233D01*
G37*
G36*
X130643540Y-138596937D02*
X132478799Y-139088693D01*
X131676460Y-142083063D01*
X129841201Y-141591307D01*
X130643540Y-138596937D01*
X130643540Y-138596937D01*
G37*
G36*
X132478799Y-136411307D02*
X130643540Y-136903063D01*
X129841201Y-133908693D01*
X131676460Y-133416937D01*
X132478799Y-136411307D01*
X132478799Y-136411307D01*
G37*
G36*
X130337767Y-131104264D02*
X128994264Y-132447767D01*
X126802233Y-130255736D01*
X128145736Y-128912233D01*
X130337767Y-131104264D01*
X130337767Y-131104264D01*
G37*
G36*
X125833063Y-127573540D02*
X125341307Y-129408799D01*
X122346937Y-128606460D01*
X122838693Y-126771201D01*
X125833063Y-127573540D01*
X125833063Y-127573540D01*
G37*
G36*
X116692276Y-133182661D02*
X118337724Y-134132661D01*
X116787724Y-136817339D01*
X115142276Y-135867339D01*
X116692276Y-133182661D01*
X116692276Y-133182661D01*
G37*
G36*
X126212276Y-138682661D02*
X127857724Y-139632661D01*
X126307724Y-142317339D01*
X124662276Y-141367339D01*
X126212276Y-138682661D01*
X126212276Y-138682661D01*
G37*
G36*
X120653063Y-146893540D02*
X120161307Y-148728799D01*
X117166937Y-147926460D01*
X117658693Y-146091201D01*
X120653063Y-146893540D01*
X120653063Y-146893540D01*
G37*
G36*
X116197767Y-145244264D02*
X114854264Y-146587767D01*
X112662233Y-144395736D01*
X114005736Y-143052233D01*
X116197767Y-145244264D01*
X116197767Y-145244264D01*
G37*
G36*
X113158799Y-141591307D02*
X111323540Y-142083063D01*
X110521201Y-139088693D01*
X112356460Y-138596937D01*
X113158799Y-141591307D01*
X113158799Y-141591307D01*
G37*
G36*
X111323540Y-133416937D02*
X113158799Y-133908693D01*
X112356460Y-136903063D01*
X110521201Y-136411307D01*
X111323540Y-133416937D01*
X111323540Y-133416937D01*
G37*
G36*
X114854264Y-128912233D02*
X116197767Y-130255736D01*
X114005736Y-132447767D01*
X112662233Y-131104264D01*
X114854264Y-128912233D01*
X114854264Y-128912233D01*
G37*
G36*
X120161307Y-126771201D02*
X120653063Y-128606460D01*
X117658693Y-129408799D01*
X117166937Y-127573540D01*
X120161307Y-126771201D01*
X120161307Y-126771201D01*
G37*
D13*
X122000000Y-124600000D03*
X120650000Y-124600000D03*
X146650000Y-124600000D03*
X148000000Y-124600000D03*
X135150000Y-141500000D03*
X135150000Y-140150000D03*
X135150000Y-106250000D03*
D14*
X130000000Y-157500000D03*
D15*
X127460000Y-157500000D03*
X124920000Y-157500000D03*
X122380000Y-157500000D03*
X119840000Y-157500000D03*
X117300000Y-157500000D03*
X114760000Y-157500000D03*
X112220000Y-157500000D03*
D14*
X155750000Y-157500000D03*
D15*
X153210000Y-157500000D03*
X150670000Y-157500000D03*
X148130000Y-157500000D03*
X145590000Y-157500000D03*
X143050000Y-157500000D03*
X140510000Y-157500000D03*
X137970000Y-157500000D03*
D14*
X155750000Y-122250000D03*
D15*
X153210000Y-122250000D03*
X150670000Y-122250000D03*
X148130000Y-122250000D03*
X145590000Y-122250000D03*
X143050000Y-122250000D03*
X140510000Y-122250000D03*
X137970000Y-122250000D03*
D10*
G36*
X151091307Y-111341201D02*
X151583063Y-113176460D01*
X148588693Y-113978799D01*
X148096937Y-112143540D01*
X151091307Y-111341201D01*
X151091307Y-111341201D01*
G37*
G36*
X154744264Y-108302233D02*
X156087767Y-109645736D01*
X153895736Y-111837767D01*
X152552233Y-110494264D01*
X154744264Y-108302233D01*
X154744264Y-108302233D01*
G37*
G36*
X156393540Y-103846937D02*
X158228799Y-104338693D01*
X157426460Y-107333063D01*
X155591201Y-106841307D01*
X156393540Y-103846937D01*
X156393540Y-103846937D01*
G37*
G36*
X158228799Y-101661307D02*
X156393540Y-102153063D01*
X155591201Y-99158693D01*
X157426460Y-98666937D01*
X158228799Y-101661307D01*
X158228799Y-101661307D01*
G37*
G36*
X156087767Y-96354264D02*
X154744264Y-97697767D01*
X152552233Y-95505736D01*
X153895736Y-94162233D01*
X156087767Y-96354264D01*
X156087767Y-96354264D01*
G37*
G36*
X151583063Y-92823540D02*
X151091307Y-94658799D01*
X148096937Y-93856460D01*
X148588693Y-92021201D01*
X151583063Y-92823540D01*
X151583063Y-92823540D01*
G37*
G36*
X142442276Y-98432661D02*
X144087724Y-99382661D01*
X142537724Y-102067339D01*
X140892276Y-101117339D01*
X142442276Y-98432661D01*
X142442276Y-98432661D01*
G37*
G36*
X151962276Y-103932661D02*
X153607724Y-104882661D01*
X152057724Y-107567339D01*
X150412276Y-106617339D01*
X151962276Y-103932661D01*
X151962276Y-103932661D01*
G37*
G36*
X146403063Y-112143540D02*
X145911307Y-113978799D01*
X142916937Y-113176460D01*
X143408693Y-111341201D01*
X146403063Y-112143540D01*
X146403063Y-112143540D01*
G37*
G36*
X141947767Y-110494264D02*
X140604264Y-111837767D01*
X138412233Y-109645736D01*
X139755736Y-108302233D01*
X141947767Y-110494264D01*
X141947767Y-110494264D01*
G37*
G36*
X138908799Y-106841307D02*
X137073540Y-107333063D01*
X136271201Y-104338693D01*
X138106460Y-103846937D01*
X138908799Y-106841307D01*
X138908799Y-106841307D01*
G37*
G36*
X137073540Y-98666937D02*
X138908799Y-99158693D01*
X138106460Y-102153063D01*
X136271201Y-101661307D01*
X137073540Y-98666937D01*
X137073540Y-98666937D01*
G37*
G36*
X140604264Y-94162233D02*
X141947767Y-95505736D01*
X139755736Y-97697767D01*
X138412233Y-96354264D01*
X140604264Y-94162233D01*
X140604264Y-94162233D01*
G37*
G36*
X145911307Y-92021201D02*
X146403063Y-93856460D01*
X143408693Y-94658799D01*
X142916937Y-92823540D01*
X145911307Y-92021201D01*
X145911307Y-92021201D01*
G37*
G36*
X125341307Y-111341201D02*
X125833063Y-113176460D01*
X122838693Y-113978799D01*
X122346937Y-112143540D01*
X125341307Y-111341201D01*
X125341307Y-111341201D01*
G37*
G36*
X128994264Y-108302233D02*
X130337767Y-109645736D01*
X128145736Y-111837767D01*
X126802233Y-110494264D01*
X128994264Y-108302233D01*
X128994264Y-108302233D01*
G37*
G36*
X130643540Y-103846937D02*
X132478799Y-104338693D01*
X131676460Y-107333063D01*
X129841201Y-106841307D01*
X130643540Y-103846937D01*
X130643540Y-103846937D01*
G37*
G36*
X132478799Y-101661307D02*
X130643540Y-102153063D01*
X129841201Y-99158693D01*
X131676460Y-98666937D01*
X132478799Y-101661307D01*
X132478799Y-101661307D01*
G37*
G36*
X130337767Y-96354264D02*
X128994264Y-97697767D01*
X126802233Y-95505736D01*
X128145736Y-94162233D01*
X130337767Y-96354264D01*
X130337767Y-96354264D01*
G37*
G36*
X125833063Y-92823540D02*
X125341307Y-94658799D01*
X122346937Y-93856460D01*
X122838693Y-92021201D01*
X125833063Y-92823540D01*
X125833063Y-92823540D01*
G37*
G36*
X116692276Y-98432661D02*
X118337724Y-99382661D01*
X116787724Y-102067339D01*
X115142276Y-101117339D01*
X116692276Y-98432661D01*
X116692276Y-98432661D01*
G37*
G36*
X126212276Y-103932661D02*
X127857724Y-104882661D01*
X126307724Y-107567339D01*
X124662276Y-106617339D01*
X126212276Y-103932661D01*
X126212276Y-103932661D01*
G37*
G36*
X120653063Y-112143540D02*
X120161307Y-113978799D01*
X117166937Y-113176460D01*
X117658693Y-111341201D01*
X120653063Y-112143540D01*
X120653063Y-112143540D01*
G37*
G36*
X116197767Y-110494264D02*
X114854264Y-111837767D01*
X112662233Y-109645736D01*
X114005736Y-108302233D01*
X116197767Y-110494264D01*
X116197767Y-110494264D01*
G37*
G36*
X113158799Y-106841307D02*
X111323540Y-107333063D01*
X110521201Y-104338693D01*
X112356460Y-103846937D01*
X113158799Y-106841307D01*
X113158799Y-106841307D01*
G37*
G36*
X111323540Y-98666937D02*
X113158799Y-99158693D01*
X112356460Y-102153063D01*
X110521201Y-101661307D01*
X111323540Y-98666937D01*
X111323540Y-98666937D01*
G37*
G36*
X114854264Y-94162233D02*
X116197767Y-95505736D01*
X114005736Y-97697767D01*
X112662233Y-96354264D01*
X114854264Y-94162233D01*
X114854264Y-94162233D01*
G37*
G36*
X120161307Y-92021201D02*
X120653063Y-93856460D01*
X117658693Y-94658799D01*
X117166937Y-92823540D01*
X120161307Y-92021201D01*
X120161307Y-92021201D01*
G37*
D14*
X130000000Y-122250000D03*
D15*
X127460000Y-122250000D03*
X124920000Y-122250000D03*
X122380000Y-122250000D03*
X119840000Y-122250000D03*
X117300000Y-122250000D03*
X114760000Y-122250000D03*
X112220000Y-122250000D03*
D13*
X135150000Y-104900000D03*
M02*
