G04 #@! TF.FileFunction,Copper,L1,Top,Signal*
%FSLAX46Y46*%
G04 Gerber Fmt 4.6, Leading zero omitted, Abs format (unit mm)*
G04 Created by KiCad (PCBNEW 4.0.2-stable) date 2019-03-28 2:30:29 PM*
%MOMM*%
G01*
G04 APERTURE LIST*
%ADD10C,0.200000*%
%ADD11R,1.700000X1.700000*%
%ADD12O,1.700000X1.700000*%
%ADD13C,0.250000*%
G04 APERTURE END LIST*
D10*
G36*
X151055952Y-146152438D02*
X151521826Y-147891105D01*
X148624048Y-148667562D01*
X148158174Y-146928895D01*
X151055952Y-146152438D01*
X151055952Y-146152438D01*
G37*
G36*
X154744264Y-143122944D02*
X156017056Y-144395736D01*
X153895736Y-146517056D01*
X152622944Y-145244264D01*
X154744264Y-143122944D01*
X154744264Y-143122944D01*
G37*
G36*
X156428895Y-138658174D02*
X158167562Y-139124048D01*
X157391105Y-142021826D01*
X155652438Y-141555952D01*
X156428895Y-138658174D01*
X156428895Y-138658174D01*
G37*
G36*
X158167562Y-136375952D02*
X156428895Y-136841826D01*
X155652438Y-133944048D01*
X157391105Y-133478174D01*
X158167562Y-136375952D01*
X158167562Y-136375952D01*
G37*
G36*
X156017056Y-131104264D02*
X154744264Y-132377056D01*
X152622944Y-130255736D01*
X153895736Y-128982944D01*
X156017056Y-131104264D01*
X156017056Y-131104264D01*
G37*
G36*
X151521826Y-127608895D02*
X151055952Y-129347562D01*
X148158174Y-128571105D01*
X148624048Y-126832438D01*
X151521826Y-127608895D01*
X151521826Y-127608895D01*
G37*
G36*
X142460577Y-133250962D02*
X144019423Y-134150962D01*
X142519423Y-136749038D01*
X140960577Y-135849038D01*
X142460577Y-133250962D01*
X142460577Y-133250962D01*
G37*
G36*
X151980577Y-138750962D02*
X153539423Y-139650962D01*
X152039423Y-142249038D01*
X150480577Y-141349038D01*
X151980577Y-138750962D01*
X151980577Y-138750962D01*
G37*
G36*
X146341826Y-146928895D02*
X145875952Y-148667562D01*
X142978174Y-147891105D01*
X143444048Y-146152438D01*
X146341826Y-146928895D01*
X146341826Y-146928895D01*
G37*
G36*
X141877056Y-145244264D02*
X140604264Y-146517056D01*
X138482944Y-144395736D01*
X139755736Y-143122944D01*
X141877056Y-145244264D01*
X141877056Y-145244264D01*
G37*
G36*
X138847562Y-141555952D02*
X137108895Y-142021826D01*
X136332438Y-139124048D01*
X138071105Y-138658174D01*
X138847562Y-141555952D01*
X138847562Y-141555952D01*
G37*
G36*
X137108895Y-133478174D02*
X138847562Y-133944048D01*
X138071105Y-136841826D01*
X136332438Y-136375952D01*
X137108895Y-133478174D01*
X137108895Y-133478174D01*
G37*
G36*
X140604264Y-128982944D02*
X141877056Y-130255736D01*
X139755736Y-132377056D01*
X138482944Y-131104264D01*
X140604264Y-128982944D01*
X140604264Y-128982944D01*
G37*
G36*
X145875952Y-126832438D02*
X146341826Y-128571105D01*
X143444048Y-129347562D01*
X142978174Y-127608895D01*
X145875952Y-126832438D01*
X145875952Y-126832438D01*
G37*
G36*
X125305952Y-146152438D02*
X125771826Y-147891105D01*
X122874048Y-148667562D01*
X122408174Y-146928895D01*
X125305952Y-146152438D01*
X125305952Y-146152438D01*
G37*
G36*
X128994264Y-143122944D02*
X130267056Y-144395736D01*
X128145736Y-146517056D01*
X126872944Y-145244264D01*
X128994264Y-143122944D01*
X128994264Y-143122944D01*
G37*
G36*
X130678895Y-138658174D02*
X132417562Y-139124048D01*
X131641105Y-142021826D01*
X129902438Y-141555952D01*
X130678895Y-138658174D01*
X130678895Y-138658174D01*
G37*
G36*
X132417562Y-136375952D02*
X130678895Y-136841826D01*
X129902438Y-133944048D01*
X131641105Y-133478174D01*
X132417562Y-136375952D01*
X132417562Y-136375952D01*
G37*
G36*
X130267056Y-131104264D02*
X128994264Y-132377056D01*
X126872944Y-130255736D01*
X128145736Y-128982944D01*
X130267056Y-131104264D01*
X130267056Y-131104264D01*
G37*
G36*
X125771826Y-127608895D02*
X125305952Y-129347562D01*
X122408174Y-128571105D01*
X122874048Y-126832438D01*
X125771826Y-127608895D01*
X125771826Y-127608895D01*
G37*
G36*
X116710577Y-133250962D02*
X118269423Y-134150962D01*
X116769423Y-136749038D01*
X115210577Y-135849038D01*
X116710577Y-133250962D01*
X116710577Y-133250962D01*
G37*
G36*
X126230577Y-138750962D02*
X127789423Y-139650962D01*
X126289423Y-142249038D01*
X124730577Y-141349038D01*
X126230577Y-138750962D01*
X126230577Y-138750962D01*
G37*
G36*
X120591826Y-146928895D02*
X120125952Y-148667562D01*
X117228174Y-147891105D01*
X117694048Y-146152438D01*
X120591826Y-146928895D01*
X120591826Y-146928895D01*
G37*
G36*
X116127056Y-145244264D02*
X114854264Y-146517056D01*
X112732944Y-144395736D01*
X114005736Y-143122944D01*
X116127056Y-145244264D01*
X116127056Y-145244264D01*
G37*
G36*
X113097562Y-141555952D02*
X111358895Y-142021826D01*
X110582438Y-139124048D01*
X112321105Y-138658174D01*
X113097562Y-141555952D01*
X113097562Y-141555952D01*
G37*
G36*
X111358895Y-133478174D02*
X113097562Y-133944048D01*
X112321105Y-136841826D01*
X110582438Y-136375952D01*
X111358895Y-133478174D01*
X111358895Y-133478174D01*
G37*
G36*
X114854264Y-128982944D02*
X116127056Y-130255736D01*
X114005736Y-132377056D01*
X112732944Y-131104264D01*
X114854264Y-128982944D01*
X114854264Y-128982944D01*
G37*
G36*
X120125952Y-126832438D02*
X120591826Y-128571105D01*
X117694048Y-129347562D01*
X117228174Y-127608895D01*
X120125952Y-126832438D01*
X120125952Y-126832438D01*
G37*
D11*
X130000000Y-157500000D03*
D12*
X127460000Y-157500000D03*
X124920000Y-157500000D03*
X122380000Y-157500000D03*
X119840000Y-157500000D03*
X117300000Y-157500000D03*
X114760000Y-157500000D03*
X112220000Y-157500000D03*
D11*
X155750000Y-157500000D03*
D12*
X153210000Y-157500000D03*
X150670000Y-157500000D03*
X148130000Y-157500000D03*
X145590000Y-157500000D03*
X143050000Y-157500000D03*
X140510000Y-157500000D03*
X137970000Y-157500000D03*
D11*
X155750000Y-122250000D03*
D12*
X153210000Y-122250000D03*
X150670000Y-122250000D03*
X148130000Y-122250000D03*
X145590000Y-122250000D03*
X143050000Y-122250000D03*
X140510000Y-122250000D03*
X137970000Y-122250000D03*
D10*
G36*
X151055952Y-111402438D02*
X151521826Y-113141105D01*
X148624048Y-113917562D01*
X148158174Y-112178895D01*
X151055952Y-111402438D01*
X151055952Y-111402438D01*
G37*
G36*
X154744264Y-108372944D02*
X156017056Y-109645736D01*
X153895736Y-111767056D01*
X152622944Y-110494264D01*
X154744264Y-108372944D01*
X154744264Y-108372944D01*
G37*
G36*
X156428895Y-103908174D02*
X158167562Y-104374048D01*
X157391105Y-107271826D01*
X155652438Y-106805952D01*
X156428895Y-103908174D01*
X156428895Y-103908174D01*
G37*
G36*
X158167562Y-101625952D02*
X156428895Y-102091826D01*
X155652438Y-99194048D01*
X157391105Y-98728174D01*
X158167562Y-101625952D01*
X158167562Y-101625952D01*
G37*
G36*
X156017056Y-96354264D02*
X154744264Y-97627056D01*
X152622944Y-95505736D01*
X153895736Y-94232944D01*
X156017056Y-96354264D01*
X156017056Y-96354264D01*
G37*
G36*
X151521826Y-92858895D02*
X151055952Y-94597562D01*
X148158174Y-93821105D01*
X148624048Y-92082438D01*
X151521826Y-92858895D01*
X151521826Y-92858895D01*
G37*
G36*
X142460577Y-98500962D02*
X144019423Y-99400962D01*
X142519423Y-101999038D01*
X140960577Y-101099038D01*
X142460577Y-98500962D01*
X142460577Y-98500962D01*
G37*
G36*
X151980577Y-104000962D02*
X153539423Y-104900962D01*
X152039423Y-107499038D01*
X150480577Y-106599038D01*
X151980577Y-104000962D01*
X151980577Y-104000962D01*
G37*
G36*
X146341826Y-112178895D02*
X145875952Y-113917562D01*
X142978174Y-113141105D01*
X143444048Y-111402438D01*
X146341826Y-112178895D01*
X146341826Y-112178895D01*
G37*
G36*
X141877056Y-110494264D02*
X140604264Y-111767056D01*
X138482944Y-109645736D01*
X139755736Y-108372944D01*
X141877056Y-110494264D01*
X141877056Y-110494264D01*
G37*
G36*
X138847562Y-106805952D02*
X137108895Y-107271826D01*
X136332438Y-104374048D01*
X138071105Y-103908174D01*
X138847562Y-106805952D01*
X138847562Y-106805952D01*
G37*
G36*
X137108895Y-98728174D02*
X138847562Y-99194048D01*
X138071105Y-102091826D01*
X136332438Y-101625952D01*
X137108895Y-98728174D01*
X137108895Y-98728174D01*
G37*
G36*
X140604264Y-94232944D02*
X141877056Y-95505736D01*
X139755736Y-97627056D01*
X138482944Y-96354264D01*
X140604264Y-94232944D01*
X140604264Y-94232944D01*
G37*
G36*
X145875952Y-92082438D02*
X146341826Y-93821105D01*
X143444048Y-94597562D01*
X142978174Y-92858895D01*
X145875952Y-92082438D01*
X145875952Y-92082438D01*
G37*
G36*
X125305952Y-111402438D02*
X125771826Y-113141105D01*
X122874048Y-113917562D01*
X122408174Y-112178895D01*
X125305952Y-111402438D01*
X125305952Y-111402438D01*
G37*
G36*
X128994264Y-108372944D02*
X130267056Y-109645736D01*
X128145736Y-111767056D01*
X126872944Y-110494264D01*
X128994264Y-108372944D01*
X128994264Y-108372944D01*
G37*
G36*
X130678895Y-103908174D02*
X132417562Y-104374048D01*
X131641105Y-107271826D01*
X129902438Y-106805952D01*
X130678895Y-103908174D01*
X130678895Y-103908174D01*
G37*
G36*
X132417562Y-101625952D02*
X130678895Y-102091826D01*
X129902438Y-99194048D01*
X131641105Y-98728174D01*
X132417562Y-101625952D01*
X132417562Y-101625952D01*
G37*
G36*
X130267056Y-96354264D02*
X128994264Y-97627056D01*
X126872944Y-95505736D01*
X128145736Y-94232944D01*
X130267056Y-96354264D01*
X130267056Y-96354264D01*
G37*
G36*
X125771826Y-92858895D02*
X125305952Y-94597562D01*
X122408174Y-93821105D01*
X122874048Y-92082438D01*
X125771826Y-92858895D01*
X125771826Y-92858895D01*
G37*
G36*
X116710577Y-98500962D02*
X118269423Y-99400962D01*
X116769423Y-101999038D01*
X115210577Y-101099038D01*
X116710577Y-98500962D01*
X116710577Y-98500962D01*
G37*
G36*
X126230577Y-104000962D02*
X127789423Y-104900962D01*
X126289423Y-107499038D01*
X124730577Y-106599038D01*
X126230577Y-104000962D01*
X126230577Y-104000962D01*
G37*
G36*
X120591826Y-112178895D02*
X120125952Y-113917562D01*
X117228174Y-113141105D01*
X117694048Y-111402438D01*
X120591826Y-112178895D01*
X120591826Y-112178895D01*
G37*
G36*
X116127056Y-110494264D02*
X114854264Y-111767056D01*
X112732944Y-109645736D01*
X114005736Y-108372944D01*
X116127056Y-110494264D01*
X116127056Y-110494264D01*
G37*
G36*
X113097562Y-106805952D02*
X111358895Y-107271826D01*
X110582438Y-104374048D01*
X112321105Y-103908174D01*
X113097562Y-106805952D01*
X113097562Y-106805952D01*
G37*
G36*
X111358895Y-98728174D02*
X113097562Y-99194048D01*
X112321105Y-102091826D01*
X110582438Y-101625952D01*
X111358895Y-98728174D01*
X111358895Y-98728174D01*
G37*
G36*
X114854264Y-94232944D02*
X116127056Y-95505736D01*
X114005736Y-97627056D01*
X112732944Y-96354264D01*
X114854264Y-94232944D01*
X114854264Y-94232944D01*
G37*
G36*
X120125952Y-92082438D02*
X120591826Y-93821105D01*
X117694048Y-94597562D01*
X117228174Y-92858895D01*
X120125952Y-92082438D01*
X120125952Y-92082438D01*
G37*
D11*
X130000000Y-122250000D03*
D12*
X127460000Y-122250000D03*
X124920000Y-122250000D03*
X122380000Y-122250000D03*
X119840000Y-122250000D03*
X117300000Y-122250000D03*
X114760000Y-122250000D03*
X112220000Y-122250000D03*
D13*
X130000000Y-156400000D02*
X124350000Y-150750000D01*
X130000000Y-157500000D02*
X130000000Y-156400000D01*
X144660000Y-147910000D02*
X144660000Y-148941748D01*
X144660000Y-148941748D02*
X146468252Y-150750000D01*
X146468252Y-150750000D02*
X150100000Y-150750000D01*
X120718252Y-150750000D02*
X124350000Y-150750000D01*
X118910000Y-148941748D02*
X120718252Y-150750000D01*
X118910000Y-147910000D02*
X118910000Y-148941748D01*
X155750000Y-157500000D02*
X155750000Y-156400000D01*
X155750000Y-156400000D02*
X150100000Y-150750000D01*
X155750000Y-121150000D02*
X150100000Y-115500000D01*
X155750000Y-122250000D02*
X155750000Y-121150000D01*
X146468252Y-115500000D02*
X150100000Y-115500000D01*
X144660000Y-113691748D02*
X146468252Y-115500000D01*
X144660000Y-112660000D02*
X144660000Y-113691748D01*
X118910000Y-112660000D02*
X118910000Y-113691748D01*
X118910000Y-113691748D02*
X120718252Y-115500000D01*
X120718252Y-115500000D02*
X124350000Y-115500000D01*
X130000000Y-122250000D02*
X130000000Y-121150000D01*
X130000000Y-121150000D02*
X124350000Y-115500000D01*
X152010000Y-141000000D02*
X147500000Y-141000000D01*
X147500000Y-141000000D02*
X137970000Y-150530000D01*
X137970000Y-150530000D02*
X137970000Y-156297919D01*
X137970000Y-156297919D02*
X137970000Y-157500000D01*
X126260000Y-141000000D02*
X121750000Y-141000000D01*
X121750000Y-141000000D02*
X112220000Y-150530000D01*
X112220000Y-150530000D02*
X112220000Y-156297919D01*
X112220000Y-156297919D02*
X112220000Y-157500000D01*
X152010000Y-105750000D02*
X148250000Y-105750000D01*
X148250000Y-105750000D02*
X137970000Y-116030000D01*
X137970000Y-116030000D02*
X137970000Y-121047919D01*
X137970000Y-121047919D02*
X137970000Y-122250000D01*
X126260000Y-105750000D02*
X122250000Y-105750000D01*
X122250000Y-105750000D02*
X112220000Y-115780000D01*
X112220000Y-115780000D02*
X112220000Y-121047919D01*
X112220000Y-121047919D02*
X112220000Y-122250000D01*
M02*
