M48
;DRILL file {KiCad 4.0.2-stable} date 2019-03-28 2:30:31 PM
;FORMAT={2:4/ absolute / inch / suppress leading zeros}
FMAT,2
INCH,TZ
T1C0.030
T2C0.039
T3C0.039
%
G90
G05
M72
T2
X44181Y-48130
X44181Y-62008
X45181Y-48130
X45181Y-62008
X46181Y-48130
X46181Y-62008
X47181Y-48130
X47181Y-62008
X48181Y-48130
X48181Y-62008
X49181Y-48130
X49181Y-62008
X50181Y-48130
X50181Y-62008
X51181Y-48130
X51181Y-62008
X54319Y-48130
X54319Y-62008
X55319Y-48130
X55319Y-62008
X56319Y-48130
X56319Y-62008
X57319Y-48130
X57319Y-62008
X58319Y-48130
X58319Y-62008
X59319Y-48130
X59319Y-62008
X60319Y-48130
X60319Y-62008
X61319Y-48130
X61319Y-62008
T3
X47500Y-49055
X48031Y-49055
X53209Y-41299
X53209Y-41831
X53209Y-55177
X53209Y-55709
X57736Y-49055
X58268Y-49055
T1
X44100Y-39275G85X43963Y-39788
G05
X44100Y-41828G85X43963Y-41314
G05
X44100Y-52956G85X43963Y-53469
G05
X44100Y-55509G85X43963Y-54995
G05
X45239Y-37580G85X44863Y-37956
G05
X45239Y-43523G85X44863Y-43147
G05
X45239Y-51261G85X44863Y-51637
G05
X45239Y-57204G85X44863Y-56828
G05
X46108Y-39213G85X45813Y-39724
G05
X46108Y-52894G85X45813Y-53405
G05
X47072Y-36679G85X46558Y-36817
G05
X47072Y-44423G85X46558Y-44286
G05
X47072Y-50360G85X46558Y-50498
G05
X47072Y-58104G85X46558Y-57967
G05
X49111Y-36817G85X48598Y-36679
G05
X49111Y-44286G85X48598Y-44423
G05
X49111Y-50498G85X48598Y-50360
G05
X49111Y-57967G85X48598Y-58104
G05
X49856Y-41378G85X49561Y-41890
G05
X49856Y-55059G85X49561Y-55571
G05
X50806Y-37956G85X50430Y-37580
G05
X50806Y-43147G85X50430Y-43523
G05
X50806Y-51637G85X50430Y-51261
G05
X50806Y-56828G85X50430Y-57204
G05
X51707Y-39788G85X51569Y-39275
G05
X51707Y-41314G85X51569Y-41828
G05
X51707Y-53469G85X51569Y-52956
G05
X51707Y-54995G85X51569Y-55509
G05
X54238Y-39275G85X54101Y-39788
G05
X54238Y-41828G85X54101Y-41314
G05
X54238Y-52956G85X54101Y-53469
G05
X54238Y-55509G85X54101Y-54995
G05
X55377Y-37580G85X55001Y-37956
G05
X55377Y-43523G85X55001Y-43147
G05
X55377Y-51261G85X55001Y-51637
G05
X55377Y-57204G85X55001Y-56828
G05
X56246Y-39213G85X55951Y-39724
G05
X56246Y-52894G85X55951Y-53405
G05
X57209Y-36679G85X56696Y-36817
G05
X57209Y-44423G85X56696Y-44286
G05
X57209Y-50360G85X56696Y-50498
G05
X57209Y-58104G85X56696Y-57967
G05
X59249Y-36817G85X58735Y-36679
G05
X59249Y-44286G85X58735Y-44423
G05
X59249Y-50498G85X58735Y-50360
G05
X59249Y-57967G85X58735Y-58104
G05
X59994Y-41378G85X59699Y-41890
G05
X59994Y-55059G85X59699Y-55571
G05
X60944Y-37956G85X60568Y-37580
G05
X60944Y-43147G85X60568Y-43523
G05
X60944Y-51637G85X60568Y-51261
G05
X60944Y-56828G85X60568Y-57204
G05
X61844Y-39788G85X61707Y-39275
G05
X61844Y-41314G85X61707Y-41828
G05
X61844Y-53469G85X61707Y-52956
G05
X61844Y-54995G85X61707Y-55509
G05
T0
M30
