G04 #@! TF.FileFunction,Legend,Top*
%FSLAX46Y46*%
G04 Gerber Fmt 4.6, Leading zero omitted, Abs format (unit mm)*
G04 Created by KiCad (PCBNEW 4.0.2-stable) date 2019-03-28 2:30:29 PM*
%MOMM*%
G01*
G04 APERTURE LIST*
%ADD10C,0.200000*%
%ADD11C,0.010000*%
%ADD12C,0.150000*%
%ADD13C,0.120000*%
%ADD14C,1.100000*%
%ADD15R,1.800000X1.800000*%
%ADD16O,1.800000X1.800000*%
G04 APERTURE END LIST*
D10*
D11*
G36*
X125402664Y-137714954D02*
X125404237Y-137731357D01*
X125403647Y-137749728D01*
X125400458Y-137770917D01*
X125394232Y-137795771D01*
X125384533Y-137825138D01*
X125370927Y-137859866D01*
X125352977Y-137900801D01*
X125330245Y-137948791D01*
X125302297Y-138004684D01*
X125268696Y-138069329D01*
X125229005Y-138143571D01*
X125182791Y-138228260D01*
X125129614Y-138324242D01*
X125069040Y-138432364D01*
X125000632Y-138553477D01*
X124923955Y-138688424D01*
X124838571Y-138838057D01*
X124744045Y-139003221D01*
X124639941Y-139184763D01*
X124593963Y-139264868D01*
X124494979Y-139436956D01*
X124397211Y-139606288D01*
X124301382Y-139771637D01*
X124208215Y-139931776D01*
X124118432Y-140085479D01*
X124032759Y-140231523D01*
X123951916Y-140368678D01*
X123876626Y-140495720D01*
X123807614Y-140611423D01*
X123745602Y-140714560D01*
X123691311Y-140803907D01*
X123645468Y-140878236D01*
X123608792Y-140936323D01*
X123603464Y-140944582D01*
X123552926Y-141018836D01*
X123508632Y-141075502D01*
X123469354Y-141115889D01*
X123433863Y-141141306D01*
X123409522Y-141151191D01*
X123381967Y-141155793D01*
X123335276Y-141160161D01*
X123270630Y-141164283D01*
X123189212Y-141168147D01*
X123092204Y-141171742D01*
X122980789Y-141175055D01*
X122856147Y-141178073D01*
X122719464Y-141180786D01*
X122571919Y-141183180D01*
X122414696Y-141185242D01*
X122248975Y-141186964D01*
X122075941Y-141188329D01*
X121896774Y-141189328D01*
X121712659Y-141189947D01*
X121524775Y-141190176D01*
X121334307Y-141190001D01*
X121142435Y-141189410D01*
X120950342Y-141188392D01*
X120759211Y-141186934D01*
X120570224Y-141185023D01*
X120384562Y-141182649D01*
X120368625Y-141182420D01*
X120222355Y-141180238D01*
X120094939Y-141178099D01*
X119984912Y-141175831D01*
X119890809Y-141173264D01*
X119811167Y-141170226D01*
X119744521Y-141166547D01*
X119689404Y-141162056D01*
X119644354Y-141156580D01*
X119607905Y-141149949D01*
X119578592Y-141141991D01*
X119554951Y-141132537D01*
X119535517Y-141121415D01*
X119518826Y-141108452D01*
X119503411Y-141093480D01*
X119490968Y-141079885D01*
X119472395Y-141055833D01*
X119444529Y-141015233D01*
X119408045Y-140959239D01*
X119363615Y-140889011D01*
X119311915Y-140805707D01*
X119253617Y-140710483D01*
X119189395Y-140604497D01*
X119119924Y-140488908D01*
X119045878Y-140364874D01*
X118967929Y-140233551D01*
X118886752Y-140096099D01*
X118803020Y-139953674D01*
X118717408Y-139807434D01*
X118630588Y-139658538D01*
X118543236Y-139508142D01*
X118456024Y-139357406D01*
X118369627Y-139207486D01*
X118284719Y-139059540D01*
X118201972Y-138914727D01*
X118122062Y-138774204D01*
X118045662Y-138639128D01*
X117973444Y-138510658D01*
X117906085Y-138389951D01*
X117844256Y-138278165D01*
X117788633Y-138176458D01*
X117739888Y-138085987D01*
X117698696Y-138007912D01*
X117666541Y-137945011D01*
X117637074Y-137884829D01*
X117616402Y-137838624D01*
X117603490Y-137802584D01*
X117597306Y-137772901D01*
X117596816Y-137745765D01*
X117600984Y-137717367D01*
X117602649Y-137709552D01*
X117608643Y-137688118D01*
X117618594Y-137661043D01*
X117633120Y-137627147D01*
X117652831Y-137585254D01*
X117678341Y-137534186D01*
X117710266Y-137472764D01*
X117749218Y-137399809D01*
X117795811Y-137314144D01*
X117850660Y-137214591D01*
X117914376Y-137099972D01*
X117987575Y-136969106D01*
X117998457Y-136949701D01*
X118051522Y-136855516D01*
X118112954Y-136747187D01*
X118181538Y-136626817D01*
X118256059Y-136496504D01*
X118335300Y-136358350D01*
X118418049Y-136214457D01*
X118503091Y-136066925D01*
X118589208Y-135917852D01*
X118675187Y-135769343D01*
X118759813Y-135623496D01*
X118841870Y-135482411D01*
X118920144Y-135348192D01*
X118993419Y-135222936D01*
X119060481Y-135108747D01*
X119120114Y-135007722D01*
X119171103Y-134921965D01*
X119177664Y-134910994D01*
X119246167Y-134797119D01*
X119305658Y-134699660D01*
X119357093Y-134617325D01*
X119401427Y-134548823D01*
X119439613Y-134492861D01*
X119472609Y-134448148D01*
X119501367Y-134413392D01*
X119526843Y-134387301D01*
X119549992Y-134368583D01*
X119571769Y-134355946D01*
X119593129Y-134348100D01*
X119593902Y-134347891D01*
X119617156Y-134343324D01*
X119651864Y-134339186D01*
X119699110Y-134335431D01*
X119759979Y-134332016D01*
X119835555Y-134328897D01*
X119926922Y-134326030D01*
X120035166Y-134323371D01*
X120161370Y-134320878D01*
X120306620Y-134318507D01*
X120334141Y-134318100D01*
X120502890Y-134315906D01*
X120679653Y-134314105D01*
X120862762Y-134312688D01*
X121050550Y-134311646D01*
X121241351Y-134310973D01*
X121433498Y-134310660D01*
X121582635Y-134310691D01*
X122034598Y-135997439D01*
X122021471Y-136006175D01*
X121995840Y-136027915D01*
X121959320Y-136061045D01*
X121913525Y-136103957D01*
X121860070Y-136155038D01*
X121800568Y-136212675D01*
X121736634Y-136275260D01*
X121669883Y-136341179D01*
X121601929Y-136408821D01*
X121534386Y-136476575D01*
X121468869Y-136542830D01*
X121406991Y-136605975D01*
X121350368Y-136664397D01*
X121300613Y-136716486D01*
X121259342Y-136760630D01*
X121228169Y-136795218D01*
X121208706Y-136818638D01*
X121202883Y-136827605D01*
X121202261Y-136836312D01*
X121204447Y-136853856D01*
X121209750Y-136881491D01*
X121218478Y-136920470D01*
X121230936Y-136972047D01*
X121247433Y-137037474D01*
X121268275Y-137118008D01*
X121293770Y-137214901D01*
X121324225Y-137329407D01*
X121343822Y-137402666D01*
X121377409Y-137527634D01*
X121406281Y-137634165D01*
X121430798Y-137723500D01*
X121451320Y-137796879D01*
X121468209Y-137855539D01*
X121481826Y-137900724D01*
X121492532Y-137933670D01*
X121500686Y-137955619D01*
X121506651Y-137967808D01*
X121509221Y-137970875D01*
X121525349Y-137978331D01*
X121558752Y-137990025D01*
X121607229Y-138005364D01*
X121668577Y-138023764D01*
X121740595Y-138044637D01*
X121821082Y-138067394D01*
X121907835Y-138091447D01*
X121998653Y-138116208D01*
X122091334Y-138141090D01*
X122183675Y-138165505D01*
X122273477Y-138188863D01*
X122358536Y-138210580D01*
X122436651Y-138230065D01*
X122505620Y-138246731D01*
X122563243Y-138259991D01*
X122607315Y-138269256D01*
X122635636Y-138273938D01*
X122645029Y-138274144D01*
X122657358Y-138265676D01*
X122682335Y-138244237D01*
X122718389Y-138211373D01*
X122763948Y-138168628D01*
X122817439Y-138117545D01*
X122877293Y-138059671D01*
X122941935Y-137996550D01*
X123009796Y-137929725D01*
X123079303Y-137860742D01*
X123148883Y-137791144D01*
X123216966Y-137722477D01*
X123281978Y-137656286D01*
X123342349Y-137594113D01*
X123396506Y-137537505D01*
X123419304Y-137513328D01*
X123484749Y-137443533D01*
X123334204Y-136871560D01*
X123183659Y-136299586D01*
X123105983Y-136274987D01*
X123049898Y-136257886D01*
X122976264Y-136236494D01*
X122887258Y-136211412D01*
X122785053Y-136183241D01*
X122671824Y-136152582D01*
X122549746Y-136120036D01*
X122461213Y-136096722D01*
X122358973Y-136070011D01*
X122274583Y-136048178D01*
X122206275Y-136030809D01*
X122152282Y-136017494D01*
X122110832Y-136007822D01*
X122080157Y-136001379D01*
X122058488Y-135997753D01*
X122044058Y-135996535D01*
X122035096Y-135997312D01*
X122034598Y-135997439D01*
X121582635Y-134310691D01*
X121625325Y-134310700D01*
X121815165Y-134311083D01*
X122001349Y-134311804D01*
X122182214Y-134312851D01*
X122356091Y-134314219D01*
X122521314Y-134315898D01*
X122676215Y-134317883D01*
X122819130Y-134320161D01*
X122948389Y-134322730D01*
X123062327Y-134325578D01*
X123159278Y-134328697D01*
X123237454Y-134332074D01*
X123312208Y-134337143D01*
X123370238Y-134344426D01*
X123415106Y-134355016D01*
X123450376Y-134370007D01*
X123479611Y-134390493D01*
X123502774Y-134413485D01*
X123525922Y-134442755D01*
X123558805Y-134489724D01*
X123601362Y-134554286D01*
X123653526Y-134636338D01*
X123715236Y-134735777D01*
X123786429Y-134852498D01*
X123867040Y-134986398D01*
X123957007Y-135137374D01*
X124056266Y-135305320D01*
X124164753Y-135490135D01*
X124244001Y-135625799D01*
X124359758Y-135824751D01*
X124471677Y-136017966D01*
X124579333Y-136204678D01*
X124682300Y-136384125D01*
X124780151Y-136555540D01*
X124872461Y-136718160D01*
X124958802Y-136871218D01*
X125038752Y-137013951D01*
X125111882Y-137145596D01*
X125177765Y-137265385D01*
X125235979Y-137372555D01*
X125286094Y-137466341D01*
X125327686Y-137545979D01*
X125360328Y-137610704D01*
X125383596Y-137659751D01*
X125397062Y-137692356D01*
X125399362Y-137699675D01*
X125402664Y-137714954D01*
X125402664Y-137714954D01*
G37*
X125402664Y-137714954D02*
X125404237Y-137731357D01*
X125403647Y-137749728D01*
X125400458Y-137770917D01*
X125394232Y-137795771D01*
X125384533Y-137825138D01*
X125370927Y-137859866D01*
X125352977Y-137900801D01*
X125330245Y-137948791D01*
X125302297Y-138004684D01*
X125268696Y-138069329D01*
X125229005Y-138143571D01*
X125182791Y-138228260D01*
X125129614Y-138324242D01*
X125069040Y-138432364D01*
X125000632Y-138553477D01*
X124923955Y-138688424D01*
X124838571Y-138838057D01*
X124744045Y-139003221D01*
X124639941Y-139184763D01*
X124593963Y-139264868D01*
X124494979Y-139436956D01*
X124397211Y-139606288D01*
X124301382Y-139771637D01*
X124208215Y-139931776D01*
X124118432Y-140085479D01*
X124032759Y-140231523D01*
X123951916Y-140368678D01*
X123876626Y-140495720D01*
X123807614Y-140611423D01*
X123745602Y-140714560D01*
X123691311Y-140803907D01*
X123645468Y-140878236D01*
X123608792Y-140936323D01*
X123603464Y-140944582D01*
X123552926Y-141018836D01*
X123508632Y-141075502D01*
X123469354Y-141115889D01*
X123433863Y-141141306D01*
X123409522Y-141151191D01*
X123381967Y-141155793D01*
X123335276Y-141160161D01*
X123270630Y-141164283D01*
X123189212Y-141168147D01*
X123092204Y-141171742D01*
X122980789Y-141175055D01*
X122856147Y-141178073D01*
X122719464Y-141180786D01*
X122571919Y-141183180D01*
X122414696Y-141185242D01*
X122248975Y-141186964D01*
X122075941Y-141188329D01*
X121896774Y-141189328D01*
X121712659Y-141189947D01*
X121524775Y-141190176D01*
X121334307Y-141190001D01*
X121142435Y-141189410D01*
X120950342Y-141188392D01*
X120759211Y-141186934D01*
X120570224Y-141185023D01*
X120384562Y-141182649D01*
X120368625Y-141182420D01*
X120222355Y-141180238D01*
X120094939Y-141178099D01*
X119984912Y-141175831D01*
X119890809Y-141173264D01*
X119811167Y-141170226D01*
X119744521Y-141166547D01*
X119689404Y-141162056D01*
X119644354Y-141156580D01*
X119607905Y-141149949D01*
X119578592Y-141141991D01*
X119554951Y-141132537D01*
X119535517Y-141121415D01*
X119518826Y-141108452D01*
X119503411Y-141093480D01*
X119490968Y-141079885D01*
X119472395Y-141055833D01*
X119444529Y-141015233D01*
X119408045Y-140959239D01*
X119363615Y-140889011D01*
X119311915Y-140805707D01*
X119253617Y-140710483D01*
X119189395Y-140604497D01*
X119119924Y-140488908D01*
X119045878Y-140364874D01*
X118967929Y-140233551D01*
X118886752Y-140096099D01*
X118803020Y-139953674D01*
X118717408Y-139807434D01*
X118630588Y-139658538D01*
X118543236Y-139508142D01*
X118456024Y-139357406D01*
X118369627Y-139207486D01*
X118284719Y-139059540D01*
X118201972Y-138914727D01*
X118122062Y-138774204D01*
X118045662Y-138639128D01*
X117973444Y-138510658D01*
X117906085Y-138389951D01*
X117844256Y-138278165D01*
X117788633Y-138176458D01*
X117739888Y-138085987D01*
X117698696Y-138007912D01*
X117666541Y-137945011D01*
X117637074Y-137884829D01*
X117616402Y-137838624D01*
X117603490Y-137802584D01*
X117597306Y-137772901D01*
X117596816Y-137745765D01*
X117600984Y-137717367D01*
X117602649Y-137709552D01*
X117608643Y-137688118D01*
X117618594Y-137661043D01*
X117633120Y-137627147D01*
X117652831Y-137585254D01*
X117678341Y-137534186D01*
X117710266Y-137472764D01*
X117749218Y-137399809D01*
X117795811Y-137314144D01*
X117850660Y-137214591D01*
X117914376Y-137099972D01*
X117987575Y-136969106D01*
X117998457Y-136949701D01*
X118051522Y-136855516D01*
X118112954Y-136747187D01*
X118181538Y-136626817D01*
X118256059Y-136496504D01*
X118335300Y-136358350D01*
X118418049Y-136214457D01*
X118503091Y-136066925D01*
X118589208Y-135917852D01*
X118675187Y-135769343D01*
X118759813Y-135623496D01*
X118841870Y-135482411D01*
X118920144Y-135348192D01*
X118993419Y-135222936D01*
X119060481Y-135108747D01*
X119120114Y-135007722D01*
X119171103Y-134921965D01*
X119177664Y-134910994D01*
X119246167Y-134797119D01*
X119305658Y-134699660D01*
X119357093Y-134617325D01*
X119401427Y-134548823D01*
X119439613Y-134492861D01*
X119472609Y-134448148D01*
X119501367Y-134413392D01*
X119526843Y-134387301D01*
X119549992Y-134368583D01*
X119571769Y-134355946D01*
X119593129Y-134348100D01*
X119593902Y-134347891D01*
X119617156Y-134343324D01*
X119651864Y-134339186D01*
X119699110Y-134335431D01*
X119759979Y-134332016D01*
X119835555Y-134328897D01*
X119926922Y-134326030D01*
X120035166Y-134323371D01*
X120161370Y-134320878D01*
X120306620Y-134318507D01*
X120334141Y-134318100D01*
X120502890Y-134315906D01*
X120679653Y-134314105D01*
X120862762Y-134312688D01*
X121050550Y-134311646D01*
X121241351Y-134310973D01*
X121433498Y-134310660D01*
X121582635Y-134310691D01*
X122034598Y-135997439D01*
X122021471Y-136006175D01*
X121995840Y-136027915D01*
X121959320Y-136061045D01*
X121913525Y-136103957D01*
X121860070Y-136155038D01*
X121800568Y-136212675D01*
X121736634Y-136275260D01*
X121669883Y-136341179D01*
X121601929Y-136408821D01*
X121534386Y-136476575D01*
X121468869Y-136542830D01*
X121406991Y-136605975D01*
X121350368Y-136664397D01*
X121300613Y-136716486D01*
X121259342Y-136760630D01*
X121228169Y-136795218D01*
X121208706Y-136818638D01*
X121202883Y-136827605D01*
X121202261Y-136836312D01*
X121204447Y-136853856D01*
X121209750Y-136881491D01*
X121218478Y-136920470D01*
X121230936Y-136972047D01*
X121247433Y-137037474D01*
X121268275Y-137118008D01*
X121293770Y-137214901D01*
X121324225Y-137329407D01*
X121343822Y-137402666D01*
X121377409Y-137527634D01*
X121406281Y-137634165D01*
X121430798Y-137723500D01*
X121451320Y-137796879D01*
X121468209Y-137855539D01*
X121481826Y-137900724D01*
X121492532Y-137933670D01*
X121500686Y-137955619D01*
X121506651Y-137967808D01*
X121509221Y-137970875D01*
X121525349Y-137978331D01*
X121558752Y-137990025D01*
X121607229Y-138005364D01*
X121668577Y-138023764D01*
X121740595Y-138044637D01*
X121821082Y-138067394D01*
X121907835Y-138091447D01*
X121998653Y-138116208D01*
X122091334Y-138141090D01*
X122183675Y-138165505D01*
X122273477Y-138188863D01*
X122358536Y-138210580D01*
X122436651Y-138230065D01*
X122505620Y-138246731D01*
X122563243Y-138259991D01*
X122607315Y-138269256D01*
X122635636Y-138273938D01*
X122645029Y-138274144D01*
X122657358Y-138265676D01*
X122682335Y-138244237D01*
X122718389Y-138211373D01*
X122763948Y-138168628D01*
X122817439Y-138117545D01*
X122877293Y-138059671D01*
X122941935Y-137996550D01*
X123009796Y-137929725D01*
X123079303Y-137860742D01*
X123148883Y-137791144D01*
X123216966Y-137722477D01*
X123281978Y-137656286D01*
X123342349Y-137594113D01*
X123396506Y-137537505D01*
X123419304Y-137513328D01*
X123484749Y-137443533D01*
X123334204Y-136871560D01*
X123183659Y-136299586D01*
X123105983Y-136274987D01*
X123049898Y-136257886D01*
X122976264Y-136236494D01*
X122887258Y-136211412D01*
X122785053Y-136183241D01*
X122671824Y-136152582D01*
X122549746Y-136120036D01*
X122461213Y-136096722D01*
X122358973Y-136070011D01*
X122274583Y-136048178D01*
X122206275Y-136030809D01*
X122152282Y-136017494D01*
X122110832Y-136007822D01*
X122080157Y-136001379D01*
X122058488Y-135997753D01*
X122044058Y-135996535D01*
X122035096Y-135997312D01*
X122034598Y-135997439D01*
X121582635Y-134310691D01*
X121625325Y-134310700D01*
X121815165Y-134311083D01*
X122001349Y-134311804D01*
X122182214Y-134312851D01*
X122356091Y-134314219D01*
X122521314Y-134315898D01*
X122676215Y-134317883D01*
X122819130Y-134320161D01*
X122948389Y-134322730D01*
X123062327Y-134325578D01*
X123159278Y-134328697D01*
X123237454Y-134332074D01*
X123312208Y-134337143D01*
X123370238Y-134344426D01*
X123415106Y-134355016D01*
X123450376Y-134370007D01*
X123479611Y-134390493D01*
X123502774Y-134413485D01*
X123525922Y-134442755D01*
X123558805Y-134489724D01*
X123601362Y-134554286D01*
X123653526Y-134636338D01*
X123715236Y-134735777D01*
X123786429Y-134852498D01*
X123867040Y-134986398D01*
X123957007Y-135137374D01*
X124056266Y-135305320D01*
X124164753Y-135490135D01*
X124244001Y-135625799D01*
X124359758Y-135824751D01*
X124471677Y-136017966D01*
X124579333Y-136204678D01*
X124682300Y-136384125D01*
X124780151Y-136555540D01*
X124872461Y-136718160D01*
X124958802Y-136871218D01*
X125038752Y-137013951D01*
X125111882Y-137145596D01*
X125177765Y-137265385D01*
X125235979Y-137372555D01*
X125286094Y-137466341D01*
X125327686Y-137545979D01*
X125360328Y-137610704D01*
X125383596Y-137659751D01*
X125397062Y-137692356D01*
X125399362Y-137699675D01*
X125402664Y-137714954D01*
G36*
X151152664Y-137714954D02*
X151154237Y-137731357D01*
X151153647Y-137749728D01*
X151150458Y-137770917D01*
X151144232Y-137795771D01*
X151134533Y-137825138D01*
X151120927Y-137859866D01*
X151102977Y-137900801D01*
X151080245Y-137948791D01*
X151052297Y-138004684D01*
X151018696Y-138069329D01*
X150979005Y-138143571D01*
X150932791Y-138228260D01*
X150879614Y-138324242D01*
X150819040Y-138432364D01*
X150750632Y-138553477D01*
X150673955Y-138688424D01*
X150588571Y-138838057D01*
X150494045Y-139003221D01*
X150389941Y-139184763D01*
X150343963Y-139264868D01*
X150244979Y-139436956D01*
X150147211Y-139606288D01*
X150051382Y-139771637D01*
X149958215Y-139931776D01*
X149868432Y-140085479D01*
X149782759Y-140231523D01*
X149701916Y-140368678D01*
X149626626Y-140495720D01*
X149557614Y-140611423D01*
X149495602Y-140714560D01*
X149441311Y-140803907D01*
X149395468Y-140878236D01*
X149358792Y-140936323D01*
X149353464Y-140944582D01*
X149302926Y-141018836D01*
X149258632Y-141075502D01*
X149219354Y-141115889D01*
X149183863Y-141141306D01*
X149159522Y-141151191D01*
X149131967Y-141155793D01*
X149085276Y-141160161D01*
X149020630Y-141164283D01*
X148939212Y-141168147D01*
X148842204Y-141171742D01*
X148730789Y-141175055D01*
X148606147Y-141178073D01*
X148469464Y-141180786D01*
X148321919Y-141183180D01*
X148164696Y-141185242D01*
X147998975Y-141186964D01*
X147825941Y-141188329D01*
X147646774Y-141189328D01*
X147462659Y-141189947D01*
X147274775Y-141190176D01*
X147084307Y-141190001D01*
X146892435Y-141189410D01*
X146700342Y-141188392D01*
X146509211Y-141186934D01*
X146320224Y-141185023D01*
X146134562Y-141182649D01*
X146118625Y-141182420D01*
X145972355Y-141180238D01*
X145844939Y-141178099D01*
X145734912Y-141175831D01*
X145640809Y-141173264D01*
X145561167Y-141170226D01*
X145494521Y-141166547D01*
X145439404Y-141162056D01*
X145394354Y-141156580D01*
X145357905Y-141149949D01*
X145328592Y-141141991D01*
X145304951Y-141132537D01*
X145285517Y-141121415D01*
X145268826Y-141108452D01*
X145253411Y-141093480D01*
X145240968Y-141079885D01*
X145222395Y-141055833D01*
X145194529Y-141015233D01*
X145158045Y-140959239D01*
X145113615Y-140889011D01*
X145061915Y-140805707D01*
X145003617Y-140710483D01*
X144939395Y-140604497D01*
X144869924Y-140488908D01*
X144795878Y-140364874D01*
X144717929Y-140233551D01*
X144636752Y-140096099D01*
X144553020Y-139953674D01*
X144467408Y-139807434D01*
X144380588Y-139658538D01*
X144293236Y-139508142D01*
X144206024Y-139357406D01*
X144119627Y-139207486D01*
X144034719Y-139059540D01*
X143951972Y-138914727D01*
X143872062Y-138774204D01*
X143795662Y-138639128D01*
X143723444Y-138510658D01*
X143656085Y-138389951D01*
X143594256Y-138278165D01*
X143538633Y-138176458D01*
X143489888Y-138085987D01*
X143448696Y-138007912D01*
X143416541Y-137945011D01*
X143387074Y-137884829D01*
X143366402Y-137838624D01*
X143353490Y-137802584D01*
X143347306Y-137772901D01*
X143346816Y-137745765D01*
X143350984Y-137717367D01*
X143352649Y-137709552D01*
X143358643Y-137688118D01*
X143368594Y-137661043D01*
X143383120Y-137627147D01*
X143402831Y-137585254D01*
X143428341Y-137534186D01*
X143460266Y-137472764D01*
X143499218Y-137399809D01*
X143545811Y-137314144D01*
X143600660Y-137214591D01*
X143664376Y-137099972D01*
X143737575Y-136969106D01*
X143748457Y-136949701D01*
X143801522Y-136855516D01*
X143862954Y-136747187D01*
X143931538Y-136626817D01*
X144006059Y-136496504D01*
X144085300Y-136358350D01*
X144168049Y-136214457D01*
X144253091Y-136066925D01*
X144339208Y-135917852D01*
X144425187Y-135769343D01*
X144509813Y-135623496D01*
X144591870Y-135482411D01*
X144670144Y-135348192D01*
X144743419Y-135222936D01*
X144810481Y-135108747D01*
X144870114Y-135007722D01*
X144921103Y-134921965D01*
X144927664Y-134910994D01*
X144996167Y-134797119D01*
X145055658Y-134699660D01*
X145107093Y-134617325D01*
X145151427Y-134548823D01*
X145189613Y-134492861D01*
X145222609Y-134448148D01*
X145251367Y-134413392D01*
X145276843Y-134387301D01*
X145299992Y-134368583D01*
X145321769Y-134355946D01*
X145343129Y-134348100D01*
X145343902Y-134347891D01*
X145367156Y-134343324D01*
X145401864Y-134339186D01*
X145449110Y-134335431D01*
X145509979Y-134332016D01*
X145585555Y-134328897D01*
X145676922Y-134326030D01*
X145785166Y-134323371D01*
X145911370Y-134320878D01*
X146056620Y-134318507D01*
X146084141Y-134318100D01*
X146252890Y-134315906D01*
X146429653Y-134314105D01*
X146612762Y-134312688D01*
X146800550Y-134311646D01*
X146991351Y-134310973D01*
X147183498Y-134310660D01*
X147332635Y-134310691D01*
X147784598Y-135997439D01*
X147771471Y-136006175D01*
X147745840Y-136027915D01*
X147709320Y-136061045D01*
X147663525Y-136103957D01*
X147610070Y-136155038D01*
X147550568Y-136212675D01*
X147486634Y-136275260D01*
X147419883Y-136341179D01*
X147351929Y-136408821D01*
X147284386Y-136476575D01*
X147218869Y-136542830D01*
X147156991Y-136605975D01*
X147100368Y-136664397D01*
X147050613Y-136716486D01*
X147009342Y-136760630D01*
X146978169Y-136795218D01*
X146958706Y-136818638D01*
X146952883Y-136827605D01*
X146952261Y-136836312D01*
X146954447Y-136853856D01*
X146959750Y-136881491D01*
X146968478Y-136920470D01*
X146980936Y-136972047D01*
X146997433Y-137037474D01*
X147018275Y-137118008D01*
X147043770Y-137214901D01*
X147074225Y-137329407D01*
X147093822Y-137402666D01*
X147127409Y-137527634D01*
X147156281Y-137634165D01*
X147180798Y-137723500D01*
X147201320Y-137796879D01*
X147218209Y-137855539D01*
X147231826Y-137900724D01*
X147242532Y-137933670D01*
X147250686Y-137955619D01*
X147256651Y-137967808D01*
X147259221Y-137970875D01*
X147275349Y-137978331D01*
X147308752Y-137990025D01*
X147357229Y-138005364D01*
X147418577Y-138023764D01*
X147490595Y-138044637D01*
X147571082Y-138067394D01*
X147657835Y-138091447D01*
X147748653Y-138116208D01*
X147841334Y-138141090D01*
X147933675Y-138165505D01*
X148023477Y-138188863D01*
X148108536Y-138210580D01*
X148186651Y-138230065D01*
X148255620Y-138246731D01*
X148313243Y-138259991D01*
X148357315Y-138269256D01*
X148385636Y-138273938D01*
X148395029Y-138274144D01*
X148407358Y-138265676D01*
X148432335Y-138244237D01*
X148468389Y-138211373D01*
X148513948Y-138168628D01*
X148567439Y-138117545D01*
X148627293Y-138059671D01*
X148691935Y-137996550D01*
X148759796Y-137929725D01*
X148829303Y-137860742D01*
X148898883Y-137791144D01*
X148966966Y-137722477D01*
X149031978Y-137656286D01*
X149092349Y-137594113D01*
X149146506Y-137537505D01*
X149169304Y-137513328D01*
X149234749Y-137443533D01*
X149084204Y-136871560D01*
X148933659Y-136299586D01*
X148855983Y-136274987D01*
X148799898Y-136257886D01*
X148726264Y-136236494D01*
X148637258Y-136211412D01*
X148535053Y-136183241D01*
X148421824Y-136152582D01*
X148299746Y-136120036D01*
X148211213Y-136096722D01*
X148108973Y-136070011D01*
X148024583Y-136048178D01*
X147956275Y-136030809D01*
X147902282Y-136017494D01*
X147860832Y-136007822D01*
X147830157Y-136001379D01*
X147808488Y-135997753D01*
X147794058Y-135996535D01*
X147785096Y-135997312D01*
X147784598Y-135997439D01*
X147332635Y-134310691D01*
X147375325Y-134310700D01*
X147565165Y-134311083D01*
X147751349Y-134311804D01*
X147932214Y-134312851D01*
X148106091Y-134314219D01*
X148271314Y-134315898D01*
X148426215Y-134317883D01*
X148569130Y-134320161D01*
X148698389Y-134322730D01*
X148812327Y-134325578D01*
X148909278Y-134328697D01*
X148987454Y-134332074D01*
X149062208Y-134337143D01*
X149120238Y-134344426D01*
X149165106Y-134355016D01*
X149200376Y-134370007D01*
X149229611Y-134390493D01*
X149252774Y-134413485D01*
X149275922Y-134442755D01*
X149308805Y-134489724D01*
X149351362Y-134554286D01*
X149403526Y-134636338D01*
X149465236Y-134735777D01*
X149536429Y-134852498D01*
X149617040Y-134986398D01*
X149707007Y-135137374D01*
X149806266Y-135305320D01*
X149914753Y-135490135D01*
X149994001Y-135625799D01*
X150109758Y-135824751D01*
X150221677Y-136017966D01*
X150329333Y-136204678D01*
X150432300Y-136384125D01*
X150530151Y-136555540D01*
X150622461Y-136718160D01*
X150708802Y-136871218D01*
X150788752Y-137013951D01*
X150861882Y-137145596D01*
X150927765Y-137265385D01*
X150985979Y-137372555D01*
X151036094Y-137466341D01*
X151077686Y-137545979D01*
X151110328Y-137610704D01*
X151133596Y-137659751D01*
X151147062Y-137692356D01*
X151149362Y-137699675D01*
X151152664Y-137714954D01*
X151152664Y-137714954D01*
G37*
X151152664Y-137714954D02*
X151154237Y-137731357D01*
X151153647Y-137749728D01*
X151150458Y-137770917D01*
X151144232Y-137795771D01*
X151134533Y-137825138D01*
X151120927Y-137859866D01*
X151102977Y-137900801D01*
X151080245Y-137948791D01*
X151052297Y-138004684D01*
X151018696Y-138069329D01*
X150979005Y-138143571D01*
X150932791Y-138228260D01*
X150879614Y-138324242D01*
X150819040Y-138432364D01*
X150750632Y-138553477D01*
X150673955Y-138688424D01*
X150588571Y-138838057D01*
X150494045Y-139003221D01*
X150389941Y-139184763D01*
X150343963Y-139264868D01*
X150244979Y-139436956D01*
X150147211Y-139606288D01*
X150051382Y-139771637D01*
X149958215Y-139931776D01*
X149868432Y-140085479D01*
X149782759Y-140231523D01*
X149701916Y-140368678D01*
X149626626Y-140495720D01*
X149557614Y-140611423D01*
X149495602Y-140714560D01*
X149441311Y-140803907D01*
X149395468Y-140878236D01*
X149358792Y-140936323D01*
X149353464Y-140944582D01*
X149302926Y-141018836D01*
X149258632Y-141075502D01*
X149219354Y-141115889D01*
X149183863Y-141141306D01*
X149159522Y-141151191D01*
X149131967Y-141155793D01*
X149085276Y-141160161D01*
X149020630Y-141164283D01*
X148939212Y-141168147D01*
X148842204Y-141171742D01*
X148730789Y-141175055D01*
X148606147Y-141178073D01*
X148469464Y-141180786D01*
X148321919Y-141183180D01*
X148164696Y-141185242D01*
X147998975Y-141186964D01*
X147825941Y-141188329D01*
X147646774Y-141189328D01*
X147462659Y-141189947D01*
X147274775Y-141190176D01*
X147084307Y-141190001D01*
X146892435Y-141189410D01*
X146700342Y-141188392D01*
X146509211Y-141186934D01*
X146320224Y-141185023D01*
X146134562Y-141182649D01*
X146118625Y-141182420D01*
X145972355Y-141180238D01*
X145844939Y-141178099D01*
X145734912Y-141175831D01*
X145640809Y-141173264D01*
X145561167Y-141170226D01*
X145494521Y-141166547D01*
X145439404Y-141162056D01*
X145394354Y-141156580D01*
X145357905Y-141149949D01*
X145328592Y-141141991D01*
X145304951Y-141132537D01*
X145285517Y-141121415D01*
X145268826Y-141108452D01*
X145253411Y-141093480D01*
X145240968Y-141079885D01*
X145222395Y-141055833D01*
X145194529Y-141015233D01*
X145158045Y-140959239D01*
X145113615Y-140889011D01*
X145061915Y-140805707D01*
X145003617Y-140710483D01*
X144939395Y-140604497D01*
X144869924Y-140488908D01*
X144795878Y-140364874D01*
X144717929Y-140233551D01*
X144636752Y-140096099D01*
X144553020Y-139953674D01*
X144467408Y-139807434D01*
X144380588Y-139658538D01*
X144293236Y-139508142D01*
X144206024Y-139357406D01*
X144119627Y-139207486D01*
X144034719Y-139059540D01*
X143951972Y-138914727D01*
X143872062Y-138774204D01*
X143795662Y-138639128D01*
X143723444Y-138510658D01*
X143656085Y-138389951D01*
X143594256Y-138278165D01*
X143538633Y-138176458D01*
X143489888Y-138085987D01*
X143448696Y-138007912D01*
X143416541Y-137945011D01*
X143387074Y-137884829D01*
X143366402Y-137838624D01*
X143353490Y-137802584D01*
X143347306Y-137772901D01*
X143346816Y-137745765D01*
X143350984Y-137717367D01*
X143352649Y-137709552D01*
X143358643Y-137688118D01*
X143368594Y-137661043D01*
X143383120Y-137627147D01*
X143402831Y-137585254D01*
X143428341Y-137534186D01*
X143460266Y-137472764D01*
X143499218Y-137399809D01*
X143545811Y-137314144D01*
X143600660Y-137214591D01*
X143664376Y-137099972D01*
X143737575Y-136969106D01*
X143748457Y-136949701D01*
X143801522Y-136855516D01*
X143862954Y-136747187D01*
X143931538Y-136626817D01*
X144006059Y-136496504D01*
X144085300Y-136358350D01*
X144168049Y-136214457D01*
X144253091Y-136066925D01*
X144339208Y-135917852D01*
X144425187Y-135769343D01*
X144509813Y-135623496D01*
X144591870Y-135482411D01*
X144670144Y-135348192D01*
X144743419Y-135222936D01*
X144810481Y-135108747D01*
X144870114Y-135007722D01*
X144921103Y-134921965D01*
X144927664Y-134910994D01*
X144996167Y-134797119D01*
X145055658Y-134699660D01*
X145107093Y-134617325D01*
X145151427Y-134548823D01*
X145189613Y-134492861D01*
X145222609Y-134448148D01*
X145251367Y-134413392D01*
X145276843Y-134387301D01*
X145299992Y-134368583D01*
X145321769Y-134355946D01*
X145343129Y-134348100D01*
X145343902Y-134347891D01*
X145367156Y-134343324D01*
X145401864Y-134339186D01*
X145449110Y-134335431D01*
X145509979Y-134332016D01*
X145585555Y-134328897D01*
X145676922Y-134326030D01*
X145785166Y-134323371D01*
X145911370Y-134320878D01*
X146056620Y-134318507D01*
X146084141Y-134318100D01*
X146252890Y-134315906D01*
X146429653Y-134314105D01*
X146612762Y-134312688D01*
X146800550Y-134311646D01*
X146991351Y-134310973D01*
X147183498Y-134310660D01*
X147332635Y-134310691D01*
X147784598Y-135997439D01*
X147771471Y-136006175D01*
X147745840Y-136027915D01*
X147709320Y-136061045D01*
X147663525Y-136103957D01*
X147610070Y-136155038D01*
X147550568Y-136212675D01*
X147486634Y-136275260D01*
X147419883Y-136341179D01*
X147351929Y-136408821D01*
X147284386Y-136476575D01*
X147218869Y-136542830D01*
X147156991Y-136605975D01*
X147100368Y-136664397D01*
X147050613Y-136716486D01*
X147009342Y-136760630D01*
X146978169Y-136795218D01*
X146958706Y-136818638D01*
X146952883Y-136827605D01*
X146952261Y-136836312D01*
X146954447Y-136853856D01*
X146959750Y-136881491D01*
X146968478Y-136920470D01*
X146980936Y-136972047D01*
X146997433Y-137037474D01*
X147018275Y-137118008D01*
X147043770Y-137214901D01*
X147074225Y-137329407D01*
X147093822Y-137402666D01*
X147127409Y-137527634D01*
X147156281Y-137634165D01*
X147180798Y-137723500D01*
X147201320Y-137796879D01*
X147218209Y-137855539D01*
X147231826Y-137900724D01*
X147242532Y-137933670D01*
X147250686Y-137955619D01*
X147256651Y-137967808D01*
X147259221Y-137970875D01*
X147275349Y-137978331D01*
X147308752Y-137990025D01*
X147357229Y-138005364D01*
X147418577Y-138023764D01*
X147490595Y-138044637D01*
X147571082Y-138067394D01*
X147657835Y-138091447D01*
X147748653Y-138116208D01*
X147841334Y-138141090D01*
X147933675Y-138165505D01*
X148023477Y-138188863D01*
X148108536Y-138210580D01*
X148186651Y-138230065D01*
X148255620Y-138246731D01*
X148313243Y-138259991D01*
X148357315Y-138269256D01*
X148385636Y-138273938D01*
X148395029Y-138274144D01*
X148407358Y-138265676D01*
X148432335Y-138244237D01*
X148468389Y-138211373D01*
X148513948Y-138168628D01*
X148567439Y-138117545D01*
X148627293Y-138059671D01*
X148691935Y-137996550D01*
X148759796Y-137929725D01*
X148829303Y-137860742D01*
X148898883Y-137791144D01*
X148966966Y-137722477D01*
X149031978Y-137656286D01*
X149092349Y-137594113D01*
X149146506Y-137537505D01*
X149169304Y-137513328D01*
X149234749Y-137443533D01*
X149084204Y-136871560D01*
X148933659Y-136299586D01*
X148855983Y-136274987D01*
X148799898Y-136257886D01*
X148726264Y-136236494D01*
X148637258Y-136211412D01*
X148535053Y-136183241D01*
X148421824Y-136152582D01*
X148299746Y-136120036D01*
X148211213Y-136096722D01*
X148108973Y-136070011D01*
X148024583Y-136048178D01*
X147956275Y-136030809D01*
X147902282Y-136017494D01*
X147860832Y-136007822D01*
X147830157Y-136001379D01*
X147808488Y-135997753D01*
X147794058Y-135996535D01*
X147785096Y-135997312D01*
X147784598Y-135997439D01*
X147332635Y-134310691D01*
X147375325Y-134310700D01*
X147565165Y-134311083D01*
X147751349Y-134311804D01*
X147932214Y-134312851D01*
X148106091Y-134314219D01*
X148271314Y-134315898D01*
X148426215Y-134317883D01*
X148569130Y-134320161D01*
X148698389Y-134322730D01*
X148812327Y-134325578D01*
X148909278Y-134328697D01*
X148987454Y-134332074D01*
X149062208Y-134337143D01*
X149120238Y-134344426D01*
X149165106Y-134355016D01*
X149200376Y-134370007D01*
X149229611Y-134390493D01*
X149252774Y-134413485D01*
X149275922Y-134442755D01*
X149308805Y-134489724D01*
X149351362Y-134554286D01*
X149403526Y-134636338D01*
X149465236Y-134735777D01*
X149536429Y-134852498D01*
X149617040Y-134986398D01*
X149707007Y-135137374D01*
X149806266Y-135305320D01*
X149914753Y-135490135D01*
X149994001Y-135625799D01*
X150109758Y-135824751D01*
X150221677Y-136017966D01*
X150329333Y-136204678D01*
X150432300Y-136384125D01*
X150530151Y-136555540D01*
X150622461Y-136718160D01*
X150708802Y-136871218D01*
X150788752Y-137013951D01*
X150861882Y-137145596D01*
X150927765Y-137265385D01*
X150985979Y-137372555D01*
X151036094Y-137466341D01*
X151077686Y-137545979D01*
X151110328Y-137610704D01*
X151133596Y-137659751D01*
X151147062Y-137692356D01*
X151149362Y-137699675D01*
X151152664Y-137714954D01*
G36*
X151152664Y-102964954D02*
X151154237Y-102981357D01*
X151153647Y-102999728D01*
X151150458Y-103020917D01*
X151144232Y-103045771D01*
X151134533Y-103075138D01*
X151120927Y-103109866D01*
X151102977Y-103150801D01*
X151080245Y-103198791D01*
X151052297Y-103254684D01*
X151018696Y-103319329D01*
X150979005Y-103393571D01*
X150932791Y-103478260D01*
X150879614Y-103574242D01*
X150819040Y-103682364D01*
X150750632Y-103803477D01*
X150673955Y-103938424D01*
X150588571Y-104088057D01*
X150494045Y-104253221D01*
X150389941Y-104434763D01*
X150343963Y-104514868D01*
X150244979Y-104686956D01*
X150147211Y-104856288D01*
X150051382Y-105021637D01*
X149958215Y-105181776D01*
X149868432Y-105335479D01*
X149782759Y-105481523D01*
X149701916Y-105618678D01*
X149626626Y-105745720D01*
X149557614Y-105861423D01*
X149495602Y-105964560D01*
X149441311Y-106053907D01*
X149395468Y-106128236D01*
X149358792Y-106186323D01*
X149353464Y-106194582D01*
X149302926Y-106268836D01*
X149258632Y-106325502D01*
X149219354Y-106365889D01*
X149183863Y-106391306D01*
X149159522Y-106401191D01*
X149131967Y-106405793D01*
X149085276Y-106410161D01*
X149020630Y-106414283D01*
X148939212Y-106418147D01*
X148842204Y-106421742D01*
X148730789Y-106425055D01*
X148606147Y-106428073D01*
X148469464Y-106430786D01*
X148321919Y-106433180D01*
X148164696Y-106435242D01*
X147998975Y-106436964D01*
X147825941Y-106438329D01*
X147646774Y-106439328D01*
X147462659Y-106439947D01*
X147274775Y-106440176D01*
X147084307Y-106440001D01*
X146892435Y-106439410D01*
X146700342Y-106438392D01*
X146509211Y-106436934D01*
X146320224Y-106435023D01*
X146134562Y-106432649D01*
X146118625Y-106432420D01*
X145972355Y-106430238D01*
X145844939Y-106428099D01*
X145734912Y-106425831D01*
X145640809Y-106423264D01*
X145561167Y-106420226D01*
X145494521Y-106416547D01*
X145439404Y-106412056D01*
X145394354Y-106406580D01*
X145357905Y-106399949D01*
X145328592Y-106391991D01*
X145304951Y-106382537D01*
X145285517Y-106371415D01*
X145268826Y-106358452D01*
X145253411Y-106343480D01*
X145240968Y-106329885D01*
X145222395Y-106305833D01*
X145194529Y-106265233D01*
X145158045Y-106209239D01*
X145113615Y-106139011D01*
X145061915Y-106055707D01*
X145003617Y-105960483D01*
X144939395Y-105854497D01*
X144869924Y-105738908D01*
X144795878Y-105614874D01*
X144717929Y-105483551D01*
X144636752Y-105346099D01*
X144553020Y-105203674D01*
X144467408Y-105057434D01*
X144380588Y-104908538D01*
X144293236Y-104758142D01*
X144206024Y-104607406D01*
X144119627Y-104457486D01*
X144034719Y-104309540D01*
X143951972Y-104164727D01*
X143872062Y-104024204D01*
X143795662Y-103889128D01*
X143723444Y-103760658D01*
X143656085Y-103639951D01*
X143594256Y-103528165D01*
X143538633Y-103426458D01*
X143489888Y-103335987D01*
X143448696Y-103257912D01*
X143416541Y-103195011D01*
X143387074Y-103134829D01*
X143366402Y-103088624D01*
X143353490Y-103052584D01*
X143347306Y-103022901D01*
X143346816Y-102995765D01*
X143350984Y-102967367D01*
X143352649Y-102959552D01*
X143358643Y-102938118D01*
X143368594Y-102911043D01*
X143383120Y-102877147D01*
X143402831Y-102835254D01*
X143428341Y-102784186D01*
X143460266Y-102722764D01*
X143499218Y-102649809D01*
X143545811Y-102564144D01*
X143600660Y-102464591D01*
X143664376Y-102349972D01*
X143737575Y-102219106D01*
X143748457Y-102199701D01*
X143801522Y-102105516D01*
X143862954Y-101997187D01*
X143931538Y-101876817D01*
X144006059Y-101746504D01*
X144085300Y-101608350D01*
X144168049Y-101464457D01*
X144253091Y-101316925D01*
X144339208Y-101167852D01*
X144425187Y-101019343D01*
X144509813Y-100873496D01*
X144591870Y-100732411D01*
X144670144Y-100598192D01*
X144743419Y-100472936D01*
X144810481Y-100358747D01*
X144870114Y-100257722D01*
X144921103Y-100171965D01*
X144927664Y-100160994D01*
X144996167Y-100047119D01*
X145055658Y-99949660D01*
X145107093Y-99867325D01*
X145151427Y-99798823D01*
X145189613Y-99742861D01*
X145222609Y-99698148D01*
X145251367Y-99663392D01*
X145276843Y-99637301D01*
X145299992Y-99618583D01*
X145321769Y-99605946D01*
X145343129Y-99598100D01*
X145343902Y-99597891D01*
X145367156Y-99593324D01*
X145401864Y-99589186D01*
X145449110Y-99585431D01*
X145509979Y-99582016D01*
X145585555Y-99578897D01*
X145676922Y-99576030D01*
X145785166Y-99573371D01*
X145911370Y-99570878D01*
X146056620Y-99568507D01*
X146084141Y-99568100D01*
X146252890Y-99565906D01*
X146429653Y-99564105D01*
X146612762Y-99562688D01*
X146800550Y-99561646D01*
X146991351Y-99560973D01*
X147183498Y-99560660D01*
X147332635Y-99560691D01*
X147784598Y-101247439D01*
X147771471Y-101256175D01*
X147745840Y-101277915D01*
X147709320Y-101311045D01*
X147663525Y-101353957D01*
X147610070Y-101405038D01*
X147550568Y-101462675D01*
X147486634Y-101525260D01*
X147419883Y-101591179D01*
X147351929Y-101658821D01*
X147284386Y-101726575D01*
X147218869Y-101792830D01*
X147156991Y-101855975D01*
X147100368Y-101914397D01*
X147050613Y-101966486D01*
X147009342Y-102010630D01*
X146978169Y-102045218D01*
X146958706Y-102068638D01*
X146952883Y-102077605D01*
X146952261Y-102086312D01*
X146954447Y-102103856D01*
X146959750Y-102131491D01*
X146968478Y-102170470D01*
X146980936Y-102222047D01*
X146997433Y-102287474D01*
X147018275Y-102368008D01*
X147043770Y-102464901D01*
X147074225Y-102579407D01*
X147093822Y-102652666D01*
X147127409Y-102777634D01*
X147156281Y-102884165D01*
X147180798Y-102973500D01*
X147201320Y-103046879D01*
X147218209Y-103105539D01*
X147231826Y-103150724D01*
X147242532Y-103183670D01*
X147250686Y-103205619D01*
X147256651Y-103217808D01*
X147259221Y-103220875D01*
X147275349Y-103228331D01*
X147308752Y-103240025D01*
X147357229Y-103255364D01*
X147418577Y-103273764D01*
X147490595Y-103294637D01*
X147571082Y-103317394D01*
X147657835Y-103341447D01*
X147748653Y-103366208D01*
X147841334Y-103391090D01*
X147933675Y-103415505D01*
X148023477Y-103438863D01*
X148108536Y-103460580D01*
X148186651Y-103480065D01*
X148255620Y-103496731D01*
X148313243Y-103509991D01*
X148357315Y-103519256D01*
X148385636Y-103523938D01*
X148395029Y-103524144D01*
X148407358Y-103515676D01*
X148432335Y-103494237D01*
X148468389Y-103461373D01*
X148513948Y-103418628D01*
X148567439Y-103367545D01*
X148627293Y-103309671D01*
X148691935Y-103246550D01*
X148759796Y-103179725D01*
X148829303Y-103110742D01*
X148898883Y-103041144D01*
X148966966Y-102972477D01*
X149031978Y-102906286D01*
X149092349Y-102844113D01*
X149146506Y-102787505D01*
X149169304Y-102763328D01*
X149234749Y-102693533D01*
X149084204Y-102121560D01*
X148933659Y-101549586D01*
X148855983Y-101524987D01*
X148799898Y-101507886D01*
X148726264Y-101486494D01*
X148637258Y-101461412D01*
X148535053Y-101433241D01*
X148421824Y-101402582D01*
X148299746Y-101370036D01*
X148211213Y-101346722D01*
X148108973Y-101320011D01*
X148024583Y-101298178D01*
X147956275Y-101280809D01*
X147902282Y-101267494D01*
X147860832Y-101257822D01*
X147830157Y-101251379D01*
X147808488Y-101247753D01*
X147794058Y-101246535D01*
X147785096Y-101247312D01*
X147784598Y-101247439D01*
X147332635Y-99560691D01*
X147375325Y-99560700D01*
X147565165Y-99561083D01*
X147751349Y-99561804D01*
X147932214Y-99562851D01*
X148106091Y-99564219D01*
X148271314Y-99565898D01*
X148426215Y-99567883D01*
X148569130Y-99570161D01*
X148698389Y-99572730D01*
X148812327Y-99575578D01*
X148909278Y-99578697D01*
X148987454Y-99582074D01*
X149062208Y-99587143D01*
X149120238Y-99594426D01*
X149165106Y-99605016D01*
X149200376Y-99620007D01*
X149229611Y-99640493D01*
X149252774Y-99663485D01*
X149275922Y-99692755D01*
X149308805Y-99739724D01*
X149351362Y-99804286D01*
X149403526Y-99886338D01*
X149465236Y-99985777D01*
X149536429Y-100102498D01*
X149617040Y-100236398D01*
X149707007Y-100387374D01*
X149806266Y-100555320D01*
X149914753Y-100740135D01*
X149994001Y-100875799D01*
X150109758Y-101074751D01*
X150221677Y-101267966D01*
X150329333Y-101454678D01*
X150432300Y-101634125D01*
X150530151Y-101805540D01*
X150622461Y-101968160D01*
X150708802Y-102121218D01*
X150788752Y-102263951D01*
X150861882Y-102395596D01*
X150927765Y-102515385D01*
X150985979Y-102622555D01*
X151036094Y-102716341D01*
X151077686Y-102795979D01*
X151110328Y-102860704D01*
X151133596Y-102909751D01*
X151147062Y-102942356D01*
X151149362Y-102949675D01*
X151152664Y-102964954D01*
X151152664Y-102964954D01*
G37*
X151152664Y-102964954D02*
X151154237Y-102981357D01*
X151153647Y-102999728D01*
X151150458Y-103020917D01*
X151144232Y-103045771D01*
X151134533Y-103075138D01*
X151120927Y-103109866D01*
X151102977Y-103150801D01*
X151080245Y-103198791D01*
X151052297Y-103254684D01*
X151018696Y-103319329D01*
X150979005Y-103393571D01*
X150932791Y-103478260D01*
X150879614Y-103574242D01*
X150819040Y-103682364D01*
X150750632Y-103803477D01*
X150673955Y-103938424D01*
X150588571Y-104088057D01*
X150494045Y-104253221D01*
X150389941Y-104434763D01*
X150343963Y-104514868D01*
X150244979Y-104686956D01*
X150147211Y-104856288D01*
X150051382Y-105021637D01*
X149958215Y-105181776D01*
X149868432Y-105335479D01*
X149782759Y-105481523D01*
X149701916Y-105618678D01*
X149626626Y-105745720D01*
X149557614Y-105861423D01*
X149495602Y-105964560D01*
X149441311Y-106053907D01*
X149395468Y-106128236D01*
X149358792Y-106186323D01*
X149353464Y-106194582D01*
X149302926Y-106268836D01*
X149258632Y-106325502D01*
X149219354Y-106365889D01*
X149183863Y-106391306D01*
X149159522Y-106401191D01*
X149131967Y-106405793D01*
X149085276Y-106410161D01*
X149020630Y-106414283D01*
X148939212Y-106418147D01*
X148842204Y-106421742D01*
X148730789Y-106425055D01*
X148606147Y-106428073D01*
X148469464Y-106430786D01*
X148321919Y-106433180D01*
X148164696Y-106435242D01*
X147998975Y-106436964D01*
X147825941Y-106438329D01*
X147646774Y-106439328D01*
X147462659Y-106439947D01*
X147274775Y-106440176D01*
X147084307Y-106440001D01*
X146892435Y-106439410D01*
X146700342Y-106438392D01*
X146509211Y-106436934D01*
X146320224Y-106435023D01*
X146134562Y-106432649D01*
X146118625Y-106432420D01*
X145972355Y-106430238D01*
X145844939Y-106428099D01*
X145734912Y-106425831D01*
X145640809Y-106423264D01*
X145561167Y-106420226D01*
X145494521Y-106416547D01*
X145439404Y-106412056D01*
X145394354Y-106406580D01*
X145357905Y-106399949D01*
X145328592Y-106391991D01*
X145304951Y-106382537D01*
X145285517Y-106371415D01*
X145268826Y-106358452D01*
X145253411Y-106343480D01*
X145240968Y-106329885D01*
X145222395Y-106305833D01*
X145194529Y-106265233D01*
X145158045Y-106209239D01*
X145113615Y-106139011D01*
X145061915Y-106055707D01*
X145003617Y-105960483D01*
X144939395Y-105854497D01*
X144869924Y-105738908D01*
X144795878Y-105614874D01*
X144717929Y-105483551D01*
X144636752Y-105346099D01*
X144553020Y-105203674D01*
X144467408Y-105057434D01*
X144380588Y-104908538D01*
X144293236Y-104758142D01*
X144206024Y-104607406D01*
X144119627Y-104457486D01*
X144034719Y-104309540D01*
X143951972Y-104164727D01*
X143872062Y-104024204D01*
X143795662Y-103889128D01*
X143723444Y-103760658D01*
X143656085Y-103639951D01*
X143594256Y-103528165D01*
X143538633Y-103426458D01*
X143489888Y-103335987D01*
X143448696Y-103257912D01*
X143416541Y-103195011D01*
X143387074Y-103134829D01*
X143366402Y-103088624D01*
X143353490Y-103052584D01*
X143347306Y-103022901D01*
X143346816Y-102995765D01*
X143350984Y-102967367D01*
X143352649Y-102959552D01*
X143358643Y-102938118D01*
X143368594Y-102911043D01*
X143383120Y-102877147D01*
X143402831Y-102835254D01*
X143428341Y-102784186D01*
X143460266Y-102722764D01*
X143499218Y-102649809D01*
X143545811Y-102564144D01*
X143600660Y-102464591D01*
X143664376Y-102349972D01*
X143737575Y-102219106D01*
X143748457Y-102199701D01*
X143801522Y-102105516D01*
X143862954Y-101997187D01*
X143931538Y-101876817D01*
X144006059Y-101746504D01*
X144085300Y-101608350D01*
X144168049Y-101464457D01*
X144253091Y-101316925D01*
X144339208Y-101167852D01*
X144425187Y-101019343D01*
X144509813Y-100873496D01*
X144591870Y-100732411D01*
X144670144Y-100598192D01*
X144743419Y-100472936D01*
X144810481Y-100358747D01*
X144870114Y-100257722D01*
X144921103Y-100171965D01*
X144927664Y-100160994D01*
X144996167Y-100047119D01*
X145055658Y-99949660D01*
X145107093Y-99867325D01*
X145151427Y-99798823D01*
X145189613Y-99742861D01*
X145222609Y-99698148D01*
X145251367Y-99663392D01*
X145276843Y-99637301D01*
X145299992Y-99618583D01*
X145321769Y-99605946D01*
X145343129Y-99598100D01*
X145343902Y-99597891D01*
X145367156Y-99593324D01*
X145401864Y-99589186D01*
X145449110Y-99585431D01*
X145509979Y-99582016D01*
X145585555Y-99578897D01*
X145676922Y-99576030D01*
X145785166Y-99573371D01*
X145911370Y-99570878D01*
X146056620Y-99568507D01*
X146084141Y-99568100D01*
X146252890Y-99565906D01*
X146429653Y-99564105D01*
X146612762Y-99562688D01*
X146800550Y-99561646D01*
X146991351Y-99560973D01*
X147183498Y-99560660D01*
X147332635Y-99560691D01*
X147784598Y-101247439D01*
X147771471Y-101256175D01*
X147745840Y-101277915D01*
X147709320Y-101311045D01*
X147663525Y-101353957D01*
X147610070Y-101405038D01*
X147550568Y-101462675D01*
X147486634Y-101525260D01*
X147419883Y-101591179D01*
X147351929Y-101658821D01*
X147284386Y-101726575D01*
X147218869Y-101792830D01*
X147156991Y-101855975D01*
X147100368Y-101914397D01*
X147050613Y-101966486D01*
X147009342Y-102010630D01*
X146978169Y-102045218D01*
X146958706Y-102068638D01*
X146952883Y-102077605D01*
X146952261Y-102086312D01*
X146954447Y-102103856D01*
X146959750Y-102131491D01*
X146968478Y-102170470D01*
X146980936Y-102222047D01*
X146997433Y-102287474D01*
X147018275Y-102368008D01*
X147043770Y-102464901D01*
X147074225Y-102579407D01*
X147093822Y-102652666D01*
X147127409Y-102777634D01*
X147156281Y-102884165D01*
X147180798Y-102973500D01*
X147201320Y-103046879D01*
X147218209Y-103105539D01*
X147231826Y-103150724D01*
X147242532Y-103183670D01*
X147250686Y-103205619D01*
X147256651Y-103217808D01*
X147259221Y-103220875D01*
X147275349Y-103228331D01*
X147308752Y-103240025D01*
X147357229Y-103255364D01*
X147418577Y-103273764D01*
X147490595Y-103294637D01*
X147571082Y-103317394D01*
X147657835Y-103341447D01*
X147748653Y-103366208D01*
X147841334Y-103391090D01*
X147933675Y-103415505D01*
X148023477Y-103438863D01*
X148108536Y-103460580D01*
X148186651Y-103480065D01*
X148255620Y-103496731D01*
X148313243Y-103509991D01*
X148357315Y-103519256D01*
X148385636Y-103523938D01*
X148395029Y-103524144D01*
X148407358Y-103515676D01*
X148432335Y-103494237D01*
X148468389Y-103461373D01*
X148513948Y-103418628D01*
X148567439Y-103367545D01*
X148627293Y-103309671D01*
X148691935Y-103246550D01*
X148759796Y-103179725D01*
X148829303Y-103110742D01*
X148898883Y-103041144D01*
X148966966Y-102972477D01*
X149031978Y-102906286D01*
X149092349Y-102844113D01*
X149146506Y-102787505D01*
X149169304Y-102763328D01*
X149234749Y-102693533D01*
X149084204Y-102121560D01*
X148933659Y-101549586D01*
X148855983Y-101524987D01*
X148799898Y-101507886D01*
X148726264Y-101486494D01*
X148637258Y-101461412D01*
X148535053Y-101433241D01*
X148421824Y-101402582D01*
X148299746Y-101370036D01*
X148211213Y-101346722D01*
X148108973Y-101320011D01*
X148024583Y-101298178D01*
X147956275Y-101280809D01*
X147902282Y-101267494D01*
X147860832Y-101257822D01*
X147830157Y-101251379D01*
X147808488Y-101247753D01*
X147794058Y-101246535D01*
X147785096Y-101247312D01*
X147784598Y-101247439D01*
X147332635Y-99560691D01*
X147375325Y-99560700D01*
X147565165Y-99561083D01*
X147751349Y-99561804D01*
X147932214Y-99562851D01*
X148106091Y-99564219D01*
X148271314Y-99565898D01*
X148426215Y-99567883D01*
X148569130Y-99570161D01*
X148698389Y-99572730D01*
X148812327Y-99575578D01*
X148909278Y-99578697D01*
X148987454Y-99582074D01*
X149062208Y-99587143D01*
X149120238Y-99594426D01*
X149165106Y-99605016D01*
X149200376Y-99620007D01*
X149229611Y-99640493D01*
X149252774Y-99663485D01*
X149275922Y-99692755D01*
X149308805Y-99739724D01*
X149351362Y-99804286D01*
X149403526Y-99886338D01*
X149465236Y-99985777D01*
X149536429Y-100102498D01*
X149617040Y-100236398D01*
X149707007Y-100387374D01*
X149806266Y-100555320D01*
X149914753Y-100740135D01*
X149994001Y-100875799D01*
X150109758Y-101074751D01*
X150221677Y-101267966D01*
X150329333Y-101454678D01*
X150432300Y-101634125D01*
X150530151Y-101805540D01*
X150622461Y-101968160D01*
X150708802Y-102121218D01*
X150788752Y-102263951D01*
X150861882Y-102395596D01*
X150927765Y-102515385D01*
X150985979Y-102622555D01*
X151036094Y-102716341D01*
X151077686Y-102795979D01*
X151110328Y-102860704D01*
X151133596Y-102909751D01*
X151147062Y-102942356D01*
X151149362Y-102949675D01*
X151152664Y-102964954D01*
G36*
X125402664Y-102964954D02*
X125404237Y-102981357D01*
X125403647Y-102999728D01*
X125400458Y-103020917D01*
X125394232Y-103045771D01*
X125384533Y-103075138D01*
X125370927Y-103109866D01*
X125352977Y-103150801D01*
X125330245Y-103198791D01*
X125302297Y-103254684D01*
X125268696Y-103319329D01*
X125229005Y-103393571D01*
X125182791Y-103478260D01*
X125129614Y-103574242D01*
X125069040Y-103682364D01*
X125000632Y-103803477D01*
X124923955Y-103938424D01*
X124838571Y-104088057D01*
X124744045Y-104253221D01*
X124639941Y-104434763D01*
X124593963Y-104514868D01*
X124494979Y-104686956D01*
X124397211Y-104856288D01*
X124301382Y-105021637D01*
X124208215Y-105181776D01*
X124118432Y-105335479D01*
X124032759Y-105481523D01*
X123951916Y-105618678D01*
X123876626Y-105745720D01*
X123807614Y-105861423D01*
X123745602Y-105964560D01*
X123691311Y-106053907D01*
X123645468Y-106128236D01*
X123608792Y-106186323D01*
X123603464Y-106194582D01*
X123552926Y-106268836D01*
X123508632Y-106325502D01*
X123469354Y-106365889D01*
X123433863Y-106391306D01*
X123409522Y-106401191D01*
X123381967Y-106405793D01*
X123335276Y-106410161D01*
X123270630Y-106414283D01*
X123189212Y-106418147D01*
X123092204Y-106421742D01*
X122980789Y-106425055D01*
X122856147Y-106428073D01*
X122719464Y-106430786D01*
X122571919Y-106433180D01*
X122414696Y-106435242D01*
X122248975Y-106436964D01*
X122075941Y-106438329D01*
X121896774Y-106439328D01*
X121712659Y-106439947D01*
X121524775Y-106440176D01*
X121334307Y-106440001D01*
X121142435Y-106439410D01*
X120950342Y-106438392D01*
X120759211Y-106436934D01*
X120570224Y-106435023D01*
X120384562Y-106432649D01*
X120368625Y-106432420D01*
X120222355Y-106430238D01*
X120094939Y-106428099D01*
X119984912Y-106425831D01*
X119890809Y-106423264D01*
X119811167Y-106420226D01*
X119744521Y-106416547D01*
X119689404Y-106412056D01*
X119644354Y-106406580D01*
X119607905Y-106399949D01*
X119578592Y-106391991D01*
X119554951Y-106382537D01*
X119535517Y-106371415D01*
X119518826Y-106358452D01*
X119503411Y-106343480D01*
X119490968Y-106329885D01*
X119472395Y-106305833D01*
X119444529Y-106265233D01*
X119408045Y-106209239D01*
X119363615Y-106139011D01*
X119311915Y-106055707D01*
X119253617Y-105960483D01*
X119189395Y-105854497D01*
X119119924Y-105738908D01*
X119045878Y-105614874D01*
X118967929Y-105483551D01*
X118886752Y-105346099D01*
X118803020Y-105203674D01*
X118717408Y-105057434D01*
X118630588Y-104908538D01*
X118543236Y-104758142D01*
X118456024Y-104607406D01*
X118369627Y-104457486D01*
X118284719Y-104309540D01*
X118201972Y-104164727D01*
X118122062Y-104024204D01*
X118045662Y-103889128D01*
X117973444Y-103760658D01*
X117906085Y-103639951D01*
X117844256Y-103528165D01*
X117788633Y-103426458D01*
X117739888Y-103335987D01*
X117698696Y-103257912D01*
X117666541Y-103195011D01*
X117637074Y-103134829D01*
X117616402Y-103088624D01*
X117603490Y-103052584D01*
X117597306Y-103022901D01*
X117596816Y-102995765D01*
X117600984Y-102967367D01*
X117602649Y-102959552D01*
X117608643Y-102938118D01*
X117618594Y-102911043D01*
X117633120Y-102877147D01*
X117652831Y-102835254D01*
X117678341Y-102784186D01*
X117710266Y-102722764D01*
X117749218Y-102649809D01*
X117795811Y-102564144D01*
X117850660Y-102464591D01*
X117914376Y-102349972D01*
X117987575Y-102219106D01*
X117998457Y-102199701D01*
X118051522Y-102105516D01*
X118112954Y-101997187D01*
X118181538Y-101876817D01*
X118256059Y-101746504D01*
X118335300Y-101608350D01*
X118418049Y-101464457D01*
X118503091Y-101316925D01*
X118589208Y-101167852D01*
X118675187Y-101019343D01*
X118759813Y-100873496D01*
X118841870Y-100732411D01*
X118920144Y-100598192D01*
X118993419Y-100472936D01*
X119060481Y-100358747D01*
X119120114Y-100257722D01*
X119171103Y-100171965D01*
X119177664Y-100160994D01*
X119246167Y-100047119D01*
X119305658Y-99949660D01*
X119357093Y-99867325D01*
X119401427Y-99798823D01*
X119439613Y-99742861D01*
X119472609Y-99698148D01*
X119501367Y-99663392D01*
X119526843Y-99637301D01*
X119549992Y-99618583D01*
X119571769Y-99605946D01*
X119593129Y-99598100D01*
X119593902Y-99597891D01*
X119617156Y-99593324D01*
X119651864Y-99589186D01*
X119699110Y-99585431D01*
X119759979Y-99582016D01*
X119835555Y-99578897D01*
X119926922Y-99576030D01*
X120035166Y-99573371D01*
X120161370Y-99570878D01*
X120306620Y-99568507D01*
X120334141Y-99568100D01*
X120502890Y-99565906D01*
X120679653Y-99564105D01*
X120862762Y-99562688D01*
X121050550Y-99561646D01*
X121241351Y-99560973D01*
X121433498Y-99560660D01*
X121582635Y-99560691D01*
X122034598Y-101247439D01*
X122021471Y-101256175D01*
X121995840Y-101277915D01*
X121959320Y-101311045D01*
X121913525Y-101353957D01*
X121860070Y-101405038D01*
X121800568Y-101462675D01*
X121736634Y-101525260D01*
X121669883Y-101591179D01*
X121601929Y-101658821D01*
X121534386Y-101726575D01*
X121468869Y-101792830D01*
X121406991Y-101855975D01*
X121350368Y-101914397D01*
X121300613Y-101966486D01*
X121259342Y-102010630D01*
X121228169Y-102045218D01*
X121208706Y-102068638D01*
X121202883Y-102077605D01*
X121202261Y-102086312D01*
X121204447Y-102103856D01*
X121209750Y-102131491D01*
X121218478Y-102170470D01*
X121230936Y-102222047D01*
X121247433Y-102287474D01*
X121268275Y-102368008D01*
X121293770Y-102464901D01*
X121324225Y-102579407D01*
X121343822Y-102652666D01*
X121377409Y-102777634D01*
X121406281Y-102884165D01*
X121430798Y-102973500D01*
X121451320Y-103046879D01*
X121468209Y-103105539D01*
X121481826Y-103150724D01*
X121492532Y-103183670D01*
X121500686Y-103205619D01*
X121506651Y-103217808D01*
X121509221Y-103220875D01*
X121525349Y-103228331D01*
X121558752Y-103240025D01*
X121607229Y-103255364D01*
X121668577Y-103273764D01*
X121740595Y-103294637D01*
X121821082Y-103317394D01*
X121907835Y-103341447D01*
X121998653Y-103366208D01*
X122091334Y-103391090D01*
X122183675Y-103415505D01*
X122273477Y-103438863D01*
X122358536Y-103460580D01*
X122436651Y-103480065D01*
X122505620Y-103496731D01*
X122563243Y-103509991D01*
X122607315Y-103519256D01*
X122635636Y-103523938D01*
X122645029Y-103524144D01*
X122657358Y-103515676D01*
X122682335Y-103494237D01*
X122718389Y-103461373D01*
X122763948Y-103418628D01*
X122817439Y-103367545D01*
X122877293Y-103309671D01*
X122941935Y-103246550D01*
X123009796Y-103179725D01*
X123079303Y-103110742D01*
X123148883Y-103041144D01*
X123216966Y-102972477D01*
X123281978Y-102906286D01*
X123342349Y-102844113D01*
X123396506Y-102787505D01*
X123419304Y-102763328D01*
X123484749Y-102693533D01*
X123334204Y-102121560D01*
X123183659Y-101549586D01*
X123105983Y-101524987D01*
X123049898Y-101507886D01*
X122976264Y-101486494D01*
X122887258Y-101461412D01*
X122785053Y-101433241D01*
X122671824Y-101402582D01*
X122549746Y-101370036D01*
X122461213Y-101346722D01*
X122358973Y-101320011D01*
X122274583Y-101298178D01*
X122206275Y-101280809D01*
X122152282Y-101267494D01*
X122110832Y-101257822D01*
X122080157Y-101251379D01*
X122058488Y-101247753D01*
X122044058Y-101246535D01*
X122035096Y-101247312D01*
X122034598Y-101247439D01*
X121582635Y-99560691D01*
X121625325Y-99560700D01*
X121815165Y-99561083D01*
X122001349Y-99561804D01*
X122182214Y-99562851D01*
X122356091Y-99564219D01*
X122521314Y-99565898D01*
X122676215Y-99567883D01*
X122819130Y-99570161D01*
X122948389Y-99572730D01*
X123062327Y-99575578D01*
X123159278Y-99578697D01*
X123237454Y-99582074D01*
X123312208Y-99587143D01*
X123370238Y-99594426D01*
X123415106Y-99605016D01*
X123450376Y-99620007D01*
X123479611Y-99640493D01*
X123502774Y-99663485D01*
X123525922Y-99692755D01*
X123558805Y-99739724D01*
X123601362Y-99804286D01*
X123653526Y-99886338D01*
X123715236Y-99985777D01*
X123786429Y-100102498D01*
X123867040Y-100236398D01*
X123957007Y-100387374D01*
X124056266Y-100555320D01*
X124164753Y-100740135D01*
X124244001Y-100875799D01*
X124359758Y-101074751D01*
X124471677Y-101267966D01*
X124579333Y-101454678D01*
X124682300Y-101634125D01*
X124780151Y-101805540D01*
X124872461Y-101968160D01*
X124958802Y-102121218D01*
X125038752Y-102263951D01*
X125111882Y-102395596D01*
X125177765Y-102515385D01*
X125235979Y-102622555D01*
X125286094Y-102716341D01*
X125327686Y-102795979D01*
X125360328Y-102860704D01*
X125383596Y-102909751D01*
X125397062Y-102942356D01*
X125399362Y-102949675D01*
X125402664Y-102964954D01*
X125402664Y-102964954D01*
G37*
X125402664Y-102964954D02*
X125404237Y-102981357D01*
X125403647Y-102999728D01*
X125400458Y-103020917D01*
X125394232Y-103045771D01*
X125384533Y-103075138D01*
X125370927Y-103109866D01*
X125352977Y-103150801D01*
X125330245Y-103198791D01*
X125302297Y-103254684D01*
X125268696Y-103319329D01*
X125229005Y-103393571D01*
X125182791Y-103478260D01*
X125129614Y-103574242D01*
X125069040Y-103682364D01*
X125000632Y-103803477D01*
X124923955Y-103938424D01*
X124838571Y-104088057D01*
X124744045Y-104253221D01*
X124639941Y-104434763D01*
X124593963Y-104514868D01*
X124494979Y-104686956D01*
X124397211Y-104856288D01*
X124301382Y-105021637D01*
X124208215Y-105181776D01*
X124118432Y-105335479D01*
X124032759Y-105481523D01*
X123951916Y-105618678D01*
X123876626Y-105745720D01*
X123807614Y-105861423D01*
X123745602Y-105964560D01*
X123691311Y-106053907D01*
X123645468Y-106128236D01*
X123608792Y-106186323D01*
X123603464Y-106194582D01*
X123552926Y-106268836D01*
X123508632Y-106325502D01*
X123469354Y-106365889D01*
X123433863Y-106391306D01*
X123409522Y-106401191D01*
X123381967Y-106405793D01*
X123335276Y-106410161D01*
X123270630Y-106414283D01*
X123189212Y-106418147D01*
X123092204Y-106421742D01*
X122980789Y-106425055D01*
X122856147Y-106428073D01*
X122719464Y-106430786D01*
X122571919Y-106433180D01*
X122414696Y-106435242D01*
X122248975Y-106436964D01*
X122075941Y-106438329D01*
X121896774Y-106439328D01*
X121712659Y-106439947D01*
X121524775Y-106440176D01*
X121334307Y-106440001D01*
X121142435Y-106439410D01*
X120950342Y-106438392D01*
X120759211Y-106436934D01*
X120570224Y-106435023D01*
X120384562Y-106432649D01*
X120368625Y-106432420D01*
X120222355Y-106430238D01*
X120094939Y-106428099D01*
X119984912Y-106425831D01*
X119890809Y-106423264D01*
X119811167Y-106420226D01*
X119744521Y-106416547D01*
X119689404Y-106412056D01*
X119644354Y-106406580D01*
X119607905Y-106399949D01*
X119578592Y-106391991D01*
X119554951Y-106382537D01*
X119535517Y-106371415D01*
X119518826Y-106358452D01*
X119503411Y-106343480D01*
X119490968Y-106329885D01*
X119472395Y-106305833D01*
X119444529Y-106265233D01*
X119408045Y-106209239D01*
X119363615Y-106139011D01*
X119311915Y-106055707D01*
X119253617Y-105960483D01*
X119189395Y-105854497D01*
X119119924Y-105738908D01*
X119045878Y-105614874D01*
X118967929Y-105483551D01*
X118886752Y-105346099D01*
X118803020Y-105203674D01*
X118717408Y-105057434D01*
X118630588Y-104908538D01*
X118543236Y-104758142D01*
X118456024Y-104607406D01*
X118369627Y-104457486D01*
X118284719Y-104309540D01*
X118201972Y-104164727D01*
X118122062Y-104024204D01*
X118045662Y-103889128D01*
X117973444Y-103760658D01*
X117906085Y-103639951D01*
X117844256Y-103528165D01*
X117788633Y-103426458D01*
X117739888Y-103335987D01*
X117698696Y-103257912D01*
X117666541Y-103195011D01*
X117637074Y-103134829D01*
X117616402Y-103088624D01*
X117603490Y-103052584D01*
X117597306Y-103022901D01*
X117596816Y-102995765D01*
X117600984Y-102967367D01*
X117602649Y-102959552D01*
X117608643Y-102938118D01*
X117618594Y-102911043D01*
X117633120Y-102877147D01*
X117652831Y-102835254D01*
X117678341Y-102784186D01*
X117710266Y-102722764D01*
X117749218Y-102649809D01*
X117795811Y-102564144D01*
X117850660Y-102464591D01*
X117914376Y-102349972D01*
X117987575Y-102219106D01*
X117998457Y-102199701D01*
X118051522Y-102105516D01*
X118112954Y-101997187D01*
X118181538Y-101876817D01*
X118256059Y-101746504D01*
X118335300Y-101608350D01*
X118418049Y-101464457D01*
X118503091Y-101316925D01*
X118589208Y-101167852D01*
X118675187Y-101019343D01*
X118759813Y-100873496D01*
X118841870Y-100732411D01*
X118920144Y-100598192D01*
X118993419Y-100472936D01*
X119060481Y-100358747D01*
X119120114Y-100257722D01*
X119171103Y-100171965D01*
X119177664Y-100160994D01*
X119246167Y-100047119D01*
X119305658Y-99949660D01*
X119357093Y-99867325D01*
X119401427Y-99798823D01*
X119439613Y-99742861D01*
X119472609Y-99698148D01*
X119501367Y-99663392D01*
X119526843Y-99637301D01*
X119549992Y-99618583D01*
X119571769Y-99605946D01*
X119593129Y-99598100D01*
X119593902Y-99597891D01*
X119617156Y-99593324D01*
X119651864Y-99589186D01*
X119699110Y-99585431D01*
X119759979Y-99582016D01*
X119835555Y-99578897D01*
X119926922Y-99576030D01*
X120035166Y-99573371D01*
X120161370Y-99570878D01*
X120306620Y-99568507D01*
X120334141Y-99568100D01*
X120502890Y-99565906D01*
X120679653Y-99564105D01*
X120862762Y-99562688D01*
X121050550Y-99561646D01*
X121241351Y-99560973D01*
X121433498Y-99560660D01*
X121582635Y-99560691D01*
X122034598Y-101247439D01*
X122021471Y-101256175D01*
X121995840Y-101277915D01*
X121959320Y-101311045D01*
X121913525Y-101353957D01*
X121860070Y-101405038D01*
X121800568Y-101462675D01*
X121736634Y-101525260D01*
X121669883Y-101591179D01*
X121601929Y-101658821D01*
X121534386Y-101726575D01*
X121468869Y-101792830D01*
X121406991Y-101855975D01*
X121350368Y-101914397D01*
X121300613Y-101966486D01*
X121259342Y-102010630D01*
X121228169Y-102045218D01*
X121208706Y-102068638D01*
X121202883Y-102077605D01*
X121202261Y-102086312D01*
X121204447Y-102103856D01*
X121209750Y-102131491D01*
X121218478Y-102170470D01*
X121230936Y-102222047D01*
X121247433Y-102287474D01*
X121268275Y-102368008D01*
X121293770Y-102464901D01*
X121324225Y-102579407D01*
X121343822Y-102652666D01*
X121377409Y-102777634D01*
X121406281Y-102884165D01*
X121430798Y-102973500D01*
X121451320Y-103046879D01*
X121468209Y-103105539D01*
X121481826Y-103150724D01*
X121492532Y-103183670D01*
X121500686Y-103205619D01*
X121506651Y-103217808D01*
X121509221Y-103220875D01*
X121525349Y-103228331D01*
X121558752Y-103240025D01*
X121607229Y-103255364D01*
X121668577Y-103273764D01*
X121740595Y-103294637D01*
X121821082Y-103317394D01*
X121907835Y-103341447D01*
X121998653Y-103366208D01*
X122091334Y-103391090D01*
X122183675Y-103415505D01*
X122273477Y-103438863D01*
X122358536Y-103460580D01*
X122436651Y-103480065D01*
X122505620Y-103496731D01*
X122563243Y-103509991D01*
X122607315Y-103519256D01*
X122635636Y-103523938D01*
X122645029Y-103524144D01*
X122657358Y-103515676D01*
X122682335Y-103494237D01*
X122718389Y-103461373D01*
X122763948Y-103418628D01*
X122817439Y-103367545D01*
X122877293Y-103309671D01*
X122941935Y-103246550D01*
X123009796Y-103179725D01*
X123079303Y-103110742D01*
X123148883Y-103041144D01*
X123216966Y-102972477D01*
X123281978Y-102906286D01*
X123342349Y-102844113D01*
X123396506Y-102787505D01*
X123419304Y-102763328D01*
X123484749Y-102693533D01*
X123334204Y-102121560D01*
X123183659Y-101549586D01*
X123105983Y-101524987D01*
X123049898Y-101507886D01*
X122976264Y-101486494D01*
X122887258Y-101461412D01*
X122785053Y-101433241D01*
X122671824Y-101402582D01*
X122549746Y-101370036D01*
X122461213Y-101346722D01*
X122358973Y-101320011D01*
X122274583Y-101298178D01*
X122206275Y-101280809D01*
X122152282Y-101267494D01*
X122110832Y-101257822D01*
X122080157Y-101251379D01*
X122058488Y-101247753D01*
X122044058Y-101246535D01*
X122035096Y-101247312D01*
X122034598Y-101247439D01*
X121582635Y-99560691D01*
X121625325Y-99560700D01*
X121815165Y-99561083D01*
X122001349Y-99561804D01*
X122182214Y-99562851D01*
X122356091Y-99564219D01*
X122521314Y-99565898D01*
X122676215Y-99567883D01*
X122819130Y-99570161D01*
X122948389Y-99572730D01*
X123062327Y-99575578D01*
X123159278Y-99578697D01*
X123237454Y-99582074D01*
X123312208Y-99587143D01*
X123370238Y-99594426D01*
X123415106Y-99605016D01*
X123450376Y-99620007D01*
X123479611Y-99640493D01*
X123502774Y-99663485D01*
X123525922Y-99692755D01*
X123558805Y-99739724D01*
X123601362Y-99804286D01*
X123653526Y-99886338D01*
X123715236Y-99985777D01*
X123786429Y-100102498D01*
X123867040Y-100236398D01*
X123957007Y-100387374D01*
X124056266Y-100555320D01*
X124164753Y-100740135D01*
X124244001Y-100875799D01*
X124359758Y-101074751D01*
X124471677Y-101267966D01*
X124579333Y-101454678D01*
X124682300Y-101634125D01*
X124780151Y-101805540D01*
X124872461Y-101968160D01*
X124958802Y-102121218D01*
X125038752Y-102263951D01*
X125111882Y-102395596D01*
X125177765Y-102515385D01*
X125235979Y-102622555D01*
X125286094Y-102716341D01*
X125327686Y-102795979D01*
X125360328Y-102860704D01*
X125383596Y-102909751D01*
X125397062Y-102942356D01*
X125399362Y-102949675D01*
X125402664Y-102964954D01*
D12*
X152750000Y-137750000D02*
G75*
G03X152750000Y-137750000I-5500000J0D01*
G01*
X152230000Y-124300000D02*
X142230000Y-124300000D01*
X152230000Y-124300000D02*
X152230000Y-126300000D01*
X142230000Y-124300000D02*
X142230000Y-126300000D01*
X135230000Y-141300000D02*
G75*
G02X142230000Y-125300000I11500000J4500000D01*
G01*
X159170000Y-141300000D02*
G75*
G03X152170000Y-125300000I-11500000J4500000D01*
G01*
X159270000Y-134240000D02*
G75*
G02X152270000Y-150240000I-11500000J-4500000D01*
G01*
X135250000Y-134250000D02*
G75*
G03X142250000Y-150250000I11500000J-4500000D01*
G01*
X142750000Y-151250000D02*
G75*
G03X151750000Y-151250000I4500000J4500000D01*
G01*
X142250000Y-151250000D02*
X142250000Y-149250000D01*
X152250000Y-151250000D02*
X152250000Y-149250000D01*
X152250000Y-151250000D02*
X142250000Y-151250000D01*
X159750000Y-137750000D02*
G75*
G03X159750000Y-137750000I-12500000J0D01*
G01*
X157250000Y-137750000D02*
G75*
G03X157250000Y-137750000I-10000000J0D01*
G01*
X127000000Y-137750000D02*
G75*
G03X127000000Y-137750000I-5500000J0D01*
G01*
X126480000Y-124300000D02*
X116480000Y-124300000D01*
X126480000Y-124300000D02*
X126480000Y-126300000D01*
X116480000Y-124300000D02*
X116480000Y-126300000D01*
X109480000Y-141300000D02*
G75*
G02X116480000Y-125300000I11500000J4500000D01*
G01*
X133420000Y-141300000D02*
G75*
G03X126420000Y-125300000I-11500000J4500000D01*
G01*
X133520000Y-134240000D02*
G75*
G02X126520000Y-150240000I-11500000J-4500000D01*
G01*
X109500000Y-134250000D02*
G75*
G03X116500000Y-150250000I11500000J-4500000D01*
G01*
X117000000Y-151250000D02*
G75*
G03X126000000Y-151250000I4500000J4500000D01*
G01*
X116500000Y-151250000D02*
X116500000Y-149250000D01*
X126500000Y-151250000D02*
X126500000Y-149250000D01*
X126500000Y-151250000D02*
X116500000Y-151250000D01*
X134000000Y-137750000D02*
G75*
G03X134000000Y-137750000I-12500000J0D01*
G01*
X131500000Y-137750000D02*
G75*
G03X131500000Y-137750000I-10000000J0D01*
G01*
D13*
X110890000Y-156170000D02*
X110890000Y-158830000D01*
X128730000Y-156170000D02*
X110890000Y-156170000D01*
X128730000Y-158830000D02*
X110890000Y-158830000D01*
X128730000Y-156170000D02*
X128730000Y-158830000D01*
X130000000Y-156170000D02*
X131330000Y-156170000D01*
X131330000Y-156170000D02*
X131330000Y-157500000D01*
X136640000Y-156170000D02*
X136640000Y-158830000D01*
X154480000Y-156170000D02*
X136640000Y-156170000D01*
X154480000Y-158830000D02*
X136640000Y-158830000D01*
X154480000Y-156170000D02*
X154480000Y-158830000D01*
X155750000Y-156170000D02*
X157080000Y-156170000D01*
X157080000Y-156170000D02*
X157080000Y-157500000D01*
X136640000Y-120920000D02*
X136640000Y-123580000D01*
X154480000Y-120920000D02*
X136640000Y-120920000D01*
X154480000Y-123580000D02*
X136640000Y-123580000D01*
X154480000Y-120920000D02*
X154480000Y-123580000D01*
X155750000Y-120920000D02*
X157080000Y-120920000D01*
X157080000Y-120920000D02*
X157080000Y-122250000D01*
D12*
X152750000Y-103000000D02*
G75*
G03X152750000Y-103000000I-5500000J0D01*
G01*
X152230000Y-89550000D02*
X142230000Y-89550000D01*
X152230000Y-89550000D02*
X152230000Y-91550000D01*
X142230000Y-89550000D02*
X142230000Y-91550000D01*
X142730000Y-89550000D02*
G75*
G02X151730000Y-89550000I4500000J-4500000D01*
G01*
X135230000Y-106550000D02*
G75*
G02X142230000Y-90550000I11500000J4500000D01*
G01*
X159170000Y-106550000D02*
G75*
G03X152170000Y-90550000I-11500000J4500000D01*
G01*
X159270000Y-99490000D02*
G75*
G02X152270000Y-115490000I-11500000J-4500000D01*
G01*
X135250000Y-99500000D02*
G75*
G03X142250000Y-115500000I11500000J-4500000D01*
G01*
X142750000Y-116500000D02*
G75*
G03X151750000Y-116500000I4500000J4500000D01*
G01*
X142250000Y-116500000D02*
X142250000Y-114500000D01*
X152250000Y-116500000D02*
X152250000Y-114500000D01*
X152250000Y-116500000D02*
X142250000Y-116500000D01*
X159750000Y-103000000D02*
G75*
G03X159750000Y-103000000I-12500000J0D01*
G01*
X157250000Y-103000000D02*
G75*
G03X157250000Y-103000000I-10000000J0D01*
G01*
X127000000Y-103000000D02*
G75*
G03X127000000Y-103000000I-5500000J0D01*
G01*
X126480000Y-89550000D02*
X116480000Y-89550000D01*
X126480000Y-89550000D02*
X126480000Y-91550000D01*
X116480000Y-89550000D02*
X116480000Y-91550000D01*
X116980000Y-89550000D02*
G75*
G02X125980000Y-89550000I4500000J-4500000D01*
G01*
X109480000Y-106550000D02*
G75*
G02X116480000Y-90550000I11500000J4500000D01*
G01*
X133420000Y-106550000D02*
G75*
G03X126420000Y-90550000I-11500000J4500000D01*
G01*
X133520000Y-99490000D02*
G75*
G02X126520000Y-115490000I-11500000J-4500000D01*
G01*
X109500000Y-99500000D02*
G75*
G03X116500000Y-115500000I11500000J-4500000D01*
G01*
X117000000Y-116500000D02*
G75*
G03X126000000Y-116500000I4500000J4500000D01*
G01*
X116500000Y-116500000D02*
X116500000Y-114500000D01*
X126500000Y-116500000D02*
X126500000Y-114500000D01*
X126500000Y-116500000D02*
X116500000Y-116500000D01*
X134000000Y-103000000D02*
G75*
G03X134000000Y-103000000I-12500000J0D01*
G01*
X131500000Y-103000000D02*
G75*
G03X131500000Y-103000000I-10000000J0D01*
G01*
D13*
X110890000Y-120920000D02*
X110890000Y-123580000D01*
X128730000Y-120920000D02*
X110890000Y-120920000D01*
X128730000Y-123580000D02*
X110890000Y-123580000D01*
X128730000Y-120920000D02*
X128730000Y-123580000D01*
X130000000Y-120920000D02*
X131330000Y-120920000D01*
X131330000Y-120920000D02*
X131330000Y-122250000D01*
D12*
X153964286Y-142928571D02*
X153107143Y-142928571D01*
X153535715Y-142928571D02*
X153535715Y-141428571D01*
X153392858Y-141642857D01*
X153250000Y-141785714D01*
X153107143Y-141857143D01*
X154535714Y-141571429D02*
X154607143Y-141500000D01*
X154750000Y-141428571D01*
X155107143Y-141428571D01*
X155250000Y-141500000D01*
X155321429Y-141571429D01*
X155392857Y-141714286D01*
X155392857Y-141857143D01*
X155321429Y-142071429D01*
X154464286Y-142928571D01*
X155392857Y-142928571D01*
X151178572Y-145928571D02*
X150321429Y-145928571D01*
X150750001Y-145928571D02*
X150750001Y-144428571D01*
X150607144Y-144642857D01*
X150464286Y-144785714D01*
X150321429Y-144857143D01*
X139817143Y-136398571D02*
X139817143Y-134898571D01*
X140174286Y-134898571D01*
X140388571Y-134970000D01*
X140531429Y-135112857D01*
X140602857Y-135255714D01*
X140674286Y-135541429D01*
X140674286Y-135755714D01*
X140602857Y-136041429D01*
X140531429Y-136184286D01*
X140388571Y-136327143D01*
X140174286Y-136398571D01*
X139817143Y-136398571D01*
X153752857Y-139770000D02*
X154467143Y-139770000D01*
X153610000Y-140198571D02*
X154110000Y-138698571D01*
X154610000Y-140198571D01*
X128214286Y-142928571D02*
X127357143Y-142928571D01*
X127785715Y-142928571D02*
X127785715Y-141428571D01*
X127642858Y-141642857D01*
X127500000Y-141785714D01*
X127357143Y-141857143D01*
X128785714Y-141571429D02*
X128857143Y-141500000D01*
X129000000Y-141428571D01*
X129357143Y-141428571D01*
X129500000Y-141500000D01*
X129571429Y-141571429D01*
X129642857Y-141714286D01*
X129642857Y-141857143D01*
X129571429Y-142071429D01*
X128714286Y-142928571D01*
X129642857Y-142928571D01*
X125428572Y-145928571D02*
X124571429Y-145928571D01*
X125000001Y-145928571D02*
X125000001Y-144428571D01*
X124857144Y-144642857D01*
X124714286Y-144785714D01*
X124571429Y-144857143D01*
X114067143Y-136398571D02*
X114067143Y-134898571D01*
X114424286Y-134898571D01*
X114638571Y-134970000D01*
X114781429Y-135112857D01*
X114852857Y-135255714D01*
X114924286Y-135541429D01*
X114924286Y-135755714D01*
X114852857Y-136041429D01*
X114781429Y-136184286D01*
X114638571Y-136327143D01*
X114424286Y-136398571D01*
X114067143Y-136398571D01*
X128002857Y-139770000D02*
X128717143Y-139770000D01*
X127860000Y-140198571D02*
X128360000Y-138698571D01*
X128860000Y-140198571D01*
X132782381Y-158238095D02*
X131782381Y-158238095D01*
X131782381Y-157857142D01*
X131830000Y-157761904D01*
X131877619Y-157714285D01*
X131972857Y-157666666D01*
X132115714Y-157666666D01*
X132210952Y-157714285D01*
X132258571Y-157761904D01*
X132306190Y-157857142D01*
X132306190Y-158238095D01*
X132115714Y-156809523D02*
X132782381Y-156809523D01*
X131734762Y-157047619D02*
X132449048Y-157285714D01*
X132449048Y-156666666D01*
X158532381Y-158238095D02*
X157532381Y-158238095D01*
X157532381Y-157857142D01*
X157580000Y-157761904D01*
X157627619Y-157714285D01*
X157722857Y-157666666D01*
X157865714Y-157666666D01*
X157960952Y-157714285D01*
X158008571Y-157761904D01*
X158056190Y-157857142D01*
X158056190Y-158238095D01*
X157865714Y-156809523D02*
X158532381Y-156809523D01*
X157484762Y-157047619D02*
X158199048Y-157285714D01*
X158199048Y-156666666D01*
X158532381Y-122988095D02*
X157532381Y-122988095D01*
X157532381Y-122607142D01*
X157580000Y-122511904D01*
X157627619Y-122464285D01*
X157722857Y-122416666D01*
X157865714Y-122416666D01*
X157960952Y-122464285D01*
X158008571Y-122511904D01*
X158056190Y-122607142D01*
X158056190Y-122988095D01*
X157865714Y-121559523D02*
X158532381Y-121559523D01*
X157484762Y-121797619D02*
X158199048Y-122035714D01*
X158199048Y-121416666D01*
X153964286Y-108178571D02*
X153107143Y-108178571D01*
X153535715Y-108178571D02*
X153535715Y-106678571D01*
X153392858Y-106892857D01*
X153250000Y-107035714D01*
X153107143Y-107107143D01*
X154535714Y-106821429D02*
X154607143Y-106750000D01*
X154750000Y-106678571D01*
X155107143Y-106678571D01*
X155250000Y-106750000D01*
X155321429Y-106821429D01*
X155392857Y-106964286D01*
X155392857Y-107107143D01*
X155321429Y-107321429D01*
X154464286Y-108178571D01*
X155392857Y-108178571D01*
X151178572Y-111178571D02*
X150321429Y-111178571D01*
X150750001Y-111178571D02*
X150750001Y-109678571D01*
X150607144Y-109892857D01*
X150464286Y-110035714D01*
X150321429Y-110107143D01*
X139817143Y-101648571D02*
X139817143Y-100148571D01*
X140174286Y-100148571D01*
X140388571Y-100220000D01*
X140531429Y-100362857D01*
X140602857Y-100505714D01*
X140674286Y-100791429D01*
X140674286Y-101005714D01*
X140602857Y-101291429D01*
X140531429Y-101434286D01*
X140388571Y-101577143D01*
X140174286Y-101648571D01*
X139817143Y-101648571D01*
X153752857Y-105020000D02*
X154467143Y-105020000D01*
X153610000Y-105448571D02*
X154110000Y-103948571D01*
X154610000Y-105448571D01*
X128214286Y-108178571D02*
X127357143Y-108178571D01*
X127785715Y-108178571D02*
X127785715Y-106678571D01*
X127642858Y-106892857D01*
X127500000Y-107035714D01*
X127357143Y-107107143D01*
X128785714Y-106821429D02*
X128857143Y-106750000D01*
X129000000Y-106678571D01*
X129357143Y-106678571D01*
X129500000Y-106750000D01*
X129571429Y-106821429D01*
X129642857Y-106964286D01*
X129642857Y-107107143D01*
X129571429Y-107321429D01*
X128714286Y-108178571D01*
X129642857Y-108178571D01*
X125428572Y-111178571D02*
X124571429Y-111178571D01*
X125000001Y-111178571D02*
X125000001Y-109678571D01*
X124857144Y-109892857D01*
X124714286Y-110035714D01*
X124571429Y-110107143D01*
X114067143Y-101648571D02*
X114067143Y-100148571D01*
X114424286Y-100148571D01*
X114638571Y-100220000D01*
X114781429Y-100362857D01*
X114852857Y-100505714D01*
X114924286Y-100791429D01*
X114924286Y-101005714D01*
X114852857Y-101291429D01*
X114781429Y-101434286D01*
X114638571Y-101577143D01*
X114424286Y-101648571D01*
X114067143Y-101648571D01*
X128002857Y-105020000D02*
X128717143Y-105020000D01*
X127860000Y-105448571D02*
X128360000Y-103948571D01*
X128860000Y-105448571D01*
X132782381Y-122988095D02*
X131782381Y-122988095D01*
X131782381Y-122607142D01*
X131830000Y-122511904D01*
X131877619Y-122464285D01*
X131972857Y-122416666D01*
X132115714Y-122416666D01*
X132210952Y-122464285D01*
X132258571Y-122511904D01*
X132306190Y-122607142D01*
X132306190Y-122988095D01*
X132115714Y-121559523D02*
X132782381Y-121559523D01*
X131734762Y-121797619D02*
X132449048Y-122035714D01*
X132449048Y-121416666D01*
%LPC*%
D10*
G36*
X151091307Y-146091201D02*
X151583063Y-147926460D01*
X148588693Y-148728799D01*
X148096937Y-146893540D01*
X151091307Y-146091201D01*
X151091307Y-146091201D01*
G37*
G36*
X154744264Y-143052233D02*
X156087767Y-144395736D01*
X153895736Y-146587767D01*
X152552233Y-145244264D01*
X154744264Y-143052233D01*
X154744264Y-143052233D01*
G37*
G36*
X156393540Y-138596937D02*
X158228799Y-139088693D01*
X157426460Y-142083063D01*
X155591201Y-141591307D01*
X156393540Y-138596937D01*
X156393540Y-138596937D01*
G37*
G36*
X158228799Y-136411307D02*
X156393540Y-136903063D01*
X155591201Y-133908693D01*
X157426460Y-133416937D01*
X158228799Y-136411307D01*
X158228799Y-136411307D01*
G37*
G36*
X156087767Y-131104264D02*
X154744264Y-132447767D01*
X152552233Y-130255736D01*
X153895736Y-128912233D01*
X156087767Y-131104264D01*
X156087767Y-131104264D01*
G37*
G36*
X151583063Y-127573540D02*
X151091307Y-129408799D01*
X148096937Y-128606460D01*
X148588693Y-126771201D01*
X151583063Y-127573540D01*
X151583063Y-127573540D01*
G37*
G36*
X142442276Y-133182661D02*
X144087724Y-134132661D01*
X142537724Y-136817339D01*
X140892276Y-135867339D01*
X142442276Y-133182661D01*
X142442276Y-133182661D01*
G37*
G36*
X151962276Y-138682661D02*
X153607724Y-139632661D01*
X152057724Y-142317339D01*
X150412276Y-141367339D01*
X151962276Y-138682661D01*
X151962276Y-138682661D01*
G37*
G36*
X146403063Y-146893540D02*
X145911307Y-148728799D01*
X142916937Y-147926460D01*
X143408693Y-146091201D01*
X146403063Y-146893540D01*
X146403063Y-146893540D01*
G37*
G36*
X141947767Y-145244264D02*
X140604264Y-146587767D01*
X138412233Y-144395736D01*
X139755736Y-143052233D01*
X141947767Y-145244264D01*
X141947767Y-145244264D01*
G37*
G36*
X138908799Y-141591307D02*
X137073540Y-142083063D01*
X136271201Y-139088693D01*
X138106460Y-138596937D01*
X138908799Y-141591307D01*
X138908799Y-141591307D01*
G37*
G36*
X137073540Y-133416937D02*
X138908799Y-133908693D01*
X138106460Y-136903063D01*
X136271201Y-136411307D01*
X137073540Y-133416937D01*
X137073540Y-133416937D01*
G37*
G36*
X140604264Y-128912233D02*
X141947767Y-130255736D01*
X139755736Y-132447767D01*
X138412233Y-131104264D01*
X140604264Y-128912233D01*
X140604264Y-128912233D01*
G37*
G36*
X145911307Y-126771201D02*
X146403063Y-128606460D01*
X143408693Y-129408799D01*
X142916937Y-127573540D01*
X145911307Y-126771201D01*
X145911307Y-126771201D01*
G37*
G36*
X125341307Y-146091201D02*
X125833063Y-147926460D01*
X122838693Y-148728799D01*
X122346937Y-146893540D01*
X125341307Y-146091201D01*
X125341307Y-146091201D01*
G37*
G36*
X128994264Y-143052233D02*
X130337767Y-144395736D01*
X128145736Y-146587767D01*
X126802233Y-145244264D01*
X128994264Y-143052233D01*
X128994264Y-143052233D01*
G37*
G36*
X130643540Y-138596937D02*
X132478799Y-139088693D01*
X131676460Y-142083063D01*
X129841201Y-141591307D01*
X130643540Y-138596937D01*
X130643540Y-138596937D01*
G37*
G36*
X132478799Y-136411307D02*
X130643540Y-136903063D01*
X129841201Y-133908693D01*
X131676460Y-133416937D01*
X132478799Y-136411307D01*
X132478799Y-136411307D01*
G37*
G36*
X130337767Y-131104264D02*
X128994264Y-132447767D01*
X126802233Y-130255736D01*
X128145736Y-128912233D01*
X130337767Y-131104264D01*
X130337767Y-131104264D01*
G37*
G36*
X125833063Y-127573540D02*
X125341307Y-129408799D01*
X122346937Y-128606460D01*
X122838693Y-126771201D01*
X125833063Y-127573540D01*
X125833063Y-127573540D01*
G37*
G36*
X116692276Y-133182661D02*
X118337724Y-134132661D01*
X116787724Y-136817339D01*
X115142276Y-135867339D01*
X116692276Y-133182661D01*
X116692276Y-133182661D01*
G37*
G36*
X126212276Y-138682661D02*
X127857724Y-139632661D01*
X126307724Y-142317339D01*
X124662276Y-141367339D01*
X126212276Y-138682661D01*
X126212276Y-138682661D01*
G37*
G36*
X120653063Y-146893540D02*
X120161307Y-148728799D01*
X117166937Y-147926460D01*
X117658693Y-146091201D01*
X120653063Y-146893540D01*
X120653063Y-146893540D01*
G37*
G36*
X116197767Y-145244264D02*
X114854264Y-146587767D01*
X112662233Y-144395736D01*
X114005736Y-143052233D01*
X116197767Y-145244264D01*
X116197767Y-145244264D01*
G37*
G36*
X113158799Y-141591307D02*
X111323540Y-142083063D01*
X110521201Y-139088693D01*
X112356460Y-138596937D01*
X113158799Y-141591307D01*
X113158799Y-141591307D01*
G37*
G36*
X111323540Y-133416937D02*
X113158799Y-133908693D01*
X112356460Y-136903063D01*
X110521201Y-136411307D01*
X111323540Y-133416937D01*
X111323540Y-133416937D01*
G37*
G36*
X114854264Y-128912233D02*
X116197767Y-130255736D01*
X114005736Y-132447767D01*
X112662233Y-131104264D01*
X114854264Y-128912233D01*
X114854264Y-128912233D01*
G37*
G36*
X120161307Y-126771201D02*
X120653063Y-128606460D01*
X117658693Y-129408799D01*
X117166937Y-127573540D01*
X120161307Y-126771201D01*
X120161307Y-126771201D01*
G37*
D14*
X122000000Y-124600000D03*
X120650000Y-124600000D03*
X146650000Y-124600000D03*
X148000000Y-124600000D03*
X135150000Y-141500000D03*
X135150000Y-140150000D03*
X135150000Y-106250000D03*
D15*
X130000000Y-157500000D03*
D16*
X127460000Y-157500000D03*
X124920000Y-157500000D03*
X122380000Y-157500000D03*
X119840000Y-157500000D03*
X117300000Y-157500000D03*
X114760000Y-157500000D03*
X112220000Y-157500000D03*
D15*
X155750000Y-157500000D03*
D16*
X153210000Y-157500000D03*
X150670000Y-157500000D03*
X148130000Y-157500000D03*
X145590000Y-157500000D03*
X143050000Y-157500000D03*
X140510000Y-157500000D03*
X137970000Y-157500000D03*
D15*
X155750000Y-122250000D03*
D16*
X153210000Y-122250000D03*
X150670000Y-122250000D03*
X148130000Y-122250000D03*
X145590000Y-122250000D03*
X143050000Y-122250000D03*
X140510000Y-122250000D03*
X137970000Y-122250000D03*
D10*
G36*
X151091307Y-111341201D02*
X151583063Y-113176460D01*
X148588693Y-113978799D01*
X148096937Y-112143540D01*
X151091307Y-111341201D01*
X151091307Y-111341201D01*
G37*
G36*
X154744264Y-108302233D02*
X156087767Y-109645736D01*
X153895736Y-111837767D01*
X152552233Y-110494264D01*
X154744264Y-108302233D01*
X154744264Y-108302233D01*
G37*
G36*
X156393540Y-103846937D02*
X158228799Y-104338693D01*
X157426460Y-107333063D01*
X155591201Y-106841307D01*
X156393540Y-103846937D01*
X156393540Y-103846937D01*
G37*
G36*
X158228799Y-101661307D02*
X156393540Y-102153063D01*
X155591201Y-99158693D01*
X157426460Y-98666937D01*
X158228799Y-101661307D01*
X158228799Y-101661307D01*
G37*
G36*
X156087767Y-96354264D02*
X154744264Y-97697767D01*
X152552233Y-95505736D01*
X153895736Y-94162233D01*
X156087767Y-96354264D01*
X156087767Y-96354264D01*
G37*
G36*
X151583063Y-92823540D02*
X151091307Y-94658799D01*
X148096937Y-93856460D01*
X148588693Y-92021201D01*
X151583063Y-92823540D01*
X151583063Y-92823540D01*
G37*
G36*
X142442276Y-98432661D02*
X144087724Y-99382661D01*
X142537724Y-102067339D01*
X140892276Y-101117339D01*
X142442276Y-98432661D01*
X142442276Y-98432661D01*
G37*
G36*
X151962276Y-103932661D02*
X153607724Y-104882661D01*
X152057724Y-107567339D01*
X150412276Y-106617339D01*
X151962276Y-103932661D01*
X151962276Y-103932661D01*
G37*
G36*
X146403063Y-112143540D02*
X145911307Y-113978799D01*
X142916937Y-113176460D01*
X143408693Y-111341201D01*
X146403063Y-112143540D01*
X146403063Y-112143540D01*
G37*
G36*
X141947767Y-110494264D02*
X140604264Y-111837767D01*
X138412233Y-109645736D01*
X139755736Y-108302233D01*
X141947767Y-110494264D01*
X141947767Y-110494264D01*
G37*
G36*
X138908799Y-106841307D02*
X137073540Y-107333063D01*
X136271201Y-104338693D01*
X138106460Y-103846937D01*
X138908799Y-106841307D01*
X138908799Y-106841307D01*
G37*
G36*
X137073540Y-98666937D02*
X138908799Y-99158693D01*
X138106460Y-102153063D01*
X136271201Y-101661307D01*
X137073540Y-98666937D01*
X137073540Y-98666937D01*
G37*
G36*
X140604264Y-94162233D02*
X141947767Y-95505736D01*
X139755736Y-97697767D01*
X138412233Y-96354264D01*
X140604264Y-94162233D01*
X140604264Y-94162233D01*
G37*
G36*
X145911307Y-92021201D02*
X146403063Y-93856460D01*
X143408693Y-94658799D01*
X142916937Y-92823540D01*
X145911307Y-92021201D01*
X145911307Y-92021201D01*
G37*
G36*
X125341307Y-111341201D02*
X125833063Y-113176460D01*
X122838693Y-113978799D01*
X122346937Y-112143540D01*
X125341307Y-111341201D01*
X125341307Y-111341201D01*
G37*
G36*
X128994264Y-108302233D02*
X130337767Y-109645736D01*
X128145736Y-111837767D01*
X126802233Y-110494264D01*
X128994264Y-108302233D01*
X128994264Y-108302233D01*
G37*
G36*
X130643540Y-103846937D02*
X132478799Y-104338693D01*
X131676460Y-107333063D01*
X129841201Y-106841307D01*
X130643540Y-103846937D01*
X130643540Y-103846937D01*
G37*
G36*
X132478799Y-101661307D02*
X130643540Y-102153063D01*
X129841201Y-99158693D01*
X131676460Y-98666937D01*
X132478799Y-101661307D01*
X132478799Y-101661307D01*
G37*
G36*
X130337767Y-96354264D02*
X128994264Y-97697767D01*
X126802233Y-95505736D01*
X128145736Y-94162233D01*
X130337767Y-96354264D01*
X130337767Y-96354264D01*
G37*
G36*
X125833063Y-92823540D02*
X125341307Y-94658799D01*
X122346937Y-93856460D01*
X122838693Y-92021201D01*
X125833063Y-92823540D01*
X125833063Y-92823540D01*
G37*
G36*
X116692276Y-98432661D02*
X118337724Y-99382661D01*
X116787724Y-102067339D01*
X115142276Y-101117339D01*
X116692276Y-98432661D01*
X116692276Y-98432661D01*
G37*
G36*
X126212276Y-103932661D02*
X127857724Y-104882661D01*
X126307724Y-107567339D01*
X124662276Y-106617339D01*
X126212276Y-103932661D01*
X126212276Y-103932661D01*
G37*
G36*
X120653063Y-112143540D02*
X120161307Y-113978799D01*
X117166937Y-113176460D01*
X117658693Y-111341201D01*
X120653063Y-112143540D01*
X120653063Y-112143540D01*
G37*
G36*
X116197767Y-110494264D02*
X114854264Y-111837767D01*
X112662233Y-109645736D01*
X114005736Y-108302233D01*
X116197767Y-110494264D01*
X116197767Y-110494264D01*
G37*
G36*
X113158799Y-106841307D02*
X111323540Y-107333063D01*
X110521201Y-104338693D01*
X112356460Y-103846937D01*
X113158799Y-106841307D01*
X113158799Y-106841307D01*
G37*
G36*
X111323540Y-98666937D02*
X113158799Y-99158693D01*
X112356460Y-102153063D01*
X110521201Y-101661307D01*
X111323540Y-98666937D01*
X111323540Y-98666937D01*
G37*
G36*
X114854264Y-94162233D02*
X116197767Y-95505736D01*
X114005736Y-97697767D01*
X112662233Y-96354264D01*
X114854264Y-94162233D01*
X114854264Y-94162233D01*
G37*
G36*
X120161307Y-92021201D02*
X120653063Y-93856460D01*
X117658693Y-94658799D01*
X117166937Y-92823540D01*
X120161307Y-92021201D01*
X120161307Y-92021201D01*
G37*
D15*
X130000000Y-122250000D03*
D16*
X127460000Y-122250000D03*
X124920000Y-122250000D03*
X122380000Y-122250000D03*
X119840000Y-122250000D03*
X117300000Y-122250000D03*
X114760000Y-122250000D03*
X112220000Y-122250000D03*
D14*
X135150000Y-104900000D03*
M02*
