  0
SECTION
  2
HEADER
  9
$ANGBASE
  50
0.0
  9
$ANGDIR
  70
  1
  9
$MEASUREMENT
  70
0
  0
ENDSEC
  0
SECTION
  2
TABLES
  0
TABLE
  2
LTYPE
  70
1
  0
LTYPE
  2
CONTINUOUS
  70
0
  3
Solid line
  72
65
  73
0
  40
0.0
  0
ENDTAB
  0
TABLE
  2
STYLE
  70
4
  0
STYLE
  2
KICAD
  70
0
  40
0
  41
1
  42
1
  50
0
  71
0
  3
isocp.shx
  0
STYLE
  2
KICADB
  70
0
  40
0
  41
1
  42
1
  50
0
  71
0
  3
isocp.shx
  0
STYLE
  2
KICADI
  70
0
  40
0
  41
1
  42
1
  50
15
  71
0
  3
isocp.shx
  0
STYLE
  2
KICADBI
  70
0
  40
0
  41
1
  42
1
  50
15
  71
0
  3
isocp.shx
  0
ENDTAB
  0
TABLE
  2
LAYER
  70
30
  0
LAYER
  2
BLACK
  70
0
  62
7
  6
CONTINUOUS
  0
LAYER
  2
GRAY1
  70
0
  62
251
  6
CONTINUOUS
  0
LAYER
  2
GRAY2
  70
0
  62
8
  6
CONTINUOUS
  0
LAYER
  2
GRAY3
  70
0
  62
9
  6
CONTINUOUS
  0
LAYER
  2
WHITE
  70
0
  62
7
  6
CONTINUOUS
  0
LAYER
  2
LYELLOW
  70
0
  62
51
  6
CONTINUOUS
  0
LAYER
  2
BLUE1
  70
0
  62
178
  6
CONTINUOUS
  0
LAYER
  2
GREEN1
  70
0
  62
98
  6
CONTINUOUS
  0
LAYER
  2
CYAN1
  70
0
  62
138
  6
CONTINUOUS
  0
LAYER
  2
RED1
  70
0
  62
18
  6
CONTINUOUS
  0
LAYER
  2
MAGENTA1
  70
0
  62
228
  6
CONTINUOUS
  0
LAYER
  2
BROWN1
  70
0
  62
58
  6
CONTINUOUS
  0
LAYER
  2
BLUE2
  70
0
  62
5
  6
CONTINUOUS
  0
LAYER
  2
GREEN2
  70
0
  62
3
  6
CONTINUOUS
  0
LAYER
  2
CYAN2
  70
0
  62
4
  6
CONTINUOUS
  0
LAYER
  2
RED2
  70
0
  62
1
  6
CONTINUOUS
  0
LAYER
  2
MAGENTA2
  70
0
  62
6
  6
CONTINUOUS
  0
LAYER
  2
BROWN2
  70
0
  62
54
  6
CONTINUOUS
  0
LAYER
  2
BLUE3
  70
0
  62
171
  6
CONTINUOUS
  0
LAYER
  2
GREEN3
  70
0
  62
91
  6
CONTINUOUS
  0
LAYER
  2
CYAN3
  70
0
  62
131
  6
CONTINUOUS
  0
LAYER
  2
RED3
  70
0
  62
11
  6
CONTINUOUS
  0
LAYER
  2
MAGENTA3
  70
0
  62
221
  6
CONTINUOUS
  0
LAYER
  2
YELLOW3
  70
0
  62
2
  6
CONTINUOUS
  0
LAYER
  2
BLUE4
  70
0
  62
5
  6
CONTINUOUS
  0
LAYER
  2
GREEN4
  70
0
  62
3
  6
CONTINUOUS
  0
LAYER
  2
CYAN4
  70
0
  62
4
  6
CONTINUOUS
  0
LAYER
  2
RED4
  70
0
  62
1
  6
CONTINUOUS
  0
LAYER
  2
MAGENTA4
  70
0
  62
6
  6
CONTINUOUS
  0
LAYER
  2
YELLOW4
  70
0
  62
2
  6
CONTINUOUS
  0
ENDTAB
  0
ENDSEC
  0
SECTION
  2
ENTITIES
0
LINE
8
Black
10
111.305
20
-141.071
11
110.493
21
-141.071
0
LINE
8
Black
10
110.493
20
-141.071
11
110.493
21
-139.928
0
LINE
8
Black
10
110.493
20
-139.928
11
111.305
21
-139.928
0
LINE
8
Black
10
111.305
20
-139.928
11
111.305
21
-141.071
0
LINE
8
Black
10
113.007
20
-141.071
11
112.194
21
-141.071
0
LINE
8
Black
10
112.194
20
-141.071
11
112.194
21
-139.928
0
LINE
8
Black
10
112.194
20
-139.928
11
113.007
21
-139.928
0
LINE
8
Black
10
113.007
20
-139.928
11
113.007
21
-141.071
0
LINE
8
Black
10
204.321
20
-137.757
11
203.178
21
-137.757
0
LINE
8
Black
10
203.178
20
-137.757
11
203.178
21
-136.945
0
LINE
8
Black
10
203.178
20
-136.945
11
204.321
21
-136.945
0
LINE
8
Black
10
204.321
20
-136.945
11
204.321
21
-137.757
0
LINE
8
Black
10
163.8
20
-136.45
11
162.2
21
-136.45
0
LINE
8
Black
10
162.2
20
-136.45
11
162.2
21
-133.45
0
LINE
8
Black
10
162.2
20
-133.45
11
163.8
21
-133.45
0
LINE
8
Black
10
163.8
20
-133.45
11
163.8
21
-136.45
0
LINE
8
Black
10
204.321
20
-136.055
11
203.178
21
-136.055
0
LINE
8
Black
10
203.178
20
-136.055
11
203.178
21
-135.243
0
LINE
8
Black
10
203.178
20
-135.243
11
204.321
21
-135.243
0
LINE
8
Black
10
204.321
20
-135.243
11
204.321
21
-136.055
0
LINE
8
Black
10
110.822
20
-134.757
11
109.678
21
-134.757
0
LINE
8
Black
10
109.678
20
-134.757
11
109.678
21
-133.945
0
LINE
8
Black
10
109.678
20
-133.945
11
110.822
21
-133.945
0
LINE
8
Black
10
110.822
20
-133.945
11
110.822
21
-134.757
0
LINE
8
Black
10
110.822
20
-133.055
11
109.678
21
-133.055
0
LINE
8
Black
10
109.678
20
-133.055
11
109.678
21
-132.243
0
LINE
8
Black
10
109.678
20
-132.243
11
110.822
21
-132.243
0
LINE
8
Black
10
110.822
20
-132.243
11
110.822
21
-133.055
0
LINE
8
Black
10
202.75
20
-132.7
11
202.25
21
-132.7
0
LINE
8
Black
10
202.25
20
-132.7
11
202.25
21
-132.1
0
LINE
8
Black
10
202.25
20
-132.1
11
202.75
21
-132.1
0
LINE
8
Black
10
202.75
20
-132.1
11
202.75
21
-132.7
0
LINE
8
Black
10
205
20
-132.7
11
204.5
21
-132.7
0
LINE
8
Black
10
204.5
20
-132.7
11
204.5
21
-132.1
0
LINE
8
Black
10
204.5
20
-132.1
11
205
21
-132.1
0
LINE
8
Black
10
205
20
-132.1
11
205
21
-132.7
0
LINE
8
Black
10
163.8
20
-132.05
11
162.2
21
-132.05
0
LINE
8
Black
10
162.2
20
-132.05
11
162.2
21
-129.05
0
LINE
8
Black
10
162.2
20
-129.05
11
163.8
21
-129.05
0
LINE
8
Black
10
163.8
20
-129.05
11
163.8
21
-132.05
0
LINE
8
Black
10
204.5
20
-131.4
11
204
21
-131.4
0
LINE
8
Black
10
204
20
-131.4
11
204
21
-130.8
0
LINE
8
Black
10
204
20
-130.8
11
204.5
21
-130.8
0
LINE
8
Black
10
204.5
20
-130.8
11
204.5
21
-131.4
0
LINE
8
Black
10
205.5
20
-131.4
11
205
21
-131.4
0
LINE
8
Black
10
205
20
-131.4
11
205
21
-130.8
0
LINE
8
Black
10
205
20
-130.8
11
205.5
21
-130.8
0
LINE
8
Black
10
205.5
20
-130.8
11
205.5
21
-131.4
0
LINE
8
Black
10
203.25
20
-131.4
11
202.75
21
-131.4
0
LINE
8
Black
10
202.75
20
-131.4
11
202.75
21
-130.8
0
LINE
8
Black
10
202.75
20
-130.8
11
203.25
21
-130.8
0
LINE
8
Black
10
203.25
20
-130.8
11
203.25
21
-131.4
0
LINE
8
Black
10
202.25
20
-131.4
11
201.75
21
-131.4
0
LINE
8
Black
10
201.75
20
-131.4
11
201.75
21
-130.8
0
LINE
8
Black
10
201.75
20
-130.8
11
202.25
21
-130.8
0
LINE
8
Black
10
202.25
20
-130.8
11
202.25
21
-131.4
0
LINE
8
Black
10
199.15
20
-131.35
11
197.95
21
-131.35
0
LINE
8
Black
10
197.95
20
-131.35
11
197.95
21
-130.15
0
LINE
8
Black
10
197.95
20
-130.15
11
199.15
21
-130.15
0
LINE
8
Black
10
199.15
20
-130.15
11
199.15
21
-131.35
0
LINE
8
Black
10
196.05
20
-130.55
11
194.55
21
-130.55
0
LINE
8
Black
10
194.55
20
-130.55
11
194.55
21
-128.95
0
LINE
8
Black
10
194.55
20
-128.95
11
196.05
21
-128.95
0
LINE
8
Black
10
196.05
20
-128.95
11
196.05
21
-130.55
0
LINE
8
Black
10
200.805
20
-129.571
11
199.993
21
-129.571
0
LINE
8
Black
10
199.993
20
-129.571
11
199.993
21
-128.428
0
LINE
8
Black
10
199.993
20
-128.428
11
200.805
21
-128.428
0
LINE
8
Black
10
200.805
20
-128.428
11
200.805
21
-129.571
0
LINE
8
Black
10
202.507
20
-129.571
11
201.695
21
-129.571
0
LINE
8
Black
10
201.695
20
-129.571
11
201.695
21
-128.428
0
LINE
8
Black
10
201.695
20
-128.428
11
202.507
21
-128.428
0
LINE
8
Black
10
202.507
20
-128.428
11
202.507
21
-129.571
0
LINE
8
Black
10
204.305
20
-129.571
11
203.493
21
-129.571
0
LINE
8
Black
10
203.493
20
-129.571
11
203.493
21
-128.428
0
LINE
8
Black
10
203.493
20
-128.428
11
204.305
21
-128.428
0
LINE
8
Black
10
204.305
20
-128.428
11
204.305
21
-129.571
0
LINE
8
Black
10
206.007
20
-129.571
11
205.194
21
-129.571
0
LINE
8
Black
10
205.194
20
-129.571
11
205.194
21
-128.428
0
LINE
8
Black
10
205.194
20
-128.428
11
206.007
21
-128.428
0
LINE
8
Black
10
206.007
20
-128.428
11
206.007
21
-129.571
0
LINE
8
Black
10
199.15
20
-129.35
11
197.95
21
-129.35
0
LINE
8
Black
10
197.95
20
-129.35
11
197.95
21
-128.15
0
LINE
8
Black
10
197.95
20
-128.15
11
199.15
21
-128.15
0
LINE
8
Black
10
199.15
20
-128.15
11
199.15
21
-129.35
0
LINE
8
Black
10
204.055
20
-126.072
11
203.243
21
-126.072
0
LINE
8
Black
10
203.243
20
-126.072
11
203.243
21
-124.928
0
LINE
8
Black
10
203.243
20
-124.928
11
204.055
21
-124.928
0
LINE
8
Black
10
204.055
20
-124.928
11
204.055
21
-126.072
0
LINE
8
Black
10
205.757
20
-126.072
11
204.944
21
-126.072
0
LINE
8
Black
10
204.944
20
-126.072
11
204.944
21
-124.928
0
LINE
8
Black
10
204.944
20
-124.928
11
205.757
21
-124.928
0
LINE
8
Black
10
205.757
20
-124.928
11
205.757
21
-126.072
0
LINE
8
Black
10
162.571
20
-125.757
11
161.428
21
-125.757
0
LINE
8
Black
10
161.428
20
-125.757
11
161.428
21
-124.944
0
LINE
8
Black
10
161.428
20
-124.944
11
162.571
21
-124.944
0
LINE
8
Black
10
162.571
20
-124.944
11
162.571
21
-125.757
0
LINE
8
Black
10
154.305
20
-125.322
11
153.493
21
-125.322
0
LINE
8
Black
10
153.493
20
-125.322
11
153.493
21
-124.178
0
LINE
8
Black
10
153.493
20
-124.178
11
154.305
21
-124.178
0
LINE
8
Black
10
154.305
20
-124.178
11
154.305
21
-125.322
0
LINE
8
Black
10
156.007
20
-125.322
11
155.195
21
-125.322
0
LINE
8
Black
10
155.195
20
-125.322
11
155.195
21
-124.178
0
LINE
8
Black
10
155.195
20
-124.178
11
156.007
21
-124.178
0
LINE
8
Black
10
156.007
20
-124.178
11
156.007
21
-125.322
0
LINE
8
Black
10
168.821
20
-125.007
11
167.678
21
-125.007
0
LINE
8
Black
10
167.678
20
-125.007
11
167.678
21
-124.194
0
LINE
8
Black
10
167.678
20
-124.194
11
168.821
21
-124.194
0
LINE
8
Black
10
168.821
20
-124.194
11
168.821
21
-125.007
0
LINE
8
Black
10
144.555
20
-124.572
11
143.743
21
-124.572
0
LINE
8
Black
10
143.743
20
-124.572
11
143.743
21
-123.428
0
LINE
8
Black
10
143.743
20
-123.428
11
144.555
21
-123.428
0
LINE
8
Black
10
144.555
20
-123.428
11
144.555
21
-124.572
0
LINE
8
Black
10
146.257
20
-124.572
11
145.445
21
-124.572
0
LINE
8
Black
10
145.445
20
-124.572
11
145.445
21
-123.428
0
LINE
8
Black
10
145.445
20
-123.428
11
146.257
21
-123.428
0
LINE
8
Black
10
146.257
20
-123.428
11
146.257
21
-124.572
0
LINE
8
Black
10
205.555
20
-124.072
11
204.743
21
-124.072
0
LINE
8
Black
10
204.743
20
-124.072
11
204.743
21
-122.928
0
LINE
8
Black
10
204.743
20
-122.928
11
205.555
21
-122.928
0
LINE
8
Black
10
205.555
20
-122.928
11
205.555
21
-124.072
0
LINE
8
Black
10
207.257
20
-124.072
11
206.444
21
-124.072
0
LINE
8
Black
10
206.444
20
-124.072
11
206.444
21
-122.928
0
LINE
8
Black
10
206.444
20
-122.928
11
207.257
21
-122.928
0
LINE
8
Black
10
207.257
20
-122.928
11
207.257
21
-124.072
0
LINE
8
Black
10
210.257
20
-124.072
11
209.444
21
-124.072
0
LINE
8
Black
10
209.444
20
-124.072
11
209.444
21
-122.928
0
LINE
8
Black
10
209.444
20
-122.928
11
210.257
21
-122.928
0
LINE
8
Black
10
210.257
20
-122.928
11
210.257
21
-124.072
0
LINE
8
Black
10
208.555
20
-124.072
11
207.743
21
-124.072
0
LINE
8
Black
10
207.743
20
-124.072
11
207.743
21
-122.928
0
LINE
8
Black
10
207.743
20
-122.928
11
208.555
21
-122.928
0
LINE
8
Black
10
208.555
20
-122.928
11
208.555
21
-124.072
0
LINE
8
Black
10
202.555
20
-124.072
11
201.743
21
-124.072
0
LINE
8
Black
10
201.743
20
-124.072
11
201.743
21
-122.928
0
LINE
8
Black
10
201.743
20
-122.928
11
202.555
21
-122.928
0
LINE
8
Black
10
202.555
20
-122.928
11
202.555
21
-124.072
0
LINE
8
Black
10
204.257
20
-124.072
11
203.445
21
-124.072
0
LINE
8
Black
10
203.445
20
-124.072
11
203.445
21
-122.928
0
LINE
8
Black
10
203.445
20
-122.928
11
204.257
21
-122.928
0
LINE
8
Black
10
204.257
20
-122.928
11
204.257
21
-124.072
0
LINE
8
Black
10
162.571
20
-124.055
11
161.428
21
-124.055
0
LINE
8
Black
10
161.428
20
-124.055
11
161.428
21
-123.243
0
LINE
8
Black
10
161.428
20
-123.243
11
162.571
21
-123.243
0
LINE
8
Black
10
162.571
20
-123.243
11
162.571
21
-124.055
0
LINE
8
Black
10
168.821
20
-123.305
11
167.678
21
-123.305
0
LINE
8
Black
10
167.678
20
-123.305
11
167.678
21
-122.493
0
LINE
8
Black
10
167.678
20
-122.493
11
168.821
21
-122.493
0
LINE
8
Black
10
168.821
20
-122.493
11
168.821
21
-123.305
0
LINE
8
Black
10
165.075
20
-123.15
11
164.425
21
-123.15
0
LINE
8
Black
10
164.425
20
-123.15
11
164.425
21
-122.25
0
LINE
8
Black
10
164.425
20
-122.25
11
165.075
21
-122.25
0
LINE
8
Black
10
165.075
20
-122.25
11
165.075
21
-123.15
0
LINE
8
Black
10
166.025
20
-123.15
11
165.375
21
-123.15
0
LINE
8
Black
10
165.375
20
-123.15
11
165.375
21
-122.25
0
LINE
8
Black
10
165.375
20
-122.25
11
166.025
21
-122.25
0
LINE
8
Black
10
166.025
20
-122.25
11
166.025
21
-123.15
0
LINE
8
Black
10
164.125
20
-123.15
11
163.475
21
-123.15
0
LINE
8
Black
10
163.475
20
-123.15
11
163.475
21
-122.25
0
LINE
8
Black
10
163.475
20
-122.25
11
164.125
21
-122.25
0
LINE
8
Black
10
164.125
20
-122.25
11
164.125
21
-123.15
0
LINE
8
Black
10
154.5
20
-123.025
11
153.6
21
-123.025
0
LINE
8
Black
10
153.6
20
-123.025
11
153.6
21
-122.375
0
LINE
8
Black
10
153.6
20
-122.375
11
154.5
21
-122.375
0
LINE
8
Black
10
154.5
20
-122.375
11
154.5
21
-123.025
0
LINE
8
Black
10
156.9
20
-123.025
11
156
21
-123.025
0
LINE
8
Black
10
156
20
-123.025
11
156
21
-122.375
0
LINE
8
Black
10
156
20
-122.375
11
156.9
21
-122.375
0
LINE
8
Black
10
156.9
20
-122.375
11
156.9
21
-123.025
0
LINE
8
Black
10
149.75
20
-123.025
11
148.85
21
-123.025
0
LINE
8
Black
10
148.85
20
-123.025
11
148.85
21
-122.375
0
LINE
8
Black
10
148.85
20
-122.375
11
149.75
21
-122.375
0
LINE
8
Black
10
149.75
20
-122.375
11
149.75
21
-123.025
0
LINE
8
Black
10
152.15
20
-123.025
11
151.25
21
-123.025
0
LINE
8
Black
10
151.25
20
-123.025
11
151.25
21
-122.375
0
LINE
8
Black
10
151.25
20
-122.375
11
152.15
21
-122.375
0
LINE
8
Black
10
152.15
20
-122.375
11
152.15
21
-123.025
0
LINE
8
Black
10
148.007
20
-122.822
11
147.195
21
-122.822
0
LINE
8
Black
10
147.195
20
-122.822
11
147.195
21
-121.678
0
LINE
8
Black
10
147.195
20
-121.678
11
148.007
21
-121.678
0
LINE
8
Black
10
148.007
20
-121.678
11
148.007
21
-122.822
0
LINE
8
Black
10
146.305
20
-122.822
11
145.493
21
-122.822
0
LINE
8
Black
10
145.493
20
-122.822
11
145.493
21
-121.678
0
LINE
8
Black
10
145.493
20
-121.678
11
146.305
21
-121.678
0
LINE
8
Black
10
146.305
20
-121.678
11
146.305
21
-122.822
0
LINE
8
Black
10
145.007
20
-122.822
11
144.195
21
-122.822
0
LINE
8
Black
10
144.195
20
-122.822
11
144.195
21
-121.678
0
LINE
8
Black
10
144.195
20
-121.678
11
145.007
21
-121.678
0
LINE
8
Black
10
145.007
20
-121.678
11
145.007
21
-122.822
0
LINE
8
Black
10
143.305
20
-122.822
11
142.493
21
-122.822
0
LINE
8
Black
10
142.493
20
-122.822
11
142.493
21
-121.678
0
LINE
8
Black
10
142.493
20
-121.678
11
143.305
21
-121.678
0
LINE
8
Black
10
143.305
20
-121.678
11
143.305
21
-122.822
0
LINE
8
Black
10
159.321
20
-122.757
11
158.178
21
-122.757
0
LINE
8
Black
10
158.178
20
-122.757
11
158.178
21
-121.944
0
LINE
8
Black
10
158.178
20
-121.944
11
159.321
21
-121.944
0
LINE
8
Black
10
159.321
20
-121.944
11
159.321
21
-122.757
0
LINE
8
Black
10
162.571
20
-122.757
11
161.428
21
-122.757
0
LINE
8
Black
10
161.428
20
-122.757
11
161.428
21
-121.944
0
LINE
8
Black
10
161.428
20
-121.944
11
162.571
21
-121.944
0
LINE
8
Black
10
162.571
20
-121.944
11
162.571
21
-122.757
0
LINE
8
Black
10
160.821
20
-122.757
11
159.678
21
-122.757
0
LINE
8
Black
10
159.678
20
-122.757
11
159.678
21
-121.944
0
LINE
8
Black
10
159.678
20
-121.944
11
160.821
21
-121.944
0
LINE
8
Black
10
160.821
20
-121.944
11
160.821
21
-122.757
0
LINE
8
Black
10
212.555
20
-122.322
11
211.743
21
-122.322
0
LINE
8
Black
10
211.743
20
-122.322
11
211.743
21
-121.178
0
LINE
8
Black
10
211.743
20
-121.178
11
212.555
21
-121.178
0
LINE
8
Black
10
212.555
20
-121.178
11
212.555
21
-122.322
0
LINE
8
Black
10
210.257
20
-122.322
11
209.444
21
-122.322
0
LINE
8
Black
10
209.444
20
-122.322
11
209.444
21
-121.178
0
LINE
8
Black
10
209.444
20
-121.178
11
210.257
21
-121.178
0
LINE
8
Black
10
210.257
20
-121.178
11
210.257
21
-122.322
0
LINE
8
Black
10
214.257
20
-122.322
11
213.444
21
-122.322
0
LINE
8
Black
10
213.444
20
-122.322
11
213.444
21
-121.178
0
LINE
8
Black
10
213.444
20
-121.178
11
214.257
21
-121.178
0
LINE
8
Black
10
214.257
20
-121.178
11
214.257
21
-122.322
0
LINE
8
Black
10
205.555
20
-122.322
11
204.743
21
-122.322
0
LINE
8
Black
10
204.743
20
-122.322
11
204.743
21
-121.178
0
LINE
8
Black
10
204.743
20
-121.178
11
205.555
21
-121.178
0
LINE
8
Black
10
205.555
20
-121.178
11
205.555
21
-122.322
0
LINE
8
Black
10
204.257
20
-122.322
11
203.445
21
-122.322
0
LINE
8
Black
10
203.445
20
-122.322
11
203.445
21
-121.178
0
LINE
8
Black
10
203.445
20
-121.178
11
204.257
21
-121.178
0
LINE
8
Black
10
204.257
20
-121.178
11
204.257
21
-122.322
0
LINE
8
Black
10
208.555
20
-122.322
11
207.743
21
-122.322
0
LINE
8
Black
10
207.743
20
-122.322
11
207.743
21
-121.178
0
LINE
8
Black
10
207.743
20
-121.178
11
208.555
21
-121.178
0
LINE
8
Black
10
208.555
20
-121.178
11
208.555
21
-122.322
0
LINE
8
Black
10
207.257
20
-122.322
11
206.444
21
-122.322
0
LINE
8
Black
10
206.444
20
-122.322
11
206.444
21
-121.178
0
LINE
8
Black
10
206.444
20
-121.178
11
207.257
21
-121.178
0
LINE
8
Black
10
207.257
20
-121.178
11
207.257
21
-122.322
0
LINE
8
Black
10
202.555
20
-122.322
11
201.743
21
-122.322
0
LINE
8
Black
10
201.743
20
-122.322
11
201.743
21
-121.178
0
LINE
8
Black
10
201.743
20
-121.178
11
202.555
21
-121.178
0
LINE
8
Black
10
202.555
20
-121.178
11
202.555
21
-122.322
0
LINE
8
Black
10
139.507
20
-122.322
11
138.695
21
-122.322
0
LINE
8
Black
10
138.695
20
-122.322
11
138.695
21
-121.178
0
LINE
8
Black
10
138.695
20
-121.178
11
139.507
21
-121.178
0
LINE
8
Black
10
139.507
20
-121.178
11
139.507
21
-122.322
0
LINE
8
Black
10
137.805
20
-122.322
11
136.993
21
-122.322
0
LINE
8
Black
10
136.993
20
-122.322
11
136.993
21
-121.178
0
LINE
8
Black
10
136.993
20
-121.178
11
137.805
21
-121.178
0
LINE
8
Black
10
137.805
20
-121.178
11
137.805
21
-122.322
0
LINE
8
Black
10
154.5
20
-122.075
11
153.6
21
-122.075
0
LINE
8
Black
10
153.6
20
-122.075
11
153.6
21
-121.425
0
LINE
8
Black
10
153.6
20
-121.425
11
154.5
21
-121.425
0
LINE
8
Black
10
154.5
20
-121.425
11
154.5
21
-122.075
0
LINE
8
Black
10
149.75
20
-122.075
11
148.85
21
-122.075
0
LINE
8
Black
10
148.85
20
-122.075
11
148.85
21
-121.425
0
LINE
8
Black
10
148.85
20
-121.425
11
149.75
21
-121.425
0
LINE
8
Black
10
149.75
20
-121.425
11
149.75
21
-122.075
0
LINE
8
Black
10
127.3
20
-121.95
11
125.7
21
-121.95
0
LINE
8
Black
10
125.7
20
-121.95
11
125.7
21
-120.45
0
LINE
8
Black
10
125.7
20
-120.45
11
127.3
21
-120.45
0
LINE
8
Black
10
127.3
20
-120.45
11
127.3
21
-121.95
0
LINE
8
Black
10
135.05
20
-121.95
11
133.45
21
-121.95
0
LINE
8
Black
10
133.45
20
-121.95
11
133.45
21
-120.45
0
LINE
8
Black
10
133.45
20
-120.45
11
135.05
21
-120.45
0
LINE
8
Black
10
135.05
20
-120.45
11
135.05
21
-121.95
0
LINE
8
Black
10
117.131
20
-121.299
11
116.369
21
-121.299
0
LINE
8
Black
10
116.369
20
-121.299
11
116.369
21
-120.69
0
LINE
8
Black
10
116.369
20
-120.69
11
117.131
21
-120.69
0
LINE
8
Black
10
117.131
20
-120.69
11
117.131
21
-121.299
0
LINE
8
Black
10
152.15
20
-121.125
11
151.25
21
-121.125
0
LINE
8
Black
10
151.25
20
-121.125
11
151.25
21
-120.475
0
LINE
8
Black
10
151.25
20
-120.475
11
152.15
21
-120.475
0
LINE
8
Black
10
152.15
20
-120.475
11
152.15
21
-121.125
0
LINE
8
Black
10
154.5
20
-121.125
11
153.6
21
-121.125
0
LINE
8
Black
10
153.6
20
-121.125
11
153.6
21
-120.475
0
LINE
8
Black
10
153.6
20
-120.475
11
154.5
21
-120.475
0
LINE
8
Black
10
154.5
20
-120.475
11
154.5
21
-121.125
0
LINE
8
Black
10
149.75
20
-121.125
11
148.85
21
-121.125
0
LINE
8
Black
10
148.85
20
-121.125
11
148.85
21
-120.475
0
LINE
8
Black
10
148.85
20
-120.475
11
149.75
21
-120.475
0
LINE
8
Black
10
149.75
20
-120.475
11
149.75
21
-121.125
0
LINE
8
Black
10
156.9
20
-121.125
11
156
21
-121.125
0
LINE
8
Black
10
156
20
-121.125
11
156
21
-120.475
0
LINE
8
Black
10
156
20
-120.475
11
156.9
21
-120.475
0
LINE
8
Black
10
156.9
20
-120.475
11
156.9
21
-121.125
0
LINE
8
Black
10
115.7
20
-121.1
11
114.8
21
-121.1
0
LINE
8
Black
10
114.8
20
-121.1
11
114.8
21
-120.3
0
LINE
8
Black
10
114.8
20
-120.3
11
115.7
21
-120.3
0
LINE
8
Black
10
115.7
20
-120.3
11
115.7
21
-121.1
0
LINE
8
Black
10
159.321
20
-121.055
11
158.178
21
-121.055
0
LINE
8
Black
10
158.178
20
-121.055
11
158.178
21
-120.243
0
LINE
8
Black
10
158.178
20
-120.243
11
159.321
21
-120.243
0
LINE
8
Black
10
159.321
20
-120.243
11
159.321
21
-121.055
0
LINE
8
Black
10
160.821
20
-121.055
11
159.678
21
-121.055
0
LINE
8
Black
10
159.678
20
-121.055
11
159.678
21
-120.243
0
LINE
8
Black
10
159.678
20
-120.243
11
160.821
21
-120.243
0
LINE
8
Black
10
160.821
20
-120.243
11
160.821
21
-121.055
0
LINE
8
Black
10
162.571
20
-121.055
11
161.428
21
-121.055
0
LINE
8
Black
10
161.428
20
-121.055
11
161.428
21
-120.243
0
LINE
8
Black
10
161.428
20
-120.243
11
162.571
21
-120.243
0
LINE
8
Black
10
162.571
20
-120.243
11
162.571
21
-121.055
0
LINE
8
Black
10
146.901
20
-120.948
11
145.758
21
-120.948
0
LINE
8
Black
10
145.758
20
-120.948
11
145.758
21
-119.551
0
LINE
8
Black
10
145.758
20
-119.551
11
146.901
21
-119.551
0
LINE
8
Black
10
146.901
20
-119.551
11
146.901
21
-120.948
0
LINE
8
Black
10
144.742
20
-120.948
11
143.599
21
-120.948
0
LINE
8
Black
10
143.599
20
-120.948
11
143.599
21
-119.551
0
LINE
8
Black
10
143.599
20
-119.551
11
144.742
21
-119.551
0
LINE
8
Black
10
144.742
20
-119.551
11
144.742
21
-120.948
0
LINE
8
Black
10
164.125
20
-120.75
11
163.475
21
-120.75
0
LINE
8
Black
10
163.475
20
-120.75
11
163.475
21
-119.85
0
LINE
8
Black
10
163.475
20
-119.85
11
164.125
21
-119.85
0
LINE
8
Black
10
164.125
20
-119.85
11
164.125
21
-120.75
0
LINE
8
Black
10
166.025
20
-120.75
11
165.375
21
-120.75
0
LINE
8
Black
10
165.375
20
-120.75
11
165.375
21
-119.85
0
LINE
8
Black
10
165.375
20
-119.85
11
166.025
21
-119.85
0
LINE
8
Black
10
166.025
20
-119.85
11
166.025
21
-120.75
0
LINE
8
Black
10
137.805
20
-120.572
11
136.993
21
-120.572
0
LINE
8
Black
10
136.993
20
-120.572
11
136.993
21
-119.428
0
LINE
8
Black
10
136.993
20
-119.428
11
137.805
21
-119.428
0
LINE
8
Black
10
137.805
20
-119.428
11
137.805
21
-120.572
0
LINE
8
Black
10
139.507
20
-120.572
11
138.695
21
-120.572
0
LINE
8
Black
10
138.695
20
-120.572
11
138.695
21
-119.428
0
LINE
8
Black
10
138.695
20
-119.428
11
139.507
21
-119.428
0
LINE
8
Black
10
139.507
20
-119.428
11
139.507
21
-120.572
0
LINE
8
Black
10
113.7
20
-120.15
11
112.8
21
-120.15
0
LINE
8
Black
10
112.8
20
-120.15
11
112.8
21
-119.35
0
LINE
8
Black
10
112.8
20
-119.35
11
113.7
21
-119.35
0
LINE
8
Black
10
113.7
20
-119.35
11
113.7
21
-120.15
0
LINE
8
Black
10
211.294
20
-119.668
11
209.994
21
-119.668
0
LINE
8
Black
10
209.994
20
-119.668
11
209.994
21
-119.268
0
LINE
8
Black
10
209.994
20
-119.268
11
211.294
21
-119.268
0
LINE
8
Black
10
211.294
20
-119.268
11
211.294
21
-119.668
0
LINE
8
Black
10
205.706
20
-119.655
11
204.406
21
-119.655
0
LINE
8
Black
10
204.406
20
-119.655
11
204.406
21
-119.255
0
LINE
8
Black
10
204.406
20
-119.255
11
205.706
21
-119.255
0
LINE
8
Black
10
205.706
20
-119.255
11
205.706
21
-119.655
0
LINE
8
Black
10
154.305
20
-119.572
11
153.493
21
-119.572
0
LINE
8
Black
10
153.493
20
-119.572
11
153.493
21
-118.428
0
LINE
8
Black
10
153.493
20
-118.428
11
154.305
21
-118.428
0
LINE
8
Black
10
154.305
20
-118.428
11
154.305
21
-119.572
0
LINE
8
Black
10
156.007
20
-119.572
11
155.195
21
-119.572
0
LINE
8
Black
10
155.195
20
-119.572
11
155.195
21
-118.428
0
LINE
8
Black
10
155.195
20
-118.428
11
156.007
21
-118.428
0
LINE
8
Black
10
156.007
20
-118.428
11
156.007
21
-119.572
0
LINE
8
Black
10
213.4
20
-119.25
11
212.8
21
-119.25
0
LINE
8
Black
10
212.8
20
-119.25
11
212.8
21
-118.75
0
LINE
8
Black
10
212.8
20
-118.75
11
213.4
21
-118.75
0
LINE
8
Black
10
213.4
20
-118.75
11
213.4
21
-119.25
0
LINE
8
Black
10
115.7
20
-119.2
11
114.8
21
-119.2
0
LINE
8
Black
10
114.8
20
-119.2
11
114.8
21
-118.4
0
LINE
8
Black
10
114.8
20
-118.4
11
115.7
21
-118.4
0
LINE
8
Black
10
115.7
20
-118.4
11
115.7
21
-119.2
0
LINE
8
Black
10
211.294
20
-119.02
11
209.994
21
-119.02
0
LINE
8
Black
10
209.994
20
-119.02
11
209.994
21
-118.62
0
LINE
8
Black
10
209.994
20
-118.62
11
211.294
21
-118.62
0
LINE
8
Black
10
211.294
20
-118.62
11
211.294
21
-119.02
0
LINE
8
Black
10
205.706
20
-119.02
11
204.406
21
-119.02
0
LINE
8
Black
10
204.406
20
-119.02
11
204.406
21
-118.62
0
LINE
8
Black
10
204.406
20
-118.62
11
205.706
21
-118.62
0
LINE
8
Black
10
205.706
20
-118.62
11
205.706
21
-119.02
0
LINE
8
Black
10
140.805
20
-118.822
11
139.993
21
-118.822
0
LINE
8
Black
10
139.993
20
-118.822
11
139.993
21
-117.678
0
LINE
8
Black
10
139.993
20
-117.678
11
140.805
21
-117.678
0
LINE
8
Black
10
140.805
20
-117.678
11
140.805
21
-118.822
0
LINE
8
Black
10
137.805
20
-118.822
11
136.993
21
-118.822
0
LINE
8
Black
10
136.993
20
-118.822
11
136.993
21
-117.678
0
LINE
8
Black
10
136.993
20
-117.678
11
137.805
21
-117.678
0
LINE
8
Black
10
137.805
20
-117.678
11
137.805
21
-118.822
0
LINE
8
Black
10
145.507
20
-118.822
11
144.695
21
-118.822
0
LINE
8
Black
10
144.695
20
-118.822
11
144.695
21
-117.678
0
LINE
8
Black
10
144.695
20
-117.678
11
145.507
21
-117.678
0
LINE
8
Black
10
145.507
20
-117.678
11
145.507
21
-118.822
0
LINE
8
Black
10
143.805
20
-118.822
11
142.993
21
-118.822
0
LINE
8
Black
10
142.993
20
-118.822
11
142.993
21
-117.678
0
LINE
8
Black
10
142.993
20
-117.678
11
143.805
21
-117.678
0
LINE
8
Black
10
143.805
20
-117.678
11
143.805
21
-118.822
0
LINE
8
Black
10
142.507
20
-118.822
11
141.695
21
-118.822
0
LINE
8
Black
10
141.695
20
-118.822
11
141.695
21
-117.678
0
LINE
8
Black
10
141.695
20
-117.678
11
142.507
21
-117.678
0
LINE
8
Black
10
142.507
20
-117.678
11
142.507
21
-118.822
0
LINE
8
Black
10
139.507
20
-118.822
11
138.695
21
-118.822
0
LINE
8
Black
10
138.695
20
-118.822
11
138.695
21
-117.678
0
LINE
8
Black
10
138.695
20
-117.678
11
139.507
21
-117.678
0
LINE
8
Black
10
139.507
20
-117.678
11
139.507
21
-118.822
0
LINE
8
Black
10
117.131
20
-118.81
11
116.369
21
-118.81
0
LINE
8
Black
10
116.369
20
-118.81
11
116.369
21
-118.201
0
LINE
8
Black
10
116.369
20
-118.201
11
117.131
21
-118.201
0
LINE
8
Black
10
117.131
20
-118.201
11
117.131
21
-118.81
0
LINE
8
Black
10
214.7
20
-118.75
11
214.1
21
-118.75
0
LINE
8
Black
10
214.1
20
-118.75
11
214.1
21
-118.25
0
LINE
8
Black
10
214.1
20
-118.25
11
214.7
21
-118.25
0
LINE
8
Black
10
214.7
20
-118.25
11
214.7
21
-118.75
0
LINE
8
Black
10
133.85
20
-118.55
11
132.65
21
-118.55
0
LINE
8
Black
10
132.65
20
-118.55
11
132.65
21
-117.35
0
LINE
8
Black
10
132.65
20
-117.35
11
133.85
21
-117.35
0
LINE
8
Black
10
133.85
20
-117.35
11
133.85
21
-118.55
0
LINE
8
Black
10
135.85
20
-118.55
11
134.65
21
-118.55
0
LINE
8
Black
10
134.65
20
-118.55
11
134.65
21
-117.35
0
LINE
8
Black
10
134.65
20
-117.35
11
135.85
21
-117.35
0
LINE
8
Black
10
135.85
20
-117.35
11
135.85
21
-118.55
0
LINE
8
Black
10
126.1
20
-118.55
11
124.9
21
-118.55
0
LINE
8
Black
10
124.9
20
-118.55
11
124.9
21
-117.35
0
LINE
8
Black
10
124.9
20
-117.35
11
126.1
21
-117.35
0
LINE
8
Black
10
126.1
20
-117.35
11
126.1
21
-118.55
0
LINE
8
Black
10
128.1
20
-118.55
11
126.9
21
-118.55
0
LINE
8
Black
10
126.9
20
-118.55
11
126.9
21
-117.35
0
LINE
8
Black
10
126.9
20
-117.35
11
128.1
21
-117.35
0
LINE
8
Black
10
128.1
20
-117.35
11
128.1
21
-118.55
0
LINE
8
Black
10
211.294
20
-118.373
11
209.994
21
-118.373
0
LINE
8
Black
10
209.994
20
-118.373
11
209.994
21
-117.973
0
LINE
8
Black
10
209.994
20
-117.973
11
211.294
21
-117.973
0
LINE
8
Black
10
211.294
20
-117.973
11
211.294
21
-118.373
0
LINE
8
Black
10
205.706
20
-118.36
11
204.406
21
-118.36
0
LINE
8
Black
10
204.406
20
-118.36
11
204.406
21
-117.96
0
LINE
8
Black
10
204.406
20
-117.96
11
205.706
21
-117.96
0
LINE
8
Black
10
205.706
20
-117.96
11
205.706
21
-118.36
0
LINE
8
Black
10
203.657
20
-118.271
11
202.844
21
-118.271
0
LINE
8
Black
10
202.844
20
-118.271
11
202.844
21
-117.128
0
LINE
8
Black
10
202.844
20
-117.128
11
203.657
21
-117.128
0
LINE
8
Black
10
203.657
20
-117.128
11
203.657
21
-118.271
0
LINE
8
Black
10
201.956
20
-118.271
11
201.143
21
-118.271
0
LINE
8
Black
10
201.143
20
-118.271
11
201.143
21
-117.128
0
LINE
8
Black
10
201.143
20
-117.128
11
201.956
21
-117.128
0
LINE
8
Black
10
201.956
20
-117.128
11
201.956
21
-118.271
0
LINE
8
Black
10
213.4
20
-118.25
11
212.8
21
-118.25
0
LINE
8
Black
10
212.8
20
-118.25
11
212.8
21
-117.75
0
LINE
8
Black
10
212.8
20
-117.75
11
213.4
21
-117.75
0
LINE
8
Black
10
213.4
20
-117.75
11
213.4
21
-118.25
0
LINE
8
Black
10
98.5715
20
-118.007
11
97.4285
21
-118.007
0
LINE
8
Black
10
97.4285
20
-118.007
11
97.4285
21
-117.194
0
LINE
8
Black
10
97.4285
20
-117.194
11
98.5715
21
-117.194
0
LINE
8
Black
10
98.5715
20
-117.194
11
98.5715
21
-118.007
0
LINE
8
Black
10
156.007
20
-117.822
11
155.195
21
-117.822
0
LINE
8
Black
10
155.195
20
-117.822
11
155.195
21
-116.678
0
LINE
8
Black
10
155.195
20
-116.678
11
156.007
21
-116.678
0
LINE
8
Black
10
156.007
20
-116.678
11
156.007
21
-117.822
0
LINE
8
Black
10
154.305
20
-117.822
11
153.493
21
-117.822
0
LINE
8
Black
10
153.493
20
-117.822
11
153.493
21
-116.678
0
LINE
8
Black
10
153.493
20
-116.678
11
154.305
21
-116.678
0
LINE
8
Black
10
154.305
20
-116.678
11
154.305
21
-117.822
0
LINE
8
Black
10
211.294
20
-117.725
11
209.994
21
-117.725
0
LINE
8
Black
10
209.994
20
-117.725
11
209.994
21
-117.325
0
LINE
8
Black
10
209.994
20
-117.325
11
211.294
21
-117.325
0
LINE
8
Black
10
211.294
20
-117.325
11
211.294
21
-117.725
0
LINE
8
Black
10
205.706
20
-117.725
11
204.406
21
-117.725
0
LINE
8
Black
10
204.406
20
-117.725
11
204.406
21
-117.325
0
LINE
8
Black
10
204.406
20
-117.325
11
205.706
21
-117.325
0
LINE
8
Black
10
205.706
20
-117.325
11
205.706
21
-117.725
0
LINE
8
Black
10
113.805
20
-117.322
11
112.993
21
-117.322
0
LINE
8
Black
10
112.993
20
-117.322
11
112.993
21
-116.178
0
LINE
8
Black
10
112.993
20
-116.178
11
113.805
21
-116.178
0
LINE
8
Black
10
113.805
20
-116.178
11
113.805
21
-117.322
0
LINE
8
Black
10
115.507
20
-117.322
11
114.694
21
-117.322
0
LINE
8
Black
10
114.694
20
-117.322
11
114.694
21
-116.178
0
LINE
8
Black
10
114.694
20
-116.178
11
115.507
21
-116.178
0
LINE
8
Black
10
115.507
20
-116.178
11
115.507
21
-117.322
0
LINE
8
Black
10
150.071
20
-117.007
11
148.928
21
-117.007
0
LINE
8
Black
10
148.928
20
-117.007
11
148.928
21
-116.194
0
LINE
8
Black
10
148.928
20
-116.194
11
150.071
21
-116.194
0
LINE
8
Black
10
150.071
20
-116.194
11
150.071
21
-117.007
0
LINE
8
Black
10
151.821
20
-117.007
11
150.678
21
-117.007
0
LINE
8
Black
10
150.678
20
-117.007
11
150.678
21
-116.194
0
LINE
8
Black
10
150.678
20
-116.194
11
151.821
21
-116.194
0
LINE
8
Black
10
151.821
20
-116.194
11
151.821
21
-117.007
0
LINE
8
Black
10
147.794
20
-116.918
11
146.494
21
-116.918
0
LINE
8
Black
10
146.494
20
-116.918
11
146.494
21
-116.518
0
LINE
8
Black
10
146.494
20
-116.518
11
147.794
21
-116.518
0
LINE
8
Black
10
147.794
20
-116.518
11
147.794
21
-116.918
0
LINE
8
Black
10
142.206
20
-116.905
11
140.906
21
-116.905
0
LINE
8
Black
10
140.906
20
-116.905
11
140.906
21
-116.505
0
LINE
8
Black
10
140.906
20
-116.505
11
142.206
21
-116.505
0
LINE
8
Black
10
142.206
20
-116.505
11
142.206
21
-116.905
0
LINE
8
Black
10
206.55
20
-116.35
11
205.35
21
-116.35
0
LINE
8
Black
10
205.35
20
-116.35
11
205.35
21
-115.15
0
LINE
8
Black
10
205.35
20
-115.15
11
206.55
21
-115.15
0
LINE
8
Black
10
206.55
20
-115.15
11
206.55
21
-116.35
0
LINE
8
Black
10
204.757
20
-116.322
11
203.944
21
-116.322
0
LINE
8
Black
10
203.944
20
-116.322
11
203.944
21
-115.178
0
LINE
8
Black
10
203.944
20
-115.178
11
204.757
21
-115.178
0
LINE
8
Black
10
204.757
20
-115.178
11
204.757
21
-116.322
0
LINE
8
Black
10
203.055
20
-116.322
11
202.243
21
-116.322
0
LINE
8
Black
10
202.243
20
-116.322
11
202.243
21
-115.178
0
LINE
8
Black
10
202.243
20
-115.178
11
203.055
21
-115.178
0
LINE
8
Black
10
203.055
20
-115.178
11
203.055
21
-116.322
0
LINE
8
Black
10
98.5715
20
-116.305
11
97.4285
21
-116.305
0
LINE
8
Black
10
97.4285
20
-116.305
11
97.4285
21
-115.493
0
LINE
8
Black
10
97.4285
20
-115.493
11
98.5715
21
-115.493
0
LINE
8
Black
10
98.5715
20
-115.493
11
98.5715
21
-116.305
0
LINE
8
Black
10
142.206
20
-116.27
11
140.906
21
-116.27
0
LINE
8
Black
10
140.906
20
-116.27
11
140.906
21
-115.87
0
LINE
8
Black
10
140.906
20
-115.87
11
142.206
21
-115.87
0
LINE
8
Black
10
142.206
20
-115.87
11
142.206
21
-116.27
0
LINE
8
Black
10
147.794
20
-116.27
11
146.494
21
-116.27
0
LINE
8
Black
10
146.494
20
-116.27
11
146.494
21
-115.87
0
LINE
8
Black
10
146.494
20
-115.87
11
147.794
21
-115.87
0
LINE
8
Black
10
147.794
20
-115.87
11
147.794
21
-116.27
0
LINE
8
Black
10
214.571
20
-116.257
11
213.428
21
-116.257
0
LINE
8
Black
10
213.428
20
-116.257
11
213.428
21
-115.444
0
LINE
8
Black
10
213.428
20
-115.444
11
214.571
21
-115.444
0
LINE
8
Black
10
214.571
20
-115.444
11
214.571
21
-116.257
0
LINE
8
Black
10
212.571
20
-116.257
11
211.428
21
-116.257
0
LINE
8
Black
10
211.428
20
-116.257
11
211.428
21
-115.444
0
LINE
8
Black
10
211.428
20
-115.444
11
212.571
21
-115.444
0
LINE
8
Black
10
212.571
20
-115.444
11
212.571
21
-116.257
0
LINE
8
Black
10
96.7704
20
-116.053
11
95.7696
21
-116.053
0
LINE
8
Black
10
95.7696
20
-116.053
11
95.7696
21
-115.352
0
LINE
8
Black
10
95.7696
20
-115.352
11
96.7704
21
-115.352
0
LINE
8
Black
10
96.7704
20
-115.352
11
96.7704
21
-116.053
0
LINE
8
Black
10
147.794
20
-115.623
11
146.494
21
-115.623
0
LINE
8
Black
10
146.494
20
-115.623
11
146.494
21
-115.223
0
LINE
8
Black
10
146.494
20
-115.223
11
147.794
21
-115.223
0
LINE
8
Black
10
147.794
20
-115.223
11
147.794
21
-115.623
0
LINE
8
Black
10
142.206
20
-115.61
11
140.906
21
-115.61
0
LINE
8
Black
10
140.906
20
-115.61
11
140.906
21
-115.21
0
LINE
8
Black
10
140.906
20
-115.21
11
142.206
21
-115.21
0
LINE
8
Black
10
142.206
20
-115.21
11
142.206
21
-115.61
0
LINE
8
Black
10
209.95
20
-115.55
11
208.45
21
-115.55
0
LINE
8
Black
10
208.45
20
-115.55
11
208.45
21
-113.95
0
LINE
8
Black
10
208.45
20
-113.95
11
209.95
21
-113.95
0
LINE
8
Black
10
209.95
20
-113.95
11
209.95
21
-115.55
0
LINE
8
Black
10
113.805
20
-115.322
11
112.993
21
-115.322
0
LINE
8
Black
10
112.993
20
-115.322
11
112.993
21
-114.178
0
LINE
8
Black
10
112.993
20
-114.178
11
113.805
21
-114.178
0
LINE
8
Black
10
113.805
20
-114.178
11
113.805
21
-115.322
0
LINE
8
Black
10
115.507
20
-115.322
11
114.694
21
-115.322
0
LINE
8
Black
10
114.694
20
-115.322
11
114.694
21
-114.178
0
LINE
8
Black
10
114.694
20
-114.178
11
115.507
21
-114.178
0
LINE
8
Black
10
115.507
20
-114.178
11
115.507
21
-115.322
0
LINE
8
Black
10
151.821
20
-115.305
11
150.678
21
-115.305
0
LINE
8
Black
10
150.678
20
-115.305
11
150.678
21
-114.493
0
LINE
8
Black
10
150.678
20
-114.493
11
151.821
21
-114.493
0
LINE
8
Black
10
151.821
20
-114.493
11
151.821
21
-115.305
0
LINE
8
Black
10
150.071
20
-115.305
11
148.928
21
-115.305
0
LINE
8
Black
10
148.928
20
-115.305
11
148.928
21
-114.493
0
LINE
8
Black
10
148.928
20
-114.493
11
150.071
21
-114.493
0
LINE
8
Black
10
150.071
20
-114.493
11
150.071
21
-115.305
0
LINE
8
Black
10
94.2304
20
-115.101
11
93.2296
21
-115.101
0
LINE
8
Black
10
93.2296
20
-115.101
11
93.2296
21
-114.399
0
LINE
8
Black
10
93.2296
20
-114.399
11
94.2304
21
-114.399
0
LINE
8
Black
10
94.2304
20
-114.399
11
94.2304
21
-115.101
0
LINE
8
Black
10
147.794
20
-114.975
11
146.494
21
-114.975
0
LINE
8
Black
10
146.494
20
-114.975
11
146.494
21
-114.575
0
LINE
8
Black
10
146.494
20
-114.575
11
147.794
21
-114.575
0
LINE
8
Black
10
147.794
20
-114.575
11
147.794
21
-114.975
0
LINE
8
Black
10
142.206
20
-114.975
11
140.906
21
-114.975
0
LINE
8
Black
10
140.906
20
-114.975
11
140.906
21
-114.575
0
LINE
8
Black
10
140.906
20
-114.575
11
142.206
21
-114.575
0
LINE
8
Black
10
142.206
20
-114.575
11
142.206
21
-114.975
0
LINE
8
Black
10
214.571
20
-114.555
11
213.428
21
-114.555
0
LINE
8
Black
10
213.428
20
-114.555
11
213.428
21
-113.743
0
LINE
8
Black
10
213.428
20
-113.743
11
214.571
21
-113.743
0
LINE
8
Black
10
214.571
20
-113.743
11
214.571
21
-114.555
0
LINE
8
Black
10
212.571
20
-114.555
11
211.428
21
-114.555
0
LINE
8
Black
10
211.428
20
-114.555
11
211.428
21
-113.743
0
LINE
8
Black
10
211.428
20
-113.743
11
212.571
21
-113.743
0
LINE
8
Black
10
212.571
20
-113.743
11
212.571
21
-114.555
0
LINE
8
Black
10
206.55
20
-114.35
11
205.35
21
-114.35
0
LINE
8
Black
10
205.35
20
-114.35
11
205.35
21
-113.15
0
LINE
8
Black
10
205.35
20
-113.15
11
206.55
21
-113.15
0
LINE
8
Black
10
206.55
20
-113.15
11
206.55
21
-114.35
0
LINE
8
Black
10
96.7704
20
-114.148
11
95.7696
21
-114.148
0
LINE
8
Black
10
95.7696
20
-114.148
11
95.7696
21
-113.447
0
LINE
8
Black
10
95.7696
20
-113.447
11
96.7704
21
-113.447
0
LINE
8
Black
10
96.7704
20
-113.447
11
96.7704
21
-114.148
0
LINE
8
Black
10
143.805
20
-113.822
11
142.993
21
-113.822
0
LINE
8
Black
10
142.993
20
-113.822
11
142.993
21
-112.678
0
LINE
8
Black
10
142.993
20
-112.678
11
143.805
21
-112.678
0
LINE
8
Black
10
143.805
20
-112.678
11
143.805
21
-113.822
0
LINE
8
Black
10
145.507
20
-113.822
11
144.695
21
-113.822
0
LINE
8
Black
10
144.695
20
-113.822
11
144.695
21
-112.678
0
LINE
8
Black
10
144.695
20
-112.678
11
145.507
21
-112.678
0
LINE
8
Black
10
145.507
20
-112.678
11
145.507
21
-113.822
0
LINE
8
Black
10
143.805
20
-112.072
11
142.993
21
-112.072
0
LINE
8
Black
10
142.993
20
-112.072
11
142.993
21
-110.928
0
LINE
8
Black
10
142.993
20
-110.928
11
143.805
21
-110.928
0
LINE
8
Black
10
143.805
20
-110.928
11
143.805
21
-112.072
0
LINE
8
Black
10
145.507
20
-112.072
11
144.695
21
-112.072
0
LINE
8
Black
10
144.695
20
-112.072
11
144.695
21
-110.928
0
LINE
8
Black
10
144.695
20
-110.928
11
145.507
21
-110.928
0
LINE
8
Black
10
145.507
20
-110.928
11
145.507
21
-112.072
0
LINE
8
Black
10
158.571
20
-109.257
11
157.428
21
-109.257
0
LINE
8
Black
10
157.428
20
-109.257
11
157.428
21
-108.444
0
LINE
8
Black
10
157.428
20
-108.444
11
158.571
21
-108.444
0
LINE
8
Black
10
158.571
20
-108.444
11
158.571
21
-109.257
0
LINE
8
Black
10
141.805
20
-108.072
11
140.993
21
-108.072
0
LINE
8
Black
10
140.993
20
-108.072
11
140.993
21
-106.928
0
LINE
8
Black
10
140.993
20
-106.928
11
141.805
21
-106.928
0
LINE
8
Black
10
141.805
20
-106.928
11
141.805
21
-108.072
0
LINE
8
Black
10
143.507
20
-108.072
11
142.695
21
-108.072
0
LINE
8
Black
10
142.695
20
-108.072
11
142.695
21
-106.928
0
LINE
8
Black
10
142.695
20
-106.928
11
143.507
21
-106.928
0
LINE
8
Black
10
143.507
20
-106.928
11
143.507
21
-108.072
0
LINE
8
Black
10
128.071
20
-108.007
11
126.928
21
-108.007
0
LINE
8
Black
10
126.928
20
-108.007
11
126.928
21
-107.194
0
LINE
8
Black
10
126.928
20
-107.194
11
128.071
21
-107.194
0
LINE
8
Black
10
128.071
20
-107.194
11
128.071
21
-108.007
0
LINE
8
Black
10
108.572
20
-108.007
11
107.428
21
-108.007
0
LINE
8
Black
10
107.428
20
-108.007
11
107.428
21
-107.194
0
LINE
8
Black
10
107.428
20
-107.194
11
108.572
21
-107.194
0
LINE
8
Black
10
108.572
20
-107.194
11
108.572
21
-108.007
0
LINE
8
Black
10
158.571
20
-107.555
11
157.428
21
-107.555
0
LINE
8
Black
10
157.428
20
-107.555
11
157.428
21
-106.743
0
LINE
8
Black
10
157.428
20
-106.743
11
158.571
21
-106.743
0
LINE
8
Black
10
158.571
20
-106.743
11
158.571
21
-107.555
0
LINE
8
Black
10
128.071
20
-106.305
11
126.928
21
-106.305
0
LINE
8
Black
10
126.928
20
-106.305
11
126.928
21
-105.493
0
LINE
8
Black
10
126.928
20
-105.493
11
128.071
21
-105.493
0
LINE
8
Black
10
128.071
20
-105.493
11
128.071
21
-106.305
0
LINE
8
Black
10
108.572
20
-106.305
11
107.428
21
-106.305
0
LINE
8
Black
10
107.428
20
-106.305
11
107.428
21
-105.493
0
LINE
8
Black
10
107.428
20
-105.493
11
108.572
21
-105.493
0
LINE
8
Black
10
108.572
20
-105.493
11
108.572
21
-106.305
0
LINE
8
Black
10
96.0073
20
-105.072
11
95.1945
21
-105.072
0
LINE
8
Black
10
95.1945
20
-105.072
11
95.1945
21
-103.928
0
LINE
8
Black
10
95.1945
20
-103.928
11
96.0073
21
-103.928
0
LINE
8
Black
10
96.0073
20
-103.928
11
96.0073
21
-105.072
0
LINE
8
Black
10
94.3055
20
-105.072
11
93.4927
21
-105.072
0
LINE
8
Black
10
93.4927
20
-105.072
11
93.4927
21
-103.928
0
LINE
8
Black
10
93.4927
20
-103.928
11
94.3055
21
-103.928
0
LINE
8
Black
10
94.3055
20
-103.928
11
94.3055
21
-105.072
0
LINE
8
Black
10
101.4
20
-104.35
11
100.2
21
-104.35
0
LINE
8
Black
10
100.2
20
-104.35
11
100.2
21
-103.15
0
LINE
8
Black
10
100.2
20
-103.15
11
101.4
21
-103.15
0
LINE
8
Black
10
101.4
20
-103.15
11
101.4
21
-104.35
0
LINE
8
Black
10
98.3
20
-103.55
11
96.8
21
-103.55
0
LINE
8
Black
10
96.8
20
-103.55
11
96.8
21
-101.95
0
LINE
8
Black
10
96.8
20
-101.95
11
98.3
21
-101.95
0
LINE
8
Black
10
98.3
20
-101.95
11
98.3
21
-103.55
0
LINE
8
Black
10
96.0073
20
-103.322
11
95.1945
21
-103.322
0
LINE
8
Black
10
95.1945
20
-103.322
11
95.1945
21
-102.178
0
LINE
8
Black
10
95.1945
20
-102.178
11
96.0073
21
-102.178
0
LINE
8
Black
10
96.0073
20
-102.178
11
96.0073
21
-103.322
0
LINE
8
Black
10
94.3055
20
-103.322
11
93.4927
21
-103.322
0
LINE
8
Black
10
93.4927
20
-103.322
11
93.4927
21
-102.178
0
LINE
8
Black
10
93.4927
20
-102.178
11
94.3055
21
-102.178
0
LINE
8
Black
10
94.3055
20
-102.178
11
94.3055
21
-103.322
0
LINE
8
Black
10
101.4
20
-102.35
11
100.2
21
-102.35
0
LINE
8
Black
10
100.2
20
-102.35
11
100.2
21
-101.15
0
LINE
8
Black
10
100.2
20
-101.15
11
101.4
21
-101.15
0
LINE
8
Black
10
101.4
20
-101.15
11
101.4
21
-102.35
0
LINE
8
Black
10
94.3055
20
-101.572
11
93.4927
21
-101.572
0
LINE
8
Black
10
93.4927
20
-101.572
11
93.4927
21
-100.428
0
LINE
8
Black
10
93.4927
20
-100.428
11
94.3055
21
-100.428
0
LINE
8
Black
10
94.3055
20
-100.428
11
94.3055
21
-101.572
0
LINE
8
Black
10
96.0073
20
-101.572
11
95.1945
21
-101.572
0
LINE
8
Black
10
95.1945
20
-101.572
11
95.1945
21
-100.428
0
LINE
8
Black
10
95.1945
20
-100.428
11
96.0073
21
-100.428
0
LINE
8
Black
10
96.0073
20
-100.428
11
96.0073
21
-101.572
0
LINE
8
Black
10
89.1555
20
-101.171
11
88.3427
21
-101.171
0
LINE
8
Black
10
88.3427
20
-101.171
11
88.3427
21
-100.028
0
LINE
8
Black
10
88.3427
20
-100.028
11
89.1555
21
-100.028
0
LINE
8
Black
10
89.1555
20
-100.028
11
89.1555
21
-101.171
0
LINE
8
Black
10
90.8573
20
-101.171
11
90.0445
21
-101.171
0
LINE
8
Black
10
90.0445
20
-101.171
11
90.0445
21
-100.028
0
LINE
8
Black
10
90.0445
20
-100.028
11
90.8573
21
-100.028
0
LINE
8
Black
10
90.8573
20
-100.028
11
90.8573
21
-101.171
0
LINE
8
Black
10
115.822
20
-99.0073
11
114.678
21
-99.0073
0
LINE
8
Black
10
114.678
20
-99.0073
11
114.678
21
-98.1945
0
LINE
8
Black
10
114.678
20
-98.1945
11
115.822
21
-98.1945
0
LINE
8
Black
10
115.822
20
-98.1945
11
115.822
21
-99.0073
0
LINE
8
Black
10
114.072
20
-99.0073
11
112.928
21
-99.0073
0
LINE
8
Black
10
112.928
20
-99.0073
11
112.928
21
-98.1945
0
LINE
8
Black
10
112.928
20
-98.1945
11
114.072
21
-98.1945
0
LINE
8
Black
10
114.072
20
-98.1945
11
114.072
21
-99.0073
0
LINE
8
Black
10
112.322
20
-99.0073
11
111.178
21
-99.0073
0
LINE
8
Black
10
111.178
20
-99.0073
11
111.178
21
-98.1945
0
LINE
8
Black
10
111.178
20
-98.1945
11
112.322
21
-98.1945
0
LINE
8
Black
10
112.322
20
-98.1945
11
112.322
21
-99.0073
0
LINE
8
Black
10
102.52
20
-98.803
11
101.52
21
-98.803
0
LINE
8
Black
10
101.52
20
-98.803
11
101.52
21
-98.102
0
LINE
8
Black
10
101.52
20
-98.102
11
102.52
21
-98.102
0
LINE
8
Black
10
102.52
20
-98.102
11
102.52
21
-98.803
0
LINE
8
Black
10
106.072
20
-98.7573
11
104.928
21
-98.7573
0
LINE
8
Black
10
104.928
20
-98.7573
11
104.928
21
-97.9445
0
LINE
8
Black
10
104.928
20
-97.9445
11
106.072
21
-97.9445
0
LINE
8
Black
10
106.072
20
-97.9445
11
106.072
21
-98.7573
0
LINE
8
Black
10
104.322
20
-98.7573
11
103.178
21
-98.7573
0
LINE
8
Black
10
103.178
20
-98.7573
11
103.178
21
-97.9445
0
LINE
8
Black
10
103.178
20
-97.9445
11
104.322
21
-97.9445
0
LINE
8
Black
10
104.322
20
-97.9445
11
104.322
21
-98.7573
0
LINE
8
Black
10
110.381
20
-98.2994
11
109.619
21
-98.2994
0
LINE
8
Black
10
109.619
20
-98.2994
11
109.619
21
-97.6898
0
LINE
8
Black
10
109.619
20
-97.6898
11
110.381
21
-97.6898
0
LINE
8
Black
10
110.381
20
-97.6898
11
110.381
21
-98.2994
0
LINE
8
Black
10
136.351
20
-98.2704
11
135.649
21
-98.2704
0
LINE
8
Black
10
135.649
20
-98.2704
11
135.649
21
-97.2696
0
LINE
8
Black
10
135.649
20
-97.2696
11
136.351
21
-97.2696
0
LINE
8
Black
10
136.351
20
-97.2696
11
136.351
21
-98.2704
0
LINE
8
Black
10
99.9804
20
-97.8505
11
98.9796
21
-97.8505
0
LINE
8
Black
10
98.9796
20
-97.8505
11
98.9796
21
-97.1495
0
LINE
8
Black
10
98.9796
20
-97.1495
11
99.9804
21
-97.1495
0
LINE
8
Black
10
99.9804
20
-97.1495
11
99.9804
21
-97.8505
0
LINE
8
Black
10
115.822
20
-97.3055
11
114.678
21
-97.3055
0
LINE
8
Black
10
114.678
20
-97.3055
11
114.678
21
-96.4927
0
LINE
8
Black
10
114.678
20
-96.4927
11
115.822
21
-96.4927
0
LINE
8
Black
10
115.822
20
-96.4927
11
115.822
21
-97.3055
0
LINE
8
Black
10
112.322
20
-97.3055
11
111.178
21
-97.3055
0
LINE
8
Black
10
111.178
20
-97.3055
11
111.178
21
-96.4927
0
LINE
8
Black
10
111.178
20
-96.4927
11
112.322
21
-96.4927
0
LINE
8
Black
10
112.322
20
-96.4927
11
112.322
21
-97.3055
0
LINE
8
Black
10
114.072
20
-97.3055
11
112.928
21
-97.3055
0
LINE
8
Black
10
112.928
20
-97.3055
11
112.928
21
-96.4927
0
LINE
8
Black
10
112.928
20
-96.4927
11
114.072
21
-96.4927
0
LINE
8
Black
10
114.072
20
-96.4927
11
114.072
21
-97.3055
0
LINE
8
Black
10
134.071
20
-97.2573
11
132.928
21
-97.2573
0
LINE
8
Black
10
132.928
20
-97.2573
11
132.928
21
-96.4445
0
LINE
8
Black
10
132.928
20
-96.4445
11
134.071
21
-96.4445
0
LINE
8
Black
10
134.071
20
-96.4445
11
134.071
21
-97.2573
0
LINE
8
Black
10
106.072
20
-97.0555
11
104.928
21
-97.0555
0
LINE
8
Black
10
104.928
20
-97.0555
11
104.928
21
-96.2427
0
LINE
8
Black
10
104.928
20
-96.2427
11
106.072
21
-96.2427
0
LINE
8
Black
10
106.072
20
-96.2427
11
106.072
21
-97.0555
0
LINE
8
Black
10
104.322
20
-97.0555
11
103.178
21
-97.0555
0
LINE
8
Black
10
103.178
20
-97.0555
11
103.178
21
-96.2427
0
LINE
8
Black
10
103.178
20
-96.2427
11
104.322
21
-96.2427
0
LINE
8
Black
10
104.322
20
-96.2427
11
104.322
21
-97.0555
0
LINE
8
Black
10
102.52
20
-96.898
11
101.52
21
-96.898
0
LINE
8
Black
10
101.52
20
-96.898
11
101.52
21
-96.197
0
LINE
8
Black
10
101.52
20
-96.197
11
102.52
21
-96.197
0
LINE
8
Black
10
102.52
20
-96.197
11
102.52
21
-96.898
0
LINE
8
Black
10
110.381
20
-95.8102
11
109.619
21
-95.8102
0
LINE
8
Black
10
109.619
20
-95.8102
11
109.619
21
-95.2006
0
LINE
8
Black
10
109.619
20
-95.2006
11
110.381
21
-95.2006
0
LINE
8
Black
10
110.381
20
-95.2006
11
110.381
21
-95.8102
0
LINE
8
Black
10
137.303
20
-95.7304
11
136.602
21
-95.7304
0
LINE
8
Black
10
136.602
20
-95.7304
11
136.602
21
-94.7296
0
LINE
8
Black
10
136.602
20
-94.7296
11
137.303
21
-94.7296
0
LINE
8
Black
10
137.303
20
-94.7296
11
137.303
21
-95.7304
0
LINE
8
Black
10
135.398
20
-95.7304
11
134.697
21
-95.7304
0
LINE
8
Black
10
134.697
20
-95.7304
11
134.697
21
-94.7296
0
LINE
8
Black
10
134.697
20
-94.7296
11
135.398
21
-94.7296
0
LINE
8
Black
10
135.398
20
-94.7296
11
135.398
21
-95.7304
0
LINE
8
Black
10
134.071
20
-95.5555
11
132.928
21
-95.5555
0
LINE
8
Black
10
132.928
20
-95.5555
11
132.928
21
-94.7427
0
LINE
8
Black
10
132.928
20
-94.7427
11
134.071
21
-94.7427
0
LINE
8
Black
10
134.071
20
-94.7427
11
134.071
21
-95.5555
0
LINE
8
Black
10
101.322
20
-95.5073
11
100.178
21
-95.5073
0
LINE
8
Black
10
100.178
20
-95.5073
11
100.178
21
-94.6945
0
LINE
8
Black
10
100.178
20
-94.6945
11
101.322
21
-94.6945
0
LINE
8
Black
10
101.322
20
-94.6945
11
101.322
21
-95.5073
0
LINE
8
Black
10
90.3215
20
-95.0073
11
89.1785
21
-95.0073
0
LINE
8
Black
10
89.1785
20
-95.0073
11
89.1785
21
-94.1945
0
LINE
8
Black
10
89.1785
20
-94.1945
11
90.3215
21
-94.1945
0
LINE
8
Black
10
90.3215
20
-94.1945
11
90.3215
21
-95.0073
0
LINE
8
Black
10
116.322
20
-94.7573
11
115.178
21
-94.7573
0
LINE
8
Black
10
115.178
20
-94.7573
11
115.178
21
-93.9445
0
LINE
8
Black
10
115.178
20
-93.9445
11
116.322
21
-93.9445
0
LINE
8
Black
10
116.322
20
-93.9445
11
116.322
21
-94.7573
0
LINE
8
Black
10
129.8
20
-94.7
11
128.2
21
-94.7
0
LINE
8
Black
10
128.2
20
-94.7
11
128.2
21
-93.2
0
LINE
8
Black
10
128.2
20
-93.2
11
129.8
21
-93.2
0
LINE
8
Black
10
129.8
20
-93.2
11
129.8
21
-94.7
0
LINE
8
Black
10
110.794
20
-94.6681
11
109.494
21
-94.6681
0
LINE
8
Black
10
109.494
20
-94.6681
11
109.494
21
-94.2681
0
LINE
8
Black
10
109.494
20
-94.2681
11
110.794
21
-94.2681
0
LINE
8
Black
10
110.794
20
-94.2681
11
110.794
21
-94.6681
0
LINE
8
Black
10
105.206
20
-94.6554
11
103.906
21
-94.6554
0
LINE
8
Black
10
103.906
20
-94.6554
11
103.906
21
-94.2554
0
LINE
8
Black
10
103.906
20
-94.2554
11
105.206
21
-94.2554
0
LINE
8
Black
10
105.206
20
-94.2554
11
105.206
21
-94.6554
0
LINE
8
Black
10
110.794
20
-94.0204
11
109.494
21
-94.0204
0
LINE
8
Black
10
109.494
20
-94.0204
11
109.494
21
-93.6204
0
LINE
8
Black
10
109.494
20
-93.6204
11
110.794
21
-93.6204
0
LINE
8
Black
10
110.794
20
-93.6204
11
110.794
21
-94.0204
0
LINE
8
Black
10
105.206
20
-94.0204
11
103.906
21
-94.0204
0
LINE
8
Black
10
103.906
20
-94.0204
11
103.906
21
-93.6204
0
LINE
8
Black
10
103.906
20
-93.6204
11
105.206
21
-93.6204
0
LINE
8
Black
10
105.206
20
-93.6204
11
105.206
21
-94.0204
0
LINE
8
Black
10
101.322
20
-93.8055
11
100.178
21
-93.8055
0
LINE
8
Black
10
100.178
20
-93.8055
11
100.178
21
-92.9927
0
LINE
8
Black
10
100.178
20
-92.9927
11
101.322
21
-92.9927
0
LINE
8
Black
10
101.322
20
-92.9927
11
101.322
21
-93.8055
0
LINE
8
Black
10
95.1985
20
-93.651
11
93.8015
21
-93.651
0
LINE
8
Black
10
93.8015
20
-93.651
11
93.8015
21
-92.508
0
LINE
8
Black
10
93.8015
20
-92.508
11
95.1985
21
-92.508
0
LINE
8
Black
10
95.1985
20
-92.508
11
95.1985
21
-93.651
0
LINE
8
Black
10
98.775
20
-93.65
11
98.125
21
-93.65
0
LINE
8
Black
10
98.125
20
-93.65
11
98.125
21
-92.75
0
LINE
8
Black
10
98.125
20
-92.75
11
98.775
21
-92.75
0
LINE
8
Black
10
98.775
20
-92.75
11
98.775
21
-93.65
0
LINE
8
Black
10
96.875
20
-93.65
11
96.225
21
-93.65
0
LINE
8
Black
10
96.225
20
-93.65
11
96.225
21
-92.75
0
LINE
8
Black
10
96.225
20
-92.75
11
96.875
21
-92.75
0
LINE
8
Black
10
96.875
20
-92.75
11
96.875
21
-93.65
0
LINE
8
Black
10
91.5555
20
-93.5715
11
90.7427
21
-93.5715
0
LINE
8
Black
10
90.7427
20
-93.5715
11
90.7427
21
-92.4285
0
LINE
8
Black
10
90.7427
20
-92.4285
11
91.5555
21
-92.4285
0
LINE
8
Black
10
91.5555
20
-92.4285
11
91.5555
21
-93.5715
0
LINE
8
Black
10
93.2573
20
-93.5715
11
92.4445
21
-93.5715
0
LINE
8
Black
10
92.4445
20
-93.5715
11
92.4445
21
-92.4285
0
LINE
8
Black
10
92.4445
20
-92.4285
11
93.2573
21
-92.4285
0
LINE
8
Black
10
93.2573
20
-92.4285
11
93.2573
21
-93.5715
0
LINE
8
Black
10
110.794
20
-93.3727
11
109.494
21
-93.3727
0
LINE
8
Black
10
109.494
20
-93.3727
11
109.494
21
-92.9727
0
LINE
8
Black
10
109.494
20
-92.9727
11
110.794
21
-92.9727
0
LINE
8
Black
10
110.794
20
-92.9727
11
110.794
21
-93.3727
0
LINE
8
Black
10
105.206
20
-93.36
11
103.906
21
-93.36
0
LINE
8
Black
10
103.906
20
-93.36
11
103.906
21
-92.96
0
LINE
8
Black
10
103.906
20
-92.96
11
105.206
21
-92.96
0
LINE
8
Black
10
105.206
20
-92.96
11
105.206
21
-93.36
0
LINE
8
Black
10
90.3215
20
-93.3055
11
89.1785
21
-93.3055
0
LINE
8
Black
10
89.1785
20
-93.3055
11
89.1785
21
-92.4927
0
LINE
8
Black
10
89.1785
20
-92.4927
11
90.3215
21
-92.4927
0
LINE
8
Black
10
90.3215
20
-92.4927
11
90.3215
21
-93.3055
0
LINE
8
Black
10
113.822
20
-93.2573
11
112.678
21
-93.2573
0
LINE
8
Black
10
112.678
20
-93.2573
11
112.678
21
-92.4445
0
LINE
8
Black
10
112.678
20
-92.4445
11
113.822
21
-92.4445
0
LINE
8
Black
10
113.822
20
-92.4445
11
113.822
21
-93.2573
0
LINE
8
Black
10
116.322
20
-93.0555
11
115.178
21
-93.0555
0
LINE
8
Black
10
115.178
20
-93.0555
11
115.178
21
-92.2427
0
LINE
8
Black
10
115.178
20
-92.2427
11
116.322
21
-92.2427
0
LINE
8
Black
10
116.322
20
-92.2427
11
116.322
21
-93.0555
0
LINE
8
Black
10
105.206
20
-92.725
11
103.906
21
-92.725
0
LINE
8
Black
10
103.906
20
-92.725
11
103.906
21
-92.325
0
LINE
8
Black
10
103.906
20
-92.325
11
105.206
21
-92.325
0
LINE
8
Black
10
105.206
20
-92.325
11
105.206
21
-92.725
0
LINE
8
Black
10
110.794
20
-92.725
11
109.494
21
-92.725
0
LINE
8
Black
10
109.494
20
-92.725
11
109.494
21
-92.325
0
LINE
8
Black
10
109.494
20
-92.325
11
110.794
21
-92.325
0
LINE
8
Black
10
110.794
20
-92.325
11
110.794
21
-92.725
0
LINE
8
Black
10
136.757
20
-92.5715
11
135.945
21
-92.5715
0
LINE
8
Black
10
135.945
20
-92.5715
11
135.945
21
-91.4285
0
LINE
8
Black
10
135.945
20
-91.4285
11
136.757
21
-91.4285
0
LINE
8
Black
10
136.757
20
-91.4285
11
136.757
21
-92.5715
0
LINE
8
Black
10
135.055
20
-92.5715
11
134.243
21
-92.5715
0
LINE
8
Black
10
134.243
20
-92.5715
11
134.243
21
-91.4285
0
LINE
8
Black
10
134.243
20
-91.4285
11
135.055
21
-91.4285
0
LINE
8
Black
10
135.055
20
-91.4285
11
135.055
21
-92.5715
0
LINE
8
Black
10
118.881
20
-92.0494
11
118.119
21
-92.0494
0
LINE
8
Black
10
118.119
20
-92.0494
11
118.119
21
-91.4398
0
LINE
8
Black
10
118.119
20
-91.4398
11
118.881
21
-91.4398
0
LINE
8
Black
10
118.881
20
-91.4398
11
118.881
21
-92.0494
0
LINE
8
Black
10
104.822
20
-91.7573
11
103.678
21
-91.7573
0
LINE
8
Black
10
103.678
20
-91.7573
11
103.678
21
-90.9445
0
LINE
8
Black
10
103.678
20
-90.9445
11
104.822
21
-90.9445
0
LINE
8
Black
10
104.822
20
-90.9445
11
104.822
21
-91.7573
0
LINE
8
Black
10
106.31
20
-91.631
11
105.701
21
-91.631
0
LINE
8
Black
10
105.701
20
-91.631
11
105.701
21
-90.869
0
LINE
8
Black
10
105.701
20
-90.869
11
106.31
21
-90.869
0
LINE
8
Black
10
106.31
20
-90.869
11
106.31
21
-91.631
0
LINE
8
Black
10
108.799
20
-91.631
11
108.19
21
-91.631
0
LINE
8
Black
10
108.19
20
-91.631
11
108.19
21
-90.869
0
LINE
8
Black
10
108.19
20
-90.869
11
108.799
21
-90.869
0
LINE
8
Black
10
108.799
20
-90.869
11
108.799
21
-91.631
0
LINE
8
Black
10
88.3055
20
-91.5715
11
87.4927
21
-91.5715
0
LINE
8
Black
10
87.4927
20
-91.5715
11
87.4927
21
-90.4285
0
LINE
8
Black
10
87.4927
20
-90.4285
11
88.3055
21
-90.4285
0
LINE
8
Black
10
88.3055
20
-90.4285
11
88.3055
21
-91.5715
0
LINE
8
Black
10
112.007
20
-91.5715
11
111.194
21
-91.5715
0
LINE
8
Black
10
111.194
20
-91.5715
11
111.194
21
-90.4285
0
LINE
8
Black
10
111.194
20
-90.4285
11
112.007
21
-90.4285
0
LINE
8
Black
10
112.007
20
-90.4285
11
112.007
21
-91.5715
0
LINE
8
Black
10
115.805
20
-91.5715
11
114.993
21
-91.5715
0
LINE
8
Black
10
114.993
20
-91.5715
11
114.993
21
-90.4285
0
LINE
8
Black
10
114.993
20
-90.4285
11
115.805
21
-90.4285
0
LINE
8
Black
10
115.805
20
-90.4285
11
115.805
21
-91.5715
0
LINE
8
Black
10
117.507
20
-91.5715
11
116.694
21
-91.5715
0
LINE
8
Black
10
116.694
20
-91.5715
11
116.694
21
-90.4285
0
LINE
8
Black
10
116.694
20
-90.4285
11
117.507
21
-90.4285
0
LINE
8
Black
10
117.507
20
-90.4285
11
117.507
21
-91.5715
0
LINE
8
Black
10
110.305
20
-91.5715
11
109.493
21
-91.5715
0
LINE
8
Black
10
109.493
20
-91.5715
11
109.493
21
-90.4285
0
LINE
8
Black
10
109.493
20
-90.4285
11
110.305
21
-90.4285
0
LINE
8
Black
10
110.305
20
-90.4285
11
110.305
21
-91.5715
0
LINE
8
Black
10
90.0073
20
-91.5715
11
89.1945
21
-91.5715
0
LINE
8
Black
10
89.1945
20
-91.5715
11
89.1945
21
-90.4285
0
LINE
8
Black
10
89.1945
20
-90.4285
11
90.0073
21
-90.4285
0
LINE
8
Black
10
90.0073
20
-90.4285
11
90.0073
21
-91.5715
0
LINE
8
Black
10
113.822
20
-91.5555
11
112.678
21
-91.5555
0
LINE
8
Black
10
112.678
20
-91.5555
11
112.678
21
-90.7427
0
LINE
8
Black
10
112.678
20
-90.7427
11
113.822
21
-90.7427
0
LINE
8
Black
10
113.822
20
-90.7427
11
113.822
21
-91.5555
0
LINE
8
Black
10
95.1985
20
-91.492
11
93.8015
21
-91.492
0
LINE
8
Black
10
93.8015
20
-91.492
11
93.8015
21
-90.349
0
LINE
8
Black
10
93.8015
20
-90.349
11
95.1985
21
-90.349
0
LINE
8
Black
10
95.1985
20
-90.349
11
95.1985
21
-91.492
0
LINE
8
Black
10
128.6
20
-91.3
11
127.4
21
-91.3
0
LINE
8
Black
10
127.4
20
-91.3
11
127.4
21
-90.1
0
LINE
8
Black
10
127.4
20
-90.1
11
128.6
21
-90.1
0
LINE
8
Black
10
128.6
20
-90.1
11
128.6
21
-91.3
0
LINE
8
Black
10
130.6
20
-91.3
11
129.4
21
-91.3
0
LINE
8
Black
10
129.4
20
-91.3
11
129.4
21
-90.1
0
LINE
8
Black
10
129.4
20
-90.1
11
130.6
21
-90.1
0
LINE
8
Black
10
130.6
20
-90.1
11
130.6
21
-91.3
0
LINE
8
Black
10
97.825
20
-91.25
11
97.175
21
-91.25
0
LINE
8
Black
10
97.175
20
-91.25
11
97.175
21
-90.35
0
LINE
8
Black
10
97.175
20
-90.35
11
97.825
21
-90.35
0
LINE
8
Black
10
97.825
20
-90.35
11
97.825
21
-91.25
0
LINE
8
Black
10
96.875
20
-91.25
11
96.225
21
-91.25
0
LINE
8
Black
10
96.225
20
-91.25
11
96.225
21
-90.35
0
LINE
8
Black
10
96.225
20
-90.35
11
96.875
21
-90.35
0
LINE
8
Black
10
96.875
20
-90.35
11
96.875
21
-91.25
0
LINE
8
Black
10
98.775
20
-91.25
11
98.125
21
-91.25
0
LINE
8
Black
10
98.125
20
-91.25
11
98.125
21
-90.35
0
LINE
8
Black
10
98.125
20
-90.35
11
98.775
21
-90.35
0
LINE
8
Black
10
98.775
20
-90.35
11
98.775
21
-91.25
0
LINE
8
Black
10
136.757
20
-90.5715
11
135.945
21
-90.5715
0
LINE
8
Black
10
135.945
20
-90.5715
11
135.945
21
-89.4285
0
LINE
8
Black
10
135.945
20
-89.4285
11
136.757
21
-89.4285
0
LINE
8
Black
10
136.757
20
-89.4285
11
136.757
21
-90.5715
0
LINE
8
Black
10
135.055
20
-90.5715
11
134.243
21
-90.5715
0
LINE
8
Black
10
134.243
20
-90.5715
11
134.243
21
-89.4285
0
LINE
8
Black
10
134.243
20
-89.4285
11
135.055
21
-89.4285
0
LINE
8
Black
10
135.055
20
-89.4285
11
135.055
21
-90.5715
0
LINE
8
Black
10
112.007
20
-90.0715
11
111.194
21
-90.0715
0
LINE
8
Black
10
111.194
20
-90.0715
11
111.194
21
-88.9285
0
LINE
8
Black
10
111.194
20
-88.9285
11
112.007
21
-88.9285
0
LINE
8
Black
10
112.007
20
-88.9285
11
112.007
21
-90.0715
0
LINE
8
Black
10
110.305
20
-90.0715
11
109.493
21
-90.0715
0
LINE
8
Black
10
109.493
20
-90.0715
11
109.493
21
-88.9285
0
LINE
8
Black
10
109.493
20
-88.9285
11
110.305
21
-88.9285
0
LINE
8
Black
10
110.305
20
-88.9285
11
110.305
21
-90.0715
0
LINE
8
Black
10
104.822
20
-90.0555
11
103.678
21
-90.0555
0
LINE
8
Black
10
103.678
20
-90.0555
11
103.678
21
-89.2427
0
LINE
8
Black
10
103.678
20
-89.2427
11
104.822
21
-89.2427
0
LINE
8
Black
10
104.822
20
-89.2427
11
104.822
21
-90.0555
0
LINE
8
Black
10
88.2573
20
-89.8215
11
87.4445
21
-89.8215
0
LINE
8
Black
10
87.4445
20
-89.8215
11
87.4445
21
-88.6785
0
LINE
8
Black
10
87.4445
20
-88.6785
11
88.2573
21
-88.6785
0
LINE
8
Black
10
88.2573
20
-88.6785
11
88.2573
21
-89.8215
0
LINE
8
Black
10
86.5555
20
-89.8215
11
85.7427
21
-89.8215
0
LINE
8
Black
10
85.7427
20
-89.8215
11
85.7427
21
-88.6785
0
LINE
8
Black
10
85.7427
20
-88.6785
11
86.5555
21
-88.6785
0
LINE
8
Black
10
86.5555
20
-88.6785
11
86.5555
21
-89.8215
0
LINE
8
Black
10
118.881
20
-89.5602
11
118.119
21
-89.5602
0
LINE
8
Black
10
118.119
20
-89.5602
11
118.119
21
-88.9506
0
LINE
8
Black
10
118.119
20
-88.9506
11
118.881
21
-88.9506
0
LINE
8
Black
10
118.881
20
-88.9506
11
118.881
21
-89.5602
0
LINE
8
Black
10
98.3215
20
-89.2573
11
97.1785
21
-89.2573
0
LINE
8
Black
10
97.1785
20
-89.2573
11
97.1785
21
-88.4445
0
LINE
8
Black
10
97.1785
20
-88.4445
11
98.3215
21
-88.4445
0
LINE
8
Black
10
98.3215
20
-88.4445
11
98.3215
21
-89.2573
0
LINE
8
Black
10
95.8215
20
-89.2573
11
94.6785
21
-89.2573
0
LINE
8
Black
10
94.6785
20
-89.2573
11
94.6785
21
-88.4445
0
LINE
8
Black
10
94.6785
20
-88.4445
11
95.8215
21
-88.4445
0
LINE
8
Black
10
95.8215
20
-88.4445
11
95.8215
21
-89.2573
0
LINE
8
Black
10
106.9
20
-89.25
11
106.3
21
-89.25
0
LINE
8
Black
10
106.3
20
-89.25
11
106.3
21
-88.75
0
LINE
8
Black
10
106.3
20
-88.75
11
106.9
21
-88.75
0
LINE
8
Black
10
106.9
20
-88.75
11
106.9
21
-89.25
0
LINE
8
Black
10
108.2
20
-88.75
11
107.6
21
-88.75
0
LINE
8
Black
10
107.6
20
-88.75
11
107.6
21
-88.25
0
LINE
8
Black
10
107.6
20
-88.25
11
108.2
21
-88.25
0
LINE
8
Black
10
108.2
20
-88.25
11
108.2
21
-88.75
0
LINE
8
Black
10
120.822
20
-88.5073
11
119.678
21
-88.5073
0
LINE
8
Black
10
119.678
20
-88.5073
11
119.678
21
-87.6945
0
LINE
8
Black
10
119.678
20
-87.6945
11
120.822
21
-87.6945
0
LINE
8
Black
10
120.822
20
-87.6945
11
120.822
21
-88.5073
0
LINE
8
Black
10
119.072
20
-88.5073
11
117.928
21
-88.5073
0
LINE
8
Black
10
117.928
20
-88.5073
11
117.928
21
-87.6945
0
LINE
8
Black
10
117.928
20
-87.6945
11
119.072
21
-87.6945
0
LINE
8
Black
10
119.072
20
-87.6945
11
119.072
21
-88.5073
0
LINE
8
Black
10
197.321
20
-88.5073
11
196.178
21
-88.5073
0
LINE
8
Black
10
196.178
20
-88.5073
11
196.178
21
-87.6945
0
LINE
8
Black
10
196.178
20
-87.6945
11
197.321
21
-87.6945
0
LINE
8
Black
10
197.321
20
-87.6945
11
197.321
21
-88.5073
0
LINE
8
Black
10
122.572
20
-88.5073
11
121.428
21
-88.5073
0
LINE
8
Black
10
121.428
20
-88.5073
11
121.428
21
-87.6945
0
LINE
8
Black
10
121.428
20
-87.6945
11
122.572
21
-87.6945
0
LINE
8
Black
10
122.572
20
-87.6945
11
122.572
21
-88.5073
0
LINE
8
Black
10
136.05
20
-88.4495
11
134.45
21
-88.4495
0
LINE
8
Black
10
134.45
20
-88.4495
11
134.45
21
-85.4498
0
LINE
8
Black
10
134.45
20
-85.4498
11
136.05
21
-85.4498
0
LINE
8
Black
10
136.05
20
-85.4498
11
136.05
21
-88.4495
0
LINE
8
Black
10
110.305
20
-88.3215
11
109.493
21
-88.3215
0
LINE
8
Black
10
109.493
20
-88.3215
11
109.493
21
-87.1785
0
LINE
8
Black
10
109.493
20
-87.1785
11
110.305
21
-87.1785
0
LINE
8
Black
10
110.305
20
-87.1785
11
110.305
21
-88.3215
0
LINE
8
Black
10
112.007
20
-88.3215
11
111.194
21
-88.3215
0
LINE
8
Black
10
111.194
20
-88.3215
11
111.194
21
-87.1785
0
LINE
8
Black
10
111.194
20
-87.1785
11
112.007
21
-87.1785
0
LINE
8
Black
10
112.007
20
-87.1785
11
112.007
21
-88.3215
0
LINE
8
Black
10
106.9
20
-88.25
11
106.3
21
-88.25
0
LINE
8
Black
10
106.3
20
-88.25
11
106.3
21
-87.75
0
LINE
8
Black
10
106.3
20
-87.75
11
106.9
21
-87.75
0
LINE
8
Black
10
106.9
20
-87.75
11
106.9
21
-88.25
0
LINE
8
Black
10
86.5555
20
-88.0715
11
85.7427
21
-88.0715
0
LINE
8
Black
10
85.7427
20
-88.0715
11
85.7427
21
-86.9285
0
LINE
8
Black
10
85.7427
20
-86.9285
11
86.5555
21
-86.9285
0
LINE
8
Black
10
86.5555
20
-86.9285
11
86.5555
21
-88.0715
0
LINE
8
Black
10
88.2573
20
-88.0715
11
87.4445
21
-88.0715
0
LINE
8
Black
10
87.4445
20
-88.0715
11
87.4445
21
-86.9285
0
LINE
8
Black
10
87.4445
20
-86.9285
11
88.2573
21
-86.9285
0
LINE
8
Black
10
88.2573
20
-86.9285
11
88.2573
21
-88.0715
0
LINE
8
Black
10
148.071
20
-87.7573
11
146.928
21
-87.7573
0
LINE
8
Black
10
146.928
20
-87.7573
11
146.928
21
-86.9445
0
LINE
8
Black
10
146.928
20
-86.9445
11
148.071
21
-86.9445
0
LINE
8
Black
10
148.071
20
-86.9445
11
148.071
21
-87.7573
0
LINE
8
Black
10
95.8215
20
-87.5555
11
94.6785
21
-87.5555
0
LINE
8
Black
10
94.6785
20
-87.5555
11
94.6785
21
-86.7427
0
LINE
8
Black
10
94.6785
20
-86.7427
11
95.8215
21
-86.7427
0
LINE
8
Black
10
95.8215
20
-86.7427
11
95.8215
21
-87.5555
0
LINE
8
Black
10
98.3215
20
-87.5555
11
97.1785
21
-87.5555
0
LINE
8
Black
10
97.1785
20
-87.5555
11
97.1785
21
-86.7427
0
LINE
8
Black
10
97.1785
20
-86.7427
11
98.3215
21
-86.7427
0
LINE
8
Black
10
98.3215
20
-86.7427
11
98.3215
21
-87.5555
0
LINE
8
Black
10
122.572
20
-86.8055
11
121.428
21
-86.8055
0
LINE
8
Black
10
121.428
20
-86.8055
11
121.428
21
-85.9927
0
LINE
8
Black
10
121.428
20
-85.9927
11
122.572
21
-85.9927
0
LINE
8
Black
10
122.572
20
-85.9927
11
122.572
21
-86.8055
0
LINE
8
Black
10
120.822
20
-86.8055
11
119.678
21
-86.8055
0
LINE
8
Black
10
119.678
20
-86.8055
11
119.678
21
-85.9927
0
LINE
8
Black
10
119.678
20
-85.9927
11
120.822
21
-85.9927
0
LINE
8
Black
10
120.822
20
-85.9927
11
120.822
21
-86.8055
0
LINE
8
Black
10
119.072
20
-86.8055
11
117.928
21
-86.8055
0
LINE
8
Black
10
117.928
20
-86.8055
11
117.928
21
-85.9927
0
LINE
8
Black
10
117.928
20
-85.9927
11
119.072
21
-85.9927
0
LINE
8
Black
10
119.072
20
-85.9927
11
119.072
21
-86.8055
0
LINE
8
Black
10
197.321
20
-86.8055
11
196.178
21
-86.8055
0
LINE
8
Black
10
196.178
20
-86.8055
11
196.178
21
-85.9927
0
LINE
8
Black
10
196.178
20
-85.9927
11
197.321
21
-85.9927
0
LINE
8
Black
10
197.321
20
-85.9927
11
197.321
21
-86.8055
0
LINE
8
Black
10
128.305
20
-86.5715
11
127.493
21
-86.5715
0
LINE
8
Black
10
127.493
20
-86.5715
11
127.493
21
-85.4285
0
LINE
8
Black
10
127.493
20
-85.4285
11
128.305
21
-85.4285
0
LINE
8
Black
10
128.305
20
-85.4285
11
128.305
21
-86.5715
0
LINE
8
Black
10
130.007
20
-86.5715
11
129.195
21
-86.5715
0
LINE
8
Black
10
129.195
20
-86.5715
11
129.195
21
-85.4285
0
LINE
8
Black
10
129.195
20
-85.4285
11
130.007
21
-85.4285
0
LINE
8
Black
10
130.007
20
-85.4285
11
130.007
21
-86.5715
0
LINE
8
Black
10
88.525
20
-86.15
11
87.875
21
-86.15
0
LINE
8
Black
10
87.875
20
-86.15
11
87.875
21
-85.25
0
LINE
8
Black
10
87.875
20
-85.25
11
88.525
21
-85.25
0
LINE
8
Black
10
88.525
20
-85.25
11
88.525
21
-86.15
0
LINE
8
Black
10
86.625
20
-86.15
11
85.975
21
-86.15
0
LINE
8
Black
10
85.975
20
-86.15
11
85.975
21
-85.25
0
LINE
8
Black
10
85.975
20
-85.25
11
86.625
21
-85.25
0
LINE
8
Black
10
86.625
20
-85.25
11
86.625
21
-86.15
0
LINE
8
Black
10
106.257
20
-86.0715
11
105.444
21
-86.0715
0
LINE
8
Black
10
105.444
20
-86.0715
11
105.444
21
-84.9285
0
LINE
8
Black
10
105.444
20
-84.9285
11
106.257
21
-84.9285
0
LINE
8
Black
10
106.257
20
-84.9285
11
106.257
21
-86.0715
0
LINE
8
Black
10
110.007
20
-86.0715
11
109.194
21
-86.0715
0
LINE
8
Black
10
109.194
20
-86.0715
11
109.194
21
-84.9285
0
LINE
8
Black
10
109.194
20
-84.9285
11
110.007
21
-84.9285
0
LINE
8
Black
10
110.007
20
-84.9285
11
110.007
21
-86.0715
0
LINE
8
Black
10
108.305
20
-86.0715
11
107.493
21
-86.0715
0
LINE
8
Black
10
107.493
20
-86.0715
11
107.493
21
-84.9285
0
LINE
8
Black
10
107.493
20
-84.9285
11
108.305
21
-84.9285
0
LINE
8
Black
10
108.305
20
-84.9285
11
108.305
21
-86.0715
0
LINE
8
Black
10
104.555
20
-86.0715
11
103.743
21
-86.0715
0
LINE
8
Black
10
103.743
20
-86.0715
11
103.743
21
-84.9285
0
LINE
8
Black
10
103.743
20
-84.9285
11
104.555
21
-84.9285
0
LINE
8
Black
10
104.555
20
-84.9285
11
104.555
21
-86.0715
0
LINE
8
Black
10
148.071
20
-86.0555
11
146.928
21
-86.0555
0
LINE
8
Black
10
146.928
20
-86.0555
11
146.928
21
-85.2427
0
LINE
8
Black
10
146.928
20
-85.2427
11
148.071
21
-85.2427
0
LINE
8
Black
10
148.071
20
-85.2427
11
148.071
21
-86.0555
0
LINE
8
Black
10
155.2
20
-85.35
11
154.3
21
-85.35
0
LINE
8
Black
10
154.3
20
-85.35
11
154.3
21
-84.55
0
LINE
8
Black
10
154.3
20
-84.55
11
155.2
21
-84.55
0
LINE
8
Black
10
155.2
20
-84.55
11
155.2
21
-85.35
0
LINE
8
Black
10
102.822
20
-85.2573
11
101.678
21
-85.2573
0
LINE
8
Black
10
101.678
20
-85.2573
11
101.678
21
-84.4445
0
LINE
8
Black
10
101.678
20
-84.4445
11
102.822
21
-84.4445
0
LINE
8
Black
10
102.822
20
-84.4445
11
102.822
21
-85.2573
0
LINE
8
Black
10
100.322
20
-85.2573
11
99.1785
21
-85.2573
0
LINE
8
Black
10
99.1785
20
-85.2573
11
99.1785
21
-84.4445
0
LINE
8
Black
10
99.1785
20
-84.4445
11
100.322
21
-84.4445
0
LINE
8
Black
10
100.322
20
-84.4445
11
100.322
21
-85.2573
0
LINE
8
Black
10
98.0442
20
-85.1681
11
96.7438
21
-85.1681
0
LINE
8
Black
10
96.7438
20
-85.1681
11
96.7438
21
-84.7681
0
LINE
8
Black
10
96.7438
20
-84.7681
11
98.0442
21
-84.7681
0
LINE
8
Black
10
98.0442
20
-84.7681
11
98.0442
21
-85.1681
0
LINE
8
Black
10
92.4562
20
-85.1554
11
91.1558
21
-85.1554
0
LINE
8
Black
10
91.1558
20
-85.1554
11
91.1558
21
-84.7554
0
LINE
8
Black
10
91.1558
20
-84.7554
11
92.4562
21
-84.7554
0
LINE
8
Black
10
92.4562
20
-84.7554
11
92.4562
21
-85.1554
0
LINE
8
Black
10
198.4
20
-85.025
11
197.5
21
-85.025
0
LINE
8
Black
10
197.5
20
-85.025
11
197.5
21
-84.375
0
LINE
8
Black
10
197.5
20
-84.375
11
198.4
21
-84.375
0
LINE
8
Black
10
198.4
20
-84.375
11
198.4
21
-85.025
0
LINE
8
Black
10
196
20
-85.025
11
195.1
21
-85.025
0
LINE
8
Black
10
195.1
20
-85.025
11
195.1
21
-84.375
0
LINE
8
Black
10
195.1
20
-84.375
11
196
21
-84.375
0
LINE
8
Black
10
196
20
-84.375
11
196
21
-85.025
0
LINE
8
Black
10
204.321
20
-85.0073
11
203.178
21
-85.0073
0
LINE
8
Black
10
203.178
20
-85.0073
11
203.178
21
-84.1945
0
LINE
8
Black
10
203.178
20
-84.1945
11
204.321
21
-84.1945
0
LINE
8
Black
10
204.321
20
-84.1945
11
204.321
21
-85.0073
0
LINE
8
Black
10
200.821
20
-85.0073
11
199.678
21
-85.0073
0
LINE
8
Black
10
199.678
20
-85.0073
11
199.678
21
-84.1945
0
LINE
8
Black
10
199.678
20
-84.1945
11
200.821
21
-84.1945
0
LINE
8
Black
10
200.821
20
-84.1945
11
200.821
21
-85.0073
0
LINE
8
Black
10
202.571
20
-85.0073
11
201.428
21
-85.0073
0
LINE
8
Black
10
201.428
20
-85.0073
11
201.428
21
-84.1945
0
LINE
8
Black
10
201.428
20
-84.1945
11
202.571
21
-84.1945
0
LINE
8
Black
10
202.571
20
-84.1945
11
202.571
21
-85.0073
0
LINE
8
Black
10
144.571
20
-84.7573
11
143.428
21
-84.7573
0
LINE
8
Black
10
143.428
20
-84.7573
11
143.428
21
-83.9445
0
LINE
8
Black
10
143.428
20
-83.9445
11
144.571
21
-83.9445
0
LINE
8
Black
10
144.571
20
-83.9445
11
144.571
21
-84.7573
0
LINE
8
Black
10
149.821
20
-84.7573
11
148.678
21
-84.7573
0
LINE
8
Black
10
148.678
20
-84.7573
11
148.678
21
-83.9445
0
LINE
8
Black
10
148.678
20
-83.9445
11
149.821
21
-83.9445
0
LINE
8
Black
10
149.821
20
-83.9445
11
149.821
21
-84.7573
0
LINE
8
Black
10
146.321
20
-84.7573
11
145.178
21
-84.7573
0
LINE
8
Black
10
145.178
20
-84.7573
11
145.178
21
-83.9445
0
LINE
8
Black
10
145.178
20
-83.9445
11
146.321
21
-83.9445
0
LINE
8
Black
10
146.321
20
-83.9445
11
146.321
21
-84.7573
0
LINE
8
Black
10
148.071
20
-84.7573
11
146.928
21
-84.7573
0
LINE
8
Black
10
146.928
20
-84.7573
11
146.928
21
-83.9445
0
LINE
8
Black
10
146.928
20
-83.9445
11
148.071
21
-83.9445
0
LINE
8
Black
10
148.071
20
-83.9445
11
148.071
21
-84.7573
0
LINE
8
Black
10
219.05
20
-84.6995
11
217.45
21
-84.6995
0
LINE
8
Black
10
217.45
20
-84.6995
11
217.45
21
-81.6998
0
LINE
8
Black
10
217.45
20
-81.6998
11
219.05
21
-81.6998
0
LINE
8
Black
10
219.05
20
-81.6998
11
219.05
21
-84.6995
0
LINE
8
Black
10
123.794
20
-84.6681
11
122.494
21
-84.6681
0
LINE
8
Black
10
122.494
20
-84.6681
11
122.494
21
-84.2681
0
LINE
8
Black
10
122.494
20
-84.2681
11
123.794
21
-84.2681
0
LINE
8
Black
10
123.794
20
-84.2681
11
123.794
21
-84.6681
0
LINE
8
Black
10
118.206
20
-84.6554
11
116.906
21
-84.6554
0
LINE
8
Black
10
116.906
20
-84.6554
11
116.906
21
-84.2554
0
LINE
8
Black
10
116.906
20
-84.2554
11
118.206
21
-84.2554
0
LINE
8
Black
10
118.206
20
-84.2554
11
118.206
21
-84.6554
0
LINE
8
Black
10
213.449
20
-84.6485
11
211.051
21
-84.6485
0
LINE
8
Black
10
211.051
20
-84.6485
11
211.051
21
-82.2508
0
LINE
8
Black
10
211.051
20
-82.2508
11
213.449
21
-82.2508
0
LINE
8
Black
10
213.449
20
-82.2508
11
213.449
21
-84.6485
0
LINE
8
Black
10
169.7
20
-84.6
11
168.8
21
-84.6
0
LINE
8
Black
10
168.8
20
-84.6
11
168.8
21
-83.8
0
LINE
8
Black
10
168.8
20
-83.8
11
169.7
21
-83.8
0
LINE
8
Black
10
169.7
20
-83.8
11
169.7
21
-84.6
0
LINE
8
Black
10
92.4562
20
-84.5204
11
91.1558
21
-84.5204
0
LINE
8
Black
10
91.1558
20
-84.5204
11
91.1558
21
-84.1204
0
LINE
8
Black
10
91.1558
20
-84.1204
11
92.4562
21
-84.1204
0
LINE
8
Black
10
92.4562
20
-84.1204
11
92.4562
21
-84.5204
0
LINE
8
Black
10
98.0442
20
-84.5204
11
96.7438
21
-84.5204
0
LINE
8
Black
10
96.7438
20
-84.5204
11
96.7438
21
-84.1204
0
LINE
8
Black
10
96.7438
20
-84.1204
11
98.0442
21
-84.1204
0
LINE
8
Black
10
98.0442
20
-84.1204
11
98.0442
21
-84.5204
0
LINE
8
Black
10
106.148
20
-84.5204
11
105.447
21
-84.5204
0
LINE
8
Black
10
105.447
20
-84.5204
11
105.447
21
-83.5196
0
LINE
8
Black
10
105.447
20
-83.5196
11
106.148
21
-83.5196
0
LINE
8
Black
10
106.148
20
-83.5196
11
106.148
21
-84.5204
0
LINE
8
Black
10
108.053
20
-84.5204
11
107.352
21
-84.5204
0
LINE
8
Black
10
107.352
20
-84.5204
11
107.352
21
-83.5196
0
LINE
8
Black
10
107.352
20
-83.5196
11
108.053
21
-83.5196
0
LINE
8
Black
10
108.053
20
-83.5196
11
108.053
21
-84.5204
0
LINE
8
Black
10
162.321
20
-84.5073
11
161.178
21
-84.5073
0
LINE
8
Black
10
161.178
20
-84.5073
11
161.178
21
-83.6945
0
LINE
8
Black
10
161.178
20
-83.6945
11
162.321
21
-83.6945
0
LINE
8
Black
10
162.321
20
-83.6945
11
162.321
21
-84.5073
0
LINE
8
Black
10
165.821
20
-84.5073
11
164.678
21
-84.5073
0
LINE
8
Black
10
164.678
20
-84.5073
11
164.678
21
-83.6945
0
LINE
8
Black
10
164.678
20
-83.6945
11
165.821
21
-83.6945
0
LINE
8
Black
10
165.821
20
-83.6945
11
165.821
21
-84.5073
0
LINE
8
Black
10
126.572
20
-84.5073
11
125.428
21
-84.5073
0
LINE
8
Black
10
125.428
20
-84.5073
11
125.428
21
-83.6945
0
LINE
8
Black
10
125.428
20
-83.6945
11
126.572
21
-83.6945
0
LINE
8
Black
10
126.572
20
-83.6945
11
126.572
21
-84.5073
0
LINE
8
Black
10
128.321
20
-84.5073
11
127.178
21
-84.5073
0
LINE
8
Black
10
127.178
20
-84.5073
11
127.178
21
-83.6945
0
LINE
8
Black
10
127.178
20
-83.6945
11
128.321
21
-83.6945
0
LINE
8
Black
10
128.321
20
-83.6945
11
128.321
21
-84.5073
0
LINE
8
Black
10
164.071
20
-84.5073
11
162.928
21
-84.5073
0
LINE
8
Black
10
162.928
20
-84.5073
11
162.928
21
-83.6945
0
LINE
8
Black
10
162.928
20
-83.6945
11
164.071
21
-83.6945
0
LINE
8
Black
10
164.071
20
-83.6945
11
164.071
21
-84.5073
0
LINE
8
Black
10
130.321
20
-84.5073
11
129.178
21
-84.5073
0
LINE
8
Black
10
129.178
20
-84.5073
11
129.178
21
-83.6945
0
LINE
8
Black
10
129.178
20
-83.6945
11
130.321
21
-83.6945
0
LINE
8
Black
10
130.321
20
-83.6945
11
130.321
21
-84.5073
0
LINE
8
Black
10
160.571
20
-84.5073
11
159.428
21
-84.5073
0
LINE
8
Black
10
159.428
20
-84.5073
11
159.428
21
-83.6945
0
LINE
8
Black
10
159.428
20
-83.6945
11
160.571
21
-83.6945
0
LINE
8
Black
10
160.571
20
-83.6945
11
160.571
21
-84.5073
0
LINE
8
Black
10
153.2
20
-84.4
11
152.3
21
-84.4
0
LINE
8
Black
10
152.3
20
-84.4
11
152.3
21
-83.6
0
LINE
8
Black
10
152.3
20
-83.6
11
153.2
21
-83.6
0
LINE
8
Black
10
153.2
20
-83.6
11
153.2
21
-84.4
0
LINE
8
Black
10
223.625
20
-84.25
11
222.375
21
-84.25
0
LINE
8
Black
10
222.375
20
-84.25
11
222.375
21
-83.25
0
LINE
8
Black
10
222.375
20
-83.25
11
223.625
21
-83.25
0
LINE
8
Black
10
223.625
20
-83.25
11
223.625
21
-84.25
0
LINE
8
Black
10
196
20
-84.075
11
195.1
21
-84.075
0
LINE
8
Black
10
195.1
20
-84.075
11
195.1
21
-83.425
0
LINE
8
Black
10
195.1
20
-83.425
11
196
21
-83.425
0
LINE
8
Black
10
196
20
-83.425
11
196
21
-84.075
0
LINE
8
Black
10
136.05
20
-84.0502
11
134.45
21
-84.0502
0
LINE
8
Black
10
134.45
20
-84.0502
11
134.45
21
-81.0505
0
LINE
8
Black
10
134.45
20
-81.0505
11
136.05
21
-81.0505
0
LINE
8
Black
10
136.05
20
-81.0505
11
136.05
21
-84.0502
0
LINE
8
Black
10
114.9
20
-84.025
11
114
21
-84.025
0
LINE
8
Black
10
114
20
-84.025
11
114
21
-83.375
0
LINE
8
Black
10
114
20
-83.375
11
114.9
21
-83.375
0
LINE
8
Black
10
114.9
20
-83.375
11
114.9
21
-84.025
0
LINE
8
Black
10
112.5
20
-84.025
11
111.6
21
-84.025
0
LINE
8
Black
10
111.6
20
-84.025
11
111.6
21
-83.375
0
LINE
8
Black
10
111.6
20
-83.375
11
112.5
21
-83.375
0
LINE
8
Black
10
112.5
20
-83.375
11
112.5
21
-84.025
0
LINE
8
Black
10
118.206
20
-84.0204
11
116.906
21
-84.0204
0
LINE
8
Black
10
116.906
20
-84.0204
11
116.906
21
-83.6204
0
LINE
8
Black
10
116.906
20
-83.6204
11
118.206
21
-83.6204
0
LINE
8
Black
10
118.206
20
-83.6204
11
118.206
21
-84.0204
0
LINE
8
Black
10
123.794
20
-84.0204
11
122.494
21
-84.0204
0
LINE
8
Black
10
122.494
20
-84.0204
11
122.494
21
-83.6204
0
LINE
8
Black
10
122.494
20
-83.6204
11
123.794
21
-83.6204
0
LINE
8
Black
10
123.794
20
-83.6204
11
123.794
21
-84.0204
0
LINE
8
Black
10
98.0442
20
-83.8727
11
96.7438
21
-83.8727
0
LINE
8
Black
10
96.7438
20
-83.8727
11
96.7438
21
-83.4727
0
LINE
8
Black
10
96.7438
20
-83.4727
11
98.0442
21
-83.4727
0
LINE
8
Black
10
98.0442
20
-83.4727
11
98.0442
21
-83.8727
0
LINE
8
Black
10
92.4562
20
-83.86
11
91.1558
21
-83.86
0
LINE
8
Black
10
91.1558
20
-83.86
11
91.1558
21
-83.46
0
LINE
8
Black
10
91.1558
20
-83.46
11
92.4562
21
-83.46
0
LINE
8
Black
10
92.4562
20
-83.46
11
92.4562
21
-83.86
0
LINE
8
Black
10
183.757
20
-83.8215
11
182.945
21
-83.8215
0
LINE
8
Black
10
182.945
20
-83.8215
11
182.945
21
-82.6785
0
LINE
8
Black
10
182.945
20
-82.6785
11
183.757
21
-82.6785
0
LINE
8
Black
10
183.757
20
-82.6785
11
183.757
21
-83.8215
0
LINE
8
Black
10
182.055
20
-83.8215
11
181.243
21
-83.8215
0
LINE
8
Black
10
181.243
20
-83.8215
11
181.243
21
-82.6785
0
LINE
8
Black
10
181.243
20
-82.6785
11
182.055
21
-82.6785
0
LINE
8
Black
10
182.055
20
-82.6785
11
182.055
21
-83.8215
0
LINE
8
Black
10
180.257
20
-83.8215
11
179.445
21
-83.8215
0
LINE
8
Black
10
179.445
20
-83.8215
11
179.445
21
-82.6785
0
LINE
8
Black
10
179.445
20
-82.6785
11
180.257
21
-82.6785
0
LINE
8
Black
10
180.257
20
-82.6785
11
180.257
21
-83.8215
0
LINE
8
Black
10
178.555
20
-83.8215
11
177.743
21
-83.8215
0
LINE
8
Black
10
177.743
20
-83.8215
11
177.743
21
-82.6785
0
LINE
8
Black
10
177.743
20
-82.6785
11
178.555
21
-82.6785
0
LINE
8
Black
10
178.555
20
-82.6785
11
178.555
21
-83.8215
0
LINE
8
Black
10
176.851
20
-83.8001
11
174.25
21
-83.8001
0
LINE
8
Black
10
174.25
20
-83.8001
11
174.25
21
-82.1999
0
LINE
8
Black
10
174.25
20
-82.1999
11
176.851
21
-82.1999
0
LINE
8
Black
10
176.851
20
-82.1999
11
176.851
21
-83.8001
0
LINE
8
Black
10
173.25
20
-83.8001
11
170.649
21
-83.8001
0
LINE
8
Black
10
170.649
20
-83.8001
11
170.649
21
-82.1999
0
LINE
8
Black
10
170.649
20
-82.1999
11
173.25
21
-82.1999
0
LINE
8
Black
10
173.25
20
-82.1999
11
173.25
21
-83.8001
0
LINE
8
Black
10
88.525
20
-83.75
11
87.875
21
-83.75
0
LINE
8
Black
10
87.875
20
-83.75
11
87.875
21
-82.85
0
LINE
8
Black
10
87.875
20
-82.85
11
88.525
21
-82.85
0
LINE
8
Black
10
88.525
20
-82.85
11
88.525
21
-83.75
0
LINE
8
Black
10
86.625
20
-83.75
11
85.975
21
-83.75
0
LINE
8
Black
10
85.975
20
-83.75
11
85.975
21
-82.85
0
LINE
8
Black
10
85.975
20
-82.85
11
86.625
21
-82.85
0
LINE
8
Black
10
86.625
20
-82.85
11
86.625
21
-83.75
0
LINE
8
Black
10
87.575
20
-83.75
11
86.925
21
-83.75
0
LINE
8
Black
10
86.925
20
-83.75
11
86.925
21
-82.85
0
LINE
8
Black
10
86.925
20
-82.85
11
87.575
21
-82.85
0
LINE
8
Black
10
87.575
20
-82.85
11
87.575
21
-83.75
0
LINE
8
Black
10
167.7
20
-83.65
11
166.8
21
-83.65
0
LINE
8
Black
10
166.8
20
-83.65
11
166.8
21
-82.85
0
LINE
8
Black
10
166.8
20
-82.85
11
167.7
21
-82.85
0
LINE
8
Black
10
167.7
20
-82.85
11
167.7
21
-83.65
0
LINE
8
Black
10
102.822
20
-83.5555
11
101.678
21
-83.5555
0
LINE
8
Black
10
101.678
20
-83.5555
11
101.678
21
-82.7427
0
LINE
8
Black
10
101.678
20
-82.7427
11
102.822
21
-82.7427
0
LINE
8
Black
10
102.822
20
-82.7427
11
102.822
21
-83.5555
0
LINE
8
Black
10
100.322
20
-83.5555
11
99.1785
21
-83.5555
0
LINE
8
Black
10
99.1785
20
-83.5555
11
99.1785
21
-82.7427
0
LINE
8
Black
10
99.1785
20
-82.7427
11
100.322
21
-82.7427
0
LINE
8
Black
10
100.322
20
-82.7427
11
100.322
21
-83.5555
0
LINE
8
Black
10
188.8
20
-83.5501
11
185.8
21
-83.5501
0
LINE
8
Black
10
185.8
20
-83.5501
11
185.8
21
-81.9499
0
LINE
8
Black
10
185.8
20
-81.9499
11
188.8
21
-81.9499
0
LINE
8
Black
10
188.8
20
-81.9499
11
188.8
21
-83.5501
0
LINE
8
Black
10
193.2
20
-83.5501
11
190.2
21
-83.5501
0
LINE
8
Black
10
190.2
20
-83.5501
11
190.2
21
-81.9499
0
LINE
8
Black
10
190.2
20
-81.9499
11
193.2
21
-81.9499
0
LINE
8
Black
10
193.2
20
-81.9499
11
193.2
21
-83.5501
0
LINE
8
Black
10
155.2
20
-83.45
11
154.3
21
-83.45
0
LINE
8
Black
10
154.3
20
-83.45
11
154.3
21
-82.65
0
LINE
8
Black
10
154.3
20
-82.65
11
155.2
21
-82.65
0
LINE
8
Black
10
155.2
20
-82.65
11
155.2
21
-83.45
0
LINE
8
Black
10
123.794
20
-83.3727
11
122.494
21
-83.3727
0
LINE
8
Black
10
122.494
20
-83.3727
11
122.494
21
-82.9727
0
LINE
8
Black
10
122.494
20
-82.9727
11
123.794
21
-82.9727
0
LINE
8
Black
10
123.794
20
-82.9727
11
123.794
21
-83.3727
0
LINE
8
Black
10
118.206
20
-83.36
11
116.906
21
-83.36
0
LINE
8
Black
10
116.906
20
-83.36
11
116.906
21
-82.96
0
LINE
8
Black
10
116.906
20
-82.96
11
118.206
21
-82.96
0
LINE
8
Black
10
118.206
20
-82.96
11
118.206
21
-83.36
0
LINE
8
Black
10
200.821
20
-83.3055
11
199.678
21
-83.3055
0
LINE
8
Black
10
199.678
20
-83.3055
11
199.678
21
-82.4927
0
LINE
8
Black
10
199.678
20
-82.4927
11
200.821
21
-82.4927
0
LINE
8
Black
10
200.821
20
-82.4927
11
200.821
21
-83.3055
0
LINE
8
Black
10
204.321
20
-83.3055
11
203.178
21
-83.3055
0
LINE
8
Black
10
203.178
20
-83.3055
11
203.178
21
-82.4927
0
LINE
8
Black
10
203.178
20
-82.4927
11
204.321
21
-82.4927
0
LINE
8
Black
10
204.321
20
-82.4927
11
204.321
21
-83.3055
0
LINE
8
Black
10
202.571
20
-83.3055
11
201.428
21
-83.3055
0
LINE
8
Black
10
201.428
20
-83.3055
11
201.428
21
-82.4927
0
LINE
8
Black
10
201.428
20
-82.4927
11
202.571
21
-82.4927
0
LINE
8
Black
10
202.571
20
-82.4927
11
202.571
21
-83.3055
0
LINE
8
Black
10
98.0442
20
-83.225
11
96.7438
21
-83.225
0
LINE
8
Black
10
96.7438
20
-83.225
11
96.7438
21
-82.825
0
LINE
8
Black
10
96.7438
20
-82.825
11
98.0442
21
-82.825
0
LINE
8
Black
10
98.0442
20
-82.825
11
98.0442
21
-83.225
0
LINE
8
Black
10
92.4562
20
-83.225
11
91.1558
21
-83.225
0
LINE
8
Black
10
91.1558
20
-83.225
11
91.1558
21
-82.825
0
LINE
8
Black
10
91.1558
20
-82.825
11
92.4562
21
-82.825
0
LINE
8
Black
10
92.4562
20
-82.825
11
92.4562
21
-83.225
0
LINE
8
Black
10
198.4
20
-83.125
11
197.5
21
-83.125
0
LINE
8
Black
10
197.5
20
-83.125
11
197.5
21
-82.475
0
LINE
8
Black
10
197.5
20
-82.475
11
198.4
21
-82.475
0
LINE
8
Black
10
198.4
20
-82.475
11
198.4
21
-83.125
0
LINE
8
Black
10
196
20
-83.125
11
195.1
21
-83.125
0
LINE
8
Black
10
195.1
20
-83.125
11
195.1
21
-82.475
0
LINE
8
Black
10
195.1
20
-82.475
11
196
21
-82.475
0
LINE
8
Black
10
196
20
-82.475
11
196
21
-83.125
0
LINE
8
Black
10
112.5
20
-83.075
11
111.6
21
-83.075
0
LINE
8
Black
10
111.6
20
-83.075
11
111.6
21
-82.425
0
LINE
8
Black
10
111.6
20
-82.425
11
112.5
21
-82.425
0
LINE
8
Black
10
112.5
20
-82.425
11
112.5
21
-83.075
0
LINE
8
Black
10
144.571
20
-83.0555
11
143.428
21
-83.0555
0
LINE
8
Black
10
143.428
20
-83.0555
11
143.428
21
-82.2427
0
LINE
8
Black
10
143.428
20
-82.2427
11
144.571
21
-82.2427
0
LINE
8
Black
10
144.571
20
-82.2427
11
144.571
21
-83.0555
0
LINE
8
Black
10
146.321
20
-83.0555
11
145.178
21
-83.0555
0
LINE
8
Black
10
145.178
20
-83.0555
11
145.178
21
-82.2427
0
LINE
8
Black
10
145.178
20
-82.2427
11
146.321
21
-82.2427
0
LINE
8
Black
10
146.321
20
-82.2427
11
146.321
21
-83.0555
0
LINE
8
Black
10
148.071
20
-83.0555
11
146.928
21
-83.0555
0
LINE
8
Black
10
146.928
20
-83.0555
11
146.928
21
-82.2427
0
LINE
8
Black
10
146.928
20
-82.2427
11
148.071
21
-82.2427
0
LINE
8
Black
10
148.071
20
-82.2427
11
148.071
21
-83.0555
0
LINE
8
Black
10
149.821
20
-83.0555
11
148.678
21
-83.0555
0
LINE
8
Black
10
148.678
20
-83.0555
11
148.678
21
-82.2427
0
LINE
8
Black
10
148.678
20
-82.2427
11
149.821
21
-82.2427
0
LINE
8
Black
10
149.821
20
-82.2427
11
149.821
21
-83.0555
0
LINE
8
Black
10
128.321
20
-82.8055
11
127.178
21
-82.8055
0
LINE
8
Black
10
127.178
20
-82.8055
11
127.178
21
-81.9927
0
LINE
8
Black
10
127.178
20
-81.9927
11
128.321
21
-81.9927
0
LINE
8
Black
10
128.321
20
-81.9927
11
128.321
21
-82.8055
0
LINE
8
Black
10
160.571
20
-82.8055
11
159.428
21
-82.8055
0
LINE
8
Black
10
159.428
20
-82.8055
11
159.428
21
-81.9927
0
LINE
8
Black
10
159.428
20
-81.9927
11
160.571
21
-81.9927
0
LINE
8
Black
10
160.571
20
-81.9927
11
160.571
21
-82.8055
0
LINE
8
Black
10
162.321
20
-82.8055
11
161.178
21
-82.8055
0
LINE
8
Black
10
161.178
20
-82.8055
11
161.178
21
-81.9927
0
LINE
8
Black
10
161.178
20
-81.9927
11
162.321
21
-81.9927
0
LINE
8
Black
10
162.321
20
-81.9927
11
162.321
21
-82.8055
0
LINE
8
Black
10
130.321
20
-82.8055
11
129.178
21
-82.8055
0
LINE
8
Black
10
129.178
20
-82.8055
11
129.178
21
-81.9927
0
LINE
8
Black
10
129.178
20
-81.9927
11
130.321
21
-81.9927
0
LINE
8
Black
10
130.321
20
-81.9927
11
130.321
21
-82.8055
0
LINE
8
Black
10
164.071
20
-82.8055
11
162.928
21
-82.8055
0
LINE
8
Black
10
162.928
20
-82.8055
11
162.928
21
-81.9927
0
LINE
8
Black
10
162.928
20
-81.9927
11
164.071
21
-81.9927
0
LINE
8
Black
10
164.071
20
-81.9927
11
164.071
21
-82.8055
0
LINE
8
Black
10
126.572
20
-82.8055
11
125.428
21
-82.8055
0
LINE
8
Black
10
125.428
20
-82.8055
11
125.428
21
-81.9927
0
LINE
8
Black
10
125.428
20
-81.9927
11
126.572
21
-81.9927
0
LINE
8
Black
10
126.572
20
-81.9927
11
126.572
21
-82.8055
0
LINE
8
Black
10
165.821
20
-82.8055
11
164.678
21
-82.8055
0
LINE
8
Black
10
164.678
20
-82.8055
11
164.678
21
-81.9927
0
LINE
8
Black
10
164.678
20
-81.9927
11
165.821
21
-81.9927
0
LINE
8
Black
10
165.821
20
-81.9927
11
165.821
21
-82.8055
0
LINE
8
Black
10
118.206
20
-82.725
11
116.906
21
-82.725
0
LINE
8
Black
10
116.906
20
-82.725
11
116.906
21
-82.325
0
LINE
8
Black
10
116.906
20
-82.325
11
118.206
21
-82.325
0
LINE
8
Black
10
118.206
20
-82.325
11
118.206
21
-82.725
0
LINE
8
Black
10
123.794
20
-82.725
11
122.494
21
-82.725
0
LINE
8
Black
10
122.494
20
-82.725
11
122.494
21
-82.325
0
LINE
8
Black
10
122.494
20
-82.325
11
123.794
21
-82.325
0
LINE
8
Black
10
123.794
20
-82.325
11
123.794
21
-82.725
0
LINE
8
Black
10
169.7
20
-82.7
11
168.8
21
-82.7
0
LINE
8
Black
10
168.8
20
-82.7
11
168.8
21
-81.9
0
LINE
8
Black
10
168.8
20
-81.9
11
169.7
21
-81.9
0
LINE
8
Black
10
169.7
20
-81.9
11
169.7
21
-82.7
0
LINE
8
Black
10
223.625
20
-82.25
11
222.375
21
-82.25
0
LINE
8
Black
10
222.375
20
-82.25
11
222.375
21
-81.25
0
LINE
8
Black
10
222.375
20
-81.25
11
223.625
21
-81.25
0
LINE
8
Black
10
223.625
20
-81.25
11
223.625
21
-82.25
0
LINE
8
Black
10
112.5
20
-82.125
11
111.6
21
-82.125
0
LINE
8
Black
10
111.6
20
-82.125
11
111.6
21
-81.475
0
LINE
8
Black
10
111.6
20
-81.475
11
112.5
21
-81.475
0
LINE
8
Black
10
112.5
20
-81.475
11
112.5
21
-82.125
0
LINE
8
Black
10
114.9
20
-82.125
11
114
21
-82.125
0
LINE
8
Black
10
114
20
-82.125
11
114
21
-81.475
0
LINE
8
Black
10
114
20
-81.475
11
114.9
21
-81.475
0
LINE
8
Black
10
114.9
20
-81.475
11
114.9
21
-82.125
0
LINE
8
Black
10
107.101
20
-81.9804
11
106.399
21
-81.9804
0
LINE
8
Black
10
106.399
20
-81.9804
11
106.399
21
-80.9796
0
LINE
8
Black
10
106.399
20
-80.9796
11
107.101
21
-80.9796
0
LINE
8
Black
10
107.101
20
-80.9796
11
107.101
21
-81.9804
0
LINE
8
Black
10
98.2573
20
-81.8215
11
97.4445
21
-81.8215
0
LINE
8
Black
10
97.4445
20
-81.8215
11
97.4445
21
-80.6785
0
LINE
8
Black
10
97.4445
20
-80.6785
11
98.2573
21
-80.6785
0
LINE
8
Black
10
98.2573
20
-80.6785
11
98.2573
21
-81.8215
0
LINE
8
Black
10
93.5555
20
-81.8215
11
92.7427
21
-81.8215
0
LINE
8
Black
10
92.7427
20
-81.8215
11
92.7427
21
-80.6785
0
LINE
8
Black
10
92.7427
20
-80.6785
11
93.5555
21
-80.6785
0
LINE
8
Black
10
93.5555
20
-80.6785
11
93.5555
21
-81.8215
0
LINE
8
Black
10
96.5555
20
-81.8215
11
95.7427
21
-81.8215
0
LINE
8
Black
10
95.7427
20
-81.8215
11
95.7427
21
-80.6785
0
LINE
8
Black
10
95.7427
20
-80.6785
11
96.5555
21
-80.6785
0
LINE
8
Black
10
96.5555
20
-80.6785
11
96.5555
21
-81.8215
0
LINE
8
Black
10
92.2573
20
-81.8215
11
91.4445
21
-81.8215
0
LINE
8
Black
10
91.4445
20
-81.8215
11
91.4445
21
-80.6785
0
LINE
8
Black
10
91.4445
20
-80.6785
11
92.2573
21
-80.6785
0
LINE
8
Black
10
92.2573
20
-80.6785
11
92.2573
21
-81.8215
0
LINE
8
Black
10
90.5555
20
-81.8215
11
89.7427
21
-81.8215
0
LINE
8
Black
10
89.7427
20
-81.8215
11
89.7427
21
-80.6785
0
LINE
8
Black
10
89.7427
20
-80.6785
11
90.5555
21
-80.6785
0
LINE
8
Black
10
90.5555
20
-80.6785
11
90.5555
21
-81.8215
0
LINE
8
Black
10
101.257
20
-81.8215
11
100.444
21
-81.8215
0
LINE
8
Black
10
100.444
20
-81.8215
11
100.444
21
-80.6785
0
LINE
8
Black
10
100.444
20
-80.6785
11
101.257
21
-80.6785
0
LINE
8
Black
10
101.257
20
-80.6785
11
101.257
21
-81.8215
0
LINE
8
Black
10
99.5555
20
-81.8215
11
98.7427
21
-81.8215
0
LINE
8
Black
10
98.7427
20
-81.8215
11
98.7427
21
-80.6785
0
LINE
8
Black
10
98.7427
20
-80.6785
11
99.5555
21
-80.6785
0
LINE
8
Black
10
99.5555
20
-80.6785
11
99.5555
21
-81.8215
0
LINE
8
Black
10
104.257
20
-81.8215
11
103.444
21
-81.8215
0
LINE
8
Black
10
103.444
20
-81.8215
11
103.444
21
-80.6785
0
LINE
8
Black
10
103.444
20
-80.6785
11
104.257
21
-80.6785
0
LINE
8
Black
10
104.257
20
-80.6785
11
104.257
21
-81.8215
0
LINE
8
Black
10
102.555
20
-81.8215
11
101.743
21
-81.8215
0
LINE
8
Black
10
101.743
20
-81.8215
11
101.743
21
-80.6785
0
LINE
8
Black
10
101.743
20
-80.6785
11
102.555
21
-80.6785
0
LINE
8
Black
10
102.555
20
-80.6785
11
102.555
21
-81.8215
0
LINE
8
Black
10
95.2573
20
-81.8215
11
94.4445
21
-81.8215
0
LINE
8
Black
10
94.4445
20
-81.8215
11
94.4445
21
-80.6785
0
LINE
8
Black
10
94.4445
20
-80.6785
11
95.2573
21
-80.6785
0
LINE
8
Black
10
95.2573
20
-80.6785
11
95.2573
21
-81.8215
0
LINE
8
Black
10
89.2573
20
-81.8215
11
88.4445
21
-81.8215
0
LINE
8
Black
10
88.4445
20
-81.8215
11
88.4445
21
-80.6785
0
LINE
8
Black
10
88.4445
20
-80.6785
11
89.2573
21
-80.6785
0
LINE
8
Black
10
89.2573
20
-80.6785
11
89.2573
21
-81.8215
0
LINE
8
Black
10
87.5555
20
-81.8215
11
86.7427
21
-81.8215
0
LINE
8
Black
10
86.7427
20
-81.8215
11
86.7427
21
-80.6785
0
LINE
8
Black
10
86.7427
20
-80.6785
11
87.5555
21
-80.6785
0
LINE
8
Black
10
87.5555
20
-80.6785
11
87.5555
21
-81.8215
0
LINE
8
Black
10
119.507
20
-81.5715
11
118.694
21
-81.5715
0
LINE
8
Black
10
118.694
20
-81.5715
11
118.694
21
-80.4285
0
LINE
8
Black
10
118.694
20
-80.4285
11
119.507
21
-80.4285
0
LINE
8
Black
10
119.507
20
-80.4285
11
119.507
21
-81.5715
0
LINE
8
Black
10
117.805
20
-81.5715
11
116.993
21
-81.5715
0
LINE
8
Black
10
116.993
20
-81.5715
11
116.993
21
-80.4285
0
LINE
8
Black
10
116.993
20
-80.4285
11
117.805
21
-80.4285
0
LINE
8
Black
10
117.805
20
-80.4285
11
117.805
21
-81.5715
0
LINE
8
Black
10
126.572
20
-81.2573
11
125.428
21
-81.2573
0
LINE
8
Black
10
125.428
20
-81.2573
11
125.428
21
-80.4445
0
LINE
8
Black
10
125.428
20
-80.4445
11
126.572
21
-80.4445
0
LINE
8
Black
10
126.572
20
-80.4445
11
126.572
21
-81.2573
0
LINE
8
Black
10
142.321
20
-81.2573
11
141.178
21
-81.2573
0
LINE
8
Black
10
141.178
20
-81.2573
11
141.178
21
-80.4445
0
LINE
8
Black
10
141.178
20
-80.4445
11
142.321
21
-80.4445
0
LINE
8
Black
10
142.321
20
-80.4445
11
142.321
21
-81.2573
0
LINE
8
Black
10
128.321
20
-81.2573
11
127.178
21
-81.2573
0
LINE
8
Black
10
127.178
20
-81.2573
11
127.178
21
-80.4445
0
LINE
8
Black
10
127.178
20
-80.4445
11
128.321
21
-80.4445
0
LINE
8
Black
10
128.321
20
-80.4445
11
128.321
21
-81.2573
0
LINE
8
Black
10
122.31
20
-81.131
11
121.701
21
-81.131
0
LINE
8
Black
10
121.701
20
-81.131
11
121.701
21
-80.369
0
LINE
8
Black
10
121.701
20
-80.369
11
122.31
21
-80.369
0
LINE
8
Black
10
122.31
20
-80.369
11
122.31
21
-81.131
0
LINE
8
Black
10
124.799
20
-81.131
11
124.19
21
-81.131
0
LINE
8
Black
10
124.19
20
-81.131
11
124.19
21
-80.369
0
LINE
8
Black
10
124.19
20
-80.369
11
124.799
21
-80.369
0
LINE
8
Black
10
124.799
20
-80.369
11
124.799
21
-81.131
0
LINE
8
Black
10
179.751
20
-80.9947
11
177.552
21
-80.9947
0
LINE
8
Black
10
177.552
20
-80.9947
11
177.552
21
-80.3953
0
LINE
8
Black
10
177.552
20
-80.3953
11
179.751
21
-80.3953
0
LINE
8
Black
10
179.751
20
-80.3953
11
179.751
21
-80.9947
0
LINE
8
Black
10
184.948
20
-80.9947
11
182.749
21
-80.9947
0
LINE
8
Black
10
182.749
20
-80.9947
11
182.749
21
-80.3953
0
LINE
8
Black
10
182.749
20
-80.3953
11
184.948
21
-80.3953
0
LINE
8
Black
10
184.948
20
-80.3953
11
184.948
21
-80.9947
0
LINE
8
Black
10
159.071
20
-80.7573
11
157.928
21
-80.7573
0
LINE
8
Black
10
157.928
20
-80.7573
11
157.928
21
-79.9445
0
LINE
8
Black
10
157.928
20
-79.9445
11
159.071
21
-79.9445
0
LINE
8
Black
10
159.071
20
-79.9445
11
159.071
21
-80.7573
0
LINE
8
Black
10
110.305
20
-80.5715
11
109.493
21
-80.5715
0
LINE
8
Black
10
109.493
20
-80.5715
11
109.493
21
-79.4285
0
LINE
8
Black
10
109.493
20
-79.4285
11
110.305
21
-79.4285
0
LINE
8
Black
10
110.305
20
-79.4285
11
110.305
21
-80.5715
0
LINE
8
Black
10
112.007
20
-80.5715
11
111.194
21
-80.5715
0
LINE
8
Black
10
111.194
20
-80.5715
11
111.194
21
-79.4285
0
LINE
8
Black
10
111.194
20
-79.4285
11
112.007
21
-79.4285
0
LINE
8
Black
10
112.007
20
-79.4285
11
112.007
21
-80.5715
0
LINE
8
Black
10
113.305
20
-80.5715
11
112.493
21
-80.5715
0
LINE
8
Black
10
112.493
20
-80.5715
11
112.493
21
-79.4285
0
LINE
8
Black
10
112.493
20
-79.4285
11
113.305
21
-79.4285
0
LINE
8
Black
10
113.305
20
-79.4285
11
113.305
21
-80.5715
0
LINE
8
Black
10
115.007
20
-80.5715
11
114.194
21
-80.5715
0
LINE
8
Black
10
114.194
20
-80.5715
11
114.194
21
-79.4285
0
LINE
8
Black
10
114.194
20
-79.4285
11
115.007
21
-79.4285
0
LINE
8
Black
10
115.007
20
-79.4285
11
115.007
21
-80.5715
0
LINE
8
Black
10
109.007
20
-80.5715
11
108.194
21
-80.5715
0
LINE
8
Black
10
108.194
20
-80.5715
11
108.194
21
-79.4285
0
LINE
8
Black
10
108.194
20
-79.4285
11
109.007
21
-79.4285
0
LINE
8
Black
10
109.007
20
-79.4285
11
109.007
21
-80.5715
0
LINE
8
Black
10
107.305
20
-80.5715
11
106.493
21
-80.5715
0
LINE
8
Black
10
106.493
20
-80.5715
11
106.493
21
-79.4285
0
LINE
8
Black
10
106.493
20
-79.4285
11
107.305
21
-79.4285
0
LINE
8
Black
10
107.305
20
-79.4285
11
107.305
21
-80.5715
0
LINE
8
Black
10
154.821
20
-80.5073
11
153.678
21
-80.5073
0
LINE
8
Black
10
153.678
20
-80.5073
11
153.678
21
-79.6945
0
LINE
8
Black
10
153.678
20
-79.6945
11
154.821
21
-79.6945
0
LINE
8
Black
10
154.821
20
-79.6945
11
154.821
21
-80.5073
0
LINE
8
Black
10
219.05
20
-80.3002
11
217.45
21
-80.3002
0
LINE
8
Black
10
217.45
20
-80.3002
11
217.45
21
-77.3005
0
LINE
8
Black
10
217.45
20
-77.3005
11
219.05
21
-77.3005
0
LINE
8
Black
10
219.05
20
-77.3005
11
219.05
21
-80.3002
0
LINE
8
Black
10
213.449
20
-80.2492
11
211.051
21
-80.2492
0
LINE
8
Black
10
211.051
20
-80.2492
11
211.051
21
-77.8515
0
LINE
8
Black
10
211.051
20
-77.8515
11
213.449
21
-77.8515
0
LINE
8
Black
10
213.449
20
-77.8515
11
213.449
21
-80.2492
0
LINE
8
Black
10
152.745
20
-80.1982
11
152.145
21
-80.1982
0
LINE
8
Black
10
152.145
20
-80.1982
11
152.145
21
-77.9986
0
LINE
8
Black
10
152.145
20
-77.9986
11
152.745
21
-77.9986
0
LINE
8
Black
10
152.745
20
-77.9986
11
152.745
21
-80.1982
0
LINE
8
Black
10
151.475
20
-80.1982
11
150.875
21
-80.1982
0
LINE
8
Black
10
150.875
20
-80.1982
11
150.875
21
-77.9986
0
LINE
8
Black
10
150.875
20
-77.9986
11
151.475
21
-77.9986
0
LINE
8
Black
10
151.475
20
-77.9986
11
151.475
21
-80.1982
0
LINE
8
Black
10
150.205
20
-80.1982
11
149.605
21
-80.1982
0
LINE
8
Black
10
149.605
20
-80.1982
11
149.605
21
-77.9986
0
LINE
8
Black
10
149.605
20
-77.9986
11
150.205
21
-77.9986
0
LINE
8
Black
10
150.205
20
-77.9986
11
150.205
21
-80.1982
0
LINE
8
Black
10
147.665
20
-80.1982
11
147.065
21
-80.1982
0
LINE
8
Black
10
147.065
20
-80.1982
11
147.065
21
-77.9986
0
LINE
8
Black
10
147.065
20
-77.9986
11
147.665
21
-77.9986
0
LINE
8
Black
10
147.665
20
-77.9986
11
147.665
21
-80.1982
0
LINE
8
Black
10
146.395
20
-80.1982
11
145.795
21
-80.1982
0
LINE
8
Black
10
145.795
20
-80.1982
11
145.795
21
-77.9986
0
LINE
8
Black
10
145.795
20
-77.9986
11
146.395
21
-77.9986
0
LINE
8
Black
10
146.395
20
-77.9986
11
146.395
21
-80.1982
0
LINE
8
Black
10
145.125
20
-80.1982
11
144.525
21
-80.1982
0
LINE
8
Black
10
144.525
20
-80.1982
11
144.525
21
-77.9986
0
LINE
8
Black
10
144.525
20
-77.9986
11
145.125
21
-77.9986
0
LINE
8
Black
10
145.125
20
-77.9986
11
145.125
21
-80.1982
0
LINE
8
Black
10
148.935
20
-80.1982
11
148.335
21
-80.1982
0
LINE
8
Black
10
148.335
20
-80.1982
11
148.335
21
-77.9986
0
LINE
8
Black
10
148.335
20
-77.9986
11
148.935
21
-77.9986
0
LINE
8
Black
10
148.935
20
-77.9986
11
148.935
21
-80.1982
0
LINE
8
Black
10
143.855
20
-80.1982
11
143.255
21
-80.1982
0
LINE
8
Black
10
143.255
20
-80.1982
11
143.255
21
-77.9986
0
LINE
8
Black
10
143.255
20
-77.9986
11
143.855
21
-77.9986
0
LINE
8
Black
10
143.855
20
-77.9986
11
143.855
21
-80.1982
0
LINE
8
Black
10
160.605
20
-79.9482
11
160.005
21
-79.9482
0
LINE
8
Black
10
160.005
20
-79.9482
11
160.005
21
-77.7486
0
LINE
8
Black
10
160.005
20
-77.7486
11
160.605
21
-77.7486
0
LINE
8
Black
10
160.605
20
-77.7486
11
160.605
21
-79.9482
0
LINE
8
Black
10
161.875
20
-79.9482
11
161.275
21
-79.9482
0
LINE
8
Black
10
161.275
20
-79.9482
11
161.275
21
-77.7486
0
LINE
8
Black
10
161.275
20
-77.7486
11
161.875
21
-77.7486
0
LINE
8
Black
10
161.875
20
-77.7486
11
161.875
21
-79.9482
0
LINE
8
Black
10
163.145
20
-79.9482
11
162.545
21
-79.9482
0
LINE
8
Black
10
162.545
20
-79.9482
11
162.545
21
-77.7486
0
LINE
8
Black
10
162.545
20
-77.7486
11
163.145
21
-77.7486
0
LINE
8
Black
10
163.145
20
-77.7486
11
163.145
21
-79.9482
0
LINE
8
Black
10
164.415
20
-79.9482
11
163.815
21
-79.9482
0
LINE
8
Black
10
163.815
20
-79.9482
11
163.815
21
-77.7486
0
LINE
8
Black
10
163.815
20
-77.7486
11
164.415
21
-77.7486
0
LINE
8
Black
10
164.415
20
-77.7486
11
164.415
21
-79.9482
0
LINE
8
Black
10
165.685
20
-79.9482
11
165.085
21
-79.9482
0
LINE
8
Black
10
165.085
20
-79.9482
11
165.085
21
-77.7486
0
LINE
8
Black
10
165.085
20
-77.7486
11
165.685
21
-77.7486
0
LINE
8
Black
10
165.685
20
-77.7486
11
165.685
21
-79.9482
0
LINE
8
Black
10
166.955
20
-79.9482
11
166.355
21
-79.9482
0
LINE
8
Black
10
166.355
20
-79.9482
11
166.355
21
-77.7486
0
LINE
8
Black
10
166.355
20
-77.7486
11
166.955
21
-77.7486
0
LINE
8
Black
10
166.955
20
-77.7486
11
166.955
21
-79.9482
0
LINE
8
Black
10
168.225
20
-79.9482
11
167.625
21
-79.9482
0
LINE
8
Black
10
167.625
20
-79.9482
11
167.625
21
-77.7486
0
LINE
8
Black
10
167.625
20
-77.7486
11
168.225
21
-77.7486
0
LINE
8
Black
10
168.225
20
-77.7486
11
168.225
21
-79.9482
0
LINE
8
Black
10
169.495
20
-79.9482
11
168.895
21
-79.9482
0
LINE
8
Black
10
168.895
20
-79.9482
11
168.895
21
-77.7486
0
LINE
8
Black
10
168.895
20
-77.7486
11
169.495
21
-77.7486
0
LINE
8
Black
10
169.495
20
-77.7486
11
169.495
21
-79.9482
0
LINE
8
Black
10
117.805
20
-79.8215
11
116.993
21
-79.8215
0
LINE
8
Black
10
116.993
20
-79.8215
11
116.993
21
-78.6785
0
LINE
8
Black
10
116.993
20
-78.6785
11
117.805
21
-78.6785
0
LINE
8
Black
10
117.805
20
-78.6785
11
117.805
21
-79.8215
0
LINE
8
Black
10
119.507
20
-79.8215
11
118.694
21
-79.8215
0
LINE
8
Black
10
118.694
20
-79.8215
11
118.694
21
-78.6785
0
LINE
8
Black
10
118.694
20
-78.6785
11
119.507
21
-78.6785
0
LINE
8
Black
10
119.507
20
-78.6785
11
119.507
21
-79.8215
0
LINE
8
Black
10
184.948
20
-79.7247
11
182.749
21
-79.7247
0
LINE
8
Black
10
182.749
20
-79.7247
11
182.749
21
-79.1253
0
LINE
8
Black
10
182.749
20
-79.1253
11
184.948
21
-79.1253
0
LINE
8
Black
10
184.948
20
-79.1253
11
184.948
21
-79.7247
0
LINE
8
Black
10
179.751
20
-79.7247
11
177.552
21
-79.7247
0
LINE
8
Black
10
177.552
20
-79.7247
11
177.552
21
-79.1253
0
LINE
8
Black
10
177.552
20
-79.1253
11
179.751
21
-79.1253
0
LINE
8
Black
10
179.751
20
-79.1253
11
179.751
21
-79.7247
0
LINE
8
Black
10
132.625
20
-79.65
11
131.975
21
-79.65
0
LINE
8
Black
10
131.975
20
-79.65
11
131.975
21
-78.75
0
LINE
8
Black
10
131.975
20
-78.75
11
132.625
21
-78.75
0
LINE
8
Black
10
132.625
20
-78.75
11
132.625
21
-79.65
0
LINE
8
Black
10
134.525
20
-79.65
11
133.875
21
-79.65
0
LINE
8
Black
10
133.875
20
-79.65
11
133.875
21
-78.75
0
LINE
8
Black
10
133.875
20
-78.75
11
134.525
21
-78.75
0
LINE
8
Black
10
134.525
20
-78.75
11
134.525
21
-79.65
0
LINE
8
Black
10
133.575
20
-79.65
11
132.925
21
-79.65
0
LINE
8
Black
10
132.925
20
-79.65
11
132.925
21
-78.75
0
LINE
8
Black
10
132.925
20
-78.75
11
133.575
21
-78.75
0
LINE
8
Black
10
133.575
20
-78.75
11
133.575
21
-79.65
0
LINE
8
Black
10
126.572
20
-79.5555
11
125.428
21
-79.5555
0
LINE
8
Black
10
125.428
20
-79.5555
11
125.428
21
-78.7427
0
LINE
8
Black
10
125.428
20
-78.7427
11
126.572
21
-78.7427
0
LINE
8
Black
10
126.572
20
-78.7427
11
126.572
21
-79.5555
0
LINE
8
Black
10
142.321
20
-79.5555
11
141.178
21
-79.5555
0
LINE
8
Black
10
141.178
20
-79.5555
11
141.178
21
-78.7427
0
LINE
8
Black
10
141.178
20
-78.7427
11
142.321
21
-78.7427
0
LINE
8
Black
10
142.321
20
-78.7427
11
142.321
21
-79.5555
0
LINE
8
Black
10
128.321
20
-79.5555
11
127.178
21
-79.5555
0
LINE
8
Black
10
127.178
20
-79.5555
11
127.178
21
-78.7427
0
LINE
8
Black
10
127.178
20
-78.7427
11
128.321
21
-78.7427
0
LINE
8
Black
10
128.321
20
-78.7427
11
128.321
21
-79.5555
0
LINE
8
Black
10
140.321
20
-79.5073
11
139.178
21
-79.5073
0
LINE
8
Black
10
139.178
20
-79.5073
11
139.178
21
-78.6945
0
LINE
8
Black
10
139.178
20
-78.6945
11
140.321
21
-78.6945
0
LINE
8
Black
10
140.321
20
-78.6945
11
140.321
21
-79.5073
0
LINE
8
Black
10
136.821
20
-79.5073
11
135.678
21
-79.5073
0
LINE
8
Black
10
135.678
20
-79.5073
11
135.678
21
-78.6945
0
LINE
8
Black
10
135.678
20
-78.6945
11
136.821
21
-78.6945
0
LINE
8
Black
10
136.821
20
-78.6945
11
136.821
21
-79.5073
0
LINE
8
Black
10
138.571
20
-79.5073
11
137.428
21
-79.5073
0
LINE
8
Black
10
137.428
20
-79.5073
11
137.428
21
-78.6945
0
LINE
8
Black
10
137.428
20
-78.6945
11
138.571
21
-78.6945
0
LINE
8
Black
10
138.571
20
-78.6945
11
138.571
21
-79.5073
0
LINE
8
Black
10
124.799
20
-79.381
11
124.19
21
-79.381
0
LINE
8
Black
10
124.19
20
-79.381
11
124.19
21
-78.619
0
LINE
8
Black
10
124.19
20
-78.619
11
124.799
21
-78.619
0
LINE
8
Black
10
124.799
20
-78.619
11
124.799
21
-79.381
0
LINE
8
Black
10
122.31
20
-79.381
11
121.701
21
-79.381
0
LINE
8
Black
10
121.701
20
-79.381
11
121.701
21
-78.619
0
LINE
8
Black
10
121.701
20
-78.619
11
122.31
21
-78.619
0
LINE
8
Black
10
122.31
20
-78.619
11
122.31
21
-79.381
0
LINE
8
Black
10
159.071
20
-79.0555
11
157.928
21
-79.0555
0
LINE
8
Black
10
157.928
20
-79.0555
11
157.928
21
-78.2427
0
LINE
8
Black
10
157.928
20
-78.2427
11
159.071
21
-78.2427
0
LINE
8
Black
10
159.071
20
-78.2427
11
159.071
21
-79.0555
0
LINE
8
Black
10
176.007
20
-78.8215
11
175.195
21
-78.8215
0
LINE
8
Black
10
175.195
20
-78.8215
11
175.195
21
-77.6785
0
LINE
8
Black
10
175.195
20
-77.6785
11
176.007
21
-77.6785
0
LINE
8
Black
10
176.007
20
-77.6785
11
176.007
21
-78.8215
0
LINE
8
Black
10
174.305
20
-78.8215
11
173.493
21
-78.8215
0
LINE
8
Black
10
173.493
20
-78.8215
11
173.493
21
-77.6785
0
LINE
8
Black
10
173.493
20
-77.6785
11
174.305
21
-77.6785
0
LINE
8
Black
10
174.305
20
-77.6785
11
174.305
21
-78.8215
0
LINE
8
Black
10
115.007
20
-78.8215
11
114.194
21
-78.8215
0
LINE
8
Black
10
114.194
20
-78.8215
11
114.194
21
-77.6785
0
LINE
8
Black
10
114.194
20
-77.6785
11
115.007
21
-77.6785
0
LINE
8
Black
10
115.007
20
-77.6785
11
115.007
21
-78.8215
0
LINE
8
Black
10
112.007
20
-78.8215
11
111.194
21
-78.8215
0
LINE
8
Black
10
111.194
20
-78.8215
11
111.194
21
-77.6785
0
LINE
8
Black
10
111.194
20
-77.6785
11
112.007
21
-77.6785
0
LINE
8
Black
10
112.007
20
-77.6785
11
112.007
21
-78.8215
0
LINE
8
Black
10
110.305
20
-78.8215
11
109.493
21
-78.8215
0
LINE
8
Black
10
109.493
20
-78.8215
11
109.493
21
-77.6785
0
LINE
8
Black
10
109.493
20
-77.6785
11
110.305
21
-77.6785
0
LINE
8
Black
10
110.305
20
-77.6785
11
110.305
21
-78.8215
0
LINE
8
Black
10
113.305
20
-78.8215
11
112.493
21
-78.8215
0
LINE
8
Black
10
112.493
20
-78.8215
11
112.493
21
-77.6785
0
LINE
8
Black
10
112.493
20
-77.6785
11
113.305
21
-77.6785
0
LINE
8
Black
10
113.305
20
-77.6785
11
113.305
21
-78.8215
0
LINE
8
Black
10
154.821
20
-78.8055
11
153.678
21
-78.8055
0
LINE
8
Black
10
153.678
20
-78.8055
11
153.678
21
-77.9927
0
LINE
8
Black
10
153.678
20
-77.9927
11
154.821
21
-77.9927
0
LINE
8
Black
10
154.821
20
-77.9927
11
154.821
21
-78.8055
0
LINE
8
Black
10
189.257
20
-78.5715
11
188.445
21
-78.5715
0
LINE
8
Black
10
188.445
20
-78.5715
11
188.445
21
-77.4285
0
LINE
8
Black
10
188.445
20
-77.4285
11
189.257
21
-77.4285
0
LINE
8
Black
10
189.257
20
-77.4285
11
189.257
21
-78.5715
0
LINE
8
Black
10
187.555
20
-78.5715
11
186.743
21
-78.5715
0
LINE
8
Black
10
186.743
20
-78.5715
11
186.743
21
-77.4285
0
LINE
8
Black
10
186.743
20
-77.4285
11
187.555
21
-77.4285
0
LINE
8
Black
10
187.555
20
-77.4285
11
187.555
21
-78.5715
0
LINE
8
Black
10
184.948
20
-78.4547
11
182.749
21
-78.4547
0
LINE
8
Black
10
182.749
20
-78.4547
11
182.749
21
-77.8553
0
LINE
8
Black
10
182.749
20
-77.8553
11
184.948
21
-77.8553
0
LINE
8
Black
10
184.948
20
-77.8553
11
184.948
21
-78.4547
0
LINE
8
Black
10
179.751
20
-78.4547
11
177.552
21
-78.4547
0
LINE
8
Black
10
177.552
20
-78.4547
11
177.552
21
-77.8553
0
LINE
8
Black
10
177.552
20
-77.8553
11
179.751
21
-77.8553
0
LINE
8
Black
10
179.751
20
-77.8553
11
179.751
21
-78.4547
0
LINE
8
Black
10
131.071
20
-78.2573
11
129.928
21
-78.2573
0
LINE
8
Black
10
129.928
20
-78.2573
11
129.928
21
-77.4445
0
LINE
8
Black
10
129.928
20
-77.4445
11
131.071
21
-77.4445
0
LINE
8
Black
10
131.071
20
-77.4445
11
131.071
21
-78.2573
0
LINE
8
Black
10
119.555
20
-77.8215
11
118.743
21
-77.8215
0
LINE
8
Black
10
118.743
20
-77.8215
11
118.743
21
-76.6785
0
LINE
8
Black
10
118.743
20
-76.6785
11
119.555
21
-76.6785
0
LINE
8
Black
10
119.555
20
-76.6785
11
119.555
21
-77.8215
0
LINE
8
Black
10
124.257
20
-77.8215
11
123.444
21
-77.8215
0
LINE
8
Black
10
123.444
20
-77.8215
11
123.444
21
-76.6785
0
LINE
8
Black
10
123.444
20
-76.6785
11
124.257
21
-76.6785
0
LINE
8
Black
10
124.257
20
-76.6785
11
124.257
21
-77.8215
0
LINE
8
Black
10
121.257
20
-77.8215
11
120.444
21
-77.8215
0
LINE
8
Black
10
120.444
20
-77.8215
11
120.444
21
-76.6785
0
LINE
8
Black
10
120.444
20
-76.6785
11
121.257
21
-76.6785
0
LINE
8
Black
10
121.257
20
-76.6785
11
121.257
21
-77.8215
0
LINE
8
Black
10
122.555
20
-77.8215
11
121.743
21
-77.8215
0
LINE
8
Black
10
121.743
20
-77.8215
11
121.743
21
-76.6785
0
LINE
8
Black
10
121.743
20
-76.6785
11
122.555
21
-76.6785
0
LINE
8
Black
10
122.555
20
-76.6785
11
122.555
21
-77.8215
0
LINE
8
Black
10
138.571
20
-77.8055
11
137.428
21
-77.8055
0
LINE
8
Black
10
137.428
20
-77.8055
11
137.428
21
-76.9927
0
LINE
8
Black
10
137.428
20
-76.9927
11
138.571
21
-76.9927
0
LINE
8
Black
10
138.571
20
-76.9927
11
138.571
21
-77.8055
0
LINE
8
Black
10
136.821
20
-77.8055
11
135.678
21
-77.8055
0
LINE
8
Black
10
135.678
20
-77.8055
11
135.678
21
-76.9927
0
LINE
8
Black
10
135.678
20
-76.9927
11
136.821
21
-76.9927
0
LINE
8
Black
10
136.821
20
-76.9927
11
136.821
21
-77.8055
0
LINE
8
Black
10
140.321
20
-77.8055
11
139.178
21
-77.8055
0
LINE
8
Black
10
139.178
20
-77.8055
11
139.178
21
-76.9927
0
LINE
8
Black
10
139.178
20
-76.9927
11
140.321
21
-76.9927
0
LINE
8
Black
10
140.321
20
-76.9927
11
140.321
21
-77.8055
0
LINE
8
Black
10
142.321
20
-77.7573
11
141.178
21
-77.7573
0
LINE
8
Black
10
141.178
20
-77.7573
11
141.178
21
-76.9445
0
LINE
8
Black
10
141.178
20
-76.9445
11
142.321
21
-76.9445
0
LINE
8
Black
10
142.321
20
-76.9445
11
142.321
21
-77.7573
0
LINE
8
Black
10
154.821
20
-77.5073
11
153.678
21
-77.5073
0
LINE
8
Black
10
153.678
20
-77.5073
11
153.678
21
-76.6945
0
LINE
8
Black
10
153.678
20
-76.6945
11
154.821
21
-76.6945
0
LINE
8
Black
10
154.821
20
-76.6945
11
154.821
21
-77.5073
0
LINE
8
Black
10
171.571
20
-77.5073
11
170.428
21
-77.5073
0
LINE
8
Black
10
170.428
20
-77.5073
11
170.428
21
-76.6945
0
LINE
8
Black
10
170.428
20
-76.6945
11
171.571
21
-76.6945
0
LINE
8
Black
10
171.571
20
-76.6945
11
171.571
21
-77.5073
0
LINE
8
Black
10
156.571
20
-77.5073
11
155.428
21
-77.5073
0
LINE
8
Black
10
155.428
20
-77.5073
11
155.428
21
-76.6945
0
LINE
8
Black
10
155.428
20
-76.6945
11
156.571
21
-76.6945
0
LINE
8
Black
10
156.571
20
-76.6945
11
156.571
21
-77.5073
0
LINE
8
Black
10
134.525
20
-77.25
11
133.875
21
-77.25
0
LINE
8
Black
10
133.875
20
-77.25
11
133.875
21
-76.35
0
LINE
8
Black
10
133.875
20
-76.35
11
134.525
21
-76.35
0
LINE
8
Black
10
134.525
20
-76.35
11
134.525
21
-77.25
0
LINE
8
Black
10
132.625
20
-77.25
11
131.975
21
-77.25
0
LINE
8
Black
10
131.975
20
-77.25
11
131.975
21
-76.35
0
LINE
8
Black
10
131.975
20
-76.35
11
132.625
21
-76.35
0
LINE
8
Black
10
132.625
20
-76.35
11
132.625
21
-77.25
0
LINE
8
Black
10
184.948
20
-77.1847
11
182.749
21
-77.1847
0
LINE
8
Black
10
182.749
20
-77.1847
11
182.749
21
-76.5853
0
LINE
8
Black
10
182.749
20
-76.5853
11
184.948
21
-76.5853
0
LINE
8
Black
10
184.948
20
-76.5853
11
184.948
21
-77.1847
0
LINE
8
Black
10
179.751
20
-77.1847
11
177.552
21
-77.1847
0
LINE
8
Black
10
177.552
20
-77.1847
11
177.552
21
-76.5853
0
LINE
8
Black
10
177.552
20
-76.5853
11
179.751
21
-76.5853
0
LINE
8
Black
10
179.751
20
-76.5853
11
179.751
21
-77.1847
0
LINE
8
Black
10
191.3
20
-76.85
11
190.1
21
-76.85
0
LINE
8
Black
10
190.1
20
-76.85
11
190.1
21
-75.65
0
LINE
8
Black
10
190.1
20
-75.65
11
191.3
21
-75.65
0
LINE
8
Black
10
191.3
20
-75.65
11
191.3
21
-76.85
0
LINE
8
Black
10
115.055
20
-76.8215
11
114.243
21
-76.8215
0
LINE
8
Black
10
114.243
20
-76.8215
11
114.243
21
-75.6785
0
LINE
8
Black
10
114.243
20
-75.6785
11
115.055
21
-75.6785
0
LINE
8
Black
10
115.055
20
-75.6785
11
115.055
21
-76.8215
0
LINE
8
Black
10
187.555
20
-76.8215
11
186.743
21
-76.8215
0
LINE
8
Black
10
186.743
20
-76.8215
11
186.743
21
-75.6785
0
LINE
8
Black
10
186.743
20
-75.6785
11
187.555
21
-75.6785
0
LINE
8
Black
10
187.555
20
-75.6785
11
187.555
21
-76.8215
0
LINE
8
Black
10
189.257
20
-76.8215
11
188.445
21
-76.8215
0
LINE
8
Black
10
188.445
20
-76.8215
11
188.445
21
-75.6785
0
LINE
8
Black
10
188.445
20
-75.6785
11
189.257
21
-75.6785
0
LINE
8
Black
10
189.257
20
-75.6785
11
189.257
21
-76.8215
0
LINE
8
Black
10
116.757
20
-76.8215
11
115.944
21
-76.8215
0
LINE
8
Black
10
115.944
20
-76.8215
11
115.944
21
-75.6785
0
LINE
8
Black
10
115.944
20
-75.6785
11
116.757
21
-75.6785
0
LINE
8
Black
10
116.757
20
-75.6785
11
116.757
21
-76.8215
0
LINE
8
Black
10
131.071
20
-76.5555
11
129.928
21
-76.5555
0
LINE
8
Black
10
129.928
20
-76.5555
11
129.928
21
-75.7427
0
LINE
8
Black
10
129.928
20
-75.7427
11
131.071
21
-75.7427
0
LINE
8
Black
10
131.071
20
-75.7427
11
131.071
21
-76.5555
0
LINE
8
Black
10
140.321
20
-76.5073
11
139.178
21
-76.5073
0
LINE
8
Black
10
139.178
20
-76.5073
11
139.178
21
-75.6945
0
LINE
8
Black
10
139.178
20
-75.6945
11
140.321
21
-75.6945
0
LINE
8
Black
10
140.321
20
-75.6945
11
140.321
21
-76.5073
0
LINE
8
Black
10
119.555
20
-76.0715
11
118.743
21
-76.0715
0
LINE
8
Black
10
118.743
20
-76.0715
11
118.743
21
-74.9285
0
LINE
8
Black
10
118.743
20
-74.9285
11
119.555
21
-74.9285
0
LINE
8
Black
10
119.555
20
-74.9285
11
119.555
21
-76.0715
0
LINE
8
Black
10
121.257
20
-76.0715
11
120.444
21
-76.0715
0
LINE
8
Black
10
120.444
20
-76.0715
11
120.444
21
-74.9285
0
LINE
8
Black
10
120.444
20
-74.9285
11
121.257
21
-74.9285
0
LINE
8
Black
10
121.257
20
-74.9285
11
121.257
21
-76.0715
0
LINE
8
Black
10
142.321
20
-76.0555
11
141.178
21
-76.0555
0
LINE
8
Black
10
141.178
20
-76.0555
11
141.178
21
-75.2427
0
LINE
8
Black
10
141.178
20
-75.2427
11
142.321
21
-75.2427
0
LINE
8
Black
10
142.321
20
-75.2427
11
142.321
21
-76.0555
0
LINE
8
Black
10
194.7
20
-76.05
11
193.2
21
-76.05
0
LINE
8
Black
10
193.2
20
-76.05
11
193.2
21
-74.45
0
LINE
8
Black
10
193.2
20
-74.45
11
194.7
21
-74.45
0
LINE
8
Black
10
194.7
20
-74.45
11
194.7
21
-76.05
0
LINE
8
Black
10
219.05
20
-75.9495
11
217.45
21
-75.9495
0
LINE
8
Black
10
217.45
20
-75.9495
11
217.45
21
-72.9498
0
LINE
8
Black
10
217.45
20
-72.9498
11
219.05
21
-72.9498
0
LINE
8
Black
10
219.05
20
-72.9498
11
219.05
21
-75.9495
0
LINE
8
Black
10
184.948
20
-75.9147
11
182.749
21
-75.9147
0
LINE
8
Black
10
182.749
20
-75.9147
11
182.749
21
-75.3153
0
LINE
8
Black
10
182.749
20
-75.3153
11
184.948
21
-75.3153
0
LINE
8
Black
10
184.948
20
-75.3153
11
184.948
21
-75.9147
0
LINE
8
Black
10
179.751
20
-75.9147
11
177.552
21
-75.9147
0
LINE
8
Black
10
177.552
20
-75.9147
11
177.552
21
-75.3153
0
LINE
8
Black
10
177.552
20
-75.3153
11
179.751
21
-75.3153
0
LINE
8
Black
10
179.751
20
-75.3153
11
179.751
21
-75.9147
0
LINE
8
Black
10
174.305
20
-75.8215
11
173.493
21
-75.8215
0
LINE
8
Black
10
173.493
20
-75.8215
11
173.493
21
-74.6785
0
LINE
8
Black
10
173.493
20
-74.6785
11
174.305
21
-74.6785
0
LINE
8
Black
10
174.305
20
-74.6785
11
174.305
21
-75.8215
0
LINE
8
Black
10
176.007
20
-75.8215
11
175.195
21
-75.8215
0
LINE
8
Black
10
175.195
20
-75.8215
11
175.195
21
-74.6785
0
LINE
8
Black
10
175.195
20
-74.6785
11
176.007
21
-74.6785
0
LINE
8
Black
10
176.007
20
-74.6785
11
176.007
21
-75.8215
0
LINE
8
Black
10
171.571
20
-75.8055
11
170.428
21
-75.8055
0
LINE
8
Black
10
170.428
20
-75.8055
11
170.428
21
-74.9927
0
LINE
8
Black
10
170.428
20
-74.9927
11
171.571
21
-74.9927
0
LINE
8
Black
10
171.571
20
-74.9927
11
171.571
21
-75.8055
0
LINE
8
Black
10
154.821
20
-75.8055
11
153.678
21
-75.8055
0
LINE
8
Black
10
153.678
20
-75.8055
11
153.678
21
-74.9927
0
LINE
8
Black
10
153.678
20
-74.9927
11
154.821
21
-74.9927
0
LINE
8
Black
10
154.821
20
-74.9927
11
154.821
21
-75.8055
0
LINE
8
Black
10
156.571
20
-75.8055
11
155.428
21
-75.8055
0
LINE
8
Black
10
155.428
20
-75.8055
11
155.428
21
-74.9927
0
LINE
8
Black
10
155.428
20
-74.9927
11
156.571
21
-74.9927
0
LINE
8
Black
10
156.571
20
-74.9927
11
156.571
21
-75.8055
0
LINE
8
Black
10
213.449
20
-75.3985
11
211.051
21
-75.3985
0
LINE
8
Black
10
211.051
20
-75.3985
11
211.051
21
-73.0008
0
LINE
8
Black
10
211.051
20
-73.0008
11
213.449
21
-73.0008
0
LINE
8
Black
10
213.449
20
-73.0008
11
213.449
21
-75.3985
0
LINE
8
Black
10
189.257
20
-75.0715
11
188.445
21
-75.0715
0
LINE
8
Black
10
188.445
20
-75.0715
11
188.445
21
-73.9285
0
LINE
8
Black
10
188.445
20
-73.9285
11
189.257
21
-73.9285
0
LINE
8
Black
10
189.257
20
-73.9285
11
189.257
21
-75.0715
0
LINE
8
Black
10
187.555
20
-75.0715
11
186.743
21
-75.0715
0
LINE
8
Black
10
186.743
20
-75.0715
11
186.743
21
-73.9285
0
LINE
8
Black
10
186.743
20
-73.9285
11
187.555
21
-73.9285
0
LINE
8
Black
10
187.555
20
-73.9285
11
187.555
21
-75.0715
0
LINE
8
Black
10
158.821
20
-75.0073
11
157.678
21
-75.0073
0
LINE
8
Black
10
157.678
20
-75.0073
11
157.678
21
-74.1945
0
LINE
8
Black
10
157.678
20
-74.1945
11
158.821
21
-74.1945
0
LINE
8
Black
10
158.821
20
-74.1945
11
158.821
21
-75.0073
0
LINE
8
Black
10
152.745
20
-75.0014
11
152.145
21
-75.0014
0
LINE
8
Black
10
152.145
20
-75.0014
11
152.145
21
-72.8018
0
LINE
8
Black
10
152.145
20
-72.8018
11
152.745
21
-72.8018
0
LINE
8
Black
10
152.745
20
-72.8018
11
152.745
21
-75.0014
0
LINE
8
Black
10
151.475
20
-75.0014
11
150.875
21
-75.0014
0
LINE
8
Black
10
150.875
20
-75.0014
11
150.875
21
-72.8018
0
LINE
8
Black
10
150.875
20
-72.8018
11
151.475
21
-72.8018
0
LINE
8
Black
10
151.475
20
-72.8018
11
151.475
21
-75.0014
0
LINE
8
Black
10
150.205
20
-75.0014
11
149.605
21
-75.0014
0
LINE
8
Black
10
149.605
20
-75.0014
11
149.605
21
-72.8018
0
LINE
8
Black
10
149.605
20
-72.8018
11
150.205
21
-72.8018
0
LINE
8
Black
10
150.205
20
-72.8018
11
150.205
21
-75.0014
0
LINE
8
Black
10
147.665
20
-75.0014
11
147.065
21
-75.0014
0
LINE
8
Black
10
147.065
20
-75.0014
11
147.065
21
-72.8018
0
LINE
8
Black
10
147.065
20
-72.8018
11
147.665
21
-72.8018
0
LINE
8
Black
10
147.665
20
-72.8018
11
147.665
21
-75.0014
0
LINE
8
Black
10
146.395
20
-75.0014
11
145.795
21
-75.0014
0
LINE
8
Black
10
145.795
20
-75.0014
11
145.795
21
-72.8018
0
LINE
8
Black
10
145.795
20
-72.8018
11
146.395
21
-72.8018
0
LINE
8
Black
10
146.395
20
-72.8018
11
146.395
21
-75.0014
0
LINE
8
Black
10
145.125
20
-75.0014
11
144.525
21
-75.0014
0
LINE
8
Black
10
144.525
20
-75.0014
11
144.525
21
-72.8018
0
LINE
8
Black
10
144.525
20
-72.8018
11
145.125
21
-72.8018
0
LINE
8
Black
10
145.125
20
-72.8018
11
145.125
21
-75.0014
0
LINE
8
Black
10
143.855
20
-75.0014
11
143.255
21
-75.0014
0
LINE
8
Black
10
143.255
20
-75.0014
11
143.255
21
-72.8018
0
LINE
8
Black
10
143.255
20
-72.8018
11
143.855
21
-72.8018
0
LINE
8
Black
10
143.855
20
-72.8018
11
143.855
21
-75.0014
0
LINE
8
Black
10
148.935
20
-75.0014
11
148.335
21
-75.0014
0
LINE
8
Black
10
148.335
20
-75.0014
11
148.335
21
-72.8018
0
LINE
8
Black
10
148.335
20
-72.8018
11
148.935
21
-72.8018
0
LINE
8
Black
10
148.935
20
-72.8018
11
148.935
21
-75.0014
0
LINE
8
Black
10
114.3
20
-74.95
11
112.7
21
-74.95
0
LINE
8
Black
10
112.7
20
-74.95
11
112.7
21
-73.45
0
LINE
8
Black
10
112.7
20
-73.45
11
114.3
21
-73.45
0
LINE
8
Black
10
114.3
20
-73.45
11
114.3
21
-74.95
0
LINE
8
Black
10
191.3
20
-74.85
11
190.1
21
-74.85
0
LINE
8
Black
10
190.1
20
-74.85
11
190.1
21
-73.65
0
LINE
8
Black
10
190.1
20
-73.65
11
191.3
21
-73.65
0
LINE
8
Black
10
191.3
20
-73.65
11
191.3
21
-74.85
0
LINE
8
Black
10
140.321
20
-74.8055
11
139.178
21
-74.8055
0
LINE
8
Black
10
139.178
20
-74.8055
11
139.178
21
-73.9927
0
LINE
8
Black
10
139.178
20
-73.9927
11
140.321
21
-73.9927
0
LINE
8
Black
10
140.321
20
-73.9927
11
140.321
21
-74.8055
0
LINE
8
Black
10
168.225
20
-74.7514
11
167.625
21
-74.7514
0
LINE
8
Black
10
167.625
20
-74.7514
11
167.625
21
-72.5518
0
LINE
8
Black
10
167.625
20
-72.5518
11
168.225
21
-72.5518
0
LINE
8
Black
10
168.225
20
-72.5518
11
168.225
21
-74.7514
0
LINE
8
Black
10
169.495
20
-74.7514
11
168.895
21
-74.7514
0
LINE
8
Black
10
168.895
20
-74.7514
11
168.895
21
-72.5518
0
LINE
8
Black
10
168.895
20
-72.5518
11
169.495
21
-72.5518
0
LINE
8
Black
10
169.495
20
-72.5518
11
169.495
21
-74.7514
0
LINE
8
Black
10
166.955
20
-74.7514
11
166.355
21
-74.7514
0
LINE
8
Black
10
166.355
20
-74.7514
11
166.355
21
-72.5518
0
LINE
8
Black
10
166.355
20
-72.5518
11
166.955
21
-72.5518
0
LINE
8
Black
10
166.955
20
-72.5518
11
166.955
21
-74.7514
0
LINE
8
Black
10
165.685
20
-74.7514
11
165.085
21
-74.7514
0
LINE
8
Black
10
165.085
20
-74.7514
11
165.085
21
-72.5518
0
LINE
8
Black
10
165.085
20
-72.5518
11
165.685
21
-72.5518
0
LINE
8
Black
10
165.685
20
-72.5518
11
165.685
21
-74.7514
0
LINE
8
Black
10
164.415
20
-74.7514
11
163.815
21
-74.7514
0
LINE
8
Black
10
163.815
20
-74.7514
11
163.815
21
-72.5518
0
LINE
8
Black
10
163.815
20
-72.5518
11
164.415
21
-72.5518
0
LINE
8
Black
10
164.415
20
-72.5518
11
164.415
21
-74.7514
0
LINE
8
Black
10
161.875
20
-74.7514
11
161.275
21
-74.7514
0
LINE
8
Black
10
161.275
20
-74.7514
11
161.275
21
-72.5518
0
LINE
8
Black
10
161.275
20
-72.5518
11
161.875
21
-72.5518
0
LINE
8
Black
10
161.875
20
-72.5518
11
161.875
21
-74.7514
0
LINE
8
Black
10
160.605
20
-74.7514
11
160.005
21
-74.7514
0
LINE
8
Black
10
160.005
20
-74.7514
11
160.005
21
-72.5518
0
LINE
8
Black
10
160.005
20
-72.5518
11
160.605
21
-72.5518
0
LINE
8
Black
10
160.605
20
-72.5518
11
160.605
21
-74.7514
0
LINE
8
Black
10
163.145
20
-74.7514
11
162.545
21
-74.7514
0
LINE
8
Black
10
162.545
20
-74.7514
11
162.545
21
-72.5518
0
LINE
8
Black
10
162.545
20
-72.5518
11
163.145
21
-72.5518
0
LINE
8
Black
10
163.145
20
-72.5518
11
163.145
21
-74.7514
0
LINE
8
Black
10
179.751
20
-74.6447
11
177.552
21
-74.6447
0
LINE
8
Black
10
177.552
20
-74.6447
11
177.552
21
-74.0453
0
LINE
8
Black
10
177.552
20
-74.0453
11
179.751
21
-74.0453
0
LINE
8
Black
10
179.751
20
-74.0453
11
179.751
21
-74.6447
0
LINE
8
Black
10
184.948
20
-74.6447
11
182.749
21
-74.6447
0
LINE
8
Black
10
182.749
20
-74.6447
11
182.749
21
-74.0453
0
LINE
8
Black
10
182.749
20
-74.0453
11
184.948
21
-74.0453
0
LINE
8
Black
10
184.948
20
-74.0453
11
184.948
21
-74.6447
0
LINE
8
Black
10
174.305
20
-74.0715
11
173.493
21
-74.0715
0
LINE
8
Black
10
173.493
20
-74.0715
11
173.493
21
-72.9285
0
LINE
8
Black
10
173.493
20
-72.9285
11
174.305
21
-72.9285
0
LINE
8
Black
10
174.305
20
-72.9285
11
174.305
21
-74.0715
0
LINE
8
Black
10
176.007
20
-74.0715
11
175.195
21
-74.0715
0
LINE
8
Black
10
175.195
20
-74.0715
11
175.195
21
-72.9285
0
LINE
8
Black
10
175.195
20
-72.9285
11
176.007
21
-72.9285
0
LINE
8
Black
10
176.007
20
-72.9285
11
176.007
21
-74.0715
0
LINE
8
Black
10
142.321
20
-74.0073
11
141.178
21
-74.0073
0
LINE
8
Black
10
141.178
20
-74.0073
11
141.178
21
-73.1945
0
LINE
8
Black
10
141.178
20
-73.1945
11
142.321
21
-73.1945
0
LINE
8
Black
10
142.321
20
-73.1945
11
142.321
21
-74.0073
0
LINE
8
Black
10
129.9
20
-73.7
11
129.45
21
-73.7
0
LINE
8
Black
10
129.45
20
-73.7
11
129.45
21
-72.2
0
LINE
8
Black
10
129.45
20
-72.2
11
129.9
21
-72.2
0
LINE
8
Black
10
129.9
20
-72.2
11
129.9
21
-73.7
0
LINE
8
Black
10
130.55
20
-73.7
11
130.1
21
-73.7
0
LINE
8
Black
10
130.1
20
-73.7
11
130.1
21
-72.2
0
LINE
8
Black
10
130.1
20
-72.2
11
130.55
21
-72.2
0
LINE
8
Black
10
130.55
20
-72.2
11
130.55
21
-73.7
0
LINE
8
Black
10
128.6
20
-73.7
11
128.15
21
-73.7
0
LINE
8
Black
10
128.15
20
-73.7
11
128.15
21
-72.2
0
LINE
8
Black
10
128.15
20
-72.2
11
128.6
21
-72.2
0
LINE
8
Black
10
128.6
20
-72.2
11
128.6
21
-73.7
0
LINE
8
Black
10
131.2
20
-73.7
11
130.75
21
-73.7
0
LINE
8
Black
10
130.75
20
-73.7
11
130.75
21
-72.2
0
LINE
8
Black
10
130.75
20
-72.2
11
131.2
21
-72.2
0
LINE
8
Black
10
131.2
20
-72.2
11
131.2
21
-73.7
0
LINE
8
Black
10
131.85
20
-73.7
11
131.4
21
-73.7
0
LINE
8
Black
10
131.4
20
-73.7
11
131.4
21
-72.2
0
LINE
8
Black
10
131.4
20
-72.2
11
131.85
21
-72.2
0
LINE
8
Black
10
131.85
20
-72.2
11
131.85
21
-73.7
0
LINE
8
Black
10
132.5
20
-73.7
11
132.05
21
-73.7
0
LINE
8
Black
10
132.05
20
-73.7
11
132.05
21
-72.2
0
LINE
8
Black
10
132.05
20
-72.2
11
132.5
21
-72.2
0
LINE
8
Black
10
132.5
20
-72.2
11
132.5
21
-73.7
0
LINE
8
Black
10
127.95
20
-73.7
11
127.5
21
-73.7
0
LINE
8
Black
10
127.5
20
-73.7
11
127.5
21
-72.2
0
LINE
8
Black
10
127.5
20
-72.2
11
127.95
21
-72.2
0
LINE
8
Black
10
127.95
20
-72.2
11
127.95
21
-73.7
0
LINE
8
Black
10
129.25
20
-73.7
11
128.8
21
-73.7
0
LINE
8
Black
10
128.8
20
-73.7
11
128.8
21
-72.2
0
LINE
8
Black
10
128.8
20
-72.2
11
129.25
21
-72.2
0
LINE
8
Black
10
129.25
20
-72.2
11
129.25
21
-73.7
0
LINE
8
Black
10
140.321
20
-73.5073
11
139.178
21
-73.5073
0
LINE
8
Black
10
139.178
20
-73.5073
11
139.178
21
-72.6945
0
LINE
8
Black
10
139.178
20
-72.6945
11
140.321
21
-72.6945
0
LINE
8
Black
10
140.321
20
-72.6945
11
140.321
21
-73.5073
0
LINE
8
Black
10
138.571
20
-73.5073
11
137.428
21
-73.5073
0
LINE
8
Black
10
137.428
20
-73.5073
11
137.428
21
-72.6945
0
LINE
8
Black
10
137.428
20
-72.6945
11
138.571
21
-72.6945
0
LINE
8
Black
10
138.571
20
-72.6945
11
138.571
21
-73.5073
0
LINE
8
Black
10
179.751
20
-73.3747
11
177.552
21
-73.3747
0
LINE
8
Black
10
177.552
20
-73.3747
11
177.552
21
-72.7753
0
LINE
8
Black
10
177.552
20
-72.7753
11
179.751
21
-72.7753
0
LINE
8
Black
10
179.751
20
-72.7753
11
179.751
21
-73.3747
0
LINE
8
Black
10
184.948
20
-73.3747
11
182.749
21
-73.3747
0
LINE
8
Black
10
182.749
20
-73.3747
11
182.749
21
-72.7753
0
LINE
8
Black
10
182.749
20
-72.7753
11
184.948
21
-72.7753
0
LINE
8
Black
10
184.948
20
-72.7753
11
184.948
21
-73.3747
0
LINE
8
Black
10
158.821
20
-73.3055
11
157.678
21
-73.3055
0
LINE
8
Black
10
157.678
20
-73.3055
11
157.678
21
-72.4927
0
LINE
8
Black
10
157.678
20
-72.4927
11
158.821
21
-72.4927
0
LINE
8
Black
10
158.821
20
-72.4927
11
158.821
21
-73.3055
0
LINE
8
Black
10
195.305
20
-73.0715
11
194.493
21
-73.0715
0
LINE
8
Black
10
194.493
20
-73.0715
11
194.493
21
-71.9285
0
LINE
8
Black
10
194.493
20
-71.9285
11
195.305
21
-71.9285
0
LINE
8
Black
10
195.305
20
-71.9285
11
195.305
21
-73.0715
0
LINE
8
Black
10
197.007
20
-73.0715
11
196.195
21
-73.0715
0
LINE
8
Black
10
196.195
20
-73.0715
11
196.195
21
-71.9285
0
LINE
8
Black
10
196.195
20
-71.9285
11
197.007
21
-71.9285
0
LINE
8
Black
10
197.007
20
-71.9285
11
197.007
21
-73.0715
0
LINE
8
Black
10
142.321
20
-72.3055
11
141.178
21
-72.3055
0
LINE
8
Black
10
141.178
20
-72.3055
11
141.178
21
-71.4927
0
LINE
8
Black
10
141.178
20
-71.4927
11
142.321
21
-71.4927
0
LINE
8
Black
10
142.321
20
-71.4927
11
142.321
21
-72.3055
0
LINE
8
Black
10
184.948
20
-72.1047
11
182.749
21
-72.1047
0
LINE
8
Black
10
182.749
20
-72.1047
11
182.749
21
-71.5053
0
LINE
8
Black
10
182.749
20
-71.5053
11
184.948
21
-71.5053
0
LINE
8
Black
10
184.948
20
-71.5053
11
184.948
21
-72.1047
0
LINE
8
Black
10
179.751
20
-72.1047
11
177.552
21
-72.1047
0
LINE
8
Black
10
177.552
20
-72.1047
11
177.552
21
-71.5053
0
LINE
8
Black
10
177.552
20
-71.5053
11
179.751
21
-71.5053
0
LINE
8
Black
10
179.751
20
-71.5053
11
179.751
21
-72.1047
0
LINE
8
Black
10
223.925
20
-72.1
11
222.675
21
-72.1
0
LINE
8
Black
10
222.675
20
-72.1
11
222.675
21
-71.1
0
LINE
8
Black
10
222.675
20
-71.1
11
223.925
21
-71.1
0
LINE
8
Black
10
223.925
20
-71.1
11
223.925
21
-72.1
0
LINE
8
Black
10
140.321
20
-71.8055
11
139.178
21
-71.8055
0
LINE
8
Black
10
139.178
20
-71.8055
11
139.178
21
-70.9927
0
LINE
8
Black
10
139.178
20
-70.9927
11
140.321
21
-70.9927
0
LINE
8
Black
10
140.321
20
-70.9927
11
140.321
21
-71.8055
0
LINE
8
Black
10
138.571
20
-71.8055
11
137.428
21
-71.8055
0
LINE
8
Black
10
137.428
20
-71.8055
11
137.428
21
-70.9927
0
LINE
8
Black
10
137.428
20
-70.9927
11
138.571
21
-70.9927
0
LINE
8
Black
10
138.571
20
-70.9927
11
138.571
21
-71.8055
0
LINE
8
Black
10
153.95
20
-71.6
11
153.05
21
-71.6
0
LINE
8
Black
10
153.05
20
-71.6
11
153.05
21
-70.8
0
LINE
8
Black
10
153.05
20
-70.8
11
153.95
21
-70.8
0
LINE
8
Black
10
153.95
20
-70.8
11
153.95
21
-71.6
0
LINE
8
Black
10
219.05
20
-71.5502
11
217.45
21
-71.5502
0
LINE
8
Black
10
217.45
20
-71.5502
11
217.45
21
-68.5505
0
LINE
8
Black
10
217.45
20
-68.5505
11
219.05
21
-68.5505
0
LINE
8
Black
10
219.05
20
-68.5505
11
219.05
21
-71.5502
0
LINE
8
Black
10
115.1
20
-71.55
11
113.9
21
-71.55
0
LINE
8
Black
10
113.9
20
-71.55
11
113.9
21
-70.35
0
LINE
8
Black
10
113.9
20
-70.35
11
115.1
21
-70.35
0
LINE
8
Black
10
115.1
20
-70.35
11
115.1
21
-71.55
0
LINE
8
Black
10
113.1
20
-71.55
11
111.9
21
-71.55
0
LINE
8
Black
10
111.9
20
-71.55
11
111.9
21
-70.35
0
LINE
8
Black
10
111.9
20
-70.35
11
113.1
21
-70.35
0
LINE
8
Black
10
113.1
20
-70.35
11
113.1
21
-71.55
0
LINE
8
Black
10
169.2
20
-71.35
11
168.3
21
-71.35
0
LINE
8
Black
10
168.3
20
-71.35
11
168.3
21
-70.55
0
LINE
8
Black
10
168.3
20
-70.55
11
169.2
21
-70.55
0
LINE
8
Black
10
169.2
20
-70.55
11
169.2
21
-71.35
0
LINE
8
Black
10
197.007
20
-71.3215
11
196.195
21
-71.3215
0
LINE
8
Black
10
196.195
20
-71.3215
11
196.195
21
-70.1785
0
LINE
8
Black
10
196.195
20
-70.1785
11
197.007
21
-70.1785
0
LINE
8
Black
10
197.007
20
-70.1785
11
197.007
21
-71.3215
0
LINE
8
Black
10
195.305
20
-71.3215
11
194.493
21
-71.3215
0
LINE
8
Black
10
194.493
20
-71.3215
11
194.493
21
-70.1785
0
LINE
8
Black
10
194.493
20
-70.1785
11
195.305
21
-70.1785
0
LINE
8
Black
10
195.305
20
-70.1785
11
195.305
21
-71.3215
0
LINE
8
Black
10
135.071
20
-71.2573
11
133.928
21
-71.2573
0
LINE
8
Black
10
133.928
20
-71.2573
11
133.928
21
-70.4445
0
LINE
8
Black
10
133.928
20
-70.4445
11
135.071
21
-70.4445
0
LINE
8
Black
10
135.071
20
-70.4445
11
135.071
21
-71.2573
0
LINE
8
Black
10
121.05
20
-71.2
11
120.6
21
-71.2
0
LINE
8
Black
10
120.6
20
-71.2
11
120.6
21
-69.7
0
LINE
8
Black
10
120.6
20
-69.7
11
121.05
21
-69.7
0
LINE
8
Black
10
121.05
20
-69.7
11
121.05
21
-71.2
0
LINE
8
Black
10
123
20
-71.2
11
122.55
21
-71.2
0
LINE
8
Black
10
122.55
20
-71.2
11
122.55
21
-69.7
0
LINE
8
Black
10
122.55
20
-69.7
11
123
21
-69.7
0
LINE
8
Black
10
123
20
-69.7
11
123
21
-71.2
0
LINE
8
Black
10
122.35
20
-71.2
11
121.9
21
-71.2
0
LINE
8
Black
10
121.9
20
-71.2
11
121.9
21
-69.7
0
LINE
8
Black
10
121.9
20
-69.7
11
122.35
21
-69.7
0
LINE
8
Black
10
122.35
20
-69.7
11
122.35
21
-71.2
0
LINE
8
Black
10
121.7
20
-71.2
11
121.25
21
-71.2
0
LINE
8
Black
10
121.25
20
-71.2
11
121.25
21
-69.7
0
LINE
8
Black
10
121.25
20
-69.7
11
121.7
21
-69.7
0
LINE
8
Black
10
121.7
20
-69.7
11
121.7
21
-71.2
0
LINE
8
Black
10
120.4
20
-71.2
11
119.95
21
-71.2
0
LINE
8
Black
10
119.95
20
-71.2
11
119.95
21
-69.7
0
LINE
8
Black
10
119.95
20
-69.7
11
120.4
21
-69.7
0
LINE
8
Black
10
120.4
20
-69.7
11
120.4
21
-71.2
0
LINE
8
Black
10
119.75
20
-71.2
11
119.3
21
-71.2
0
LINE
8
Black
10
119.3
20
-71.2
11
119.3
21
-69.7
0
LINE
8
Black
10
119.3
20
-69.7
11
119.75
21
-69.7
0
LINE
8
Black
10
119.75
20
-69.7
11
119.75
21
-71.2
0
LINE
8
Black
10
119.1
20
-71.2
11
118.65
21
-71.2
0
LINE
8
Black
10
118.65
20
-71.2
11
118.65
21
-69.7
0
LINE
8
Black
10
118.65
20
-69.7
11
119.1
21
-69.7
0
LINE
8
Black
10
119.1
20
-69.7
11
119.1
21
-71.2
0
LINE
8
Black
10
118.45
20
-71.2
11
118
21
-71.2
0
LINE
8
Black
10
118
20
-71.2
11
118
21
-69.7
0
LINE
8
Black
10
118
20
-69.7
11
118.45
21
-69.7
0
LINE
8
Black
10
118.45
20
-69.7
11
118.45
21
-71.2
0
LINE
8
Black
10
160.071
20
-71.0073
11
158.928
21
-71.0073
0
LINE
8
Black
10
158.928
20
-71.0073
11
158.928
21
-70.1945
0
LINE
8
Black
10
158.928
20
-70.1945
11
160.071
21
-70.1945
0
LINE
8
Black
10
160.071
20
-70.1945
11
160.071
21
-71.0073
0
LINE
8
Black
10
165.321
20
-71.0073
11
164.178
21
-71.0073
0
LINE
8
Black
10
164.178
20
-71.0073
11
164.178
21
-70.1945
0
LINE
8
Black
10
164.178
20
-70.1945
11
165.321
21
-70.1945
0
LINE
8
Black
10
165.321
20
-70.1945
11
165.321
21
-71.0073
0
LINE
8
Black
10
146.571
20
-71.0073
11
145.428
21
-71.0073
0
LINE
8
Black
10
145.428
20
-71.0073
11
145.428
21
-70.1945
0
LINE
8
Black
10
145.428
20
-70.1945
11
146.571
21
-70.1945
0
LINE
8
Black
10
146.571
20
-70.1945
11
146.571
21
-71.0073
0
LINE
8
Black
10
144.821
20
-71.0073
11
143.678
21
-71.0073
0
LINE
8
Black
10
143.678
20
-71.0073
11
143.678
21
-70.1945
0
LINE
8
Black
10
143.678
20
-70.1945
11
144.821
21
-70.1945
0
LINE
8
Black
10
144.821
20
-70.1945
11
144.821
21
-71.0073
0
LINE
8
Black
10
161.821
20
-71.0073
11
160.678
21
-71.0073
0
LINE
8
Black
10
160.678
20
-71.0073
11
160.678
21
-70.1945
0
LINE
8
Black
10
160.678
20
-70.1945
11
161.821
21
-70.1945
0
LINE
8
Black
10
161.821
20
-70.1945
11
161.821
21
-71.0073
0
LINE
8
Black
10
149.321
20
-71.0073
11
148.178
21
-71.0073
0
LINE
8
Black
10
148.178
20
-71.0073
11
148.178
21
-70.1945
0
LINE
8
Black
10
148.178
20
-70.1945
11
149.321
21
-70.1945
0
LINE
8
Black
10
149.321
20
-70.1945
11
149.321
21
-71.0073
0
LINE
8
Black
10
157.071
20
-71.0073
11
155.928
21
-71.0073
0
LINE
8
Black
10
155.928
20
-71.0073
11
155.928
21
-70.1945
0
LINE
8
Black
10
155.928
20
-70.1945
11
157.071
21
-70.1945
0
LINE
8
Black
10
157.071
20
-70.1945
11
157.071
21
-71.0073
0
LINE
8
Black
10
213.449
20
-70.9992
11
211.051
21
-70.9992
0
LINE
8
Black
10
211.051
20
-70.9992
11
211.051
21
-68.6015
0
LINE
8
Black
10
211.051
20
-68.6015
11
213.449
21
-68.6015
0
LINE
8
Black
10
213.449
20
-68.6015
11
213.449
21
-70.9992
0
LINE
8
Black
10
188.55
20
-70.8001
11
185.55
21
-70.8001
0
LINE
8
Black
10
185.55
20
-70.8001
11
185.55
21
-69.1999
0
LINE
8
Black
10
185.55
20
-69.1999
11
188.55
21
-69.1999
0
LINE
8
Black
10
188.55
20
-69.1999
11
188.55
21
-70.8001
0
LINE
8
Black
10
192.95
20
-70.8001
11
189.95
21
-70.8001
0
LINE
8
Black
10
189.95
20
-70.8001
11
189.95
21
-69.1999
0
LINE
8
Black
10
189.95
20
-69.1999
11
192.95
21
-69.1999
0
LINE
8
Black
10
192.95
20
-69.1999
11
192.95
21
-70.8001
0
LINE
8
Black
10
125.351
20
-70.7704
11
124.649
21
-70.7704
0
LINE
8
Black
10
124.649
20
-70.7704
11
124.649
21
-69.7696
0
LINE
8
Black
10
124.649
20
-69.7696
11
125.351
21
-69.7696
0
LINE
8
Black
10
125.351
20
-69.7696
11
125.351
21
-70.7704
0
LINE
8
Black
10
151.95
20
-70.65
11
151.05
21
-70.65
0
LINE
8
Black
10
151.05
20
-70.65
11
151.05
21
-69.85
0
LINE
8
Black
10
151.05
20
-69.85
11
151.95
21
-69.85
0
LINE
8
Black
10
151.95
20
-69.85
11
151.95
21
-70.65
0
LINE
8
Black
10
140.321
20
-70.5073
11
139.178
21
-70.5073
0
LINE
8
Black
10
139.178
20
-70.5073
11
139.178
21
-69.6945
0
LINE
8
Black
10
139.178
20
-69.6945
11
140.321
21
-69.6945
0
LINE
8
Black
10
140.321
20
-69.6945
11
140.321
21
-70.5073
0
LINE
8
Black
10
181.821
20
-70.5073
11
180.678
21
-70.5073
0
LINE
8
Black
10
180.678
20
-70.5073
11
180.678
21
-69.6945
0
LINE
8
Black
10
180.678
20
-69.6945
11
181.821
21
-69.6945
0
LINE
8
Black
10
181.821
20
-69.6945
11
181.821
21
-70.5073
0
LINE
8
Black
10
184.321
20
-70.5073
11
183.178
21
-70.5073
0
LINE
8
Black
10
183.178
20
-70.5073
11
183.178
21
-69.6945
0
LINE
8
Black
10
183.178
20
-69.6945
11
184.321
21
-69.6945
0
LINE
8
Black
10
184.321
20
-69.6945
11
184.321
21
-70.5073
0
LINE
8
Black
10
177.65
20
-70.5
11
177.05
21
-70.5
0
LINE
8
Black
10
177.05
20
-70.5
11
177.05
21
-70
0
LINE
8
Black
10
177.05
20
-70
11
177.65
21
-70
0
LINE
8
Black
10
177.65
20
-70
11
177.65
21
-70.5
0
LINE
8
Black
10
167.2
20
-70.4
11
166.3
21
-70.4
0
LINE
8
Black
10
166.3
20
-70.4
11
166.3
21
-69.6
0
LINE
8
Black
10
166.3
20
-69.6
11
167.2
21
-69.6
0
LINE
8
Black
10
167.2
20
-69.6
11
167.2
21
-70.4
0
LINE
8
Black
10
223.925
20
-70.1
11
222.675
21
-70.1
0
LINE
8
Black
10
222.675
20
-70.1
11
222.675
21
-69.1
0
LINE
8
Black
10
222.675
20
-69.1
11
223.925
21
-69.1
0
LINE
8
Black
10
223.925
20
-69.1
11
223.925
21
-70.1
0
LINE
8
Black
10
178.95
20
-70
11
178.35
21
-70
0
LINE
8
Black
10
178.35
20
-70
11
178.35
21
-69.5
0
LINE
8
Black
10
178.35
20
-69.5
11
178.95
21
-69.5
0
LINE
8
Black
10
178.95
20
-69.5
11
178.95
21
-70
0
LINE
8
Black
10
153.95
20
-69.7
11
153.05
21
-69.7
0
LINE
8
Black
10
153.05
20
-69.7
11
153.05
21
-68.9
0
LINE
8
Black
10
153.05
20
-68.9
11
153.95
21
-68.9
0
LINE
8
Black
10
153.95
20
-68.9
11
153.95
21
-69.7
0
LINE
8
Black
10
135.071
20
-69.5555
11
133.928
21
-69.5555
0
LINE
8
Black
10
133.928
20
-69.5555
11
133.928
21
-68.7427
0
LINE
8
Black
10
133.928
20
-68.7427
11
135.071
21
-68.7427
0
LINE
8
Black
10
135.071
20
-68.7427
11
135.071
21
-69.5555
0
LINE
8
Black
10
177.65
20
-69.5
11
177.05
21
-69.5
0
LINE
8
Black
10
177.05
20
-69.5
11
177.05
21
-69
0
LINE
8
Black
10
177.05
20
-69
11
177.65
21
-69
0
LINE
8
Black
10
177.65
20
-69
11
177.65
21
-69.5
0
LINE
8
Black
10
169.2
20
-69.45
11
168.3
21
-69.45
0
LINE
8
Black
10
168.3
20
-69.45
11
168.3
21
-68.65
0
LINE
8
Black
10
168.3
20
-68.65
11
169.2
21
-68.65
0
LINE
8
Black
10
169.2
20
-68.65
11
169.2
21
-69.45
0
LINE
8
Black
10
165.321
20
-69.3055
11
164.178
21
-69.3055
0
LINE
8
Black
10
164.178
20
-69.3055
11
164.178
21
-68.4927
0
LINE
8
Black
10
164.178
20
-68.4927
11
165.321
21
-68.4927
0
LINE
8
Black
10
165.321
20
-68.4927
11
165.321
21
-69.3055
0
LINE
8
Black
10
157.071
20
-69.3055
11
155.928
21
-69.3055
0
LINE
8
Black
10
155.928
20
-69.3055
11
155.928
21
-68.4927
0
LINE
8
Black
10
155.928
20
-68.4927
11
157.071
21
-68.4927
0
LINE
8
Black
10
157.071
20
-68.4927
11
157.071
21
-69.3055
0
LINE
8
Black
10
144.821
20
-69.3055
11
143.678
21
-69.3055
0
LINE
8
Black
10
143.678
20
-69.3055
11
143.678
21
-68.4927
0
LINE
8
Black
10
143.678
20
-68.4927
11
144.821
21
-68.4927
0
LINE
8
Black
10
144.821
20
-68.4927
11
144.821
21
-69.3055
0
LINE
8
Black
10
146.571
20
-69.3055
11
145.428
21
-69.3055
0
LINE
8
Black
10
145.428
20
-69.3055
11
145.428
21
-68.4927
0
LINE
8
Black
10
145.428
20
-68.4927
11
146.571
21
-68.4927
0
LINE
8
Black
10
146.571
20
-68.4927
11
146.571
21
-69.3055
0
LINE
8
Black
10
161.821
20
-69.3055
11
160.678
21
-69.3055
0
LINE
8
Black
10
160.678
20
-69.3055
11
160.678
21
-68.4927
0
LINE
8
Black
10
160.678
20
-68.4927
11
161.821
21
-68.4927
0
LINE
8
Black
10
161.821
20
-68.4927
11
161.821
21
-69.3055
0
LINE
8
Black
10
149.321
20
-69.3055
11
148.178
21
-69.3055
0
LINE
8
Black
10
148.178
20
-69.3055
11
148.178
21
-68.4927
0
LINE
8
Black
10
148.178
20
-68.4927
11
149.321
21
-68.4927
0
LINE
8
Black
10
149.321
20
-68.4927
11
149.321
21
-69.3055
0
LINE
8
Black
10
160.071
20
-69.3055
11
158.928
21
-69.3055
0
LINE
8
Black
10
158.928
20
-69.3055
11
158.928
21
-68.4927
0
LINE
8
Black
10
158.928
20
-68.4927
11
160.071
21
-68.4927
0
LINE
8
Black
10
160.071
20
-68.4927
11
160.071
21
-69.3055
0
LINE
8
Black
10
181.821
20
-68.8055
11
180.678
21
-68.8055
0
LINE
8
Black
10
180.678
20
-68.8055
11
180.678
21
-67.9927
0
LINE
8
Black
10
180.678
20
-67.9927
11
181.821
21
-67.9927
0
LINE
8
Black
10
181.821
20
-67.9927
11
181.821
21
-68.8055
0
LINE
8
Black
10
140.321
20
-68.8055
11
139.178
21
-68.8055
0
LINE
8
Black
10
139.178
20
-68.8055
11
139.178
21
-67.9927
0
LINE
8
Black
10
139.178
20
-67.9927
11
140.321
21
-67.9927
0
LINE
8
Black
10
140.321
20
-67.9927
11
140.321
21
-68.8055
0
LINE
8
Black
10
184.321
20
-68.8055
11
183.178
21
-68.8055
0
LINE
8
Black
10
183.178
20
-68.8055
11
183.178
21
-67.9927
0
LINE
8
Black
10
183.178
20
-67.9927
11
184.321
21
-67.9927
0
LINE
8
Black
10
184.321
20
-67.9927
11
184.321
21
-68.8055
0
LINE
8
Black
10
117.072
20
-68.7573
11
115.928
21
-68.7573
0
LINE
8
Black
10
115.928
20
-68.7573
11
115.928
21
-67.9445
0
LINE
8
Black
10
115.928
20
-67.9445
11
117.072
21
-67.9445
0
LINE
8
Black
10
117.072
20
-67.9445
11
117.072
21
-68.7573
0
LINE
8
Black
10
124.398
20
-68.2304
11
123.697
21
-68.2304
0
LINE
8
Black
10
123.697
20
-68.2304
11
123.697
21
-67.2296
0
LINE
8
Black
10
123.697
20
-67.2296
11
124.398
21
-67.2296
0
LINE
8
Black
10
124.398
20
-67.2296
11
124.398
21
-68.2304
0
LINE
8
Black
10
126.303
20
-68.2304
11
125.602
21
-68.2304
0
LINE
8
Black
10
125.602
20
-68.2304
11
125.602
21
-67.2296
0
LINE
8
Black
10
125.602
20
-67.2296
11
126.303
21
-67.2296
0
LINE
8
Black
10
126.303
20
-67.2296
11
126.303
21
-68.2304
0
LINE
8
Black
10
154.071
20
-68.0073
11
152.928
21
-68.0073
0
LINE
8
Black
10
152.928
20
-68.0073
11
152.928
21
-67.1945
0
LINE
8
Black
10
152.928
20
-67.1945
11
154.071
21
-67.1945
0
LINE
8
Black
10
154.071
20
-67.1945
11
154.071
21
-68.0073
0
LINE
8
Black
10
161.821
20
-68.0073
11
160.678
21
-68.0073
0
LINE
8
Black
10
160.678
20
-68.0073
11
160.678
21
-67.1945
0
LINE
8
Black
10
160.678
20
-67.1945
11
161.821
21
-67.1945
0
LINE
8
Black
10
161.821
20
-67.1945
11
161.821
21
-68.0073
0
LINE
8
Black
10
129.9
20
-67.8
11
129.45
21
-67.8
0
LINE
8
Black
10
129.45
20
-67.8
11
129.45
21
-66.3
0
LINE
8
Black
10
129.45
20
-66.3
11
129.9
21
-66.3
0
LINE
8
Black
10
129.9
20
-66.3
11
129.9
21
-67.8
0
LINE
8
Black
10
132.5
20
-67.8
11
132.05
21
-67.8
0
LINE
8
Black
10
132.05
20
-67.8
11
132.05
21
-66.3
0
LINE
8
Black
10
132.05
20
-66.3
11
132.5
21
-66.3
0
LINE
8
Black
10
132.5
20
-66.3
11
132.5
21
-67.8
0
LINE
8
Black
10
127.95
20
-67.8
11
127.5
21
-67.8
0
LINE
8
Black
10
127.5
20
-67.8
11
127.5
21
-66.3
0
LINE
8
Black
10
127.5
20
-66.3
11
127.95
21
-66.3
0
LINE
8
Black
10
127.95
20
-66.3
11
127.95
21
-67.8
0
LINE
8
Black
10
128.6
20
-67.8
11
128.15
21
-67.8
0
LINE
8
Black
10
128.15
20
-67.8
11
128.15
21
-66.3
0
LINE
8
Black
10
128.15
20
-66.3
11
128.6
21
-66.3
0
LINE
8
Black
10
128.6
20
-66.3
11
128.6
21
-67.8
0
LINE
8
Black
10
129.25
20
-67.8
11
128.8
21
-67.8
0
LINE
8
Black
10
128.8
20
-67.8
11
128.8
21
-66.3
0
LINE
8
Black
10
128.8
20
-66.3
11
129.25
21
-66.3
0
LINE
8
Black
10
129.25
20
-66.3
11
129.25
21
-67.8
0
LINE
8
Black
10
131.85
20
-67.8
11
131.4
21
-67.8
0
LINE
8
Black
10
131.4
20
-67.8
11
131.4
21
-66.3
0
LINE
8
Black
10
131.4
20
-66.3
11
131.85
21
-66.3
0
LINE
8
Black
10
131.85
20
-66.3
11
131.85
21
-67.8
0
LINE
8
Black
10
131.2
20
-67.8
11
130.75
21
-67.8
0
LINE
8
Black
10
130.75
20
-67.8
11
130.75
21
-66.3
0
LINE
8
Black
10
130.75
20
-66.3
11
131.2
21
-66.3
0
LINE
8
Black
10
131.2
20
-66.3
11
131.2
21
-67.8
0
LINE
8
Black
10
130.55
20
-67.8
11
130.1
21
-67.8
0
LINE
8
Black
10
130.1
20
-67.8
11
130.1
21
-66.3
0
LINE
8
Black
10
130.1
20
-66.3
11
130.55
21
-66.3
0
LINE
8
Black
10
130.55
20
-66.3
11
130.55
21
-67.8
0
LINE
8
Black
10
178.1
20
-67.65
11
176.9
21
-67.65
0
LINE
8
Black
10
176.9
20
-67.65
11
176.9
21
-66.45
0
LINE
8
Black
10
176.9
20
-66.45
11
178.1
21
-66.45
0
LINE
8
Black
10
178.1
20
-66.45
11
178.1
21
-67.65
0
LINE
8
Black
10
176.1
20
-67.65
11
174.9
21
-67.65
0
LINE
8
Black
10
174.9
20
-67.65
11
174.9
21
-66.45
0
LINE
8
Black
10
174.9
20
-66.45
11
176.1
21
-66.45
0
LINE
8
Black
10
176.1
20
-66.45
11
176.1
21
-67.65
0
LINE
8
Black
10
117.072
20
-67.0555
11
115.928
21
-67.0555
0
LINE
8
Black
10
115.928
20
-67.0555
11
115.928
21
-66.2427
0
LINE
8
Black
10
115.928
20
-66.2427
11
117.072
21
-66.2427
0
LINE
8
Black
10
117.072
20
-66.2427
11
117.072
21
-67.0555
0
LINE
8
Black
10
126.572
20
-66.7573
11
125.428
21
-66.7573
0
LINE
8
Black
10
125.428
20
-66.7573
11
125.428
21
-65.9445
0
LINE
8
Black
10
125.428
20
-65.9445
11
126.572
21
-65.9445
0
LINE
8
Black
10
126.572
20
-65.9445
11
126.572
21
-66.7573
0
LINE
8
Black
10
191.071
20
-66.5073
11
189.928
21
-66.5073
0
LINE
8
Black
10
189.928
20
-66.5073
11
189.928
21
-65.6945
0
LINE
8
Black
10
189.928
20
-65.6945
11
191.071
21
-65.6945
0
LINE
8
Black
10
191.071
20
-65.6945
11
191.071
21
-66.5073
0
LINE
8
Black
10
154.071
20
-66.3055
11
152.928
21
-66.3055
0
LINE
8
Black
10
152.928
20
-66.3055
11
152.928
21
-65.4927
0
LINE
8
Black
10
152.928
20
-65.4927
11
154.071
21
-65.4927
0
LINE
8
Black
10
154.071
20
-65.4927
11
154.071
21
-66.3055
0
LINE
8
Black
10
161.821
20
-66.3055
11
160.678
21
-66.3055
0
LINE
8
Black
10
160.678
20
-66.3055
11
160.678
21
-65.4927
0
LINE
8
Black
10
160.678
20
-65.4927
11
161.821
21
-65.4927
0
LINE
8
Black
10
161.821
20
-65.4927
11
161.821
21
-66.3055
0
LINE
8
Black
10
118.45
20
-65.3
11
118
21
-65.3
0
LINE
8
Black
10
118
20
-65.3
11
118
21
-63.8
0
LINE
8
Black
10
118
20
-63.8
11
118.45
21
-63.8
0
LINE
8
Black
10
118.45
20
-63.8
11
118.45
21
-65.3
0
LINE
8
Black
10
123
20
-65.3
11
122.55
21
-65.3
0
LINE
8
Black
10
122.55
20
-65.3
11
122.55
21
-63.8
0
LINE
8
Black
10
122.55
20
-63.8
11
123
21
-63.8
0
LINE
8
Black
10
123
20
-63.8
11
123
21
-65.3
0
LINE
8
Black
10
122.35
20
-65.3
11
121.9
21
-65.3
0
LINE
8
Black
10
121.9
20
-65.3
11
121.9
21
-63.8
0
LINE
8
Black
10
121.9
20
-63.8
11
122.35
21
-63.8
0
LINE
8
Black
10
122.35
20
-63.8
11
122.35
21
-65.3
0
LINE
8
Black
10
121.7
20
-65.3
11
121.25
21
-65.3
0
LINE
8
Black
10
121.25
20
-65.3
11
121.25
21
-63.8
0
LINE
8
Black
10
121.25
20
-63.8
11
121.7
21
-63.8
0
LINE
8
Black
10
121.7
20
-63.8
11
121.7
21
-65.3
0
LINE
8
Black
10
121.05
20
-65.3
11
120.6
21
-65.3
0
LINE
8
Black
10
120.6
20
-65.3
11
120.6
21
-63.8
0
LINE
8
Black
10
120.6
20
-63.8
11
121.05
21
-63.8
0
LINE
8
Black
10
121.05
20
-63.8
11
121.05
21
-65.3
0
LINE
8
Black
10
120.4
20
-65.3
11
119.95
21
-65.3
0
LINE
8
Black
10
119.95
20
-65.3
11
119.95
21
-63.8
0
LINE
8
Black
10
119.95
20
-63.8
11
120.4
21
-63.8
0
LINE
8
Black
10
120.4
20
-63.8
11
120.4
21
-65.3
0
LINE
8
Black
10
119.75
20
-65.3
11
119.3
21
-65.3
0
LINE
8
Black
10
119.3
20
-65.3
11
119.3
21
-63.8
0
LINE
8
Black
10
119.3
20
-63.8
11
119.75
21
-63.8
0
LINE
8
Black
10
119.75
20
-63.8
11
119.75
21
-65.3
0
LINE
8
Black
10
119.1
20
-65.3
11
118.65
21
-65.3
0
LINE
8
Black
10
118.65
20
-65.3
11
118.65
21
-63.8
0
LINE
8
Black
10
118.65
20
-63.8
11
119.1
21
-63.8
0
LINE
8
Black
10
119.1
20
-63.8
11
119.1
21
-65.3
0
LINE
8
Black
10
134.805
20
-65.0715
11
133.993
21
-65.0715
0
LINE
8
Black
10
133.993
20
-65.0715
11
133.993
21
-63.9285
0
LINE
8
Black
10
133.993
20
-63.9285
11
134.805
21
-63.9285
0
LINE
8
Black
10
134.805
20
-63.9285
11
134.805
21
-65.0715
0
LINE
8
Black
10
136.507
20
-65.0715
11
135.695
21
-65.0715
0
LINE
8
Black
10
135.695
20
-65.0715
11
135.695
21
-63.9285
0
LINE
8
Black
10
135.695
20
-63.9285
11
136.507
21
-63.9285
0
LINE
8
Black
10
136.507
20
-63.9285
11
136.507
21
-65.0715
0
LINE
8
Black
10
126.572
20
-65.0555
11
125.428
21
-65.0555
0
LINE
8
Black
10
125.428
20
-65.0555
11
125.428
21
-64.2427
0
LINE
8
Black
10
125.428
20
-64.2427
11
126.572
21
-64.2427
0
LINE
8
Black
10
126.572
20
-64.2427
11
126.572
21
-65.0555
0
LINE
8
Black
10
191.071
20
-64.8055
11
189.928
21
-64.8055
0
LINE
8
Black
10
189.928
20
-64.8055
11
189.928
21
-63.9927
0
LINE
8
Black
10
189.928
20
-63.9927
11
191.071
21
-63.9927
0
LINE
8
Black
10
191.071
20
-63.9927
11
191.071
21
-64.8055
0
LINE
8
Black
10
171.071
20
-64.7573
11
169.928
21
-64.7573
0
LINE
8
Black
10
169.928
20
-64.7573
11
169.928
21
-63.9445
0
LINE
8
Black
10
169.928
20
-63.9445
11
171.071
21
-63.9445
0
LINE
8
Black
10
171.071
20
-63.9445
11
171.071
21
-64.7573
0
LINE
8
Black
10
177.3
20
-64.55
11
175.7
21
-64.55
0
LINE
8
Black
10
175.7
20
-64.55
11
175.7
21
-63.05
0
LINE
8
Black
10
175.7
20
-63.05
11
177.3
21
-63.05
0
LINE
8
Black
10
177.3
20
-63.05
11
177.3
21
-64.55
0
LINE
8
Black
10
130.475
20
-63.425
11
130.025
21
-63.425
0
LINE
8
Black
10
130.025
20
-63.425
11
130.025
21
-61.975
0
LINE
8
Black
10
130.025
20
-61.975
11
130.475
21
-61.975
0
LINE
8
Black
10
130.475
20
-61.975
11
130.475
21
-63.425
0
LINE
8
Black
10
131.125
20
-63.425
11
130.675
21
-63.425
0
LINE
8
Black
10
130.675
20
-63.425
11
130.675
21
-61.975
0
LINE
8
Black
10
130.675
20
-61.975
11
131.125
21
-61.975
0
LINE
8
Black
10
131.125
20
-61.975
11
131.125
21
-63.425
0
LINE
8
Black
10
131.775
20
-63.425
11
131.325
21
-63.425
0
LINE
8
Black
10
131.325
20
-63.425
11
131.325
21
-61.975
0
LINE
8
Black
10
131.325
20
-61.975
11
131.775
21
-61.975
0
LINE
8
Black
10
131.775
20
-61.975
11
131.775
21
-63.425
0
LINE
8
Black
10
129.825
20
-63.425
11
129.375
21
-63.425
0
LINE
8
Black
10
129.375
20
-63.425
11
129.375
21
-61.975
0
LINE
8
Black
10
129.375
20
-61.975
11
129.825
21
-61.975
0
LINE
8
Black
10
129.825
20
-61.975
11
129.825
21
-63.425
0
LINE
8
Black
10
132.425
20
-63.425
11
131.975
21
-63.425
0
LINE
8
Black
10
131.975
20
-63.425
11
131.975
21
-61.975
0
LINE
8
Black
10
131.975
20
-61.975
11
132.425
21
-61.975
0
LINE
8
Black
10
132.425
20
-61.975
11
132.425
21
-63.425
0
LINE
8
Black
10
129.175
20
-63.425
11
128.725
21
-63.425
0
LINE
8
Black
10
128.725
20
-63.425
11
128.725
21
-61.975
0
LINE
8
Black
10
128.725
20
-61.975
11
129.175
21
-61.975
0
LINE
8
Black
10
129.175
20
-61.975
11
129.175
21
-63.425
0
LINE
8
Black
10
128.525
20
-63.425
11
128.075
21
-63.425
0
LINE
8
Black
10
128.075
20
-63.425
11
128.075
21
-61.975
0
LINE
8
Black
10
128.075
20
-61.975
11
128.525
21
-61.975
0
LINE
8
Black
10
128.525
20
-61.975
11
128.525
21
-63.425
0
LINE
8
Black
10
139.507
20
-63.3215
11
138.695
21
-63.3215
0
LINE
8
Black
10
138.695
20
-63.3215
11
138.695
21
-62.1785
0
LINE
8
Black
10
138.695
20
-62.1785
11
139.507
21
-62.1785
0
LINE
8
Black
10
139.507
20
-62.1785
11
139.507
21
-63.3215
0
LINE
8
Black
10
137.805
20
-63.3215
11
136.993
21
-63.3215
0
LINE
8
Black
10
136.993
20
-63.3215
11
136.993
21
-62.1785
0
LINE
8
Black
10
136.993
20
-62.1785
11
137.805
21
-62.1785
0
LINE
8
Black
10
137.805
20
-62.1785
11
137.805
21
-63.3215
0
LINE
8
Black
10
136.507
20
-63.3215
11
135.695
21
-63.3215
0
LINE
8
Black
10
135.695
20
-63.3215
11
135.695
21
-62.1785
0
LINE
8
Black
10
135.695
20
-62.1785
11
136.507
21
-62.1785
0
LINE
8
Black
10
136.507
20
-62.1785
11
136.507
21
-63.3215
0
LINE
8
Black
10
134.805
20
-63.3215
11
133.993
21
-63.3215
0
LINE
8
Black
10
133.993
20
-63.3215
11
133.993
21
-62.1785
0
LINE
8
Black
10
133.993
20
-62.1785
11
134.805
21
-62.1785
0
LINE
8
Black
10
134.805
20
-62.1785
11
134.805
21
-63.3215
0
LINE
8
Black
10
171.071
20
-63.0555
11
169.928
21
-63.0555
0
LINE
8
Black
10
169.928
20
-63.0555
11
169.928
21
-62.2427
0
LINE
8
Black
10
169.928
20
-62.2427
11
171.071
21
-62.2427
0
LINE
8
Black
10
171.071
20
-62.2427
11
171.071
21
-63.0555
0
LINE
8
Black
10
137.881
20
-61.5494
11
137.119
21
-61.5494
0
LINE
8
Black
10
137.119
20
-61.5494
11
137.119
21
-60.9398
0
LINE
8
Black
10
137.119
20
-60.9398
11
137.881
21
-60.9398
0
LINE
8
Black
10
137.881
20
-60.9398
11
137.881
21
-61.5494
0
LINE
8
Black
10
136.571
20
-61.0073
11
135.428
21
-61.0073
0
LINE
8
Black
10
135.428
20
-61.0073
11
135.428
21
-60.1945
0
LINE
8
Black
10
135.428
20
-60.1945
11
136.571
21
-60.1945
0
LINE
8
Black
10
136.571
20
-60.1945
11
136.571
21
-61.0073
0
LINE
8
Black
10
134.821
20
-61.0073
11
133.678
21
-61.0073
0
LINE
8
Black
10
133.678
20
-61.0073
11
133.678
21
-60.1945
0
LINE
8
Black
10
133.678
20
-60.1945
11
134.821
21
-60.1945
0
LINE
8
Black
10
134.821
20
-60.1945
11
134.821
21
-61.0073
0
LINE
8
Black
10
125.757
20
-59.5715
11
124.944
21
-59.5715
0
LINE
8
Black
10
124.944
20
-59.5715
11
124.944
21
-58.4285
0
LINE
8
Black
10
124.944
20
-58.4285
11
125.757
21
-58.4285
0
LINE
8
Black
10
125.757
20
-58.4285
11
125.757
21
-59.5715
0
LINE
8
Black
10
124.055
20
-59.5715
11
123.243
21
-59.5715
0
LINE
8
Black
10
123.243
20
-59.5715
11
123.243
21
-58.4285
0
LINE
8
Black
10
123.243
20
-58.4285
11
124.055
21
-58.4285
0
LINE
8
Black
10
124.055
20
-58.4285
11
124.055
21
-59.5715
0
LINE
8
Black
10
134.821
20
-59.3055
11
133.678
21
-59.3055
0
LINE
8
Black
10
133.678
20
-59.3055
11
133.678
21
-58.4927
0
LINE
8
Black
10
133.678
20
-58.4927
11
134.821
21
-58.4927
0
LINE
8
Black
10
134.821
20
-58.4927
11
134.821
21
-59.3055
0
LINE
8
Black
10
136.571
20
-59.3055
11
135.428
21
-59.3055
0
LINE
8
Black
10
135.428
20
-59.3055
11
135.428
21
-58.4927
0
LINE
8
Black
10
135.428
20
-58.4927
11
136.571
21
-58.4927
0
LINE
8
Black
10
136.571
20
-58.4927
11
136.571
21
-59.3055
0
LINE
8
Black
10
137.881
20
-59.0602
11
137.119
21
-59.0602
0
LINE
8
Black
10
137.119
20
-59.0602
11
137.119
21
-58.4506
0
LINE
8
Black
10
137.119
20
-58.4506
11
137.881
21
-58.4506
0
LINE
8
Black
10
137.881
20
-58.4506
11
137.881
21
-59.0602
0
LINE
8
Black
10
228.821
20
-58.2573
11
227.678
21
-58.2573
0
LINE
8
Black
10
227.678
20
-58.2573
11
227.678
21
-57.4445
0
LINE
8
Black
10
227.678
20
-57.4445
11
228.821
21
-57.4445
0
LINE
8
Black
10
228.821
20
-57.4445
11
228.821
21
-58.2573
0
LINE
8
Black
10
129.825
20
-57.525
11
129.375
21
-57.525
0
LINE
8
Black
10
129.375
20
-57.525
11
129.375
21
-56.075
0
LINE
8
Black
10
129.375
20
-56.075
11
129.825
21
-56.075
0
LINE
8
Black
10
129.825
20
-56.075
11
129.825
21
-57.525
0
LINE
8
Black
10
132.425
20
-57.525
11
131.975
21
-57.525
0
LINE
8
Black
10
131.975
20
-57.525
11
131.975
21
-56.075
0
LINE
8
Black
10
131.975
20
-56.075
11
132.425
21
-56.075
0
LINE
8
Black
10
132.425
20
-56.075
11
132.425
21
-57.525
0
LINE
8
Black
10
128.525
20
-57.525
11
128.075
21
-57.525
0
LINE
8
Black
10
128.075
20
-57.525
11
128.075
21
-56.075
0
LINE
8
Black
10
128.075
20
-56.075
11
128.525
21
-56.075
0
LINE
8
Black
10
128.525
20
-56.075
11
128.525
21
-57.525
0
LINE
8
Black
10
129.175
20
-57.525
11
128.725
21
-57.525
0
LINE
8
Black
10
128.725
20
-57.525
11
128.725
21
-56.075
0
LINE
8
Black
10
128.725
20
-56.075
11
129.175
21
-56.075
0
LINE
8
Black
10
129.175
20
-56.075
11
129.175
21
-57.525
0
LINE
8
Black
10
131.775
20
-57.525
11
131.325
21
-57.525
0
LINE
8
Black
10
131.325
20
-57.525
11
131.325
21
-56.075
0
LINE
8
Black
10
131.325
20
-56.075
11
131.775
21
-56.075
0
LINE
8
Black
10
131.775
20
-56.075
11
131.775
21
-57.525
0
LINE
8
Black
10
131.125
20
-57.525
11
130.675
21
-57.525
0
LINE
8
Black
10
130.675
20
-57.525
11
130.675
21
-56.075
0
LINE
8
Black
10
130.675
20
-56.075
11
131.125
21
-56.075
0
LINE
8
Black
10
131.125
20
-56.075
11
131.125
21
-57.525
0
LINE
8
Black
10
130.475
20
-57.525
11
130.025
21
-57.525
0
LINE
8
Black
10
130.025
20
-57.525
11
130.025
21
-56.075
0
LINE
8
Black
10
130.025
20
-56.075
11
130.475
21
-56.075
0
LINE
8
Black
10
130.475
20
-56.075
11
130.475
21
-57.525
0
LINE
8
Black
10
211.821
20
-57.2573
11
210.678
21
-57.2573
0
LINE
8
Black
10
210.678
20
-57.2573
11
210.678
21
-56.4445
0
LINE
8
Black
10
210.678
20
-56.4445
11
211.821
21
-56.4445
0
LINE
8
Black
10
211.821
20
-56.4445
11
211.821
21
-57.2573
0
LINE
8
Black
10
228.821
20
-56.5555
11
227.678
21
-56.5555
0
LINE
8
Black
10
227.678
20
-56.5555
11
227.678
21
-55.7427
0
LINE
8
Black
10
227.678
20
-55.7427
11
228.821
21
-55.7427
0
LINE
8
Black
10
228.821
20
-55.7427
11
228.821
21
-56.5555
0
LINE
8
Black
10
211.821
20
-55.5555
11
210.678
21
-55.5555
0
LINE
8
Black
10
210.678
20
-55.5555
11
210.678
21
-54.7427
0
LINE
8
Black
10
210.678
20
-54.7427
11
211.821
21
-54.7427
0
LINE
8
Black
10
211.821
20
-54.7427
11
211.821
21
-55.5555
0
LINE
8
Black
10
227.071
20
-55.5073
11
225.928
21
-55.5073
0
LINE
8
Black
10
225.928
20
-55.5073
11
225.928
21
-54.6945
0
LINE
8
Black
10
225.928
20
-54.6945
11
227.071
21
-54.6945
0
LINE
8
Black
10
227.071
20
-54.6945
11
227.071
21
-55.5073
0
LINE
8
Black
10
213.81
20
-55.381
11
213.201
21
-55.381
0
LINE
8
Black
10
213.201
20
-55.381
11
213.201
21
-54.619
0
LINE
8
Black
10
213.201
20
-54.619
11
213.81
21
-54.619
0
LINE
8
Black
10
213.81
20
-54.619
11
213.81
21
-55.381
0
LINE
8
Black
10
216.299
20
-55.381
11
215.69
21
-55.381
0
LINE
8
Black
10
215.69
20
-55.381
11
215.69
21
-54.619
0
LINE
8
Black
10
215.69
20
-54.619
11
216.299
21
-54.619
0
LINE
8
Black
10
216.299
20
-54.619
11
216.299
21
-55.381
0
LINE
8
Black
10
224.425
20
-55.175
11
222.975
21
-55.175
0
LINE
8
Black
10
222.975
20
-55.175
11
222.975
21
-54.725
0
LINE
8
Black
10
222.975
20
-54.725
11
224.425
21
-54.725
0
LINE
8
Black
10
224.425
20
-54.725
11
224.425
21
-55.175
0
LINE
8
Black
10
218.525
20
-55.175
11
217.075
21
-55.175
0
LINE
8
Black
10
217.075
20
-55.175
11
217.075
21
-54.725
0
LINE
8
Black
10
217.075
20
-54.725
11
218.525
21
-54.725
0
LINE
8
Black
10
218.525
20
-54.725
11
218.525
21
-55.175
0
LINE
8
Black
10
218.525
20
-54.525
11
217.075
21
-54.525
0
LINE
8
Black
10
217.075
20
-54.525
11
217.075
21
-54.075
0
LINE
8
Black
10
217.075
20
-54.075
11
218.525
21
-54.075
0
LINE
8
Black
10
218.525
20
-54.075
11
218.525
21
-54.525
0
LINE
8
Black
10
224.425
20
-54.525
11
222.975
21
-54.525
0
LINE
8
Black
10
222.975
20
-54.525
11
222.975
21
-54.075
0
LINE
8
Black
10
222.975
20
-54.075
11
224.425
21
-54.075
0
LINE
8
Black
10
224.425
20
-54.075
11
224.425
21
-54.525
0
LINE
8
Black
10
228.821
20
-54.2573
11
227.678
21
-54.2573
0
LINE
8
Black
10
227.678
20
-54.2573
11
227.678
21
-53.4445
0
LINE
8
Black
10
227.678
20
-53.4445
11
228.821
21
-53.4445
0
LINE
8
Black
10
228.821
20
-53.4445
11
228.821
21
-54.2573
0
LINE
8
Black
10
230.571
20
-54.2573
11
229.428
21
-54.2573
0
LINE
8
Black
10
229.428
20
-54.2573
11
229.428
21
-53.4445
0
LINE
8
Black
10
229.428
20
-53.4445
11
230.571
21
-53.4445
0
LINE
8
Black
10
230.571
20
-53.4445
11
230.571
21
-54.2573
0
LINE
8
Black
10
224.425
20
-53.875
11
222.975
21
-53.875
0
LINE
8
Black
10
222.975
20
-53.875
11
222.975
21
-53.425
0
LINE
8
Black
10
222.975
20
-53.425
11
224.425
21
-53.425
0
LINE
8
Black
10
224.425
20
-53.425
11
224.425
21
-53.875
0
LINE
8
Black
10
218.525
20
-53.875
11
217.075
21
-53.875
0
LINE
8
Black
10
217.075
20
-53.875
11
217.075
21
-53.425
0
LINE
8
Black
10
217.075
20
-53.425
11
218.525
21
-53.425
0
LINE
8
Black
10
218.525
20
-53.425
11
218.525
21
-53.875
0
LINE
8
Black
10
227.071
20
-53.8055
11
225.928
21
-53.8055
0
LINE
8
Black
10
225.928
20
-53.8055
11
225.928
21
-52.9927
0
LINE
8
Black
10
225.928
20
-52.9927
11
227.071
21
-52.9927
0
LINE
8
Black
10
227.071
20
-52.9927
11
227.071
21
-53.8055
0
LINE
8
Black
10
215.821
20
-53.7573
11
214.678
21
-53.7573
0
LINE
8
Black
10
214.678
20
-53.7573
11
214.678
21
-52.9445
0
LINE
8
Black
10
214.678
20
-52.9445
11
215.821
21
-52.9445
0
LINE
8
Black
10
215.821
20
-52.9445
11
215.821
21
-53.7573
0
LINE
8
Black
10
211.821
20
-53.7573
11
210.678
21
-53.7573
0
LINE
8
Black
10
210.678
20
-53.7573
11
210.678
21
-52.9445
0
LINE
8
Black
10
210.678
20
-52.9445
11
211.821
21
-52.9445
0
LINE
8
Black
10
211.821
20
-52.9445
11
211.821
21
-53.7573
0
LINE
8
Black
10
224.425
20
-53.225
11
222.975
21
-53.225
0
LINE
8
Black
10
222.975
20
-53.225
11
222.975
21
-52.775
0
LINE
8
Black
10
222.975
20
-52.775
11
224.425
21
-52.775
0
LINE
8
Black
10
224.425
20
-52.775
11
224.425
21
-53.225
0
LINE
8
Black
10
218.525
20
-53.225
11
217.075
21
-53.225
0
LINE
8
Black
10
217.075
20
-53.225
11
217.075
21
-52.775
0
LINE
8
Black
10
217.075
20
-52.775
11
218.525
21
-52.775
0
LINE
8
Black
10
218.525
20
-52.775
11
218.525
21
-53.225
0
LINE
8
Black
10
224.425
20
-52.575
11
222.975
21
-52.575
0
LINE
8
Black
10
222.975
20
-52.575
11
222.975
21
-52.125
0
LINE
8
Black
10
222.975
20
-52.125
11
224.425
21
-52.125
0
LINE
8
Black
10
224.425
20
-52.125
11
224.425
21
-52.575
0
LINE
8
Black
10
218.525
20
-52.575
11
217.075
21
-52.575
0
LINE
8
Black
10
217.075
20
-52.575
11
217.075
21
-52.125
0
LINE
8
Black
10
217.075
20
-52.125
11
218.525
21
-52.125
0
LINE
8
Black
10
218.525
20
-52.125
11
218.525
21
-52.575
0
LINE
8
Black
10
228.821
20
-52.5555
11
227.678
21
-52.5555
0
LINE
8
Black
10
227.678
20
-52.5555
11
227.678
21
-51.7427
0
LINE
8
Black
10
227.678
20
-51.7427
11
228.821
21
-51.7427
0
LINE
8
Black
10
228.821
20
-51.7427
11
228.821
21
-52.5555
0
LINE
8
Black
10
230.571
20
-52.5555
11
229.428
21
-52.5555
0
LINE
8
Black
10
229.428
20
-52.5555
11
229.428
21
-51.7427
0
LINE
8
Black
10
229.428
20
-51.7427
11
230.571
21
-51.7427
0
LINE
8
Black
10
230.571
20
-51.7427
11
230.571
21
-52.5555
0
LINE
8
Black
10
227.071
20
-52.5073
11
225.928
21
-52.5073
0
LINE
8
Black
10
225.928
20
-52.5073
11
225.928
21
-51.6945
0
LINE
8
Black
10
225.928
20
-51.6945
11
227.071
21
-51.6945
0
LINE
8
Black
10
227.071
20
-51.6945
11
227.071
21
-52.5073
0
LINE
8
Black
10
211.821
20
-52.0555
11
210.678
21
-52.0555
0
LINE
8
Black
10
210.678
20
-52.0555
11
210.678
21
-51.2427
0
LINE
8
Black
10
210.678
20
-51.2427
11
211.821
21
-51.2427
0
LINE
8
Black
10
211.821
20
-51.2427
11
211.821
21
-52.0555
0
LINE
8
Black
10
215.821
20
-52.0555
11
214.678
21
-52.0555
0
LINE
8
Black
10
214.678
20
-52.0555
11
214.678
21
-51.2427
0
LINE
8
Black
10
214.678
20
-51.2427
11
215.821
21
-51.2427
0
LINE
8
Black
10
215.821
20
-51.2427
11
215.821
21
-52.0555
0
LINE
8
Black
10
213.821
20
-52.0073
11
212.678
21
-52.0073
0
LINE
8
Black
10
212.678
20
-52.0073
11
212.678
21
-51.1945
0
LINE
8
Black
10
212.678
20
-51.1945
11
213.821
21
-51.1945
0
LINE
8
Black
10
213.821
20
-51.1945
11
213.821
21
-52.0073
0
LINE
8
Black
10
224.425
20
-51.925
11
222.975
21
-51.925
0
LINE
8
Black
10
222.975
20
-51.925
11
222.975
21
-51.475
0
LINE
8
Black
10
222.975
20
-51.475
11
224.425
21
-51.475
0
LINE
8
Black
10
224.425
20
-51.475
11
224.425
21
-51.925
0
LINE
8
Black
10
218.525
20
-51.925
11
217.075
21
-51.925
0
LINE
8
Black
10
217.075
20
-51.925
11
217.075
21
-51.475
0
LINE
8
Black
10
217.075
20
-51.475
11
218.525
21
-51.475
0
LINE
8
Black
10
218.525
20
-51.475
11
218.525
21
-51.925
0
LINE
8
Black
10
218.525
20
-51.275
11
217.075
21
-51.275
0
LINE
8
Black
10
217.075
20
-51.275
11
217.075
21
-50.825
0
LINE
8
Black
10
217.075
20
-50.825
11
218.525
21
-50.825
0
LINE
8
Black
10
218.525
20
-50.825
11
218.525
21
-51.275
0
LINE
8
Black
10
224.425
20
-51.275
11
222.975
21
-51.275
0
LINE
8
Black
10
222.975
20
-51.275
11
222.975
21
-50.825
0
LINE
8
Black
10
222.975
20
-50.825
11
224.425
21
-50.825
0
LINE
8
Black
10
224.425
20
-50.825
11
224.425
21
-51.275
0
LINE
8
Black
10
230.571
20
-51.2573
11
229.428
21
-51.2573
0
LINE
8
Black
10
229.428
20
-51.2573
11
229.428
21
-50.4445
0
LINE
8
Black
10
229.428
20
-50.4445
11
230.571
21
-50.4445
0
LINE
8
Black
10
230.571
20
-50.4445
11
230.571
21
-51.2573
0
LINE
8
Black
10
227.071
20
-50.8055
11
225.928
21
-50.8055
0
LINE
8
Black
10
225.928
20
-50.8055
11
225.928
21
-49.9927
0
LINE
8
Black
10
225.928
20
-49.9927
11
227.071
21
-49.9927
0
LINE
8
Black
10
227.071
20
-49.9927
11
227.071
21
-50.8055
0
LINE
8
Black
10
213.821
20
-50.3055
11
212.678
21
-50.3055
0
LINE
8
Black
10
212.678
20
-50.3055
11
212.678
21
-49.4927
0
LINE
8
Black
10
212.678
20
-49.4927
11
213.821
21
-49.4927
0
LINE
8
Black
10
213.821
20
-49.4927
11
213.821
21
-50.3055
0
LINE
8
Black
10
224.007
20
-49.5715
11
223.194
21
-49.5715
0
LINE
8
Black
10
223.194
20
-49.5715
11
223.194
21
-48.4285
0
LINE
8
Black
10
223.194
20
-48.4285
11
224.007
21
-48.4285
0
LINE
8
Black
10
224.007
20
-48.4285
11
224.007
21
-49.5715
0
LINE
8
Black
10
222.305
20
-49.5715
11
221.493
21
-49.5715
0
LINE
8
Black
10
221.493
20
-49.5715
11
221.493
21
-48.4285
0
LINE
8
Black
10
221.493
20
-48.4285
11
222.305
21
-48.4285
0
LINE
8
Black
10
222.305
20
-48.4285
11
222.305
21
-49.5715
0
LINE
8
Black
10
220.507
20
-49.5715
11
219.694
21
-49.5715
0
LINE
8
Black
10
219.694
20
-49.5715
11
219.694
21
-48.4285
0
LINE
8
Black
10
219.694
20
-48.4285
11
220.507
21
-48.4285
0
LINE
8
Black
10
220.507
20
-48.4285
11
220.507
21
-49.5715
0
LINE
8
Black
10
218.805
20
-49.5715
11
217.993
21
-49.5715
0
LINE
8
Black
10
217.993
20
-49.5715
11
217.993
21
-48.4285
0
LINE
8
Black
10
217.993
20
-48.4285
11
218.805
21
-48.4285
0
LINE
8
Black
10
218.805
20
-48.4285
11
218.805
21
-49.5715
0
LINE
8
Black
10
230.571
20
-49.5555
11
229.428
21
-49.5555
0
LINE
8
Black
10
229.428
20
-49.5555
11
229.428
21
-48.7427
0
LINE
8
Black
10
229.428
20
-48.7427
11
230.571
21
-48.7427
0
LINE
8
Black
10
230.571
20
-48.7427
11
230.571
21
-49.5555
0
LINE
8
Black
10
232.009
20
-45.9015
11
232.017
21
-45.9015
0
LINE
8
Black
10
232.017
20
-45.9015
11
232.026
21
-45.9045
0
LINE
8
Black
10
232.026
20
-45.9045
11
232.034
21
-45.906
0
LINE
8
Black
10
232.034
20
-45.906
11
232.042
21
-45.9104
0
LINE
8
Black
10
232.042
20
-45.9104
11
232.05
21
-45.9134
0
LINE
8
Black
10
232.05
20
-45.9134
11
232.057
21
-45.919
0
LINE
8
Black
10
232.057
20
-45.919
11
232.064
21
-45.9234
0
LINE
8
Black
10
232.064
20
-45.9234
11
232.07
21
-45.9301
0
LINE
8
Black
10
232.07
20
-45.9301
11
232.077
21
-45.9357
0
LINE
8
Black
10
232.077
20
-45.9357
11
232.081
21
-45.9433
0
LINE
8
Black
10
232.081
20
-45.9433
11
232.087
21
-45.95
0
LINE
8
Black
10
232.087
20
-45.95
11
232.09
21
-45.9582
0
LINE
8
Black
10
232.09
20
-45.9582
11
232.094
21
-45.9658
0
LINE
8
Black
10
232.094
20
-45.9658
11
232.095
21
-45.9744
0
LINE
8
Black
10
232.095
20
-45.9744
11
232.098
21
-45.9826
0
LINE
8
Black
10
232.098
20
-45.9826
11
232.098
21
-45.9914
0
LINE
8
Black
10
232.098
20
-45.9914
11
232.1
21
-46
0
LINE
8
Black
10
232.1
20
-46
11
232.1
21
-151
0
LINE
8
Black
10
232.1
20
-151
11
232.098
21
-151.009
0
LINE
8
Black
10
232.098
20
-151.009
11
232.098
21
-151.017
0
LINE
8
Black
10
232.098
20
-151.017
11
232.095
21
-151.026
0
LINE
8
Black
10
232.095
20
-151.026
11
232.094
21
-151.034
0
LINE
8
Black
10
232.094
20
-151.034
11
232.09
21
-151.042
0
LINE
8
Black
10
232.09
20
-151.042
11
232.087
21
-151.05
0
LINE
8
Black
10
232.087
20
-151.05
11
232.081
21
-151.057
0
LINE
8
Black
10
232.081
20
-151.057
11
232.077
21
-151.064
0
LINE
8
Black
10
232.077
20
-151.064
11
232.07
21
-151.07
0
LINE
8
Black
10
232.07
20
-151.07
11
232.064
21
-151.077
0
LINE
8
Black
10
232.064
20
-151.077
11
232.057
21
-151.081
0
LINE
8
Black
10
232.057
20
-151.081
11
232.05
21
-151.087
0
LINE
8
Black
10
232.05
20
-151.087
11
232.042
21
-151.09
0
LINE
8
Black
10
232.042
20
-151.09
11
232.034
21
-151.094
0
LINE
8
Black
10
232.034
20
-151.094
11
232.026
21
-151.095
0
LINE
8
Black
10
232.026
20
-151.095
11
232.017
21
-151.098
0
LINE
8
Black
10
232.017
20
-151.098
11
232.009
21
-151.098
0
LINE
8
Black
10
232.009
20
-151.098
11
232
21
-151.1
0
LINE
8
Black
10
232
20
-151.1
11
84
21
-151.1
0
LINE
8
Black
10
84
20
-151.1
11
83.9914
21
-151.098
0
LINE
8
Black
10
83.9914
20
-151.098
11
83.9826
21
-151.098
0
LINE
8
Black
10
83.9826
20
-151.098
11
83.9744
21
-151.095
0
LINE
8
Black
10
83.9744
20
-151.095
11
83.9658
21
-151.094
0
LINE
8
Black
10
83.9658
20
-151.094
11
83.9582
21
-151.09
0
LINE
8
Black
10
83.9582
20
-151.09
11
83.95
21
-151.087
0
LINE
8
Black
10
83.95
20
-151.087
11
83.9433
21
-151.081
0
LINE
8
Black
10
83.9433
20
-151.081
11
83.9357
21
-151.077
0
LINE
8
Black
10
83.9357
20
-151.077
11
83.9301
21
-151.07
0
LINE
8
Black
10
83.9301
20
-151.07
11
83.9234
21
-151.064
0
LINE
8
Black
10
83.9234
20
-151.064
11
83.919
21
-151.057
0
LINE
8
Black
10
83.919
20
-151.057
11
83.9134
21
-151.05
0
LINE
8
Black
10
83.9134
20
-151.05
11
83.9104
21
-151.042
0
LINE
8
Black
10
83.9104
20
-151.042
11
83.906
21
-151.034
0
LINE
8
Black
10
83.906
20
-151.034
11
83.9045
21
-151.026
0
LINE
8
Black
10
83.9045
20
-151.026
11
83.9015
21
-151.017
0
LINE
8
Black
10
83.9015
20
-151.017
11
83.9015
21
-151.009
0
LINE
8
Black
10
83.9015
20
-151.009
11
83.9
21
-151
0
LINE
8
Black
10
83.9
20
-151
11
83.9
21
-76.5
0
LINE
8
Black
10
83.9
20
-76.5
11
83.9
21
-75
0
LINE
8
Black
10
83.9
20
-75
11
83.9
21
-41
0
LINE
8
Black
10
83.9
20
-41
11
83.9015
21
-40.9914
0
LINE
8
Black
10
83.9015
20
-40.9914
11
83.9015
21
-40.9826
0
LINE
8
Black
10
83.9015
20
-40.9826
11
83.9045
21
-40.9744
0
LINE
8
Black
10
83.9045
20
-40.9744
11
83.906
21
-40.9658
0
LINE
8
Black
10
83.906
20
-40.9658
11
83.9104
21
-40.9582
0
LINE
8
Black
10
83.9104
20
-40.9582
11
83.9134
21
-40.95
0
LINE
8
Black
10
83.9134
20
-40.95
11
83.919
21
-40.9433
0
LINE
8
Black
10
83.919
20
-40.9433
11
83.9234
21
-40.9357
0
LINE
8
Black
10
83.9234
20
-40.9357
11
83.9301
21
-40.9301
0
LINE
8
Black
10
83.9301
20
-40.9301
11
83.9357
21
-40.9234
0
LINE
8
Black
10
83.9357
20
-40.9234
11
83.9433
21
-40.919
0
LINE
8
Black
10
83.9433
20
-40.919
11
83.95
21
-40.9134
0
LINE
8
Black
10
83.95
20
-40.9134
11
83.9582
21
-40.9104
0
LINE
8
Black
10
83.9582
20
-40.9104
11
83.9658
21
-40.906
0
LINE
8
Black
10
83.9658
20
-40.906
11
83.9744
21
-40.9045
0
LINE
8
Black
10
83.9744
20
-40.9045
11
83.9826
21
-40.9015
0
LINE
8
Black
10
83.9826
20
-40.9015
11
83.9914
21
-40.9015
0
LINE
8
Black
10
83.9914
20
-40.9015
11
84
21
-40.9
0
LINE
8
Black
10
84
20
-40.9
11
108.5
21
-40.9
0
LINE
8
Black
10
108.5
20
-40.9
11
108.509
21
-40.9015
0
LINE
8
Black
10
108.509
20
-40.9015
11
108.517
21
-40.9015
0
LINE
8
Black
10
108.517
20
-40.9015
11
108.526
21
-40.9045
0
LINE
8
Black
10
108.526
20
-40.9045
11
108.534
21
-40.906
0
LINE
8
Black
10
108.534
20
-40.906
11
108.542
21
-40.9104
0
LINE
8
Black
10
108.542
20
-40.9104
11
108.55
21
-40.9134
0
LINE
8
Black
10
108.55
20
-40.9134
11
108.557
21
-40.919
0
LINE
8
Black
10
108.557
20
-40.919
11
108.564
21
-40.9234
0
LINE
8
Black
10
108.564
20
-40.9234
11
108.57
21
-40.9301
0
LINE
8
Black
10
108.57
20
-40.9301
11
108.577
21
-40.9357
0
LINE
8
Black
10
108.577
20
-40.9357
11
108.581
21
-40.9433
0
LINE
8
Black
10
108.581
20
-40.9433
11
108.587
21
-40.95
0
LINE
8
Black
10
108.587
20
-40.95
11
108.59
21
-40.9582
0
LINE
8
Black
10
108.59
20
-40.9582
11
108.594
21
-40.9658
0
LINE
8
Black
10
108.594
20
-40.9658
11
108.595
21
-40.9744
0
LINE
8
Black
10
108.595
20
-40.9744
11
108.598
21
-40.9826
0
LINE
8
Black
10
108.598
20
-40.9826
11
108.598
21
-40.9914
0
LINE
8
Black
10
108.598
20
-40.9914
11
108.6
21
-41
0
LINE
8
Black
10
108.6
20
-41
11
108.6
21
-45.9
0
LINE
8
Black
10
108.6
20
-45.9
11
110
21
-45.9
0
LINE
8
Black
10
110
20
-45.9
11
232
21
-45.9
0
LINE
8
Black
10
232
20
-45.9
11
232.009
21
-45.9015
0
LINE
8
Black
10
108.491
20
-46.0985
11
108.483
21
-46.0985
0
LINE
8
Black
10
108.483
20
-46.0985
11
108.474
21
-46.0955
0
LINE
8
Black
10
108.474
20
-46.0955
11
108.466
21
-46.094
0
LINE
8
Black
10
108.466
20
-46.094
11
108.458
21
-46.0896
0
LINE
8
Black
10
108.458
20
-46.0896
11
108.45
21
-46.0866
0
LINE
8
Black
10
108.45
20
-46.0866
11
108.443
21
-46.081
0
LINE
8
Black
10
108.443
20
-46.081
11
108.436
21
-46.0766
0
LINE
8
Black
10
108.436
20
-46.0766
11
108.43
21
-46.0699
0
LINE
8
Black
10
108.43
20
-46.0699
11
108.423
21
-46.0643
0
LINE
8
Black
10
108.423
20
-46.0643
11
108.419
21
-46.0567
0
LINE
8
Black
10
108.419
20
-46.0567
11
108.413
21
-46.05
0
LINE
8
Black
10
108.413
20
-46.05
11
108.41
21
-46.0418
0
LINE
8
Black
10
108.41
20
-46.0418
11
108.406
21
-46.0342
0
LINE
8
Black
10
108.406
20
-46.0342
11
108.405
21
-46.0256
0
LINE
8
Black
10
108.405
20
-46.0256
11
108.402
21
-46.0174
0
LINE
8
Black
10
108.402
20
-46.0174
11
108.402
21
-46.0086
0
LINE
8
Black
10
108.402
20
-46.0086
11
108.4
21
-46
0
LINE
8
Black
10
108.4
20
-46
11
108.4
21
-41.1
0
LINE
8
Black
10
108.4
20
-41.1
11
84.1
21
-41.1
0
LINE
8
Black
10
84.1
20
-41.1
11
84.1
21
-75
0
LINE
8
Black
10
84.1
20
-75
11
84.1
21
-76.5
0
LINE
8
Black
10
84.1
20
-76.5
11
84.1
21
-150.9
0
LINE
8
Black
10
84.1
20
-150.9
11
231.9
21
-150.9
0
LINE
8
Black
10
231.9
20
-150.9
11
231.9
21
-46.1
0
LINE
8
Black
10
231.9
20
-46.1
11
110
21
-46.1
0
LINE
8
Black
10
110
20
-46.1
11
108.5
21
-46.1
0
LINE
8
Black
10
108.5
20
-46.1
11
108.491
21
-46.0985
0
LINE
8
Black
10
110.009
20
-49.6515
11
110.017
21
-49.6515
0
LINE
8
Black
10
110.017
20
-49.6515
11
110.026
21
-49.6545
0
LINE
8
Black
10
110.026
20
-49.6545
11
110.034
21
-49.656
0
LINE
8
Black
10
110.034
20
-49.656
11
110.042
21
-49.6604
0
LINE
8
Black
10
110.042
20
-49.6604
11
110.05
21
-49.6634
0
LINE
8
Black
10
110.05
20
-49.6634
11
110.057
21
-49.669
0
LINE
8
Black
10
110.057
20
-49.669
11
110.064
21
-49.6734
0
LINE
8
Black
10
110.064
20
-49.6734
11
110.07
21
-49.6801
0
LINE
8
Black
10
110.07
20
-49.6801
11
110.077
21
-49.6857
0
LINE
8
Black
10
110.077
20
-49.6857
11
110.081
21
-49.6933
0
LINE
8
Black
10
110.081
20
-49.6933
11
110.087
21
-49.7
0
LINE
8
Black
10
110.087
20
-49.7
11
110.09
21
-49.7082
0
LINE
8
Black
10
110.09
20
-49.7082
11
110.094
21
-49.7158
0
LINE
8
Black
10
110.094
20
-49.7158
11
110.095
21
-49.7244
0
LINE
8
Black
10
110.095
20
-49.7244
11
110.098
21
-49.7326
0
LINE
8
Black
10
110.098
20
-49.7326
11
110.098
21
-49.7414
0
LINE
8
Black
10
110.098
20
-49.7414
11
110.1
21
-49.75
0
LINE
8
Black
10
110.1
20
-49.75
11
110.1
21
-76.5
0
LINE
8
Black
10
110.1
20
-76.5
11
110.098
21
-76.5086
0
LINE
8
Black
10
110.098
20
-76.5086
11
110.098
21
-76.5174
0
LINE
8
Black
10
110.098
20
-76.5174
11
110.095
21
-76.5256
0
LINE
8
Black
10
110.095
20
-76.5256
11
110.094
21
-76.5342
0
LINE
8
Black
10
110.094
20
-76.5342
11
110.09
21
-76.5418
0
LINE
8
Black
10
110.09
20
-76.5418
11
110.087
21
-76.55
0
LINE
8
Black
10
110.087
20
-76.55
11
110.081
21
-76.5567
0
LINE
8
Black
10
110.081
20
-76.5567
11
110.077
21
-76.5643
0
LINE
8
Black
10
110.077
20
-76.5643
11
110.07
21
-76.5699
0
LINE
8
Black
10
110.07
20
-76.5699
11
110.064
21
-76.5766
0
LINE
8
Black
10
110.064
20
-76.5766
11
110.057
21
-76.581
0
LINE
8
Black
10
110.057
20
-76.581
11
110.05
21
-76.5866
0
LINE
8
Black
10
110.05
20
-76.5866
11
110.042
21
-76.5896
0
LINE
8
Black
10
110.042
20
-76.5896
11
110.034
21
-76.594
0
LINE
8
Black
10
110.034
20
-76.594
11
110.026
21
-76.5955
0
LINE
8
Black
10
110.026
20
-76.5955
11
110.017
21
-76.5985
0
LINE
8
Black
10
110.017
20
-76.5985
11
110.009
21
-76.5985
0
LINE
8
Black
10
110.009
20
-76.5985
11
110
21
-76.6
0
LINE
8
Black
10
110
20
-76.6
11
87.75
21
-76.6
0
LINE
8
Black
10
87.75
20
-76.6
11
87.7414
21
-76.5985
0
LINE
8
Black
10
87.7414
20
-76.5985
11
87.7326
21
-76.5985
0
LINE
8
Black
10
87.7326
20
-76.5985
11
87.7244
21
-76.5955
0
LINE
8
Black
10
87.7244
20
-76.5955
11
87.7158
21
-76.594
0
LINE
8
Black
10
87.7158
20
-76.594
11
87.7082
21
-76.5896
0
LINE
8
Black
10
87.7082
20
-76.5896
11
87.7
21
-76.5866
0
LINE
8
Black
10
87.7
20
-76.5866
11
87.6933
21
-76.581
0
LINE
8
Black
10
87.6933
20
-76.581
11
87.6857
21
-76.5766
0
LINE
8
Black
10
87.6857
20
-76.5766
11
87.6801
21
-76.5699
0
LINE
8
Black
10
87.6801
20
-76.5699
11
87.6734
21
-76.5643
0
LINE
8
Black
10
87.6734
20
-76.5643
11
87.669
21
-76.5567
0
LINE
8
Black
10
87.669
20
-76.5567
11
87.6634
21
-76.55
0
LINE
8
Black
10
87.6634
20
-76.55
11
87.6604
21
-76.5418
0
LINE
8
Black
10
87.6604
20
-76.5418
11
87.656
21
-76.5342
0
LINE
8
Black
10
87.656
20
-76.5342
11
87.6545
21
-76.5256
0
LINE
8
Black
10
87.6545
20
-76.5256
11
87.6515
21
-76.5174
0
LINE
8
Black
10
87.6515
20
-76.5174
11
87.6515
21
-76.5086
0
LINE
8
Black
10
87.6515
20
-76.5086
11
87.65
21
-76.5
0
LINE
8
Black
10
87.65
20
-76.5
11
87.65
21
-75
0
LINE
8
Black
10
87.65
20
-75
11
87.6515
21
-74.9914
0
LINE
8
Black
10
87.6515
20
-74.9914
11
87.6515
21
-74.9826
0
LINE
8
Black
10
87.6515
20
-74.9826
11
87.6545
21
-74.9744
0
LINE
8
Black
10
87.6545
20
-74.9744
11
87.656
21
-74.9658
0
LINE
8
Black
10
87.656
20
-74.9658
11
87.6604
21
-74.9582
0
LINE
8
Black
10
87.6604
20
-74.9582
11
87.6634
21
-74.95
0
LINE
8
Black
10
87.6634
20
-74.95
11
87.669
21
-74.9433
0
LINE
8
Black
10
87.669
20
-74.9433
11
87.6734
21
-74.9357
0
LINE
8
Black
10
87.6734
20
-74.9357
11
87.6801
21
-74.9301
0
LINE
8
Black
10
87.6801
20
-74.9301
11
87.6857
21
-74.9234
0
LINE
8
Black
10
87.6857
20
-74.9234
11
87.6933
21
-74.919
0
LINE
8
Black
10
87.6933
20
-74.919
11
87.7
21
-74.9134
0
LINE
8
Black
10
87.7
20
-74.9134
11
87.7082
21
-74.9104
0
LINE
8
Black
10
87.7082
20
-74.9104
11
87.7158
21
-74.906
0
LINE
8
Black
10
87.7158
20
-74.906
11
87.7244
21
-74.9045
0
LINE
8
Black
10
87.7244
20
-74.9045
11
87.7326
21
-74.9015
0
LINE
8
Black
10
87.7326
20
-74.9015
11
87.7414
21
-74.9015
0
LINE
8
Black
10
87.7414
20
-74.9015
11
87.75
21
-74.9
0
LINE
8
Black
10
87.75
20
-74.9
11
108.4
21
-74.9
0
LINE
8
Black
10
108.4
20
-74.9
11
108.4
21
-49.75
0
LINE
8
Black
10
108.4
20
-49.75
11
108.402
21
-49.7414
0
LINE
8
Black
10
108.402
20
-49.7414
11
108.402
21
-49.7326
0
LINE
8
Black
10
108.402
20
-49.7326
11
108.405
21
-49.7244
0
LINE
8
Black
10
108.405
20
-49.7244
11
108.406
21
-49.7158
0
LINE
8
Black
10
108.406
20
-49.7158
11
108.41
21
-49.7082
0
LINE
8
Black
10
108.41
20
-49.7082
11
108.413
21
-49.7
0
LINE
8
Black
10
108.413
20
-49.7
11
108.419
21
-49.6933
0
LINE
8
Black
10
108.419
20
-49.6933
11
108.423
21
-49.6857
0
LINE
8
Black
10
108.423
20
-49.6857
11
108.43
21
-49.6801
0
LINE
8
Black
10
108.43
20
-49.6801
11
108.436
21
-49.6734
0
LINE
8
Black
10
108.436
20
-49.6734
11
108.443
21
-49.669
0
LINE
8
Black
10
108.443
20
-49.669
11
108.45
21
-49.6634
0
LINE
8
Black
10
108.45
20
-49.6634
11
108.458
21
-49.6604
0
LINE
8
Black
10
108.458
20
-49.6604
11
108.466
21
-49.656
0
LINE
8
Black
10
108.466
20
-49.656
11
108.474
21
-49.6545
0
LINE
8
Black
10
108.474
20
-49.6545
11
108.483
21
-49.6515
0
LINE
8
Black
10
108.483
20
-49.6515
11
108.491
21
-49.6515
0
LINE
8
Black
10
108.491
20
-49.6515
11
108.5
21
-49.65
0
LINE
8
Black
10
108.5
20
-49.65
11
110
21
-49.65
0
LINE
8
Black
10
110
20
-49.65
11
110.009
21
-49.6515
0
LINE
8
Black
10
108.6
20
-49.85
11
108.6
21
-75
0
LINE
8
Black
10
108.6
20
-75
11
108.598
21
-75.0086
0
LINE
8
Black
10
108.598
20
-75.0086
11
108.598
21
-75.0174
0
LINE
8
Black
10
108.598
20
-75.0174
11
108.595
21
-75.0256
0
LINE
8
Black
10
108.595
20
-75.0256
11
108.594
21
-75.0342
0
LINE
8
Black
10
108.594
20
-75.0342
11
108.59
21
-75.0418
0
LINE
8
Black
10
108.59
20
-75.0418
11
108.587
21
-75.05
0
LINE
8
Black
10
108.587
20
-75.05
11
108.581
21
-75.0567
0
LINE
8
Black
10
108.581
20
-75.0567
11
108.577
21
-75.0643
0
LINE
8
Black
10
108.577
20
-75.0643
11
108.57
21
-75.0699
0
LINE
8
Black
10
108.57
20
-75.0699
11
108.564
21
-75.0766
0
LINE
8
Black
10
108.564
20
-75.0766
11
108.557
21
-75.081
0
LINE
8
Black
10
108.557
20
-75.081
11
108.55
21
-75.0866
0
LINE
8
Black
10
108.55
20
-75.0866
11
108.542
21
-75.0896
0
LINE
8
Black
10
108.542
20
-75.0896
11
108.534
21
-75.094
0
LINE
8
Black
10
108.534
20
-75.094
11
108.526
21
-75.0955
0
LINE
8
Black
10
108.526
20
-75.0955
11
108.517
21
-75.0985
0
LINE
8
Black
10
108.517
20
-75.0985
11
108.509
21
-75.0985
0
LINE
8
Black
10
108.509
20
-75.0985
11
108.5
21
-75.1
0
LINE
8
Black
10
108.5
20
-75.1
11
87.85
21
-75.1
0
LINE
8
Black
10
87.85
20
-75.1
11
87.85
21
-76.4
0
LINE
8
Black
10
87.85
20
-76.4
11
109.9
21
-76.4
0
LINE
8
Black
10
109.9
20
-76.4
11
109.9
21
-49.85
0
LINE
8
Black
10
109.9
20
-49.85
11
108.6
21
-49.85
  0
ENDSEC
  0
EOF
