G04 #@! TF.FileFunction,Legend,Top*
%FSLAX46Y46*%
G04 Gerber Fmt 4.6, Leading zero omitted, Abs format (unit mm)*
G04 Created by KiCad (PCBNEW 4.0.2-stable) date 2018-05-24 9:25:08 AM*
%MOMM*%
G01*
G04 APERTURE LIST*
%ADD10C,0.200000*%
%ADD11C,0.150000*%
%ADD12C,0.381000*%
%ADD13C,0.152400*%
%ADD14O,2.600000X4.100000*%
%ADD15O,2.100000X2.600000*%
%ADD16O,3.600000X1.600000*%
%ADD17R,1.300000X1.300000*%
%ADD18C,1.300000*%
%ADD19R,1.800000X1.800000*%
%ADD20O,1.800000X1.800000*%
%ADD21C,1.624000*%
%ADD22R,1.600000X2.100000*%
%ADD23O,2.300000X1.500000*%
%ADD24O,2.350000X1.500000*%
%ADD25R,1.700000X2.900000*%
%ADD26C,1.900000*%
%ADD27O,2.900000X3.600000*%
%ADD28C,1.850000*%
%ADD29C,1.370000*%
G04 APERTURE END LIST*
D10*
D11*
X190904762Y-119202381D02*
X191238095Y-120202381D01*
X191571429Y-119202381D01*
X192476191Y-120107143D02*
X192428572Y-120154762D01*
X192285715Y-120202381D01*
X192190477Y-120202381D01*
X192047619Y-120154762D01*
X191952381Y-120059524D01*
X191904762Y-119964286D01*
X191857143Y-119773810D01*
X191857143Y-119630952D01*
X191904762Y-119440476D01*
X191952381Y-119345238D01*
X192047619Y-119250000D01*
X192190477Y-119202381D01*
X192285715Y-119202381D01*
X192428572Y-119250000D01*
X192476191Y-119297619D01*
X192857143Y-119916667D02*
X193333334Y-119916667D01*
X192761905Y-120202381D02*
X193095238Y-119202381D01*
X193428572Y-120202381D01*
X194523810Y-120202381D02*
X194523810Y-119202381D01*
X194857144Y-119916667D01*
X195190477Y-119202381D01*
X195190477Y-120202381D01*
X195857143Y-119202381D02*
X196047620Y-119202381D01*
X196142858Y-119250000D01*
X196238096Y-119345238D01*
X196285715Y-119535714D01*
X196285715Y-119869048D01*
X196238096Y-120059524D01*
X196142858Y-120154762D01*
X196047620Y-120202381D01*
X195857143Y-120202381D01*
X195761905Y-120154762D01*
X195666667Y-120059524D01*
X195619048Y-119869048D01*
X195619048Y-119535714D01*
X195666667Y-119345238D01*
X195761905Y-119250000D01*
X195857143Y-119202381D01*
X196714286Y-120202381D02*
X196714286Y-119202381D01*
X196952381Y-119202381D01*
X197095239Y-119250000D01*
X197190477Y-119345238D01*
X197238096Y-119440476D01*
X197285715Y-119630952D01*
X197285715Y-119773810D01*
X197238096Y-119964286D01*
X197190477Y-120059524D01*
X197095239Y-120154762D01*
X196952381Y-120202381D01*
X196714286Y-120202381D01*
X199000001Y-120202381D02*
X198428572Y-120202381D01*
X198714286Y-120202381D02*
X198714286Y-119202381D01*
X198619048Y-119345238D01*
X198523810Y-119440476D01*
X198428572Y-119488095D01*
X215904762Y-119202381D02*
X216238095Y-120202381D01*
X216571429Y-119202381D01*
X217476191Y-120107143D02*
X217428572Y-120154762D01*
X217285715Y-120202381D01*
X217190477Y-120202381D01*
X217047619Y-120154762D01*
X216952381Y-120059524D01*
X216904762Y-119964286D01*
X216857143Y-119773810D01*
X216857143Y-119630952D01*
X216904762Y-119440476D01*
X216952381Y-119345238D01*
X217047619Y-119250000D01*
X217190477Y-119202381D01*
X217285715Y-119202381D01*
X217428572Y-119250000D01*
X217476191Y-119297619D01*
X217857143Y-119916667D02*
X218333334Y-119916667D01*
X217761905Y-120202381D02*
X218095238Y-119202381D01*
X218428572Y-120202381D01*
X219523810Y-120202381D02*
X219523810Y-119202381D01*
X219857144Y-119916667D01*
X220190477Y-119202381D01*
X220190477Y-120202381D01*
X220857143Y-119202381D02*
X221047620Y-119202381D01*
X221142858Y-119250000D01*
X221238096Y-119345238D01*
X221285715Y-119535714D01*
X221285715Y-119869048D01*
X221238096Y-120059524D01*
X221142858Y-120154762D01*
X221047620Y-120202381D01*
X220857143Y-120202381D01*
X220761905Y-120154762D01*
X220666667Y-120059524D01*
X220619048Y-119869048D01*
X220619048Y-119535714D01*
X220666667Y-119345238D01*
X220761905Y-119250000D01*
X220857143Y-119202381D01*
X221714286Y-120202381D02*
X221714286Y-119202381D01*
X221952381Y-119202381D01*
X222095239Y-119250000D01*
X222190477Y-119345238D01*
X222238096Y-119440476D01*
X222285715Y-119630952D01*
X222285715Y-119773810D01*
X222238096Y-119964286D01*
X222190477Y-120059524D01*
X222095239Y-120154762D01*
X221952381Y-120202381D01*
X221714286Y-120202381D01*
X223428572Y-119297619D02*
X223476191Y-119250000D01*
X223571429Y-119202381D01*
X223809525Y-119202381D01*
X223904763Y-119250000D01*
X223952382Y-119297619D01*
X224000001Y-119392857D01*
X224000001Y-119488095D01*
X223952382Y-119630952D01*
X223380953Y-120202381D01*
X224000001Y-120202381D01*
X166404762Y-119202381D02*
X166738095Y-120202381D01*
X167071429Y-119202381D01*
X167976191Y-120107143D02*
X167928572Y-120154762D01*
X167785715Y-120202381D01*
X167690477Y-120202381D01*
X167547619Y-120154762D01*
X167452381Y-120059524D01*
X167404762Y-119964286D01*
X167357143Y-119773810D01*
X167357143Y-119630952D01*
X167404762Y-119440476D01*
X167452381Y-119345238D01*
X167547619Y-119250000D01*
X167690477Y-119202381D01*
X167785715Y-119202381D01*
X167928572Y-119250000D01*
X167976191Y-119297619D01*
X168738096Y-119678571D02*
X168404762Y-119678571D01*
X168404762Y-120202381D02*
X168404762Y-119202381D01*
X168880953Y-119202381D01*
X170023810Y-120202381D02*
X170023810Y-119202381D01*
X170357144Y-119916667D01*
X170690477Y-119202381D01*
X170690477Y-120202381D01*
X171357143Y-119202381D02*
X171547620Y-119202381D01*
X171642858Y-119250000D01*
X171738096Y-119345238D01*
X171785715Y-119535714D01*
X171785715Y-119869048D01*
X171738096Y-120059524D01*
X171642858Y-120154762D01*
X171547620Y-120202381D01*
X171357143Y-120202381D01*
X171261905Y-120154762D01*
X171166667Y-120059524D01*
X171119048Y-119869048D01*
X171119048Y-119535714D01*
X171166667Y-119345238D01*
X171261905Y-119250000D01*
X171357143Y-119202381D01*
X172214286Y-120202381D02*
X172214286Y-119202381D01*
X172452381Y-119202381D01*
X172595239Y-119250000D01*
X172690477Y-119345238D01*
X172738096Y-119440476D01*
X172785715Y-119630952D01*
X172785715Y-119773810D01*
X172738096Y-119964286D01*
X172690477Y-120059524D01*
X172595239Y-120154762D01*
X172452381Y-120202381D01*
X172214286Y-120202381D01*
X173928572Y-119297619D02*
X173976191Y-119250000D01*
X174071429Y-119202381D01*
X174309525Y-119202381D01*
X174404763Y-119250000D01*
X174452382Y-119297619D01*
X174500001Y-119392857D01*
X174500001Y-119488095D01*
X174452382Y-119630952D01*
X173880953Y-120202381D01*
X174500001Y-120202381D01*
X141404762Y-119202381D02*
X141738095Y-120202381D01*
X142071429Y-119202381D01*
X142976191Y-120107143D02*
X142928572Y-120154762D01*
X142785715Y-120202381D01*
X142690477Y-120202381D01*
X142547619Y-120154762D01*
X142452381Y-120059524D01*
X142404762Y-119964286D01*
X142357143Y-119773810D01*
X142357143Y-119630952D01*
X142404762Y-119440476D01*
X142452381Y-119345238D01*
X142547619Y-119250000D01*
X142690477Y-119202381D01*
X142785715Y-119202381D01*
X142928572Y-119250000D01*
X142976191Y-119297619D01*
X143738096Y-119678571D02*
X143404762Y-119678571D01*
X143404762Y-120202381D02*
X143404762Y-119202381D01*
X143880953Y-119202381D01*
X145023810Y-120202381D02*
X145023810Y-119202381D01*
X145357144Y-119916667D01*
X145690477Y-119202381D01*
X145690477Y-120202381D01*
X146357143Y-119202381D02*
X146547620Y-119202381D01*
X146642858Y-119250000D01*
X146738096Y-119345238D01*
X146785715Y-119535714D01*
X146785715Y-119869048D01*
X146738096Y-120059524D01*
X146642858Y-120154762D01*
X146547620Y-120202381D01*
X146357143Y-120202381D01*
X146261905Y-120154762D01*
X146166667Y-120059524D01*
X146119048Y-119869048D01*
X146119048Y-119535714D01*
X146166667Y-119345238D01*
X146261905Y-119250000D01*
X146357143Y-119202381D01*
X147214286Y-120202381D02*
X147214286Y-119202381D01*
X147452381Y-119202381D01*
X147595239Y-119250000D01*
X147690477Y-119345238D01*
X147738096Y-119440476D01*
X147785715Y-119630952D01*
X147785715Y-119773810D01*
X147738096Y-119964286D01*
X147690477Y-120059524D01*
X147595239Y-120154762D01*
X147452381Y-120202381D01*
X147214286Y-120202381D01*
X149500001Y-120202381D02*
X148928572Y-120202381D01*
X149214286Y-120202381D02*
X149214286Y-119202381D01*
X149119048Y-119345238D01*
X149023810Y-119440476D01*
X148928572Y-119488095D01*
X115761905Y-120202381D02*
X115761905Y-119202381D01*
X116142858Y-119202381D01*
X116238096Y-119250000D01*
X116285715Y-119297619D01*
X116333334Y-119392857D01*
X116333334Y-119535714D01*
X116285715Y-119630952D01*
X116238096Y-119678571D01*
X116142858Y-119726190D01*
X115761905Y-119726190D01*
X116761905Y-120202381D02*
X116761905Y-119202381D01*
X117095238Y-119202381D02*
X117666667Y-119202381D01*
X117380952Y-120202381D02*
X117380952Y-119202381D01*
X118571429Y-120107143D02*
X118523810Y-120154762D01*
X118380953Y-120202381D01*
X118285715Y-120202381D01*
X118142857Y-120154762D01*
X118047619Y-120059524D01*
X118000000Y-119964286D01*
X117952381Y-119773810D01*
X117952381Y-119630952D01*
X118000000Y-119440476D01*
X118047619Y-119345238D01*
X118142857Y-119250000D01*
X118285715Y-119202381D01*
X118380953Y-119202381D01*
X118523810Y-119250000D01*
X118571429Y-119297619D01*
X119000000Y-120202381D02*
X119000000Y-119202381D01*
X119000000Y-119678571D02*
X119571429Y-119678571D01*
X119571429Y-120202381D02*
X119571429Y-119202381D01*
X120809524Y-120202381D02*
X120809524Y-119202381D01*
X121142858Y-119916667D01*
X121476191Y-119202381D01*
X121476191Y-120202381D01*
X122142857Y-119202381D02*
X122333334Y-119202381D01*
X122428572Y-119250000D01*
X122523810Y-119345238D01*
X122571429Y-119535714D01*
X122571429Y-119869048D01*
X122523810Y-120059524D01*
X122428572Y-120154762D01*
X122333334Y-120202381D01*
X122142857Y-120202381D01*
X122047619Y-120154762D01*
X121952381Y-120059524D01*
X121904762Y-119869048D01*
X121904762Y-119535714D01*
X121952381Y-119345238D01*
X122047619Y-119250000D01*
X122142857Y-119202381D01*
X123000000Y-120202381D02*
X123000000Y-119202381D01*
X123238095Y-119202381D01*
X123380953Y-119250000D01*
X123476191Y-119345238D01*
X123523810Y-119440476D01*
X123571429Y-119630952D01*
X123571429Y-119773810D01*
X123523810Y-119964286D01*
X123476191Y-120059524D01*
X123380953Y-120154762D01*
X123238095Y-120202381D01*
X123000000Y-120202381D01*
X124714286Y-119297619D02*
X124761905Y-119250000D01*
X124857143Y-119202381D01*
X125095239Y-119202381D01*
X125190477Y-119250000D01*
X125238096Y-119297619D01*
X125285715Y-119392857D01*
X125285715Y-119488095D01*
X125238096Y-119630952D01*
X124666667Y-120202381D01*
X125285715Y-120202381D01*
X90761905Y-120202381D02*
X90761905Y-119202381D01*
X91142858Y-119202381D01*
X91238096Y-119250000D01*
X91285715Y-119297619D01*
X91333334Y-119392857D01*
X91333334Y-119535714D01*
X91285715Y-119630952D01*
X91238096Y-119678571D01*
X91142858Y-119726190D01*
X90761905Y-119726190D01*
X91761905Y-120202381D02*
X91761905Y-119202381D01*
X92095238Y-119202381D02*
X92666667Y-119202381D01*
X92380952Y-120202381D02*
X92380952Y-119202381D01*
X93571429Y-120107143D02*
X93523810Y-120154762D01*
X93380953Y-120202381D01*
X93285715Y-120202381D01*
X93142857Y-120154762D01*
X93047619Y-120059524D01*
X93000000Y-119964286D01*
X92952381Y-119773810D01*
X92952381Y-119630952D01*
X93000000Y-119440476D01*
X93047619Y-119345238D01*
X93142857Y-119250000D01*
X93285715Y-119202381D01*
X93380953Y-119202381D01*
X93523810Y-119250000D01*
X93571429Y-119297619D01*
X94000000Y-120202381D02*
X94000000Y-119202381D01*
X94000000Y-119678571D02*
X94571429Y-119678571D01*
X94571429Y-120202381D02*
X94571429Y-119202381D01*
X95809524Y-120202381D02*
X95809524Y-119202381D01*
X96142858Y-119916667D01*
X96476191Y-119202381D01*
X96476191Y-120202381D01*
X97142857Y-119202381D02*
X97333334Y-119202381D01*
X97428572Y-119250000D01*
X97523810Y-119345238D01*
X97571429Y-119535714D01*
X97571429Y-119869048D01*
X97523810Y-120059524D01*
X97428572Y-120154762D01*
X97333334Y-120202381D01*
X97142857Y-120202381D01*
X97047619Y-120154762D01*
X96952381Y-120059524D01*
X96904762Y-119869048D01*
X96904762Y-119535714D01*
X96952381Y-119345238D01*
X97047619Y-119250000D01*
X97142857Y-119202381D01*
X98000000Y-120202381D02*
X98000000Y-119202381D01*
X98238095Y-119202381D01*
X98380953Y-119250000D01*
X98476191Y-119345238D01*
X98523810Y-119440476D01*
X98571429Y-119630952D01*
X98571429Y-119773810D01*
X98523810Y-119964286D01*
X98476191Y-120059524D01*
X98380953Y-120154762D01*
X98238095Y-120202381D01*
X98000000Y-120202381D01*
X100285715Y-120202381D02*
X99714286Y-120202381D01*
X100000000Y-120202381D02*
X100000000Y-119202381D01*
X99904762Y-119345238D01*
X99809524Y-119440476D01*
X99714286Y-119488095D01*
X93714286Y-80952381D02*
X94285715Y-80952381D01*
X94000000Y-81952381D02*
X94000000Y-80952381D01*
X94619048Y-80952381D02*
X94619048Y-81761905D01*
X94666667Y-81857143D01*
X94714286Y-81904762D01*
X94809524Y-81952381D01*
X95000001Y-81952381D01*
X95095239Y-81904762D01*
X95142858Y-81857143D01*
X95190477Y-81761905D01*
X95190477Y-80952381D01*
X95666667Y-81952381D02*
X95666667Y-80952381D01*
X96238096Y-81952381D01*
X96238096Y-80952381D01*
X96714286Y-81428571D02*
X97047620Y-81428571D01*
X97190477Y-81952381D02*
X96714286Y-81952381D01*
X96714286Y-80952381D01*
X97190477Y-80952381D01*
X113619048Y-81952381D02*
X113619048Y-80952381D01*
X114000001Y-80952381D01*
X114095239Y-81000000D01*
X114142858Y-81047619D01*
X114190477Y-81142857D01*
X114190477Y-81285714D01*
X114142858Y-81380952D01*
X114095239Y-81428571D01*
X114000001Y-81476190D01*
X113619048Y-81476190D01*
X114619048Y-80952381D02*
X114619048Y-81761905D01*
X114666667Y-81857143D01*
X114714286Y-81904762D01*
X114809524Y-81952381D01*
X115000001Y-81952381D01*
X115095239Y-81904762D01*
X115142858Y-81857143D01*
X115190477Y-81761905D01*
X115190477Y-80952381D01*
X116142858Y-81952381D02*
X115666667Y-81952381D01*
X115666667Y-80952381D01*
X116428572Y-81904762D02*
X116571429Y-81952381D01*
X116809525Y-81952381D01*
X116904763Y-81904762D01*
X116952382Y-81857143D01*
X117000001Y-81761905D01*
X117000001Y-81666667D01*
X116952382Y-81571429D01*
X116904763Y-81523810D01*
X116809525Y-81476190D01*
X116619048Y-81428571D01*
X116523810Y-81380952D01*
X116476191Y-81333333D01*
X116428572Y-81238095D01*
X116428572Y-81142857D01*
X116476191Y-81047619D01*
X116523810Y-81000000D01*
X116619048Y-80952381D01*
X116857144Y-80952381D01*
X117000001Y-81000000D01*
X117428572Y-81428571D02*
X117761906Y-81428571D01*
X117904763Y-81952381D02*
X117428572Y-81952381D01*
X117428572Y-80952381D01*
X117904763Y-80952381D01*
X119000001Y-80952381D02*
X119238096Y-81952381D01*
X119428573Y-81238095D01*
X119619049Y-81952381D01*
X119857144Y-80952381D01*
X120238096Y-81952381D02*
X120238096Y-80952381D01*
X120714286Y-81952381D02*
X120714286Y-80952381D01*
X120952381Y-80952381D01*
X121095239Y-81000000D01*
X121190477Y-81095238D01*
X121238096Y-81190476D01*
X121285715Y-81380952D01*
X121285715Y-81523810D01*
X121238096Y-81714286D01*
X121190477Y-81809524D01*
X121095239Y-81904762D01*
X120952381Y-81952381D01*
X120714286Y-81952381D01*
X121571429Y-80952381D02*
X122142858Y-80952381D01*
X121857143Y-81952381D02*
X121857143Y-80952381D01*
X122476191Y-81952381D02*
X122476191Y-80952381D01*
X122476191Y-81428571D02*
X123047620Y-81428571D01*
X123047620Y-81952381D02*
X123047620Y-80952381D01*
X124238096Y-80904762D02*
X123380953Y-82190476D01*
X124571429Y-81952381D02*
X124571429Y-80952381D01*
X124952382Y-80952381D01*
X125047620Y-81000000D01*
X125095239Y-81047619D01*
X125142858Y-81142857D01*
X125142858Y-81285714D01*
X125095239Y-81380952D01*
X125047620Y-81428571D01*
X124952382Y-81476190D01*
X124571429Y-81476190D01*
X125476191Y-80952381D02*
X125714286Y-81952381D01*
X125904763Y-81238095D01*
X126095239Y-81952381D01*
X126333334Y-80952381D01*
X126714286Y-81952381D02*
X126714286Y-80952381D01*
X127047620Y-81666667D01*
X127380953Y-80952381D01*
X127380953Y-81952381D01*
X140261905Y-80952381D02*
X140595238Y-81952381D01*
X140928572Y-80952381D01*
X141833334Y-81857143D02*
X141785715Y-81904762D01*
X141642858Y-81952381D01*
X141547620Y-81952381D01*
X141404762Y-81904762D01*
X141309524Y-81809524D01*
X141261905Y-81714286D01*
X141214286Y-81523810D01*
X141214286Y-81380952D01*
X141261905Y-81190476D01*
X141309524Y-81095238D01*
X141404762Y-81000000D01*
X141547620Y-80952381D01*
X141642858Y-80952381D01*
X141785715Y-81000000D01*
X141833334Y-81047619D01*
X142595239Y-81428571D02*
X142261905Y-81428571D01*
X142261905Y-81952381D02*
X142261905Y-80952381D01*
X142738096Y-80952381D01*
X143880953Y-81952381D02*
X143880953Y-80952381D01*
X144357143Y-81952381D02*
X144357143Y-80952381D01*
X144928572Y-81952381D01*
X144928572Y-80952381D01*
X146690477Y-81952381D02*
X146119048Y-81952381D01*
X146404762Y-81952381D02*
X146404762Y-80952381D01*
X146309524Y-81095238D01*
X146214286Y-81190476D01*
X146119048Y-81238095D01*
X147833334Y-80904762D02*
X146976191Y-82190476D01*
X148023810Y-80952381D02*
X148357143Y-81952381D01*
X148690477Y-80952381D01*
X149595239Y-81857143D02*
X149547620Y-81904762D01*
X149404763Y-81952381D01*
X149309525Y-81952381D01*
X149166667Y-81904762D01*
X149071429Y-81809524D01*
X149023810Y-81714286D01*
X148976191Y-81523810D01*
X148976191Y-81380952D01*
X149023810Y-81190476D01*
X149071429Y-81095238D01*
X149166667Y-81000000D01*
X149309525Y-80952381D01*
X149404763Y-80952381D01*
X149547620Y-81000000D01*
X149595239Y-81047619D01*
X150214286Y-80952381D02*
X150404763Y-80952381D01*
X150500001Y-81000000D01*
X150595239Y-81095238D01*
X150642858Y-81285714D01*
X150642858Y-81619048D01*
X150595239Y-81809524D01*
X150500001Y-81904762D01*
X150404763Y-81952381D01*
X150214286Y-81952381D01*
X150119048Y-81904762D01*
X150023810Y-81809524D01*
X149976191Y-81619048D01*
X149976191Y-81285714D01*
X150023810Y-81095238D01*
X150119048Y-81000000D01*
X150214286Y-80952381D01*
X167238095Y-80952381D02*
X167571428Y-81952381D01*
X167904762Y-80952381D01*
X168809524Y-81857143D02*
X168761905Y-81904762D01*
X168619048Y-81952381D01*
X168523810Y-81952381D01*
X168380952Y-81904762D01*
X168285714Y-81809524D01*
X168238095Y-81714286D01*
X168190476Y-81523810D01*
X168190476Y-81380952D01*
X168238095Y-81190476D01*
X168285714Y-81095238D01*
X168380952Y-81000000D01*
X168523810Y-80952381D01*
X168619048Y-80952381D01*
X168761905Y-81000000D01*
X168809524Y-81047619D01*
X169571429Y-81428571D02*
X169238095Y-81428571D01*
X169238095Y-81952381D02*
X169238095Y-80952381D01*
X169714286Y-80952381D01*
X170857143Y-81952381D02*
X170857143Y-80952381D01*
X171333333Y-81952381D02*
X171333333Y-80952381D01*
X171904762Y-81952381D01*
X171904762Y-80952381D01*
X173666667Y-81952381D02*
X173095238Y-81952381D01*
X173380952Y-81952381D02*
X173380952Y-80952381D01*
X173285714Y-81095238D01*
X173190476Y-81190476D01*
X173095238Y-81238095D01*
X217238095Y-81202381D02*
X217571428Y-82202381D01*
X217904762Y-81202381D01*
X218809524Y-82107143D02*
X218761905Y-82154762D01*
X218619048Y-82202381D01*
X218523810Y-82202381D01*
X218380952Y-82154762D01*
X218285714Y-82059524D01*
X218238095Y-81964286D01*
X218190476Y-81773810D01*
X218190476Y-81630952D01*
X218238095Y-81440476D01*
X218285714Y-81345238D01*
X218380952Y-81250000D01*
X218523810Y-81202381D01*
X218619048Y-81202381D01*
X218761905Y-81250000D01*
X218809524Y-81297619D01*
X219190476Y-81916667D02*
X219666667Y-81916667D01*
X219095238Y-82202381D02*
X219428571Y-81202381D01*
X219761905Y-82202381D01*
X220857143Y-82202381D02*
X220857143Y-81202381D01*
X221333333Y-82202381D02*
X221333333Y-81202381D01*
X221904762Y-82202381D01*
X221904762Y-81202381D01*
X223047619Y-81202381D02*
X223666667Y-81202381D01*
X223333333Y-81583333D01*
X223476191Y-81583333D01*
X223571429Y-81630952D01*
X223619048Y-81678571D01*
X223666667Y-81773810D01*
X223666667Y-82011905D01*
X223619048Y-82107143D01*
X223571429Y-82154762D01*
X223476191Y-82202381D01*
X223190476Y-82202381D01*
X223095238Y-82154762D01*
X223047619Y-82107143D01*
X191738095Y-80952381D02*
X192071428Y-81952381D01*
X192404762Y-80952381D01*
X193309524Y-81857143D02*
X193261905Y-81904762D01*
X193119048Y-81952381D01*
X193023810Y-81952381D01*
X192880952Y-81904762D01*
X192785714Y-81809524D01*
X192738095Y-81714286D01*
X192690476Y-81523810D01*
X192690476Y-81380952D01*
X192738095Y-81190476D01*
X192785714Y-81095238D01*
X192880952Y-81000000D01*
X193023810Y-80952381D01*
X193119048Y-80952381D01*
X193261905Y-81000000D01*
X193309524Y-81047619D01*
X193690476Y-81666667D02*
X194166667Y-81666667D01*
X193595238Y-81952381D02*
X193928571Y-80952381D01*
X194261905Y-81952381D01*
X195357143Y-81952381D02*
X195357143Y-80952381D01*
X195833333Y-81952381D02*
X195833333Y-80952381D01*
X196404762Y-81952381D01*
X196404762Y-80952381D01*
X198166667Y-81952381D02*
X197595238Y-81952381D01*
X197880952Y-81952381D02*
X197880952Y-80952381D01*
X197785714Y-81095238D01*
X197690476Y-81190476D01*
X197595238Y-81238095D01*
X217238095Y-51952381D02*
X217571428Y-52952381D01*
X217904762Y-51952381D01*
X218809524Y-52857143D02*
X218761905Y-52904762D01*
X218619048Y-52952381D01*
X218523810Y-52952381D01*
X218380952Y-52904762D01*
X218285714Y-52809524D01*
X218238095Y-52714286D01*
X218190476Y-52523810D01*
X218190476Y-52380952D01*
X218238095Y-52190476D01*
X218285714Y-52095238D01*
X218380952Y-52000000D01*
X218523810Y-51952381D01*
X218619048Y-51952381D01*
X218761905Y-52000000D01*
X218809524Y-52047619D01*
X219190476Y-52666667D02*
X219666667Y-52666667D01*
X219095238Y-52952381D02*
X219428571Y-51952381D01*
X219761905Y-52952381D01*
X220857143Y-52952381D02*
X220857143Y-51952381D01*
X221333333Y-52952381D02*
X221333333Y-51952381D01*
X221904762Y-52952381D01*
X221904762Y-51952381D01*
X223095238Y-52047619D02*
X223142857Y-52000000D01*
X223238095Y-51952381D01*
X223476191Y-51952381D01*
X223571429Y-52000000D01*
X223619048Y-52047619D01*
X223666667Y-52142857D01*
X223666667Y-52238095D01*
X223619048Y-52380952D01*
X223047619Y-52952381D01*
X223666667Y-52952381D01*
X191214286Y-52952381D02*
X191214286Y-51952381D01*
X191690476Y-52952381D02*
X191690476Y-51952381D01*
X192261905Y-52952381D01*
X192261905Y-51952381D01*
X192738095Y-52952381D02*
X192738095Y-51952381D01*
X193071428Y-51952381D02*
X193642857Y-51952381D01*
X193357142Y-52952381D02*
X193357142Y-51952381D01*
X193976190Y-52952381D02*
X193976190Y-51952381D01*
X194404761Y-52666667D02*
X194880952Y-52666667D01*
X194309523Y-52952381D02*
X194642856Y-51952381D01*
X194976190Y-52952381D01*
X195785714Y-52952381D02*
X195309523Y-52952381D01*
X195309523Y-51952381D01*
X197404762Y-52000000D02*
X197309524Y-51952381D01*
X197166667Y-51952381D01*
X197023809Y-52000000D01*
X196928571Y-52095238D01*
X196880952Y-52190476D01*
X196833333Y-52380952D01*
X196833333Y-52523810D01*
X196880952Y-52714286D01*
X196928571Y-52809524D01*
X197023809Y-52904762D01*
X197166667Y-52952381D01*
X197261905Y-52952381D01*
X197404762Y-52904762D01*
X197452381Y-52857143D01*
X197452381Y-52523810D01*
X197261905Y-52523810D01*
X197833333Y-52666667D02*
X198309524Y-52666667D01*
X197738095Y-52952381D02*
X198071428Y-51952381D01*
X198404762Y-52952381D01*
X198738095Y-52952381D02*
X198738095Y-51952381D01*
X199214285Y-52952381D02*
X199214285Y-51952381D01*
X199785714Y-52952381D01*
X199785714Y-51952381D01*
X116738095Y-64202381D02*
X116976190Y-65202381D01*
X117166667Y-64488095D01*
X117357143Y-65202381D01*
X117595238Y-64202381D01*
X117928571Y-64916667D02*
X118404762Y-64916667D01*
X117833333Y-65202381D02*
X118166666Y-64202381D01*
X118500000Y-65202381D01*
X118690476Y-64202381D02*
X119023809Y-65202381D01*
X119357143Y-64202381D01*
X119690476Y-64678571D02*
X120023810Y-64678571D01*
X120166667Y-65202381D02*
X119690476Y-65202381D01*
X119690476Y-64202381D01*
X120166667Y-64202381D01*
X120928572Y-64678571D02*
X120595238Y-64678571D01*
X120595238Y-65202381D02*
X120595238Y-64202381D01*
X121071429Y-64202381D01*
X121642857Y-64202381D02*
X121833334Y-64202381D01*
X121928572Y-64250000D01*
X122023810Y-64345238D01*
X122071429Y-64535714D01*
X122071429Y-64869048D01*
X122023810Y-65059524D01*
X121928572Y-65154762D01*
X121833334Y-65202381D01*
X121642857Y-65202381D01*
X121547619Y-65154762D01*
X121452381Y-65059524D01*
X121404762Y-64869048D01*
X121404762Y-64535714D01*
X121452381Y-64345238D01*
X121547619Y-64250000D01*
X121642857Y-64202381D01*
X123071429Y-65202381D02*
X122738095Y-64726190D01*
X122500000Y-65202381D02*
X122500000Y-64202381D01*
X122880953Y-64202381D01*
X122976191Y-64250000D01*
X123023810Y-64297619D01*
X123071429Y-64392857D01*
X123071429Y-64535714D01*
X123023810Y-64630952D01*
X122976191Y-64678571D01*
X122880953Y-64726190D01*
X122500000Y-64726190D01*
X123500000Y-65202381D02*
X123500000Y-64202381D01*
X123833334Y-64916667D01*
X124166667Y-64202381D01*
X124166667Y-65202381D01*
X166928572Y-52952381D02*
X166595238Y-52476190D01*
X166357143Y-52952381D02*
X166357143Y-51952381D01*
X166738096Y-51952381D01*
X166833334Y-52000000D01*
X166880953Y-52047619D01*
X166928572Y-52142857D01*
X166928572Y-52285714D01*
X166880953Y-52380952D01*
X166833334Y-52428571D01*
X166738096Y-52476190D01*
X166357143Y-52476190D01*
X167357143Y-52428571D02*
X167690477Y-52428571D01*
X167833334Y-52952381D02*
X167357143Y-52952381D01*
X167357143Y-51952381D01*
X167833334Y-51952381D01*
X168214286Y-52904762D02*
X168357143Y-52952381D01*
X168595239Y-52952381D01*
X168690477Y-52904762D01*
X168738096Y-52857143D01*
X168785715Y-52761905D01*
X168785715Y-52666667D01*
X168738096Y-52571429D01*
X168690477Y-52523810D01*
X168595239Y-52476190D01*
X168404762Y-52428571D01*
X168309524Y-52380952D01*
X168261905Y-52333333D01*
X168214286Y-52238095D01*
X168214286Y-52142857D01*
X168261905Y-52047619D01*
X168309524Y-52000000D01*
X168404762Y-51952381D01*
X168642858Y-51952381D01*
X168785715Y-52000000D01*
X169404762Y-51952381D02*
X169595239Y-51952381D01*
X169690477Y-52000000D01*
X169785715Y-52095238D01*
X169833334Y-52285714D01*
X169833334Y-52619048D01*
X169785715Y-52809524D01*
X169690477Y-52904762D01*
X169595239Y-52952381D01*
X169404762Y-52952381D01*
X169309524Y-52904762D01*
X169214286Y-52809524D01*
X169166667Y-52619048D01*
X169166667Y-52285714D01*
X169214286Y-52095238D01*
X169309524Y-52000000D01*
X169404762Y-51952381D01*
X170261905Y-52952381D02*
X170261905Y-51952381D01*
X170833334Y-52952381D01*
X170833334Y-51952381D01*
X171261905Y-52666667D02*
X171738096Y-52666667D01*
X171166667Y-52952381D02*
X171500000Y-51952381D01*
X171833334Y-52952381D01*
X172166667Y-52952381D02*
X172166667Y-51952381D01*
X172738096Y-52952381D01*
X172738096Y-51952381D01*
X173785715Y-52857143D02*
X173738096Y-52904762D01*
X173595239Y-52952381D01*
X173500001Y-52952381D01*
X173357143Y-52904762D01*
X173261905Y-52809524D01*
X173214286Y-52714286D01*
X173166667Y-52523810D01*
X173166667Y-52380952D01*
X173214286Y-52190476D01*
X173261905Y-52095238D01*
X173357143Y-52000000D01*
X173500001Y-51952381D01*
X173595239Y-51952381D01*
X173738096Y-52000000D01*
X173785715Y-52047619D01*
X174214286Y-52428571D02*
X174547620Y-52428571D01*
X174690477Y-52952381D02*
X174214286Y-52952381D01*
X174214286Y-51952381D01*
X174690477Y-51952381D01*
X141738096Y-52428571D02*
X141404762Y-52428571D01*
X141404762Y-52952381D02*
X141404762Y-51952381D01*
X141880953Y-51952381D01*
X142833334Y-52952381D02*
X142500000Y-52476190D01*
X142261905Y-52952381D02*
X142261905Y-51952381D01*
X142642858Y-51952381D01*
X142738096Y-52000000D01*
X142785715Y-52047619D01*
X142833334Y-52142857D01*
X142833334Y-52285714D01*
X142785715Y-52380952D01*
X142738096Y-52428571D01*
X142642858Y-52476190D01*
X142261905Y-52476190D01*
X143261905Y-52428571D02*
X143595239Y-52428571D01*
X143738096Y-52952381D02*
X143261905Y-52952381D01*
X143261905Y-51952381D01*
X143738096Y-51952381D01*
X144833334Y-53047619D02*
X144738096Y-53000000D01*
X144642858Y-52904762D01*
X144500001Y-52761905D01*
X144404762Y-52714286D01*
X144309524Y-52714286D01*
X144357143Y-52952381D02*
X144261905Y-52904762D01*
X144166667Y-52809524D01*
X144119048Y-52619048D01*
X144119048Y-52285714D01*
X144166667Y-52095238D01*
X144261905Y-52000000D01*
X144357143Y-51952381D01*
X144547620Y-51952381D01*
X144642858Y-52000000D01*
X144738096Y-52095238D01*
X144785715Y-52285714D01*
X144785715Y-52619048D01*
X144738096Y-52809524D01*
X144642858Y-52904762D01*
X144547620Y-52952381D01*
X144357143Y-52952381D01*
X145214286Y-51952381D02*
X145214286Y-52761905D01*
X145261905Y-52857143D01*
X145309524Y-52904762D01*
X145404762Y-52952381D01*
X145595239Y-52952381D01*
X145690477Y-52904762D01*
X145738096Y-52857143D01*
X145785715Y-52761905D01*
X145785715Y-51952381D01*
X146261905Y-52428571D02*
X146595239Y-52428571D01*
X146738096Y-52952381D02*
X146261905Y-52952381D01*
X146261905Y-51952381D01*
X146738096Y-51952381D01*
X147166667Y-52952381D02*
X147166667Y-51952381D01*
X147738096Y-52952381D01*
X147738096Y-51952381D01*
X148785715Y-52857143D02*
X148738096Y-52904762D01*
X148595239Y-52952381D01*
X148500001Y-52952381D01*
X148357143Y-52904762D01*
X148261905Y-52809524D01*
X148214286Y-52714286D01*
X148166667Y-52523810D01*
X148166667Y-52380952D01*
X148214286Y-52190476D01*
X148261905Y-52095238D01*
X148357143Y-52000000D01*
X148500001Y-51952381D01*
X148595239Y-51952381D01*
X148738096Y-52000000D01*
X148785715Y-52047619D01*
X149404762Y-52476190D02*
X149404762Y-52952381D01*
X149071429Y-51952381D02*
X149404762Y-52476190D01*
X149738096Y-51952381D01*
X110915476Y-107500000D02*
G75*
G03X110915476Y-107500000I-2915476J0D01*
G01*
X113000000Y-112500000D02*
X103000000Y-112500000D01*
X103000000Y-112500000D02*
X103000000Y-101500000D01*
X103000000Y-101500000D02*
X113000000Y-101500000D01*
X113000000Y-101500000D02*
X113000000Y-112500000D01*
X110000000Y-107500000D02*
G75*
G03X110000000Y-107500000I-2000000J0D01*
G01*
X113000000Y-51200000D02*
X113000000Y-51000000D01*
X113000000Y-53700000D02*
X113000000Y-54000000D01*
X113000000Y-52100000D02*
X113000000Y-51200000D01*
X113000000Y-53700000D02*
X113000000Y-52800000D01*
X112500000Y-52100000D02*
X113500000Y-52100000D01*
X112500000Y-52800000D02*
X113500000Y-52800000D01*
X113500000Y-52800000D02*
X113000000Y-52100000D01*
X113000000Y-52100000D02*
X112500000Y-52800000D01*
X114500000Y-52500000D02*
G75*
G03X114500000Y-52500000I-1500000J0D01*
G01*
X118000000Y-51200000D02*
X118000000Y-51000000D01*
X118000000Y-53700000D02*
X118000000Y-54000000D01*
X118000000Y-52100000D02*
X118000000Y-51200000D01*
X118000000Y-53700000D02*
X118000000Y-52800000D01*
X117500000Y-52100000D02*
X118500000Y-52100000D01*
X117500000Y-52800000D02*
X118500000Y-52800000D01*
X118500000Y-52800000D02*
X118000000Y-52100000D01*
X118000000Y-52100000D02*
X117500000Y-52800000D01*
X119500000Y-52500000D02*
G75*
G03X119500000Y-52500000I-1500000J0D01*
G01*
X123000000Y-51200000D02*
X123000000Y-51000000D01*
X123000000Y-53700000D02*
X123000000Y-54000000D01*
X123000000Y-52100000D02*
X123000000Y-51200000D01*
X123000000Y-53700000D02*
X123000000Y-52800000D01*
X122500000Y-52100000D02*
X123500000Y-52100000D01*
X122500000Y-52800000D02*
X123500000Y-52800000D01*
X123500000Y-52800000D02*
X123000000Y-52100000D01*
X123000000Y-52100000D02*
X122500000Y-52800000D01*
X124500000Y-52500000D02*
G75*
G03X124500000Y-52500000I-1500000J0D01*
G01*
X128000000Y-51200000D02*
X128000000Y-51000000D01*
X128000000Y-53700000D02*
X128000000Y-54000000D01*
X128000000Y-52100000D02*
X128000000Y-51200000D01*
X128000000Y-53700000D02*
X128000000Y-52800000D01*
X127500000Y-52100000D02*
X128500000Y-52100000D01*
X127500000Y-52800000D02*
X128500000Y-52800000D01*
X128500000Y-52800000D02*
X128000000Y-52100000D01*
X128000000Y-52100000D02*
X127500000Y-52800000D01*
X129500000Y-52500000D02*
G75*
G03X129500000Y-52500000I-1500000J0D01*
G01*
X143415476Y-107500000D02*
G75*
G03X143415476Y-107500000I-2915476J0D01*
G01*
X145500000Y-112500000D02*
X135500000Y-112500000D01*
X135500000Y-112500000D02*
X135500000Y-101500000D01*
X135500000Y-101500000D02*
X145500000Y-101500000D01*
X145500000Y-101500000D02*
X145500000Y-112500000D01*
X142500000Y-107500000D02*
G75*
G03X142500000Y-107500000I-2000000J0D01*
G01*
X178415476Y-107500000D02*
G75*
G03X178415476Y-107500000I-2915476J0D01*
G01*
X180500000Y-112500000D02*
X170500000Y-112500000D01*
X170500000Y-112500000D02*
X170500000Y-101500000D01*
X170500000Y-101500000D02*
X180500000Y-101500000D01*
X180500000Y-101500000D02*
X180500000Y-112500000D01*
X177500000Y-107500000D02*
G75*
G03X177500000Y-107500000I-2000000J0D01*
G01*
X178415476Y-145500000D02*
G75*
G03X178415476Y-145500000I-2915476J0D01*
G01*
X180500000Y-150500000D02*
X170500000Y-150500000D01*
X170500000Y-150500000D02*
X170500000Y-139500000D01*
X170500000Y-139500000D02*
X180500000Y-139500000D01*
X180500000Y-139500000D02*
X180500000Y-150500000D01*
X177500000Y-145500000D02*
G75*
G03X177500000Y-145500000I-2000000J0D01*
G01*
X143415476Y-145500000D02*
G75*
G03X143415476Y-145500000I-2915476J0D01*
G01*
X145500000Y-150500000D02*
X135500000Y-150500000D01*
X135500000Y-150500000D02*
X135500000Y-139500000D01*
X135500000Y-139500000D02*
X145500000Y-139500000D01*
X145500000Y-139500000D02*
X145500000Y-150500000D01*
X142500000Y-145500000D02*
G75*
G03X142500000Y-145500000I-2000000J0D01*
G01*
X93415476Y-145500000D02*
G75*
G03X93415476Y-145500000I-2915476J0D01*
G01*
X95500000Y-150500000D02*
X85500000Y-150500000D01*
X85500000Y-150500000D02*
X85500000Y-139500000D01*
X85500000Y-139500000D02*
X95500000Y-139500000D01*
X95500000Y-139500000D02*
X95500000Y-150500000D01*
X92500000Y-145500000D02*
G75*
G03X92500000Y-145500000I-2000000J0D01*
G01*
X128415476Y-145500000D02*
G75*
G03X128415476Y-145500000I-2915476J0D01*
G01*
X130500000Y-150500000D02*
X120500000Y-150500000D01*
X120500000Y-150500000D02*
X120500000Y-139500000D01*
X120500000Y-139500000D02*
X130500000Y-139500000D01*
X130500000Y-139500000D02*
X130500000Y-150500000D01*
X127500000Y-145500000D02*
G75*
G03X127500000Y-145500000I-2000000J0D01*
G01*
X93415476Y-107500000D02*
G75*
G03X93415476Y-107500000I-2915476J0D01*
G01*
X95500000Y-112500000D02*
X85500000Y-112500000D01*
X85500000Y-112500000D02*
X85500000Y-101500000D01*
X85500000Y-101500000D02*
X95500000Y-101500000D01*
X95500000Y-101500000D02*
X95500000Y-112500000D01*
X92500000Y-107500000D02*
G75*
G03X92500000Y-107500000I-2000000J0D01*
G01*
X128415476Y-107500000D02*
G75*
G03X128415476Y-107500000I-2915476J0D01*
G01*
X130500000Y-112500000D02*
X120500000Y-112500000D01*
X120500000Y-112500000D02*
X120500000Y-101500000D01*
X120500000Y-101500000D02*
X130500000Y-101500000D01*
X130500000Y-101500000D02*
X130500000Y-112500000D01*
X127500000Y-107500000D02*
G75*
G03X127500000Y-107500000I-2000000J0D01*
G01*
X193415476Y-145500000D02*
G75*
G03X193415476Y-145500000I-2915476J0D01*
G01*
X195500000Y-150500000D02*
X185500000Y-150500000D01*
X185500000Y-150500000D02*
X185500000Y-139500000D01*
X185500000Y-139500000D02*
X195500000Y-139500000D01*
X195500000Y-139500000D02*
X195500000Y-150500000D01*
X192500000Y-145500000D02*
G75*
G03X192500000Y-145500000I-2000000J0D01*
G01*
X228415476Y-145500000D02*
G75*
G03X228415476Y-145500000I-2915476J0D01*
G01*
X230500000Y-150500000D02*
X220500000Y-150500000D01*
X220500000Y-150500000D02*
X220500000Y-139500000D01*
X220500000Y-139500000D02*
X230500000Y-139500000D01*
X230500000Y-139500000D02*
X230500000Y-150500000D01*
X227500000Y-145500000D02*
G75*
G03X227500000Y-145500000I-2000000J0D01*
G01*
X193415476Y-107500000D02*
G75*
G03X193415476Y-107500000I-2915476J0D01*
G01*
X195500000Y-112500000D02*
X185500000Y-112500000D01*
X185500000Y-112500000D02*
X185500000Y-101500000D01*
X185500000Y-101500000D02*
X195500000Y-101500000D01*
X195500000Y-101500000D02*
X195500000Y-112500000D01*
X192500000Y-107500000D02*
G75*
G03X192500000Y-107500000I-2000000J0D01*
G01*
X210915476Y-107500000D02*
G75*
G03X210915476Y-107500000I-2915476J0D01*
G01*
X213000000Y-112500000D02*
X203000000Y-112500000D01*
X203000000Y-112500000D02*
X203000000Y-101500000D01*
X203000000Y-101500000D02*
X213000000Y-101500000D01*
X213000000Y-101500000D02*
X213000000Y-112500000D01*
X210000000Y-107500000D02*
G75*
G03X210000000Y-107500000I-2000000J0D01*
G01*
X228415476Y-107500000D02*
G75*
G03X228415476Y-107500000I-2915476J0D01*
G01*
X230500000Y-112500000D02*
X220500000Y-112500000D01*
X220500000Y-112500000D02*
X220500000Y-101500000D01*
X220500000Y-101500000D02*
X230500000Y-101500000D01*
X230500000Y-101500000D02*
X230500000Y-112500000D01*
X227500000Y-107500000D02*
G75*
G03X227500000Y-107500000I-2000000J0D01*
G01*
X160915476Y-107500000D02*
G75*
G03X160915476Y-107500000I-2915476J0D01*
G01*
X163000000Y-112500000D02*
X153000000Y-112500000D01*
X153000000Y-112500000D02*
X153000000Y-101500000D01*
X153000000Y-101500000D02*
X163000000Y-101500000D01*
X163000000Y-101500000D02*
X163000000Y-112500000D01*
X160000000Y-107500000D02*
G75*
G03X160000000Y-107500000I-2000000J0D01*
G01*
X110915476Y-145500000D02*
G75*
G03X110915476Y-145500000I-2915476J0D01*
G01*
X113000000Y-150500000D02*
X103000000Y-150500000D01*
X103000000Y-150500000D02*
X103000000Y-139500000D01*
X103000000Y-139500000D02*
X113000000Y-139500000D01*
X113000000Y-139500000D02*
X113000000Y-150500000D01*
X110000000Y-145500000D02*
G75*
G03X110000000Y-145500000I-2000000J0D01*
G01*
X160915476Y-145500000D02*
G75*
G03X160915476Y-145500000I-2915476J0D01*
G01*
X163000000Y-150500000D02*
X153000000Y-150500000D01*
X153000000Y-150500000D02*
X153000000Y-139500000D01*
X153000000Y-139500000D02*
X163000000Y-139500000D01*
X163000000Y-139500000D02*
X163000000Y-150500000D01*
X160000000Y-145500000D02*
G75*
G03X160000000Y-145500000I-2000000J0D01*
G01*
X210915476Y-145500000D02*
G75*
G03X210915476Y-145500000I-2915476J0D01*
G01*
X213000000Y-150500000D02*
X203000000Y-150500000D01*
X203000000Y-150500000D02*
X203000000Y-139500000D01*
X203000000Y-139500000D02*
X213000000Y-139500000D01*
X213000000Y-139500000D02*
X213000000Y-150500000D01*
X210000000Y-145500000D02*
G75*
G03X210000000Y-145500000I-2000000J0D01*
G01*
X157000000Y-134000000D02*
X157000000Y-137000000D01*
X156000000Y-134000000D02*
X156000000Y-137000000D01*
X158000000Y-135500000D02*
X158000000Y-134000000D01*
X158000000Y-134000000D02*
X155000000Y-134000000D01*
X155000000Y-134000000D02*
X155000000Y-137000000D01*
X155000000Y-137000000D02*
X158000000Y-137000000D01*
X158000000Y-137000000D02*
X158000000Y-135500000D01*
X158000000Y-132700000D02*
X164700000Y-132700000D01*
X164750000Y-132700000D02*
X164750000Y-138300000D01*
X164700000Y-138300000D02*
X151300000Y-138300000D01*
X151250000Y-138300000D02*
X151250000Y-132700000D01*
X151300000Y-132700000D02*
X158000000Y-132700000D01*
X207000000Y-134000000D02*
X207000000Y-137000000D01*
X206000000Y-134000000D02*
X206000000Y-137000000D01*
X208000000Y-135500000D02*
X208000000Y-134000000D01*
X208000000Y-134000000D02*
X205000000Y-134000000D01*
X205000000Y-134000000D02*
X205000000Y-137000000D01*
X205000000Y-137000000D02*
X208000000Y-137000000D01*
X208000000Y-137000000D02*
X208000000Y-135500000D01*
X208000000Y-132700000D02*
X214700000Y-132700000D01*
X214750000Y-132700000D02*
X214750000Y-138300000D01*
X214700000Y-138300000D02*
X201300000Y-138300000D01*
X201250000Y-138300000D02*
X201250000Y-132700000D01*
X201300000Y-132700000D02*
X208000000Y-132700000D01*
X119250000Y-57750000D02*
X121750000Y-57750000D01*
X121750000Y-57750000D02*
X121750000Y-60250000D01*
X121750000Y-60250000D02*
X119250000Y-60250000D01*
X119250000Y-60250000D02*
X119250000Y-57750000D01*
X122320027Y-59000000D02*
G75*
G03X122320027Y-59000000I-1820027J0D01*
G01*
X117500000Y-56000000D02*
X123500000Y-56000000D01*
X123500000Y-56000000D02*
X123500000Y-62000000D01*
X123500000Y-62000000D02*
X117500000Y-62000000D01*
X117500000Y-62000000D02*
X117500000Y-56000000D01*
X167400000Y-108900000D02*
X167400000Y-106100000D01*
X165600000Y-108900000D02*
X165600000Y-106100000D01*
X165600000Y-106100000D02*
X167400000Y-106100000D01*
X167400000Y-108900000D02*
X165600000Y-108900000D01*
X109000000Y-137000000D02*
X109000000Y-134000000D01*
X110000000Y-137000000D02*
X110000000Y-134000000D01*
X108000000Y-135500000D02*
X108000000Y-137000000D01*
X108000000Y-137000000D02*
X111000000Y-137000000D01*
X111000000Y-137000000D02*
X111000000Y-134000000D01*
X111000000Y-134000000D02*
X108000000Y-134000000D01*
X108000000Y-134000000D02*
X108000000Y-135500000D01*
X108000000Y-138300000D02*
X101300000Y-138300000D01*
X101250000Y-138300000D02*
X101250000Y-132700000D01*
X101300000Y-132700000D02*
X114700000Y-132700000D01*
X114750000Y-132700000D02*
X114750000Y-138300000D01*
X114700000Y-138300000D02*
X108000000Y-138300000D01*
D12*
X147736068Y-88000000D02*
G75*
G03X147736068Y-88000000I-2236068J0D01*
G01*
X140500000Y-88000000D02*
X140500000Y-83000000D01*
X140500000Y-83000000D02*
X150500000Y-83000000D01*
X150500000Y-83000000D02*
X150500000Y-94000000D01*
X150500000Y-94000000D02*
X140500000Y-94000000D01*
X140500000Y-94000000D02*
X140500000Y-88000000D01*
X172736068Y-88000000D02*
G75*
G03X172736068Y-88000000I-2236068J0D01*
G01*
X165500000Y-88000000D02*
X165500000Y-83000000D01*
X165500000Y-83000000D02*
X175500000Y-83000000D01*
X175500000Y-83000000D02*
X175500000Y-94000000D01*
X175500000Y-94000000D02*
X165500000Y-94000000D01*
X165500000Y-94000000D02*
X165500000Y-88000000D01*
X172736068Y-126000000D02*
G75*
G03X172736068Y-126000000I-2236068J0D01*
G01*
X165500000Y-126000000D02*
X165500000Y-121000000D01*
X165500000Y-121000000D02*
X175500000Y-121000000D01*
X175500000Y-121000000D02*
X175500000Y-132000000D01*
X175500000Y-132000000D02*
X165500000Y-132000000D01*
X165500000Y-132000000D02*
X165500000Y-126000000D01*
X147736068Y-59000000D02*
G75*
G03X147736068Y-59000000I-2236068J0D01*
G01*
X140500000Y-59000000D02*
X140500000Y-54000000D01*
X140500000Y-54000000D02*
X150500000Y-54000000D01*
X150500000Y-54000000D02*
X150500000Y-65000000D01*
X150500000Y-65000000D02*
X140500000Y-65000000D01*
X140500000Y-65000000D02*
X140500000Y-59000000D01*
X147736068Y-126000000D02*
G75*
G03X147736068Y-126000000I-2236068J0D01*
G01*
X140500000Y-126000000D02*
X140500000Y-121000000D01*
X140500000Y-121000000D02*
X150500000Y-121000000D01*
X150500000Y-121000000D02*
X150500000Y-132000000D01*
X150500000Y-132000000D02*
X140500000Y-132000000D01*
X140500000Y-132000000D02*
X140500000Y-126000000D01*
X97736068Y-88000000D02*
G75*
G03X97736068Y-88000000I-2236068J0D01*
G01*
X90500000Y-88000000D02*
X90500000Y-83000000D01*
X90500000Y-83000000D02*
X100500000Y-83000000D01*
X100500000Y-83000000D02*
X100500000Y-94000000D01*
X100500000Y-94000000D02*
X90500000Y-94000000D01*
X90500000Y-94000000D02*
X90500000Y-88000000D01*
X97736068Y-126000000D02*
G75*
G03X97736068Y-126000000I-2236068J0D01*
G01*
X90500000Y-126000000D02*
X90500000Y-121000000D01*
X90500000Y-121000000D02*
X100500000Y-121000000D01*
X100500000Y-121000000D02*
X100500000Y-132000000D01*
X100500000Y-132000000D02*
X90500000Y-132000000D01*
X90500000Y-132000000D02*
X90500000Y-126000000D01*
X122736068Y-126000000D02*
G75*
G03X122736068Y-126000000I-2236068J0D01*
G01*
X115500000Y-126000000D02*
X115500000Y-121000000D01*
X115500000Y-121000000D02*
X125500000Y-121000000D01*
X125500000Y-121000000D02*
X125500000Y-132000000D01*
X125500000Y-132000000D02*
X115500000Y-132000000D01*
X115500000Y-132000000D02*
X115500000Y-126000000D01*
X122736068Y-88000000D02*
G75*
G03X122736068Y-88000000I-2236068J0D01*
G01*
X115500000Y-88000000D02*
X115500000Y-83000000D01*
X115500000Y-83000000D02*
X125500000Y-83000000D01*
X125500000Y-83000000D02*
X125500000Y-94000000D01*
X125500000Y-94000000D02*
X115500000Y-94000000D01*
X115500000Y-94000000D02*
X115500000Y-88000000D01*
X197736068Y-59000000D02*
G75*
G03X197736068Y-59000000I-2236068J0D01*
G01*
X190500000Y-59000000D02*
X190500000Y-54000000D01*
X190500000Y-54000000D02*
X200500000Y-54000000D01*
X200500000Y-54000000D02*
X200500000Y-65000000D01*
X200500000Y-65000000D02*
X190500000Y-65000000D01*
X190500000Y-65000000D02*
X190500000Y-59000000D01*
X197736068Y-126000000D02*
G75*
G03X197736068Y-126000000I-2236068J0D01*
G01*
X190500000Y-126000000D02*
X190500000Y-121000000D01*
X190500000Y-121000000D02*
X200500000Y-121000000D01*
X200500000Y-121000000D02*
X200500000Y-132000000D01*
X200500000Y-132000000D02*
X190500000Y-132000000D01*
X190500000Y-132000000D02*
X190500000Y-126000000D01*
X222736068Y-126000000D02*
G75*
G03X222736068Y-126000000I-2236068J0D01*
G01*
X215500000Y-126000000D02*
X215500000Y-121000000D01*
X215500000Y-121000000D02*
X225500000Y-121000000D01*
X225500000Y-121000000D02*
X225500000Y-132000000D01*
X225500000Y-132000000D02*
X215500000Y-132000000D01*
X215500000Y-132000000D02*
X215500000Y-126000000D01*
X197736068Y-88000000D02*
G75*
G03X197736068Y-88000000I-2236068J0D01*
G01*
X190500000Y-88000000D02*
X190500000Y-83000000D01*
X190500000Y-83000000D02*
X200500000Y-83000000D01*
X200500000Y-83000000D02*
X200500000Y-94000000D01*
X200500000Y-94000000D02*
X190500000Y-94000000D01*
X190500000Y-94000000D02*
X190500000Y-88000000D01*
X222736068Y-59000000D02*
G75*
G03X222736068Y-59000000I-2236068J0D01*
G01*
X215500000Y-59000000D02*
X215500000Y-54000000D01*
X215500000Y-54000000D02*
X225500000Y-54000000D01*
X225500000Y-54000000D02*
X225500000Y-65000000D01*
X225500000Y-65000000D02*
X215500000Y-65000000D01*
X215500000Y-65000000D02*
X215500000Y-59000000D01*
X222736068Y-88000000D02*
G75*
G03X222736068Y-88000000I-2236068J0D01*
G01*
X215500000Y-88000000D02*
X215500000Y-83000000D01*
X215500000Y-83000000D02*
X225500000Y-83000000D01*
X225500000Y-83000000D02*
X225500000Y-94000000D01*
X225500000Y-94000000D02*
X215500000Y-94000000D01*
X215500000Y-94000000D02*
X215500000Y-88000000D01*
X172736068Y-59000000D02*
G75*
G03X172736068Y-59000000I-2236068J0D01*
G01*
X165500000Y-59000000D02*
X165500000Y-54000000D01*
X165500000Y-54000000D02*
X175500000Y-54000000D01*
X175500000Y-54000000D02*
X175500000Y-65000000D01*
X175500000Y-65000000D02*
X165500000Y-65000000D01*
X165500000Y-65000000D02*
X165500000Y-59000000D01*
D11*
X208000000Y-60300000D02*
X208000000Y-60500000D01*
X208000000Y-57800000D02*
X208000000Y-57500000D01*
X208000000Y-59400000D02*
X208000000Y-60300000D01*
X208000000Y-57800000D02*
X208000000Y-58700000D01*
X208500000Y-59400000D02*
X207500000Y-59400000D01*
X208500000Y-58700000D02*
X207500000Y-58700000D01*
X207500000Y-58700000D02*
X208000000Y-59400000D01*
X208000000Y-59400000D02*
X208500000Y-58700000D01*
X209500000Y-59000000D02*
G75*
G03X209500000Y-59000000I-1500000J0D01*
G01*
X208000000Y-51200000D02*
X208000000Y-51000000D01*
X208000000Y-53700000D02*
X208000000Y-54000000D01*
X208000000Y-52100000D02*
X208000000Y-51200000D01*
X208000000Y-53700000D02*
X208000000Y-52800000D01*
X207500000Y-52100000D02*
X208500000Y-52100000D01*
X207500000Y-52800000D02*
X208500000Y-52800000D01*
X208500000Y-52800000D02*
X208000000Y-52100000D01*
X208000000Y-52100000D02*
X207500000Y-52800000D01*
X209500000Y-52500000D02*
G75*
G03X209500000Y-52500000I-1500000J0D01*
G01*
X148873000Y-110437700D02*
G75*
G03X148873000Y-110437700I-1143000J0D01*
G01*
X146663200Y-110679000D02*
X148822200Y-110679000D01*
X151476500Y-102487500D02*
X151476500Y-112012500D01*
X146523500Y-102487500D02*
X146523500Y-112012500D01*
X146523500Y-112012500D02*
X151476500Y-112012500D01*
X146523500Y-102487500D02*
X151476500Y-102487500D01*
X146663200Y-110196400D02*
X148796800Y-110196400D01*
X96650700Y-99970000D02*
G75*
G03X96650700Y-99970000I-1143000J0D01*
G01*
X95749000Y-101036800D02*
X95749000Y-98877800D01*
X87557500Y-96223500D02*
X97082500Y-96223500D01*
X87557500Y-101176500D02*
X97082500Y-101176500D01*
X97082500Y-101176500D02*
X97082500Y-96223500D01*
X87557500Y-101176500D02*
X87557500Y-96223500D01*
X95266400Y-101036800D02*
X95266400Y-98903200D01*
X107500000Y-113178571D02*
X107500000Y-114250000D01*
X107428572Y-114464286D01*
X107285715Y-114607143D01*
X107071429Y-114678571D01*
X106928572Y-114678571D01*
X109000000Y-114678571D02*
X108142857Y-114678571D01*
X108571429Y-114678571D02*
X108571429Y-113178571D01*
X108428572Y-113392857D01*
X108285714Y-113535714D01*
X108142857Y-113607143D01*
X112013029Y-50117695D02*
X112013029Y-49304895D01*
X112206553Y-49304895D01*
X112322667Y-49343600D01*
X112400076Y-49421010D01*
X112438781Y-49498419D01*
X112477486Y-49653238D01*
X112477486Y-49769352D01*
X112438781Y-49924171D01*
X112400076Y-50001581D01*
X112322667Y-50078990D01*
X112206553Y-50117695D01*
X112013029Y-50117695D01*
X113251581Y-50117695D02*
X112787124Y-50117695D01*
X113019353Y-50117695D02*
X113019353Y-49304895D01*
X112941943Y-49421010D01*
X112864534Y-49498419D01*
X112787124Y-49537124D01*
X113754743Y-49304895D02*
X113832152Y-49304895D01*
X113909562Y-49343600D01*
X113948267Y-49382305D01*
X113986971Y-49459714D01*
X114025676Y-49614533D01*
X114025676Y-49808057D01*
X113986971Y-49962876D01*
X113948267Y-50040286D01*
X113909562Y-50078990D01*
X113832152Y-50117695D01*
X113754743Y-50117695D01*
X113677333Y-50078990D01*
X113638629Y-50040286D01*
X113599924Y-49962876D01*
X113561219Y-49808057D01*
X113561219Y-49614533D01*
X113599924Y-49459714D01*
X113638629Y-49382305D01*
X113677333Y-49343600D01*
X113754743Y-49304895D01*
X117013029Y-50117695D02*
X117013029Y-49304895D01*
X117206553Y-49304895D01*
X117322667Y-49343600D01*
X117400076Y-49421010D01*
X117438781Y-49498419D01*
X117477486Y-49653238D01*
X117477486Y-49769352D01*
X117438781Y-49924171D01*
X117400076Y-50001581D01*
X117322667Y-50078990D01*
X117206553Y-50117695D01*
X117013029Y-50117695D01*
X118251581Y-50117695D02*
X117787124Y-50117695D01*
X118019353Y-50117695D02*
X118019353Y-49304895D01*
X117941943Y-49421010D01*
X117864534Y-49498419D01*
X117787124Y-49537124D01*
X119025676Y-50117695D02*
X118561219Y-50117695D01*
X118793448Y-50117695D02*
X118793448Y-49304895D01*
X118716038Y-49421010D01*
X118638629Y-49498419D01*
X118561219Y-49537124D01*
X122013029Y-50117695D02*
X122013029Y-49304895D01*
X122206553Y-49304895D01*
X122322667Y-49343600D01*
X122400076Y-49421010D01*
X122438781Y-49498419D01*
X122477486Y-49653238D01*
X122477486Y-49769352D01*
X122438781Y-49924171D01*
X122400076Y-50001581D01*
X122322667Y-50078990D01*
X122206553Y-50117695D01*
X122013029Y-50117695D01*
X123251581Y-50117695D02*
X122787124Y-50117695D01*
X123019353Y-50117695D02*
X123019353Y-49304895D01*
X122941943Y-49421010D01*
X122864534Y-49498419D01*
X122787124Y-49537124D01*
X123561219Y-49382305D02*
X123599924Y-49343600D01*
X123677333Y-49304895D01*
X123870857Y-49304895D01*
X123948267Y-49343600D01*
X123986971Y-49382305D01*
X124025676Y-49459714D01*
X124025676Y-49537124D01*
X123986971Y-49653238D01*
X123522514Y-50117695D01*
X124025676Y-50117695D01*
X127013029Y-50117695D02*
X127013029Y-49304895D01*
X127206553Y-49304895D01*
X127322667Y-49343600D01*
X127400076Y-49421010D01*
X127438781Y-49498419D01*
X127477486Y-49653238D01*
X127477486Y-49769352D01*
X127438781Y-49924171D01*
X127400076Y-50001581D01*
X127322667Y-50078990D01*
X127206553Y-50117695D01*
X127013029Y-50117695D01*
X128251581Y-50117695D02*
X127787124Y-50117695D01*
X128019353Y-50117695D02*
X128019353Y-49304895D01*
X127941943Y-49421010D01*
X127864534Y-49498419D01*
X127787124Y-49537124D01*
X128522514Y-49304895D02*
X129025676Y-49304895D01*
X128754743Y-49614533D01*
X128870857Y-49614533D01*
X128948267Y-49653238D01*
X128986971Y-49691943D01*
X129025676Y-49769352D01*
X129025676Y-49962876D01*
X128986971Y-50040286D01*
X128948267Y-50078990D01*
X128870857Y-50117695D01*
X128638629Y-50117695D01*
X128561219Y-50078990D01*
X128522514Y-50040286D01*
X140000000Y-113178571D02*
X140000000Y-114250000D01*
X139928572Y-114464286D01*
X139785715Y-114607143D01*
X139571429Y-114678571D01*
X139428572Y-114678571D01*
X140642857Y-113321429D02*
X140714286Y-113250000D01*
X140857143Y-113178571D01*
X141214286Y-113178571D01*
X141357143Y-113250000D01*
X141428572Y-113321429D01*
X141500000Y-113464286D01*
X141500000Y-113607143D01*
X141428572Y-113821429D01*
X140571429Y-114678571D01*
X141500000Y-114678571D01*
X175000000Y-113178571D02*
X175000000Y-114250000D01*
X174928572Y-114464286D01*
X174785715Y-114607143D01*
X174571429Y-114678571D01*
X174428572Y-114678571D01*
X175571429Y-113178571D02*
X176500000Y-113178571D01*
X176000000Y-113750000D01*
X176214286Y-113750000D01*
X176357143Y-113821429D01*
X176428572Y-113892857D01*
X176500000Y-114035714D01*
X176500000Y-114392857D01*
X176428572Y-114535714D01*
X176357143Y-114607143D01*
X176214286Y-114678571D01*
X175785714Y-114678571D01*
X175642857Y-114607143D01*
X175571429Y-114535714D01*
X180928571Y-149750000D02*
X182000000Y-149750000D01*
X182214286Y-149821428D01*
X182357143Y-149964285D01*
X182428571Y-150178571D01*
X182428571Y-150321428D01*
X181428571Y-148392857D02*
X182428571Y-148392857D01*
X180857143Y-148750000D02*
X181928571Y-149107143D01*
X181928571Y-148178571D01*
X145928571Y-149500000D02*
X147000000Y-149500000D01*
X147214286Y-149571428D01*
X147357143Y-149714285D01*
X147428571Y-149928571D01*
X147428571Y-150071428D01*
X145928571Y-148071428D02*
X145928571Y-148785714D01*
X146642857Y-148857143D01*
X146571429Y-148785714D01*
X146500000Y-148642857D01*
X146500000Y-148285714D01*
X146571429Y-148142857D01*
X146642857Y-148071428D01*
X146785714Y-148000000D01*
X147142857Y-148000000D01*
X147285714Y-148071428D01*
X147357143Y-148142857D01*
X147428571Y-148285714D01*
X147428571Y-148642857D01*
X147357143Y-148785714D01*
X147285714Y-148857143D01*
X95928571Y-149750000D02*
X97000000Y-149750000D01*
X97214286Y-149821428D01*
X97357143Y-149964285D01*
X97428571Y-150178571D01*
X97428571Y-150321428D01*
X95928571Y-148392857D02*
X95928571Y-148678571D01*
X96000000Y-148821428D01*
X96071429Y-148892857D01*
X96285714Y-149035714D01*
X96571429Y-149107143D01*
X97142857Y-149107143D01*
X97285714Y-149035714D01*
X97357143Y-148964286D01*
X97428571Y-148821428D01*
X97428571Y-148535714D01*
X97357143Y-148392857D01*
X97285714Y-148321428D01*
X97142857Y-148250000D01*
X96785714Y-148250000D01*
X96642857Y-148321428D01*
X96571429Y-148392857D01*
X96500000Y-148535714D01*
X96500000Y-148821428D01*
X96571429Y-148964286D01*
X96642857Y-149035714D01*
X96785714Y-149107143D01*
X130928571Y-149750000D02*
X132000000Y-149750000D01*
X132214286Y-149821428D01*
X132357143Y-149964285D01*
X132428571Y-150178571D01*
X132428571Y-150321428D01*
X130928571Y-149178571D02*
X130928571Y-148178571D01*
X132428571Y-148821428D01*
X90000000Y-113178571D02*
X90000000Y-114250000D01*
X89928572Y-114464286D01*
X89785715Y-114607143D01*
X89571429Y-114678571D01*
X89428572Y-114678571D01*
X90928572Y-113821429D02*
X90785714Y-113750000D01*
X90714286Y-113678571D01*
X90642857Y-113535714D01*
X90642857Y-113464286D01*
X90714286Y-113321429D01*
X90785714Y-113250000D01*
X90928572Y-113178571D01*
X91214286Y-113178571D01*
X91357143Y-113250000D01*
X91428572Y-113321429D01*
X91500000Y-113464286D01*
X91500000Y-113535714D01*
X91428572Y-113678571D01*
X91357143Y-113750000D01*
X91214286Y-113821429D01*
X90928572Y-113821429D01*
X90785714Y-113892857D01*
X90714286Y-113964286D01*
X90642857Y-114107143D01*
X90642857Y-114392857D01*
X90714286Y-114535714D01*
X90785714Y-114607143D01*
X90928572Y-114678571D01*
X91214286Y-114678571D01*
X91357143Y-114607143D01*
X91428572Y-114535714D01*
X91500000Y-114392857D01*
X91500000Y-114107143D01*
X91428572Y-113964286D01*
X91357143Y-113892857D01*
X91214286Y-113821429D01*
X125000000Y-113178571D02*
X125000000Y-114250000D01*
X124928572Y-114464286D01*
X124785715Y-114607143D01*
X124571429Y-114678571D01*
X124428572Y-114678571D01*
X125785714Y-114678571D02*
X126071429Y-114678571D01*
X126214286Y-114607143D01*
X126285714Y-114535714D01*
X126428572Y-114321429D01*
X126500000Y-114035714D01*
X126500000Y-113464286D01*
X126428572Y-113321429D01*
X126357143Y-113250000D01*
X126214286Y-113178571D01*
X125928572Y-113178571D01*
X125785714Y-113250000D01*
X125714286Y-113321429D01*
X125642857Y-113464286D01*
X125642857Y-113821429D01*
X125714286Y-113964286D01*
X125785714Y-114035714D01*
X125928572Y-114107143D01*
X126214286Y-114107143D01*
X126357143Y-114035714D01*
X126428572Y-113964286D01*
X126500000Y-113821429D01*
X195928571Y-149964285D02*
X197000000Y-149964285D01*
X197214286Y-150035713D01*
X197357143Y-150178570D01*
X197428571Y-150392856D01*
X197428571Y-150535713D01*
X197428571Y-148464285D02*
X197428571Y-149321428D01*
X197428571Y-148892856D02*
X195928571Y-148892856D01*
X196142857Y-149035713D01*
X196285714Y-149178571D01*
X196357143Y-149321428D01*
X195928571Y-147535714D02*
X195928571Y-147392857D01*
X196000000Y-147250000D01*
X196071429Y-147178571D01*
X196214286Y-147107142D01*
X196500000Y-147035714D01*
X196857143Y-147035714D01*
X197142857Y-147107142D01*
X197285714Y-147178571D01*
X197357143Y-147250000D01*
X197428571Y-147392857D01*
X197428571Y-147535714D01*
X197357143Y-147678571D01*
X197285714Y-147750000D01*
X197142857Y-147821428D01*
X196857143Y-147892857D01*
X196500000Y-147892857D01*
X196214286Y-147821428D01*
X196071429Y-147750000D01*
X196000000Y-147678571D01*
X195928571Y-147535714D01*
X217678571Y-149964285D02*
X218750000Y-149964285D01*
X218964286Y-150035713D01*
X219107143Y-150178570D01*
X219178571Y-150392856D01*
X219178571Y-150535713D01*
X219178571Y-148464285D02*
X219178571Y-149321428D01*
X219178571Y-148892856D02*
X217678571Y-148892856D01*
X217892857Y-149035713D01*
X218035714Y-149178571D01*
X218107143Y-149321428D01*
X219178571Y-147035714D02*
X219178571Y-147892857D01*
X219178571Y-147464285D02*
X217678571Y-147464285D01*
X217892857Y-147607142D01*
X218035714Y-147750000D01*
X218107143Y-147892857D01*
X189285715Y-113178571D02*
X189285715Y-114250000D01*
X189214287Y-114464286D01*
X189071430Y-114607143D01*
X188857144Y-114678571D01*
X188714287Y-114678571D01*
X190785715Y-114678571D02*
X189928572Y-114678571D01*
X190357144Y-114678571D02*
X190357144Y-113178571D01*
X190214287Y-113392857D01*
X190071429Y-113535714D01*
X189928572Y-113607143D01*
X191357143Y-113321429D02*
X191428572Y-113250000D01*
X191571429Y-113178571D01*
X191928572Y-113178571D01*
X192071429Y-113250000D01*
X192142858Y-113321429D01*
X192214286Y-113464286D01*
X192214286Y-113607143D01*
X192142858Y-113821429D01*
X191285715Y-114678571D01*
X192214286Y-114678571D01*
X206785715Y-113178571D02*
X206785715Y-114250000D01*
X206714287Y-114464286D01*
X206571430Y-114607143D01*
X206357144Y-114678571D01*
X206214287Y-114678571D01*
X208285715Y-114678571D02*
X207428572Y-114678571D01*
X207857144Y-114678571D02*
X207857144Y-113178571D01*
X207714287Y-113392857D01*
X207571429Y-113535714D01*
X207428572Y-113607143D01*
X208785715Y-113178571D02*
X209714286Y-113178571D01*
X209214286Y-113750000D01*
X209428572Y-113750000D01*
X209571429Y-113821429D01*
X209642858Y-113892857D01*
X209714286Y-114035714D01*
X209714286Y-114392857D01*
X209642858Y-114535714D01*
X209571429Y-114607143D01*
X209428572Y-114678571D01*
X209000000Y-114678571D01*
X208857143Y-114607143D01*
X208785715Y-114535714D01*
X224285715Y-113178571D02*
X224285715Y-114250000D01*
X224214287Y-114464286D01*
X224071430Y-114607143D01*
X223857144Y-114678571D01*
X223714287Y-114678571D01*
X225785715Y-114678571D02*
X224928572Y-114678571D01*
X225357144Y-114678571D02*
X225357144Y-113178571D01*
X225214287Y-113392857D01*
X225071429Y-113535714D01*
X224928572Y-113607143D01*
X227071429Y-113678571D02*
X227071429Y-114678571D01*
X226714286Y-113107143D02*
X226357143Y-114178571D01*
X227285715Y-114178571D01*
X156785715Y-113178571D02*
X156785715Y-114250000D01*
X156714287Y-114464286D01*
X156571430Y-114607143D01*
X156357144Y-114678571D01*
X156214287Y-114678571D01*
X158285715Y-114678571D02*
X157428572Y-114678571D01*
X157857144Y-114678571D02*
X157857144Y-113178571D01*
X157714287Y-113392857D01*
X157571429Y-113535714D01*
X157428572Y-113607143D01*
X159642858Y-113178571D02*
X158928572Y-113178571D01*
X158857143Y-113892857D01*
X158928572Y-113821429D01*
X159071429Y-113750000D01*
X159428572Y-113750000D01*
X159571429Y-113821429D01*
X159642858Y-113892857D01*
X159714286Y-114035714D01*
X159714286Y-114392857D01*
X159642858Y-114535714D01*
X159571429Y-114607143D01*
X159428572Y-114678571D01*
X159071429Y-114678571D01*
X158928572Y-114607143D01*
X158857143Y-114535714D01*
X113428571Y-149964285D02*
X114500000Y-149964285D01*
X114714286Y-150035713D01*
X114857143Y-150178570D01*
X114928571Y-150392856D01*
X114928571Y-150535713D01*
X114928571Y-148464285D02*
X114928571Y-149321428D01*
X114928571Y-148892856D02*
X113428571Y-148892856D01*
X113642857Y-149035713D01*
X113785714Y-149178571D01*
X113857143Y-149321428D01*
X113428571Y-147178571D02*
X113428571Y-147464285D01*
X113500000Y-147607142D01*
X113571429Y-147678571D01*
X113785714Y-147821428D01*
X114071429Y-147892857D01*
X114642857Y-147892857D01*
X114785714Y-147821428D01*
X114857143Y-147750000D01*
X114928571Y-147607142D01*
X114928571Y-147321428D01*
X114857143Y-147178571D01*
X114785714Y-147107142D01*
X114642857Y-147035714D01*
X114285714Y-147035714D01*
X114142857Y-147107142D01*
X114071429Y-147178571D01*
X114000000Y-147321428D01*
X114000000Y-147607142D01*
X114071429Y-147750000D01*
X114142857Y-147821428D01*
X114285714Y-147892857D01*
X163428571Y-149964285D02*
X164500000Y-149964285D01*
X164714286Y-150035713D01*
X164857143Y-150178570D01*
X164928571Y-150392856D01*
X164928571Y-150535713D01*
X164928571Y-148464285D02*
X164928571Y-149321428D01*
X164928571Y-148892856D02*
X163428571Y-148892856D01*
X163642857Y-149035713D01*
X163785714Y-149178571D01*
X163857143Y-149321428D01*
X163428571Y-147964285D02*
X163428571Y-146964285D01*
X164928571Y-147607142D01*
X213428571Y-149964285D02*
X214500000Y-149964285D01*
X214714286Y-150035713D01*
X214857143Y-150178570D01*
X214928571Y-150392856D01*
X214928571Y-150535713D01*
X214928571Y-148464285D02*
X214928571Y-149321428D01*
X214928571Y-148892856D02*
X213428571Y-148892856D01*
X213642857Y-149035713D01*
X213785714Y-149178571D01*
X213857143Y-149321428D01*
X214071429Y-147607142D02*
X214000000Y-147750000D01*
X213928571Y-147821428D01*
X213785714Y-147892857D01*
X213714286Y-147892857D01*
X213571429Y-147821428D01*
X213500000Y-147750000D01*
X213428571Y-147607142D01*
X213428571Y-147321428D01*
X213500000Y-147178571D01*
X213571429Y-147107142D01*
X213714286Y-147035714D01*
X213785714Y-147035714D01*
X213928571Y-147107142D01*
X214000000Y-147178571D01*
X214071429Y-147321428D01*
X214071429Y-147607142D01*
X214142857Y-147750000D01*
X214214286Y-147821428D01*
X214357143Y-147892857D01*
X214642857Y-147892857D01*
X214785714Y-147821428D01*
X214857143Y-147750000D01*
X214928571Y-147607142D01*
X214928571Y-147321428D01*
X214857143Y-147178571D01*
X214785714Y-147107142D01*
X214642857Y-147035714D01*
X214357143Y-147035714D01*
X214214286Y-147107142D01*
X214142857Y-147178571D01*
X214071429Y-147321428D01*
X156666667Y-132154762D02*
X156809524Y-132202381D01*
X157047620Y-132202381D01*
X157142858Y-132154762D01*
X157190477Y-132107143D01*
X157238096Y-132011905D01*
X157238096Y-131916667D01*
X157190477Y-131821429D01*
X157142858Y-131773810D01*
X157047620Y-131726190D01*
X156857143Y-131678571D01*
X156761905Y-131630952D01*
X156714286Y-131583333D01*
X156666667Y-131488095D01*
X156666667Y-131392857D01*
X156714286Y-131297619D01*
X156761905Y-131250000D01*
X156857143Y-131202381D01*
X157095239Y-131202381D01*
X157238096Y-131250000D01*
X157571429Y-131202381D02*
X157809524Y-132202381D01*
X158000001Y-131488095D01*
X158190477Y-132202381D01*
X158428572Y-131202381D01*
X159333334Y-132202381D02*
X158761905Y-132202381D01*
X159047619Y-132202381D02*
X159047619Y-131202381D01*
X158952381Y-131345238D01*
X158857143Y-131440476D01*
X158761905Y-131488095D01*
X206666667Y-132154762D02*
X206809524Y-132202381D01*
X207047620Y-132202381D01*
X207142858Y-132154762D01*
X207190477Y-132107143D01*
X207238096Y-132011905D01*
X207238096Y-131916667D01*
X207190477Y-131821429D01*
X207142858Y-131773810D01*
X207047620Y-131726190D01*
X206857143Y-131678571D01*
X206761905Y-131630952D01*
X206714286Y-131583333D01*
X206666667Y-131488095D01*
X206666667Y-131392857D01*
X206714286Y-131297619D01*
X206761905Y-131250000D01*
X206857143Y-131202381D01*
X207095239Y-131202381D01*
X207238096Y-131250000D01*
X207571429Y-131202381D02*
X207809524Y-132202381D01*
X208000001Y-131488095D01*
X208190477Y-132202381D01*
X208428572Y-131202381D01*
X208761905Y-131297619D02*
X208809524Y-131250000D01*
X208904762Y-131202381D01*
X209142858Y-131202381D01*
X209238096Y-131250000D01*
X209285715Y-131297619D01*
X209333334Y-131392857D01*
X209333334Y-131488095D01*
X209285715Y-131630952D01*
X208714286Y-132202381D01*
X209333334Y-132202381D01*
X118916667Y-63654762D02*
X119059524Y-63702381D01*
X119297620Y-63702381D01*
X119392858Y-63654762D01*
X119440477Y-63607143D01*
X119488096Y-63511905D01*
X119488096Y-63416667D01*
X119440477Y-63321429D01*
X119392858Y-63273810D01*
X119297620Y-63226190D01*
X119107143Y-63178571D01*
X119011905Y-63130952D01*
X118964286Y-63083333D01*
X118916667Y-62988095D01*
X118916667Y-62892857D01*
X118964286Y-62797619D01*
X119011905Y-62750000D01*
X119107143Y-62702381D01*
X119345239Y-62702381D01*
X119488096Y-62750000D01*
X119821429Y-62702381D02*
X120059524Y-63702381D01*
X120250001Y-62988095D01*
X120440477Y-63702381D01*
X120678572Y-62702381D01*
X120964286Y-62702381D02*
X121583334Y-62702381D01*
X121250000Y-63083333D01*
X121392858Y-63083333D01*
X121488096Y-63130952D01*
X121535715Y-63178571D01*
X121583334Y-63273810D01*
X121583334Y-63511905D01*
X121535715Y-63607143D01*
X121488096Y-63654762D01*
X121392858Y-63702381D01*
X121107143Y-63702381D01*
X121011905Y-63654762D01*
X120964286Y-63607143D01*
D13*
X164554895Y-108525675D02*
X164554895Y-108061218D01*
X165367695Y-108293447D02*
X164554895Y-108293447D01*
X165367695Y-107790285D02*
X164554895Y-107790285D01*
X164554895Y-107480647D01*
X164593600Y-107403238D01*
X164632305Y-107364533D01*
X164709714Y-107325828D01*
X164825829Y-107325828D01*
X164903238Y-107364533D01*
X164941943Y-107403238D01*
X164980648Y-107480647D01*
X164980648Y-107790285D01*
X164554895Y-106590438D02*
X164554895Y-106977485D01*
X164941943Y-107016190D01*
X164903238Y-106977485D01*
X164864533Y-106900076D01*
X164864533Y-106706552D01*
X164903238Y-106629142D01*
X164941943Y-106590438D01*
X165019352Y-106551733D01*
X165212876Y-106551733D01*
X165290286Y-106590438D01*
X165328990Y-106629142D01*
X165367695Y-106706552D01*
X165367695Y-106900076D01*
X165328990Y-106977485D01*
X165290286Y-107016190D01*
D11*
X106666667Y-132154762D02*
X106809524Y-132202381D01*
X107047620Y-132202381D01*
X107142858Y-132154762D01*
X107190477Y-132107143D01*
X107238096Y-132011905D01*
X107238096Y-131916667D01*
X107190477Y-131821429D01*
X107142858Y-131773810D01*
X107047620Y-131726190D01*
X106857143Y-131678571D01*
X106761905Y-131630952D01*
X106714286Y-131583333D01*
X106666667Y-131488095D01*
X106666667Y-131392857D01*
X106714286Y-131297619D01*
X106761905Y-131250000D01*
X106857143Y-131202381D01*
X107095239Y-131202381D01*
X107238096Y-131250000D01*
X107571429Y-131202381D02*
X107809524Y-132202381D01*
X108000001Y-131488095D01*
X108190477Y-132202381D01*
X108428572Y-131202381D01*
X109238096Y-131535714D02*
X109238096Y-132202381D01*
X109000000Y-131154762D02*
X108761905Y-131869048D01*
X109380953Y-131869048D01*
X143535715Y-96678571D02*
X144035715Y-98178571D01*
X144535715Y-96678571D01*
X145892858Y-98178571D02*
X145392858Y-97464286D01*
X145035715Y-98178571D02*
X145035715Y-96678571D01*
X145607143Y-96678571D01*
X145750001Y-96750000D01*
X145821429Y-96821429D01*
X145892858Y-96964286D01*
X145892858Y-97178571D01*
X145821429Y-97321429D01*
X145750001Y-97392857D01*
X145607143Y-97464286D01*
X145035715Y-97464286D01*
X147321429Y-98178571D02*
X146464286Y-98178571D01*
X146892858Y-98178571D02*
X146892858Y-96678571D01*
X146750001Y-96892857D01*
X146607143Y-97035714D01*
X146464286Y-97107143D01*
X168535715Y-96678571D02*
X169035715Y-98178571D01*
X169535715Y-96678571D01*
X170892858Y-98178571D02*
X170392858Y-97464286D01*
X170035715Y-98178571D02*
X170035715Y-96678571D01*
X170607143Y-96678571D01*
X170750001Y-96750000D01*
X170821429Y-96821429D01*
X170892858Y-96964286D01*
X170892858Y-97178571D01*
X170821429Y-97321429D01*
X170750001Y-97392857D01*
X170607143Y-97464286D01*
X170035715Y-97464286D01*
X171464286Y-96821429D02*
X171535715Y-96750000D01*
X171678572Y-96678571D01*
X172035715Y-96678571D01*
X172178572Y-96750000D01*
X172250001Y-96821429D01*
X172321429Y-96964286D01*
X172321429Y-97107143D01*
X172250001Y-97321429D01*
X171392858Y-98178571D01*
X172321429Y-98178571D01*
X168535715Y-134678571D02*
X169035715Y-136178571D01*
X169535715Y-134678571D01*
X170892858Y-136178571D02*
X170392858Y-135464286D01*
X170035715Y-136178571D02*
X170035715Y-134678571D01*
X170607143Y-134678571D01*
X170750001Y-134750000D01*
X170821429Y-134821429D01*
X170892858Y-134964286D01*
X170892858Y-135178571D01*
X170821429Y-135321429D01*
X170750001Y-135392857D01*
X170607143Y-135464286D01*
X170035715Y-135464286D01*
X172178572Y-135178571D02*
X172178572Y-136178571D01*
X171821429Y-134607143D02*
X171464286Y-135678571D01*
X172392858Y-135678571D01*
X143535715Y-67678571D02*
X144035715Y-69178571D01*
X144535715Y-67678571D01*
X145892858Y-69178571D02*
X145392858Y-68464286D01*
X145035715Y-69178571D02*
X145035715Y-67678571D01*
X145607143Y-67678571D01*
X145750001Y-67750000D01*
X145821429Y-67821429D01*
X145892858Y-67964286D01*
X145892858Y-68178571D01*
X145821429Y-68321429D01*
X145750001Y-68392857D01*
X145607143Y-68464286D01*
X145035715Y-68464286D01*
X147250001Y-67678571D02*
X146535715Y-67678571D01*
X146464286Y-68392857D01*
X146535715Y-68321429D01*
X146678572Y-68250000D01*
X147035715Y-68250000D01*
X147178572Y-68321429D01*
X147250001Y-68392857D01*
X147321429Y-68535714D01*
X147321429Y-68892857D01*
X147250001Y-69035714D01*
X147178572Y-69107143D01*
X147035715Y-69178571D01*
X146678572Y-69178571D01*
X146535715Y-69107143D01*
X146464286Y-69035714D01*
X143535715Y-134678571D02*
X144035715Y-136178571D01*
X144535715Y-134678571D01*
X145892858Y-136178571D02*
X145392858Y-135464286D01*
X145035715Y-136178571D02*
X145035715Y-134678571D01*
X145607143Y-134678571D01*
X145750001Y-134750000D01*
X145821429Y-134821429D01*
X145892858Y-134964286D01*
X145892858Y-135178571D01*
X145821429Y-135321429D01*
X145750001Y-135392857D01*
X145607143Y-135464286D01*
X145035715Y-135464286D01*
X147178572Y-134678571D02*
X146892858Y-134678571D01*
X146750001Y-134750000D01*
X146678572Y-134821429D01*
X146535715Y-135035714D01*
X146464286Y-135321429D01*
X146464286Y-135892857D01*
X146535715Y-136035714D01*
X146607143Y-136107143D01*
X146750001Y-136178571D01*
X147035715Y-136178571D01*
X147178572Y-136107143D01*
X147250001Y-136035714D01*
X147321429Y-135892857D01*
X147321429Y-135535714D01*
X147250001Y-135392857D01*
X147178572Y-135321429D01*
X147035715Y-135250000D01*
X146750001Y-135250000D01*
X146607143Y-135321429D01*
X146535715Y-135392857D01*
X146464286Y-135535714D01*
X93535715Y-91928571D02*
X94035715Y-93428571D01*
X94535715Y-91928571D01*
X95892858Y-93428571D02*
X95392858Y-92714286D01*
X95035715Y-93428571D02*
X95035715Y-91928571D01*
X95607143Y-91928571D01*
X95750001Y-92000000D01*
X95821429Y-92071429D01*
X95892858Y-92214286D01*
X95892858Y-92428571D01*
X95821429Y-92571429D01*
X95750001Y-92642857D01*
X95607143Y-92714286D01*
X95035715Y-92714286D01*
X96750001Y-92571429D02*
X96607143Y-92500000D01*
X96535715Y-92428571D01*
X96464286Y-92285714D01*
X96464286Y-92214286D01*
X96535715Y-92071429D01*
X96607143Y-92000000D01*
X96750001Y-91928571D01*
X97035715Y-91928571D01*
X97178572Y-92000000D01*
X97250001Y-92071429D01*
X97321429Y-92214286D01*
X97321429Y-92285714D01*
X97250001Y-92428571D01*
X97178572Y-92500000D01*
X97035715Y-92571429D01*
X96750001Y-92571429D01*
X96607143Y-92642857D01*
X96535715Y-92714286D01*
X96464286Y-92857143D01*
X96464286Y-93142857D01*
X96535715Y-93285714D01*
X96607143Y-93357143D01*
X96750001Y-93428571D01*
X97035715Y-93428571D01*
X97178572Y-93357143D01*
X97250001Y-93285714D01*
X97321429Y-93142857D01*
X97321429Y-92857143D01*
X97250001Y-92714286D01*
X97178572Y-92642857D01*
X97035715Y-92571429D01*
X93535715Y-134678571D02*
X94035715Y-136178571D01*
X94535715Y-134678571D01*
X95892858Y-136178571D02*
X95392858Y-135464286D01*
X95035715Y-136178571D02*
X95035715Y-134678571D01*
X95607143Y-134678571D01*
X95750001Y-134750000D01*
X95821429Y-134821429D01*
X95892858Y-134964286D01*
X95892858Y-135178571D01*
X95821429Y-135321429D01*
X95750001Y-135392857D01*
X95607143Y-135464286D01*
X95035715Y-135464286D01*
X96607143Y-136178571D02*
X96892858Y-136178571D01*
X97035715Y-136107143D01*
X97107143Y-136035714D01*
X97250001Y-135821429D01*
X97321429Y-135535714D01*
X97321429Y-134964286D01*
X97250001Y-134821429D01*
X97178572Y-134750000D01*
X97035715Y-134678571D01*
X96750001Y-134678571D01*
X96607143Y-134750000D01*
X96535715Y-134821429D01*
X96464286Y-134964286D01*
X96464286Y-135321429D01*
X96535715Y-135464286D01*
X96607143Y-135535714D01*
X96750001Y-135607143D01*
X97035715Y-135607143D01*
X97178572Y-135535714D01*
X97250001Y-135464286D01*
X97321429Y-135321429D01*
X117821429Y-134678571D02*
X118321429Y-136178571D01*
X118821429Y-134678571D01*
X120178572Y-136178571D02*
X119678572Y-135464286D01*
X119321429Y-136178571D02*
X119321429Y-134678571D01*
X119892857Y-134678571D01*
X120035715Y-134750000D01*
X120107143Y-134821429D01*
X120178572Y-134964286D01*
X120178572Y-135178571D01*
X120107143Y-135321429D01*
X120035715Y-135392857D01*
X119892857Y-135464286D01*
X119321429Y-135464286D01*
X121607143Y-136178571D02*
X120750000Y-136178571D01*
X121178572Y-136178571D02*
X121178572Y-134678571D01*
X121035715Y-134892857D01*
X120892857Y-135035714D01*
X120750000Y-135107143D01*
X122535714Y-134678571D02*
X122678571Y-134678571D01*
X122821428Y-134750000D01*
X122892857Y-134821429D01*
X122964286Y-134964286D01*
X123035714Y-135250000D01*
X123035714Y-135607143D01*
X122964286Y-135892857D01*
X122892857Y-136035714D01*
X122821428Y-136107143D01*
X122678571Y-136178571D01*
X122535714Y-136178571D01*
X122392857Y-136107143D01*
X122321428Y-136035714D01*
X122250000Y-135892857D01*
X122178571Y-135607143D01*
X122178571Y-135250000D01*
X122250000Y-134964286D01*
X122321428Y-134821429D01*
X122392857Y-134750000D01*
X122535714Y-134678571D01*
X117821429Y-96678571D02*
X118321429Y-98178571D01*
X118821429Y-96678571D01*
X120178572Y-98178571D02*
X119678572Y-97464286D01*
X119321429Y-98178571D02*
X119321429Y-96678571D01*
X119892857Y-96678571D01*
X120035715Y-96750000D01*
X120107143Y-96821429D01*
X120178572Y-96964286D01*
X120178572Y-97178571D01*
X120107143Y-97321429D01*
X120035715Y-97392857D01*
X119892857Y-97464286D01*
X119321429Y-97464286D01*
X121607143Y-98178571D02*
X120750000Y-98178571D01*
X121178572Y-98178571D02*
X121178572Y-96678571D01*
X121035715Y-96892857D01*
X120892857Y-97035714D01*
X120750000Y-97107143D01*
X122964286Y-96678571D02*
X122250000Y-96678571D01*
X122178571Y-97392857D01*
X122250000Y-97321429D01*
X122392857Y-97250000D01*
X122750000Y-97250000D01*
X122892857Y-97321429D01*
X122964286Y-97392857D01*
X123035714Y-97535714D01*
X123035714Y-97892857D01*
X122964286Y-98035714D01*
X122892857Y-98107143D01*
X122750000Y-98178571D01*
X122392857Y-98178571D01*
X122250000Y-98107143D01*
X122178571Y-98035714D01*
X192821429Y-67678571D02*
X193321429Y-69178571D01*
X193821429Y-67678571D01*
X195178572Y-69178571D02*
X194678572Y-68464286D01*
X194321429Y-69178571D02*
X194321429Y-67678571D01*
X194892857Y-67678571D01*
X195035715Y-67750000D01*
X195107143Y-67821429D01*
X195178572Y-67964286D01*
X195178572Y-68178571D01*
X195107143Y-68321429D01*
X195035715Y-68392857D01*
X194892857Y-68464286D01*
X194321429Y-68464286D01*
X196607143Y-69178571D02*
X195750000Y-69178571D01*
X196178572Y-69178571D02*
X196178572Y-67678571D01*
X196035715Y-67892857D01*
X195892857Y-68035714D01*
X195750000Y-68107143D01*
X197107143Y-67678571D02*
X198107143Y-67678571D01*
X197464286Y-69178571D01*
X192821429Y-134678571D02*
X193321429Y-136178571D01*
X193821429Y-134678571D01*
X195178572Y-136178571D02*
X194678572Y-135464286D01*
X194321429Y-136178571D02*
X194321429Y-134678571D01*
X194892857Y-134678571D01*
X195035715Y-134750000D01*
X195107143Y-134821429D01*
X195178572Y-134964286D01*
X195178572Y-135178571D01*
X195107143Y-135321429D01*
X195035715Y-135392857D01*
X194892857Y-135464286D01*
X194321429Y-135464286D01*
X196607143Y-136178571D02*
X195750000Y-136178571D01*
X196178572Y-136178571D02*
X196178572Y-134678571D01*
X196035715Y-134892857D01*
X195892857Y-135035714D01*
X195750000Y-135107143D01*
X197464286Y-135321429D02*
X197321428Y-135250000D01*
X197250000Y-135178571D01*
X197178571Y-135035714D01*
X197178571Y-134964286D01*
X197250000Y-134821429D01*
X197321428Y-134750000D01*
X197464286Y-134678571D01*
X197750000Y-134678571D01*
X197892857Y-134750000D01*
X197964286Y-134821429D01*
X198035714Y-134964286D01*
X198035714Y-135035714D01*
X197964286Y-135178571D01*
X197892857Y-135250000D01*
X197750000Y-135321429D01*
X197464286Y-135321429D01*
X197321428Y-135392857D01*
X197250000Y-135464286D01*
X197178571Y-135607143D01*
X197178571Y-135892857D01*
X197250000Y-136035714D01*
X197321428Y-136107143D01*
X197464286Y-136178571D01*
X197750000Y-136178571D01*
X197892857Y-136107143D01*
X197964286Y-136035714D01*
X198035714Y-135892857D01*
X198035714Y-135607143D01*
X197964286Y-135464286D01*
X197892857Y-135392857D01*
X197750000Y-135321429D01*
X217821429Y-134678571D02*
X218321429Y-136178571D01*
X218821429Y-134678571D01*
X220178572Y-136178571D02*
X219678572Y-135464286D01*
X219321429Y-136178571D02*
X219321429Y-134678571D01*
X219892857Y-134678571D01*
X220035715Y-134750000D01*
X220107143Y-134821429D01*
X220178572Y-134964286D01*
X220178572Y-135178571D01*
X220107143Y-135321429D01*
X220035715Y-135392857D01*
X219892857Y-135464286D01*
X219321429Y-135464286D01*
X221607143Y-136178571D02*
X220750000Y-136178571D01*
X221178572Y-136178571D02*
X221178572Y-134678571D01*
X221035715Y-134892857D01*
X220892857Y-135035714D01*
X220750000Y-135107143D01*
X222321428Y-136178571D02*
X222607143Y-136178571D01*
X222750000Y-136107143D01*
X222821428Y-136035714D01*
X222964286Y-135821429D01*
X223035714Y-135535714D01*
X223035714Y-134964286D01*
X222964286Y-134821429D01*
X222892857Y-134750000D01*
X222750000Y-134678571D01*
X222464286Y-134678571D01*
X222321428Y-134750000D01*
X222250000Y-134821429D01*
X222178571Y-134964286D01*
X222178571Y-135321429D01*
X222250000Y-135464286D01*
X222321428Y-135535714D01*
X222464286Y-135607143D01*
X222750000Y-135607143D01*
X222892857Y-135535714D01*
X222964286Y-135464286D01*
X223035714Y-135321429D01*
X192821429Y-96678571D02*
X193321429Y-98178571D01*
X193821429Y-96678571D01*
X195178572Y-98178571D02*
X194678572Y-97464286D01*
X194321429Y-98178571D02*
X194321429Y-96678571D01*
X194892857Y-96678571D01*
X195035715Y-96750000D01*
X195107143Y-96821429D01*
X195178572Y-96964286D01*
X195178572Y-97178571D01*
X195107143Y-97321429D01*
X195035715Y-97392857D01*
X194892857Y-97464286D01*
X194321429Y-97464286D01*
X195750000Y-96821429D02*
X195821429Y-96750000D01*
X195964286Y-96678571D01*
X196321429Y-96678571D01*
X196464286Y-96750000D01*
X196535715Y-96821429D01*
X196607143Y-96964286D01*
X196607143Y-97107143D01*
X196535715Y-97321429D01*
X195678572Y-98178571D01*
X196607143Y-98178571D01*
X197535714Y-96678571D02*
X197678571Y-96678571D01*
X197821428Y-96750000D01*
X197892857Y-96821429D01*
X197964286Y-96964286D01*
X198035714Y-97250000D01*
X198035714Y-97607143D01*
X197964286Y-97892857D01*
X197892857Y-98035714D01*
X197821428Y-98107143D01*
X197678571Y-98178571D01*
X197535714Y-98178571D01*
X197392857Y-98107143D01*
X197321428Y-98035714D01*
X197250000Y-97892857D01*
X197178571Y-97607143D01*
X197178571Y-97250000D01*
X197250000Y-96964286D01*
X197321428Y-96821429D01*
X197392857Y-96750000D01*
X197535714Y-96678571D01*
X217821429Y-67678571D02*
X218321429Y-69178571D01*
X218821429Y-67678571D01*
X220178572Y-69178571D02*
X219678572Y-68464286D01*
X219321429Y-69178571D02*
X219321429Y-67678571D01*
X219892857Y-67678571D01*
X220035715Y-67750000D01*
X220107143Y-67821429D01*
X220178572Y-67964286D01*
X220178572Y-68178571D01*
X220107143Y-68321429D01*
X220035715Y-68392857D01*
X219892857Y-68464286D01*
X219321429Y-68464286D01*
X220750000Y-67821429D02*
X220821429Y-67750000D01*
X220964286Y-67678571D01*
X221321429Y-67678571D01*
X221464286Y-67750000D01*
X221535715Y-67821429D01*
X221607143Y-67964286D01*
X221607143Y-68107143D01*
X221535715Y-68321429D01*
X220678572Y-69178571D01*
X221607143Y-69178571D01*
X223035714Y-69178571D02*
X222178571Y-69178571D01*
X222607143Y-69178571D02*
X222607143Y-67678571D01*
X222464286Y-67892857D01*
X222321428Y-68035714D01*
X222178571Y-68107143D01*
X217821429Y-96678571D02*
X218321429Y-98178571D01*
X218821429Y-96678571D01*
X220178572Y-98178571D02*
X219678572Y-97464286D01*
X219321429Y-98178571D02*
X219321429Y-96678571D01*
X219892857Y-96678571D01*
X220035715Y-96750000D01*
X220107143Y-96821429D01*
X220178572Y-96964286D01*
X220178572Y-97178571D01*
X220107143Y-97321429D01*
X220035715Y-97392857D01*
X219892857Y-97464286D01*
X219321429Y-97464286D01*
X220750000Y-96821429D02*
X220821429Y-96750000D01*
X220964286Y-96678571D01*
X221321429Y-96678571D01*
X221464286Y-96750000D01*
X221535715Y-96821429D01*
X221607143Y-96964286D01*
X221607143Y-97107143D01*
X221535715Y-97321429D01*
X220678572Y-98178571D01*
X221607143Y-98178571D01*
X222178571Y-96821429D02*
X222250000Y-96750000D01*
X222392857Y-96678571D01*
X222750000Y-96678571D01*
X222892857Y-96750000D01*
X222964286Y-96821429D01*
X223035714Y-96964286D01*
X223035714Y-97107143D01*
X222964286Y-97321429D01*
X222107143Y-98178571D01*
X223035714Y-98178571D01*
X167821429Y-67678571D02*
X168321429Y-69178571D01*
X168821429Y-67678571D01*
X170178572Y-69178571D02*
X169678572Y-68464286D01*
X169321429Y-69178571D02*
X169321429Y-67678571D01*
X169892857Y-67678571D01*
X170035715Y-67750000D01*
X170107143Y-67821429D01*
X170178572Y-67964286D01*
X170178572Y-68178571D01*
X170107143Y-68321429D01*
X170035715Y-68392857D01*
X169892857Y-68464286D01*
X169321429Y-68464286D01*
X170750000Y-67821429D02*
X170821429Y-67750000D01*
X170964286Y-67678571D01*
X171321429Y-67678571D01*
X171464286Y-67750000D01*
X171535715Y-67821429D01*
X171607143Y-67964286D01*
X171607143Y-68107143D01*
X171535715Y-68321429D01*
X170678572Y-69178571D01*
X171607143Y-69178571D01*
X172892857Y-67678571D02*
X172607143Y-67678571D01*
X172464286Y-67750000D01*
X172392857Y-67821429D01*
X172250000Y-68035714D01*
X172178571Y-68321429D01*
X172178571Y-68892857D01*
X172250000Y-69035714D01*
X172321428Y-69107143D01*
X172464286Y-69178571D01*
X172750000Y-69178571D01*
X172892857Y-69107143D01*
X172964286Y-69035714D01*
X173035714Y-68892857D01*
X173035714Y-68535714D01*
X172964286Y-68392857D01*
X172892857Y-68321429D01*
X172750000Y-68250000D01*
X172464286Y-68250000D01*
X172321428Y-68321429D01*
X172250000Y-68392857D01*
X172178571Y-68535714D01*
X207013029Y-56617695D02*
X207013029Y-55804895D01*
X207206553Y-55804895D01*
X207322667Y-55843600D01*
X207400076Y-55921010D01*
X207438781Y-55998419D01*
X207477486Y-56153238D01*
X207477486Y-56269352D01*
X207438781Y-56424171D01*
X207400076Y-56501581D01*
X207322667Y-56578990D01*
X207206553Y-56617695D01*
X207013029Y-56617695D01*
X208251581Y-56617695D02*
X207787124Y-56617695D01*
X208019353Y-56617695D02*
X208019353Y-55804895D01*
X207941943Y-55921010D01*
X207864534Y-55998419D01*
X207787124Y-56037124D01*
X208986971Y-55804895D02*
X208599924Y-55804895D01*
X208561219Y-56191943D01*
X208599924Y-56153238D01*
X208677333Y-56114533D01*
X208870857Y-56114533D01*
X208948267Y-56153238D01*
X208986971Y-56191943D01*
X209025676Y-56269352D01*
X209025676Y-56462876D01*
X208986971Y-56540286D01*
X208948267Y-56578990D01*
X208870857Y-56617695D01*
X208677333Y-56617695D01*
X208599924Y-56578990D01*
X208561219Y-56540286D01*
X206913029Y-50167695D02*
X206913029Y-49354895D01*
X207106553Y-49354895D01*
X207222667Y-49393600D01*
X207300076Y-49471010D01*
X207338781Y-49548419D01*
X207377486Y-49703238D01*
X207377486Y-49819352D01*
X207338781Y-49974171D01*
X207300076Y-50051581D01*
X207222667Y-50128990D01*
X207106553Y-50167695D01*
X206913029Y-50167695D01*
X208151581Y-50167695D02*
X207687124Y-50167695D01*
X207919353Y-50167695D02*
X207919353Y-49354895D01*
X207841943Y-49471010D01*
X207764534Y-49548419D01*
X207687124Y-49587124D01*
X208538629Y-50167695D02*
X208693448Y-50167695D01*
X208770857Y-50128990D01*
X208809562Y-50090286D01*
X208886971Y-49974171D01*
X208925676Y-49819352D01*
X208925676Y-49509714D01*
X208886971Y-49432305D01*
X208848267Y-49393600D01*
X208770857Y-49354895D01*
X208616038Y-49354895D01*
X208538629Y-49393600D01*
X208499924Y-49432305D01*
X208461219Y-49509714D01*
X208461219Y-49703238D01*
X208499924Y-49780648D01*
X208538629Y-49819352D01*
X208616038Y-49858057D01*
X208770857Y-49858057D01*
X208848267Y-49819352D01*
X208886971Y-49780648D01*
X208925676Y-49703238D01*
X146321429Y-100078571D02*
X146821429Y-101578571D01*
X147321429Y-100078571D01*
X148678572Y-101578571D02*
X148178572Y-100864286D01*
X147821429Y-101578571D02*
X147821429Y-100078571D01*
X148392857Y-100078571D01*
X148535715Y-100150000D01*
X148607143Y-100221429D01*
X148678572Y-100364286D01*
X148678572Y-100578571D01*
X148607143Y-100721429D01*
X148535715Y-100792857D01*
X148392857Y-100864286D01*
X147821429Y-100864286D01*
X150107143Y-101578571D02*
X149250000Y-101578571D01*
X149678572Y-101578571D02*
X149678572Y-100078571D01*
X149535715Y-100292857D01*
X149392857Y-100435714D01*
X149250000Y-100507143D01*
X150678571Y-100221429D02*
X150750000Y-100150000D01*
X150892857Y-100078571D01*
X151250000Y-100078571D01*
X151392857Y-100150000D01*
X151464286Y-100221429D01*
X151535714Y-100364286D01*
X151535714Y-100507143D01*
X151464286Y-100721429D01*
X150607143Y-101578571D01*
X151535714Y-101578571D01*
X85148571Y-101378571D02*
X86648571Y-100878571D01*
X85148571Y-100378571D01*
X86648571Y-99021428D02*
X85934286Y-99521428D01*
X86648571Y-99878571D02*
X85148571Y-99878571D01*
X85148571Y-99307143D01*
X85220000Y-99164285D01*
X85291429Y-99092857D01*
X85434286Y-99021428D01*
X85648571Y-99021428D01*
X85791429Y-99092857D01*
X85862857Y-99164285D01*
X85934286Y-99307143D01*
X85934286Y-99878571D01*
X86648571Y-97592857D02*
X86648571Y-98450000D01*
X86648571Y-98021428D02*
X85148571Y-98021428D01*
X85362857Y-98164285D01*
X85505714Y-98307143D01*
X85577143Y-98450000D01*
X85148571Y-97092857D02*
X85148571Y-96164286D01*
X85720000Y-96664286D01*
X85720000Y-96450000D01*
X85791429Y-96307143D01*
X85862857Y-96235714D01*
X86005714Y-96164286D01*
X86362857Y-96164286D01*
X86505714Y-96235714D01*
X86577143Y-96307143D01*
X86648571Y-96450000D01*
X86648571Y-96878572D01*
X86577143Y-97021429D01*
X86505714Y-97092857D01*
%LPC*%
D14*
X103300000Y-107500000D03*
D15*
X112700000Y-107500000D03*
D16*
X108000000Y-102600000D03*
X108000000Y-110800000D03*
D17*
X113000000Y-53770000D03*
D18*
X113000000Y-51230000D03*
D17*
X118000000Y-53770000D03*
D18*
X118000000Y-51230000D03*
D17*
X123000000Y-53770000D03*
D18*
X123000000Y-51230000D03*
D17*
X128000000Y-53770000D03*
D18*
X128000000Y-51230000D03*
D14*
X135800000Y-107500000D03*
D15*
X145200000Y-107500000D03*
D16*
X140500000Y-102600000D03*
X140500000Y-110800000D03*
D14*
X170800000Y-107500000D03*
D15*
X180200000Y-107500000D03*
D16*
X175500000Y-102600000D03*
X175500000Y-110800000D03*
D14*
X170800000Y-145500000D03*
D15*
X180200000Y-145500000D03*
D16*
X175500000Y-140600000D03*
X175500000Y-148800000D03*
D14*
X135800000Y-145500000D03*
D15*
X145200000Y-145500000D03*
D16*
X140500000Y-140600000D03*
X140500000Y-148800000D03*
D14*
X85800000Y-145500000D03*
D15*
X95200000Y-145500000D03*
D16*
X90500000Y-140600000D03*
X90500000Y-148800000D03*
D14*
X120800000Y-145500000D03*
D15*
X130200000Y-145500000D03*
D16*
X125500000Y-140600000D03*
X125500000Y-148800000D03*
D14*
X85800000Y-107500000D03*
D15*
X95200000Y-107500000D03*
D16*
X90500000Y-102600000D03*
X90500000Y-110800000D03*
D14*
X120800000Y-107500000D03*
D15*
X130200000Y-107500000D03*
D16*
X125500000Y-102600000D03*
X125500000Y-110800000D03*
D14*
X185800000Y-145500000D03*
D15*
X195200000Y-145500000D03*
D16*
X190500000Y-140600000D03*
X190500000Y-148800000D03*
D14*
X220800000Y-145500000D03*
D15*
X230200000Y-145500000D03*
D16*
X225500000Y-140600000D03*
X225500000Y-148800000D03*
D14*
X185800000Y-107500000D03*
D15*
X195200000Y-107500000D03*
D16*
X190500000Y-102600000D03*
X190500000Y-110800000D03*
D14*
X203300000Y-107500000D03*
D15*
X212700000Y-107500000D03*
D16*
X208000000Y-102600000D03*
X208000000Y-110800000D03*
D14*
X220800000Y-107500000D03*
D15*
X230200000Y-107500000D03*
D16*
X225500000Y-102600000D03*
X225500000Y-110800000D03*
D14*
X153300000Y-107500000D03*
D15*
X162700000Y-107500000D03*
D16*
X158000000Y-102600000D03*
X158000000Y-110800000D03*
D14*
X103300000Y-145500000D03*
D15*
X112700000Y-145500000D03*
D16*
X108000000Y-140600000D03*
X108000000Y-148800000D03*
D14*
X153300000Y-145500000D03*
D15*
X162700000Y-145500000D03*
D16*
X158000000Y-140600000D03*
X158000000Y-148800000D03*
D14*
X203300000Y-145500000D03*
D15*
X212700000Y-145500000D03*
D16*
X208000000Y-140600000D03*
X208000000Y-148800000D03*
D19*
X226500000Y-81750000D03*
D20*
X229040000Y-81750000D03*
X226500000Y-79210000D03*
X229040000Y-79210000D03*
X226500000Y-76670000D03*
X229040000Y-76670000D03*
X226500000Y-74130000D03*
X229040000Y-74130000D03*
X226500000Y-71590000D03*
X229040000Y-71590000D03*
D21*
X155000000Y-135500000D03*
X158000000Y-135500000D03*
X161000000Y-135500000D03*
D22*
X151500000Y-135500000D03*
X164500000Y-135500000D03*
D21*
X205000000Y-135500000D03*
X208000000Y-135500000D03*
X211000000Y-135500000D03*
D22*
X201500000Y-135500000D03*
X214500000Y-135500000D03*
D23*
X117250000Y-56750000D03*
X117250000Y-61250000D03*
D24*
X123750000Y-56750000D03*
X123750000Y-61250000D03*
D25*
X166500000Y-107500000D03*
D21*
X111000000Y-135500000D03*
X108000000Y-135500000D03*
X105000000Y-135500000D03*
D22*
X114500000Y-135500000D03*
X101500000Y-135500000D03*
D19*
X110500000Y-115750000D03*
D20*
X110500000Y-118290000D03*
X110500000Y-120830000D03*
D19*
X104000000Y-78250000D03*
D20*
X101460000Y-78250000D03*
X98920000Y-78250000D03*
X96380000Y-78250000D03*
X93840000Y-78250000D03*
X91300000Y-78250000D03*
X88760000Y-78250000D03*
X86220000Y-78250000D03*
D26*
X152750000Y-128750000D03*
X107700000Y-97050000D03*
X203750000Y-86750000D03*
X165500000Y-140000000D03*
D27*
X150300000Y-88000000D03*
X140700000Y-88000000D03*
D28*
X148000000Y-95500000D03*
X145500000Y-95500000D03*
X143000000Y-95500000D03*
D27*
X175300000Y-88000000D03*
X165700000Y-88000000D03*
D28*
X173000000Y-95500000D03*
X170500000Y-95500000D03*
X168000000Y-95500000D03*
D27*
X175300000Y-126000000D03*
X165700000Y-126000000D03*
D28*
X173000000Y-133500000D03*
X170500000Y-133500000D03*
X168000000Y-133500000D03*
D27*
X150300000Y-59000000D03*
X140700000Y-59000000D03*
D28*
X148000000Y-66500000D03*
X145500000Y-66500000D03*
X143000000Y-66500000D03*
D27*
X150300000Y-126000000D03*
X140700000Y-126000000D03*
D28*
X148000000Y-133500000D03*
X145500000Y-133500000D03*
X143000000Y-133500000D03*
D27*
X100300000Y-88000000D03*
X90700000Y-88000000D03*
D28*
X98000000Y-95500000D03*
X95500000Y-95500000D03*
X93000000Y-95500000D03*
D27*
X100300000Y-126000000D03*
X90700000Y-126000000D03*
D28*
X98000000Y-133500000D03*
X95500000Y-133500000D03*
X93000000Y-133500000D03*
D27*
X125300000Y-126000000D03*
X115700000Y-126000000D03*
D28*
X123000000Y-133500000D03*
X120500000Y-133500000D03*
X118000000Y-133500000D03*
D27*
X125300000Y-88000000D03*
X115700000Y-88000000D03*
D28*
X123000000Y-95500000D03*
X120500000Y-95500000D03*
X118000000Y-95500000D03*
D27*
X200300000Y-59000000D03*
X190700000Y-59000000D03*
D28*
X198000000Y-66500000D03*
X195500000Y-66500000D03*
X193000000Y-66500000D03*
D27*
X200300000Y-126000000D03*
X190700000Y-126000000D03*
D28*
X198000000Y-133500000D03*
X195500000Y-133500000D03*
X193000000Y-133500000D03*
D27*
X225300000Y-126000000D03*
X215700000Y-126000000D03*
D28*
X223000000Y-133500000D03*
X220500000Y-133500000D03*
X218000000Y-133500000D03*
D27*
X200300000Y-88000000D03*
X190700000Y-88000000D03*
D28*
X198000000Y-95500000D03*
X195500000Y-95500000D03*
X193000000Y-95500000D03*
D27*
X225300000Y-59000000D03*
X215700000Y-59000000D03*
D28*
X223000000Y-66500000D03*
X220500000Y-66500000D03*
X218000000Y-66500000D03*
D27*
X225300000Y-88000000D03*
X215700000Y-88000000D03*
D28*
X223000000Y-95500000D03*
X220500000Y-95500000D03*
X218000000Y-95500000D03*
D27*
X175300000Y-59000000D03*
X165700000Y-59000000D03*
D28*
X173000000Y-66500000D03*
X170500000Y-66500000D03*
X168000000Y-66500000D03*
D17*
X208000000Y-57730000D03*
D18*
X208000000Y-60270000D03*
D26*
X126200000Y-95700000D03*
X113600000Y-67400000D03*
X130900000Y-88300000D03*
D25*
X166500000Y-102700000D03*
D26*
X87500000Y-96600000D03*
D17*
X208000000Y-53770000D03*
D18*
X208000000Y-51230000D03*
D19*
X186250000Y-59000000D03*
D20*
X183710000Y-59000000D03*
X181170000Y-59000000D03*
D19*
X180500000Y-134750000D03*
D20*
X180500000Y-137290000D03*
X183040000Y-134750000D03*
X183040000Y-137290000D03*
X185580000Y-134750000D03*
X185580000Y-137290000D03*
D29*
X99250000Y-106500000D03*
X99250000Y-109040000D03*
X99250000Y-103960000D03*
X149000000Y-107250000D03*
X149000000Y-104710000D03*
X149000000Y-109790000D03*
X92320000Y-98700000D03*
X89780000Y-98700000D03*
X94860000Y-98700000D03*
M02*
