G04 #@! TF.FileFunction,Soldermask,Bot*
%FSLAX46Y46*%
G04 Gerber Fmt 4.6, Leading zero omitted, Abs format (unit mm)*
G04 Created by KiCad (PCBNEW 4.0.2-stable) date 2018-05-24 9:25:08 AM*
%MOMM*%
G01*
G04 APERTURE LIST*
%ADD10C,0.200000*%
%ADD11R,0.550000X1.600000*%
%ADD12R,0.650000X0.900000*%
%ADD13R,2.497760X2.497760*%
%ADD14O,2.600000X4.100000*%
%ADD15O,2.100000X2.600000*%
%ADD16O,3.600000X1.600000*%
%ADD17R,1.400480X0.500000*%
%ADD18R,0.912800X1.243000*%
%ADD19R,1.700200X3.099740*%
%ADD20R,1.243000X0.912800*%
%ADD21R,3.099740X1.700200*%
%ADD22R,2.700960X1.700200*%
%ADD23R,0.801040X1.100760*%
%ADD24R,0.862000X0.709600*%
%ADD25R,1.100760X0.801040*%
%ADD26R,0.709600X0.862000*%
%ADD27R,1.300000X1.300000*%
%ADD28C,1.300000*%
%ADD29R,1.350000X1.100000*%
%ADD30R,1.800000X1.800000*%
%ADD31O,1.800000X1.800000*%
%ADD32R,1.243000X1.497000*%
%ADD33C,1.624000*%
%ADD34R,1.600000X2.100000*%
%ADD35O,2.300000X1.500000*%
%ADD36O,2.350000X1.500000*%
%ADD37R,1.700000X2.900000*%
%ADD38R,0.550000X1.550000*%
%ADD39R,0.699440X2.299640*%
%ADD40R,2.299640X0.699440*%
%ADD41R,1.700000X1.600000*%
%ADD42R,1.600000X1.700000*%
%ADD43R,0.700000X0.600000*%
%ADD44R,0.900000X0.650000*%
%ADD45C,1.900000*%
%ADD46O,2.900000X3.600000*%
%ADD47C,1.850000*%
%ADD48R,0.600000X0.700000*%
%ADD49R,1.550000X0.550000*%
%ADD50C,1.370000*%
G04 APERTURE END LIST*
D10*
D11*
X118225000Y-64550000D03*
X118875000Y-64550000D03*
X119525000Y-64550000D03*
X120175000Y-64550000D03*
X120825000Y-64550000D03*
X121475000Y-64550000D03*
X122125000Y-64550000D03*
X122775000Y-64550000D03*
X122775000Y-70450000D03*
X122125000Y-70450000D03*
X121475000Y-70450000D03*
X120825000Y-70450000D03*
X120175000Y-70450000D03*
X119525000Y-70450000D03*
X118875000Y-70450000D03*
X118225000Y-70450000D03*
D12*
X164750000Y-122700000D03*
X165700000Y-122700000D03*
X163800000Y-122700000D03*
X165700000Y-120300000D03*
X163800000Y-120300000D03*
D13*
X212250000Y-83449640D03*
X212250000Y-79050360D03*
D14*
X103300000Y-107500000D03*
D15*
X112700000Y-107500000D03*
D16*
X108000000Y-102600000D03*
X108000000Y-110800000D03*
D17*
X91806000Y-84955400D03*
X91806000Y-84320400D03*
X91806000Y-83660000D03*
X91806000Y-83025000D03*
X97394000Y-83025000D03*
X97394000Y-83672700D03*
X97394000Y-84320400D03*
X97394000Y-84968100D03*
X118306000Y-84455400D03*
X118306000Y-83820400D03*
X118306000Y-83160000D03*
X118306000Y-82525000D03*
X123894000Y-82525000D03*
X123894000Y-83172700D03*
X123894000Y-83820400D03*
X123894000Y-84468100D03*
X104556000Y-94455400D03*
X104556000Y-93820400D03*
X104556000Y-93160000D03*
X104556000Y-92525000D03*
X110144000Y-92525000D03*
X110144000Y-93172700D03*
X110144000Y-93820400D03*
X110144000Y-94468100D03*
D18*
X113399100Y-114750000D03*
X115100900Y-114750000D03*
D19*
X135250000Y-82550360D03*
X135250000Y-86949640D03*
D20*
X138000000Y-79100900D03*
X138000000Y-77399100D03*
X139750000Y-74399100D03*
X139750000Y-76100900D03*
D18*
X142100900Y-118250000D03*
X140399100Y-118250000D03*
D20*
X148750000Y-70600900D03*
X148750000Y-68899100D03*
D18*
X89600900Y-91000000D03*
X87899100Y-91000000D03*
X155600900Y-119000000D03*
X153899100Y-119000000D03*
D20*
X99750000Y-83149100D03*
X99750000Y-84850900D03*
X149250000Y-82649100D03*
X149250000Y-84350900D03*
X103750000Y-99350900D03*
X103750000Y-97649100D03*
X113250000Y-92850900D03*
X113250000Y-91149100D03*
X164750000Y-70600900D03*
X164750000Y-68899100D03*
X115250000Y-96899100D03*
X115250000Y-98600900D03*
D21*
X187050360Y-70000000D03*
X191449640Y-70000000D03*
D18*
X206850900Y-123500000D03*
X205149100Y-123500000D03*
X112899100Y-78250000D03*
X114600900Y-78250000D03*
D20*
X126000000Y-82399100D03*
X126000000Y-84100900D03*
X165250000Y-82399100D03*
X165250000Y-84100900D03*
D22*
X175550860Y-83000000D03*
X171949140Y-83000000D03*
D20*
X202000000Y-82899100D03*
X202000000Y-84600900D03*
D21*
X162699640Y-130500000D03*
X158300360Y-130500000D03*
D20*
X160250000Y-122350900D03*
X160250000Y-120649100D03*
D18*
X227350900Y-50000000D03*
X225649100Y-50000000D03*
X212149100Y-121750000D03*
X213850900Y-121750000D03*
X202649100Y-115750000D03*
X204350900Y-115750000D03*
X217600900Y-49750000D03*
X215899100Y-49750000D03*
X227850900Y-55750000D03*
X226149100Y-55750000D03*
X175600900Y-78250000D03*
X173899100Y-78250000D03*
D20*
X186400000Y-83150900D03*
X186400000Y-81449100D03*
X134250000Y-60600900D03*
X134250000Y-58899100D03*
X154250000Y-80100900D03*
X154250000Y-78399100D03*
X155300000Y-67600900D03*
X155300000Y-65899100D03*
D18*
X136100900Y-64500000D03*
X134399100Y-64500000D03*
D20*
X95250000Y-87149100D03*
X95250000Y-88850900D03*
D18*
X88850900Y-81250000D03*
X87149100Y-81250000D03*
D20*
X115750000Y-94350900D03*
X115750000Y-92649100D03*
X104250000Y-89649100D03*
X104250000Y-91350900D03*
D18*
X127899100Y-86000000D03*
X129600900Y-86000000D03*
D20*
X130500000Y-76149100D03*
X130500000Y-77850900D03*
X134500000Y-69149100D03*
X134500000Y-70850900D03*
D18*
X120850900Y-75500000D03*
X119149100Y-75500000D03*
D19*
X218250000Y-70050360D03*
X218250000Y-74449640D03*
X218250000Y-78800360D03*
X218250000Y-83199640D03*
D23*
X137100000Y-97770000D03*
X138052500Y-95230000D03*
X136147500Y-95230000D03*
X125000000Y-70270000D03*
X125952500Y-67730000D03*
X124047500Y-67730000D03*
D24*
X116750000Y-120994600D03*
X116750000Y-118505400D03*
D25*
X93730000Y-114750000D03*
X96270000Y-115702500D03*
X96270000Y-113797500D03*
D26*
X105994600Y-96000000D03*
X103505400Y-96000000D03*
D24*
X110000000Y-97994600D03*
X110000000Y-95505400D03*
D26*
X128744600Y-98000000D03*
X126255400Y-98000000D03*
X124494600Y-80400000D03*
X122005400Y-80400000D03*
X122005400Y-79000000D03*
X124494600Y-79000000D03*
D27*
X113000000Y-53770000D03*
D28*
X113000000Y-51230000D03*
D27*
X118000000Y-53770000D03*
D28*
X118000000Y-51230000D03*
D27*
X123000000Y-53770000D03*
D28*
X123000000Y-51230000D03*
D27*
X128000000Y-53770000D03*
D28*
X128000000Y-51230000D03*
D26*
X225005400Y-51750000D03*
X227494600Y-51750000D03*
D24*
X137500000Y-61244600D03*
X137500000Y-58755400D03*
D13*
X212250000Y-74199640D03*
X212250000Y-69800360D03*
D29*
X223300000Y-71600000D03*
X223300000Y-69600000D03*
X223000000Y-81750000D03*
X223000000Y-83750000D03*
D14*
X135800000Y-107500000D03*
D15*
X145200000Y-107500000D03*
D16*
X140500000Y-102600000D03*
X140500000Y-110800000D03*
D14*
X170800000Y-107500000D03*
D15*
X180200000Y-107500000D03*
D16*
X175500000Y-102600000D03*
X175500000Y-110800000D03*
D14*
X170800000Y-145500000D03*
D15*
X180200000Y-145500000D03*
D16*
X175500000Y-140600000D03*
X175500000Y-148800000D03*
D14*
X135800000Y-145500000D03*
D15*
X145200000Y-145500000D03*
D16*
X140500000Y-140600000D03*
X140500000Y-148800000D03*
D14*
X85800000Y-145500000D03*
D15*
X95200000Y-145500000D03*
D16*
X90500000Y-140600000D03*
X90500000Y-148800000D03*
D14*
X120800000Y-145500000D03*
D15*
X130200000Y-145500000D03*
D16*
X125500000Y-140600000D03*
X125500000Y-148800000D03*
D14*
X85800000Y-107500000D03*
D15*
X95200000Y-107500000D03*
D16*
X90500000Y-102600000D03*
X90500000Y-110800000D03*
D14*
X120800000Y-107500000D03*
D15*
X130200000Y-107500000D03*
D16*
X125500000Y-102600000D03*
X125500000Y-110800000D03*
D14*
X185800000Y-145500000D03*
D15*
X195200000Y-145500000D03*
D16*
X190500000Y-140600000D03*
X190500000Y-148800000D03*
D14*
X220800000Y-145500000D03*
D15*
X230200000Y-145500000D03*
D16*
X225500000Y-140600000D03*
X225500000Y-148800000D03*
D14*
X185800000Y-107500000D03*
D15*
X195200000Y-107500000D03*
D16*
X190500000Y-102600000D03*
X190500000Y-110800000D03*
D14*
X203300000Y-107500000D03*
D15*
X212700000Y-107500000D03*
D16*
X208000000Y-102600000D03*
X208000000Y-110800000D03*
D14*
X220800000Y-107500000D03*
D15*
X230200000Y-107500000D03*
D16*
X225500000Y-102600000D03*
X225500000Y-110800000D03*
D14*
X153300000Y-107500000D03*
D15*
X162700000Y-107500000D03*
D16*
X158000000Y-102600000D03*
X158000000Y-110800000D03*
D14*
X103300000Y-145500000D03*
D15*
X112700000Y-145500000D03*
D16*
X108000000Y-140600000D03*
X108000000Y-148800000D03*
D14*
X153300000Y-145500000D03*
D15*
X162700000Y-145500000D03*
D16*
X158000000Y-140600000D03*
X158000000Y-148800000D03*
D14*
X203300000Y-145500000D03*
D15*
X212700000Y-145500000D03*
D16*
X208000000Y-140600000D03*
X208000000Y-148800000D03*
D30*
X226500000Y-81750000D03*
D31*
X229040000Y-81750000D03*
X226500000Y-79210000D03*
X229040000Y-79210000D03*
X226500000Y-76670000D03*
X229040000Y-76670000D03*
X226500000Y-74130000D03*
X229040000Y-74130000D03*
X226500000Y-71590000D03*
X229040000Y-71590000D03*
D25*
X99230000Y-98500000D03*
X101770000Y-99452500D03*
X101770000Y-97547500D03*
D18*
X91850900Y-81250000D03*
X90149100Y-81250000D03*
X94850900Y-81250000D03*
X93149100Y-81250000D03*
D20*
X134200000Y-96850900D03*
X134200000Y-95149100D03*
X126000000Y-64649100D03*
X126000000Y-66350900D03*
D18*
X97850900Y-81250000D03*
X96149100Y-81250000D03*
X100850900Y-81250000D03*
X99149100Y-81250000D03*
X113399100Y-116750000D03*
X115100900Y-116750000D03*
X136350900Y-92000000D03*
X134649100Y-92000000D03*
X136350900Y-90000000D03*
X134649100Y-90000000D03*
D20*
X98000000Y-117600900D03*
X98000000Y-115899100D03*
D18*
X103850900Y-81250000D03*
X102149100Y-81250000D03*
D20*
X151000000Y-114850900D03*
X151000000Y-113149100D03*
X136250000Y-77399100D03*
X136250000Y-79100900D03*
X139750000Y-79100900D03*
X139750000Y-77399100D03*
X149500000Y-116600900D03*
X149500000Y-114899100D03*
X139750000Y-73100900D03*
X139750000Y-71399100D03*
D18*
X143399100Y-113250000D03*
X145100900Y-113250000D03*
X139100900Y-121750000D03*
X137399100Y-121750000D03*
X143100900Y-107500000D03*
X141399100Y-107500000D03*
X139100900Y-120000000D03*
X137399100Y-120000000D03*
D20*
X138000000Y-73100900D03*
X138000000Y-71399100D03*
X139750000Y-68399100D03*
X139750000Y-70100900D03*
X141750000Y-77350900D03*
X141750000Y-75649100D03*
D18*
X139100900Y-118250000D03*
X137399100Y-118250000D03*
D20*
X144250000Y-68899100D03*
X144250000Y-70600900D03*
D18*
X86149100Y-87500000D03*
X87850900Y-87500000D03*
X90450900Y-100600000D03*
X88749100Y-100600000D03*
X95600900Y-101500000D03*
X93899100Y-101500000D03*
X86149100Y-89250000D03*
X87850900Y-89250000D03*
X95600900Y-105000000D03*
X93899100Y-105000000D03*
X95600900Y-103250000D03*
X93899100Y-103250000D03*
X145100900Y-111500000D03*
X143399100Y-111500000D03*
X145100900Y-118250000D03*
X143399100Y-118250000D03*
X142899100Y-122250000D03*
X144600900Y-122250000D03*
D20*
X141750000Y-73600900D03*
X141750000Y-71899100D03*
X89750000Y-94600900D03*
X89750000Y-92899100D03*
D32*
X146329500Y-120250000D03*
X144170500Y-120250000D03*
D20*
X146000000Y-68899100D03*
X146000000Y-70600900D03*
D18*
X147600900Y-122250000D03*
X145899100Y-122250000D03*
D20*
X153500000Y-65899100D03*
X153500000Y-67600900D03*
D18*
X144149100Y-124000000D03*
X145850900Y-124000000D03*
D20*
X154250000Y-77100900D03*
X154250000Y-75399100D03*
D18*
X153899100Y-124750000D03*
X155600900Y-124750000D03*
X153899100Y-117250000D03*
X155600900Y-117250000D03*
D20*
X144000000Y-84350900D03*
X144000000Y-82649100D03*
D18*
X91149100Y-93000000D03*
X92850900Y-93000000D03*
D20*
X141750000Y-79149100D03*
X141750000Y-80850900D03*
X102250000Y-83149100D03*
X102250000Y-84850900D03*
X145750000Y-84350900D03*
X145750000Y-82649100D03*
X97750000Y-87149100D03*
X97750000Y-88850900D03*
X147500000Y-82649100D03*
X147500000Y-84350900D03*
X100750000Y-93399100D03*
X100750000Y-95100900D03*
X156000000Y-75399100D03*
X156000000Y-77100900D03*
X128500000Y-104650900D03*
X128500000Y-102949100D03*
X159500000Y-68899100D03*
X159500000Y-70600900D03*
X105500000Y-97649100D03*
X105500000Y-99350900D03*
D18*
X109899100Y-91000000D03*
X111600900Y-91000000D03*
D20*
X124250000Y-93600900D03*
X124250000Y-91899100D03*
D18*
X109899100Y-87750000D03*
X111600900Y-87750000D03*
X107899100Y-85500000D03*
X109600900Y-85500000D03*
X109899100Y-89500000D03*
X111600900Y-89500000D03*
D20*
X120500000Y-93600900D03*
X120500000Y-91899100D03*
X158250000Y-74600900D03*
X158250000Y-72899100D03*
X161250000Y-68899100D03*
X161250000Y-70600900D03*
D18*
X106849100Y-80000000D03*
X108550900Y-80000000D03*
X104149100Y-85500000D03*
X105850900Y-85500000D03*
D20*
X109700000Y-81949100D03*
X109700000Y-83650900D03*
X113500000Y-98600900D03*
X113500000Y-96899100D03*
X161250000Y-65899100D03*
X161250000Y-67600900D03*
X111750000Y-96899100D03*
X111750000Y-98600900D03*
D18*
X119149100Y-77250000D03*
X120850900Y-77250000D03*
X203649100Y-125500000D03*
X205350900Y-125500000D03*
D20*
X171000000Y-77100900D03*
X171000000Y-75399100D03*
D18*
X209850900Y-123500000D03*
X208149100Y-123500000D03*
X209850900Y-121750000D03*
X208149100Y-121750000D03*
X196600900Y-72500000D03*
X194899100Y-72500000D03*
X196600900Y-69000000D03*
X194899100Y-69000000D03*
X196600900Y-70750000D03*
X194899100Y-70750000D03*
X118149100Y-88250000D03*
X119850900Y-88250000D03*
D20*
X160000000Y-84100900D03*
X160000000Y-82399100D03*
D18*
X123850900Y-77250000D03*
X122149100Y-77250000D03*
X111600900Y-78250000D03*
X109899100Y-78250000D03*
X109899100Y-80000000D03*
X111600900Y-80000000D03*
X122850900Y-88250000D03*
X121149100Y-88250000D03*
X189950900Y-74500000D03*
X188249100Y-74500000D03*
X206850900Y-121750000D03*
X205149100Y-121750000D03*
D20*
X127750000Y-79149100D03*
X127750000Y-80850900D03*
D18*
X112899100Y-80000000D03*
X114600900Y-80000000D03*
X188249100Y-78000000D03*
X189950900Y-78000000D03*
X189950900Y-76200000D03*
X188249100Y-76200000D03*
D20*
X158500000Y-78649100D03*
X158500000Y-80350900D03*
X127750000Y-82399100D03*
X127750000Y-84100900D03*
D18*
X203850900Y-123500000D03*
X202149100Y-123500000D03*
D20*
X161750000Y-84100900D03*
X161750000Y-82399100D03*
D18*
X114649100Y-76250000D03*
X116350900Y-76250000D03*
X195649100Y-130500000D03*
X197350900Y-130500000D03*
X203850900Y-121750000D03*
X202149100Y-121750000D03*
D20*
X163500000Y-82399100D03*
X163500000Y-84100900D03*
X129750000Y-84100900D03*
X129750000Y-82399100D03*
D18*
X203100900Y-133000000D03*
X201399100Y-133000000D03*
D20*
X212000000Y-115850900D03*
X212000000Y-114149100D03*
X183750000Y-70100900D03*
X183750000Y-68399100D03*
X147500000Y-87350900D03*
X147500000Y-85649100D03*
D18*
X203399100Y-138500000D03*
X205100900Y-138500000D03*
X179850900Y-83250000D03*
X178149100Y-83250000D03*
X175600900Y-73500000D03*
X173899100Y-73500000D03*
D20*
X200250000Y-82899100D03*
X200250000Y-84600900D03*
D18*
X173899100Y-75250000D03*
X175600900Y-75250000D03*
D20*
X116250000Y-84350900D03*
X116250000Y-82649100D03*
X196750000Y-86399100D03*
X196750000Y-88100900D03*
X214000000Y-114149100D03*
X214000000Y-115850900D03*
X158000000Y-108850900D03*
X158000000Y-107149100D03*
D18*
X219649100Y-48000000D03*
X221350900Y-48000000D03*
D20*
X122250000Y-93600900D03*
X122250000Y-91899100D03*
D18*
X219399100Y-55750000D03*
X221100900Y-55750000D03*
X216149100Y-55750000D03*
X217850900Y-55750000D03*
X219649100Y-49750000D03*
X221350900Y-49750000D03*
D20*
X170500000Y-64350900D03*
X170500000Y-62649100D03*
X162000000Y-125350900D03*
X162000000Y-123649100D03*
X116500000Y-68350900D03*
X116500000Y-66649100D03*
X168250000Y-124600900D03*
X168250000Y-122899100D03*
D18*
X109350900Y-142750000D03*
X107649100Y-142750000D03*
X209600900Y-55750000D03*
X207899100Y-55750000D03*
D20*
X162000000Y-122350900D03*
X162000000Y-120649100D03*
D18*
X219399100Y-59000000D03*
X221100900Y-59000000D03*
D20*
X158750000Y-122350900D03*
X158750000Y-120649100D03*
D18*
X204649100Y-54250000D03*
X206350900Y-54250000D03*
D20*
X136000000Y-60600900D03*
X136000000Y-58899100D03*
D18*
X134399100Y-62750000D03*
X136100900Y-62750000D03*
X137399100Y-62750000D03*
X139100900Y-62750000D03*
X125350900Y-59000000D03*
X123649100Y-59000000D03*
D33*
X155000000Y-135500000D03*
X158000000Y-135500000D03*
X161000000Y-135500000D03*
D34*
X151500000Y-135500000D03*
X164500000Y-135500000D03*
D33*
X205000000Y-135500000D03*
X208000000Y-135500000D03*
X211000000Y-135500000D03*
D34*
X201500000Y-135500000D03*
X214500000Y-135500000D03*
D35*
X117250000Y-56750000D03*
X117250000Y-61250000D03*
D36*
X123750000Y-56750000D03*
X123750000Y-61250000D03*
D37*
X166500000Y-107500000D03*
D38*
X132200000Y-62700000D03*
X131550000Y-62700000D03*
X130900000Y-62700000D03*
X130250000Y-62700000D03*
X129600000Y-62700000D03*
X128950000Y-62700000D03*
X128300000Y-62700000D03*
X128300000Y-56800000D03*
X128950000Y-56800000D03*
X129600000Y-56800000D03*
X130250000Y-56800000D03*
X130900000Y-56800000D03*
X131550000Y-56800000D03*
X132200000Y-56800000D03*
D11*
X127725000Y-67050000D03*
X128375000Y-67050000D03*
X129025000Y-67050000D03*
X129675000Y-67050000D03*
X130325000Y-67050000D03*
X130975000Y-67050000D03*
X131625000Y-67050000D03*
X132275000Y-67050000D03*
X132275000Y-72950000D03*
X131625000Y-72950000D03*
X130975000Y-72950000D03*
X130325000Y-72950000D03*
X129675000Y-72950000D03*
X129025000Y-72950000D03*
X128375000Y-72950000D03*
X127725000Y-72950000D03*
D39*
X143555000Y-73901580D03*
X144825000Y-73901580D03*
X146095000Y-73901580D03*
X147365000Y-73901580D03*
X148635000Y-73901580D03*
X149905000Y-73901580D03*
X151175000Y-73901580D03*
X152445000Y-73901580D03*
X152445000Y-79098420D03*
X151175000Y-79098420D03*
X149905000Y-79098420D03*
X148635000Y-79098420D03*
X147365000Y-79098420D03*
X146095000Y-79098420D03*
X144825000Y-79098420D03*
X143555000Y-79098420D03*
X160305000Y-73651580D03*
X161575000Y-73651580D03*
X162845000Y-73651580D03*
X164115000Y-73651580D03*
X165385000Y-73651580D03*
X166655000Y-73651580D03*
X167925000Y-73651580D03*
X169195000Y-73651580D03*
X169195000Y-78848420D03*
X167925000Y-78848420D03*
X166655000Y-78848420D03*
X165385000Y-78848420D03*
X164115000Y-78848420D03*
X162845000Y-78848420D03*
X161575000Y-78848420D03*
X160305000Y-78848420D03*
D40*
X183848420Y-71805000D03*
X183848420Y-73075000D03*
X183848420Y-74345000D03*
X183848420Y-75615000D03*
X183848420Y-76885000D03*
X183848420Y-78155000D03*
X183848420Y-79425000D03*
X183848420Y-80695000D03*
X178651580Y-80695000D03*
X178651580Y-79425000D03*
X178651580Y-78155000D03*
X178651580Y-76885000D03*
X178651580Y-75615000D03*
X178651580Y-74345000D03*
X178651580Y-73075000D03*
X178651580Y-71805000D03*
D17*
X141556000Y-116705400D03*
X141556000Y-116070400D03*
X141556000Y-115410000D03*
X141556000Y-114775000D03*
X147144000Y-114775000D03*
X147144000Y-115422700D03*
X147144000Y-116070400D03*
X147144000Y-116718100D03*
X205056000Y-119455400D03*
X205056000Y-118820400D03*
X205056000Y-118160000D03*
X205056000Y-117525000D03*
X210644000Y-117525000D03*
X210644000Y-118172700D03*
X210644000Y-118820400D03*
X210644000Y-119468100D03*
D41*
X113500000Y-74200000D03*
D27*
X112500000Y-70950000D03*
X114500000Y-70950000D03*
D41*
X134250000Y-121200000D03*
D27*
X133250000Y-117950000D03*
X135250000Y-117950000D03*
D41*
X125500000Y-105550000D03*
D27*
X126500000Y-108800000D03*
X124500000Y-108800000D03*
D42*
X127750000Y-92500000D03*
D27*
X131000000Y-91500000D03*
X131000000Y-93500000D03*
D42*
X192250000Y-78000000D03*
D27*
X195500000Y-77000000D03*
X195500000Y-79000000D03*
D41*
X195500000Y-128450000D03*
D27*
X194500000Y-125200000D03*
X196500000Y-125200000D03*
D42*
X209200000Y-114750000D03*
D27*
X205950000Y-115750000D03*
X205950000Y-113750000D03*
D41*
X176500000Y-63800000D03*
D27*
X177500000Y-67050000D03*
X175500000Y-67050000D03*
D18*
X108649100Y-133000000D03*
X110350900Y-133000000D03*
D33*
X111000000Y-135500000D03*
X108000000Y-135500000D03*
X105000000Y-135500000D03*
D34*
X114500000Y-135500000D03*
X101500000Y-135500000D03*
D30*
X110500000Y-115750000D03*
D31*
X110500000Y-118290000D03*
X110500000Y-120830000D03*
D20*
X181250000Y-70100900D03*
X181250000Y-68399100D03*
D43*
X178650000Y-69750000D03*
X177350000Y-70250000D03*
X177350000Y-69250000D03*
X107650000Y-87500000D03*
X106350000Y-88000000D03*
X106350000Y-87000000D03*
X198850000Y-130500000D03*
X200150000Y-130000000D03*
X200150000Y-131000000D03*
X202650000Y-130500000D03*
X201350000Y-131000000D03*
X201350000Y-130000000D03*
X214400000Y-118500000D03*
X213100000Y-119000000D03*
X213100000Y-118000000D03*
D23*
X106750000Y-81480000D03*
X105797500Y-84020000D03*
X107702500Y-84020000D03*
D44*
X154050000Y-121750000D03*
X154050000Y-122700000D03*
X154050000Y-120800000D03*
X156450000Y-122700000D03*
X156450000Y-120800000D03*
X195550000Y-83750000D03*
X195550000Y-84700000D03*
X195550000Y-82800000D03*
X197950000Y-84700000D03*
X197950000Y-82800000D03*
X112050000Y-82750000D03*
X112050000Y-83700000D03*
X112050000Y-81800000D03*
X114450000Y-83700000D03*
X114450000Y-81800000D03*
D12*
X87250000Y-83300000D03*
X86300000Y-83300000D03*
X88200000Y-83300000D03*
X86300000Y-85700000D03*
X88200000Y-85700000D03*
X133250000Y-79200000D03*
X134200000Y-79200000D03*
X132300000Y-79200000D03*
X134200000Y-76800000D03*
X132300000Y-76800000D03*
D30*
X104000000Y-78250000D03*
D31*
X101460000Y-78250000D03*
X98920000Y-78250000D03*
X96380000Y-78250000D03*
X93840000Y-78250000D03*
X91300000Y-78250000D03*
X88760000Y-78250000D03*
X86220000Y-78250000D03*
D45*
X152750000Y-128750000D03*
X107700000Y-97050000D03*
X203750000Y-86750000D03*
X165500000Y-140000000D03*
D44*
X149300000Y-121750000D03*
X149300000Y-122700000D03*
X149300000Y-120800000D03*
X151700000Y-122700000D03*
X151700000Y-120800000D03*
D12*
X97500000Y-90800000D03*
X96550000Y-90800000D03*
X98450000Y-90800000D03*
X96550000Y-93200000D03*
X98450000Y-93200000D03*
D46*
X150300000Y-88000000D03*
X140700000Y-88000000D03*
D47*
X148000000Y-95500000D03*
X145500000Y-95500000D03*
X143000000Y-95500000D03*
D46*
X175300000Y-88000000D03*
X165700000Y-88000000D03*
D47*
X173000000Y-95500000D03*
X170500000Y-95500000D03*
X168000000Y-95500000D03*
D46*
X175300000Y-126000000D03*
X165700000Y-126000000D03*
D47*
X173000000Y-133500000D03*
X170500000Y-133500000D03*
X168000000Y-133500000D03*
D46*
X150300000Y-59000000D03*
X140700000Y-59000000D03*
D47*
X148000000Y-66500000D03*
X145500000Y-66500000D03*
X143000000Y-66500000D03*
D46*
X150300000Y-126000000D03*
X140700000Y-126000000D03*
D47*
X148000000Y-133500000D03*
X145500000Y-133500000D03*
X143000000Y-133500000D03*
D46*
X100300000Y-88000000D03*
X90700000Y-88000000D03*
D47*
X98000000Y-95500000D03*
X95500000Y-95500000D03*
X93000000Y-95500000D03*
D46*
X100300000Y-126000000D03*
X90700000Y-126000000D03*
D47*
X98000000Y-133500000D03*
X95500000Y-133500000D03*
X93000000Y-133500000D03*
D46*
X125300000Y-126000000D03*
X115700000Y-126000000D03*
D47*
X123000000Y-133500000D03*
X120500000Y-133500000D03*
X118000000Y-133500000D03*
D46*
X125300000Y-88000000D03*
X115700000Y-88000000D03*
D47*
X123000000Y-95500000D03*
X120500000Y-95500000D03*
X118000000Y-95500000D03*
D46*
X200300000Y-59000000D03*
X190700000Y-59000000D03*
D47*
X198000000Y-66500000D03*
X195500000Y-66500000D03*
X193000000Y-66500000D03*
D46*
X200300000Y-126000000D03*
X190700000Y-126000000D03*
D47*
X198000000Y-133500000D03*
X195500000Y-133500000D03*
X193000000Y-133500000D03*
D46*
X225300000Y-126000000D03*
X215700000Y-126000000D03*
D47*
X223000000Y-133500000D03*
X220500000Y-133500000D03*
X218000000Y-133500000D03*
D46*
X200300000Y-88000000D03*
X190700000Y-88000000D03*
D47*
X198000000Y-95500000D03*
X195500000Y-95500000D03*
X193000000Y-95500000D03*
D46*
X225300000Y-59000000D03*
X215700000Y-59000000D03*
D47*
X223000000Y-66500000D03*
X220500000Y-66500000D03*
X218000000Y-66500000D03*
D46*
X225300000Y-88000000D03*
X215700000Y-88000000D03*
D47*
X223000000Y-95500000D03*
X220500000Y-95500000D03*
X218000000Y-95500000D03*
D46*
X175300000Y-59000000D03*
X165700000Y-59000000D03*
D47*
X173000000Y-66500000D03*
X170500000Y-66500000D03*
X168000000Y-66500000D03*
D27*
X208000000Y-57730000D03*
D28*
X208000000Y-60270000D03*
D18*
X201549100Y-117700000D03*
X203250900Y-117700000D03*
D45*
X126200000Y-95700000D03*
X113600000Y-67400000D03*
X130900000Y-88300000D03*
D37*
X166500000Y-102700000D03*
D45*
X87500000Y-96600000D03*
D19*
X199000000Y-138300360D03*
X199000000Y-142699640D03*
D27*
X208000000Y-53770000D03*
D28*
X208000000Y-51230000D03*
D48*
X228000000Y-54400000D03*
X227500000Y-53100000D03*
X228500000Y-53100000D03*
D18*
X108100900Y-89500000D03*
X106399100Y-89500000D03*
X113100900Y-103500000D03*
X111399100Y-103500000D03*
X121149100Y-86500000D03*
X122850900Y-86500000D03*
X116850900Y-109000000D03*
X115149100Y-109000000D03*
X119850900Y-86500000D03*
X118149100Y-86500000D03*
D41*
X116000000Y-103550000D03*
D27*
X117000000Y-106800000D03*
X115000000Y-106800000D03*
D49*
X223450000Y-51775000D03*
X223450000Y-52425000D03*
X223450000Y-53075000D03*
X223450000Y-53725000D03*
X217550000Y-53725000D03*
X217550000Y-53075000D03*
X217550000Y-52425000D03*
X217550000Y-51775000D03*
D30*
X186250000Y-59000000D03*
D31*
X183710000Y-59000000D03*
X181170000Y-59000000D03*
D18*
X185899100Y-118250000D03*
X187600900Y-118250000D03*
D24*
X187750000Y-120005400D03*
X187750000Y-122494600D03*
D26*
X179755400Y-132000000D03*
X182244600Y-132000000D03*
X186244600Y-132000000D03*
X183755400Y-132000000D03*
D30*
X180500000Y-134750000D03*
D31*
X180500000Y-137290000D03*
X183040000Y-134750000D03*
X183040000Y-137290000D03*
X185580000Y-134750000D03*
X185580000Y-137290000D03*
D18*
X185899100Y-116750000D03*
X187600900Y-116750000D03*
D20*
X184100000Y-116750900D03*
X184100000Y-115049100D03*
D18*
X187600900Y-124000000D03*
X185899100Y-124000000D03*
D20*
X177500000Y-132399100D03*
X177500000Y-134100900D03*
X188500000Y-132149100D03*
X188500000Y-133850900D03*
D18*
X181600900Y-124000000D03*
X179899100Y-124000000D03*
D20*
X175500000Y-120649100D03*
X175500000Y-122350900D03*
D18*
X182899100Y-124000000D03*
X184600900Y-124000000D03*
D20*
X177250000Y-122350900D03*
X177250000Y-120649100D03*
D17*
X185944000Y-120294600D03*
X185944000Y-120929600D03*
X185944000Y-121590000D03*
X185944000Y-122225000D03*
X180356000Y-122225000D03*
X180356000Y-121577300D03*
X180356000Y-120929600D03*
X180356000Y-120281900D03*
D49*
X185950000Y-126050000D03*
X185950000Y-126700000D03*
X185950000Y-127350000D03*
X185950000Y-128000000D03*
X185950000Y-128650000D03*
X185950000Y-129300000D03*
X185950000Y-129950000D03*
X180050000Y-129950000D03*
X180050000Y-129300000D03*
X180050000Y-128650000D03*
X180050000Y-128000000D03*
X180050000Y-127350000D03*
X180050000Y-126700000D03*
X180050000Y-126050000D03*
D18*
X180350900Y-118300000D03*
X178649100Y-118300000D03*
X192150900Y-122700000D03*
X190449100Y-122700000D03*
D25*
X151230000Y-70200000D03*
X153770000Y-71152500D03*
X153770000Y-69247500D03*
X167030000Y-83300000D03*
X169570000Y-84252500D03*
X169570000Y-82347500D03*
X166430000Y-70000000D03*
X168970000Y-70952500D03*
X168970000Y-69047500D03*
X112830000Y-119700000D03*
X115370000Y-120652500D03*
X115370000Y-118747500D03*
X152530000Y-84000000D03*
X155070000Y-84952500D03*
X155070000Y-83047500D03*
D50*
X99250000Y-106500000D03*
X99250000Y-109040000D03*
X99250000Y-103960000D03*
X149000000Y-107250000D03*
X149000000Y-104710000D03*
X149000000Y-109790000D03*
X92320000Y-98700000D03*
X89780000Y-98700000D03*
X94860000Y-98700000D03*
D20*
X130200000Y-102949100D03*
X130200000Y-104650900D03*
D18*
X111050900Y-138500000D03*
X109349100Y-138500000D03*
D20*
X115400000Y-143550900D03*
X115400000Y-141849100D03*
D44*
X113450000Y-141750000D03*
X113450000Y-140800000D03*
X113450000Y-142700000D03*
X111050000Y-140800000D03*
X111050000Y-142700000D03*
D20*
X94700000Y-91049100D03*
X94700000Y-92750900D03*
M02*
