G04 #@! TF.FileFunction,Soldermask,Bot*
%FSLAX46Y46*%
G04 Gerber Fmt 4.6, Leading zero omitted, Abs format (unit mm)*
G04 Created by KiCad (PCBNEW 4.0.2-stable) date 2017-11-28 12:45:38 PM*
%MOMM*%
G01*
G04 APERTURE LIST*
%ADD10C,0.200000*%
%ADD11C,1.370000*%
%ADD12O,2.600000X4.100000*%
%ADD13O,2.100000X2.600000*%
%ADD14O,3.600000X1.600000*%
%ADD15C,1.100000*%
%ADD16R,1.400480X0.500000*%
%ADD17R,0.912800X1.243000*%
%ADD18R,1.700200X3.099740*%
%ADD19R,1.243000X0.912800*%
%ADD20R,3.099740X1.700200*%
%ADD21R,2.700960X1.700200*%
%ADD22R,0.801040X1.100760*%
%ADD23R,0.862000X0.709600*%
%ADD24R,1.100760X0.801040*%
%ADD25R,0.709600X0.862000*%
%ADD26R,1.300000X1.300000*%
%ADD27C,1.300000*%
%ADD28R,2.497760X2.497760*%
%ADD29R,1.350000X1.100000*%
%ADD30R,1.800000X1.800000*%
%ADD31O,1.800000X1.800000*%
%ADD32R,1.000000X0.900000*%
%ADD33R,1.243000X1.497000*%
%ADD34C,1.624000*%
%ADD35R,2.100000X1.600000*%
%ADD36O,2.300000X1.500000*%
%ADD37O,2.350000X1.500000*%
%ADD38R,1.497000X1.243000*%
%ADD39R,1.700000X2.900000*%
%ADD40R,0.550000X1.550000*%
%ADD41R,0.550000X1.600000*%
%ADD42R,0.699440X2.299640*%
%ADD43R,2.299640X0.699440*%
%ADD44R,1.550000X0.550000*%
%ADD45R,1.700000X1.600000*%
%ADD46R,1.600000X1.700000*%
%ADD47R,0.700000X0.600000*%
%ADD48R,0.600000X0.700000*%
%ADD49R,0.900000X0.650000*%
%ADD50R,0.650000X0.900000*%
%ADD51C,1.900000*%
%ADD52O,2.900000X3.600000*%
%ADD53C,1.850000*%
G04 APERTURE END LIST*
D10*
D11*
X91900000Y-98750000D03*
X89360000Y-98750000D03*
X94440000Y-98750000D03*
D12*
X103300000Y-107500000D03*
D13*
X112700000Y-107500000D03*
D14*
X108000000Y-102600000D03*
X108000000Y-110800000D03*
D15*
X86750000Y-75750000D03*
X85000000Y-75750000D03*
X109250000Y-48750000D03*
D16*
X91806000Y-84955400D03*
X91806000Y-84320400D03*
X91806000Y-83660000D03*
X91806000Y-83025000D03*
X97394000Y-83025000D03*
X97394000Y-83672700D03*
X97394000Y-84320400D03*
X97394000Y-84968100D03*
D11*
X149000000Y-107250000D03*
X149000000Y-104710000D03*
X149000000Y-109790000D03*
D16*
X117556000Y-84455400D03*
X117556000Y-83820400D03*
X117556000Y-83160000D03*
X117556000Y-82525000D03*
X123144000Y-82525000D03*
X123144000Y-83172700D03*
X123144000Y-83820400D03*
X123144000Y-84468100D03*
X104556000Y-94455400D03*
X104556000Y-93820400D03*
X104556000Y-93160000D03*
X104556000Y-92525000D03*
X110144000Y-92525000D03*
X110144000Y-93172700D03*
X110144000Y-93820400D03*
X110144000Y-94468100D03*
D17*
X113399100Y-114750000D03*
X115100900Y-114750000D03*
D18*
X135250000Y-82550360D03*
X135250000Y-86949640D03*
D19*
X138000000Y-79100900D03*
X138000000Y-77399100D03*
X139750000Y-74399100D03*
X139750000Y-76100900D03*
D17*
X142100900Y-118250000D03*
X140399100Y-118250000D03*
D19*
X148750000Y-70600900D03*
X148750000Y-68899100D03*
D17*
X89600900Y-91000000D03*
X87899100Y-91000000D03*
X155600900Y-119000000D03*
X153899100Y-119000000D03*
D19*
X99750000Y-83149100D03*
X99750000Y-84850900D03*
X149250000Y-82649100D03*
X149250000Y-84350900D03*
X103750000Y-98350900D03*
X103750000Y-96649100D03*
X113250000Y-92850900D03*
X113250000Y-91149100D03*
X164750000Y-70600900D03*
X164750000Y-68899100D03*
X115250000Y-96899100D03*
X115250000Y-98600900D03*
D20*
X187050360Y-70000000D03*
X191449640Y-70000000D03*
D17*
X206850900Y-123500000D03*
X205149100Y-123500000D03*
X112899100Y-78250000D03*
X114600900Y-78250000D03*
D19*
X126000000Y-82399100D03*
X126000000Y-84100900D03*
X165250000Y-82399100D03*
X165250000Y-84100900D03*
D20*
X191699640Y-82750000D03*
X187300360Y-82750000D03*
D21*
X175550860Y-83000000D03*
X171949140Y-83000000D03*
D19*
X202000000Y-82899100D03*
X202000000Y-84600900D03*
D18*
X163000000Y-130550360D03*
X163000000Y-134949640D03*
D19*
X160250000Y-122350900D03*
X160250000Y-120649100D03*
X211250000Y-55149100D03*
X211250000Y-56850900D03*
D17*
X218399100Y-49000000D03*
X220100900Y-49000000D03*
X212149100Y-121750000D03*
X213850900Y-121750000D03*
X202649100Y-115750000D03*
X204350900Y-115750000D03*
D19*
X228250000Y-56149100D03*
X228250000Y-57850900D03*
X230000000Y-50850900D03*
X230000000Y-49149100D03*
D17*
X175600900Y-78250000D03*
X173899100Y-78250000D03*
X183350900Y-83250000D03*
X181649100Y-83250000D03*
D19*
X134250000Y-60600900D03*
X134250000Y-58899100D03*
X154250000Y-80100900D03*
X154250000Y-78399100D03*
X156500000Y-68899100D03*
X156500000Y-70600900D03*
D17*
X136100900Y-64500000D03*
X134399100Y-64500000D03*
D19*
X95250000Y-87149100D03*
X95250000Y-88850900D03*
D17*
X88850900Y-81250000D03*
X87149100Y-81250000D03*
D19*
X115750000Y-94350900D03*
X115750000Y-92649100D03*
X104250000Y-89649100D03*
X104250000Y-91350900D03*
D17*
X127899100Y-86000000D03*
X129600900Y-86000000D03*
D19*
X130500000Y-76149100D03*
X130500000Y-77850900D03*
X134500000Y-69149100D03*
X134500000Y-70850900D03*
D17*
X120850900Y-75500000D03*
X119149100Y-75500000D03*
D18*
X218250000Y-70050360D03*
X218250000Y-74449640D03*
X218250000Y-78800360D03*
X218250000Y-83199640D03*
D22*
X136000000Y-97770000D03*
X136952500Y-95230000D03*
X135047500Y-95230000D03*
X125000000Y-70270000D03*
X125952500Y-67730000D03*
X124047500Y-67730000D03*
D23*
X116750000Y-120994600D03*
X116750000Y-118505400D03*
D24*
X93730000Y-114750000D03*
X96270000Y-115702500D03*
X96270000Y-113797500D03*
D25*
X106005400Y-91250000D03*
X108494600Y-91250000D03*
D23*
X110000000Y-97994600D03*
X110000000Y-95505400D03*
X118500000Y-89255400D03*
X118500000Y-91744600D03*
D25*
X124494600Y-80750000D03*
X122005400Y-80750000D03*
X122005400Y-79000000D03*
X124494600Y-79000000D03*
D26*
X113000000Y-54270000D03*
D27*
X113000000Y-51730000D03*
D26*
X117500000Y-54270000D03*
D27*
X117500000Y-51730000D03*
D26*
X123000000Y-54270000D03*
D27*
X123000000Y-51730000D03*
D26*
X128000000Y-54270000D03*
D27*
X128000000Y-51730000D03*
D25*
X215994600Y-55000000D03*
X213505400Y-55000000D03*
D23*
X137500000Y-61244600D03*
X137500000Y-58755400D03*
D28*
X212250000Y-74199640D03*
X212250000Y-69800360D03*
X212250000Y-83449640D03*
X212250000Y-79050360D03*
D29*
X223300000Y-71600000D03*
X223300000Y-69600000D03*
X223000000Y-81750000D03*
X223000000Y-83750000D03*
D12*
X135800000Y-107500000D03*
D13*
X145200000Y-107500000D03*
D14*
X140500000Y-102600000D03*
X140500000Y-110800000D03*
D12*
X170800000Y-107500000D03*
D13*
X180200000Y-107500000D03*
D14*
X175500000Y-102600000D03*
X175500000Y-110800000D03*
D12*
X170800000Y-145500000D03*
D13*
X180200000Y-145500000D03*
D14*
X175500000Y-140600000D03*
X175500000Y-148800000D03*
D12*
X135800000Y-145500000D03*
D13*
X145200000Y-145500000D03*
D14*
X140500000Y-140600000D03*
X140500000Y-148800000D03*
D12*
X85800000Y-145500000D03*
D13*
X95200000Y-145500000D03*
D14*
X90500000Y-140600000D03*
X90500000Y-148800000D03*
D12*
X120800000Y-145500000D03*
D13*
X130200000Y-145500000D03*
D14*
X125500000Y-140600000D03*
X125500000Y-148800000D03*
D12*
X85800000Y-107500000D03*
D13*
X95200000Y-107500000D03*
D14*
X90500000Y-102600000D03*
X90500000Y-110800000D03*
D12*
X120800000Y-107500000D03*
D13*
X130200000Y-107500000D03*
D14*
X125500000Y-102600000D03*
X125500000Y-110800000D03*
D12*
X185800000Y-145500000D03*
D13*
X195200000Y-145500000D03*
D14*
X190500000Y-140600000D03*
X190500000Y-148800000D03*
D12*
X220800000Y-145500000D03*
D13*
X230200000Y-145500000D03*
D14*
X225500000Y-140600000D03*
X225500000Y-148800000D03*
D12*
X185800000Y-107500000D03*
D13*
X195200000Y-107500000D03*
D14*
X190500000Y-102600000D03*
X190500000Y-110800000D03*
D12*
X203300000Y-107500000D03*
D13*
X212700000Y-107500000D03*
D14*
X208000000Y-102600000D03*
X208000000Y-110800000D03*
D12*
X220800000Y-107500000D03*
D13*
X230200000Y-107500000D03*
D14*
X225500000Y-102600000D03*
X225500000Y-110800000D03*
D12*
X153300000Y-107500000D03*
D13*
X162700000Y-107500000D03*
D14*
X158000000Y-102600000D03*
X158000000Y-110800000D03*
D12*
X103300000Y-145500000D03*
D13*
X112700000Y-145500000D03*
D14*
X108000000Y-140600000D03*
X108000000Y-148800000D03*
D12*
X153300000Y-145500000D03*
D13*
X162700000Y-145500000D03*
D14*
X158000000Y-140600000D03*
X158000000Y-148800000D03*
D12*
X203300000Y-145500000D03*
D13*
X212700000Y-145500000D03*
D14*
X208000000Y-140600000D03*
X208000000Y-148800000D03*
D30*
X226500000Y-81750000D03*
D31*
X229040000Y-81750000D03*
X226500000Y-79210000D03*
X229040000Y-79210000D03*
X226500000Y-76670000D03*
X229040000Y-76670000D03*
X226500000Y-74130000D03*
X229040000Y-74130000D03*
X226500000Y-71590000D03*
X229040000Y-71590000D03*
D32*
X115250000Y-118800000D03*
X115250000Y-120700000D03*
X113250000Y-119750000D03*
D24*
X99480000Y-97500000D03*
X102020000Y-98452500D03*
X102020000Y-96547500D03*
D17*
X91850900Y-81250000D03*
X90149100Y-81250000D03*
X94850900Y-81250000D03*
X93149100Y-81250000D03*
D19*
X133500000Y-96850900D03*
X133500000Y-95149100D03*
X126000000Y-64649100D03*
X126000000Y-66350900D03*
X108000000Y-105899100D03*
X108000000Y-107600900D03*
D17*
X97850900Y-81250000D03*
X96149100Y-81250000D03*
X100850900Y-81250000D03*
X99149100Y-81250000D03*
X113399100Y-116750000D03*
X115100900Y-116750000D03*
X136350900Y-92000000D03*
X134649100Y-92000000D03*
X136350900Y-90000000D03*
X134649100Y-90000000D03*
D19*
X98000000Y-117600900D03*
X98000000Y-115899100D03*
D17*
X103850900Y-81250000D03*
X102149100Y-81250000D03*
D19*
X151250000Y-114899100D03*
X151250000Y-116600900D03*
X136250000Y-77399100D03*
X136250000Y-79100900D03*
X139750000Y-79100900D03*
X139750000Y-77399100D03*
X149500000Y-116600900D03*
X149500000Y-114899100D03*
X139750000Y-73100900D03*
X139750000Y-71399100D03*
D17*
X143399100Y-113250000D03*
X145100900Y-113250000D03*
X139100900Y-121750000D03*
X137399100Y-121750000D03*
X143100900Y-107500000D03*
X141399100Y-107500000D03*
X139100900Y-120000000D03*
X137399100Y-120000000D03*
D19*
X138000000Y-73100900D03*
X138000000Y-71399100D03*
X139750000Y-68399100D03*
X139750000Y-70100900D03*
X141750000Y-77350900D03*
X141750000Y-75649100D03*
D17*
X139100900Y-118250000D03*
X137399100Y-118250000D03*
D19*
X144250000Y-68899100D03*
X144250000Y-70600900D03*
D17*
X86149100Y-87500000D03*
X87850900Y-87500000D03*
X90450900Y-100600000D03*
X88749100Y-100600000D03*
X95600900Y-101000000D03*
X93899100Y-101000000D03*
X86149100Y-89250000D03*
X87850900Y-89250000D03*
X95600900Y-104500000D03*
X93899100Y-104500000D03*
X95600900Y-102750000D03*
X93899100Y-102750000D03*
X145100900Y-111500000D03*
X143399100Y-111500000D03*
X145100900Y-118250000D03*
X143399100Y-118250000D03*
X142899100Y-122250000D03*
X144600900Y-122250000D03*
D19*
X141750000Y-73600900D03*
X141750000Y-71899100D03*
X89750000Y-94600900D03*
X89750000Y-92899100D03*
D33*
X146329500Y-120250000D03*
X144170500Y-120250000D03*
D19*
X146000000Y-68899100D03*
X146000000Y-70600900D03*
D17*
X147600900Y-122250000D03*
X145899100Y-122250000D03*
D19*
X153500000Y-65899100D03*
X153500000Y-67600900D03*
D17*
X144149100Y-124000000D03*
X145850900Y-124000000D03*
D19*
X154250000Y-77100900D03*
X154250000Y-75399100D03*
D17*
X153899100Y-124750000D03*
X155600900Y-124750000D03*
X153899100Y-117250000D03*
X155600900Y-117250000D03*
D19*
X144000000Y-84350900D03*
X144000000Y-82649100D03*
D17*
X91149100Y-93000000D03*
X92850900Y-93000000D03*
D19*
X141750000Y-79149100D03*
X141750000Y-80850900D03*
X102250000Y-83149100D03*
X102250000Y-84850900D03*
X145750000Y-84350900D03*
X145750000Y-82649100D03*
X97750000Y-87149100D03*
X97750000Y-88850900D03*
X147500000Y-82649100D03*
X147500000Y-84350900D03*
X100750000Y-93399100D03*
X100750000Y-95100900D03*
X156000000Y-75399100D03*
X156000000Y-77100900D03*
X127500000Y-107600900D03*
X127500000Y-105899100D03*
X159500000Y-68899100D03*
X159500000Y-70600900D03*
X105500000Y-96649100D03*
X105500000Y-98350900D03*
D17*
X109899100Y-91000000D03*
X111600900Y-91000000D03*
D19*
X122000000Y-88100900D03*
X122000000Y-86399100D03*
D17*
X109899100Y-87750000D03*
X111600900Y-87750000D03*
X107899100Y-85500000D03*
X109600900Y-85500000D03*
X109899100Y-89500000D03*
X111600900Y-89500000D03*
D19*
X120250000Y-88100900D03*
X120250000Y-86399100D03*
X158250000Y-74600900D03*
X158250000Y-72899100D03*
X161250000Y-68899100D03*
X161250000Y-70600900D03*
D17*
X117399100Y-79250000D03*
X119100900Y-79250000D03*
X104149100Y-85500000D03*
X105850900Y-85500000D03*
X108600900Y-80000000D03*
X106899100Y-80000000D03*
D19*
X113500000Y-98600900D03*
X113500000Y-96899100D03*
X161250000Y-65899100D03*
X161250000Y-67600900D03*
X111750000Y-96899100D03*
X111750000Y-98600900D03*
D17*
X117399100Y-81000000D03*
X119100900Y-81000000D03*
X203649100Y-125500000D03*
X205350900Y-125500000D03*
D19*
X171000000Y-77100900D03*
X171000000Y-75399100D03*
D17*
X209850900Y-123500000D03*
X208149100Y-123500000D03*
X209850900Y-121750000D03*
X208149100Y-121750000D03*
X196600900Y-72500000D03*
X194899100Y-72500000D03*
D19*
X190500000Y-64399100D03*
X190500000Y-66100900D03*
D17*
X196600900Y-70750000D03*
X194899100Y-70750000D03*
D19*
X118500000Y-86399100D03*
X118500000Y-88100900D03*
X160000000Y-84100900D03*
X160000000Y-82399100D03*
D17*
X123850900Y-77250000D03*
X122149100Y-77250000D03*
X111600900Y-78250000D03*
X109899100Y-78250000D03*
X109899100Y-80000000D03*
X111600900Y-80000000D03*
X115399100Y-91000000D03*
X117100900Y-91000000D03*
X119149100Y-77250000D03*
X120850900Y-77250000D03*
X188850900Y-74500000D03*
X187149100Y-74500000D03*
X206850900Y-121750000D03*
X205149100Y-121750000D03*
D19*
X126000000Y-80850900D03*
X126000000Y-79149100D03*
X127750000Y-79149100D03*
X127750000Y-80850900D03*
D17*
X112899100Y-80000000D03*
X114600900Y-80000000D03*
X187149100Y-78000000D03*
X188850900Y-78000000D03*
X188850900Y-76250000D03*
X187149100Y-76250000D03*
D19*
X158500000Y-78649100D03*
X158500000Y-80350900D03*
X127750000Y-82399100D03*
X127750000Y-84100900D03*
D17*
X203850900Y-123500000D03*
X202149100Y-123500000D03*
D19*
X161750000Y-84100900D03*
X161750000Y-82399100D03*
D17*
X114649100Y-76250000D03*
X116350900Y-76250000D03*
X202100900Y-129000000D03*
X200399100Y-129000000D03*
X203850900Y-121750000D03*
X202149100Y-121750000D03*
D19*
X163500000Y-82399100D03*
X163500000Y-84100900D03*
X129750000Y-84100900D03*
X129750000Y-82399100D03*
X203750000Y-137350900D03*
X203750000Y-135649100D03*
X212000000Y-115850900D03*
X212000000Y-114149100D03*
X183750000Y-70100900D03*
X183750000Y-68399100D03*
X147500000Y-87350900D03*
X147500000Y-85649100D03*
D17*
X203899100Y-129000000D03*
X205600900Y-129000000D03*
X179850900Y-83250000D03*
X178149100Y-83250000D03*
X175600900Y-73500000D03*
X173899100Y-73500000D03*
D19*
X200250000Y-82899100D03*
X200250000Y-84600900D03*
D17*
X173899100Y-75250000D03*
X175600900Y-75250000D03*
D19*
X203750000Y-84600900D03*
X203750000Y-82899100D03*
X196750000Y-86399100D03*
X196750000Y-88100900D03*
X214000000Y-114149100D03*
X214000000Y-115850900D03*
X158000000Y-108850900D03*
X158000000Y-107149100D03*
X230000000Y-52149100D03*
X230000000Y-53850900D03*
X228250000Y-53850900D03*
X228250000Y-52149100D03*
X226500000Y-52100900D03*
X226500000Y-50399100D03*
X226500000Y-53399100D03*
X226500000Y-55100900D03*
X215250000Y-53350900D03*
X215250000Y-51649100D03*
X170500000Y-64350900D03*
X170500000Y-62649100D03*
X162000000Y-125350900D03*
X162000000Y-123649100D03*
X116500000Y-68350900D03*
X116500000Y-66649100D03*
X168250000Y-124600900D03*
X168250000Y-122899100D03*
D17*
X112600900Y-140500000D03*
X110899100Y-140500000D03*
X223600900Y-49000000D03*
X221899100Y-49000000D03*
D19*
X162000000Y-122350900D03*
X162000000Y-120649100D03*
X213250000Y-49899100D03*
X213250000Y-51600900D03*
X158750000Y-122350900D03*
X158750000Y-120649100D03*
X211250000Y-51649100D03*
X211250000Y-53350900D03*
X136000000Y-60600900D03*
X136000000Y-58899100D03*
D17*
X134399100Y-62750000D03*
X136100900Y-62750000D03*
X137399100Y-62750000D03*
X139100900Y-62750000D03*
X125350900Y-59000000D03*
X123649100Y-59000000D03*
D34*
X158000000Y-135000000D03*
X158000000Y-132000000D03*
X158000000Y-129000000D03*
D35*
X158000000Y-138500000D03*
X158000000Y-125500000D03*
D34*
X208000000Y-135000000D03*
X208000000Y-132000000D03*
X208000000Y-129000000D03*
D35*
X208000000Y-138500000D03*
X208000000Y-125500000D03*
D36*
X117250000Y-56750000D03*
X117250000Y-61250000D03*
D37*
X123750000Y-56750000D03*
X123750000Y-61250000D03*
D38*
X94500000Y-90920500D03*
X94500000Y-93079500D03*
D39*
X166500000Y-107500000D03*
D40*
X132200000Y-62700000D03*
X131550000Y-62700000D03*
X130900000Y-62700000D03*
X130250000Y-62700000D03*
X129600000Y-62700000D03*
X128950000Y-62700000D03*
X128300000Y-62700000D03*
X128300000Y-56800000D03*
X128950000Y-56800000D03*
X129600000Y-56800000D03*
X130250000Y-56800000D03*
X130900000Y-56800000D03*
X131550000Y-56800000D03*
X132200000Y-56800000D03*
D41*
X127725000Y-67050000D03*
X128375000Y-67050000D03*
X129025000Y-67050000D03*
X129675000Y-67050000D03*
X130325000Y-67050000D03*
X130975000Y-67050000D03*
X131625000Y-67050000D03*
X132275000Y-67050000D03*
X132275000Y-72950000D03*
X131625000Y-72950000D03*
X130975000Y-72950000D03*
X130325000Y-72950000D03*
X129675000Y-72950000D03*
X129025000Y-72950000D03*
X128375000Y-72950000D03*
X127725000Y-72950000D03*
D42*
X143555000Y-73901580D03*
X144825000Y-73901580D03*
X146095000Y-73901580D03*
X147365000Y-73901580D03*
X148635000Y-73901580D03*
X149905000Y-73901580D03*
X151175000Y-73901580D03*
X152445000Y-73901580D03*
X152445000Y-79098420D03*
X151175000Y-79098420D03*
X149905000Y-79098420D03*
X148635000Y-79098420D03*
X147365000Y-79098420D03*
X146095000Y-79098420D03*
X144825000Y-79098420D03*
X143555000Y-79098420D03*
X160305000Y-73651580D03*
X161575000Y-73651580D03*
X162845000Y-73651580D03*
X164115000Y-73651580D03*
X165385000Y-73651580D03*
X166655000Y-73651580D03*
X167925000Y-73651580D03*
X169195000Y-73651580D03*
X169195000Y-78848420D03*
X167925000Y-78848420D03*
X166655000Y-78848420D03*
X165385000Y-78848420D03*
X164115000Y-78848420D03*
X162845000Y-78848420D03*
X161575000Y-78848420D03*
X160305000Y-78848420D03*
D43*
X183848420Y-71805000D03*
X183848420Y-73075000D03*
X183848420Y-74345000D03*
X183848420Y-75615000D03*
X183848420Y-76885000D03*
X183848420Y-78155000D03*
X183848420Y-79425000D03*
X183848420Y-80695000D03*
X178651580Y-80695000D03*
X178651580Y-79425000D03*
X178651580Y-78155000D03*
X178651580Y-76885000D03*
X178651580Y-75615000D03*
X178651580Y-74345000D03*
X178651580Y-73075000D03*
X178651580Y-71805000D03*
D16*
X141556000Y-116705400D03*
X141556000Y-116070400D03*
X141556000Y-115410000D03*
X141556000Y-114775000D03*
X147144000Y-114775000D03*
X147144000Y-115422700D03*
X147144000Y-116070400D03*
X147144000Y-116718100D03*
X205056000Y-119455400D03*
X205056000Y-118820400D03*
X205056000Y-118160000D03*
X205056000Y-117525000D03*
X210644000Y-117525000D03*
X210644000Y-118172700D03*
X210644000Y-118820400D03*
X210644000Y-119468100D03*
D44*
X217800000Y-54950000D03*
X217800000Y-54300000D03*
X217800000Y-53650000D03*
X217800000Y-53000000D03*
X217800000Y-52350000D03*
X217800000Y-51700000D03*
X217800000Y-51050000D03*
X223700000Y-51050000D03*
X223700000Y-51700000D03*
X223700000Y-52350000D03*
X223700000Y-53000000D03*
X223700000Y-53650000D03*
X223700000Y-54300000D03*
X223700000Y-54950000D03*
D41*
X118225000Y-64550000D03*
X118875000Y-64550000D03*
X119525000Y-64550000D03*
X120175000Y-64550000D03*
X120825000Y-64550000D03*
X121475000Y-64550000D03*
X122125000Y-64550000D03*
X122775000Y-64550000D03*
X122775000Y-70450000D03*
X122125000Y-70450000D03*
X121475000Y-70450000D03*
X120825000Y-70450000D03*
X120175000Y-70450000D03*
X119525000Y-70450000D03*
X118875000Y-70450000D03*
X118225000Y-70450000D03*
D45*
X113500000Y-74200000D03*
D26*
X112500000Y-70950000D03*
X114500000Y-70950000D03*
D45*
X134250000Y-121200000D03*
D26*
X133250000Y-117950000D03*
X135250000Y-117950000D03*
D46*
X97550000Y-102750000D03*
D26*
X100800000Y-101750000D03*
X100800000Y-103750000D03*
D45*
X126500000Y-121200000D03*
D26*
X125500000Y-117950000D03*
X127500000Y-117950000D03*
D45*
X129000000Y-93950000D03*
D26*
X128000000Y-90700000D03*
X130000000Y-90700000D03*
D46*
X193950000Y-75250000D03*
D26*
X190700000Y-76250000D03*
X190700000Y-74250000D03*
D46*
X195300000Y-129750000D03*
D26*
X198550000Y-128750000D03*
X198550000Y-130750000D03*
D46*
X209200000Y-114750000D03*
D26*
X205950000Y-115750000D03*
X205950000Y-113750000D03*
D45*
X176500000Y-63800000D03*
D26*
X177500000Y-67050000D03*
X175500000Y-67050000D03*
D19*
X110250000Y-132649100D03*
X110250000Y-134350900D03*
D34*
X108000000Y-135000000D03*
X108000000Y-132000000D03*
X108000000Y-129000000D03*
D35*
X108000000Y-138500000D03*
X108000000Y-125500000D03*
D30*
X110500000Y-115750000D03*
D31*
X110500000Y-118290000D03*
X110500000Y-120830000D03*
D10*
G36*
X99341307Y-62341201D02*
X99833063Y-64176460D01*
X96838693Y-64978799D01*
X96346937Y-63143540D01*
X99341307Y-62341201D01*
X99341307Y-62341201D01*
G37*
G36*
X102994264Y-59302233D02*
X104337767Y-60645736D01*
X102145736Y-62837767D01*
X100802233Y-61494264D01*
X102994264Y-59302233D01*
X102994264Y-59302233D01*
G37*
G36*
X104643540Y-54846937D02*
X106478799Y-55338693D01*
X105676460Y-58333063D01*
X103841201Y-57841307D01*
X104643540Y-54846937D01*
X104643540Y-54846937D01*
G37*
G36*
X106478799Y-52661307D02*
X104643540Y-53153063D01*
X103841201Y-50158693D01*
X105676460Y-49666937D01*
X106478799Y-52661307D01*
X106478799Y-52661307D01*
G37*
G36*
X104337767Y-47354264D02*
X102994264Y-48697767D01*
X100802233Y-46505736D01*
X102145736Y-45162233D01*
X104337767Y-47354264D01*
X104337767Y-47354264D01*
G37*
G36*
X99833063Y-43823540D02*
X99341307Y-45658799D01*
X96346937Y-44856460D01*
X96838693Y-43021201D01*
X99833063Y-43823540D01*
X99833063Y-43823540D01*
G37*
G36*
X90692276Y-49432661D02*
X92337724Y-50382661D01*
X90787724Y-53067339D01*
X89142276Y-52117339D01*
X90692276Y-49432661D01*
X90692276Y-49432661D01*
G37*
G36*
X100212276Y-54932661D02*
X101857724Y-55882661D01*
X100307724Y-58567339D01*
X98662276Y-57617339D01*
X100212276Y-54932661D01*
X100212276Y-54932661D01*
G37*
G36*
X94653063Y-63143540D02*
X94161307Y-64978799D01*
X91166937Y-64176460D01*
X91658693Y-62341201D01*
X94653063Y-63143540D01*
X94653063Y-63143540D01*
G37*
G36*
X90197767Y-61494264D02*
X88854264Y-62837767D01*
X86662233Y-60645736D01*
X88005736Y-59302233D01*
X90197767Y-61494264D01*
X90197767Y-61494264D01*
G37*
G36*
X87158799Y-57841307D02*
X85323540Y-58333063D01*
X84521201Y-55338693D01*
X86356460Y-54846937D01*
X87158799Y-57841307D01*
X87158799Y-57841307D01*
G37*
G36*
X85323540Y-49666937D02*
X87158799Y-50158693D01*
X86356460Y-53153063D01*
X84521201Y-52661307D01*
X85323540Y-49666937D01*
X85323540Y-49666937D01*
G37*
G36*
X88854264Y-45162233D02*
X90197767Y-46505736D01*
X88005736Y-48697767D01*
X86662233Y-47354264D01*
X88854264Y-45162233D01*
X88854264Y-45162233D01*
G37*
G36*
X94161307Y-43021201D02*
X94653063Y-44856460D01*
X91658693Y-45658799D01*
X91166937Y-43823540D01*
X94161307Y-43021201D01*
X94161307Y-43021201D01*
G37*
D19*
X181250000Y-70100900D03*
X181250000Y-68399100D03*
D15*
X109250000Y-47000000D03*
D47*
X178650000Y-69750000D03*
X177350000Y-70250000D03*
X177350000Y-69250000D03*
X107900000Y-88500000D03*
X106600000Y-89000000D03*
X106600000Y-88000000D03*
D48*
X202500000Y-132400000D03*
X202000000Y-131100000D03*
X203000000Y-131100000D03*
X204750000Y-132400000D03*
X204250000Y-131100000D03*
X205250000Y-131100000D03*
D47*
X214400000Y-118500000D03*
X213100000Y-119000000D03*
X213100000Y-118000000D03*
D22*
X106750000Y-81480000D03*
X105797500Y-84020000D03*
X107702500Y-84020000D03*
D49*
X154050000Y-121750000D03*
X154050000Y-122700000D03*
X154050000Y-120800000D03*
X156450000Y-122700000D03*
X156450000Y-120800000D03*
D50*
X164750000Y-122700000D03*
X165700000Y-122700000D03*
X163800000Y-122700000D03*
X165700000Y-120300000D03*
X163800000Y-120300000D03*
D49*
X195550000Y-83750000D03*
X195550000Y-84700000D03*
X195550000Y-82800000D03*
X197950000Y-84700000D03*
X197950000Y-82800000D03*
X112050000Y-82750000D03*
X112050000Y-83700000D03*
X112050000Y-81800000D03*
X114450000Y-83700000D03*
X114450000Y-81800000D03*
D50*
X87250000Y-83300000D03*
X86300000Y-83300000D03*
X88200000Y-83300000D03*
X86300000Y-85700000D03*
X88200000Y-85700000D03*
X133250000Y-79200000D03*
X134200000Y-79200000D03*
X132300000Y-79200000D03*
X134200000Y-76800000D03*
X132300000Y-76800000D03*
D30*
X104000000Y-78250000D03*
D31*
X101460000Y-78250000D03*
X98920000Y-78250000D03*
X96380000Y-78250000D03*
X93840000Y-78250000D03*
X91300000Y-78250000D03*
X88760000Y-78250000D03*
X86220000Y-78250000D03*
D30*
X104000000Y-73250000D03*
D31*
X101460000Y-73250000D03*
X98920000Y-73250000D03*
X96380000Y-73250000D03*
X93840000Y-73250000D03*
X91300000Y-73250000D03*
X88760000Y-73250000D03*
X86220000Y-73250000D03*
D51*
X152750000Y-130250000D03*
X107700000Y-97050000D03*
X203750000Y-87250000D03*
X165000000Y-138100000D03*
D49*
X149300000Y-121750000D03*
X149300000Y-122700000D03*
X149300000Y-120800000D03*
X151700000Y-122700000D03*
X151700000Y-120800000D03*
D50*
X97500000Y-90800000D03*
X96550000Y-90800000D03*
X98450000Y-90800000D03*
X96550000Y-93200000D03*
X98450000Y-93200000D03*
D32*
X153500000Y-69300000D03*
X153500000Y-71200000D03*
X151500000Y-70250000D03*
X168750000Y-69050000D03*
X168750000Y-70950000D03*
X166750000Y-70000000D03*
X169250000Y-82300000D03*
X169250000Y-84200000D03*
X167250000Y-83250000D03*
D52*
X150300000Y-88000000D03*
X140700000Y-88000000D03*
D53*
X148000000Y-95500000D03*
X145500000Y-95500000D03*
X143000000Y-95500000D03*
D52*
X175300000Y-88000000D03*
X165700000Y-88000000D03*
D53*
X173000000Y-95500000D03*
X170500000Y-95500000D03*
X168000000Y-95500000D03*
D52*
X175300000Y-126000000D03*
X165700000Y-126000000D03*
D53*
X173000000Y-133500000D03*
X170500000Y-133500000D03*
X168000000Y-133500000D03*
D52*
X150300000Y-59000000D03*
X140700000Y-59000000D03*
D53*
X148000000Y-66500000D03*
X145500000Y-66500000D03*
X143000000Y-66500000D03*
D52*
X150300000Y-126000000D03*
X140700000Y-126000000D03*
D53*
X148000000Y-133500000D03*
X145500000Y-133500000D03*
X143000000Y-133500000D03*
D52*
X100300000Y-88000000D03*
X90700000Y-88000000D03*
D53*
X98000000Y-95500000D03*
X95500000Y-95500000D03*
X93000000Y-95500000D03*
D52*
X100300000Y-126000000D03*
X90700000Y-126000000D03*
D53*
X98000000Y-133500000D03*
X95500000Y-133500000D03*
X93000000Y-133500000D03*
D52*
X125300000Y-126000000D03*
X115700000Y-126000000D03*
D53*
X123000000Y-133500000D03*
X120500000Y-133500000D03*
X118000000Y-133500000D03*
D52*
X125300000Y-88000000D03*
X115700000Y-88000000D03*
D53*
X123000000Y-95500000D03*
X120500000Y-95500000D03*
X118000000Y-95500000D03*
D52*
X200300000Y-59000000D03*
X190700000Y-59000000D03*
D53*
X198000000Y-66500000D03*
X195500000Y-66500000D03*
X193000000Y-66500000D03*
D52*
X200300000Y-126000000D03*
X190700000Y-126000000D03*
D53*
X198000000Y-133500000D03*
X195500000Y-133500000D03*
X193000000Y-133500000D03*
D52*
X225300000Y-126000000D03*
X215700000Y-126000000D03*
D53*
X223000000Y-133500000D03*
X220500000Y-133500000D03*
X218000000Y-133500000D03*
D52*
X200300000Y-88000000D03*
X190700000Y-88000000D03*
D53*
X198000000Y-95500000D03*
X195500000Y-95500000D03*
X193000000Y-95500000D03*
D52*
X225300000Y-59000000D03*
X215700000Y-59000000D03*
D53*
X223000000Y-66500000D03*
X220500000Y-66500000D03*
X218000000Y-66500000D03*
D52*
X225300000Y-88000000D03*
X215700000Y-88000000D03*
D53*
X223000000Y-95500000D03*
X220500000Y-95500000D03*
X218000000Y-95500000D03*
D52*
X175300000Y-59000000D03*
X165700000Y-59000000D03*
D53*
X173000000Y-66500000D03*
X170500000Y-66500000D03*
X168000000Y-66500000D03*
D26*
X208000000Y-51730000D03*
D27*
X208000000Y-54270000D03*
D32*
X154750000Y-83050000D03*
X154750000Y-84950000D03*
X152750000Y-84000000D03*
D17*
X201549100Y-117700000D03*
X203250900Y-117700000D03*
D51*
X126200000Y-95700000D03*
X113600000Y-67400000D03*
X130900000Y-88300000D03*
D39*
X166500000Y-102700000D03*
D51*
X87500000Y-96600000D03*
M02*
