G04 #@! TF.FileFunction,Soldermask,Top*
%FSLAX46Y46*%
G04 Gerber Fmt 4.6, Leading zero omitted, Abs format (unit mm)*
G04 Created by KiCad (PCBNEW 4.0.2-stable) date 2018-05-24 9:25:08 AM*
%MOMM*%
G01*
G04 APERTURE LIST*
%ADD10C,0.200000*%
%ADD11O,2.600000X4.100000*%
%ADD12O,2.100000X2.600000*%
%ADD13O,3.600000X1.600000*%
%ADD14R,1.300000X1.300000*%
%ADD15C,1.300000*%
%ADD16R,1.800000X1.800000*%
%ADD17O,1.800000X1.800000*%
%ADD18C,1.624000*%
%ADD19R,1.600000X2.100000*%
%ADD20O,2.300000X1.500000*%
%ADD21O,2.350000X1.500000*%
%ADD22R,1.700000X2.900000*%
%ADD23C,1.900000*%
%ADD24O,2.900000X3.600000*%
%ADD25C,1.850000*%
%ADD26C,1.370000*%
G04 APERTURE END LIST*
D10*
D11*
X103300000Y-107500000D03*
D12*
X112700000Y-107500000D03*
D13*
X108000000Y-102600000D03*
X108000000Y-110800000D03*
D14*
X113000000Y-53770000D03*
D15*
X113000000Y-51230000D03*
D14*
X118000000Y-53770000D03*
D15*
X118000000Y-51230000D03*
D14*
X123000000Y-53770000D03*
D15*
X123000000Y-51230000D03*
D14*
X128000000Y-53770000D03*
D15*
X128000000Y-51230000D03*
D11*
X135800000Y-107500000D03*
D12*
X145200000Y-107500000D03*
D13*
X140500000Y-102600000D03*
X140500000Y-110800000D03*
D11*
X170800000Y-107500000D03*
D12*
X180200000Y-107500000D03*
D13*
X175500000Y-102600000D03*
X175500000Y-110800000D03*
D11*
X170800000Y-145500000D03*
D12*
X180200000Y-145500000D03*
D13*
X175500000Y-140600000D03*
X175500000Y-148800000D03*
D11*
X135800000Y-145500000D03*
D12*
X145200000Y-145500000D03*
D13*
X140500000Y-140600000D03*
X140500000Y-148800000D03*
D11*
X85800000Y-145500000D03*
D12*
X95200000Y-145500000D03*
D13*
X90500000Y-140600000D03*
X90500000Y-148800000D03*
D11*
X120800000Y-145500000D03*
D12*
X130200000Y-145500000D03*
D13*
X125500000Y-140600000D03*
X125500000Y-148800000D03*
D11*
X85800000Y-107500000D03*
D12*
X95200000Y-107500000D03*
D13*
X90500000Y-102600000D03*
X90500000Y-110800000D03*
D11*
X120800000Y-107500000D03*
D12*
X130200000Y-107500000D03*
D13*
X125500000Y-102600000D03*
X125500000Y-110800000D03*
D11*
X185800000Y-145500000D03*
D12*
X195200000Y-145500000D03*
D13*
X190500000Y-140600000D03*
X190500000Y-148800000D03*
D11*
X220800000Y-145500000D03*
D12*
X230200000Y-145500000D03*
D13*
X225500000Y-140600000D03*
X225500000Y-148800000D03*
D11*
X185800000Y-107500000D03*
D12*
X195200000Y-107500000D03*
D13*
X190500000Y-102600000D03*
X190500000Y-110800000D03*
D11*
X203300000Y-107500000D03*
D12*
X212700000Y-107500000D03*
D13*
X208000000Y-102600000D03*
X208000000Y-110800000D03*
D11*
X220800000Y-107500000D03*
D12*
X230200000Y-107500000D03*
D13*
X225500000Y-102600000D03*
X225500000Y-110800000D03*
D11*
X153300000Y-107500000D03*
D12*
X162700000Y-107500000D03*
D13*
X158000000Y-102600000D03*
X158000000Y-110800000D03*
D11*
X103300000Y-145500000D03*
D12*
X112700000Y-145500000D03*
D13*
X108000000Y-140600000D03*
X108000000Y-148800000D03*
D11*
X153300000Y-145500000D03*
D12*
X162700000Y-145500000D03*
D13*
X158000000Y-140600000D03*
X158000000Y-148800000D03*
D11*
X203300000Y-145500000D03*
D12*
X212700000Y-145500000D03*
D13*
X208000000Y-140600000D03*
X208000000Y-148800000D03*
D16*
X226500000Y-81750000D03*
D17*
X229040000Y-81750000D03*
X226500000Y-79210000D03*
X229040000Y-79210000D03*
X226500000Y-76670000D03*
X229040000Y-76670000D03*
X226500000Y-74130000D03*
X229040000Y-74130000D03*
X226500000Y-71590000D03*
X229040000Y-71590000D03*
D18*
X155000000Y-135500000D03*
X158000000Y-135500000D03*
X161000000Y-135500000D03*
D19*
X151500000Y-135500000D03*
X164500000Y-135500000D03*
D18*
X205000000Y-135500000D03*
X208000000Y-135500000D03*
X211000000Y-135500000D03*
D19*
X201500000Y-135500000D03*
X214500000Y-135500000D03*
D20*
X117250000Y-56750000D03*
X117250000Y-61250000D03*
D21*
X123750000Y-56750000D03*
X123750000Y-61250000D03*
D22*
X166500000Y-107500000D03*
D18*
X111000000Y-135500000D03*
X108000000Y-135500000D03*
X105000000Y-135500000D03*
D19*
X114500000Y-135500000D03*
X101500000Y-135500000D03*
D16*
X110500000Y-115750000D03*
D17*
X110500000Y-118290000D03*
X110500000Y-120830000D03*
D16*
X104000000Y-78250000D03*
D17*
X101460000Y-78250000D03*
X98920000Y-78250000D03*
X96380000Y-78250000D03*
X93840000Y-78250000D03*
X91300000Y-78250000D03*
X88760000Y-78250000D03*
X86220000Y-78250000D03*
D23*
X152750000Y-128750000D03*
X107700000Y-97050000D03*
X203750000Y-86750000D03*
X165500000Y-140000000D03*
D24*
X150300000Y-88000000D03*
X140700000Y-88000000D03*
D25*
X148000000Y-95500000D03*
X145500000Y-95500000D03*
X143000000Y-95500000D03*
D24*
X175300000Y-88000000D03*
X165700000Y-88000000D03*
D25*
X173000000Y-95500000D03*
X170500000Y-95500000D03*
X168000000Y-95500000D03*
D24*
X175300000Y-126000000D03*
X165700000Y-126000000D03*
D25*
X173000000Y-133500000D03*
X170500000Y-133500000D03*
X168000000Y-133500000D03*
D24*
X150300000Y-59000000D03*
X140700000Y-59000000D03*
D25*
X148000000Y-66500000D03*
X145500000Y-66500000D03*
X143000000Y-66500000D03*
D24*
X150300000Y-126000000D03*
X140700000Y-126000000D03*
D25*
X148000000Y-133500000D03*
X145500000Y-133500000D03*
X143000000Y-133500000D03*
D24*
X100300000Y-88000000D03*
X90700000Y-88000000D03*
D25*
X98000000Y-95500000D03*
X95500000Y-95500000D03*
X93000000Y-95500000D03*
D24*
X100300000Y-126000000D03*
X90700000Y-126000000D03*
D25*
X98000000Y-133500000D03*
X95500000Y-133500000D03*
X93000000Y-133500000D03*
D24*
X125300000Y-126000000D03*
X115700000Y-126000000D03*
D25*
X123000000Y-133500000D03*
X120500000Y-133500000D03*
X118000000Y-133500000D03*
D24*
X125300000Y-88000000D03*
X115700000Y-88000000D03*
D25*
X123000000Y-95500000D03*
X120500000Y-95500000D03*
X118000000Y-95500000D03*
D24*
X200300000Y-59000000D03*
X190700000Y-59000000D03*
D25*
X198000000Y-66500000D03*
X195500000Y-66500000D03*
X193000000Y-66500000D03*
D24*
X200300000Y-126000000D03*
X190700000Y-126000000D03*
D25*
X198000000Y-133500000D03*
X195500000Y-133500000D03*
X193000000Y-133500000D03*
D24*
X225300000Y-126000000D03*
X215700000Y-126000000D03*
D25*
X223000000Y-133500000D03*
X220500000Y-133500000D03*
X218000000Y-133500000D03*
D24*
X200300000Y-88000000D03*
X190700000Y-88000000D03*
D25*
X198000000Y-95500000D03*
X195500000Y-95500000D03*
X193000000Y-95500000D03*
D24*
X225300000Y-59000000D03*
X215700000Y-59000000D03*
D25*
X223000000Y-66500000D03*
X220500000Y-66500000D03*
X218000000Y-66500000D03*
D24*
X225300000Y-88000000D03*
X215700000Y-88000000D03*
D25*
X223000000Y-95500000D03*
X220500000Y-95500000D03*
X218000000Y-95500000D03*
D24*
X175300000Y-59000000D03*
X165700000Y-59000000D03*
D25*
X173000000Y-66500000D03*
X170500000Y-66500000D03*
X168000000Y-66500000D03*
D14*
X208000000Y-57730000D03*
D15*
X208000000Y-60270000D03*
D23*
X126200000Y-95700000D03*
X113600000Y-67400000D03*
X130900000Y-88300000D03*
D22*
X166500000Y-102700000D03*
D23*
X87500000Y-96600000D03*
D14*
X208000000Y-53770000D03*
D15*
X208000000Y-51230000D03*
D16*
X186250000Y-59000000D03*
D17*
X183710000Y-59000000D03*
X181170000Y-59000000D03*
D16*
X180500000Y-134750000D03*
D17*
X180500000Y-137290000D03*
X183040000Y-134750000D03*
X183040000Y-137290000D03*
X185580000Y-134750000D03*
X185580000Y-137290000D03*
D26*
X99250000Y-106500000D03*
X99250000Y-109040000D03*
X99250000Y-103960000D03*
X149000000Y-107250000D03*
X149000000Y-104710000D03*
X149000000Y-109790000D03*
X92320000Y-98700000D03*
X89780000Y-98700000D03*
X94860000Y-98700000D03*
M02*
