G04 #@! TF.FileFunction,Soldermask,Top*
%FSLAX46Y46*%
G04 Gerber Fmt 4.6, Leading zero omitted, Abs format (unit mm)*
G04 Created by KiCad (PCBNEW 4.0.2-stable) date 2018-01-25 5:15:59 PM*
%MOMM*%
G01*
G04 APERTURE LIST*
%ADD10C,0.200000*%
%ADD11C,1.400000*%
%ADD12O,2.600000X4.100000*%
%ADD13O,2.100000X2.600000*%
%ADD14O,3.600000X1.600000*%
%ADD15R,1.300000X1.300000*%
%ADD16C,1.300000*%
%ADD17R,1.800000X1.800000*%
%ADD18O,1.800000X1.800000*%
%ADD19C,1.624000*%
%ADD20R,1.600000X2.100000*%
%ADD21O,2.300000X1.500000*%
%ADD22O,2.350000X1.500000*%
%ADD23R,1.700000X2.900000*%
%ADD24C,1.900000*%
%ADD25O,2.900000X3.600000*%
%ADD26C,1.850000*%
%ADD27C,1.370000*%
G04 APERTURE END LIST*
D10*
D11*
X109248673Y-47057873D03*
X109248673Y-48757873D03*
X85100000Y-75750000D03*
X86800000Y-75750000D03*
D12*
X103300000Y-107500000D03*
D13*
X112700000Y-107500000D03*
D14*
X108000000Y-102600000D03*
X108000000Y-110800000D03*
D15*
X113000000Y-53770000D03*
D16*
X113000000Y-51230000D03*
D15*
X118000000Y-53770000D03*
D16*
X118000000Y-51230000D03*
D15*
X123000000Y-53770000D03*
D16*
X123000000Y-51230000D03*
D15*
X128000000Y-53770000D03*
D16*
X128000000Y-51230000D03*
D12*
X135800000Y-107500000D03*
D13*
X145200000Y-107500000D03*
D14*
X140500000Y-102600000D03*
X140500000Y-110800000D03*
D12*
X170800000Y-107500000D03*
D13*
X180200000Y-107500000D03*
D14*
X175500000Y-102600000D03*
X175500000Y-110800000D03*
D12*
X170800000Y-145500000D03*
D13*
X180200000Y-145500000D03*
D14*
X175500000Y-140600000D03*
X175500000Y-148800000D03*
D12*
X135800000Y-145500000D03*
D13*
X145200000Y-145500000D03*
D14*
X140500000Y-140600000D03*
X140500000Y-148800000D03*
D12*
X85800000Y-145500000D03*
D13*
X95200000Y-145500000D03*
D14*
X90500000Y-140600000D03*
X90500000Y-148800000D03*
D12*
X120800000Y-145500000D03*
D13*
X130200000Y-145500000D03*
D14*
X125500000Y-140600000D03*
X125500000Y-148800000D03*
D12*
X85800000Y-107500000D03*
D13*
X95200000Y-107500000D03*
D14*
X90500000Y-102600000D03*
X90500000Y-110800000D03*
D12*
X120800000Y-107500000D03*
D13*
X130200000Y-107500000D03*
D14*
X125500000Y-102600000D03*
X125500000Y-110800000D03*
D12*
X185800000Y-145500000D03*
D13*
X195200000Y-145500000D03*
D14*
X190500000Y-140600000D03*
X190500000Y-148800000D03*
D12*
X220800000Y-145500000D03*
D13*
X230200000Y-145500000D03*
D14*
X225500000Y-140600000D03*
X225500000Y-148800000D03*
D12*
X185800000Y-107500000D03*
D13*
X195200000Y-107500000D03*
D14*
X190500000Y-102600000D03*
X190500000Y-110800000D03*
D12*
X203300000Y-107500000D03*
D13*
X212700000Y-107500000D03*
D14*
X208000000Y-102600000D03*
X208000000Y-110800000D03*
D12*
X220800000Y-107500000D03*
D13*
X230200000Y-107500000D03*
D14*
X225500000Y-102600000D03*
X225500000Y-110800000D03*
D12*
X153300000Y-107500000D03*
D13*
X162700000Y-107500000D03*
D14*
X158000000Y-102600000D03*
X158000000Y-110800000D03*
D12*
X103300000Y-145500000D03*
D13*
X112700000Y-145500000D03*
D14*
X108000000Y-140600000D03*
X108000000Y-148800000D03*
D12*
X153300000Y-145500000D03*
D13*
X162700000Y-145500000D03*
D14*
X158000000Y-140600000D03*
X158000000Y-148800000D03*
D12*
X203300000Y-145500000D03*
D13*
X212700000Y-145500000D03*
D14*
X208000000Y-140600000D03*
X208000000Y-148800000D03*
D17*
X226500000Y-81750000D03*
D18*
X229040000Y-81750000D03*
X226500000Y-79210000D03*
X229040000Y-79210000D03*
X226500000Y-76670000D03*
X229040000Y-76670000D03*
X226500000Y-74130000D03*
X229040000Y-74130000D03*
X226500000Y-71590000D03*
X229040000Y-71590000D03*
D19*
X154500000Y-135500000D03*
X157500000Y-135500000D03*
X160500000Y-135500000D03*
D20*
X151000000Y-135500000D03*
X164000000Y-135500000D03*
D19*
X205000000Y-135500000D03*
X208000000Y-135500000D03*
X211000000Y-135500000D03*
D20*
X201500000Y-135500000D03*
X214500000Y-135500000D03*
D21*
X117250000Y-56750000D03*
X117250000Y-61250000D03*
D22*
X123750000Y-56750000D03*
X123750000Y-61250000D03*
D23*
X166500000Y-107500000D03*
D19*
X111000000Y-135500000D03*
X108000000Y-135500000D03*
X105000000Y-135500000D03*
D20*
X114500000Y-135500000D03*
X101500000Y-135500000D03*
D17*
X110500000Y-115750000D03*
D18*
X110500000Y-118290000D03*
X110500000Y-120830000D03*
D10*
G36*
X99341307Y-62341201D02*
X99833063Y-64176460D01*
X96838693Y-64978799D01*
X96346937Y-63143540D01*
X99341307Y-62341201D01*
X99341307Y-62341201D01*
G37*
G36*
X102994264Y-59302233D02*
X104337767Y-60645736D01*
X102145736Y-62837767D01*
X100802233Y-61494264D01*
X102994264Y-59302233D01*
X102994264Y-59302233D01*
G37*
G36*
X104643540Y-54846937D02*
X106478799Y-55338693D01*
X105676460Y-58333063D01*
X103841201Y-57841307D01*
X104643540Y-54846937D01*
X104643540Y-54846937D01*
G37*
G36*
X106478799Y-52661307D02*
X104643540Y-53153063D01*
X103841201Y-50158693D01*
X105676460Y-49666937D01*
X106478799Y-52661307D01*
X106478799Y-52661307D01*
G37*
G36*
X104337767Y-47354264D02*
X102994264Y-48697767D01*
X100802233Y-46505736D01*
X102145736Y-45162233D01*
X104337767Y-47354264D01*
X104337767Y-47354264D01*
G37*
G36*
X99833063Y-43823540D02*
X99341307Y-45658799D01*
X96346937Y-44856460D01*
X96838693Y-43021201D01*
X99833063Y-43823540D01*
X99833063Y-43823540D01*
G37*
G36*
X90692276Y-49432661D02*
X92337724Y-50382661D01*
X90787724Y-53067339D01*
X89142276Y-52117339D01*
X90692276Y-49432661D01*
X90692276Y-49432661D01*
G37*
G36*
X100212276Y-54932661D02*
X101857724Y-55882661D01*
X100307724Y-58567339D01*
X98662276Y-57617339D01*
X100212276Y-54932661D01*
X100212276Y-54932661D01*
G37*
G36*
X94653063Y-63143540D02*
X94161307Y-64978799D01*
X91166937Y-64176460D01*
X91658693Y-62341201D01*
X94653063Y-63143540D01*
X94653063Y-63143540D01*
G37*
G36*
X90197767Y-61494264D02*
X88854264Y-62837767D01*
X86662233Y-60645736D01*
X88005736Y-59302233D01*
X90197767Y-61494264D01*
X90197767Y-61494264D01*
G37*
G36*
X87158799Y-57841307D02*
X85323540Y-58333063D01*
X84521201Y-55338693D01*
X86356460Y-54846937D01*
X87158799Y-57841307D01*
X87158799Y-57841307D01*
G37*
G36*
X85323540Y-49666937D02*
X87158799Y-50158693D01*
X86356460Y-53153063D01*
X84521201Y-52661307D01*
X85323540Y-49666937D01*
X85323540Y-49666937D01*
G37*
G36*
X88854264Y-45162233D02*
X90197767Y-46505736D01*
X88005736Y-48697767D01*
X86662233Y-47354264D01*
X88854264Y-45162233D01*
X88854264Y-45162233D01*
G37*
G36*
X94161307Y-43021201D02*
X94653063Y-44856460D01*
X91658693Y-45658799D01*
X91166937Y-43823540D01*
X94161307Y-43021201D01*
X94161307Y-43021201D01*
G37*
D17*
X104000000Y-78250000D03*
D18*
X101460000Y-78250000D03*
X98920000Y-78250000D03*
X96380000Y-78250000D03*
X93840000Y-78250000D03*
X91300000Y-78250000D03*
X88760000Y-78250000D03*
X86220000Y-78250000D03*
D17*
X104000000Y-73250000D03*
D18*
X101460000Y-73250000D03*
X98920000Y-73250000D03*
X96380000Y-73250000D03*
X93840000Y-73250000D03*
X91300000Y-73250000D03*
X88760000Y-73250000D03*
X86220000Y-73250000D03*
D24*
X152750000Y-130250000D03*
X107700000Y-97050000D03*
X203750000Y-86750000D03*
X165500000Y-140000000D03*
D25*
X150300000Y-88000000D03*
X140700000Y-88000000D03*
D26*
X148000000Y-95500000D03*
X145500000Y-95500000D03*
X143000000Y-95500000D03*
D25*
X175300000Y-88000000D03*
X165700000Y-88000000D03*
D26*
X173000000Y-95500000D03*
X170500000Y-95500000D03*
X168000000Y-95500000D03*
D25*
X175300000Y-126000000D03*
X165700000Y-126000000D03*
D26*
X173000000Y-133500000D03*
X170500000Y-133500000D03*
X168000000Y-133500000D03*
D25*
X150300000Y-59000000D03*
X140700000Y-59000000D03*
D26*
X148000000Y-66500000D03*
X145500000Y-66500000D03*
X143000000Y-66500000D03*
D25*
X150300000Y-126000000D03*
X140700000Y-126000000D03*
D26*
X148000000Y-133500000D03*
X145500000Y-133500000D03*
X143000000Y-133500000D03*
D25*
X100300000Y-88000000D03*
X90700000Y-88000000D03*
D26*
X98000000Y-95500000D03*
X95500000Y-95500000D03*
X93000000Y-95500000D03*
D25*
X100300000Y-126000000D03*
X90700000Y-126000000D03*
D26*
X98000000Y-133500000D03*
X95500000Y-133500000D03*
X93000000Y-133500000D03*
D25*
X125300000Y-126000000D03*
X115700000Y-126000000D03*
D26*
X123000000Y-133500000D03*
X120500000Y-133500000D03*
X118000000Y-133500000D03*
D25*
X125300000Y-88000000D03*
X115700000Y-88000000D03*
D26*
X123000000Y-95500000D03*
X120500000Y-95500000D03*
X118000000Y-95500000D03*
D25*
X200300000Y-59000000D03*
X190700000Y-59000000D03*
D26*
X198000000Y-66500000D03*
X195500000Y-66500000D03*
X193000000Y-66500000D03*
D25*
X200300000Y-126000000D03*
X190700000Y-126000000D03*
D26*
X198000000Y-133500000D03*
X195500000Y-133500000D03*
X193000000Y-133500000D03*
D25*
X225300000Y-126000000D03*
X215700000Y-126000000D03*
D26*
X223000000Y-133500000D03*
X220500000Y-133500000D03*
X218000000Y-133500000D03*
D25*
X200300000Y-88000000D03*
X190700000Y-88000000D03*
D26*
X198000000Y-95500000D03*
X195500000Y-95500000D03*
X193000000Y-95500000D03*
D25*
X225300000Y-59000000D03*
X215700000Y-59000000D03*
D26*
X223000000Y-66500000D03*
X220500000Y-66500000D03*
X218000000Y-66500000D03*
D25*
X225300000Y-88000000D03*
X215700000Y-88000000D03*
D26*
X223000000Y-95500000D03*
X220500000Y-95500000D03*
X218000000Y-95500000D03*
D25*
X175300000Y-59000000D03*
X165700000Y-59000000D03*
D26*
X173000000Y-66500000D03*
X170500000Y-66500000D03*
X168000000Y-66500000D03*
D15*
X208000000Y-57730000D03*
D16*
X208000000Y-60270000D03*
D24*
X126200000Y-95700000D03*
X113600000Y-67400000D03*
X130900000Y-88300000D03*
D23*
X166500000Y-102700000D03*
D24*
X87500000Y-96600000D03*
D15*
X208000000Y-53770000D03*
D16*
X208000000Y-51230000D03*
D17*
X186250000Y-59000000D03*
D18*
X183710000Y-59000000D03*
X181170000Y-59000000D03*
D17*
X180500000Y-134750000D03*
D18*
X180500000Y-137290000D03*
X183040000Y-134750000D03*
X183040000Y-137290000D03*
X185580000Y-134750000D03*
X185580000Y-137290000D03*
D27*
X99250000Y-106500000D03*
X99250000Y-109040000D03*
X99250000Y-103960000D03*
X149000000Y-107250000D03*
X149000000Y-104710000D03*
X149000000Y-109790000D03*
X92320000Y-98700000D03*
X89780000Y-98700000D03*
X94860000Y-98700000D03*
M02*
