G04 #@! TF.FileFunction,Copper,L2,Inr,Plane*
%FSLAX46Y46*%
G04 Gerber Fmt 4.6, Leading zero omitted, Abs format (unit mm)*
G04 Created by KiCad (PCBNEW 4.0.2-stable) date 2018-05-24 9:25:07 AM*
%MOMM*%
G01*
G04 APERTURE LIST*
%ADD10C,0.200000*%
%ADD11O,2.500000X4.000000*%
%ADD12O,2.000000X2.500000*%
%ADD13O,3.500000X1.500000*%
%ADD14R,1.200000X1.200000*%
%ADD15C,1.200000*%
%ADD16R,1.700000X1.700000*%
%ADD17O,1.700000X1.700000*%
%ADD18C,1.524000*%
%ADD19R,1.500000X2.000000*%
%ADD20O,2.200000X1.400000*%
%ADD21O,2.250000X1.400000*%
%ADD22R,1.600000X2.800000*%
%ADD23C,1.800000*%
%ADD24O,2.800000X3.500000*%
%ADD25C,1.750000*%
%ADD26C,1.270000*%
%ADD27C,0.900000*%
%ADD28C,0.800000*%
%ADD29C,0.800000*%
%ADD30C,0.350000*%
%ADD31C,0.400000*%
%ADD32C,1.000000*%
%ADD33C,0.500000*%
%ADD34C,0.203200*%
G04 APERTURE END LIST*
D10*
D11*
X103300000Y-107500000D03*
D12*
X112700000Y-107500000D03*
D13*
X108000000Y-102600000D03*
X108000000Y-110800000D03*
D14*
X113000000Y-53770000D03*
D15*
X113000000Y-51230000D03*
D14*
X118000000Y-53770000D03*
D15*
X118000000Y-51230000D03*
D14*
X123000000Y-53770000D03*
D15*
X123000000Y-51230000D03*
D14*
X128000000Y-53770000D03*
D15*
X128000000Y-51230000D03*
D11*
X135800000Y-107500000D03*
D12*
X145200000Y-107500000D03*
D13*
X140500000Y-102600000D03*
X140500000Y-110800000D03*
D11*
X170800000Y-107500000D03*
D12*
X180200000Y-107500000D03*
D13*
X175500000Y-102600000D03*
X175500000Y-110800000D03*
D11*
X170800000Y-145500000D03*
D12*
X180200000Y-145500000D03*
D13*
X175500000Y-140600000D03*
X175500000Y-148800000D03*
D11*
X135800000Y-145500000D03*
D12*
X145200000Y-145500000D03*
D13*
X140500000Y-140600000D03*
X140500000Y-148800000D03*
D11*
X85800000Y-145500000D03*
D12*
X95200000Y-145500000D03*
D13*
X90500000Y-140600000D03*
X90500000Y-148800000D03*
D11*
X120800000Y-145500000D03*
D12*
X130200000Y-145500000D03*
D13*
X125500000Y-140600000D03*
X125500000Y-148800000D03*
D11*
X85800000Y-107500000D03*
D12*
X95200000Y-107500000D03*
D13*
X90500000Y-102600000D03*
X90500000Y-110800000D03*
D11*
X120800000Y-107500000D03*
D12*
X130200000Y-107500000D03*
D13*
X125500000Y-102600000D03*
X125500000Y-110800000D03*
D11*
X185800000Y-145500000D03*
D12*
X195200000Y-145500000D03*
D13*
X190500000Y-140600000D03*
X190500000Y-148800000D03*
D11*
X220800000Y-145500000D03*
D12*
X230200000Y-145500000D03*
D13*
X225500000Y-140600000D03*
X225500000Y-148800000D03*
D11*
X185800000Y-107500000D03*
D12*
X195200000Y-107500000D03*
D13*
X190500000Y-102600000D03*
X190500000Y-110800000D03*
D11*
X203300000Y-107500000D03*
D12*
X212700000Y-107500000D03*
D13*
X208000000Y-102600000D03*
X208000000Y-110800000D03*
D11*
X220800000Y-107500000D03*
D12*
X230200000Y-107500000D03*
D13*
X225500000Y-102600000D03*
X225500000Y-110800000D03*
D11*
X153300000Y-107500000D03*
D12*
X162700000Y-107500000D03*
D13*
X158000000Y-102600000D03*
X158000000Y-110800000D03*
D11*
X103300000Y-145500000D03*
D12*
X112700000Y-145500000D03*
D13*
X108000000Y-140600000D03*
X108000000Y-148800000D03*
D11*
X153300000Y-145500000D03*
D12*
X162700000Y-145500000D03*
D13*
X158000000Y-140600000D03*
X158000000Y-148800000D03*
D11*
X203300000Y-145500000D03*
D12*
X212700000Y-145500000D03*
D13*
X208000000Y-140600000D03*
X208000000Y-148800000D03*
D16*
X226500000Y-81750000D03*
D17*
X229040000Y-81750000D03*
X226500000Y-79210000D03*
X229040000Y-79210000D03*
X226500000Y-76670000D03*
X229040000Y-76670000D03*
X226500000Y-74130000D03*
X229040000Y-74130000D03*
X226500000Y-71590000D03*
X229040000Y-71590000D03*
D18*
X155000000Y-135500000D03*
X158000000Y-135500000D03*
X161000000Y-135500000D03*
D19*
X151500000Y-135500000D03*
X164500000Y-135500000D03*
D18*
X205000000Y-135500000D03*
X208000000Y-135500000D03*
X211000000Y-135500000D03*
D19*
X201500000Y-135500000D03*
X214500000Y-135500000D03*
D20*
X117250000Y-56750000D03*
X117250000Y-61250000D03*
D21*
X123750000Y-56750000D03*
X123750000Y-61250000D03*
D22*
X166500000Y-107500000D03*
D18*
X111000000Y-135500000D03*
X108000000Y-135500000D03*
X105000000Y-135500000D03*
D19*
X114500000Y-135500000D03*
X101500000Y-135500000D03*
D16*
X110500000Y-115750000D03*
D17*
X110500000Y-118290000D03*
X110500000Y-120830000D03*
D16*
X104000000Y-78250000D03*
D17*
X101460000Y-78250000D03*
X98920000Y-78250000D03*
X96380000Y-78250000D03*
X93840000Y-78250000D03*
X91300000Y-78250000D03*
X88760000Y-78250000D03*
X86220000Y-78250000D03*
D23*
X152750000Y-128750000D03*
X107700000Y-97050000D03*
X203750000Y-86750000D03*
X165500000Y-140000000D03*
D24*
X150300000Y-88000000D03*
X140700000Y-88000000D03*
D25*
X148000000Y-95500000D03*
X145500000Y-95500000D03*
X143000000Y-95500000D03*
D24*
X175300000Y-88000000D03*
X165700000Y-88000000D03*
D25*
X173000000Y-95500000D03*
X170500000Y-95500000D03*
X168000000Y-95500000D03*
D24*
X175300000Y-126000000D03*
X165700000Y-126000000D03*
D25*
X173000000Y-133500000D03*
X170500000Y-133500000D03*
X168000000Y-133500000D03*
D24*
X150300000Y-59000000D03*
X140700000Y-59000000D03*
D25*
X148000000Y-66500000D03*
X145500000Y-66500000D03*
X143000000Y-66500000D03*
D24*
X150300000Y-126000000D03*
X140700000Y-126000000D03*
D25*
X148000000Y-133500000D03*
X145500000Y-133500000D03*
X143000000Y-133500000D03*
D24*
X100300000Y-88000000D03*
X90700000Y-88000000D03*
D25*
X98000000Y-95500000D03*
X95500000Y-95500000D03*
X93000000Y-95500000D03*
D24*
X100300000Y-126000000D03*
X90700000Y-126000000D03*
D25*
X98000000Y-133500000D03*
X95500000Y-133500000D03*
X93000000Y-133500000D03*
D24*
X125300000Y-126000000D03*
X115700000Y-126000000D03*
D25*
X123000000Y-133500000D03*
X120500000Y-133500000D03*
X118000000Y-133500000D03*
D24*
X125300000Y-88000000D03*
X115700000Y-88000000D03*
D25*
X123000000Y-95500000D03*
X120500000Y-95500000D03*
X118000000Y-95500000D03*
D24*
X200300000Y-59000000D03*
X190700000Y-59000000D03*
D25*
X198000000Y-66500000D03*
X195500000Y-66500000D03*
X193000000Y-66500000D03*
D24*
X200300000Y-126000000D03*
X190700000Y-126000000D03*
D25*
X198000000Y-133500000D03*
X195500000Y-133500000D03*
X193000000Y-133500000D03*
D24*
X225300000Y-126000000D03*
X215700000Y-126000000D03*
D25*
X223000000Y-133500000D03*
X220500000Y-133500000D03*
X218000000Y-133500000D03*
D24*
X200300000Y-88000000D03*
X190700000Y-88000000D03*
D25*
X198000000Y-95500000D03*
X195500000Y-95500000D03*
X193000000Y-95500000D03*
D24*
X225300000Y-59000000D03*
X215700000Y-59000000D03*
D25*
X223000000Y-66500000D03*
X220500000Y-66500000D03*
X218000000Y-66500000D03*
D24*
X225300000Y-88000000D03*
X215700000Y-88000000D03*
D25*
X223000000Y-95500000D03*
X220500000Y-95500000D03*
X218000000Y-95500000D03*
D24*
X175300000Y-59000000D03*
X165700000Y-59000000D03*
D25*
X173000000Y-66500000D03*
X170500000Y-66500000D03*
X168000000Y-66500000D03*
D14*
X208000000Y-57730000D03*
D15*
X208000000Y-60270000D03*
D23*
X126200000Y-95700000D03*
X113600000Y-67400000D03*
X130900000Y-88300000D03*
D22*
X166500000Y-102700000D03*
D23*
X87500000Y-96600000D03*
D14*
X208000000Y-53770000D03*
D15*
X208000000Y-51230000D03*
D16*
X186250000Y-59000000D03*
D17*
X183710000Y-59000000D03*
X181170000Y-59000000D03*
D16*
X180500000Y-134750000D03*
D17*
X180500000Y-137290000D03*
X183040000Y-134750000D03*
X183040000Y-137290000D03*
X185580000Y-134750000D03*
X185580000Y-137290000D03*
D26*
X99250000Y-106500000D03*
X99250000Y-109040000D03*
X99250000Y-103960000D03*
X149000000Y-107250000D03*
X149000000Y-104710000D03*
X149000000Y-109790000D03*
X92320000Y-98700000D03*
X89780000Y-98700000D03*
X94860000Y-98700000D03*
D27*
X185050000Y-83150000D03*
X220300000Y-61400000D03*
X216150000Y-54400000D03*
X225650000Y-48700000D03*
X218500000Y-48000000D03*
X216000000Y-78999998D03*
X214200000Y-76700000D03*
X215100000Y-76700000D03*
X216000000Y-76700000D03*
X215100000Y-79000000D03*
X214200000Y-79000000D03*
X214200000Y-74400000D03*
X215100000Y-74400000D03*
X216000000Y-74400000D03*
X128700000Y-96900000D03*
X137450000Y-115400000D03*
X94000000Y-88850000D03*
X89800000Y-83650000D03*
X136237826Y-75500000D03*
X104325020Y-88500000D03*
X123900004Y-75400000D03*
X126100000Y-80200001D03*
X155400000Y-81599996D03*
X173900000Y-80000000D03*
X116400000Y-98700000D03*
X149300000Y-119779980D03*
X149977011Y-68701750D03*
X163242045Y-68449980D03*
X153150000Y-113200000D03*
X108450000Y-87500000D03*
X139150000Y-95250000D03*
X108100000Y-138500000D03*
X214700000Y-49750000D03*
X228950000Y-55750000D03*
X204650000Y-52600000D03*
X121982524Y-62682524D03*
X187600000Y-115450000D03*
X123550000Y-90000000D03*
X107200000Y-95300000D03*
X158700000Y-84150002D03*
X129100000Y-88000000D03*
X200500000Y-117700000D03*
X213850000Y-120400000D03*
X99250000Y-90800000D03*
X152650000Y-123300000D03*
X133350000Y-72950000D03*
X135300000Y-67000000D03*
X134300000Y-67000000D03*
X133300000Y-67000000D03*
X146100000Y-72200000D03*
X122750000Y-67700000D03*
X172700000Y-73500000D03*
X143050000Y-124000000D03*
X166950000Y-84850000D03*
D28*
X172239349Y-93850020D03*
X221100000Y-57400000D03*
D27*
X229000000Y-54400000D03*
X219650000Y-51150000D03*
X169599998Y-85500000D03*
X95250000Y-85300001D03*
X118200000Y-106800000D03*
X108650000Y-78550000D03*
X206400000Y-138500002D03*
X216900000Y-70300000D03*
X216000000Y-70300000D03*
X215100000Y-70300000D03*
X214200000Y-70300000D03*
X214200000Y-69300000D03*
X215100000Y-69300000D03*
X216000000Y-69300000D03*
X216900000Y-69300000D03*
X116525000Y-72874998D03*
X135087806Y-76721439D03*
X210300000Y-69300000D03*
X209300000Y-69300000D03*
X208400000Y-69300000D03*
X207400000Y-69300000D03*
X206500000Y-69300000D03*
X205600000Y-69300000D03*
X204700000Y-69300000D03*
X204700000Y-70300000D03*
X205600000Y-70300000D03*
X206500000Y-70300000D03*
X207400000Y-70300000D03*
X208400000Y-70300000D03*
X209300000Y-70300000D03*
X210300000Y-70300000D03*
X181259408Y-126041582D03*
X181350000Y-118250000D03*
X156850000Y-123750000D03*
X165700000Y-119500000D03*
X147150000Y-117500000D03*
X134150000Y-97950000D03*
X115750000Y-95550000D03*
X212200000Y-122900000D03*
X112200000Y-138450000D03*
X127900000Y-87150000D03*
X114450000Y-82900000D03*
X175600000Y-79600000D03*
X166650000Y-80550000D03*
X156600000Y-84950000D03*
X149900000Y-80800000D03*
X170050000Y-71050020D03*
X135650000Y-69200000D03*
X131000000Y-74400000D03*
X127750000Y-74450000D03*
X153800000Y-72000000D03*
X181250000Y-67350000D03*
X86250000Y-84750000D03*
X198000000Y-85750000D03*
X198000000Y-77000000D03*
X221000000Y-80600000D03*
X227750000Y-57650000D03*
X205350000Y-131950000D03*
X216900000Y-83900000D03*
X216000000Y-83900000D03*
X215100002Y-83900000D03*
X214200000Y-83900000D03*
X209400000Y-83900000D03*
X209399996Y-82700000D03*
X210300002Y-82700000D03*
X210300000Y-83900000D03*
X140400000Y-114584980D03*
X216900000Y-82700000D03*
X216000000Y-82700000D03*
X215100000Y-82700000D03*
X214200000Y-82700000D03*
X119149998Y-74350000D03*
X93000000Y-83050000D03*
X130500000Y-80250000D03*
X117600000Y-137100000D03*
X189300000Y-122700000D03*
X164750000Y-123700000D03*
X153100000Y-121750000D03*
X156750000Y-117250000D03*
X184600000Y-122250000D03*
X206400000Y-117500000D03*
X163500000Y-81400000D03*
X166650000Y-72000000D03*
X152300000Y-65900000D03*
X149900000Y-72250000D03*
X118300000Y-81800000D03*
X111000000Y-82800000D03*
X127150000Y-64650000D03*
X193200000Y-83700000D03*
X195500000Y-80100000D03*
X102900000Y-91400000D03*
X147450000Y-81600000D03*
X111750000Y-100000014D03*
X128500000Y-100000000D03*
X128500000Y-100900000D03*
X128500000Y-101800000D03*
X103500000Y-87250000D03*
X113500000Y-75499982D03*
X135249996Y-116500000D03*
X130900000Y-99100000D03*
X133249997Y-116500003D03*
X133249997Y-116500003D03*
D28*
X168500000Y-118000000D03*
X121250000Y-89500000D03*
X121194997Y-72260979D03*
X118900000Y-63000000D03*
X120200000Y-63000000D03*
X122500000Y-74250000D03*
X173100000Y-114950000D03*
X162385678Y-90739654D03*
X196740000Y-89330000D03*
X150500000Y-119829980D03*
X144550000Y-81000000D03*
X158250000Y-81500000D03*
X144250000Y-71800000D03*
X158250000Y-71750000D03*
X141500000Y-106000000D03*
X97500000Y-110750000D03*
X112438782Y-87764867D03*
X119600020Y-72250000D03*
X203650000Y-126850000D03*
X209100000Y-127500000D03*
X211050000Y-123800020D03*
X183750000Y-67000000D03*
X147500000Y-88500002D03*
X170570000Y-114000020D03*
X106400000Y-90900000D03*
X109750000Y-98974980D03*
X211250000Y-54600000D03*
X229250000Y-53000000D03*
X181602861Y-121841002D03*
D29*
X219650000Y-60200000D02*
X219650000Y-54600000D01*
D30*
X219850000Y-54400000D02*
X219650000Y-54600000D01*
D29*
X219650000Y-54600000D02*
X219650000Y-51150000D01*
D30*
X229000000Y-54400000D02*
X219850000Y-54400000D01*
D29*
X215100000Y-69300000D02*
X215100000Y-64750000D01*
X215100000Y-64750000D02*
X219650000Y-60200000D01*
D31*
X169599998Y-77249998D02*
X169599998Y-84863604D01*
X169350000Y-77000000D02*
X169599998Y-77249998D01*
X169599998Y-84863604D02*
X169599998Y-85500000D01*
D29*
X134150000Y-97950000D02*
X129704000Y-97950000D01*
X129704000Y-97950000D02*
X129004001Y-98649999D01*
X129004001Y-98649999D02*
X127550001Y-98649999D01*
X127550001Y-98649999D02*
X125800000Y-100400000D01*
X125800000Y-100400000D02*
X118200000Y-100400000D01*
X216900000Y-70300000D02*
X217725000Y-70300000D01*
X217725000Y-70300000D02*
X219250000Y-71825000D01*
X118200000Y-98000000D02*
X118200000Y-100400000D01*
X118200000Y-100400000D02*
X118200000Y-106163604D01*
X118200000Y-106163604D02*
X118200000Y-106800000D01*
X115750000Y-95550000D02*
X118200000Y-98000000D01*
D30*
X108650000Y-78550000D02*
X110500000Y-80400000D01*
X110500000Y-80400000D02*
X110600000Y-80400000D01*
D32*
X94613604Y-85300001D02*
X95250000Y-85300001D01*
X86800001Y-85300001D02*
X94613604Y-85300001D01*
X86250000Y-84750000D02*
X86800001Y-85300001D01*
X95886396Y-85300001D02*
X95250000Y-85300001D01*
X105699999Y-85300001D02*
X95886396Y-85300001D01*
X110600000Y-80400000D02*
X105699999Y-85300001D01*
D29*
X206400000Y-137863606D02*
X206400000Y-138500002D01*
X206400000Y-133150001D02*
X206400000Y-137863606D01*
X206350000Y-133100001D02*
X206400000Y-133150001D01*
X207299999Y-133100001D02*
X206350000Y-133100001D01*
X206350000Y-133100001D02*
X203995999Y-133100001D01*
X134150000Y-97950000D02*
X133400000Y-98700000D01*
X133400000Y-98700000D02*
X133400000Y-111050000D01*
X133400000Y-111050000D02*
X135750000Y-113400000D01*
X135750000Y-113400000D02*
X138700000Y-113400000D01*
D30*
X216000000Y-70300000D02*
X216900000Y-70300000D01*
X214200000Y-70300000D02*
X215100000Y-70300000D01*
X215100000Y-69300000D02*
X214200000Y-69300000D01*
X216900000Y-69300000D02*
X216000000Y-69300000D01*
D29*
X219250000Y-89300000D02*
X219250000Y-71825000D01*
X216524999Y-92025001D02*
X219250000Y-89300000D01*
X216524999Y-115050000D02*
X216524999Y-92025001D01*
D32*
X135650000Y-69200000D02*
X135650000Y-73500000D01*
X135650000Y-73500000D02*
X135087806Y-74062194D01*
X135087806Y-74062194D02*
X135087806Y-76721439D01*
D30*
X110600000Y-80400000D02*
X110550000Y-80400000D01*
D31*
X116500000Y-77000000D02*
X116525000Y-76975000D01*
X116525000Y-76975000D02*
X116525000Y-73511394D01*
X116525000Y-73511394D02*
X116525000Y-72874998D01*
D32*
X110600000Y-80400000D02*
X114000000Y-77000000D01*
X114000000Y-77000000D02*
X114400000Y-77000000D01*
D31*
X135087806Y-76721439D02*
X135149999Y-76749999D01*
D32*
X135450001Y-77050001D02*
X135400000Y-77000000D01*
X149850000Y-77000000D02*
X149799999Y-77050001D01*
X149799999Y-77050001D02*
X135450001Y-77050001D01*
D31*
X135149999Y-76749999D02*
X135400000Y-77000000D01*
D30*
X127900000Y-79200000D02*
X125700000Y-77000000D01*
X127900000Y-87150000D02*
X127900000Y-79200000D01*
D32*
X209300000Y-69300000D02*
X210300000Y-69300000D01*
X207400000Y-69300000D02*
X208400000Y-69300000D01*
X205600000Y-69300000D02*
X206500000Y-69300000D01*
X204700000Y-70300000D02*
X204700000Y-69300000D01*
X206500000Y-70300000D02*
X205600000Y-70300000D01*
X208400000Y-70300000D02*
X207400000Y-70300000D01*
X210300000Y-70300000D02*
X209300000Y-70300000D01*
D29*
X202895999Y-132000001D02*
X181250000Y-132000001D01*
X181250000Y-132000001D02*
X156750000Y-132000001D01*
D31*
X181259408Y-126041582D02*
X181259408Y-126677978D01*
X181259408Y-126677978D02*
X181250000Y-126687386D01*
X181250000Y-126687386D02*
X181250000Y-132000001D01*
D29*
X170850000Y-117050000D02*
X181350000Y-117050000D01*
X181350000Y-117050000D02*
X196300000Y-117050000D01*
D31*
X181350000Y-118250000D02*
X181350000Y-117613604D01*
X181350000Y-117613604D02*
X181350000Y-117050000D01*
D29*
X156750000Y-132000001D02*
X128599999Y-132000001D01*
D31*
X156850000Y-123750000D02*
X156850000Y-131900001D01*
X156850000Y-131900001D02*
X156750000Y-132000001D01*
D29*
X150950000Y-115200000D02*
X165750000Y-115200000D01*
X165750000Y-115200000D02*
X169000000Y-115200000D01*
D31*
X165700000Y-119500000D02*
X165700000Y-115250000D01*
X165700000Y-115250000D02*
X165750000Y-115200000D01*
D29*
X138700000Y-113400000D02*
X147150000Y-113400000D01*
X147150000Y-113400000D02*
X149150000Y-113400000D01*
D31*
X147150000Y-117500000D02*
X147150000Y-113400000D01*
D29*
X149150000Y-113400000D02*
X150950000Y-115200000D01*
X169000000Y-115200000D02*
X170850000Y-117050000D01*
X198300000Y-115050000D02*
X216524999Y-115050000D01*
X196300000Y-117050000D02*
X198300000Y-115050000D01*
X216524999Y-115050000D02*
X216524999Y-119825001D01*
X216524999Y-119825001D02*
X213100000Y-123250000D01*
X213100000Y-123250000D02*
X212100000Y-124250000D01*
D31*
X213000001Y-123349999D02*
X213100000Y-123250000D01*
X212200000Y-122900000D02*
X212649999Y-123349999D01*
X212649999Y-123349999D02*
X213000001Y-123349999D01*
D29*
X112836396Y-138450000D02*
X112200000Y-138450000D01*
X212100000Y-124250000D02*
X212100000Y-128300000D01*
X212100000Y-128300000D02*
X207299999Y-133100001D01*
X203995999Y-133100001D02*
X202895999Y-132000001D01*
X128599999Y-132000001D02*
X122150000Y-138450000D01*
X122150000Y-138450000D02*
X112836396Y-138450000D01*
D32*
X127800000Y-77000000D02*
X125700000Y-77000000D01*
X125700000Y-77000000D02*
X116500000Y-77000000D01*
X116500000Y-77000000D02*
X114400000Y-77000000D01*
D30*
X114450000Y-82900000D02*
X114450000Y-77050000D01*
X114450000Y-77050000D02*
X114400000Y-77000000D01*
D32*
X170000000Y-77000000D02*
X169350000Y-77000000D01*
X169350000Y-77000000D02*
X166600000Y-77000000D01*
X181400000Y-77000000D02*
X175550000Y-77000000D01*
X175550000Y-77000000D02*
X170000000Y-77000000D01*
D31*
X175600000Y-79600000D02*
X175600000Y-77050000D01*
X175600000Y-77050000D02*
X175550000Y-77000000D01*
D32*
X166600000Y-77000000D02*
X156400000Y-77000000D01*
D31*
X166650000Y-80550000D02*
X166650000Y-77050000D01*
X166650000Y-77050000D02*
X166600000Y-77000000D01*
D32*
X156400000Y-77000000D02*
X153900000Y-77000000D01*
D31*
X156600000Y-84950000D02*
X156600000Y-77200000D01*
X156600000Y-77200000D02*
X156400000Y-77000000D01*
D32*
X153900000Y-77000000D02*
X149850000Y-77000000D01*
D31*
X149900000Y-80800000D02*
X149900000Y-77050000D01*
X149900000Y-77050000D02*
X149850000Y-77000000D01*
X170050000Y-76950000D02*
X170050000Y-71686416D01*
X170050000Y-71686416D02*
X170050000Y-71050020D01*
X170000000Y-77000000D02*
X170050000Y-76950000D01*
D32*
X135400000Y-77000000D02*
X131150000Y-77000000D01*
D31*
X131000000Y-74400000D02*
X131000000Y-76850000D01*
D32*
X131150000Y-77000000D02*
X127800000Y-77000000D01*
D31*
X131000000Y-76850000D02*
X131150000Y-77000000D01*
X127750000Y-74450000D02*
X127750000Y-76950000D01*
X127750000Y-76950000D02*
X127800000Y-77000000D01*
X153800000Y-72000000D02*
X153800000Y-76900000D01*
X153800000Y-76900000D02*
X153900000Y-77000000D01*
D32*
X198000000Y-77000000D02*
X181400000Y-77000000D01*
D31*
X181250000Y-67350000D02*
X181250000Y-76850000D01*
X181250000Y-76850000D02*
X181400000Y-77000000D01*
D29*
X198000000Y-77000000D02*
X198000000Y-85750000D01*
D33*
X198000000Y-66500000D02*
X198000000Y-77000000D01*
D29*
X93000000Y-83050000D02*
X104300000Y-83050000D01*
X111375000Y-73325000D02*
X114125000Y-70575000D01*
X114125000Y-70575000D02*
X118000000Y-70575000D01*
X104300000Y-83050000D02*
X106425000Y-80925000D01*
X106425000Y-80925000D02*
X106425000Y-78700000D01*
X110400000Y-77350000D02*
X111375000Y-76375000D01*
X106425000Y-78700000D02*
X107775000Y-77350000D01*
X107775000Y-77350000D02*
X110400000Y-77350000D01*
X111375000Y-76375000D02*
X111375000Y-73325000D01*
X221000000Y-72250000D02*
X221000000Y-80600000D01*
X227750000Y-65500000D02*
X221000000Y-72250000D01*
X227750000Y-57650000D02*
X227750000Y-65500000D01*
X205350000Y-131950000D02*
X205350000Y-130400000D01*
X205350000Y-130400000D02*
X202500000Y-127550000D01*
X202500000Y-127550000D02*
X202500000Y-121400000D01*
X202500000Y-121400000D02*
X205750000Y-118150000D01*
X204500000Y-119400000D02*
X205750000Y-118150000D01*
X205750000Y-118150000D02*
X206400000Y-117500000D01*
D32*
X212250000Y-86000000D02*
X212250000Y-83850000D01*
X212250000Y-83850000D02*
X212250000Y-83400000D01*
D29*
X214200000Y-83900000D02*
X212300000Y-83900000D01*
X212300000Y-83900000D02*
X212250000Y-83850000D01*
D30*
X216000000Y-83900000D02*
X216900000Y-83900000D01*
X214463606Y-83900000D02*
X215100002Y-83900000D01*
X214400000Y-83900000D02*
X214463606Y-83900000D01*
X214200000Y-83700000D02*
X214400000Y-83900000D01*
X214200000Y-83900000D02*
X215100002Y-83900000D01*
X209399996Y-83899996D02*
X209400000Y-83900000D01*
X209399996Y-82700000D02*
X209399996Y-83899996D01*
X210750001Y-83149999D02*
X210300002Y-82700000D01*
X211000002Y-83400000D02*
X210750001Y-83149999D01*
X212250000Y-83400000D02*
X211000002Y-83400000D01*
D32*
X212250000Y-83400000D02*
X212250000Y-64250000D01*
D31*
X140400000Y-120830000D02*
X140400000Y-114584980D01*
D29*
X110500000Y-120830000D02*
X110500000Y-128183002D01*
X110500000Y-128183002D02*
X117600000Y-135283002D01*
X117600000Y-135283002D02*
X117600000Y-136463604D01*
X117600000Y-136463604D02*
X117600000Y-137100000D01*
D30*
X216000000Y-82700000D02*
X216900000Y-82700000D01*
X214200000Y-82700000D02*
X215100000Y-82700000D01*
D32*
X118000000Y-73200002D02*
X118699999Y-73900001D01*
X118000000Y-70575000D02*
X118000000Y-73200002D01*
X118699999Y-73900001D02*
X119149998Y-74350000D01*
X118000000Y-67600000D02*
X118000000Y-70575000D01*
X212250000Y-64250000D02*
X211250000Y-63250000D01*
X211250000Y-63250000D02*
X181800000Y-63250000D01*
X181800000Y-63250000D02*
X175150000Y-69900000D01*
X175150000Y-69900000D02*
X166600000Y-69900000D01*
X120950000Y-64650000D02*
X118000000Y-67600000D01*
X127150000Y-64650000D02*
X120950000Y-64650000D01*
D31*
X130949999Y-80699999D02*
X130500000Y-80250000D01*
X133300000Y-83050000D02*
X130949999Y-80699999D01*
X133300000Y-92750000D02*
X133300000Y-83050000D01*
D29*
X114500000Y-120830000D02*
X114700000Y-120630000D01*
X114700000Y-120630000D02*
X114700000Y-100754002D01*
X114700000Y-100754002D02*
X114149999Y-100204001D01*
X114149999Y-100204001D02*
X114149999Y-93100001D01*
X114149999Y-93100001D02*
X114500000Y-92750000D01*
D31*
X110500000Y-122032081D02*
X110500000Y-120830000D01*
D29*
X184600000Y-120830000D02*
X189300000Y-120830000D01*
X189300000Y-120830000D02*
X203070000Y-120830000D01*
D31*
X189300000Y-122700000D02*
X189300000Y-122063604D01*
X189300000Y-122063604D02*
X189300000Y-120830000D01*
D29*
X156750000Y-120830000D02*
X164650000Y-120830000D01*
X164650000Y-120830000D02*
X184600000Y-120830000D01*
D31*
X164750000Y-123700000D02*
X164750000Y-120930000D01*
X164750000Y-120930000D02*
X164650000Y-120830000D01*
D29*
X140400000Y-120830000D02*
X153300000Y-120830000D01*
X153300000Y-120830000D02*
X156750000Y-120830000D01*
D31*
X153100000Y-121750000D02*
X153100000Y-121030000D01*
X153100000Y-121030000D02*
X153300000Y-120830000D01*
X156750000Y-117250000D02*
X156750000Y-120830000D01*
D29*
X114500000Y-120830000D02*
X140400000Y-120830000D01*
X203070000Y-120830000D02*
X204500000Y-119400000D01*
X110500000Y-120830000D02*
X114500000Y-120830000D01*
D31*
X184600000Y-122250000D02*
X184600000Y-121613604D01*
X184600000Y-121613604D02*
X184600000Y-120830000D01*
D32*
X212250000Y-86000000D02*
X212250000Y-88150000D01*
X212250000Y-88150000D02*
X207650000Y-92750000D01*
X207650000Y-92750000D02*
X195700000Y-92750000D01*
D31*
X111000000Y-82800000D02*
X111750000Y-83550000D01*
X111750000Y-83550000D02*
X111750000Y-86300000D01*
X111750000Y-86300000D02*
X111450001Y-86599999D01*
X111450001Y-86599999D02*
X111450001Y-92299999D01*
X111450001Y-92299999D02*
X111000000Y-92750000D01*
D32*
X118300000Y-92750000D02*
X114500000Y-92750000D01*
X114500000Y-92750000D02*
X111000000Y-92750000D01*
D29*
X110500000Y-120830000D02*
X111702081Y-120830000D01*
D32*
X195700000Y-92750000D02*
X163650000Y-92750000D01*
X163650000Y-92750000D02*
X145800000Y-92750000D01*
D31*
X163500000Y-81400000D02*
X163500000Y-92600000D01*
X163500000Y-92600000D02*
X163650000Y-92750000D01*
D32*
X145800000Y-92750000D02*
X133300000Y-92750000D01*
D31*
X147450000Y-81600000D02*
X147450000Y-82236396D01*
X147450000Y-82236396D02*
X145800000Y-83886396D01*
X145800000Y-83886396D02*
X145800000Y-92750000D01*
D32*
X166600000Y-69900000D02*
X152300000Y-69900000D01*
D31*
X166650000Y-72000000D02*
X166650000Y-69950000D01*
X166650000Y-69950000D02*
X166600000Y-69900000D01*
D32*
X152300000Y-69900000D02*
X149900000Y-69900000D01*
D31*
X152300000Y-65900000D02*
X152300000Y-66536396D01*
X152300000Y-66536396D02*
X152300000Y-69900000D01*
D32*
X149900000Y-69900000D02*
X142050000Y-69900000D01*
D31*
X149900000Y-72250000D02*
X149900000Y-71613604D01*
X149900000Y-71613604D02*
X149900000Y-69900000D01*
D32*
X133300000Y-92750000D02*
X118300000Y-92750000D01*
D31*
X118300000Y-81800000D02*
X118300000Y-82436396D01*
X118300000Y-82436396D02*
X118300000Y-92750000D01*
D32*
X111000000Y-92750000D02*
X104250000Y-92750000D01*
X131300000Y-64650000D02*
X127150000Y-64650000D01*
X136650000Y-64650000D02*
X131300000Y-64650000D01*
X141900000Y-69900000D02*
X136650000Y-64650000D01*
X142050000Y-69900000D02*
X141900000Y-69900000D01*
D31*
X195500000Y-80100000D02*
X195500000Y-83700000D01*
X195500000Y-83700000D02*
X195500000Y-92550000D01*
X193200000Y-83700000D02*
X193836396Y-83700000D01*
X193836396Y-83700000D02*
X195500000Y-83700000D01*
X195500000Y-92550000D02*
X195700000Y-92750000D01*
D32*
X103349999Y-91849999D02*
X102900000Y-91400000D01*
X104250000Y-92750000D02*
X103349999Y-91849999D01*
D29*
X133249997Y-116500003D02*
X132050000Y-115300006D01*
X132050000Y-115300006D02*
X132050000Y-106000000D01*
X132050000Y-106000000D02*
X130900000Y-104850000D01*
X130900000Y-104850000D02*
X130900000Y-99100000D01*
D34*
G36*
X210898400Y-66042084D02*
X210898400Y-70457916D01*
X210457916Y-70898400D01*
X199250000Y-70898400D01*
X199210472Y-70906405D01*
X199177172Y-70929157D01*
X199155348Y-70963073D01*
X199148400Y-71000000D01*
X199148400Y-85707916D01*
X198707916Y-86148400D01*
X197542084Y-86148400D01*
X197101600Y-85707916D01*
X197101600Y-79500000D01*
X197093595Y-79460472D01*
X197070843Y-79427172D01*
X197036927Y-79405348D01*
X197000000Y-79398400D01*
X195911071Y-79398400D01*
X195660947Y-79294540D01*
X195340459Y-79294260D01*
X195088421Y-79398400D01*
X174437748Y-79398400D01*
X174356932Y-79317443D01*
X174060947Y-79194540D01*
X173740459Y-79194260D01*
X173444260Y-79316647D01*
X173362364Y-79398400D01*
X126270241Y-79398400D01*
X126260947Y-79394541D01*
X125940459Y-79394261D01*
X125930442Y-79398400D01*
X113250000Y-79398400D01*
X113210472Y-79406405D01*
X113178158Y-79428158D01*
X106957916Y-85648400D01*
X86292084Y-85648400D01*
X85851600Y-85207916D01*
X85851600Y-84542084D01*
X86292084Y-84101600D01*
X89114936Y-84101600D01*
X89116647Y-84105740D01*
X89343068Y-84332557D01*
X89639053Y-84455460D01*
X89959541Y-84455740D01*
X90255740Y-84333353D01*
X90482557Y-84106932D01*
X90484771Y-84101600D01*
X106000000Y-84101600D01*
X106039528Y-84093595D01*
X106071842Y-84071842D01*
X114042084Y-76101600D01*
X123488933Y-76101600D01*
X123739057Y-76205460D01*
X124059545Y-76205740D01*
X124311583Y-76101600D01*
X135700078Y-76101600D01*
X135780894Y-76182557D01*
X136076879Y-76305460D01*
X136397367Y-76305740D01*
X136693566Y-76183353D01*
X136775462Y-76101600D01*
X197000000Y-76101600D01*
X197039528Y-76093595D01*
X197072828Y-76070843D01*
X197094652Y-76036927D01*
X197101600Y-76000000D01*
X197101600Y-67424058D01*
X197289206Y-67424058D01*
X197389846Y-67596361D01*
X197855850Y-67746401D01*
X198343800Y-67706688D01*
X198610154Y-67596361D01*
X198710794Y-67424058D01*
X198000000Y-66713263D01*
X197289206Y-67424058D01*
X197101600Y-67424058D01*
X197101600Y-67185136D01*
X197786737Y-66500000D01*
X198213263Y-66500000D01*
X198924058Y-67210794D01*
X199096361Y-67110154D01*
X199246401Y-66644150D01*
X199206688Y-66156200D01*
X199096361Y-65889846D01*
X198924058Y-65789206D01*
X198213263Y-66500000D01*
X197786737Y-66500000D01*
X197772594Y-66485858D01*
X197985858Y-66272594D01*
X198000000Y-66286737D01*
X198685136Y-65601600D01*
X210457916Y-65601600D01*
X210898400Y-66042084D01*
X210898400Y-66042084D01*
G37*
X210898400Y-66042084D02*
X210898400Y-70457916D01*
X210457916Y-70898400D01*
X199250000Y-70898400D01*
X199210472Y-70906405D01*
X199177172Y-70929157D01*
X199155348Y-70963073D01*
X199148400Y-71000000D01*
X199148400Y-85707916D01*
X198707916Y-86148400D01*
X197542084Y-86148400D01*
X197101600Y-85707916D01*
X197101600Y-79500000D01*
X197093595Y-79460472D01*
X197070843Y-79427172D01*
X197036927Y-79405348D01*
X197000000Y-79398400D01*
X195911071Y-79398400D01*
X195660947Y-79294540D01*
X195340459Y-79294260D01*
X195088421Y-79398400D01*
X174437748Y-79398400D01*
X174356932Y-79317443D01*
X174060947Y-79194540D01*
X173740459Y-79194260D01*
X173444260Y-79316647D01*
X173362364Y-79398400D01*
X126270241Y-79398400D01*
X126260947Y-79394541D01*
X125940459Y-79394261D01*
X125930442Y-79398400D01*
X113250000Y-79398400D01*
X113210472Y-79406405D01*
X113178158Y-79428158D01*
X106957916Y-85648400D01*
X86292084Y-85648400D01*
X85851600Y-85207916D01*
X85851600Y-84542084D01*
X86292084Y-84101600D01*
X89114936Y-84101600D01*
X89116647Y-84105740D01*
X89343068Y-84332557D01*
X89639053Y-84455460D01*
X89959541Y-84455740D01*
X90255740Y-84333353D01*
X90482557Y-84106932D01*
X90484771Y-84101600D01*
X106000000Y-84101600D01*
X106039528Y-84093595D01*
X106071842Y-84071842D01*
X114042084Y-76101600D01*
X123488933Y-76101600D01*
X123739057Y-76205460D01*
X124059545Y-76205740D01*
X124311583Y-76101600D01*
X135700078Y-76101600D01*
X135780894Y-76182557D01*
X136076879Y-76305460D01*
X136397367Y-76305740D01*
X136693566Y-76183353D01*
X136775462Y-76101600D01*
X197000000Y-76101600D01*
X197039528Y-76093595D01*
X197072828Y-76070843D01*
X197094652Y-76036927D01*
X197101600Y-76000000D01*
X197101600Y-67424058D01*
X197289206Y-67424058D01*
X197389846Y-67596361D01*
X197855850Y-67746401D01*
X198343800Y-67706688D01*
X198610154Y-67596361D01*
X198710794Y-67424058D01*
X198000000Y-66713263D01*
X197289206Y-67424058D01*
X197101600Y-67424058D01*
X197101600Y-67185136D01*
X197786737Y-66500000D01*
X198213263Y-66500000D01*
X198924058Y-67210794D01*
X199096361Y-67110154D01*
X199246401Y-66644150D01*
X199206688Y-66156200D01*
X199096361Y-65889846D01*
X198924058Y-65789206D01*
X198213263Y-66500000D01*
X197786737Y-66500000D01*
X197772594Y-66485858D01*
X197985858Y-66272594D01*
X198000000Y-66286737D01*
X198685136Y-65601600D01*
X210457916Y-65601600D01*
X210898400Y-66042084D01*
G36*
X213148400Y-64292084D02*
X213148400Y-82000000D01*
X213156405Y-82039528D01*
X213179157Y-82072828D01*
X213213073Y-82094652D01*
X213250000Y-82101600D01*
X217398400Y-82101600D01*
X217398400Y-84398400D01*
X213750000Y-84398400D01*
X213710472Y-84406405D01*
X213677172Y-84429157D01*
X213655348Y-84463073D01*
X213648400Y-84500000D01*
X213648400Y-88957916D01*
X208957916Y-93648400D01*
X172973602Y-93648400D01*
X172880289Y-93422566D01*
X172667921Y-93209827D01*
X172390306Y-93094552D01*
X172089710Y-93094289D01*
X171811895Y-93209080D01*
X171599156Y-93421448D01*
X171504918Y-93648400D01*
X115500000Y-93648400D01*
X115460472Y-93656405D01*
X115428158Y-93678158D01*
X114928158Y-94178158D01*
X114905868Y-94211769D01*
X114898400Y-94250000D01*
X114898400Y-99750000D01*
X114906405Y-99789528D01*
X114928158Y-99821842D01*
X115648400Y-100542084D01*
X115648400Y-120000000D01*
X115656405Y-120039528D01*
X115678158Y-120071842D01*
X115928158Y-120321842D01*
X115961769Y-120344132D01*
X116000000Y-120351600D01*
X148732325Y-120351600D01*
X148843068Y-120462537D01*
X149139053Y-120585440D01*
X149459541Y-120585720D01*
X149755740Y-120463333D01*
X149867668Y-120351600D01*
X149953062Y-120351600D01*
X150071428Y-120470173D01*
X150349043Y-120585448D01*
X150649639Y-120585711D01*
X150927454Y-120470920D01*
X151046982Y-120351600D01*
X202000000Y-120351600D01*
X202039528Y-120343595D01*
X202071842Y-120321842D01*
X205542084Y-116851600D01*
X206707916Y-116851600D01*
X207148400Y-117292084D01*
X207148400Y-118457916D01*
X203457916Y-122148400D01*
X182293369Y-122148400D01*
X182358329Y-121991959D01*
X182358592Y-121691363D01*
X182243801Y-121413548D01*
X182031433Y-121200809D01*
X181753818Y-121085534D01*
X181453222Y-121085271D01*
X181175407Y-121200062D01*
X180962668Y-121412430D01*
X180847393Y-121690045D01*
X180847130Y-121990641D01*
X180912315Y-122148400D01*
X109542084Y-122148400D01*
X109101600Y-121707916D01*
X109101600Y-121166060D01*
X109342185Y-121166060D01*
X109443659Y-121411077D01*
X109746437Y-121771089D01*
X110163938Y-121987829D01*
X110349200Y-121937246D01*
X110349200Y-120980800D01*
X110650800Y-120980800D01*
X110650800Y-121937246D01*
X110836062Y-121987829D01*
X111253563Y-121771089D01*
X111556341Y-121411077D01*
X111657815Y-121166060D01*
X111606471Y-120980800D01*
X110650800Y-120980800D01*
X110349200Y-120980800D01*
X109393529Y-120980800D01*
X109342185Y-121166060D01*
X109101600Y-121166060D01*
X109101600Y-120292084D01*
X109542084Y-119851600D01*
X109818308Y-119851600D01*
X109746437Y-119888911D01*
X109443659Y-120248923D01*
X109342185Y-120493940D01*
X109393529Y-120679200D01*
X110349200Y-120679200D01*
X110349200Y-120659200D01*
X110650800Y-120659200D01*
X110650800Y-120679200D01*
X111606471Y-120679200D01*
X111657815Y-120493940D01*
X111556341Y-120248923D01*
X111253563Y-119888911D01*
X111181692Y-119851600D01*
X113000000Y-119851600D01*
X113039528Y-119843595D01*
X113071842Y-119821842D01*
X113321842Y-119571842D01*
X113344132Y-119538231D01*
X113351600Y-119500000D01*
X113351600Y-108945110D01*
X113658554Y-108740010D01*
X113952411Y-108300222D01*
X114055600Y-107781456D01*
X114055600Y-107218544D01*
X113952411Y-106699778D01*
X113658554Y-106259990D01*
X113351600Y-106054890D01*
X113351600Y-94250000D01*
X113343595Y-94210472D01*
X113321842Y-94178158D01*
X112821842Y-93678158D01*
X112788231Y-93655868D01*
X112750000Y-93648400D01*
X103792084Y-93648400D01*
X102101600Y-91957916D01*
X102101600Y-91042084D01*
X102542084Y-90601600D01*
X103457916Y-90601600D01*
X104678158Y-91821842D01*
X104711769Y-91844132D01*
X104750000Y-91851600D01*
X207750000Y-91851600D01*
X207789528Y-91843595D01*
X207821842Y-91821842D01*
X211571842Y-88071842D01*
X211594132Y-88038231D01*
X211601600Y-88000000D01*
X211601600Y-84500000D01*
X211593595Y-84460472D01*
X211570843Y-84427172D01*
X211536927Y-84405348D01*
X211500000Y-84398400D01*
X208801043Y-84398400D01*
X208601600Y-84130348D01*
X208601600Y-82297971D01*
X208840231Y-82101600D01*
X211500000Y-82101600D01*
X211539528Y-82093595D01*
X211572828Y-82070843D01*
X211594652Y-82036927D01*
X211601600Y-82000000D01*
X211601600Y-65750000D01*
X211593595Y-65710472D01*
X211571842Y-65678158D01*
X210821842Y-64928158D01*
X210788231Y-64905868D01*
X210750000Y-64898400D01*
X181500000Y-64898400D01*
X181460472Y-64906405D01*
X181428158Y-64928158D01*
X175707916Y-70648400D01*
X170755715Y-70648400D01*
X170733353Y-70594280D01*
X170506932Y-70367463D01*
X170210947Y-70244560D01*
X169890459Y-70244280D01*
X169594260Y-70366667D01*
X169367443Y-70593088D01*
X169344476Y-70648400D01*
X141542084Y-70648400D01*
X136321842Y-65428158D01*
X136288231Y-65405868D01*
X136250000Y-65398400D01*
X121000000Y-65398400D01*
X120960472Y-65406405D01*
X120928158Y-65428158D01*
X118678158Y-67678158D01*
X118655868Y-67711769D01*
X118648400Y-67750000D01*
X118648400Y-73000000D01*
X118656405Y-73039528D01*
X118678158Y-73071842D01*
X119648400Y-74042084D01*
X119648400Y-74707916D01*
X119457916Y-74898400D01*
X118792084Y-74898400D01*
X117351600Y-73457916D01*
X117351600Y-67042084D01*
X120292084Y-64101600D01*
X136957916Y-64101600D01*
X142178158Y-69321842D01*
X142211769Y-69344132D01*
X142250000Y-69351600D01*
X149487429Y-69351600D01*
X149520079Y-69384307D01*
X149816064Y-69507210D01*
X150136552Y-69507490D01*
X150432751Y-69385103D01*
X150466313Y-69351600D01*
X174250000Y-69351600D01*
X174289528Y-69343595D01*
X174321842Y-69321842D01*
X181042084Y-62601600D01*
X211457916Y-62601600D01*
X213148400Y-64292084D01*
X213148400Y-64292084D01*
G37*
X213148400Y-64292084D02*
X213148400Y-82000000D01*
X213156405Y-82039528D01*
X213179157Y-82072828D01*
X213213073Y-82094652D01*
X213250000Y-82101600D01*
X217398400Y-82101600D01*
X217398400Y-84398400D01*
X213750000Y-84398400D01*
X213710472Y-84406405D01*
X213677172Y-84429157D01*
X213655348Y-84463073D01*
X213648400Y-84500000D01*
X213648400Y-88957916D01*
X208957916Y-93648400D01*
X172973602Y-93648400D01*
X172880289Y-93422566D01*
X172667921Y-93209827D01*
X172390306Y-93094552D01*
X172089710Y-93094289D01*
X171811895Y-93209080D01*
X171599156Y-93421448D01*
X171504918Y-93648400D01*
X115500000Y-93648400D01*
X115460472Y-93656405D01*
X115428158Y-93678158D01*
X114928158Y-94178158D01*
X114905868Y-94211769D01*
X114898400Y-94250000D01*
X114898400Y-99750000D01*
X114906405Y-99789528D01*
X114928158Y-99821842D01*
X115648400Y-100542084D01*
X115648400Y-120000000D01*
X115656405Y-120039528D01*
X115678158Y-120071842D01*
X115928158Y-120321842D01*
X115961769Y-120344132D01*
X116000000Y-120351600D01*
X148732325Y-120351600D01*
X148843068Y-120462537D01*
X149139053Y-120585440D01*
X149459541Y-120585720D01*
X149755740Y-120463333D01*
X149867668Y-120351600D01*
X149953062Y-120351600D01*
X150071428Y-120470173D01*
X150349043Y-120585448D01*
X150649639Y-120585711D01*
X150927454Y-120470920D01*
X151046982Y-120351600D01*
X202000000Y-120351600D01*
X202039528Y-120343595D01*
X202071842Y-120321842D01*
X205542084Y-116851600D01*
X206707916Y-116851600D01*
X207148400Y-117292084D01*
X207148400Y-118457916D01*
X203457916Y-122148400D01*
X182293369Y-122148400D01*
X182358329Y-121991959D01*
X182358592Y-121691363D01*
X182243801Y-121413548D01*
X182031433Y-121200809D01*
X181753818Y-121085534D01*
X181453222Y-121085271D01*
X181175407Y-121200062D01*
X180962668Y-121412430D01*
X180847393Y-121690045D01*
X180847130Y-121990641D01*
X180912315Y-122148400D01*
X109542084Y-122148400D01*
X109101600Y-121707916D01*
X109101600Y-121166060D01*
X109342185Y-121166060D01*
X109443659Y-121411077D01*
X109746437Y-121771089D01*
X110163938Y-121987829D01*
X110349200Y-121937246D01*
X110349200Y-120980800D01*
X110650800Y-120980800D01*
X110650800Y-121937246D01*
X110836062Y-121987829D01*
X111253563Y-121771089D01*
X111556341Y-121411077D01*
X111657815Y-121166060D01*
X111606471Y-120980800D01*
X110650800Y-120980800D01*
X110349200Y-120980800D01*
X109393529Y-120980800D01*
X109342185Y-121166060D01*
X109101600Y-121166060D01*
X109101600Y-120292084D01*
X109542084Y-119851600D01*
X109818308Y-119851600D01*
X109746437Y-119888911D01*
X109443659Y-120248923D01*
X109342185Y-120493940D01*
X109393529Y-120679200D01*
X110349200Y-120679200D01*
X110349200Y-120659200D01*
X110650800Y-120659200D01*
X110650800Y-120679200D01*
X111606471Y-120679200D01*
X111657815Y-120493940D01*
X111556341Y-120248923D01*
X111253563Y-119888911D01*
X111181692Y-119851600D01*
X113000000Y-119851600D01*
X113039528Y-119843595D01*
X113071842Y-119821842D01*
X113321842Y-119571842D01*
X113344132Y-119538231D01*
X113351600Y-119500000D01*
X113351600Y-108945110D01*
X113658554Y-108740010D01*
X113952411Y-108300222D01*
X114055600Y-107781456D01*
X114055600Y-107218544D01*
X113952411Y-106699778D01*
X113658554Y-106259990D01*
X113351600Y-106054890D01*
X113351600Y-94250000D01*
X113343595Y-94210472D01*
X113321842Y-94178158D01*
X112821842Y-93678158D01*
X112788231Y-93655868D01*
X112750000Y-93648400D01*
X103792084Y-93648400D01*
X102101600Y-91957916D01*
X102101600Y-91042084D01*
X102542084Y-90601600D01*
X103457916Y-90601600D01*
X104678158Y-91821842D01*
X104711769Y-91844132D01*
X104750000Y-91851600D01*
X207750000Y-91851600D01*
X207789528Y-91843595D01*
X207821842Y-91821842D01*
X211571842Y-88071842D01*
X211594132Y-88038231D01*
X211601600Y-88000000D01*
X211601600Y-84500000D01*
X211593595Y-84460472D01*
X211570843Y-84427172D01*
X211536927Y-84405348D01*
X211500000Y-84398400D01*
X208801043Y-84398400D01*
X208601600Y-84130348D01*
X208601600Y-82297971D01*
X208840231Y-82101600D01*
X211500000Y-82101600D01*
X211539528Y-82093595D01*
X211572828Y-82070843D01*
X211594652Y-82036927D01*
X211601600Y-82000000D01*
X211601600Y-65750000D01*
X211593595Y-65710472D01*
X211571842Y-65678158D01*
X210821842Y-64928158D01*
X210788231Y-64905868D01*
X210750000Y-64898400D01*
X181500000Y-64898400D01*
X181460472Y-64906405D01*
X181428158Y-64928158D01*
X175707916Y-70648400D01*
X170755715Y-70648400D01*
X170733353Y-70594280D01*
X170506932Y-70367463D01*
X170210947Y-70244560D01*
X169890459Y-70244280D01*
X169594260Y-70366667D01*
X169367443Y-70593088D01*
X169344476Y-70648400D01*
X141542084Y-70648400D01*
X136321842Y-65428158D01*
X136288231Y-65405868D01*
X136250000Y-65398400D01*
X121000000Y-65398400D01*
X120960472Y-65406405D01*
X120928158Y-65428158D01*
X118678158Y-67678158D01*
X118655868Y-67711769D01*
X118648400Y-67750000D01*
X118648400Y-73000000D01*
X118656405Y-73039528D01*
X118678158Y-73071842D01*
X119648400Y-74042084D01*
X119648400Y-74707916D01*
X119457916Y-74898400D01*
X118792084Y-74898400D01*
X117351600Y-73457916D01*
X117351600Y-67042084D01*
X120292084Y-64101600D01*
X136957916Y-64101600D01*
X142178158Y-69321842D01*
X142211769Y-69344132D01*
X142250000Y-69351600D01*
X149487429Y-69351600D01*
X149520079Y-69384307D01*
X149816064Y-69507210D01*
X150136552Y-69507490D01*
X150432751Y-69385103D01*
X150466313Y-69351600D01*
X174250000Y-69351600D01*
X174289528Y-69343595D01*
X174321842Y-69321842D01*
X181042084Y-62601600D01*
X211457916Y-62601600D01*
X213148400Y-64292084D01*
G36*
X219648400Y-69542084D02*
X219648400Y-89457916D01*
X216928158Y-92178158D01*
X216905868Y-92211769D01*
X216898400Y-92250000D01*
X216898400Y-94943993D01*
X216769614Y-95254145D01*
X216769187Y-95743708D01*
X216898400Y-96056427D01*
X216898400Y-121207916D01*
X213178158Y-124928158D01*
X213155868Y-124961769D01*
X213148400Y-125000000D01*
X213148400Y-128957916D01*
X208457916Y-133648400D01*
X203542084Y-133648400D01*
X202321842Y-132428158D01*
X202288231Y-132405868D01*
X202250000Y-132398400D01*
X198556007Y-132398400D01*
X198245855Y-132269614D01*
X197756292Y-132269187D01*
X197443573Y-132398400D01*
X196056007Y-132398400D01*
X195745855Y-132269614D01*
X195256292Y-132269187D01*
X194943573Y-132398400D01*
X193556007Y-132398400D01*
X193245855Y-132269614D01*
X192756292Y-132269187D01*
X192443573Y-132398400D01*
X173556007Y-132398400D01*
X173245855Y-132269614D01*
X172756292Y-132269187D01*
X172443573Y-132398400D01*
X171056007Y-132398400D01*
X170745855Y-132269614D01*
X170256292Y-132269187D01*
X169943573Y-132398400D01*
X168556007Y-132398400D01*
X168245855Y-132269614D01*
X167756292Y-132269187D01*
X167443573Y-132398400D01*
X148556007Y-132398400D01*
X148245855Y-132269614D01*
X147756292Y-132269187D01*
X147443573Y-132398400D01*
X146056007Y-132398400D01*
X145745855Y-132269614D01*
X145256292Y-132269187D01*
X144943573Y-132398400D01*
X143556007Y-132398400D01*
X143245855Y-132269614D01*
X142756292Y-132269187D01*
X142443573Y-132398400D01*
X129000000Y-132398400D01*
X128960472Y-132406405D01*
X128928158Y-132428158D01*
X122207916Y-139148400D01*
X111792084Y-139148400D01*
X111351600Y-138707916D01*
X111351600Y-138042084D01*
X111792084Y-137601600D01*
X116962427Y-137601600D01*
X117143068Y-137782557D01*
X117439053Y-137905460D01*
X117759541Y-137905740D01*
X118055740Y-137783353D01*
X118237811Y-137601600D01*
X121750000Y-137601600D01*
X121789528Y-137593595D01*
X121821842Y-137571842D01*
X128292084Y-131101600D01*
X202707916Y-131101600D01*
X204178158Y-132571842D01*
X204211769Y-132594132D01*
X204250000Y-132601600D01*
X204862165Y-132601600D01*
X204893068Y-132632557D01*
X205189053Y-132755460D01*
X205509541Y-132755740D01*
X205805740Y-132633353D01*
X205837549Y-132601600D01*
X207250000Y-132601600D01*
X207289528Y-132593595D01*
X207321842Y-132571842D01*
X211571842Y-128321842D01*
X211594132Y-128288231D01*
X211601600Y-128250000D01*
X211601600Y-124317031D01*
X211690193Y-124228592D01*
X211805468Y-123950977D01*
X211805731Y-123650381D01*
X211690940Y-123372566D01*
X211601600Y-123283070D01*
X211601600Y-123042084D01*
X213511818Y-121131866D01*
X213689053Y-121205460D01*
X214009541Y-121205740D01*
X214305740Y-121083353D01*
X214532557Y-120856932D01*
X214655460Y-120560947D01*
X214655740Y-120240459D01*
X214581909Y-120061775D01*
X215321842Y-119321842D01*
X215344132Y-119288231D01*
X215351600Y-119250000D01*
X215351600Y-116500000D01*
X215343595Y-116460472D01*
X215321842Y-116428158D01*
X214821842Y-115928158D01*
X214788231Y-115905868D01*
X214750000Y-115898400D01*
X198500000Y-115898400D01*
X198460472Y-115906405D01*
X198428158Y-115928158D01*
X196457916Y-117898400D01*
X170292084Y-117898400D01*
X168321842Y-115928158D01*
X168288231Y-115905868D01*
X168250000Y-115898400D01*
X150542084Y-115898400D01*
X148821842Y-114178158D01*
X148788231Y-114155868D01*
X148750000Y-114148400D01*
X141091270Y-114148400D01*
X141083353Y-114129240D01*
X140856932Y-113902423D01*
X140560947Y-113779520D01*
X140240459Y-113779240D01*
X139944260Y-113901627D01*
X139717443Y-114128048D01*
X139708992Y-114148400D01*
X136042084Y-114148400D01*
X133101600Y-111207916D01*
X133101600Y-98750000D01*
X133093595Y-98710472D01*
X133071842Y-98678158D01*
X132643684Y-98250000D01*
X133792084Y-97101600D01*
X134707916Y-97101600D01*
X135148400Y-97542084D01*
X135148400Y-98207916D01*
X133928158Y-99428158D01*
X133905868Y-99461769D01*
X133898400Y-99500000D01*
X133898400Y-110750000D01*
X133906405Y-110789528D01*
X133928158Y-110821842D01*
X135928158Y-112821842D01*
X135961769Y-112844132D01*
X136000000Y-112851600D01*
X149707916Y-112851600D01*
X151428158Y-114571842D01*
X151461769Y-114594132D01*
X151500000Y-114601600D01*
X169207916Y-114601600D01*
X170928158Y-116321842D01*
X170961769Y-116344132D01*
X171000000Y-116351600D01*
X195500000Y-116351600D01*
X195539528Y-116343595D01*
X195571842Y-116321842D01*
X197792084Y-114101600D01*
X215000000Y-114101600D01*
X215039528Y-114093595D01*
X215071842Y-114071842D01*
X215321842Y-113821842D01*
X215344132Y-113788231D01*
X215351600Y-113750000D01*
X215351600Y-91792084D01*
X218071842Y-89071842D01*
X218094132Y-89038231D01*
X218101600Y-89000000D01*
X218101600Y-71750000D01*
X218093595Y-71710472D01*
X218071842Y-71678158D01*
X217321842Y-70928158D01*
X217288231Y-70905868D01*
X217250000Y-70898400D01*
X214042084Y-70898400D01*
X213851600Y-70707916D01*
X213851600Y-68792084D01*
X214042084Y-68601600D01*
X218707916Y-68601600D01*
X219648400Y-69542084D01*
X219648400Y-69542084D01*
G37*
X219648400Y-69542084D02*
X219648400Y-89457916D01*
X216928158Y-92178158D01*
X216905868Y-92211769D01*
X216898400Y-92250000D01*
X216898400Y-94943993D01*
X216769614Y-95254145D01*
X216769187Y-95743708D01*
X216898400Y-96056427D01*
X216898400Y-121207916D01*
X213178158Y-124928158D01*
X213155868Y-124961769D01*
X213148400Y-125000000D01*
X213148400Y-128957916D01*
X208457916Y-133648400D01*
X203542084Y-133648400D01*
X202321842Y-132428158D01*
X202288231Y-132405868D01*
X202250000Y-132398400D01*
X198556007Y-132398400D01*
X198245855Y-132269614D01*
X197756292Y-132269187D01*
X197443573Y-132398400D01*
X196056007Y-132398400D01*
X195745855Y-132269614D01*
X195256292Y-132269187D01*
X194943573Y-132398400D01*
X193556007Y-132398400D01*
X193245855Y-132269614D01*
X192756292Y-132269187D01*
X192443573Y-132398400D01*
X173556007Y-132398400D01*
X173245855Y-132269614D01*
X172756292Y-132269187D01*
X172443573Y-132398400D01*
X171056007Y-132398400D01*
X170745855Y-132269614D01*
X170256292Y-132269187D01*
X169943573Y-132398400D01*
X168556007Y-132398400D01*
X168245855Y-132269614D01*
X167756292Y-132269187D01*
X167443573Y-132398400D01*
X148556007Y-132398400D01*
X148245855Y-132269614D01*
X147756292Y-132269187D01*
X147443573Y-132398400D01*
X146056007Y-132398400D01*
X145745855Y-132269614D01*
X145256292Y-132269187D01*
X144943573Y-132398400D01*
X143556007Y-132398400D01*
X143245855Y-132269614D01*
X142756292Y-132269187D01*
X142443573Y-132398400D01*
X129000000Y-132398400D01*
X128960472Y-132406405D01*
X128928158Y-132428158D01*
X122207916Y-139148400D01*
X111792084Y-139148400D01*
X111351600Y-138707916D01*
X111351600Y-138042084D01*
X111792084Y-137601600D01*
X116962427Y-137601600D01*
X117143068Y-137782557D01*
X117439053Y-137905460D01*
X117759541Y-137905740D01*
X118055740Y-137783353D01*
X118237811Y-137601600D01*
X121750000Y-137601600D01*
X121789528Y-137593595D01*
X121821842Y-137571842D01*
X128292084Y-131101600D01*
X202707916Y-131101600D01*
X204178158Y-132571842D01*
X204211769Y-132594132D01*
X204250000Y-132601600D01*
X204862165Y-132601600D01*
X204893068Y-132632557D01*
X205189053Y-132755460D01*
X205509541Y-132755740D01*
X205805740Y-132633353D01*
X205837549Y-132601600D01*
X207250000Y-132601600D01*
X207289528Y-132593595D01*
X207321842Y-132571842D01*
X211571842Y-128321842D01*
X211594132Y-128288231D01*
X211601600Y-128250000D01*
X211601600Y-124317031D01*
X211690193Y-124228592D01*
X211805468Y-123950977D01*
X211805731Y-123650381D01*
X211690940Y-123372566D01*
X211601600Y-123283070D01*
X211601600Y-123042084D01*
X213511818Y-121131866D01*
X213689053Y-121205460D01*
X214009541Y-121205740D01*
X214305740Y-121083353D01*
X214532557Y-120856932D01*
X214655460Y-120560947D01*
X214655740Y-120240459D01*
X214581909Y-120061775D01*
X215321842Y-119321842D01*
X215344132Y-119288231D01*
X215351600Y-119250000D01*
X215351600Y-116500000D01*
X215343595Y-116460472D01*
X215321842Y-116428158D01*
X214821842Y-115928158D01*
X214788231Y-115905868D01*
X214750000Y-115898400D01*
X198500000Y-115898400D01*
X198460472Y-115906405D01*
X198428158Y-115928158D01*
X196457916Y-117898400D01*
X170292084Y-117898400D01*
X168321842Y-115928158D01*
X168288231Y-115905868D01*
X168250000Y-115898400D01*
X150542084Y-115898400D01*
X148821842Y-114178158D01*
X148788231Y-114155868D01*
X148750000Y-114148400D01*
X141091270Y-114148400D01*
X141083353Y-114129240D01*
X140856932Y-113902423D01*
X140560947Y-113779520D01*
X140240459Y-113779240D01*
X139944260Y-113901627D01*
X139717443Y-114128048D01*
X139708992Y-114148400D01*
X136042084Y-114148400D01*
X133101600Y-111207916D01*
X133101600Y-98750000D01*
X133093595Y-98710472D01*
X133071842Y-98678158D01*
X132643684Y-98250000D01*
X133792084Y-97101600D01*
X134707916Y-97101600D01*
X135148400Y-97542084D01*
X135148400Y-98207916D01*
X133928158Y-99428158D01*
X133905868Y-99461769D01*
X133898400Y-99500000D01*
X133898400Y-110750000D01*
X133906405Y-110789528D01*
X133928158Y-110821842D01*
X135928158Y-112821842D01*
X135961769Y-112844132D01*
X136000000Y-112851600D01*
X149707916Y-112851600D01*
X151428158Y-114571842D01*
X151461769Y-114594132D01*
X151500000Y-114601600D01*
X169207916Y-114601600D01*
X170928158Y-116321842D01*
X170961769Y-116344132D01*
X171000000Y-116351600D01*
X195500000Y-116351600D01*
X195539528Y-116343595D01*
X195571842Y-116321842D01*
X197792084Y-114101600D01*
X215000000Y-114101600D01*
X215039528Y-114093595D01*
X215071842Y-114071842D01*
X215321842Y-113821842D01*
X215344132Y-113788231D01*
X215351600Y-113750000D01*
X215351600Y-91792084D01*
X218071842Y-89071842D01*
X218094132Y-89038231D01*
X218101600Y-89000000D01*
X218101600Y-71750000D01*
X218093595Y-71710472D01*
X218071842Y-71678158D01*
X217321842Y-70928158D01*
X217288231Y-70905868D01*
X217250000Y-70898400D01*
X214042084Y-70898400D01*
X213851600Y-70707916D01*
X213851600Y-68792084D01*
X214042084Y-68601600D01*
X218707916Y-68601600D01*
X219648400Y-69542084D01*
M02*
