M48
;DRILL file {KiCad 4.0.2-stable} date 2018-05-24 9:21:00 AM
;FORMAT={2:4/ absolute / inch / suppress leading zeros}
FMAT,2
INCH,TZ
T1C0.016
T2C0.018
T3C0.020
T4C0.025
T5C0.026
T6C0.028
T7C0.039
T8C0.040
T9C0.047
T10C0.087
%
G90
G05
M72
T1
X38386Y-43602
X41890Y-35787
X43209Y-38967
X44267Y-34553
X46811Y-24803
X47087Y-28445
X47323Y-24803
X47715Y-28449
X47736Y-35236
X48228Y-29232
X55709Y-41732
X56791Y-28268
X56909Y-31890
X58071Y-34843
X59252Y-47177
X62303Y-28248
X62303Y-32087
X63931Y-35724
X66339Y-46457
X67154Y-44882
X67811Y-36949
X68150Y-45256
X71497Y-47969
X72343Y-26378
X77457Y-35169
X80177Y-49941
X82323Y-50197
X83091Y-48740
X83169Y-21496
X87047Y-22598
X90256Y-20866
T2
X33957Y-33366
X35354Y-32933
X36614Y-32697
X37008Y-34980
X37500Y-33583
X39075Y-35748
X40512Y-35984
X40748Y-34350
X41073Y-34843
X42205Y-37520
X42559Y-54528
X42697Y-34449
X42776Y-30925
X43701Y-32598
X43996Y-39370
X44173Y-54508
X44685Y-29724
X45059Y-32638
X45571Y-37618
X45827Y-38858
X45876Y-28691
X46299Y-53976
X46535Y-42047
X46575Y-32205
X46909Y-29272
X48025Y-24678
X48327Y-26654
X48642Y-35433
X48780Y-29685
X49646Y-31575
X50059Y-25453
X50295Y-29311
X50354Y-34311
X50591Y-39370
X50591Y-39724
X50591Y-40079
X50669Y-38150
X50827Y-34646
X51378Y-31594
X51535Y-39016
X51575Y-29291
X52461Y-45866
X52461Y-45866
X52480Y-26378
X52500Y-28720
X52815Y-38563
X52874Y-26378
X53184Y-30205
X53248Y-45866
X53268Y-26378
X53406Y-27244
X53637Y-29724
X54114Y-45433
X54783Y-37500
X55276Y-45112
X56319Y-48819
X57520Y-28425
X57933Y-46260
X58051Y-32126
X58780Y-47157
X59016Y-28445
X59016Y-31811
X59046Y-27048
X59961Y-25945
X60098Y-48543
X60276Y-47933
X60295Y-44567
X60551Y-28346
X61181Y-32126
X61654Y-33445
X61713Y-46161
X61752Y-48720
X62480Y-33130
X64269Y-26949
X64370Y-32047
X64862Y-48701
X65236Y-47047
X65610Y-28346
X65610Y-31713
X65728Y-33406
X66772Y-33661
X66949Y-27972
X67992Y-28937
X68465Y-31496
X69134Y-31339
X71358Y-26516
X71362Y-49623
X71398Y-46555
X72677Y-48130
X72854Y-32736
X73858Y-45453
X74528Y-48307
X76063Y-32953
X76969Y-31535
X77953Y-30315
X77953Y-33760
X78937Y-46339
X80571Y-20709
X80591Y-27283
X80591Y-27677
X80846Y-51949
X80945Y-27283
X80945Y-27677
X81260Y-46260
X81260Y-54528
X81299Y-27283
X81299Y-27677
X81654Y-27283
X81654Y-27677
X82047Y-27283
X82047Y-27677
X82402Y-27283
X82402Y-27677
X82441Y-32559
X82441Y-33031
X82795Y-27283
X82795Y-27677
X82795Y-33031
X82795Y-32559
X83543Y-48386
X84193Y-47402
X84331Y-27283
X84331Y-27677
X84331Y-29291
X84331Y-30197
X84331Y-31102
X84331Y-32559
X84331Y-33031
X84528Y-19587
X84685Y-27283
X84685Y-27677
X84685Y-29291
X84685Y-30197
X84685Y-31102
X84685Y-32559
X84685Y-33031
X85039Y-27283
X85039Y-27677
X85039Y-29291
X85039Y-30197
X85039Y-31102
X85039Y-32559
X85039Y-33031
X85098Y-21417
X85394Y-27283
X85394Y-27677
X85394Y-32559
X85394Y-33031
X86024Y-18898
X86476Y-20138
X86732Y-24173
X87008Y-31732
X88839Y-19173
X89665Y-22697
X90138Y-21949
X90157Y-21417
T4
X35346Y-38858
X36346Y-38858
X37346Y-38858
X39075Y-40929
X39075Y-41929
X39075Y-42929
X58661Y-41224
X58661Y-42224
X58661Y-43224
T5
X44488Y-20169
X44488Y-21169
X46457Y-20169
X46457Y-21169
X48425Y-20169
X48425Y-21169
X50394Y-20169
X50394Y-21169
X81890Y-20169
X81890Y-21169
X81890Y-22728
X81890Y-23728
T7
X33945Y-30807
X34945Y-30807
X35945Y-30807
X36614Y-37598
X36614Y-52559
X36945Y-30807
X37598Y-37598
X37598Y-52559
X37945Y-30807
X38583Y-37598
X38583Y-52559
X38945Y-30807
X39945Y-30807
X40945Y-30807
X41339Y-53346
X42520Y-53346
X43504Y-45571
X43504Y-46571
X43504Y-47571
X43701Y-53346
X46161Y-22343
X46161Y-24114
X46457Y-37598
X46457Y-52559
X47441Y-37598
X47441Y-52559
X48425Y-37598
X48425Y-52559
X48720Y-22343
X48720Y-24114
X56299Y-26181
X56299Y-37598
X56299Y-52559
X57283Y-26181
X57283Y-37598
X57283Y-52559
X58268Y-26181
X58268Y-37598
X58268Y-52559
X61024Y-53346
X62205Y-53346
X63386Y-53346
X66142Y-26181
X66142Y-37598
X66142Y-52559
X67126Y-26181
X67126Y-37598
X67126Y-52559
X68110Y-26181
X68110Y-37598
X68110Y-52559
X71063Y-53051
X71063Y-54051
X71327Y-23228
X72063Y-53051
X72063Y-54051
X72327Y-23228
X73063Y-53051
X73063Y-54051
X73327Y-23228
X75984Y-26181
X75984Y-37598
X75984Y-52559
X76969Y-26181
X76969Y-37598
X76969Y-52559
X77953Y-26181
X77953Y-37598
X77953Y-52559
X80709Y-53346
X81890Y-53346
X83071Y-53346
X85827Y-26181
X85827Y-37598
X85827Y-52559
X86811Y-26181
X86811Y-37598
X86811Y-52559
X87795Y-26181
X87795Y-37598
X87795Y-52559
X89173Y-28185
X89173Y-29185
X89173Y-30185
X89173Y-31185
X89173Y-32185
X90173Y-28185
X90173Y-29185
X90173Y-30185
X90173Y-31185
X90173Y-32185
T8
X34449Y-38031
X42402Y-38209
X44724Y-26535
X49685Y-37677
X51535Y-34764
X60138Y-50689
X65157Y-55118
X80217Y-34154
T9
X65551Y-40433
X65551Y-42323
T10
X35709Y-34646
X35709Y-49606
X39488Y-34646
X39488Y-49606
X45551Y-34646
X45551Y-49606
X49331Y-34646
X49331Y-49606
X55394Y-23228
X55394Y-34646
X55394Y-49606
X59173Y-23228
X59173Y-34646
X59173Y-49606
X65236Y-23228
X65236Y-34646
X65236Y-49606
X69016Y-23228
X69016Y-34646
X69016Y-49606
X75079Y-23228
X75079Y-34646
X75079Y-49606
X78858Y-23228
X78858Y-34646
X78858Y-49606
X84921Y-23228
X84921Y-34646
X84921Y-49606
X88701Y-23228
X88701Y-34646
X88701Y-49606
T3
X35236Y-40394G85X36024Y-40394
G05
X35236Y-43622G85X36024Y-43622
G05
X35236Y-55354G85X36024Y-55354
G05
X35236Y-58583G85X36024Y-58583
G05
X42126Y-40394G85X42913Y-40394
G05
X42126Y-43622G85X42913Y-43622
G05
X42126Y-55354G85X42913Y-55354
G05
X42126Y-58583G85X42913Y-58583
G05
X49016Y-40394G85X49803Y-40394
G05
X49016Y-43622G85X49803Y-43622
G05
X49016Y-55354G85X49803Y-55354
G05
X49016Y-58583G85X49803Y-58583
G05
X54921Y-40394G85X55709Y-40394
G05
X54921Y-43622G85X55709Y-43622
G05
X54921Y-55354G85X55709Y-55354
G05
X54921Y-58583G85X55709Y-58583
G05
X61811Y-40394G85X62598Y-40394
G05
X61811Y-43622G85X62598Y-43622
G05
X61811Y-55354G85X62598Y-55354
G05
X61811Y-58583G85X62598Y-58583
G05
X68701Y-40394G85X69488Y-40394
G05
X68701Y-43622G85X69488Y-43622
G05
X68701Y-55354G85X69488Y-55354
G05
X68701Y-58583G85X69488Y-58583
G05
X74606Y-40394G85X75394Y-40394
G05
X74606Y-43622G85X75394Y-43622
G05
X74606Y-55354G85X75394Y-55354
G05
X74606Y-58583G85X75394Y-58583
G05
X81496Y-40394G85X82283Y-40394
G05
X81496Y-43622G85X82283Y-43622
G05
X81496Y-55354G85X82283Y-55354
G05
X81496Y-58583G85X82283Y-58583
G05
X88386Y-40394G85X89173Y-40394
G05
X88386Y-43622G85X89173Y-43622
G05
X88386Y-55354G85X89173Y-55354
G05
X88386Y-58583G85X89173Y-58583
G05
T6
X39961Y-53455G85X39961Y-53238
G05
X45079Y-53455G85X45079Y-53238
G05
X59646Y-53238G85X59646Y-53455
G05
X64764Y-53238G85X64764Y-53455
G05
X79331Y-53238G85X79331Y-53455
G05
X84449Y-53238G85X84449Y-53455
G05
T7
X33780Y-42028G85X33780Y-42618
G05
X33780Y-56988G85X33780Y-57579
G05
X37480Y-42224G85X37480Y-42421
G05
X37480Y-57185G85X37480Y-57382
G05
X40669Y-42028G85X40669Y-42618
G05
X40669Y-56988G85X40669Y-57579
G05
X44370Y-42224G85X44370Y-42421
G05
X44370Y-57185G85X44370Y-57382
G05
X47559Y-42028G85X47559Y-42618
G05
X47559Y-56988G85X47559Y-57579
G05
X51260Y-42224G85X51260Y-42421
G05
X51260Y-57185G85X51260Y-57382
G05
X53465Y-42028G85X53465Y-42618
G05
X53465Y-56988G85X53465Y-57579
G05
X57165Y-42224G85X57165Y-42421
G05
X57165Y-57185G85X57165Y-57382
G05
X60354Y-42028G85X60354Y-42618
G05
X60354Y-56988G85X60354Y-57579
G05
X64055Y-42224G85X64055Y-42421
G05
X64055Y-57185G85X64055Y-57382
G05
X67244Y-42028G85X67244Y-42618
G05
X67244Y-56988G85X67244Y-57579
G05
X70945Y-42224G85X70945Y-42421
G05
X70945Y-57185G85X70945Y-57382
G05
X73150Y-42028G85X73150Y-42618
G05
X73150Y-56988G85X73150Y-57579
G05
X76850Y-42224G85X76850Y-42421
G05
X76850Y-57185G85X76850Y-57382
G05
X80039Y-42028G85X80039Y-42618
G05
X80039Y-56988G85X80039Y-57579
G05
X83740Y-42224G85X83740Y-42421
G05
X83740Y-57185G85X83740Y-57382
G05
X86929Y-42028G85X86929Y-42618
G05
X86929Y-56988G85X86929Y-57579
G05
X90630Y-42224G85X90630Y-42421
G05
X90630Y-57185G85X90630Y-57382
G05
T0
M30
