M48
INCH,TZ
T1C0.016
T2C0.018
T3C0.020
T4C0.025
T5C0.026
T6C0.028
T7C0.030
T8C0.039
T9C0.040
T10C0.047
T11C0.087
T12C0.051
%
G90
G05
T1
X38386Y-43602
X41890Y-35787
X43209Y-38967
X44267Y-34553
X46811Y-24803
X47087Y-28445
X47323Y-24803
X47715Y-28449
X47736Y-35236
X48228Y-29232
X51299Y-39409
X55709Y-41732
X56791Y-28268
X56909Y-31890
X58071Y-34843
X59252Y-47264
X62303Y-28248
X62303Y-32087
X63931Y-35724
X66339Y-46457
X67154Y-44563
X67815Y-36919
X68110Y-45079
X71457Y-47618
X72343Y-26378
X77457Y-35169
X80177Y-49941
X82323Y-50197
X83091Y-48740
X83169Y-21555
X87106Y-22638
X90256Y-20866
T2
X33976Y-33366
X34016Y-37244
X34350Y-32421
X37500Y-33839
X39075Y-35748
X40197Y-36437
X40551Y-33976
X41043Y-34843
X42205Y-37520
X42224Y-30846
X42618Y-34350
X42815Y-30807
X43037Y-33164
X43760Y-32579
X43898Y-37185
X43996Y-39272
X44665Y-29705
X45374Y-39724
X46063Y-41594
X46152Y-32469
X46378Y-26909
X46909Y-29272
X47343Y-31201
X47579Y-32480
X47756Y-39311
X48031Y-24685
X48110Y-40335
X48150Y-39311
X48327Y-26654
X48543Y-39311
X48642Y-35433
X49606Y-24252
X49606Y-30768
X49626Y-28760
X50118Y-25453
X50295Y-30768
X50827Y-34646
X51378Y-31102
X51614Y-38740
X52047Y-37480
X52264Y-39665
X52461Y-45866
X52480Y-26378
X52500Y-28720
X52835Y-29882
X52874Y-26378
X53248Y-45866
X53268Y-26378
X53642Y-30020
X54705Y-45492
X55216Y-45177
X55217Y-24705
X56319Y-48819
X57520Y-28425
X57933Y-46299
X58051Y-32126
X58780Y-47205
X59094Y-27106
X59173Y-28268
X59941Y-25945
X60098Y-48543
X60259Y-47951
X60512Y-28661
X60531Y-45472
X60728Y-31929
X61220Y-30866
X61457Y-33465
X61614Y-28268
X61988Y-46161
X62480Y-33130
X62992Y-25945
X64213Y-34114
X64370Y-31988
X64390Y-27126
X64528Y-48858
X65610Y-31791
X65630Y-28228
X65728Y-33406
X67087Y-27933
X67933Y-30807
X67992Y-28937
X71378Y-24528
X71457Y-49626
X71516Y-33465
X71791Y-45276
X72352Y-48120
X72776Y-32776
X72953Y-45295
X73858Y-45453
X75098Y-54134
X77953Y-30315
X77953Y-33661
X78937Y-46339
X79331Y-54134
X80492Y-32854
X81476Y-46260
X82008Y-32854
X82382Y-32854
X82756Y-32854
X83524Y-48346
X83701Y-51378
X84193Y-47402
X86142Y-20394
X86280Y-46260
X86732Y-46260
X87165Y-46260
X88601Y-21171
X90591Y-21417
T4
X35346Y-38858
X36346Y-38858
X37346Y-38858
X39075Y-40929
X39075Y-41929
X39075Y-42929
X58661Y-41224
X58661Y-42224
X58661Y-43224
T5
X44488Y-20169
X44488Y-21169
X46457Y-20169
X46457Y-21169
X48425Y-20169
X48425Y-21169
X50394Y-20169
X50394Y-21169
X81890Y-20169
X81890Y-21169
X81890Y-22728
X81890Y-23728
T8
X33945Y-28839
X33945Y-30807
X34945Y-28839
X34945Y-30807
X35945Y-28839
X35945Y-30807
X36614Y-37598
X36614Y-52559
X36945Y-28839
X36945Y-30807
X37598Y-37598
X37598Y-52559
X37945Y-28839
X37945Y-30807
X38583Y-37598
X38583Y-52559
X38945Y-28839
X38945Y-30807
X39945Y-28839
X39945Y-30807
X40945Y-28839
X40945Y-30807
X41339Y-53346
X42520Y-53346
X43504Y-45571
X43504Y-46571
X43504Y-47571
X43701Y-53346
X46161Y-22343
X46161Y-24114
X46457Y-37598
X46457Y-52559
X47441Y-37598
X47441Y-52559
X48425Y-37598
X48425Y-52559
X48720Y-22343
X48720Y-24114
X56299Y-26181
X56299Y-37598
X56299Y-52559
X57283Y-26181
X57283Y-37598
X57283Y-52559
X58268Y-26181
X58268Y-37598
X58268Y-52559
X60827Y-53346
X62008Y-53346
X63189Y-53346
X66142Y-26181
X66142Y-37598
X66142Y-52559
X67126Y-26181
X67126Y-37598
X67126Y-52559
X68110Y-26181
X68110Y-37598
X68110Y-52559
X71063Y-53051
X71063Y-54051
X71327Y-23228
X72063Y-53051
X72063Y-54051
X72327Y-23228
X73063Y-53051
X73063Y-54051
X73327Y-23228
X75984Y-26181
X75984Y-37598
X75984Y-52559
X76969Y-26181
X76969Y-37598
X76969Y-52559
X77953Y-26181
X77953Y-37598
X77953Y-52559
X80709Y-53346
X81890Y-53346
X83071Y-53346
X85827Y-26181
X85827Y-37598
X85827Y-52559
X86811Y-26181
X86811Y-37598
X86811Y-52559
X87795Y-26181
X87795Y-37598
X87795Y-52559
X89173Y-28185
X89173Y-29185
X89173Y-30185
X89173Y-31185
X89173Y-32185
X90173Y-28185
X90173Y-29185
X90173Y-30185
X90173Y-31185
X90173Y-32185
T9
X34449Y-38031
X42402Y-38209
X44724Y-26535
X49685Y-37677
X51535Y-34764
X60138Y-51280
X65157Y-55118
X80217Y-34154
T10
X65551Y-40433
X65551Y-42323
T11
X35709Y-34646
X35709Y-49606
X39488Y-34646
X39488Y-49606
X45551Y-34646
X45551Y-49606
X49331Y-34646
X49331Y-49606
X55394Y-23228
X55394Y-34646
X55394Y-49606
X59173Y-23228
X59173Y-34646
X59173Y-49606
X65236Y-23228
X65236Y-34646
X65236Y-49606
X69016Y-23228
X69016Y-34646
X69016Y-49606
X75079Y-23228
X75079Y-34646
X75079Y-49606
X78858Y-23228
X78858Y-34646
X78858Y-49606
X84921Y-23228
X84921Y-34646
X84921Y-49606
X88701Y-23228
X88701Y-34646
X88701Y-49606
T12
X33504Y-29823
X34173Y-29823
X43011Y-18527
X43011Y-19196
T3
X35236Y-40394G85X36024Y-40394
G05
X35236Y-43622G85X36024Y-43622
G05
X35236Y-55354G85X36024Y-55354
G05
X35236Y-58583G85X36024Y-58583
G05
X42126Y-40394G85X42913Y-40394
G05
X42126Y-43622G85X42913Y-43622
G05
X42126Y-55354G85X42913Y-55354
G05
X42126Y-58583G85X42913Y-58583
G05
X49016Y-40394G85X49803Y-40394
G05
X49016Y-43622G85X49803Y-43622
G05
X49016Y-55354G85X49803Y-55354
G05
X49016Y-58583G85X49803Y-58583
G05
X54921Y-40394G85X55709Y-40394
G05
X54921Y-43622G85X55709Y-43622
G05
X54921Y-55354G85X55709Y-55354
G05
X54921Y-58583G85X55709Y-58583
G05
X61811Y-40394G85X62598Y-40394
G05
X61811Y-43622G85X62598Y-43622
G05
X61811Y-55354G85X62598Y-55354
G05
X61811Y-58583G85X62598Y-58583
G05
X68701Y-40394G85X69488Y-40394
G05
X68701Y-43622G85X69488Y-43622
G05
X68701Y-55354G85X69488Y-55354
G05
X68701Y-58583G85X69488Y-58583
G05
X74606Y-40394G85X75394Y-40394
G05
X74606Y-43622G85X75394Y-43622
G05
X74606Y-55354G85X75394Y-55354
G05
X74606Y-58583G85X75394Y-58583
G05
X81496Y-40394G85X82283Y-40394
G05
X81496Y-43622G85X82283Y-43622
G05
X81496Y-55354G85X82283Y-55354
G05
X81496Y-58583G85X82283Y-58583
G05
X88386Y-40394G85X89173Y-40394
G05
X88386Y-43622G85X89173Y-43622
G05
X88386Y-55354G85X89173Y-55354
G05
X88386Y-58583G85X89173Y-58583
G05
T6
X39961Y-53455G85X39961Y-53238
G05
X45079Y-53455G85X45079Y-53238
G05
X59449Y-53238G85X59449Y-53455
G05
X64567Y-53238G85X64567Y-53455
G05
X79331Y-53238G85X79331Y-53455
G05
X84449Y-53238G85X84449Y-53455
G05
T7
X33864Y-19983G85X33726Y-20497
G05
X33864Y-22536G85X33726Y-22023
G05
X35003Y-18288G85X34627Y-18664
G05
X35003Y-24231G85X34627Y-23855
G05
X35872Y-19921G85X35577Y-20433
G05
X36835Y-17388G85X36322Y-17525
G05
X36835Y-25132G85X36322Y-24994
G05
X38875Y-17525G85X38361Y-17388
G05
X38875Y-24994G85X38361Y-25132
G05
X39620Y-22087G85X39325Y-22598
G05
X40570Y-18664G85X40194Y-18288
G05
X40570Y-23855G85X40194Y-24231
G05
X41470Y-20497G85X41333Y-19983
G05
X41470Y-22023G85X41333Y-22536
G05
T8
X33780Y-42028G85X33780Y-42618
G05
X33780Y-56988G85X33780Y-57579
G05
X37480Y-42224G85X37480Y-42421
G05
X37480Y-57185G85X37480Y-57382
G05
X40669Y-42028G85X40669Y-42618
G05
X40669Y-56988G85X40669Y-57579
G05
X44370Y-42224G85X44370Y-42421
G05
X44370Y-57185G85X44370Y-57382
G05
X47559Y-42028G85X47559Y-42618
G05
X47559Y-56988G85X47559Y-57579
G05
X51260Y-42224G85X51260Y-42421
G05
X51260Y-57185G85X51260Y-57382
G05
X53465Y-42028G85X53465Y-42618
G05
X53465Y-56988G85X53465Y-57579
G05
X57165Y-42224G85X57165Y-42421
G05
X57165Y-57185G85X57165Y-57382
G05
X60354Y-42028G85X60354Y-42618
G05
X60354Y-56988G85X60354Y-57579
G05
X64055Y-42224G85X64055Y-42421
G05
X64055Y-57185G85X64055Y-57382
G05
X67244Y-42028G85X67244Y-42618
G05
X67244Y-56988G85X67244Y-57579
G05
X70945Y-42224G85X70945Y-42421
G05
X70945Y-57185G85X70945Y-57382
G05
X73150Y-42028G85X73150Y-42618
G05
X73150Y-56988G85X73150Y-57579
G05
X76850Y-42224G85X76850Y-42421
G05
X76850Y-57185G85X76850Y-57382
G05
X80039Y-42028G85X80039Y-42618
G05
X80039Y-56988G85X80039Y-57579
G05
X83740Y-42224G85X83740Y-42421
G05
X83740Y-57185G85X83740Y-57382
G05
X86929Y-42028G85X86929Y-42618
G05
X86929Y-56988G85X86929Y-57579
G05
X90630Y-42224G85X90630Y-42421
G05
X90630Y-57185G85X90630Y-57382
G05
T0
M30
