M48
INCH,TZ
T1C0.016
T2C0.018
T3C0.020
T4C0.025
T5C0.026
T6C0.028
T7C0.030
T8C0.039
T9C0.040
T10C0.047
T11C0.087
T12C0.039
%
G90
G05
T1
X38327Y-41929
X44311Y-34547
X46811Y-24803
X47087Y-28445
X47106Y-35886
X47323Y-24803
X47715Y-28449
X48228Y-29232
X55709Y-41732
X56791Y-28268
X56909Y-31890
X58071Y-34843
X59252Y-47264
X62303Y-28248
X62303Y-32087
X63931Y-35724
X67154Y-44563
X67815Y-36919
X68051Y-45059
X72343Y-26378
X77457Y-35169
X80177Y-49941
X80217Y-32185
X82618Y-50118
X83091Y-48740
X86339Y-21181
T2
X33976Y-33366
X34016Y-37244
X34350Y-32421
X37795Y-33465
X39075Y-35748
X40197Y-36437
X40551Y-33976
X40650Y-45669
X42224Y-30846
X42480Y-34469
X42815Y-30807
X43037Y-33164
X43760Y-32579
X43898Y-37185
X43996Y-39272
X44665Y-29705
X45374Y-39724
X46378Y-26909
X46870Y-32500
X46909Y-29272
X47343Y-31201
X47362Y-32480
X47756Y-39311
X48150Y-39311
X48327Y-26654
X48543Y-39311
X49606Y-24252
X49606Y-30768
X49626Y-28760
X50118Y-25453
X50295Y-30768
X50827Y-34646
X51142Y-40689
X51378Y-31102
X52047Y-37480
X52461Y-45866
X52480Y-26378
X52500Y-28720
X52835Y-29882
X52874Y-26378
X53248Y-45866
X53268Y-26378
X54705Y-45492
X55216Y-45177
X55217Y-24705
X56319Y-48819
X57520Y-28425
X57933Y-46299
X58051Y-32126
X58780Y-47205
X59094Y-27106
X59173Y-28268
X59941Y-25945
X60098Y-48543
X60259Y-47951
X60512Y-28661
X60671Y-45463
X60728Y-31929
X61220Y-30866
X61457Y-33465
X61614Y-28268
X61713Y-46161
X62972Y-33602
X62992Y-25945
X64213Y-34114
X64370Y-31988
X64390Y-27126
X64528Y-48858
X65610Y-31791
X65630Y-28228
X65728Y-33406
X67087Y-27933
X67933Y-30807
X67992Y-28937
X71378Y-26457
X71516Y-33465
X77953Y-29134
X77953Y-33661
X78937Y-46339
X79331Y-54134
X81476Y-46260
X82008Y-32854
X82382Y-32854
X82756Y-32854
X83524Y-48346
X83543Y-51457
X84193Y-47402
X86280Y-46260
X88622Y-20866
X89862Y-21634
X90000Y-19350
T4
X35181Y-38878
X36181Y-38878
X37181Y-38878
X58661Y-41224
X58661Y-42224
X58661Y-43224
T5
X44488Y-20366
X44488Y-21366
X46260Y-20366
X46260Y-21366
X48425Y-20366
X48425Y-21366
X50394Y-20366
X50394Y-21366
X81890Y-20366
X81890Y-21366
T8
X33945Y-28839
X33945Y-30807
X34945Y-28839
X34945Y-30807
X35945Y-28839
X35945Y-30807
X36614Y-37598
X36614Y-52559
X36945Y-28839
X36945Y-30807
X37598Y-37598
X37598Y-52559
X37945Y-28839
X37945Y-30807
X38583Y-37598
X38583Y-52559
X38945Y-28839
X38945Y-30807
X39945Y-28839
X39945Y-30807
X40945Y-28839
X40945Y-30807
X42520Y-50787
X42520Y-51969
X42520Y-53150
X43504Y-45571
X43504Y-46571
X43504Y-47571
X46161Y-22343
X46161Y-24114
X46457Y-37598
X46457Y-52559
X47441Y-37598
X47441Y-52559
X48425Y-37598
X48425Y-52559
X48720Y-22343
X48720Y-24114
X56299Y-26181
X56299Y-37598
X56299Y-52559
X57283Y-26181
X57283Y-37598
X57283Y-52559
X58268Y-26181
X58268Y-37598
X58268Y-52559
X62205Y-50787
X62205Y-51969
X62205Y-53150
X66142Y-26181
X66142Y-37598
X66142Y-52559
X67126Y-26181
X67126Y-37598
X67126Y-52559
X68110Y-26181
X68110Y-37598
X68110Y-52559
X75984Y-26181
X75984Y-37598
X75984Y-52559
X76969Y-26181
X76969Y-37598
X76969Y-52559
X77953Y-26181
X77953Y-37598
X77953Y-52559
X81890Y-50787
X81890Y-51969
X81890Y-53150
X85827Y-26181
X85827Y-37598
X85827Y-52559
X86811Y-26181
X86811Y-37598
X86811Y-52559
X87795Y-26181
X87795Y-37598
X87795Y-52559
X89173Y-28185
X89173Y-29185
X89173Y-30185
X89173Y-31185
X89173Y-32185
X90173Y-28185
X90173Y-29185
X90173Y-30185
X90173Y-31185
X90173Y-32185
T9
X34449Y-38031
X42402Y-38209
X44724Y-26535
X49685Y-37677
X51535Y-34764
X60138Y-51280
X64961Y-54370
X80217Y-34350
T10
X65551Y-40433
X65551Y-42323
T11
X35709Y-34646
X35709Y-49606
X39488Y-34646
X39488Y-49606
X45551Y-34646
X45551Y-49606
X49331Y-34646
X49331Y-49606
X55394Y-23228
X55394Y-34646
X55394Y-49606
X59173Y-23228
X59173Y-34646
X59173Y-49606
X65236Y-23228
X65236Y-34646
X65236Y-49606
X69016Y-23228
X69016Y-34646
X69016Y-49606
X75079Y-23228
X75079Y-34646
X75079Y-49606
X78858Y-23228
X78858Y-34646
X78858Y-49606
X84921Y-23228
X84921Y-34646
X84921Y-49606
X88701Y-23228
X88701Y-34646
X88701Y-49606
T12
X33465Y-29823
X34154Y-29823
X43012Y-18504
X43012Y-19193
T3
X35236Y-40394G85X36024Y-40394
G05
X35236Y-43622G85X36024Y-43622
G05
X35236Y-55354G85X36024Y-55354
G05
X35236Y-58583G85X36024Y-58583
G05
X42126Y-40394G85X42913Y-40394
G05
X42126Y-43622G85X42913Y-43622
G05
X42126Y-55354G85X42913Y-55354
G05
X42126Y-58583G85X42913Y-58583
G05
X49016Y-40394G85X49803Y-40394
G05
X49016Y-43622G85X49803Y-43622
G05
X49016Y-55354G85X49803Y-55354
G05
X49016Y-58583G85X49803Y-58583
G05
X54921Y-40394G85X55709Y-40394
G05
X54921Y-43622G85X55709Y-43622
G05
X54921Y-55354G85X55709Y-55354
G05
X54921Y-58583G85X55709Y-58583
G05
X61811Y-40394G85X62598Y-40394
G05
X61811Y-43622G85X62598Y-43622
G05
X61811Y-55354G85X62598Y-55354
G05
X61811Y-58583G85X62598Y-58583
G05
X68701Y-40394G85X69488Y-40394
G05
X68701Y-43622G85X69488Y-43622
G05
X68701Y-55354G85X69488Y-55354
G05
X68701Y-58583G85X69488Y-58583
G05
X74606Y-40394G85X75394Y-40394
G05
X74606Y-43622G85X75394Y-43622
G05
X74606Y-55354G85X75394Y-55354
G05
X74606Y-58583G85X75394Y-58583
G05
X81496Y-40394G85X82283Y-40394
G05
X81496Y-43622G85X82283Y-43622
G05
X81496Y-55354G85X82283Y-55354
G05
X81496Y-58583G85X82283Y-58583
G05
X88386Y-40394G85X89173Y-40394
G05
X88386Y-43622G85X89173Y-43622
G05
X88386Y-55354G85X89173Y-55354
G05
X88386Y-58583G85X89173Y-58583
G05
T6
X42411Y-49409G85X42628Y-49409
G05
X42411Y-54528G85X42628Y-54528
G05
X62096Y-49409G85X62313Y-49409
G05
X62096Y-54528G85X62313Y-54528
G05
X81781Y-49409G85X81998Y-49409
G05
X81781Y-54528G85X81998Y-54528
G05
T7
X33864Y-19983G85X33726Y-20497
G05
X33864Y-22536G85X33726Y-22023
G05
X35003Y-18288G85X34627Y-18664
G05
X35003Y-24231G85X34627Y-23855
G05
X35872Y-19921G85X35577Y-20433
G05
X36835Y-17388G85X36322Y-17525
G05
X36835Y-25132G85X36322Y-24994
G05
X38875Y-17525G85X38361Y-17388
G05
X38875Y-24994G85X38361Y-25132
G05
X39620Y-22087G85X39325Y-22598
G05
X40570Y-18664G85X40194Y-18288
G05
X40570Y-23855G85X40194Y-24231
G05
X41470Y-20497G85X41333Y-19983
G05
X41470Y-22023G85X41333Y-22536
G05
T8
X33780Y-42028G85X33780Y-42618
G05
X33780Y-56988G85X33780Y-57579
G05
X37480Y-42224G85X37480Y-42421
G05
X37480Y-57185G85X37480Y-57382
G05
X40669Y-42028G85X40669Y-42618
G05
X40669Y-56988G85X40669Y-57579
G05
X44370Y-42224G85X44370Y-42421
G05
X44370Y-57185G85X44370Y-57382
G05
X47559Y-42028G85X47559Y-42618
G05
X47559Y-56988G85X47559Y-57579
G05
X51260Y-42224G85X51260Y-42421
G05
X51260Y-57185G85X51260Y-57382
G05
X53465Y-42028G85X53465Y-42618
G05
X53465Y-56988G85X53465Y-57579
G05
X57165Y-42224G85X57165Y-42421
G05
X57165Y-57185G85X57165Y-57382
G05
X60354Y-42028G85X60354Y-42618
G05
X60354Y-56988G85X60354Y-57579
G05
X64055Y-42224G85X64055Y-42421
G05
X64055Y-57185G85X64055Y-57382
G05
X67244Y-42028G85X67244Y-42618
G05
X67244Y-56988G85X67244Y-57579
G05
X70945Y-42224G85X70945Y-42421
G05
X70945Y-57185G85X70945Y-57382
G05
X73150Y-42028G85X73150Y-42618
G05
X73150Y-56988G85X73150Y-57579
G05
X76850Y-42224G85X76850Y-42421
G05
X76850Y-57185G85X76850Y-57382
G05
X80039Y-42028G85X80039Y-42618
G05
X80039Y-56988G85X80039Y-57579
G05
X83740Y-42224G85X83740Y-42421
G05
X83740Y-57185G85X83740Y-57382
G05
X86929Y-42028G85X86929Y-42618
G05
X86929Y-56988G85X86929Y-57579
G05
X90630Y-42224G85X90630Y-42421
G05
X90630Y-57185G85X90630Y-57382
G05
T0
M30
