  0
SECTION
  2
HEADER
  9
$ACADVER
  1
AC1014
  9
$HANDSEED
  5
FFFF
  9
$MEASUREMENT
 70
     1
  0
ENDSEC
  0
SECTION
  2
TABLES
  0
TABLE
  2
VPORT
  5
8
330
0
100
AcDbSymbolTable
 70
     4
  0
VPORT
  5
2E
330
8
100
AcDbSymbolTableRecord
100
AcDbViewportTableRecord
  2
*ACTIVE
 70
     0
 10
0.0
 20
0.0
 11
1.0
 21
1.0
 12
210.0
 22
148.5
 13
0.0
 23
0.0
 14
10.0
 24
10.0
 15
10.0
 25
10.0
 16
0.0
 26
0.0
 36
1.0
 17
0.0
 27
0.0
 37
0.0
 40
341.0
 41
1.24
 42
50.0
 43
0.0
 44
0.0
 50
0.0
 51
0.0
 71
     0
 72
   100
 73
     1
 74
     3
 75
     0
 76
     0
 77
     0
 78
     0
  0
ENDTAB
  0
TABLE
  2
LTYPE
  5
5
330
0
100
AcDbSymbolTable
 70
     1
  0
LTYPE
  5
14
330
5
100
AcDbSymbolTableRecord
100
AcDbLinetypeTableRecord
  2
BYBLOCK
 70
     0
  3

 72
    65
 73
     0
 40
0.0
  0
LTYPE
  5
15
330
5
100
AcDbSymbolTableRecord
100
AcDbLinetypeTableRecord
  2
BYLAYER
 70
     0
  3

 72
    65
 73
     0
 40
0.0
  0
LTYPE
  5
16
330
5
100
AcDbSymbolTableRecord
100
AcDbLinetypeTableRecord
  2
CONTINUOUS
 70
     0
  3
Solid line
 72
    65
 73
     0
 40
0.0
  0
ENDTAB
  0
TABLE
  2
LAYER
  5
2
100
AcDbSymbolTable
 70
2
  0
LAYER
  5
50
100
AcDbSymbolTableRecord
100
AcDbLayerTableRecord
  2
0
 70
0
  6
CONTINUOUS
  0
LAYER
  5
51
100
AcDbSymbolTableRecord
100
AcDbLayerTableRecord
  2
Hole_Centres
 70
0
  6
CONTINUOUS
  0
ENDTAB
  0
TABLE
  2
STYLE
  5
3
330
0
100
AcDbSymbolTable
 70
     1
  0
STYLE
  5
11
330
3
100
AcDbSymbolTableRecord
100
AcDbTextStyleTableRecord
  2
STANDARD
 70
     0
 40
0.0
 41
1.0
 50
0.0
 71
     0
 42
2.5
  3
txt
  4

  0
ENDTAB
  0
TABLE
  2
VIEW
  5
6
330
0
100
AcDbSymbolTable
 70
     0
  0
ENDTAB
  0
TABLE
  2
UCS
  5
7
330
0
100
AcDbSymbolTable
 70
     0
  0
ENDTAB
  0
TABLE
  2
APPID
  5
9
330
0
100
AcDbSymbolTable
 70
     2
  0
APPID
  5
12
330
9
100
AcDbSymbolTableRecord
100
AcDbRegAppTableRecord
  2
ACAD
 70
     0
  0
ENDTAB
  0
TABLE
  2
DIMSTYLE
  5
A
330
0
100
AcDbSymbolTable
 70
     1
  0
DIMSTYLE
105
27
330
A
100
AcDbSymbolTableRecord
100
AcDbDimStyleTableRecord
  2
ISO-25
 70
     0
  3

  4

  5

  6

  7

 40
1.0
 41
2.5
 42
0.625
 43
3.75
 44
1.25
 45
0.0
 46
0.0
 47
0.0
 48
0.0
140
2.5
141
2.5
142
0.0
143
0.03937007874016
144
1.0
145
0.0
146
1.0
147
0.625
 71
     0
 72
     0
 73
     0
 74
     0
 75
     0
 76
     0
 77
     1
 78
     8
170
     0
171
     3
172
     1
173
     0
174
     0
175
     0
176
     0
177
     0
178
     0
270
     2
271
     2
272
     2
273
     2
274
     3
340
11
275
     0
280
     0
281
     0
282
     0
283
     0
284
     8
285
     0
286
     0
287
     3
288
     0
  0
ENDTAB
  0
TABLE
  2
BLOCK_RECORD
  5
1
330
0
100
AcDbSymbolTable
 70
     1
  0
BLOCK_RECORD
  5
1F
330
1
100
AcDbSymbolTableRecord
100
AcDbBlockTableRecord
  2
*MODEL_SPACE
  0
BLOCK_RECORD
  5
1B
330
1
100
AcDbSymbolTableRecord
100
AcDbBlockTableRecord
  2
*PAPER_SPACE
  0
ENDTAB
  0
ENDSEC
  0
SECTION
  2
BLOCKS
  0
BLOCK
  5
20
330
1F
100
AcDbEntity
  8
0
100
AcDbBlockBegin
  2
*MODEL_SPACE
 70
     0
 10
0.0
 20
0.0
 30
0.0
  3
*MODEL_SPACE
  1

  0
ENDBLK
  5
21
330
1F
100
AcDbEntity
  8
0
100
AcDbBlockEnd
  0
BLOCK
  5
1C
330
1B
100
AcDbEntity
 67
     1
  8
0
100
AcDbBlockBegin
  2
*PAPER_SPACE
  1

  0
ENDBLK
  5
1D
330
1B
100
AcDbEntity
 67
     1
  8
0
100
AcDbBlockEnd
  0
ENDSEC
  0
SECTION
  2
ENTITIES
  0
SPLINE
  5
100
100
AcDbEntity
  8
Hole_Centres
 62
7
100
AcDbSpline
 70
8
 71
3
 72
8
 73
4
 74
0
 40
0
 40
0
 40
0
 40
0
 40
1
 40
1
 40
1
 40
1
 10
36.234375
 20
107.689767
 30
0.0
 10
36.234375
 20
103.002265
 30
0.0
 10
36.234375
 20
103.002265
 30
0.0
 10
36.234375
 20
103.002265
 30
0.0
  0
SPLINE
  5
101
100
AcDbEntity
  8
Hole_Centres
 62
7
100
AcDbSpline
 70
8
 71
3
 72
8
 73
4
 74
0
 40
0
 40
0
 40
0
 40
0
 40
1
 40
1
 40
1
 40
1
 10
33.890625
 20
105.346016
 30
0.0
 10
38.578126
 20
105.346016
 30
0.0
 10
38.578126
 20
105.346016
 30
0.0
 10
38.578126
 20
105.346016
 30
0.0
  0
SPLINE
  5
102
100
AcDbEntity
  8
Hole_Centres
 62
7
100
AcDbSpline
 70
8
 71
3
 72
8
 73
4
 74
0
 40
0
 40
0
 40
0
 40
0
 40
1
 40
1
 40
1
 40
1
 10
12.796875
 20
107.689767
 30
0.0
 10
12.796875
 20
103.002265
 30
0.0
 10
12.796875
 20
103.002265
 30
0.0
 10
12.796875
 20
103.002265
 30
0.0
  0
SPLINE
  5
103
100
AcDbEntity
  8
Hole_Centres
 62
7
100
AcDbSpline
 70
8
 71
3
 72
8
 73
4
 74
0
 40
0
 40
0
 40
0
 40
0
 40
1
 40
1
 40
1
 40
1
 10
10.453124
 20
105.346016
 30
0.0
 10
15.140625
 20
105.346016
 30
0.0
 10
15.140625
 20
105.346016
 30
0.0
 10
15.140625
 20
105.346016
 30
0.0
  0
SPLINE
  5
104
100
AcDbEntity
  8
Hole_Centres
 62
7
100
AcDbSpline
 70
8
 71
3
 72
8
 73
4
 74
0
 40
0
 40
0
 40
0
 40
0
 40
1
 40
1
 40
1
 40
1
 10
59.671875
 20
107.689767
 30
0.0
 10
59.671875
 20
103.002265
 30
0.0
 10
59.671875
 20
103.002265
 30
0.0
 10
59.671875
 20
103.002265
 30
0.0
  0
SPLINE
  5
105
100
AcDbEntity
  8
Hole_Centres
 62
7
100
AcDbSpline
 70
8
 71
3
 72
8
 73
4
 74
0
 40
0
 40
0
 40
0
 40
0
 40
1
 40
1
 40
1
 40
1
 10
57.328124
 20
105.346016
 30
0.0
 10
62.015626
 20
105.346016
 30
0.0
 10
62.015626
 20
105.346016
 30
0.0
 10
62.015626
 20
105.346016
 30
0.0
  0
SPLINE
  5
106
100
AcDbEntity
  8
Hole_Centres
 62
7
100
AcDbSpline
 70
8
 71
3
 72
8
 73
4
 74
0
 40
0
 40
0
 40
0
 40
0
 40
1
 40
1
 40
1
 40
1
 10
83.109374
 20
107.689767
 30
0.0
 10
83.109374
 20
103.002265
 30
0.0
 10
83.109374
 20
103.002265
 30
0.0
 10
83.109374
 20
103.002265
 30
0.0
  0
SPLINE
  5
107
100
AcDbEntity
  8
Hole_Centres
 62
7
100
AcDbSpline
 70
8
 71
3
 72
8
 73
4
 74
0
 40
0
 40
0
 40
0
 40
0
 40
1
 40
1
 40
1
 40
1
 10
80.765624
 20
105.346016
 30
0.0
 10
85.453125
 20
105.346016
 30
0.0
 10
85.453125
 20
105.346016
 30
0.0
 10
85.453125
 20
105.346016
 30
0.0
  0
SPLINE
  5
108
100
AcDbEntity
  8
Hole_Centres
 62
7
100
AcDbSpline
 70
8
 71
3
 72
8
 73
4
 74
0
 40
0
 40
0
 40
0
 40
0
 40
1
 40
1
 40
1
 40
1
 10
106.546875
 20
107.689767
 30
0.0
 10
106.546875
 20
103.002265
 30
0.0
 10
106.546875
 20
103.002265
 30
0.0
 10
106.546875
 20
103.002265
 30
0.0
  0
SPLINE
  5
109
100
AcDbEntity
  8
Hole_Centres
 62
7
100
AcDbSpline
 70
8
 71
3
 72
8
 73
4
 74
0
 40
0
 40
0
 40
0
 40
0
 40
1
 40
1
 40
1
 40
1
 10
104.203124
 20
105.346016
 30
0.0
 10
108.890625
 20
105.346016
 30
0.0
 10
108.890625
 20
105.346016
 30
0.0
 10
108.890625
 20
105.346016
 30
0.0
  0
SPLINE
  5
10a
100
AcDbEntity
  8
Hole_Centres
 62
7
100
AcDbSpline
 70
8
 71
3
 72
8
 73
4
 74
0
 40
0
 40
0
 40
0
 40
0
 40
1
 40
1
 40
1
 40
1
 10
129.984376
 20
107.689767
 30
0.0
 10
129.984376
 20
103.002265
 30
0.0
 10
129.984376
 20
103.002265
 30
0.0
 10
129.984376
 20
103.002265
 30
0.0
  0
SPLINE
  5
10b
100
AcDbEntity
  8
Hole_Centres
 62
7
100
AcDbSpline
 70
8
 71
3
 72
8
 73
4
 74
0
 40
0
 40
0
 40
0
 40
0
 40
1
 40
1
 40
1
 40
1
 10
127.640625
 20
105.346016
 30
0.0
 10
132.328126
 20
105.346016
 30
0.0
 10
132.328126
 20
105.346016
 30
0.0
 10
132.328126
 20
105.346016
 30
0.0
  0
SPLINE
  5
10c
100
AcDbEntity
  8
Hole_Centres
 62
7
100
AcDbSpline
 70
8
 71
3
 72
8
 73
4
 74
0
 40
0
 40
0
 40
0
 40
0
 40
1
 40
1
 40
1
 40
1
 10
129.984376
 20
80.502266
 30
0.0
 10
129.984376
 20
75.814765
 30
0.0
 10
129.984376
 20
75.814765
 30
0.0
 10
129.984376
 20
75.814765
 30
0.0
  0
SPLINE
  5
10d
100
AcDbEntity
  8
Hole_Centres
 62
7
100
AcDbSpline
 70
8
 71
3
 72
8
 73
4
 74
0
 40
0
 40
0
 40
0
 40
0
 40
1
 40
1
 40
1
 40
1
 10
127.640625
 20
78.158516
 30
0.0
 10
132.328126
 20
78.158516
 30
0.0
 10
132.328126
 20
78.158516
 30
0.0
 10
132.328126
 20
78.158516
 30
0.0
  0
SPLINE
  5
10e
100
AcDbEntity
  8
Hole_Centres
 62
7
100
AcDbSpline
 70
8
 71
3
 72
8
 73
4
 74
0
 40
0
 40
0
 40
0
 40
0
 40
1
 40
1
 40
1
 40
1
 10
106.546875
 20
80.502266
 30
0.0
 10
106.546875
 20
75.814765
 30
0.0
 10
106.546875
 20
75.814765
 30
0.0
 10
106.546875
 20
75.814765
 30
0.0
  0
SPLINE
  5
10f
100
AcDbEntity
  8
Hole_Centres
 62
7
100
AcDbSpline
 70
8
 71
3
 72
8
 73
4
 74
0
 40
0
 40
0
 40
0
 40
0
 40
1
 40
1
 40
1
 40
1
 10
104.203124
 20
78.158516
 30
0.0
 10
108.890625
 20
78.158516
 30
0.0
 10
108.890625
 20
78.158516
 30
0.0
 10
108.890625
 20
78.158516
 30
0.0
  0
SPLINE
  5
110
100
AcDbEntity
  8
Hole_Centres
 62
7
100
AcDbSpline
 70
8
 71
3
 72
8
 73
4
 74
0
 40
0
 40
0
 40
0
 40
0
 40
1
 40
1
 40
1
 40
1
 10
83.109374
 20
80.502266
 30
0.0
 10
83.109374
 20
75.814765
 30
0.0
 10
83.109374
 20
75.814765
 30
0.0
 10
83.109374
 20
75.814765
 30
0.0
  0
SPLINE
  5
111
100
AcDbEntity
  8
Hole_Centres
 62
7
100
AcDbSpline
 70
8
 71
3
 72
8
 73
4
 74
0
 40
0
 40
0
 40
0
 40
0
 40
1
 40
1
 40
1
 40
1
 10
80.765624
 20
78.158516
 30
0.0
 10
85.453125
 20
78.158516
 30
0.0
 10
85.453125
 20
78.158516
 30
0.0
 10
85.453125
 20
78.158516
 30
0.0
  0
SPLINE
  5
112
100
AcDbEntity
  8
Hole_Centres
 62
7
100
AcDbSpline
 70
8
 71
3
 72
8
 73
4
 74
0
 40
0
 40
0
 40
0
 40
0
 40
1
 40
1
 40
1
 40
1
 10
59.671874
 20
80.502266
 30
0.0
 10
59.671874
 20
75.814765
 30
0.0
 10
59.671874
 20
75.814765
 30
0.0
 10
59.671874
 20
75.814765
 30
0.0
  0
SPLINE
  5
113
100
AcDbEntity
  8
Hole_Centres
 62
7
100
AcDbSpline
 70
8
 71
3
 72
8
 73
4
 74
0
 40
0
 40
0
 40
0
 40
0
 40
1
 40
1
 40
1
 40
1
 10
57.328123
 20
78.158516
 30
0.0
 10
62.015625
 20
78.158516
 30
0.0
 10
62.015625
 20
78.158516
 30
0.0
 10
62.015625
 20
78.158516
 30
0.0
  0
SPLINE
  5
114
100
AcDbEntity
  8
Hole_Centres
 62
7
100
AcDbSpline
 70
8
 71
3
 72
8
 73
4
 74
0
 40
0
 40
0
 40
0
 40
0
 40
1
 40
1
 40
1
 40
1
 10
36.234374
 20
80.502266
 30
0.0
 10
36.234374
 20
75.814765
 30
0.0
 10
36.234374
 20
75.814765
 30
0.0
 10
36.234374
 20
75.814765
 30
0.0
  0
SPLINE
  5
115
100
AcDbEntity
  8
Hole_Centres
 62
7
100
AcDbSpline
 70
8
 71
3
 72
8
 73
4
 74
0
 40
0
 40
0
 40
0
 40
0
 40
1
 40
1
 40
1
 40
1
 10
33.890623
 20
78.158516
 30
0.0
 10
38.578124
 20
78.158516
 30
0.0
 10
38.578124
 20
78.158516
 30
0.0
 10
38.578124
 20
78.158516
 30
0.0
  0
SPLINE
  5
116
100
AcDbEntity
  8
Hole_Centres
 62
7
100
AcDbSpline
 70
8
 71
3
 72
8
 73
4
 74
0
 40
0
 40
0
 40
0
 40
0
 40
1
 40
1
 40
1
 40
1
 10
12.796875
 20
80.502266
 30
0.0
 10
12.796875
 20
75.814765
 30
0.0
 10
12.796875
 20
75.814765
 30
0.0
 10
12.796875
 20
75.814765
 30
0.0
  0
SPLINE
  5
117
100
AcDbEntity
  8
Hole_Centres
 62
7
100
AcDbSpline
 70
8
 71
3
 72
8
 73
4
 74
0
 40
0
 40
0
 40
0
 40
0
 40
1
 40
1
 40
1
 40
1
 10
10.453124
 20
78.158516
 30
0.0
 10
15.140625
 20
78.158516
 30
0.0
 10
15.140625
 20
78.158516
 30
0.0
 10
15.140625
 20
78.158516
 30
0.0
  0
SPLINE
  5
118
100
AcDbEntity
  8
Hole_Centres
 62
7
100
AcDbSpline
 70
8
 71
3
 72
8
 73
4
 74
0
 40
0
 40
0
 40
0
 40
0
 40
1
 40
1
 40
1
 40
1
 10
12.796875
 20
44.877266
 30
0.0
 10
12.796875
 20
40.189765
 30
0.0
 10
12.796875
 20
40.189765
 30
0.0
 10
12.796875
 20
40.189765
 30
0.0
  0
SPLINE
  5
119
100
AcDbEntity
  8
Hole_Centres
 62
7
100
AcDbSpline
 70
8
 71
3
 72
8
 73
4
 74
0
 40
0
 40
0
 40
0
 40
0
 40
1
 40
1
 40
1
 40
1
 10
10.453124
 20
42.533516
 30
0.0
 10
15.140625
 20
42.533516
 30
0.0
 10
15.140625
 20
42.533516
 30
0.0
 10
15.140625
 20
42.533516
 30
0.0
  0
SPLINE
  5
11a
100
AcDbEntity
  8
Hole_Centres
 62
7
100
AcDbSpline
 70
8
 71
3
 72
8
 73
4
 74
0
 40
0
 40
0
 40
0
 40
0
 40
1
 40
1
 40
1
 40
1
 10
36.234375
 20
44.877266
 30
0.0
 10
36.234375
 20
40.189765
 30
0.0
 10
36.234375
 20
40.189765
 30
0.0
 10
36.234375
 20
40.189765
 30
0.0
  0
SPLINE
  5
11b
100
AcDbEntity
  8
Hole_Centres
 62
7
100
AcDbSpline
 70
8
 71
3
 72
8
 73
4
 74
0
 40
0
 40
0
 40
0
 40
0
 40
1
 40
1
 40
1
 40
1
 10
33.890624
 20
42.533516
 30
0.0
 10
38.578125
 20
42.533516
 30
0.0
 10
38.578125
 20
42.533516
 30
0.0
 10
38.578125
 20
42.533516
 30
0.0
  0
SPLINE
  5
11c
100
AcDbEntity
  8
Hole_Centres
 62
7
100
AcDbSpline
 70
8
 71
3
 72
8
 73
4
 74
0
 40
0
 40
0
 40
0
 40
0
 40
1
 40
1
 40
1
 40
1
 10
59.671875
 20
44.877266
 30
0.0
 10
59.671875
 20
40.189765
 30
0.0
 10
59.671875
 20
40.189765
 30
0.0
 10
59.671875
 20
40.189765
 30
0.0
  0
SPLINE
  5
11d
100
AcDbEntity
  8
Hole_Centres
 62
7
100
AcDbSpline
 70
8
 71
3
 72
8
 73
4
 74
0
 40
0
 40
0
 40
0
 40
0
 40
1
 40
1
 40
1
 40
1
 10
57.328124
 20
42.533516
 30
0.0
 10
62.015626
 20
42.533516
 30
0.0
 10
62.015626
 20
42.533516
 30
0.0
 10
62.015626
 20
42.533516
 30
0.0
  0
SPLINE
  5
11e
100
AcDbEntity
  8
Hole_Centres
 62
7
100
AcDbSpline
 70
8
 71
3
 72
8
 73
4
 74
0
 40
0
 40
0
 40
0
 40
0
 40
1
 40
1
 40
1
 40
1
 10
83.109374
 20
44.877266
 30
0.0
 10
83.109374
 20
40.189765
 30
0.0
 10
83.109374
 20
40.189765
 30
0.0
 10
83.109374
 20
40.189765
 30
0.0
  0
SPLINE
  5
11f
100
AcDbEntity
  8
Hole_Centres
 62
7
100
AcDbSpline
 70
8
 71
3
 72
8
 73
4
 74
0
 40
0
 40
0
 40
0
 40
0
 40
1
 40
1
 40
1
 40
1
 10
80.765624
 20
42.533516
 30
0.0
 10
85.453125
 20
42.533516
 30
0.0
 10
85.453125
 20
42.533516
 30
0.0
 10
85.453125
 20
42.533516
 30
0.0
  0
SPLINE
  5
120
100
AcDbEntity
  8
Hole_Centres
 62
7
100
AcDbSpline
 70
8
 71
3
 72
8
 73
4
 74
0
 40
0
 40
0
 40
0
 40
0
 40
1
 40
1
 40
1
 40
1
 10
106.546875
 20
44.877266
 30
0.0
 10
106.546875
 20
40.189765
 30
0.0
 10
106.546875
 20
40.189765
 30
0.0
 10
106.546875
 20
40.189765
 30
0.0
  0
SPLINE
  5
121
100
AcDbEntity
  8
Hole_Centres
 62
7
100
AcDbSpline
 70
8
 71
3
 72
8
 73
4
 74
0
 40
0
 40
0
 40
0
 40
0
 40
1
 40
1
 40
1
 40
1
 10
104.203124
 20
42.533516
 30
0.0
 10
108.890625
 20
42.533516
 30
0.0
 10
108.890625
 20
42.533516
 30
0.0
 10
108.890625
 20
42.533516
 30
0.0
  0
SPLINE
  5
122
100
AcDbEntity
  8
Hole_Centres
 62
7
100
AcDbSpline
 70
8
 71
3
 72
8
 73
4
 74
0
 40
0
 40
0
 40
0
 40
0
 40
1
 40
1
 40
1
 40
1
 10
129.984376
 20
44.877266
 30
0.0
 10
129.984376
 20
40.189765
 30
0.0
 10
129.984376
 20
40.189765
 30
0.0
 10
129.984376
 20
40.189765
 30
0.0
  0
SPLINE
  5
123
100
AcDbEntity
  8
Hole_Centres
 62
7
100
AcDbSpline
 70
8
 71
3
 72
8
 73
4
 74
0
 40
0
 40
0
 40
0
 40
0
 40
1
 40
1
 40
1
 40
1
 10
127.640625
 20
42.533516
 30
0.0
 10
132.328126
 20
42.533516
 30
0.0
 10
132.328126
 20
42.533516
 30
0.0
 10
132.328126
 20
42.533516
 30
0.0
  0
SPLINE
  5
124
100
AcDbEntity
  8
Hole_Centres
 62
7
100
AcDbSpline
 70
8
 71
3
 72
8
 73
4
 74
0
 40
0
 40
0
 40
0
 40
0
 40
1
 40
1
 40
1
 40
1
 10
8.109371
 20
62.225109
 30
0.0
 10
8.109371
 20
57.537608
 30
0.0
 10
8.109371
 20
57.537608
 30
0.0
 10
8.109371
 20
57.537608
 30
0.0
  0
SPLINE
  5
125
100
AcDbEntity
  8
Hole_Centres
 62
7
100
AcDbSpline
 70
8
 71
3
 72
8
 73
4
 74
0
 40
0
 40
0
 40
0
 40
0
 40
1
 40
1
 40
1
 40
1
 10
5.765620
 20
59.881358
 30
0.0
 10
10.453121
 20
59.881358
 30
0.0
 10
10.453121
 20
59.881358
 30
0.0
 10
10.453121
 20
59.881358
 30
0.0
  0
SPLINE
  5
126
100
AcDbEntity
  8
Hole_Centres
 62
7
100
AcDbSpline
 70
8
 71
3
 72
8
 73
4
 74
0
 40
0
 40
0
 40
0
 40
0
 40
1
 40
1
 40
1
 40
1
 10
24.515621
 20
62.225109
 30
0.0
 10
24.515621
 20
57.537608
 30
0.0
 10
24.515621
 20
57.537608
 30
0.0
 10
24.515621
 20
57.537608
 30
0.0
  0
SPLINE
  5
127
100
AcDbEntity
  8
Hole_Centres
 62
7
100
AcDbSpline
 70
8
 71
3
 72
8
 73
4
 74
0
 40
0
 40
0
 40
0
 40
0
 40
1
 40
1
 40
1
 40
1
 10
22.171870
 20
59.881358
 30
0.0
 10
26.859372
 20
59.881358
 30
0.0
 10
26.859372
 20
59.881358
 30
0.0
 10
26.859372
 20
59.881358
 30
0.0
  0
SPLINE
  5
128
100
AcDbEntity
  8
Hole_Centres
 62
7
100
AcDbSpline
 70
8
 71
3
 72
8
 73
4
 74
0
 40
0
 40
0
 40
0
 40
0
 40
1
 40
1
 40
1
 40
1
 10
40.921871
 20
62.225109
 30
0.0
 10
40.921871
 20
57.537608
 30
0.0
 10
40.921871
 20
57.537608
 30
0.0
 10
40.921871
 20
57.537608
 30
0.0
  0
SPLINE
  5
129
100
AcDbEntity
  8
Hole_Centres
 62
7
100
AcDbSpline
 70
8
 71
3
 72
8
 73
4
 74
0
 40
0
 40
0
 40
0
 40
0
 40
1
 40
1
 40
1
 40
1
 10
38.578121
 20
59.881358
 30
0.0
 10
43.265622
 20
59.881358
 30
0.0
 10
43.265622
 20
59.881358
 30
0.0
 10
43.265622
 20
59.881358
 30
0.0
  0
SPLINE
  5
12a
100
AcDbEntity
  8
Hole_Centres
 62
7
100
AcDbSpline
 70
8
 71
3
 72
8
 73
4
 74
0
 40
0
 40
0
 40
0
 40
0
 40
1
 40
1
 40
1
 40
1
 10
54.984373
 20
62.225109
 30
0.0
 10
54.984373
 20
57.537608
 30
0.0
 10
54.984373
 20
57.537608
 30
0.0
 10
54.984373
 20
57.537608
 30
0.0
  0
SPLINE
  5
12b
100
AcDbEntity
  8
Hole_Centres
 62
7
100
AcDbSpline
 70
8
 71
3
 72
8
 73
4
 74
0
 40
0
 40
0
 40
0
 40
0
 40
1
 40
1
 40
1
 40
1
 10
52.640623
 20
59.881358
 30
0.0
 10
57.328124
 20
59.881358
 30
0.0
 10
57.328124
 20
59.881358
 30
0.0
 10
57.328124
 20
59.881358
 30
0.0
  0
SPLINE
  5
12c
100
AcDbEntity
  8
Hole_Centres
 62
7
100
AcDbSpline
 70
8
 71
3
 72
8
 73
4
 74
0
 40
0
 40
0
 40
0
 40
0
 40
1
 40
1
 40
1
 40
1
 10
71.390623
 20
62.225109
 30
0.0
 10
71.390623
 20
57.537608
 30
0.0
 10
71.390623
 20
57.537608
 30
0.0
 10
71.390623
 20
57.537608
 30
0.0
  0
SPLINE
  5
12d
100
AcDbEntity
  8
Hole_Centres
 62
7
100
AcDbSpline
 70
8
 71
3
 72
8
 73
4
 74
0
 40
0
 40
0
 40
0
 40
0
 40
1
 40
1
 40
1
 40
1
 10
69.046872
 20
59.881358
 30
0.0
 10
73.734373
 20
59.881358
 30
0.0
 10
73.734373
 20
59.881358
 30
0.0
 10
73.734373
 20
59.881358
 30
0.0
  0
SPLINE
  5
12e
100
AcDbEntity
  8
Hole_Centres
 62
7
100
AcDbSpline
 70
8
 71
3
 72
8
 73
4
 74
0
 40
0
 40
0
 40
0
 40
0
 40
1
 40
1
 40
1
 40
1
 10
87.796875
 20
62.225109
 30
0.0
 10
87.796875
 20
57.537608
 30
0.0
 10
87.796875
 20
57.537608
 30
0.0
 10
87.796875
 20
57.537608
 30
0.0
  0
SPLINE
  5
12f
100
AcDbEntity
  8
Hole_Centres
 62
7
100
AcDbSpline
 70
8
 71
3
 72
8
 73
4
 74
0
 40
0
 40
0
 40
0
 40
0
 40
1
 40
1
 40
1
 40
1
 10
85.453125
 20
59.881358
 30
0.0
 10
90.140626
 20
59.881358
 30
0.0
 10
90.140626
 20
59.881358
 30
0.0
 10
90.140626
 20
59.881358
 30
0.0
  0
SPLINE
  5
130
100
AcDbEntity
  8
Hole_Centres
 62
7
100
AcDbSpline
 70
8
 71
3
 72
8
 73
4
 74
0
 40
0
 40
0
 40
0
 40
0
 40
1
 40
1
 40
1
 40
1
 10
101.859374
 20
62.225109
 30
0.0
 10
101.859374
 20
57.537608
 30
0.0
 10
101.859374
 20
57.537608
 30
0.0
 10
101.859374
 20
57.537608
 30
0.0
  0
SPLINE
  5
131
100
AcDbEntity
  8
Hole_Centres
 62
7
100
AcDbSpline
 70
8
 71
3
 72
8
 73
4
 74
0
 40
0
 40
0
 40
0
 40
0
 40
1
 40
1
 40
1
 40
1
 10
99.515623
 20
59.881358
 30
0.0
 10
104.203124
 20
59.881358
 30
0.0
 10
104.203124
 20
59.881358
 30
0.0
 10
104.203124
 20
59.881358
 30
0.0
  0
SPLINE
  5
132
100
AcDbEntity
  8
Hole_Centres
 62
7
100
AcDbSpline
 70
8
 71
3
 72
8
 73
4
 74
0
 40
0
 40
0
 40
0
 40
0
 40
1
 40
1
 40
1
 40
1
 10
118.265623
 20
62.225109
 30
0.0
 10
118.265623
 20
57.537608
 30
0.0
 10
118.265623
 20
57.537608
 30
0.0
 10
118.265623
 20
57.537608
 30
0.0
  0
SPLINE
  5
133
100
AcDbEntity
  8
Hole_Centres
 62
7
100
AcDbSpline
 70
8
 71
3
 72
8
 73
4
 74
0
 40
0
 40
0
 40
0
 40
0
 40
1
 40
1
 40
1
 40
1
 10
115.921872
 20
59.881358
 30
0.0
 10
120.609373
 20
59.881358
 30
0.0
 10
120.609373
 20
59.881358
 30
0.0
 10
120.609373
 20
59.881358
 30
0.0
  0
SPLINE
  5
134
100
AcDbEntity
  8
Hole_Centres
 62
7
100
AcDbSpline
 70
8
 71
3
 72
8
 73
4
 74
0
 40
0
 40
0
 40
0
 40
0
 40
1
 40
1
 40
1
 40
1
 10
134.671877
 20
62.225109
 30
0.0
 10
134.671877
 20
57.537608
 30
0.0
 10
134.671877
 20
57.537608
 30
0.0
 10
134.671877
 20
57.537608
 30
0.0
  0
SPLINE
  5
135
100
AcDbEntity
  8
Hole_Centres
 62
7
100
AcDbSpline
 70
8
 71
3
 72
8
 73
4
 74
0
 40
0
 40
0
 40
0
 40
0
 40
1
 40
1
 40
1
 40
1
 10
132.328126
 20
59.881358
 30
0.0
 10
137.015627
 20
59.881358
 30
0.0
 10
137.015627
 20
59.881358
 30
0.0
 10
137.015627
 20
59.881358
 30
0.0
  0
SPLINE
  5
136
100
AcDbEntity
  8
Hole_Centres
 62
7
100
AcDbSpline
 70
8
 71
3
 72
8
 73
4
 74
0
 40
0
 40
0
 40
0
 40
0
 40
1
 40
1
 40
1
 40
1
 10
8.109371
 20
26.600109
 30
0.0
 10
8.109371
 20
21.912608
 30
0.0
 10
8.109371
 20
21.912608
 30
0.0
 10
8.109371
 20
21.912608
 30
0.0
  0
SPLINE
  5
137
100
AcDbEntity
  8
Hole_Centres
 62
7
100
AcDbSpline
 70
8
 71
3
 72
8
 73
4
 74
0
 40
0
 40
0
 40
0
 40
0
 40
1
 40
1
 40
1
 40
1
 10
5.765620
 20
24.256358
 30
0.0
 10
10.453121
 20
24.256358
 30
0.0
 10
10.453121
 20
24.256358
 30
0.0
 10
10.453121
 20
24.256358
 30
0.0
  0
SPLINE
  5
138
100
AcDbEntity
  8
Hole_Centres
 62
7
100
AcDbSpline
 70
8
 71
3
 72
8
 73
4
 74
0
 40
0
 40
0
 40
0
 40
0
 40
1
 40
1
 40
1
 40
1
 10
24.515621
 20
26.600109
 30
0.0
 10
24.515621
 20
21.912608
 30
0.0
 10
24.515621
 20
21.912608
 30
0.0
 10
24.515621
 20
21.912608
 30
0.0
  0
SPLINE
  5
139
100
AcDbEntity
  8
Hole_Centres
 62
7
100
AcDbSpline
 70
8
 71
3
 72
8
 73
4
 74
0
 40
0
 40
0
 40
0
 40
0
 40
1
 40
1
 40
1
 40
1
 10
22.171870
 20
24.256358
 30
0.0
 10
26.859372
 20
24.256358
 30
0.0
 10
26.859372
 20
24.256358
 30
0.0
 10
26.859372
 20
24.256358
 30
0.0
  0
SPLINE
  5
13a
100
AcDbEntity
  8
Hole_Centres
 62
7
100
AcDbSpline
 70
8
 71
3
 72
8
 73
4
 74
0
 40
0
 40
0
 40
0
 40
0
 40
1
 40
1
 40
1
 40
1
 10
40.921871
 20
26.600109
 30
0.0
 10
40.921871
 20
21.912608
 30
0.0
 10
40.921871
 20
21.912608
 30
0.0
 10
40.921871
 20
21.912608
 30
0.0
  0
SPLINE
  5
13b
100
AcDbEntity
  8
Hole_Centres
 62
7
100
AcDbSpline
 70
8
 71
3
 72
8
 73
4
 74
0
 40
0
 40
0
 40
0
 40
0
 40
1
 40
1
 40
1
 40
1
 10
38.578121
 20
24.256358
 30
0.0
 10
43.265622
 20
24.256358
 30
0.0
 10
43.265622
 20
24.256358
 30
0.0
 10
43.265622
 20
24.256358
 30
0.0
  0
SPLINE
  5
13c
100
AcDbEntity
  8
Hole_Centres
 62
7
100
AcDbSpline
 70
8
 71
3
 72
8
 73
4
 74
0
 40
0
 40
0
 40
0
 40
0
 40
1
 40
1
 40
1
 40
1
 10
54.984373
 20
26.600109
 30
0.0
 10
54.984373
 20
21.912608
 30
0.0
 10
54.984373
 20
21.912608
 30
0.0
 10
54.984373
 20
21.912608
 30
0.0
  0
SPLINE
  5
13d
100
AcDbEntity
  8
Hole_Centres
 62
7
100
AcDbSpline
 70
8
 71
3
 72
8
 73
4
 74
0
 40
0
 40
0
 40
0
 40
0
 40
1
 40
1
 40
1
 40
1
 10
52.640623
 20
24.256358
 30
0.0
 10
57.328124
 20
24.256358
 30
0.0
 10
57.328124
 20
24.256358
 30
0.0
 10
57.328124
 20
24.256358
 30
0.0
  0
SPLINE
  5
13e
100
AcDbEntity
  8
Hole_Centres
 62
7
100
AcDbSpline
 70
8
 71
3
 72
8
 73
4
 74
0
 40
0
 40
0
 40
0
 40
0
 40
1
 40
1
 40
1
 40
1
 10
71.390623
 20
26.600109
 30
0.0
 10
71.390623
 20
21.912608
 30
0.0
 10
71.390623
 20
21.912608
 30
0.0
 10
71.390623
 20
21.912608
 30
0.0
  0
SPLINE
  5
13f
100
AcDbEntity
  8
Hole_Centres
 62
7
100
AcDbSpline
 70
8
 71
3
 72
8
 73
4
 74
0
 40
0
 40
0
 40
0
 40
0
 40
1
 40
1
 40
1
 40
1
 10
69.046872
 20
24.256358
 30
0.0
 10
73.734373
 20
24.256358
 30
0.0
 10
73.734373
 20
24.256358
 30
0.0
 10
73.734373
 20
24.256358
 30
0.0
  0
SPLINE
  5
140
100
AcDbEntity
  8
Hole_Centres
 62
7
100
AcDbSpline
 70
8
 71
3
 72
8
 73
4
 74
0
 40
0
 40
0
 40
0
 40
0
 40
1
 40
1
 40
1
 40
1
 10
87.796875
 20
26.600109
 30
0.0
 10
87.796875
 20
21.912608
 30
0.0
 10
87.796875
 20
21.912608
 30
0.0
 10
87.796875
 20
21.912608
 30
0.0
  0
SPLINE
  5
141
100
AcDbEntity
  8
Hole_Centres
 62
7
100
AcDbSpline
 70
8
 71
3
 72
8
 73
4
 74
0
 40
0
 40
0
 40
0
 40
0
 40
1
 40
1
 40
1
 40
1
 10
85.453125
 20
24.256358
 30
0.0
 10
90.140626
 20
24.256358
 30
0.0
 10
90.140626
 20
24.256358
 30
0.0
 10
90.140626
 20
24.256358
 30
0.0
  0
SPLINE
  5
142
100
AcDbEntity
  8
Hole_Centres
 62
7
100
AcDbSpline
 70
8
 71
3
 72
8
 73
4
 74
0
 40
0
 40
0
 40
0
 40
0
 40
1
 40
1
 40
1
 40
1
 10
101.859374
 20
26.600109
 30
0.0
 10
101.859374
 20
21.912608
 30
0.0
 10
101.859374
 20
21.912608
 30
0.0
 10
101.859374
 20
21.912608
 30
0.0
  0
SPLINE
  5
143
100
AcDbEntity
  8
Hole_Centres
 62
7
100
AcDbSpline
 70
8
 71
3
 72
8
 73
4
 74
0
 40
0
 40
0
 40
0
 40
0
 40
1
 40
1
 40
1
 40
1
 10
99.515623
 20
24.256358
 30
0.0
 10
104.203124
 20
24.256358
 30
0.0
 10
104.203124
 20
24.256358
 30
0.0
 10
104.203124
 20
24.256358
 30
0.0
  0
SPLINE
  5
144
100
AcDbEntity
  8
Hole_Centres
 62
7
100
AcDbSpline
 70
8
 71
3
 72
8
 73
4
 74
0
 40
0
 40
0
 40
0
 40
0
 40
1
 40
1
 40
1
 40
1
 10
118.265623
 20
26.600109
 30
0.0
 10
118.265623
 20
21.912608
 30
0.0
 10
118.265623
 20
21.912608
 30
0.0
 10
118.265623
 20
21.912608
 30
0.0
  0
SPLINE
  5
145
100
AcDbEntity
  8
Hole_Centres
 62
7
100
AcDbSpline
 70
8
 71
3
 72
8
 73
4
 74
0
 40
0
 40
0
 40
0
 40
0
 40
1
 40
1
 40
1
 40
1
 10
115.921872
 20
24.256358
 30
0.0
 10
120.609373
 20
24.256358
 30
0.0
 10
120.609373
 20
24.256358
 30
0.0
 10
120.609373
 20
24.256358
 30
0.0
  0
SPLINE
  5
146
100
AcDbEntity
  8
Hole_Centres
 62
7
100
AcDbSpline
 70
8
 71
3
 72
8
 73
4
 74
0
 40
0
 40
0
 40
0
 40
0
 40
1
 40
1
 40
1
 40
1
 10
134.671877
 20
26.600109
 30
0.0
 10
134.671877
 20
21.912608
 30
0.0
 10
134.671877
 20
21.912608
 30
0.0
 10
134.671877
 20
21.912608
 30
0.0
  0
SPLINE
  5
147
100
AcDbEntity
  8
Hole_Centres
 62
7
100
AcDbSpline
 70
8
 71
3
 72
8
 73
4
 74
0
 40
0
 40
0
 40
0
 40
0
 40
1
 40
1
 40
1
 40
1
 10
132.328126
 20
24.256358
 30
0.0
 10
137.015627
 20
24.256358
 30
0.0
 10
137.015627
 20
24.256358
 30
0.0
 10
137.015627
 20
24.256358
 30
0.0
  0
SPLINE
  5
148
100
AcDbEntity
  8
Hole_Centres
 62
7
100
AcDbSpline
 70
8
 71
3
 72
8
 73
4
 74
0
 40
0
 40
0
 40
0
 40
0
 40
1
 40
1
 40
1
 40
1
 10
29.203118
 20
113.783509
 30
0.0
 10
29.203118
 20
109.096008
 30
0.0
 10
29.203118
 20
109.096008
 30
0.0
 10
29.203118
 20
109.096008
 30
0.0
  0
SPLINE
  5
149
100
AcDbEntity
  8
Hole_Centres
 62
7
100
AcDbSpline
 70
8
 71
3
 72
8
 73
4
 74
0
 40
0
 40
0
 40
0
 40
0
 40
1
 40
1
 40
1
 40
1
 10
26.859367
 20
111.439758
 30
0.0
 10
31.546868
 20
111.439758
 30
0.0
 10
31.546868
 20
111.439758
 30
0.0
 10
31.546868
 20
111.439758
 30
0.0
  0
SPLINE
  5
14a
100
AcDbEntity
  8
Hole_Centres
 62
7
100
AcDbSpline
 70
8
 71
3
 72
8
 73
4
 74
0
 40
0
 40
0
 40
0
 40
0
 40
1
 40
1
 40
1
 40
1
 10
33.890622
 20
113.783509
 30
0.0
 10
33.890622
 20
109.096008
 30
0.0
 10
33.890622
 20
109.096008
 30
0.0
 10
33.890622
 20
109.096008
 30
0.0
  0
SPLINE
  5
14b
100
AcDbEntity
  8
Hole_Centres
 62
7
100
AcDbSpline
 70
8
 71
3
 72
8
 73
4
 74
0
 40
0
 40
0
 40
0
 40
0
 40
1
 40
1
 40
1
 40
1
 10
31.546872
 20
111.439758
 30
0.0
 10
36.234373
 20
111.439758
 30
0.0
 10
36.234373
 20
111.439758
 30
0.0
 10
36.234373
 20
111.439758
 30
0.0
  0
SPLINE
  5
14c
100
AcDbEntity
  8
Hole_Centres
 62
7
100
AcDbSpline
 70
8
 71
3
 72
8
 73
4
 74
0
 40
0
 40
0
 40
0
 40
0
 40
1
 40
1
 40
1
 40
1
 10
38.578122
 20
113.783509
 30
0.0
 10
38.578122
 20
109.096008
 30
0.0
 10
38.578122
 20
109.096008
 30
0.0
 10
38.578122
 20
109.096008
 30
0.0
  0
SPLINE
  5
14d
100
AcDbEntity
  8
Hole_Centres
 62
7
100
AcDbSpline
 70
8
 71
3
 72
8
 73
4
 74
0
 40
0
 40
0
 40
0
 40
0
 40
1
 40
1
 40
1
 40
1
 10
36.234372
 20
111.439758
 30
0.0
 10
40.921873
 20
111.439758
 30
0.0
 10
40.921873
 20
111.439758
 30
0.0
 10
40.921873
 20
111.439758
 30
0.0
  0
SPLINE
  5
14e
100
AcDbEntity
  8
Hole_Centres
 62
7
100
AcDbSpline
 70
8
 71
3
 72
8
 73
4
 74
0
 40
0
 40
0
 40
0
 40
0
 40
1
 40
1
 40
1
 40
1
 10
43.265623
 20
113.783509
 30
0.0
 10
43.265623
 20
109.096008
 30
0.0
 10
43.265623
 20
109.096008
 30
0.0
 10
43.265623
 20
109.096008
 30
0.0
  0
SPLINE
  5
14f
100
AcDbEntity
  8
Hole_Centres
 62
7
100
AcDbSpline
 70
8
 71
3
 72
8
 73
4
 74
0
 40
0
 40
0
 40
0
 40
0
 40
1
 40
1
 40
1
 40
1
 10
40.921872
 20
111.439758
 30
0.0
 10
45.609373
 20
111.439758
 30
0.0
 10
45.609373
 20
111.439758
 30
0.0
 10
45.609373
 20
111.439758
 30
0.0
  0
SPLINE
  5
150
100
AcDbEntity
  8
Hole_Centres
 62
7
100
AcDbSpline
 70
8
 71
3
 72
8
 73
4
 74
0
 40
0
 40
0
 40
0
 40
0
 40
1
 40
1
 40
1
 40
1
 10
118.265620
 20
113.783510
 30
0.0
 10
118.265620
 20
109.096008
 30
0.0
 10
118.265620
 20
109.096008
 30
0.0
 10
118.265620
 20
109.096008
 30
0.0
  0
SPLINE
  5
151
100
AcDbEntity
  8
Hole_Centres
 62
7
100
AcDbSpline
 70
8
 71
3
 72
8
 73
4
 74
0
 40
0
 40
0
 40
0
 40
0
 40
1
 40
1
 40
1
 40
1
 10
115.921869
 20
111.439759
 30
0.0
 10
120.609371
 20
111.439759
 30
0.0
 10
120.609371
 20
111.439759
 30
0.0
 10
120.609371
 20
111.439759
 30
0.0
  0
SPLINE
  5
152
100
AcDbEntity
  8
Hole_Centres
 62
7
100
AcDbSpline
 70
8
 71
3
 72
8
 73
4
 74
0
 40
0
 40
0
 40
0
 40
0
 40
1
 40
1
 40
1
 40
1
 10
71.390620
 20
35.975106
 30
0.0
 10
71.390620
 20
31.287605
 30
0.0
 10
71.390620
 20
31.287605
 30
0.0
 10
71.390620
 20
31.287605
 30
0.0
  0
SPLINE
  5
153
100
AcDbEntity
  8
Hole_Centres
 62
7
100
AcDbSpline
 70
8
 71
3
 72
8
 73
4
 74
0
 40
0
 40
0
 40
0
 40
0
 40
1
 40
1
 40
1
 40
1
 10
69.046869
 20
33.631355
 30
0.0
 10
73.734370
 20
33.631355
 30
0.0
 10
73.734370
 20
33.631355
 30
0.0
 10
73.734370
 20
33.631355
 30
0.0
  0
SPLINE
  5
154
100
AcDbEntity
  8
Hole_Centres
 62
7
100
AcDbSpline
 70
8
 71
3
 72
8
 73
4
 74
0
 40
0
 40
0
 40
0
 40
0
 40
1
 40
1
 40
1
 40
1
 10
118.265625
 20
35.975109
 30
0.0
 10
118.265625
 20
31.287607
 30
0.0
 10
118.265625
 20
31.287607
 30
0.0
 10
118.265625
 20
31.287607
 30
0.0
  0
SPLINE
  5
155
100
AcDbEntity
  8
Hole_Centres
 62
7
100
AcDbSpline
 70
8
 71
3
 72
8
 73
4
 74
0
 40
0
 40
0
 40
0
 40
0
 40
1
 40
1
 40
1
 40
1
 10
115.921875
 20
33.631358
 30
0.0
 10
120.609376
 20
33.631358
 30
0.0
 10
120.609376
 20
33.631358
 30
0.0
 10
120.609376
 20
33.631358
 30
0.0
  0
SPLINE
  5
156
100
AcDbEntity
  8
Hole_Centres
 62
7
100
AcDbSpline
 70
8
 71
3
 72
8
 73
4
 74
0
 40
0
 40
0
 40
0
 40
0
 40
1
 40
1
 40
1
 40
1
 10
118.265620
 20
107.689759
 30
0.0
 10
118.265620
 20
103.002257
 30
0.0
 10
118.265620
 20
103.002257
 30
0.0
 10
118.265620
 20
103.002257
 30
0.0
  0
SPLINE
  5
157
100
AcDbEntity
  8
Hole_Centres
 62
7
100
AcDbSpline
 70
8
 71
3
 72
8
 73
4
 74
0
 40
0
 40
0
 40
0
 40
0
 40
1
 40
1
 40
1
 40
1
 10
115.921869
 20
105.346008
 30
0.0
 10
120.609371
 20
105.346008
 30
0.0
 10
120.609371
 20
105.346008
 30
0.0
 10
120.609371
 20
105.346008
 30
0.0
  0
SPLINE
  5
158
100
AcDbEntity
  8
Hole_Centres
 62
7
100
AcDbSpline
 70
8
 71
3
 72
8
 73
4
 74
0
 40
0
 40
0
 40
0
 40
0
 40
1
 40
1
 40
1
 40
1
 10
12.797515
 20
69.279700
 30
0.0
 10
12.797515
 20
64.592199
 30
0.0
 10
12.797515
 20
64.592199
 30
0.0
 10
12.797515
 20
64.592199
 30
0.0
  0
SPLINE
  5
159
100
AcDbEntity
  8
Hole_Centres
 62
7
100
AcDbSpline
 70
8
 71
3
 72
8
 73
4
 74
0
 40
0
 40
0
 40
0
 40
0
 40
1
 40
1
 40
1
 40
1
 10
10.453764
 20
66.935949
 30
0.0
 10
15.141265
 20
66.935949
 30
0.0
 10
15.141265
 20
66.935949
 30
0.0
 10
15.141265
 20
66.935949
 30
0.0
  0
SPLINE
  5
15a
100
AcDbEntity
  8
Hole_Centres
 62
7
100
AcDbSpline
 70
8
 71
3
 72
8
 73
4
 74
0
 40
0
 40
0
 40
0
 40
0
 40
1
 40
1
 40
1
 40
1
 10
61.763104
 20
59.459438
 30
0.0
 10
61.763104
 20
54.771937
 30
0.0
 10
61.763104
 20
54.771937
 30
0.0
 10
61.763104
 20
54.771937
 30
0.0
  0
SPLINE
  5
15b
100
AcDbEntity
  8
Hole_Centres
 62
7
100
AcDbSpline
 70
8
 71
3
 72
8
 73
4
 74
0
 40
0
 40
0
 40
0
 40
0
 40
1
 40
1
 40
1
 40
1
 10
59.419354
 20
57.115687
 30
0.0
 10
64.106855
 20
57.115687
 30
0.0
 10
64.106855
 20
57.115687
 30
0.0
 10
64.106855
 20
57.115687
 30
0.0
  0
SPLINE
  5
15c
100
AcDbEntity
  8
Hole_Centres
 62
7
100
AcDbSpline
 70
8
 71
3
 72
8
 73
4
 74
0
 40
0
 40
0
 40
0
 40
0
 40
1
 40
1
 40
1
 40
1
 10
24.515621
 20
35.975109
 30
0.0
 10
24.515621
 20
31.287607
 30
0.0
 10
24.515621
 20
31.287607
 30
0.0
 10
24.515621
 20
31.287607
 30
0.0
  0
SPLINE
  5
15d
100
AcDbEntity
  8
Hole_Centres
 62
7
100
AcDbSpline
 70
8
 71
3
 72
8
 73
4
 74
0
 40
0
 40
0
 40
0
 40
0
 40
1
 40
1
 40
1
 40
1
 10
22.171870
 20
33.631358
 30
0.0
 10
26.859372
 20
33.631358
 30
0.0
 10
26.859372
 20
33.631358
 30
0.0
 10
26.859372
 20
33.631358
 30
0.0
  0
ENDSEC
  0
SECTION
  2
OBJECTS
  0
DICTIONARY
  5
C
330
0
100
AcDbDictionary
  3
ACAD_GROUP
350
D
  3
ACAD_MLINESTYLE
350
17
  0
DICTIONARY
  5
D
330
C
100
AcDbDictionary
  0
DICTIONARY
  5
1A
330
C
100
AcDbDictionary
  0
DICTIONARY
  5
17
330
C
100
AcDbDictionary
  3
STANDARD
350
18
  0
DICTIONARY
  5
19
330
C
100
AcDbDictionary
  0
ENDSEC
  0
EOF
