  0
SECTION
  2
HEADER
  9
$ACADVER
  1
AC1014
  9
$HANDSEED
  5
FFFF
  9
$MEASUREMENT
 70
     1
  0
ENDSEC
  0
SECTION
  2
TABLES
  0
TABLE
  2
VPORT
  5
8
330
0
100
AcDbSymbolTable
 70
     4
  0
VPORT
  5
2E
330
8
100
AcDbSymbolTableRecord
100
AcDbViewportTableRecord
  2
*ACTIVE
 70
     0
 10
0.0
 20
0.0
 11
1.0
 21
1.0
 12
210.0
 22
148.5
 13
0.0
 23
0.0
 14
10.0
 24
10.0
 15
10.0
 25
10.0
 16
0.0
 26
0.0
 36
1.0
 17
0.0
 27
0.0
 37
0.0
 40
341.0
 41
1.24
 42
50.0
 43
0.0
 44
0.0
 50
0.0
 51
0.0
 71
     0
 72
   100
 73
     1
 74
     3
 75
     0
 76
     0
 77
     0
 78
     0
  0
ENDTAB
  0
TABLE
  2
LTYPE
  5
5
330
0
100
AcDbSymbolTable
 70
     1
  0
LTYPE
  5
14
330
5
100
AcDbSymbolTableRecord
100
AcDbLinetypeTableRecord
  2
BYBLOCK
 70
     0
  3

 72
    65
 73
     0
 40
0.0
  0
LTYPE
  5
15
330
5
100
AcDbSymbolTableRecord
100
AcDbLinetypeTableRecord
  2
BYLAYER
 70
     0
  3

 72
    65
 73
     0
 40
0.0
  0
LTYPE
  5
16
330
5
100
AcDbSymbolTableRecord
100
AcDbLinetypeTableRecord
  2
CONTINUOUS
 70
     0
  3
Solid line
 72
    65
 73
     0
 40
0.0
  0
ENDTAB
  0
TABLE
  2
LAYER
  5
2
100
AcDbSymbolTable
 70
1
  0
LAYER
  5
50
100
AcDbSymbolTableRecord
100
AcDbLayerTableRecord
  2
0
 70
0
  6
CONTINUOUS
  0
ENDTAB
  0
TABLE
  2
STYLE
  5
3
330
0
100
AcDbSymbolTable
 70
     1
  0
STYLE
  5
11
330
3
100
AcDbSymbolTableRecord
100
AcDbTextStyleTableRecord
  2
STANDARD
 70
     0
 40
0.0
 41
1.0
 50
0.0
 71
     0
 42
2.5
  3
txt
  4

  0
ENDTAB
  0
TABLE
  2
VIEW
  5
6
330
0
100
AcDbSymbolTable
 70
     0
  0
ENDTAB
  0
TABLE
  2
UCS
  5
7
330
0
100
AcDbSymbolTable
 70
     0
  0
ENDTAB
  0
TABLE
  2
APPID
  5
9
330
0
100
AcDbSymbolTable
 70
     2
  0
APPID
  5
12
330
9
100
AcDbSymbolTableRecord
100
AcDbRegAppTableRecord
  2
ACAD
 70
     0
  0
ENDTAB
  0
TABLE
  2
DIMSTYLE
  5
A
330
0
100
AcDbSymbolTable
 70
     1
  0
DIMSTYLE
105
27
330
A
100
AcDbSymbolTableRecord
100
AcDbDimStyleTableRecord
  2
ISO-25
 70
     0
  3

  4

  5

  6

  7

 40
1.0
 41
2.5
 42
0.625
 43
3.75
 44
1.25
 45
0.0
 46
0.0
 47
0.0
 48
0.0
140
2.5
141
2.5
142
0.0
143
0.03937007874016
144
1.0
145
0.0
146
1.0
147
0.625
 71
     0
 72
     0
 73
     0
 74
     0
 75
     0
 76
     0
 77
     1
 78
     8
170
     0
171
     3
172
     1
173
     0
174
     0
175
     0
176
     0
177
     0
178
     0
270
     2
271
     2
272
     2
273
     2
274
     3
340
11
275
     0
280
     0
281
     0
282
     0
283
     0
284
     8
285
     0
286
     0
287
     3
288
     0
  0
ENDTAB
  0
TABLE
  2
BLOCK_RECORD
  5
1
330
0
100
AcDbSymbolTable
 70
     1
  0
BLOCK_RECORD
  5
1F
330
1
100
AcDbSymbolTableRecord
100
AcDbBlockTableRecord
  2
*MODEL_SPACE
  0
BLOCK_RECORD
  5
1B
330
1
100
AcDbSymbolTableRecord
100
AcDbBlockTableRecord
  2
*PAPER_SPACE
  0
ENDTAB
  0
ENDSEC
  0
SECTION
  2
BLOCKS
  0
BLOCK
  5
20
330
1F
100
AcDbEntity
  8
0
100
AcDbBlockBegin
  2
*MODEL_SPACE
 70
     0
 10
0.0
 20
0.0
 30
0.0
  3
*MODEL_SPACE
  1

  0
ENDBLK
  5
21
330
1F
100
AcDbEntity
  8
0
100
AcDbBlockEnd
  0
BLOCK
  5
1C
330
1B
100
AcDbEntity
 67
     1
  8
0
100
AcDbBlockBegin
  2
*PAPER_SPACE
  1

  0
ENDBLK
  5
1D
330
1B
100
AcDbEntity
 67
     1
  8
0
100
AcDbBlockEnd
  0
ENDSEC
  0
SECTION
  2
ENTITIES
  0
SPLINE
  5
100
100
AcDbEntity
  8
0
 62
7
100
AcDbSpline
 70
8
 71
3
 72
8
 73
4
 74
0
 40
0
 40
0
 40
0
 40
0
 40
1
 40
1
 40
1
 40
1
 10
36.632282
 20
94.681416
 30
0.0
 10
36.632282
 20
89.681415
 30
0.0
 10
36.632282
 20
89.681415
 30
0.0
 10
36.632282
 20
89.681415
 30
0.0
  0
SPLINE
  5
101
100
AcDbEntity
  8
0
 62
7
100
AcDbSpline
 70
8
 71
3
 72
8
 73
4
 74
0
 40
0
 40
0
 40
0
 40
0
 40
1
 40
1
 40
1
 40
1
 10
34.132282
 20
92.181415
 30
0.0
 10
39.132282
 20
92.181415
 30
0.0
 10
39.132282
 20
92.181415
 30
0.0
 10
39.132282
 20
92.181415
 30
0.0
  0
SPLINE
  5
102
100
AcDbEntity
  8
0
 62
7
100
AcDbSpline
 70
8
 71
3
 72
8
 73
4
 74
0
 40
0
 40
0
 40
0
 40
0
 40
1
 40
1
 40
1
 40
1
 10
11.632282
 20
94.681416
 30
0.0
 10
11.632282
 20
89.681415
 30
0.0
 10
11.632282
 20
89.681415
 30
0.0
 10
11.632282
 20
89.681415
 30
0.0
  0
SPLINE
  5
103
100
AcDbEntity
  8
0
 62
7
100
AcDbSpline
 70
8
 71
3
 72
8
 73
4
 74
0
 40
0
 40
0
 40
0
 40
0
 40
1
 40
1
 40
1
 40
1
 10
9.132282
 20
92.181415
 30
0.0
 10
14.132283
 20
92.181415
 30
0.0
 10
14.132283
 20
92.181415
 30
0.0
 10
14.132283
 20
92.181415
 30
0.0
  0
SPLINE
  5
104
100
AcDbEntity
  8
0
 62
7
100
AcDbSpline
 70
8
 71
3
 72
8
 73
4
 74
0
 40
0
 40
0
 40
0
 40
0
 40
1
 40
1
 40
1
 40
1
 10
61.632282
 20
94.681416
 30
0.0
 10
61.632282
 20
89.681415
 30
0.0
 10
61.632282
 20
89.681415
 30
0.0
 10
61.632282
 20
89.681415
 30
0.0
  0
SPLINE
  5
105
100
AcDbEntity
  8
0
 62
7
100
AcDbSpline
 70
8
 71
3
 72
8
 73
4
 74
0
 40
0
 40
0
 40
0
 40
0
 40
1
 40
1
 40
1
 40
1
 10
59.132282
 20
92.181415
 30
0.0
 10
64.132283
 20
92.181415
 30
0.0
 10
64.132283
 20
92.181415
 30
0.0
 10
64.132283
 20
92.181415
 30
0.0
  0
SPLINE
  5
106
100
AcDbEntity
  8
0
 62
7
100
AcDbSpline
 70
8
 71
3
 72
8
 73
4
 74
0
 40
0
 40
0
 40
0
 40
0
 40
1
 40
1
 40
1
 40
1
 10
86.632283
 20
94.681416
 30
0.0
 10
86.632283
 20
89.681415
 30
0.0
 10
86.632283
 20
89.681415
 30
0.0
 10
86.632283
 20
89.681415
 30
0.0
  0
SPLINE
  5
107
100
AcDbEntity
  8
0
 62
7
100
AcDbSpline
 70
8
 71
3
 72
8
 73
4
 74
0
 40
0
 40
0
 40
0
 40
0
 40
1
 40
1
 40
1
 40
1
 10
84.132282
 20
92.181415
 30
0.0
 10
89.132283
 20
92.181415
 30
0.0
 10
89.132283
 20
92.181415
 30
0.0
 10
89.132283
 20
92.181415
 30
0.0
  0
SPLINE
  5
108
100
AcDbEntity
  8
0
 62
7
100
AcDbSpline
 70
8
 71
3
 72
8
 73
4
 74
0
 40
0
 40
0
 40
0
 40
0
 40
1
 40
1
 40
1
 40
1
 10
111.632280
 20
94.681416
 30
0.0
 10
111.632280
 20
89.681415
 30
0.0
 10
111.632280
 20
89.681415
 30
0.0
 10
111.632280
 20
89.681415
 30
0.0
  0
SPLINE
  5
109
100
AcDbEntity
  8
0
 62
7
100
AcDbSpline
 70
8
 71
3
 72
8
 73
4
 74
0
 40
0
 40
0
 40
0
 40
0
 40
1
 40
1
 40
1
 40
1
 10
109.132283
 20
92.181415
 30
0.0
 10
114.132283
 20
92.181415
 30
0.0
 10
114.132283
 20
92.181415
 30
0.0
 10
114.132283
 20
92.181415
 30
0.0
  0
SPLINE
  5
10a
100
AcDbEntity
  8
0
 62
7
100
AcDbSpline
 70
8
 71
3
 72
8
 73
4
 74
0
 40
0
 40
0
 40
0
 40
0
 40
1
 40
1
 40
1
 40
1
 10
136.632281
 20
94.681416
 30
0.0
 10
136.632281
 20
89.681415
 30
0.0
 10
136.632281
 20
89.681415
 30
0.0
 10
136.632281
 20
89.681415
 30
0.0
  0
SPLINE
  5
10b
100
AcDbEntity
  8
0
 62
7
100
AcDbSpline
 70
8
 71
3
 72
8
 73
4
 74
0
 40
0
 40
0
 40
0
 40
0
 40
1
 40
1
 40
1
 40
1
 10
134.132280
 20
92.181415
 30
0.0
 10
139.132284
 20
92.181415
 30
0.0
 10
139.132284
 20
92.181415
 30
0.0
 10
139.132284
 20
92.181415
 30
0.0
  0
SPLINE
  5
10c
100
AcDbEntity
  8
0
 62
7
100
AcDbSpline
 70
8
 71
3
 72
8
 73
4
 74
0
 40
0
 40
0
 40
0
 40
0
 40
1
 40
1
 40
1
 40
1
 10
136.632281
 20
65.681405
 30
0.0
 10
136.632281
 20
60.681404
 30
0.0
 10
136.632281
 20
60.681404
 30
0.0
 10
136.632281
 20
60.681404
 30
0.0
  0
SPLINE
  5
10d
100
AcDbEntity
  8
0
 62
7
100
AcDbSpline
 70
8
 71
3
 72
8
 73
4
 74
0
 40
0
 40
0
 40
0
 40
0
 40
1
 40
1
 40
1
 40
1
 10
134.132280
 20
63.181405
 30
0.0
 10
139.132284
 20
63.181405
 30
0.0
 10
139.132284
 20
63.181405
 30
0.0
 10
139.132284
 20
63.181405
 30
0.0
  0
SPLINE
  5
10e
100
AcDbEntity
  8
0
 62
7
100
AcDbSpline
 70
8
 71
3
 72
8
 73
4
 74
0
 40
0
 40
0
 40
0
 40
0
 40
1
 40
1
 40
1
 40
1
 10
111.632280
 20
65.681405
 30
0.0
 10
111.632280
 20
60.681404
 30
0.0
 10
111.632280
 20
60.681404
 30
0.0
 10
111.632280
 20
60.681404
 30
0.0
  0
SPLINE
  5
10f
100
AcDbEntity
  8
0
 62
7
100
AcDbSpline
 70
8
 71
3
 72
8
 73
4
 74
0
 40
0
 40
0
 40
0
 40
0
 40
1
 40
1
 40
1
 40
1
 10
109.132283
 20
63.181405
 30
0.0
 10
114.132283
 20
63.181405
 30
0.0
 10
114.132283
 20
63.181405
 30
0.0
 10
114.132283
 20
63.181405
 30
0.0
  0
SPLINE
  5
110
100
AcDbEntity
  8
0
 62
7
100
AcDbSpline
 70
8
 71
3
 72
8
 73
4
 74
0
 40
0
 40
0
 40
0
 40
0
 40
1
 40
1
 40
1
 40
1
 10
86.632283
 20
65.681405
 30
0.0
 10
86.632283
 20
60.681404
 30
0.0
 10
86.632283
 20
60.681404
 30
0.0
 10
86.632283
 20
60.681404
 30
0.0
  0
SPLINE
  5
111
100
AcDbEntity
  8
0
 62
7
100
AcDbSpline
 70
8
 71
3
 72
8
 73
4
 74
0
 40
0
 40
0
 40
0
 40
0
 40
1
 40
1
 40
1
 40
1
 10
84.132282
 20
63.181405
 30
0.0
 10
89.132283
 20
63.181405
 30
0.0
 10
89.132283
 20
63.181405
 30
0.0
 10
89.132283
 20
63.181405
 30
0.0
  0
SPLINE
  5
112
100
AcDbEntity
  8
0
 62
7
100
AcDbSpline
 70
8
 71
3
 72
8
 73
4
 74
0
 40
0
 40
0
 40
0
 40
0
 40
1
 40
1
 40
1
 40
1
 10
61.632272
 20
65.681405
 30
0.0
 10
61.632272
 20
60.681404
 30
0.0
 10
61.632272
 20
60.681404
 30
0.0
 10
61.632272
 20
60.681404
 30
0.0
  0
SPLINE
  5
113
100
AcDbEntity
  8
0
 62
7
100
AcDbSpline
 70
8
 71
3
 72
8
 73
4
 74
0
 40
0
 40
0
 40
0
 40
0
 40
1
 40
1
 40
1
 40
1
 10
59.132272
 20
63.181405
 30
0.0
 10
64.132272
 20
63.181405
 30
0.0
 10
64.132272
 20
63.181405
 30
0.0
 10
64.132272
 20
63.181405
 30
0.0
  0
SPLINE
  5
114
100
AcDbEntity
  8
0
 62
7
100
AcDbSpline
 70
8
 71
3
 72
8
 73
4
 74
0
 40
0
 40
0
 40
0
 40
0
 40
1
 40
1
 40
1
 40
1
 10
36.632272
 20
65.681405
 30
0.0
 10
36.632272
 20
60.681404
 30
0.0
 10
36.632272
 20
60.681404
 30
0.0
 10
36.632272
 20
60.681404
 30
0.0
  0
SPLINE
  5
115
100
AcDbEntity
  8
0
 62
7
100
AcDbSpline
 70
8
 71
3
 72
8
 73
4
 74
0
 40
0
 40
0
 40
0
 40
0
 40
1
 40
1
 40
1
 40
1
 10
34.132271
 20
63.181405
 30
0.0
 10
39.132272
 20
63.181405
 30
0.0
 10
39.132272
 20
63.181405
 30
0.0
 10
39.132272
 20
63.181405
 30
0.0
  0
SPLINE
  5
116
100
AcDbEntity
  8
0
 62
7
100
AcDbSpline
 70
8
 71
3
 72
8
 73
4
 74
0
 40
0
 40
0
 40
0
 40
0
 40
1
 40
1
 40
1
 40
1
 10
11.632282
 20
65.681405
 30
0.0
 10
11.632282
 20
60.681404
 30
0.0
 10
11.632282
 20
60.681404
 30
0.0
 10
11.632282
 20
60.681404
 30
0.0
  0
SPLINE
  5
117
100
AcDbEntity
  8
0
 62
7
100
AcDbSpline
 70
8
 71
3
 72
8
 73
4
 74
0
 40
0
 40
0
 40
0
 40
0
 40
1
 40
1
 40
1
 40
1
 10
9.132282
 20
63.181405
 30
0.0
 10
14.132283
 20
63.181405
 30
0.0
 10
14.132283
 20
63.181405
 30
0.0
 10
14.132283
 20
63.181405
 30
0.0
  0
SPLINE
  5
118
100
AcDbEntity
  8
0
 62
7
100
AcDbSpline
 70
8
 71
3
 72
8
 73
4
 74
0
 40
0
 40
0
 40
0
 40
0
 40
1
 40
1
 40
1
 40
1
 10
11.632282
 20
27.681394
 30
0.0
 10
11.632282
 20
22.681404
 30
0.0
 10
11.632282
 20
22.681404
 30
0.0
 10
11.632282
 20
22.681404
 30
0.0
  0
SPLINE
  5
119
100
AcDbEntity
  8
0
 62
7
100
AcDbSpline
 70
8
 71
3
 72
8
 73
4
 74
0
 40
0
 40
0
 40
0
 40
0
 40
1
 40
1
 40
1
 40
1
 10
9.132282
 20
25.181399
 30
0.0
 10
14.132283
 20
25.181399
 30
0.0
 10
14.132283
 20
25.181399
 30
0.0
 10
14.132283
 20
25.181399
 30
0.0
  0
SPLINE
  5
11a
100
AcDbEntity
  8
0
 62
7
100
AcDbSpline
 70
8
 71
3
 72
8
 73
4
 74
0
 40
0
 40
0
 40
0
 40
0
 40
1
 40
1
 40
1
 40
1
 10
36.632282
 20
27.681394
 30
0.0
 10
36.632282
 20
22.681404
 30
0.0
 10
36.632282
 20
22.681404
 30
0.0
 10
36.632282
 20
22.681404
 30
0.0
  0
SPLINE
  5
11b
100
AcDbEntity
  8
0
 62
7
100
AcDbSpline
 70
8
 71
3
 72
8
 73
4
 74
0
 40
0
 40
0
 40
0
 40
0
 40
1
 40
1
 40
1
 40
1
 10
34.132282
 20
25.181399
 30
0.0
 10
39.132282
 20
25.181399
 30
0.0
 10
39.132282
 20
25.181399
 30
0.0
 10
39.132282
 20
25.181399
 30
0.0
  0
SPLINE
  5
11c
100
AcDbEntity
  8
0
 62
7
100
AcDbSpline
 70
8
 71
3
 72
8
 73
4
 74
0
 40
0
 40
0
 40
0
 40
0
 40
1
 40
1
 40
1
 40
1
 10
61.632282
 20
27.681394
 30
0.0
 10
61.632282
 20
22.681404
 30
0.0
 10
61.632282
 20
22.681404
 30
0.0
 10
61.632282
 20
22.681404
 30
0.0
  0
SPLINE
  5
11d
100
AcDbEntity
  8
0
 62
7
100
AcDbSpline
 70
8
 71
3
 72
8
 73
4
 74
0
 40
0
 40
0
 40
0
 40
0
 40
1
 40
1
 40
1
 40
1
 10
59.132282
 20
25.181399
 30
0.0
 10
64.132283
 20
25.181399
 30
0.0
 10
64.132283
 20
25.181399
 30
0.0
 10
64.132283
 20
25.181399
 30
0.0
  0
SPLINE
  5
11e
100
AcDbEntity
  8
0
 62
7
100
AcDbSpline
 70
8
 71
3
 72
8
 73
4
 74
0
 40
0
 40
0
 40
0
 40
0
 40
1
 40
1
 40
1
 40
1
 10
86.632283
 20
27.681394
 30
0.0
 10
86.632283
 20
22.681404
 30
0.0
 10
86.632283
 20
22.681404
 30
0.0
 10
86.632283
 20
22.681404
 30
0.0
  0
SPLINE
  5
11f
100
AcDbEntity
  8
0
 62
7
100
AcDbSpline
 70
8
 71
3
 72
8
 73
4
 74
0
 40
0
 40
0
 40
0
 40
0
 40
1
 40
1
 40
1
 40
1
 10
84.132282
 20
25.181399
 30
0.0
 10
89.132283
 20
25.181399
 30
0.0
 10
89.132283
 20
25.181399
 30
0.0
 10
89.132283
 20
25.181399
 30
0.0
  0
SPLINE
  5
120
100
AcDbEntity
  8
0
 62
7
100
AcDbSpline
 70
8
 71
3
 72
8
 73
4
 74
0
 40
0
 40
0
 40
0
 40
0
 40
1
 40
1
 40
1
 40
1
 10
111.632280
 20
27.681394
 30
0.0
 10
111.632280
 20
22.681404
 30
0.0
 10
111.632280
 20
22.681404
 30
0.0
 10
111.632280
 20
22.681404
 30
0.0
  0
SPLINE
  5
121
100
AcDbEntity
  8
0
 62
7
100
AcDbSpline
 70
8
 71
3
 72
8
 73
4
 74
0
 40
0
 40
0
 40
0
 40
0
 40
1
 40
1
 40
1
 40
1
 10
109.132283
 20
25.181399
 30
0.0
 10
114.132283
 20
25.181399
 30
0.0
 10
114.132283
 20
25.181399
 30
0.0
 10
114.132283
 20
25.181399
 30
0.0
  0
SPLINE
  5
122
100
AcDbEntity
  8
0
 62
7
100
AcDbSpline
 70
8
 71
3
 72
8
 73
4
 74
0
 40
0
 40
0
 40
0
 40
0
 40
1
 40
1
 40
1
 40
1
 10
136.632281
 20
27.681394
 30
0.0
 10
136.632281
 20
22.681404
 30
0.0
 10
136.632281
 20
22.681404
 30
0.0
 10
136.632281
 20
22.681404
 30
0.0
  0
SPLINE
  5
123
100
AcDbEntity
  8
0
 62
7
100
AcDbSpline
 70
8
 71
3
 72
8
 73
4
 74
0
 40
0
 40
0
 40
0
 40
0
 40
1
 40
1
 40
1
 40
1
 10
134.132280
 20
25.181399
 30
0.0
 10
139.132284
 20
25.181399
 30
0.0
 10
139.132284
 20
25.181399
 30
0.0
 10
139.132284
 20
25.181399
 30
0.0
  0
SPLINE
  5
124
100
AcDbEntity
  8
0
 62
7
100
AcDbSpline
 70
8
 71
3
 72
8
 73
4
 74
0
 40
0
 40
0
 40
0
 40
0
 40
1
 40
1
 40
1
 40
1
 10
74.132281
 20
65.681405
 30
0.0
 10
74.132281
 20
60.681404
 30
0.0
 10
74.132281
 20
60.681404
 30
0.0
 10
74.132281
 20
60.681404
 30
0.0
  0
SPLINE
  5
125
100
AcDbEntity
  8
0
 62
7
100
AcDbSpline
 70
8
 71
3
 72
8
 73
4
 74
0
 40
0
 40
0
 40
0
 40
0
 40
1
 40
1
 40
1
 40
1
 10
71.632281
 20
63.181405
 30
0.0
 10
76.632282
 20
63.181405
 30
0.0
 10
76.632282
 20
63.181405
 30
0.0
 10
76.632282
 20
63.181405
 30
0.0
  0
SPLINE
  5
126
100
AcDbEntity
  8
0
 62
7
100
AcDbSpline
 70
8
 71
3
 72
8
 73
4
 74
0
 40
0
 40
0
 40
0
 40
0
 40
1
 40
1
 40
1
 40
1
 10
6.632272
 20
46.185775
 30
0.0
 10
6.632272
 20
41.185775
 30
0.0
 10
6.632272
 20
41.185775
 30
0.0
 10
6.632272
 20
41.185775
 30
0.0
  0
SPLINE
  5
127
100
AcDbEntity
  8
0
 62
7
100
AcDbSpline
 70
8
 71
3
 72
8
 73
4
 74
0
 40
0
 40
0
 40
0
 40
0
 40
1
 40
1
 40
1
 40
1
 10
4.132272
 20
43.685775
 30
0.0
 10
9.132273
 20
43.685775
 30
0.0
 10
9.132273
 20
43.685775
 30
0.0
 10
9.132273
 20
43.685775
 30
0.0
  0
SPLINE
  5
128
100
AcDbEntity
  8
0
 62
7
100
AcDbSpline
 70
8
 71
3
 72
8
 73
4
 74
0
 40
0
 40
0
 40
0
 40
0
 40
1
 40
1
 40
1
 40
1
 10
24.132272
 20
46.185775
 30
0.0
 10
24.132272
 20
41.185775
 30
0.0
 10
24.132272
 20
41.185775
 30
0.0
 10
24.132272
 20
41.185775
 30
0.0
  0
SPLINE
  5
129
100
AcDbEntity
  8
0
 62
7
100
AcDbSpline
 70
8
 71
3
 72
8
 73
4
 74
0
 40
0
 40
0
 40
0
 40
0
 40
1
 40
1
 40
1
 40
1
 10
21.632272
 20
43.685775
 30
0.0
 10
26.632273
 20
43.685775
 30
0.0
 10
26.632273
 20
43.685775
 30
0.0
 10
26.632273
 20
43.685775
 30
0.0
  0
SPLINE
  5
12a
100
AcDbEntity
  8
0
 62
7
100
AcDbSpline
 70
8
 71
3
 72
8
 73
4
 74
0
 40
0
 40
0
 40
0
 40
0
 40
1
 40
1
 40
1
 40
1
 10
41.632272
 20
46.185775
 30
0.0
 10
41.632272
 20
41.185775
 30
0.0
 10
41.632272
 20
41.185775
 30
0.0
 10
41.632272
 20
41.185775
 30
0.0
  0
SPLINE
  5
12b
100
AcDbEntity
  8
0
 62
7
100
AcDbSpline
 70
8
 71
3
 72
8
 73
4
 74
0
 40
0
 40
0
 40
0
 40
0
 40
1
 40
1
 40
1
 40
1
 10
39.132272
 20
43.685775
 30
0.0
 10
44.132272
 20
43.685775
 30
0.0
 10
44.132272
 20
43.685775
 30
0.0
 10
44.132272
 20
43.685775
 30
0.0
  0
SPLINE
  5
12c
100
AcDbEntity
  8
0
 62
7
100
AcDbSpline
 70
8
 71
3
 72
8
 73
4
 74
0
 40
0
 40
0
 40
0
 40
0
 40
1
 40
1
 40
1
 40
1
 10
56.632271
 20
46.185775
 30
0.0
 10
56.632271
 20
41.185775
 30
0.0
 10
56.632271
 20
41.185775
 30
0.0
 10
56.632271
 20
41.185775
 30
0.0
  0
SPLINE
  5
12d
100
AcDbEntity
  8
0
 62
7
100
AcDbSpline
 70
8
 71
3
 72
8
 73
4
 74
0
 40
0
 40
0
 40
0
 40
0
 40
1
 40
1
 40
1
 40
1
 10
54.132271
 20
43.685775
 30
0.0
 10
59.132272
 20
43.685775
 30
0.0
 10
59.132272
 20
43.685775
 30
0.0
 10
59.132272
 20
43.685775
 30
0.0
  0
SPLINE
  5
12e
100
AcDbEntity
  8
0
 62
7
100
AcDbSpline
 70
8
 71
3
 72
8
 73
4
 74
0
 40
0
 40
0
 40
0
 40
0
 40
1
 40
1
 40
1
 40
1
 10
74.132281
 20
46.185775
 30
0.0
 10
74.132281
 20
41.185775
 30
0.0
 10
74.132281
 20
41.185775
 30
0.0
 10
74.132281
 20
41.185775
 30
0.0
  0
SPLINE
  5
12f
100
AcDbEntity
  8
0
 62
7
100
AcDbSpline
 70
8
 71
3
 72
8
 73
4
 74
0
 40
0
 40
0
 40
0
 40
0
 40
1
 40
1
 40
1
 40
1
 10
71.632281
 20
43.685775
 30
0.0
 10
76.632282
 20
43.685775
 30
0.0
 10
76.632282
 20
43.685775
 30
0.0
 10
76.632282
 20
43.685775
 30
0.0
  0
SPLINE
  5
130
100
AcDbEntity
  8
0
 62
7
100
AcDbSpline
 70
8
 71
3
 72
8
 73
4
 74
0
 40
0
 40
0
 40
0
 40
0
 40
1
 40
1
 40
1
 40
1
 10
91.632281
 20
46.185775
 30
0.0
 10
91.632281
 20
41.185775
 30
0.0
 10
91.632281
 20
41.185775
 30
0.0
 10
91.632281
 20
41.185775
 30
0.0
  0
SPLINE
  5
131
100
AcDbEntity
  8
0
 62
7
100
AcDbSpline
 70
8
 71
3
 72
8
 73
4
 74
0
 40
0
 40
0
 40
0
 40
0
 40
1
 40
1
 40
1
 40
1
 10
89.132280
 20
43.685775
 30
0.0
 10
94.132284
 20
43.685775
 30
0.0
 10
94.132284
 20
43.685775
 30
0.0
 10
94.132284
 20
43.685775
 30
0.0
  0
SPLINE
  5
132
100
AcDbEntity
  8
0
 62
7
100
AcDbSpline
 70
8
 71
3
 72
8
 73
4
 74
0
 40
0
 40
0
 40
0
 40
0
 40
1
 40
1
 40
1
 40
1
 10
106.632282
 20
46.185775
 30
0.0
 10
106.632282
 20
41.185775
 30
0.0
 10
106.632282
 20
41.185775
 30
0.0
 10
106.632282
 20
41.185775
 30
0.0
  0
SPLINE
  5
133
100
AcDbEntity
  8
0
 62
7
100
AcDbSpline
 70
8
 71
3
 72
8
 73
4
 74
0
 40
0
 40
0
 40
0
 40
0
 40
1
 40
1
 40
1
 40
1
 10
104.132282
 20
43.685775
 30
0.0
 10
109.132283
 20
43.685775
 30
0.0
 10
109.132283
 20
43.685775
 30
0.0
 10
109.132283
 20
43.685775
 30
0.0
  0
SPLINE
  5
134
100
AcDbEntity
  8
0
 62
7
100
AcDbSpline
 70
8
 71
3
 72
8
 73
4
 74
0
 40
0
 40
0
 40
0
 40
0
 40
1
 40
1
 40
1
 40
1
 10
124.132282
 20
46.185775
 30
0.0
 10
124.132282
 20
41.185775
 30
0.0
 10
124.132282
 20
41.185775
 30
0.0
 10
124.132282
 20
41.185775
 30
0.0
  0
SPLINE
  5
135
100
AcDbEntity
  8
0
 62
7
100
AcDbSpline
 70
8
 71
3
 72
8
 73
4
 74
0
 40
0
 40
0
 40
0
 40
0
 40
1
 40
1
 40
1
 40
1
 10
121.632281
 20
43.685775
 30
0.0
 10
126.632282
 20
43.685775
 30
0.0
 10
126.632282
 20
43.685775
 30
0.0
 10
126.632282
 20
43.685775
 30
0.0
  0
SPLINE
  5
136
100
AcDbEntity
  8
0
 62
7
100
AcDbSpline
 70
8
 71
3
 72
8
 73
4
 74
0
 40
0
 40
0
 40
0
 40
0
 40
1
 40
1
 40
1
 40
1
 10
141.632281
 20
46.185775
 30
0.0
 10
141.632281
 20
41.185775
 30
0.0
 10
141.632281
 20
41.185775
 30
0.0
 10
141.632281
 20
41.185775
 30
0.0
  0
SPLINE
  5
137
100
AcDbEntity
  8
0
 62
7
100
AcDbSpline
 70
8
 71
3
 72
8
 73
4
 74
0
 40
0
 40
0
 40
0
 40
0
 40
1
 40
1
 40
1
 40
1
 10
139.132281
 20
43.685775
 30
0.0
 10
144.132281
 20
43.685775
 30
0.0
 10
144.132281
 20
43.685775
 30
0.0
 10
144.132281
 20
43.685775
 30
0.0
  0
SPLINE
  5
138
100
AcDbEntity
  8
0
 62
7
100
AcDbSpline
 70
8
 71
3
 72
8
 73
4
 74
0
 40
0
 40
0
 40
0
 40
0
 40
1
 40
1
 40
1
 40
1
 10
6.632272
 20
8.185782
 30
0.0
 10
6.632272
 20
3.185766
 30
0.0
 10
6.632272
 20
3.185766
 30
0.0
 10
6.632272
 20
3.185766
 30
0.0
  0
SPLINE
  5
139
100
AcDbEntity
  8
0
 62
7
100
AcDbSpline
 70
8
 71
3
 72
8
 73
4
 74
0
 40
0
 40
0
 40
0
 40
0
 40
1
 40
1
 40
1
 40
1
 10
4.132272
 20
5.685761
 30
0.0
 10
9.132273
 20
5.685761
 30
0.0
 10
9.132273
 20
5.685761
 30
0.0
 10
9.132273
 20
5.685761
 30
0.0
  0
SPLINE
  5
13a
100
AcDbEntity
  8
0
 62
7
100
AcDbSpline
 70
8
 71
3
 72
8
 73
4
 74
0
 40
0
 40
0
 40
0
 40
0
 40
1
 40
1
 40
1
 40
1
 10
24.132272
 20
8.185782
 30
0.0
 10
24.132272
 20
3.185766
 30
0.0
 10
24.132272
 20
3.185766
 30
0.0
 10
24.132272
 20
3.185766
 30
0.0
  0
SPLINE
  5
13b
100
AcDbEntity
  8
0
 62
7
100
AcDbSpline
 70
8
 71
3
 72
8
 73
4
 74
0
 40
0
 40
0
 40
0
 40
0
 40
1
 40
1
 40
1
 40
1
 10
21.632272
 20
5.685761
 30
0.0
 10
26.632273
 20
5.685761
 30
0.0
 10
26.632273
 20
5.685761
 30
0.0
 10
26.632273
 20
5.685761
 30
0.0
  0
SPLINE
  5
13c
100
AcDbEntity
  8
0
 62
7
100
AcDbSpline
 70
8
 71
3
 72
8
 73
4
 74
0
 40
0
 40
0
 40
0
 40
0
 40
1
 40
1
 40
1
 40
1
 10
41.632272
 20
8.185782
 30
0.0
 10
41.632272
 20
3.185766
 30
0.0
 10
41.632272
 20
3.185766
 30
0.0
 10
41.632272
 20
3.185766
 30
0.0
  0
SPLINE
  5
13d
100
AcDbEntity
  8
0
 62
7
100
AcDbSpline
 70
8
 71
3
 72
8
 73
4
 74
0
 40
0
 40
0
 40
0
 40
0
 40
1
 40
1
 40
1
 40
1
 10
39.132272
 20
5.685761
 30
0.0
 10
44.132272
 20
5.685761
 30
0.0
 10
44.132272
 20
5.685761
 30
0.0
 10
44.132272
 20
5.685761
 30
0.0
  0
SPLINE
  5
13e
100
AcDbEntity
  8
0
 62
7
100
AcDbSpline
 70
8
 71
3
 72
8
 73
4
 74
0
 40
0
 40
0
 40
0
 40
0
 40
1
 40
1
 40
1
 40
1
 10
56.632271
 20
8.185782
 30
0.0
 10
56.632271
 20
3.185766
 30
0.0
 10
56.632271
 20
3.185766
 30
0.0
 10
56.632271
 20
3.185766
 30
0.0
  0
SPLINE
  5
13f
100
AcDbEntity
  8
0
 62
7
100
AcDbSpline
 70
8
 71
3
 72
8
 73
4
 74
0
 40
0
 40
0
 40
0
 40
0
 40
1
 40
1
 40
1
 40
1
 10
54.132271
 20
5.685761
 30
0.0
 10
59.132272
 20
5.685761
 30
0.0
 10
59.132272
 20
5.685761
 30
0.0
 10
59.132272
 20
5.685761
 30
0.0
  0
SPLINE
  5
140
100
AcDbEntity
  8
0
 62
7
100
AcDbSpline
 70
8
 71
3
 72
8
 73
4
 74
0
 40
0
 40
0
 40
0
 40
0
 40
1
 40
1
 40
1
 40
1
 10
74.132281
 20
8.185782
 30
0.0
 10
74.132281
 20
3.185766
 30
0.0
 10
74.132281
 20
3.185766
 30
0.0
 10
74.132281
 20
3.185766
 30
0.0
  0
SPLINE
  5
141
100
AcDbEntity
  8
0
 62
7
100
AcDbSpline
 70
8
 71
3
 72
8
 73
4
 74
0
 40
0
 40
0
 40
0
 40
0
 40
1
 40
1
 40
1
 40
1
 10
71.632281
 20
5.685761
 30
0.0
 10
76.632282
 20
5.685761
 30
0.0
 10
76.632282
 20
5.685761
 30
0.0
 10
76.632282
 20
5.685761
 30
0.0
  0
SPLINE
  5
142
100
AcDbEntity
  8
0
 62
7
100
AcDbSpline
 70
8
 71
3
 72
8
 73
4
 74
0
 40
0
 40
0
 40
0
 40
0
 40
1
 40
1
 40
1
 40
1
 10
91.632281
 20
8.185782
 30
0.0
 10
91.632281
 20
3.185766
 30
0.0
 10
91.632281
 20
3.185766
 30
0.0
 10
91.632281
 20
3.185766
 30
0.0
  0
SPLINE
  5
143
100
AcDbEntity
  8
0
 62
7
100
AcDbSpline
 70
8
 71
3
 72
8
 73
4
 74
0
 40
0
 40
0
 40
0
 40
0
 40
1
 40
1
 40
1
 40
1
 10
89.132280
 20
5.685761
 30
0.0
 10
94.132284
 20
5.685761
 30
0.0
 10
94.132284
 20
5.685761
 30
0.0
 10
94.132284
 20
5.685761
 30
0.0
  0
SPLINE
  5
144
100
AcDbEntity
  8
0
 62
7
100
AcDbSpline
 70
8
 71
3
 72
8
 73
4
 74
0
 40
0
 40
0
 40
0
 40
0
 40
1
 40
1
 40
1
 40
1
 10
106.632282
 20
8.185782
 30
0.0
 10
106.632282
 20
3.185766
 30
0.0
 10
106.632282
 20
3.185766
 30
0.0
 10
106.632282
 20
3.185766
 30
0.0
  0
SPLINE
  5
145
100
AcDbEntity
  8
0
 62
7
100
AcDbSpline
 70
8
 71
3
 72
8
 73
4
 74
0
 40
0
 40
0
 40
0
 40
0
 40
1
 40
1
 40
1
 40
1
 10
104.132282
 20
5.685761
 30
0.0
 10
109.132283
 20
5.685761
 30
0.0
 10
109.132283
 20
5.685761
 30
0.0
 10
109.132283
 20
5.685761
 30
0.0
  0
SPLINE
  5
146
100
AcDbEntity
  8
0
 62
7
100
AcDbSpline
 70
8
 71
3
 72
8
 73
4
 74
0
 40
0
 40
0
 40
0
 40
0
 40
1
 40
1
 40
1
 40
1
 10
124.132282
 20
8.185782
 30
0.0
 10
124.132282
 20
3.185766
 30
0.0
 10
124.132282
 20
3.185766
 30
0.0
 10
124.132282
 20
3.185766
 30
0.0
  0
SPLINE
  5
147
100
AcDbEntity
  8
0
 62
7
100
AcDbSpline
 70
8
 71
3
 72
8
 73
4
 74
0
 40
0
 40
0
 40
0
 40
0
 40
1
 40
1
 40
1
 40
1
 10
121.632281
 20
5.685761
 30
0.0
 10
126.632282
 20
5.685761
 30
0.0
 10
126.632282
 20
5.685761
 30
0.0
 10
126.632282
 20
5.685761
 30
0.0
  0
SPLINE
  5
148
100
AcDbEntity
  8
0
 62
7
100
AcDbSpline
 70
8
 71
3
 72
8
 73
4
 74
0
 40
0
 40
0
 40
0
 40
0
 40
1
 40
1
 40
1
 40
1
 10
141.632281
 20
8.185782
 30
0.0
 10
141.632281
 20
3.185766
 30
0.0
 10
141.632281
 20
3.185766
 30
0.0
 10
141.632281
 20
3.185766
 30
0.0
  0
SPLINE
  5
149
100
AcDbEntity
  8
0
 62
7
100
AcDbSpline
 70
8
 71
3
 72
8
 73
4
 74
0
 40
0
 40
0
 40
0
 40
0
 40
1
 40
1
 40
1
 40
1
 10
139.132281
 20
5.685761
 30
0.0
 10
144.132281
 20
5.685761
 30
0.0
 10
144.132281
 20
5.685761
 30
0.0
 10
144.132281
 20
5.685761
 30
0.0
  0
SPLINE
  5
14a
100
AcDbEntity
  8
0
 62
7
100
AcDbSpline
 70
8
 71
3
 72
8
 73
4
 74
0
 40
0
 40
0
 40
0
 40
0
 40
1
 40
1
 40
1
 40
1
 10
29.132281
 20
100.662206
 30
0.0
 10
29.132281
 20
95.662205
 30
0.0
 10
29.132281
 20
95.662205
 30
0.0
 10
29.132281
 20
95.662205
 30
0.0
  0
SPLINE
  5
14b
100
AcDbEntity
  8
0
 62
7
100
AcDbSpline
 70
8
 71
3
 72
8
 73
4
 74
0
 40
0
 40
0
 40
0
 40
0
 40
1
 40
1
 40
1
 40
1
 10
26.632281
 20
98.162205
 30
0.0
 10
31.632282
 20
98.162205
 30
0.0
 10
31.632282
 20
98.162205
 30
0.0
 10
31.632282
 20
98.162205
 30
0.0
  0
SPLINE
  5
14c
100
AcDbEntity
  8
0
 62
7
100
AcDbSpline
 70
8
 71
3
 72
8
 73
4
 74
0
 40
0
 40
0
 40
0
 40
0
 40
1
 40
1
 40
1
 40
1
 10
34.132282
 20
100.662206
 30
0.0
 10
34.132282
 20
95.662205
 30
0.0
 10
34.132282
 20
95.662205
 30
0.0
 10
34.132282
 20
95.662205
 30
0.0
  0
SPLINE
  5
14d
100
AcDbEntity
  8
0
 62
7
100
AcDbSpline
 70
8
 71
3
 72
8
 73
4
 74
0
 40
0
 40
0
 40
0
 40
0
 40
1
 40
1
 40
1
 40
1
 10
31.632282
 20
98.162205
 30
0.0
 10
36.632282
 20
98.162205
 30
0.0
 10
36.632282
 20
98.162205
 30
0.0
 10
36.632282
 20
98.162205
 30
0.0
  0
SPLINE
  5
14e
100
AcDbEntity
  8
0
 62
7
100
AcDbSpline
 70
8
 71
3
 72
8
 73
4
 74
0
 40
0
 40
0
 40
0
 40
0
 40
1
 40
1
 40
1
 40
1
 10
39.132282
 20
100.662206
 30
0.0
 10
39.132282
 20
95.662205
 30
0.0
 10
39.132282
 20
95.662205
 30
0.0
 10
39.132282
 20
95.662205
 30
0.0
  0
SPLINE
  5
14f
100
AcDbEntity
  8
0
 62
7
100
AcDbSpline
 70
8
 71
3
 72
8
 73
4
 74
0
 40
0
 40
0
 40
0
 40
0
 40
1
 40
1
 40
1
 40
1
 10
36.632282
 20
98.162205
 30
0.0
 10
41.632283
 20
98.162205
 30
0.0
 10
41.632283
 20
98.162205
 30
0.0
 10
41.632283
 20
98.162205
 30
0.0
  0
SPLINE
  5
150
100
AcDbEntity
  8
0
 62
7
100
AcDbSpline
 70
8
 71
3
 72
8
 73
4
 74
0
 40
0
 40
0
 40
0
 40
0
 40
1
 40
1
 40
1
 40
1
 10
44.132280
 20
100.662206
 30
0.0
 10
44.132280
 20
95.662205
 30
0.0
 10
44.132280
 20
95.662205
 30
0.0
 10
44.132280
 20
95.662205
 30
0.0
  0
SPLINE
  5
151
100
AcDbEntity
  8
0
 62
7
100
AcDbSpline
 70
8
 71
3
 72
8
 73
4
 74
0
 40
0
 40
0
 40
0
 40
0
 40
1
 40
1
 40
1
 40
1
 10
41.632283
 20
98.162205
 30
0.0
 10
46.632283
 20
98.162205
 30
0.0
 10
46.632283
 20
98.162205
 30
0.0
 10
46.632283
 20
98.162205
 30
0.0
  0
SPLINE
  5
152
100
AcDbEntity
  8
0
 62
7
100
AcDbSpline
 70
8
 71
3
 72
8
 73
4
 74
0
 40
0
 40
0
 40
0
 40
0
 40
1
 40
1
 40
1
 40
1
 10
124.132282
 20
100.662206
 30
0.0
 10
124.132282
 20
95.662205
 30
0.0
 10
124.132282
 20
95.662205
 30
0.0
 10
124.132282
 20
95.662205
 30
0.0
  0
SPLINE
  5
153
100
AcDbEntity
  8
0
 62
7
100
AcDbSpline
 70
8
 71
3
 72
8
 73
4
 74
0
 40
0
 40
0
 40
0
 40
0
 40
1
 40
1
 40
1
 40
1
 10
121.632281
 20
98.162205
 30
0.0
 10
126.632282
 20
98.162205
 30
0.0
 10
126.632282
 20
98.162205
 30
0.0
 10
126.632282
 20
98.162205
 30
0.0
  0
SPLINE
  5
154
100
AcDbEntity
  8
0
 62
7
100
AcDbSpline
 70
8
 71
3
 72
8
 73
4
 74
0
 40
0
 40
0
 40
0
 40
0
 40
1
 40
1
 40
1
 40
1
 10
74.132281
 20
16.257585
 30
0.0
 10
74.132281
 20
11.257595
 30
0.0
 10
74.132281
 20
11.257595
 30
0.0
 10
74.132281
 20
11.257595
 30
0.0
  0
SPLINE
  5
155
100
AcDbEntity
  8
0
 62
7
100
AcDbSpline
 70
8
 71
3
 72
8
 73
4
 74
0
 40
0
 40
0
 40
0
 40
0
 40
1
 40
1
 40
1
 40
1
 10
71.632281
 20
13.757590
 30
0.0
 10
76.632282
 20
13.757590
 30
0.0
 10
76.632282
 20
13.757590
 30
0.0
 10
76.632282
 20
13.757590
 30
0.0
  0
SPLINE
  5
156
100
AcDbEntity
  8
0
 62
7
100
AcDbSpline
 70
8
 71
3
 72
8
 73
4
 74
0
 40
0
 40
0
 40
0
 40
0
 40
1
 40
1
 40
1
 40
1
 10
124.132282
 20
16.257585
 30
0.0
 10
124.132282
 20
11.257595
 30
0.0
 10
124.132282
 20
11.257595
 30
0.0
 10
124.132282
 20
11.257595
 30
0.0
  0
SPLINE
  5
157
100
AcDbEntity
  8
0
 62
7
100
AcDbSpline
 70
8
 71
3
 72
8
 73
4
 74
0
 40
0
 40
0
 40
0
 40
0
 40
1
 40
1
 40
1
 40
1
 10
121.632281
 20
13.757590
 30
0.0
 10
126.632282
 20
13.757590
 30
0.0
 10
126.632282
 20
13.757590
 30
0.0
 10
126.632282
 20
13.757590
 30
0.0
  0
LWPOLYLINE
  5
158
100
AcDbEntity
  8
0
 62
7
100
AcDbPolyline
 90
4
 70
1
 10
0.132292
 20
105.132293
 30
0.0
 10
148.132292
 20
105.132293
 30
0.0
 10
148.132292
 20
0.132289
 30
0.0
 10
0.132292
 20
0.132289
 30
0.0
  0
ENDSEC
  0
SECTION
  2
OBJECTS
  0
DICTIONARY
  5
C
330
0
100
AcDbDictionary
  3
ACAD_GROUP
350
D
  3
ACAD_MLINESTYLE
350
17
  0
DICTIONARY
  5
D
330
C
100
AcDbDictionary
  0
DICTIONARY
  5
1A
330
C
100
AcDbDictionary
  0
DICTIONARY
  5
17
330
C
100
AcDbDictionary
  3
STANDARD
350
18
  0
DICTIONARY
  5
19
330
C
100
AcDbDictionary
  0
ENDSEC
  0
EOF
