G04 #@! TF.FileFunction,Profile,NP*
%FSLAX46Y46*%
G04 Gerber Fmt 4.6, Leading zero omitted, Abs format (unit mm)*
G04 Created by KiCad (PCBNEW 4.0.2-stable) date 2018-11-15 11:45:17 AM*
%MOMM*%
G01*
G04 APERTURE LIST*
%ADD10C,0.200000*%
G04 APERTURE END LIST*
D10*
X256000000Y-151000000D02*
X258000000Y-151000000D01*
X232000000Y-179500000D02*
X232000000Y-181500000D01*
X256000000Y-46000000D02*
X258000000Y-46000000D01*
X232000000Y-74500000D02*
X232000000Y-76500000D01*
X108000000Y-46000000D02*
X110000000Y-46000000D01*
X84000000Y-74500000D02*
X84000000Y-40000000D01*
X108000000Y-151000000D02*
X110000000Y-151000000D01*
X84000000Y-262000000D02*
X380000000Y-262000000D01*
X84000000Y-40000000D02*
X380000000Y-40000000D01*
X232000000Y-181500000D02*
X258000000Y-181500000D01*
X258000000Y-151000000D02*
X258000000Y-181500000D01*
X232000000Y-179500000D02*
X256000000Y-179500000D01*
X256000000Y-151000000D02*
X256000000Y-179500000D01*
X380000000Y-151000000D02*
X380000000Y-262000000D01*
X84000000Y-181500000D02*
X110000000Y-181500000D01*
X108000000Y-151000000D02*
X108000000Y-179500000D01*
X110000000Y-151000000D02*
X110000000Y-181500000D01*
X84000000Y-262000000D02*
X84000000Y-181500000D01*
X84000000Y-179500000D02*
X108000000Y-179500000D01*
X232000000Y-76500000D02*
X258000000Y-76500000D01*
X258000000Y-46000000D02*
X258000000Y-76500000D01*
X256000000Y-46000000D02*
X256000000Y-74500000D01*
X232000000Y-74500000D02*
X256000000Y-74500000D01*
X380000000Y-40000000D02*
X380000000Y-151000000D01*
X84000000Y-74500000D02*
X108000000Y-74500000D01*
X108000000Y-46000000D02*
X108000000Y-74500000D01*
X110000000Y-46000000D02*
X110000000Y-76500000D01*
X84000000Y-76500000D02*
X110000000Y-76500000D01*
X84000000Y-179500000D02*
X84000000Y-76500000D01*
M02*
