G04 #@! TF.FileFunction,Soldermask,Top*
%FSLAX46Y46*%
G04 Gerber Fmt 4.6, Leading zero omitted, Abs format (unit mm)*
G04 Created by KiCad (PCBNEW 4.0.2-stable) date 2018-11-15 11:45:17 AM*
%MOMM*%
G01*
G04 APERTURE LIST*
%ADD10C,0.200000*%
%ADD11C,0.010000*%
%ADD12C,1.370000*%
%ADD13R,1.800000X1.800000*%
%ADD14O,1.800000X1.800000*%
%ADD15C,1.900000*%
%ADD16R,1.700000X2.900000*%
%ADD17R,2.600000X3.600000*%
%ADD18C,1.850000*%
%ADD19O,2.600000X4.100000*%
%ADD20O,2.100000X2.600000*%
%ADD21O,3.600000X1.600000*%
%ADD22C,3.275000*%
%ADD23C,1.624000*%
%ADD24R,1.600000X2.100000*%
%ADD25R,1.600000X1.600000*%
%ADD26C,1.600000*%
%ADD27O,2.300000X1.500000*%
%ADD28O,2.350000X1.500000*%
%ADD29C,2.100000*%
G04 APERTURE END LIST*
D10*
D11*
G36*
X311452528Y-47647199D02*
X311562340Y-47662043D01*
X311665105Y-47688060D01*
X311757269Y-47725305D01*
X311758524Y-47725935D01*
X311849825Y-47780600D01*
X311929712Y-47847128D01*
X311998430Y-47926004D01*
X312056225Y-48017710D01*
X312103343Y-48122730D01*
X312140032Y-48241547D01*
X312166536Y-48374646D01*
X312183102Y-48522509D01*
X312185918Y-48565284D01*
X312189195Y-48666929D01*
X312188210Y-48774115D01*
X312183231Y-48880877D01*
X312174528Y-48981252D01*
X312163419Y-49063101D01*
X312150257Y-49127333D01*
X312131843Y-49197076D01*
X312109973Y-49266693D01*
X312086442Y-49330549D01*
X312063044Y-49383010D01*
X312059148Y-49390502D01*
X312036707Y-49428643D01*
X312008698Y-49470669D01*
X311978428Y-49512131D01*
X311949201Y-49548584D01*
X311924324Y-49575583D01*
X311916083Y-49582940D01*
X311891679Y-49602647D01*
X311931319Y-49644413D01*
X312003481Y-49733535D01*
X312063961Y-49836526D01*
X312112750Y-49953361D01*
X312149837Y-50084018D01*
X312164447Y-50157139D01*
X312175997Y-50242313D01*
X312183805Y-50340171D01*
X312187870Y-50445785D01*
X312188193Y-50554227D01*
X312184774Y-50660569D01*
X312177613Y-50759884D01*
X312166711Y-50847244D01*
X312164399Y-50861051D01*
X312133958Y-50995825D01*
X312092321Y-51116348D01*
X312039433Y-51222687D01*
X311975238Y-51314911D01*
X311899682Y-51393087D01*
X311812709Y-51457282D01*
X311714264Y-51507566D01*
X311610464Y-51542406D01*
X311561932Y-51551909D01*
X311500275Y-51559111D01*
X311430382Y-51563881D01*
X311357140Y-51566084D01*
X311285438Y-51565587D01*
X311220165Y-51562258D01*
X311166208Y-51555964D01*
X311159070Y-51554695D01*
X311044854Y-51525891D01*
X310942477Y-51484594D01*
X310851646Y-51430441D01*
X310772074Y-51363073D01*
X310703468Y-51282127D01*
X310645539Y-51187241D01*
X310597997Y-51078055D01*
X310560552Y-50954206D01*
X310532913Y-50815333D01*
X310525834Y-50765679D01*
X310521405Y-50718572D01*
X310518203Y-50657908D01*
X310516229Y-50588091D01*
X310516052Y-50570338D01*
X310862994Y-50570338D01*
X310864663Y-50644368D01*
X310868255Y-50709776D01*
X310873859Y-50762746D01*
X310874297Y-50765679D01*
X310896218Y-50875545D01*
X310926362Y-50969488D01*
X310965321Y-51048044D01*
X311013685Y-51111750D01*
X311072048Y-51161142D01*
X311140999Y-51196757D01*
X311221131Y-51219131D01*
X311313035Y-51228800D01*
X311384406Y-51228309D01*
X311440397Y-51223751D01*
X311493325Y-51215836D01*
X311534085Y-51206149D01*
X311604481Y-51178111D01*
X311663284Y-51140266D01*
X311711995Y-51090912D01*
X311752115Y-51028346D01*
X311785145Y-50950866D01*
X311799855Y-50904674D01*
X311815384Y-50843188D01*
X311826978Y-50778073D01*
X311834992Y-50705938D01*
X311839778Y-50623394D01*
X311841690Y-50527048D01*
X311841760Y-50502369D01*
X311838698Y-50368556D01*
X311829185Y-50250926D01*
X311812799Y-50148550D01*
X311789119Y-50060502D01*
X311757722Y-49985851D01*
X311718186Y-49923669D01*
X311670090Y-49873029D01*
X311613012Y-49833001D01*
X311546530Y-49802657D01*
X311519750Y-49793784D01*
X311469437Y-49783303D01*
X311407598Y-49777562D01*
X311340205Y-49776501D01*
X311273229Y-49780061D01*
X311212640Y-49788181D01*
X311174915Y-49797249D01*
X311101770Y-49827769D01*
X311039131Y-49871192D01*
X310986409Y-49928264D01*
X310943015Y-49999726D01*
X310908360Y-50086324D01*
X310888396Y-50158854D01*
X310880389Y-50204459D01*
X310873774Y-50264344D01*
X310868638Y-50334690D01*
X310865070Y-50411683D01*
X310863159Y-50491505D01*
X310862994Y-50570338D01*
X310516052Y-50570338D01*
X310515484Y-50513529D01*
X310515969Y-50438630D01*
X310517685Y-50367798D01*
X310520632Y-50305442D01*
X310524813Y-50255968D01*
X310525718Y-50248607D01*
X310550250Y-50104562D01*
X310584094Y-49975862D01*
X310627373Y-49862207D01*
X310680209Y-49763301D01*
X310742724Y-49678844D01*
X310771790Y-49647714D01*
X310810293Y-49609250D01*
X310769972Y-49566072D01*
X310705646Y-49487761D01*
X310651375Y-49400779D01*
X310606665Y-49303714D01*
X310571021Y-49195158D01*
X310543952Y-49073701D01*
X310524962Y-48937932D01*
X310516829Y-48842999D01*
X310513970Y-48764923D01*
X310862486Y-48764923D01*
X310863701Y-48837316D01*
X310866821Y-48900963D01*
X310870926Y-48944282D01*
X310888539Y-49047939D01*
X310913592Y-49140351D01*
X310945426Y-49219597D01*
X310983383Y-49283757D01*
X310990458Y-49293103D01*
X311033743Y-49335681D01*
X311090749Y-49372936D01*
X311157347Y-49402776D01*
X311229406Y-49423113D01*
X311256679Y-49427818D01*
X311310740Y-49432035D01*
X311373929Y-49431650D01*
X311438502Y-49427086D01*
X311496715Y-49418763D01*
X311520417Y-49413481D01*
X311593147Y-49387839D01*
X311654544Y-49351077D01*
X311705824Y-49301865D01*
X311748207Y-49238874D01*
X311782911Y-49160775D01*
X311799894Y-49108396D01*
X311815415Y-49046919D01*
X311827003Y-48981776D01*
X311835010Y-48909580D01*
X311839789Y-48826949D01*
X311841692Y-48730496D01*
X311841760Y-48706226D01*
X311840721Y-48612517D01*
X311837326Y-48532985D01*
X311831208Y-48463775D01*
X311822002Y-48401032D01*
X311809340Y-48340899D01*
X311805567Y-48325725D01*
X311776062Y-48234474D01*
X311737679Y-48158527D01*
X311689568Y-48097241D01*
X311630878Y-48049975D01*
X311560758Y-48016087D01*
X311478359Y-47994934D01*
X311382828Y-47985876D01*
X311354643Y-47985420D01*
X311282977Y-47987438D01*
X311223536Y-47994412D01*
X311170833Y-48007377D01*
X311119380Y-48027364D01*
X311110727Y-48031363D01*
X311048545Y-48070609D01*
X310994397Y-48125629D01*
X310948771Y-48195700D01*
X310912152Y-48280098D01*
X310888660Y-48361750D01*
X310880898Y-48406050D01*
X310874340Y-48464624D01*
X310869103Y-48533634D01*
X310865304Y-48609246D01*
X310863059Y-48687621D01*
X310862486Y-48764923D01*
X310513970Y-48764923D01*
X310512510Y-48725085D01*
X310514833Y-48604565D01*
X310523398Y-48485382D01*
X310537804Y-48371481D01*
X310557650Y-48266807D01*
X310582536Y-48175304D01*
X310585582Y-48166160D01*
X310612708Y-48096259D01*
X310645776Y-48026473D01*
X310681417Y-47963514D01*
X310704332Y-47929481D01*
X310744155Y-47882236D01*
X310794108Y-47833347D01*
X310848474Y-47787821D01*
X310901535Y-47750665D01*
X310922182Y-47738693D01*
X311013908Y-47698480D01*
X311116360Y-47669170D01*
X311225983Y-47650817D01*
X311339224Y-47643476D01*
X311452528Y-47647199D01*
X311452528Y-47647199D01*
G37*
X311452528Y-47647199D02*
X311562340Y-47662043D01*
X311665105Y-47688060D01*
X311757269Y-47725305D01*
X311758524Y-47725935D01*
X311849825Y-47780600D01*
X311929712Y-47847128D01*
X311998430Y-47926004D01*
X312056225Y-48017710D01*
X312103343Y-48122730D01*
X312140032Y-48241547D01*
X312166536Y-48374646D01*
X312183102Y-48522509D01*
X312185918Y-48565284D01*
X312189195Y-48666929D01*
X312188210Y-48774115D01*
X312183231Y-48880877D01*
X312174528Y-48981252D01*
X312163419Y-49063101D01*
X312150257Y-49127333D01*
X312131843Y-49197076D01*
X312109973Y-49266693D01*
X312086442Y-49330549D01*
X312063044Y-49383010D01*
X312059148Y-49390502D01*
X312036707Y-49428643D01*
X312008698Y-49470669D01*
X311978428Y-49512131D01*
X311949201Y-49548584D01*
X311924324Y-49575583D01*
X311916083Y-49582940D01*
X311891679Y-49602647D01*
X311931319Y-49644413D01*
X312003481Y-49733535D01*
X312063961Y-49836526D01*
X312112750Y-49953361D01*
X312149837Y-50084018D01*
X312164447Y-50157139D01*
X312175997Y-50242313D01*
X312183805Y-50340171D01*
X312187870Y-50445785D01*
X312188193Y-50554227D01*
X312184774Y-50660569D01*
X312177613Y-50759884D01*
X312166711Y-50847244D01*
X312164399Y-50861051D01*
X312133958Y-50995825D01*
X312092321Y-51116348D01*
X312039433Y-51222687D01*
X311975238Y-51314911D01*
X311899682Y-51393087D01*
X311812709Y-51457282D01*
X311714264Y-51507566D01*
X311610464Y-51542406D01*
X311561932Y-51551909D01*
X311500275Y-51559111D01*
X311430382Y-51563881D01*
X311357140Y-51566084D01*
X311285438Y-51565587D01*
X311220165Y-51562258D01*
X311166208Y-51555964D01*
X311159070Y-51554695D01*
X311044854Y-51525891D01*
X310942477Y-51484594D01*
X310851646Y-51430441D01*
X310772074Y-51363073D01*
X310703468Y-51282127D01*
X310645539Y-51187241D01*
X310597997Y-51078055D01*
X310560552Y-50954206D01*
X310532913Y-50815333D01*
X310525834Y-50765679D01*
X310521405Y-50718572D01*
X310518203Y-50657908D01*
X310516229Y-50588091D01*
X310516052Y-50570338D01*
X310862994Y-50570338D01*
X310864663Y-50644368D01*
X310868255Y-50709776D01*
X310873859Y-50762746D01*
X310874297Y-50765679D01*
X310896218Y-50875545D01*
X310926362Y-50969488D01*
X310965321Y-51048044D01*
X311013685Y-51111750D01*
X311072048Y-51161142D01*
X311140999Y-51196757D01*
X311221131Y-51219131D01*
X311313035Y-51228800D01*
X311384406Y-51228309D01*
X311440397Y-51223751D01*
X311493325Y-51215836D01*
X311534085Y-51206149D01*
X311604481Y-51178111D01*
X311663284Y-51140266D01*
X311711995Y-51090912D01*
X311752115Y-51028346D01*
X311785145Y-50950866D01*
X311799855Y-50904674D01*
X311815384Y-50843188D01*
X311826978Y-50778073D01*
X311834992Y-50705938D01*
X311839778Y-50623394D01*
X311841690Y-50527048D01*
X311841760Y-50502369D01*
X311838698Y-50368556D01*
X311829185Y-50250926D01*
X311812799Y-50148550D01*
X311789119Y-50060502D01*
X311757722Y-49985851D01*
X311718186Y-49923669D01*
X311670090Y-49873029D01*
X311613012Y-49833001D01*
X311546530Y-49802657D01*
X311519750Y-49793784D01*
X311469437Y-49783303D01*
X311407598Y-49777562D01*
X311340205Y-49776501D01*
X311273229Y-49780061D01*
X311212640Y-49788181D01*
X311174915Y-49797249D01*
X311101770Y-49827769D01*
X311039131Y-49871192D01*
X310986409Y-49928264D01*
X310943015Y-49999726D01*
X310908360Y-50086324D01*
X310888396Y-50158854D01*
X310880389Y-50204459D01*
X310873774Y-50264344D01*
X310868638Y-50334690D01*
X310865070Y-50411683D01*
X310863159Y-50491505D01*
X310862994Y-50570338D01*
X310516052Y-50570338D01*
X310515484Y-50513529D01*
X310515969Y-50438630D01*
X310517685Y-50367798D01*
X310520632Y-50305442D01*
X310524813Y-50255968D01*
X310525718Y-50248607D01*
X310550250Y-50104562D01*
X310584094Y-49975862D01*
X310627373Y-49862207D01*
X310680209Y-49763301D01*
X310742724Y-49678844D01*
X310771790Y-49647714D01*
X310810293Y-49609250D01*
X310769972Y-49566072D01*
X310705646Y-49487761D01*
X310651375Y-49400779D01*
X310606665Y-49303714D01*
X310571021Y-49195158D01*
X310543952Y-49073701D01*
X310524962Y-48937932D01*
X310516829Y-48842999D01*
X310513970Y-48764923D01*
X310862486Y-48764923D01*
X310863701Y-48837316D01*
X310866821Y-48900963D01*
X310870926Y-48944282D01*
X310888539Y-49047939D01*
X310913592Y-49140351D01*
X310945426Y-49219597D01*
X310983383Y-49283757D01*
X310990458Y-49293103D01*
X311033743Y-49335681D01*
X311090749Y-49372936D01*
X311157347Y-49402776D01*
X311229406Y-49423113D01*
X311256679Y-49427818D01*
X311310740Y-49432035D01*
X311373929Y-49431650D01*
X311438502Y-49427086D01*
X311496715Y-49418763D01*
X311520417Y-49413481D01*
X311593147Y-49387839D01*
X311654544Y-49351077D01*
X311705824Y-49301865D01*
X311748207Y-49238874D01*
X311782911Y-49160775D01*
X311799894Y-49108396D01*
X311815415Y-49046919D01*
X311827003Y-48981776D01*
X311835010Y-48909580D01*
X311839789Y-48826949D01*
X311841692Y-48730496D01*
X311841760Y-48706226D01*
X311840721Y-48612517D01*
X311837326Y-48532985D01*
X311831208Y-48463775D01*
X311822002Y-48401032D01*
X311809340Y-48340899D01*
X311805567Y-48325725D01*
X311776062Y-48234474D01*
X311737679Y-48158527D01*
X311689568Y-48097241D01*
X311630878Y-48049975D01*
X311560758Y-48016087D01*
X311478359Y-47994934D01*
X311382828Y-47985876D01*
X311354643Y-47985420D01*
X311282977Y-47987438D01*
X311223536Y-47994412D01*
X311170833Y-48007377D01*
X311119380Y-48027364D01*
X311110727Y-48031363D01*
X311048545Y-48070609D01*
X310994397Y-48125629D01*
X310948771Y-48195700D01*
X310912152Y-48280098D01*
X310888660Y-48361750D01*
X310880898Y-48406050D01*
X310874340Y-48464624D01*
X310869103Y-48533634D01*
X310865304Y-48609246D01*
X310863059Y-48687621D01*
X310862486Y-48764923D01*
X310513970Y-48764923D01*
X310512510Y-48725085D01*
X310514833Y-48604565D01*
X310523398Y-48485382D01*
X310537804Y-48371481D01*
X310557650Y-48266807D01*
X310582536Y-48175304D01*
X310585582Y-48166160D01*
X310612708Y-48096259D01*
X310645776Y-48026473D01*
X310681417Y-47963514D01*
X310704332Y-47929481D01*
X310744155Y-47882236D01*
X310794108Y-47833347D01*
X310848474Y-47787821D01*
X310901535Y-47750665D01*
X310922182Y-47738693D01*
X311013908Y-47698480D01*
X311116360Y-47669170D01*
X311225983Y-47650817D01*
X311339224Y-47643476D01*
X311452528Y-47647199D01*
G36*
X313296670Y-47646936D02*
X313365612Y-47650736D01*
X313427929Y-47656912D01*
X313478714Y-47665365D01*
X313481169Y-47665916D01*
X313598194Y-47700683D01*
X313703488Y-47748945D01*
X313797117Y-47810793D01*
X313879147Y-47886324D01*
X313949644Y-47975629D01*
X314008676Y-48078803D01*
X314056309Y-48195940D01*
X314092608Y-48327134D01*
X314117640Y-48472477D01*
X314128339Y-48580522D01*
X314130184Y-48617016D01*
X314131748Y-48671567D01*
X314133029Y-48744091D01*
X314134027Y-48834506D01*
X314134741Y-48942727D01*
X314135173Y-49068672D01*
X314135319Y-49212256D01*
X314135182Y-49373397D01*
X314134759Y-49552011D01*
X314134227Y-49704321D01*
X314133581Y-49862414D01*
X314132942Y-50003435D01*
X314132290Y-50128459D01*
X314131609Y-50238558D01*
X314130878Y-50334803D01*
X314130079Y-50418269D01*
X314129193Y-50490026D01*
X314128202Y-50551148D01*
X314127086Y-50602707D01*
X314125828Y-50645775D01*
X314124407Y-50681425D01*
X314122806Y-50710730D01*
X314121006Y-50734762D01*
X314118987Y-50754593D01*
X314116732Y-50771296D01*
X314115428Y-50779286D01*
X314090668Y-50901126D01*
X314060705Y-51007799D01*
X314024382Y-51101821D01*
X313980540Y-51185712D01*
X313928021Y-51261990D01*
X313865668Y-51333172D01*
X313856445Y-51342516D01*
X313776611Y-51413160D01*
X313691764Y-51469644D01*
X313600053Y-51512642D01*
X313499626Y-51542824D01*
X313388629Y-51560862D01*
X313265211Y-51567426D01*
X313235862Y-51567394D01*
X313186499Y-51566272D01*
X313137808Y-51564083D01*
X313095969Y-51561163D01*
X313070964Y-51558439D01*
X312971714Y-51536623D01*
X312872716Y-51500898D01*
X312779523Y-51453655D01*
X312698674Y-51398085D01*
X312617189Y-51320834D01*
X312546632Y-51229168D01*
X312486992Y-51123063D01*
X312438257Y-51002496D01*
X312400413Y-50867441D01*
X312384481Y-50788357D01*
X312382611Y-50774379D01*
X312380932Y-50754149D01*
X312379437Y-50726790D01*
X312378115Y-50691424D01*
X312376957Y-50647170D01*
X312375956Y-50593152D01*
X312375101Y-50528490D01*
X312374384Y-50452306D01*
X312373796Y-50363721D01*
X312373328Y-50261857D01*
X312372970Y-50145835D01*
X312372715Y-50014777D01*
X312372553Y-49867804D01*
X312372475Y-49704037D01*
X312372466Y-49617715D01*
X312703339Y-49617715D01*
X312703397Y-49741733D01*
X312703596Y-49864039D01*
X312703936Y-49983105D01*
X312704419Y-50097404D01*
X312705044Y-50205411D01*
X312705811Y-50305598D01*
X312706722Y-50396439D01*
X312707776Y-50476408D01*
X312708973Y-50543977D01*
X312710315Y-50597620D01*
X312711801Y-50635810D01*
X312713031Y-50653592D01*
X312730534Y-50775636D01*
X312757098Y-50882218D01*
X312793051Y-50973776D01*
X312838720Y-51050750D01*
X312894433Y-51113582D01*
X312960518Y-51162709D01*
X313037302Y-51198573D01*
X313125112Y-51221613D01*
X313137821Y-51223763D01*
X313199800Y-51229351D01*
X313269938Y-51228784D01*
X313341229Y-51222586D01*
X313406670Y-51211279D01*
X313444451Y-51200873D01*
X313520711Y-51168185D01*
X313586183Y-51124423D01*
X313641594Y-51068565D01*
X313687671Y-50999590D01*
X313725141Y-50916477D01*
X313754730Y-50818203D01*
X313770712Y-50742242D01*
X313773243Y-50726744D01*
X313775502Y-50709141D01*
X313777509Y-50688316D01*
X313779285Y-50663149D01*
X313780851Y-50632524D01*
X313782228Y-50595323D01*
X313783437Y-50550426D01*
X313784500Y-50496718D01*
X313785437Y-50433078D01*
X313786268Y-50358391D01*
X313787016Y-50271537D01*
X313787701Y-50171399D01*
X313788344Y-50056859D01*
X313788966Y-49926799D01*
X313789589Y-49780100D01*
X313789808Y-49725257D01*
X313790421Y-49548781D01*
X313790782Y-49389445D01*
X313790871Y-49246248D01*
X313790664Y-49118190D01*
X313790141Y-49004269D01*
X313789279Y-48903484D01*
X313788057Y-48814834D01*
X313786453Y-48737319D01*
X313784445Y-48669936D01*
X313782011Y-48611685D01*
X313779130Y-48561565D01*
X313775779Y-48518575D01*
X313771938Y-48481714D01*
X313767584Y-48449980D01*
X313762696Y-48422374D01*
X313761326Y-48415710D01*
X313734128Y-48313582D01*
X313698622Y-48226917D01*
X313653988Y-48154652D01*
X313599404Y-48095724D01*
X313534050Y-48049070D01*
X313457104Y-48013626D01*
X313448414Y-48010545D01*
X313423305Y-48002528D01*
X313399374Y-47996894D01*
X313372676Y-47993256D01*
X313339269Y-47991226D01*
X313295209Y-47990419D01*
X313243322Y-47990416D01*
X313185957Y-47990950D01*
X313142928Y-47992271D01*
X313110433Y-47994771D01*
X313084667Y-47998842D01*
X313061829Y-48004875D01*
X313044475Y-48010869D01*
X312982955Y-48037082D01*
X312932870Y-48067224D01*
X312887518Y-48105624D01*
X312869866Y-48123560D01*
X312820414Y-48187079D01*
X312780088Y-48263751D01*
X312748585Y-48354409D01*
X312725599Y-48459887D01*
X312713530Y-48551558D01*
X312711921Y-48577058D01*
X312710449Y-48619164D01*
X312709115Y-48676349D01*
X312707918Y-48747088D01*
X312706859Y-48829853D01*
X312705938Y-48923118D01*
X312705156Y-49025357D01*
X312704513Y-49135041D01*
X312704010Y-49250646D01*
X312703646Y-49370645D01*
X312703422Y-49493509D01*
X312703339Y-49617715D01*
X312372466Y-49617715D01*
X312372464Y-49609071D01*
X312372458Y-49437467D01*
X312372469Y-49282957D01*
X312372548Y-49144496D01*
X312372742Y-49021034D01*
X312373099Y-48911525D01*
X312373667Y-48814921D01*
X312374496Y-48730174D01*
X312375633Y-48656237D01*
X312377126Y-48592062D01*
X312379025Y-48536601D01*
X312381376Y-48488808D01*
X312384229Y-48447634D01*
X312387631Y-48412032D01*
X312391632Y-48380955D01*
X312396279Y-48353354D01*
X312401620Y-48328182D01*
X312407704Y-48304391D01*
X312414579Y-48280935D01*
X312422294Y-48256765D01*
X312430896Y-48230834D01*
X312436811Y-48213067D01*
X312484087Y-48093367D01*
X312541892Y-47988342D01*
X312610694Y-47897570D01*
X312690964Y-47820627D01*
X312783169Y-47757091D01*
X312887779Y-47706538D01*
X313005263Y-47668546D01*
X313052822Y-47657432D01*
X313099180Y-47650759D01*
X313158546Y-47646850D01*
X313226012Y-47645608D01*
X313296670Y-47646936D01*
X313296670Y-47646936D01*
G37*
X313296670Y-47646936D02*
X313365612Y-47650736D01*
X313427929Y-47656912D01*
X313478714Y-47665365D01*
X313481169Y-47665916D01*
X313598194Y-47700683D01*
X313703488Y-47748945D01*
X313797117Y-47810793D01*
X313879147Y-47886324D01*
X313949644Y-47975629D01*
X314008676Y-48078803D01*
X314056309Y-48195940D01*
X314092608Y-48327134D01*
X314117640Y-48472477D01*
X314128339Y-48580522D01*
X314130184Y-48617016D01*
X314131748Y-48671567D01*
X314133029Y-48744091D01*
X314134027Y-48834506D01*
X314134741Y-48942727D01*
X314135173Y-49068672D01*
X314135319Y-49212256D01*
X314135182Y-49373397D01*
X314134759Y-49552011D01*
X314134227Y-49704321D01*
X314133581Y-49862414D01*
X314132942Y-50003435D01*
X314132290Y-50128459D01*
X314131609Y-50238558D01*
X314130878Y-50334803D01*
X314130079Y-50418269D01*
X314129193Y-50490026D01*
X314128202Y-50551148D01*
X314127086Y-50602707D01*
X314125828Y-50645775D01*
X314124407Y-50681425D01*
X314122806Y-50710730D01*
X314121006Y-50734762D01*
X314118987Y-50754593D01*
X314116732Y-50771296D01*
X314115428Y-50779286D01*
X314090668Y-50901126D01*
X314060705Y-51007799D01*
X314024382Y-51101821D01*
X313980540Y-51185712D01*
X313928021Y-51261990D01*
X313865668Y-51333172D01*
X313856445Y-51342516D01*
X313776611Y-51413160D01*
X313691764Y-51469644D01*
X313600053Y-51512642D01*
X313499626Y-51542824D01*
X313388629Y-51560862D01*
X313265211Y-51567426D01*
X313235862Y-51567394D01*
X313186499Y-51566272D01*
X313137808Y-51564083D01*
X313095969Y-51561163D01*
X313070964Y-51558439D01*
X312971714Y-51536623D01*
X312872716Y-51500898D01*
X312779523Y-51453655D01*
X312698674Y-51398085D01*
X312617189Y-51320834D01*
X312546632Y-51229168D01*
X312486992Y-51123063D01*
X312438257Y-51002496D01*
X312400413Y-50867441D01*
X312384481Y-50788357D01*
X312382611Y-50774379D01*
X312380932Y-50754149D01*
X312379437Y-50726790D01*
X312378115Y-50691424D01*
X312376957Y-50647170D01*
X312375956Y-50593152D01*
X312375101Y-50528490D01*
X312374384Y-50452306D01*
X312373796Y-50363721D01*
X312373328Y-50261857D01*
X312372970Y-50145835D01*
X312372715Y-50014777D01*
X312372553Y-49867804D01*
X312372475Y-49704037D01*
X312372466Y-49617715D01*
X312703339Y-49617715D01*
X312703397Y-49741733D01*
X312703596Y-49864039D01*
X312703936Y-49983105D01*
X312704419Y-50097404D01*
X312705044Y-50205411D01*
X312705811Y-50305598D01*
X312706722Y-50396439D01*
X312707776Y-50476408D01*
X312708973Y-50543977D01*
X312710315Y-50597620D01*
X312711801Y-50635810D01*
X312713031Y-50653592D01*
X312730534Y-50775636D01*
X312757098Y-50882218D01*
X312793051Y-50973776D01*
X312838720Y-51050750D01*
X312894433Y-51113582D01*
X312960518Y-51162709D01*
X313037302Y-51198573D01*
X313125112Y-51221613D01*
X313137821Y-51223763D01*
X313199800Y-51229351D01*
X313269938Y-51228784D01*
X313341229Y-51222586D01*
X313406670Y-51211279D01*
X313444451Y-51200873D01*
X313520711Y-51168185D01*
X313586183Y-51124423D01*
X313641594Y-51068565D01*
X313687671Y-50999590D01*
X313725141Y-50916477D01*
X313754730Y-50818203D01*
X313770712Y-50742242D01*
X313773243Y-50726744D01*
X313775502Y-50709141D01*
X313777509Y-50688316D01*
X313779285Y-50663149D01*
X313780851Y-50632524D01*
X313782228Y-50595323D01*
X313783437Y-50550426D01*
X313784500Y-50496718D01*
X313785437Y-50433078D01*
X313786268Y-50358391D01*
X313787016Y-50271537D01*
X313787701Y-50171399D01*
X313788344Y-50056859D01*
X313788966Y-49926799D01*
X313789589Y-49780100D01*
X313789808Y-49725257D01*
X313790421Y-49548781D01*
X313790782Y-49389445D01*
X313790871Y-49246248D01*
X313790664Y-49118190D01*
X313790141Y-49004269D01*
X313789279Y-48903484D01*
X313788057Y-48814834D01*
X313786453Y-48737319D01*
X313784445Y-48669936D01*
X313782011Y-48611685D01*
X313779130Y-48561565D01*
X313775779Y-48518575D01*
X313771938Y-48481714D01*
X313767584Y-48449980D01*
X313762696Y-48422374D01*
X313761326Y-48415710D01*
X313734128Y-48313582D01*
X313698622Y-48226917D01*
X313653988Y-48154652D01*
X313599404Y-48095724D01*
X313534050Y-48049070D01*
X313457104Y-48013626D01*
X313448414Y-48010545D01*
X313423305Y-48002528D01*
X313399374Y-47996894D01*
X313372676Y-47993256D01*
X313339269Y-47991226D01*
X313295209Y-47990419D01*
X313243322Y-47990416D01*
X313185957Y-47990950D01*
X313142928Y-47992271D01*
X313110433Y-47994771D01*
X313084667Y-47998842D01*
X313061829Y-48004875D01*
X313044475Y-48010869D01*
X312982955Y-48037082D01*
X312932870Y-48067224D01*
X312887518Y-48105624D01*
X312869866Y-48123560D01*
X312820414Y-48187079D01*
X312780088Y-48263751D01*
X312748585Y-48354409D01*
X312725599Y-48459887D01*
X312713530Y-48551558D01*
X312711921Y-48577058D01*
X312710449Y-48619164D01*
X312709115Y-48676349D01*
X312707918Y-48747088D01*
X312706859Y-48829853D01*
X312705938Y-48923118D01*
X312705156Y-49025357D01*
X312704513Y-49135041D01*
X312704010Y-49250646D01*
X312703646Y-49370645D01*
X312703422Y-49493509D01*
X312703339Y-49617715D01*
X312372466Y-49617715D01*
X312372464Y-49609071D01*
X312372458Y-49437467D01*
X312372469Y-49282957D01*
X312372548Y-49144496D01*
X312372742Y-49021034D01*
X312373099Y-48911525D01*
X312373667Y-48814921D01*
X312374496Y-48730174D01*
X312375633Y-48656237D01*
X312377126Y-48592062D01*
X312379025Y-48536601D01*
X312381376Y-48488808D01*
X312384229Y-48447634D01*
X312387631Y-48412032D01*
X312391632Y-48380955D01*
X312396279Y-48353354D01*
X312401620Y-48328182D01*
X312407704Y-48304391D01*
X312414579Y-48280935D01*
X312422294Y-48256765D01*
X312430896Y-48230834D01*
X312436811Y-48213067D01*
X312484087Y-48093367D01*
X312541892Y-47988342D01*
X312610694Y-47897570D01*
X312690964Y-47820627D01*
X312783169Y-47757091D01*
X312887779Y-47706538D01*
X313005263Y-47668546D01*
X313052822Y-47657432D01*
X313099180Y-47650759D01*
X313158546Y-47646850D01*
X313226012Y-47645608D01*
X313296670Y-47646936D01*
G36*
X163452528Y-152647199D02*
X163562340Y-152662043D01*
X163665105Y-152688060D01*
X163757269Y-152725305D01*
X163758524Y-152725935D01*
X163849825Y-152780600D01*
X163929712Y-152847128D01*
X163998430Y-152926004D01*
X164056225Y-153017710D01*
X164103343Y-153122730D01*
X164140032Y-153241547D01*
X164166536Y-153374646D01*
X164183102Y-153522509D01*
X164185918Y-153565284D01*
X164189195Y-153666929D01*
X164188210Y-153774115D01*
X164183231Y-153880877D01*
X164174528Y-153981252D01*
X164163419Y-154063101D01*
X164150257Y-154127333D01*
X164131843Y-154197076D01*
X164109973Y-154266693D01*
X164086442Y-154330549D01*
X164063044Y-154383010D01*
X164059148Y-154390502D01*
X164036707Y-154428643D01*
X164008698Y-154470669D01*
X163978428Y-154512131D01*
X163949201Y-154548584D01*
X163924324Y-154575583D01*
X163916083Y-154582940D01*
X163891679Y-154602647D01*
X163931319Y-154644413D01*
X164003481Y-154733535D01*
X164063961Y-154836526D01*
X164112750Y-154953361D01*
X164149837Y-155084018D01*
X164164447Y-155157139D01*
X164175997Y-155242313D01*
X164183805Y-155340171D01*
X164187870Y-155445785D01*
X164188193Y-155554227D01*
X164184774Y-155660569D01*
X164177613Y-155759884D01*
X164166711Y-155847244D01*
X164164399Y-155861051D01*
X164133958Y-155995825D01*
X164092321Y-156116348D01*
X164039433Y-156222687D01*
X163975238Y-156314911D01*
X163899682Y-156393087D01*
X163812709Y-156457282D01*
X163714264Y-156507566D01*
X163610464Y-156542406D01*
X163561932Y-156551909D01*
X163500275Y-156559111D01*
X163430382Y-156563881D01*
X163357140Y-156566084D01*
X163285438Y-156565587D01*
X163220165Y-156562258D01*
X163166208Y-156555964D01*
X163159070Y-156554695D01*
X163044854Y-156525891D01*
X162942477Y-156484594D01*
X162851646Y-156430441D01*
X162772074Y-156363073D01*
X162703468Y-156282127D01*
X162645539Y-156187241D01*
X162597997Y-156078055D01*
X162560552Y-155954206D01*
X162532913Y-155815333D01*
X162525834Y-155765679D01*
X162521405Y-155718572D01*
X162518203Y-155657908D01*
X162516229Y-155588091D01*
X162516052Y-155570338D01*
X162862994Y-155570338D01*
X162864663Y-155644368D01*
X162868255Y-155709776D01*
X162873859Y-155762746D01*
X162874297Y-155765679D01*
X162896218Y-155875545D01*
X162926362Y-155969488D01*
X162965321Y-156048044D01*
X163013685Y-156111750D01*
X163072048Y-156161142D01*
X163140999Y-156196757D01*
X163221131Y-156219131D01*
X163313035Y-156228800D01*
X163384406Y-156228309D01*
X163440397Y-156223751D01*
X163493325Y-156215836D01*
X163534085Y-156206149D01*
X163604481Y-156178111D01*
X163663284Y-156140266D01*
X163711995Y-156090912D01*
X163752115Y-156028346D01*
X163785145Y-155950866D01*
X163799855Y-155904674D01*
X163815384Y-155843188D01*
X163826978Y-155778073D01*
X163834992Y-155705938D01*
X163839778Y-155623394D01*
X163841690Y-155527048D01*
X163841760Y-155502369D01*
X163838698Y-155368556D01*
X163829185Y-155250926D01*
X163812799Y-155148550D01*
X163789119Y-155060502D01*
X163757722Y-154985851D01*
X163718186Y-154923669D01*
X163670090Y-154873029D01*
X163613012Y-154833001D01*
X163546530Y-154802657D01*
X163519750Y-154793784D01*
X163469437Y-154783303D01*
X163407598Y-154777562D01*
X163340205Y-154776501D01*
X163273229Y-154780061D01*
X163212640Y-154788181D01*
X163174915Y-154797249D01*
X163101770Y-154827769D01*
X163039131Y-154871192D01*
X162986409Y-154928264D01*
X162943015Y-154999726D01*
X162908360Y-155086324D01*
X162888396Y-155158854D01*
X162880389Y-155204459D01*
X162873774Y-155264344D01*
X162868638Y-155334690D01*
X162865070Y-155411683D01*
X162863159Y-155491505D01*
X162862994Y-155570338D01*
X162516052Y-155570338D01*
X162515484Y-155513529D01*
X162515969Y-155438630D01*
X162517685Y-155367798D01*
X162520632Y-155305442D01*
X162524813Y-155255968D01*
X162525718Y-155248607D01*
X162550250Y-155104562D01*
X162584094Y-154975862D01*
X162627373Y-154862207D01*
X162680209Y-154763301D01*
X162742724Y-154678844D01*
X162771790Y-154647714D01*
X162810293Y-154609250D01*
X162769972Y-154566072D01*
X162705646Y-154487761D01*
X162651375Y-154400779D01*
X162606665Y-154303714D01*
X162571021Y-154195158D01*
X162543952Y-154073701D01*
X162524962Y-153937932D01*
X162516829Y-153842999D01*
X162513970Y-153764923D01*
X162862486Y-153764923D01*
X162863701Y-153837316D01*
X162866821Y-153900963D01*
X162870926Y-153944282D01*
X162888539Y-154047939D01*
X162913592Y-154140351D01*
X162945426Y-154219597D01*
X162983383Y-154283757D01*
X162990458Y-154293103D01*
X163033743Y-154335681D01*
X163090749Y-154372936D01*
X163157347Y-154402776D01*
X163229406Y-154423113D01*
X163256679Y-154427818D01*
X163310740Y-154432035D01*
X163373929Y-154431650D01*
X163438502Y-154427086D01*
X163496715Y-154418763D01*
X163520417Y-154413481D01*
X163593147Y-154387839D01*
X163654544Y-154351077D01*
X163705824Y-154301865D01*
X163748207Y-154238874D01*
X163782911Y-154160775D01*
X163799894Y-154108396D01*
X163815415Y-154046919D01*
X163827003Y-153981776D01*
X163835010Y-153909580D01*
X163839789Y-153826949D01*
X163841692Y-153730496D01*
X163841760Y-153706226D01*
X163840721Y-153612517D01*
X163837326Y-153532985D01*
X163831208Y-153463775D01*
X163822002Y-153401032D01*
X163809340Y-153340899D01*
X163805567Y-153325725D01*
X163776062Y-153234474D01*
X163737679Y-153158527D01*
X163689568Y-153097241D01*
X163630878Y-153049975D01*
X163560758Y-153016087D01*
X163478359Y-152994934D01*
X163382828Y-152985876D01*
X163354643Y-152985420D01*
X163282977Y-152987438D01*
X163223536Y-152994412D01*
X163170833Y-153007377D01*
X163119380Y-153027364D01*
X163110727Y-153031363D01*
X163048545Y-153070609D01*
X162994397Y-153125629D01*
X162948771Y-153195700D01*
X162912152Y-153280098D01*
X162888660Y-153361750D01*
X162880898Y-153406050D01*
X162874340Y-153464624D01*
X162869103Y-153533634D01*
X162865304Y-153609246D01*
X162863059Y-153687621D01*
X162862486Y-153764923D01*
X162513970Y-153764923D01*
X162512510Y-153725085D01*
X162514833Y-153604565D01*
X162523398Y-153485382D01*
X162537804Y-153371481D01*
X162557650Y-153266807D01*
X162582536Y-153175304D01*
X162585582Y-153166160D01*
X162612708Y-153096259D01*
X162645776Y-153026473D01*
X162681417Y-152963514D01*
X162704332Y-152929481D01*
X162744155Y-152882236D01*
X162794108Y-152833347D01*
X162848474Y-152787821D01*
X162901535Y-152750665D01*
X162922182Y-152738693D01*
X163013908Y-152698480D01*
X163116360Y-152669170D01*
X163225983Y-152650817D01*
X163339224Y-152643476D01*
X163452528Y-152647199D01*
X163452528Y-152647199D01*
G37*
X163452528Y-152647199D02*
X163562340Y-152662043D01*
X163665105Y-152688060D01*
X163757269Y-152725305D01*
X163758524Y-152725935D01*
X163849825Y-152780600D01*
X163929712Y-152847128D01*
X163998430Y-152926004D01*
X164056225Y-153017710D01*
X164103343Y-153122730D01*
X164140032Y-153241547D01*
X164166536Y-153374646D01*
X164183102Y-153522509D01*
X164185918Y-153565284D01*
X164189195Y-153666929D01*
X164188210Y-153774115D01*
X164183231Y-153880877D01*
X164174528Y-153981252D01*
X164163419Y-154063101D01*
X164150257Y-154127333D01*
X164131843Y-154197076D01*
X164109973Y-154266693D01*
X164086442Y-154330549D01*
X164063044Y-154383010D01*
X164059148Y-154390502D01*
X164036707Y-154428643D01*
X164008698Y-154470669D01*
X163978428Y-154512131D01*
X163949201Y-154548584D01*
X163924324Y-154575583D01*
X163916083Y-154582940D01*
X163891679Y-154602647D01*
X163931319Y-154644413D01*
X164003481Y-154733535D01*
X164063961Y-154836526D01*
X164112750Y-154953361D01*
X164149837Y-155084018D01*
X164164447Y-155157139D01*
X164175997Y-155242313D01*
X164183805Y-155340171D01*
X164187870Y-155445785D01*
X164188193Y-155554227D01*
X164184774Y-155660569D01*
X164177613Y-155759884D01*
X164166711Y-155847244D01*
X164164399Y-155861051D01*
X164133958Y-155995825D01*
X164092321Y-156116348D01*
X164039433Y-156222687D01*
X163975238Y-156314911D01*
X163899682Y-156393087D01*
X163812709Y-156457282D01*
X163714264Y-156507566D01*
X163610464Y-156542406D01*
X163561932Y-156551909D01*
X163500275Y-156559111D01*
X163430382Y-156563881D01*
X163357140Y-156566084D01*
X163285438Y-156565587D01*
X163220165Y-156562258D01*
X163166208Y-156555964D01*
X163159070Y-156554695D01*
X163044854Y-156525891D01*
X162942477Y-156484594D01*
X162851646Y-156430441D01*
X162772074Y-156363073D01*
X162703468Y-156282127D01*
X162645539Y-156187241D01*
X162597997Y-156078055D01*
X162560552Y-155954206D01*
X162532913Y-155815333D01*
X162525834Y-155765679D01*
X162521405Y-155718572D01*
X162518203Y-155657908D01*
X162516229Y-155588091D01*
X162516052Y-155570338D01*
X162862994Y-155570338D01*
X162864663Y-155644368D01*
X162868255Y-155709776D01*
X162873859Y-155762746D01*
X162874297Y-155765679D01*
X162896218Y-155875545D01*
X162926362Y-155969488D01*
X162965321Y-156048044D01*
X163013685Y-156111750D01*
X163072048Y-156161142D01*
X163140999Y-156196757D01*
X163221131Y-156219131D01*
X163313035Y-156228800D01*
X163384406Y-156228309D01*
X163440397Y-156223751D01*
X163493325Y-156215836D01*
X163534085Y-156206149D01*
X163604481Y-156178111D01*
X163663284Y-156140266D01*
X163711995Y-156090912D01*
X163752115Y-156028346D01*
X163785145Y-155950866D01*
X163799855Y-155904674D01*
X163815384Y-155843188D01*
X163826978Y-155778073D01*
X163834992Y-155705938D01*
X163839778Y-155623394D01*
X163841690Y-155527048D01*
X163841760Y-155502369D01*
X163838698Y-155368556D01*
X163829185Y-155250926D01*
X163812799Y-155148550D01*
X163789119Y-155060502D01*
X163757722Y-154985851D01*
X163718186Y-154923669D01*
X163670090Y-154873029D01*
X163613012Y-154833001D01*
X163546530Y-154802657D01*
X163519750Y-154793784D01*
X163469437Y-154783303D01*
X163407598Y-154777562D01*
X163340205Y-154776501D01*
X163273229Y-154780061D01*
X163212640Y-154788181D01*
X163174915Y-154797249D01*
X163101770Y-154827769D01*
X163039131Y-154871192D01*
X162986409Y-154928264D01*
X162943015Y-154999726D01*
X162908360Y-155086324D01*
X162888396Y-155158854D01*
X162880389Y-155204459D01*
X162873774Y-155264344D01*
X162868638Y-155334690D01*
X162865070Y-155411683D01*
X162863159Y-155491505D01*
X162862994Y-155570338D01*
X162516052Y-155570338D01*
X162515484Y-155513529D01*
X162515969Y-155438630D01*
X162517685Y-155367798D01*
X162520632Y-155305442D01*
X162524813Y-155255968D01*
X162525718Y-155248607D01*
X162550250Y-155104562D01*
X162584094Y-154975862D01*
X162627373Y-154862207D01*
X162680209Y-154763301D01*
X162742724Y-154678844D01*
X162771790Y-154647714D01*
X162810293Y-154609250D01*
X162769972Y-154566072D01*
X162705646Y-154487761D01*
X162651375Y-154400779D01*
X162606665Y-154303714D01*
X162571021Y-154195158D01*
X162543952Y-154073701D01*
X162524962Y-153937932D01*
X162516829Y-153842999D01*
X162513970Y-153764923D01*
X162862486Y-153764923D01*
X162863701Y-153837316D01*
X162866821Y-153900963D01*
X162870926Y-153944282D01*
X162888539Y-154047939D01*
X162913592Y-154140351D01*
X162945426Y-154219597D01*
X162983383Y-154283757D01*
X162990458Y-154293103D01*
X163033743Y-154335681D01*
X163090749Y-154372936D01*
X163157347Y-154402776D01*
X163229406Y-154423113D01*
X163256679Y-154427818D01*
X163310740Y-154432035D01*
X163373929Y-154431650D01*
X163438502Y-154427086D01*
X163496715Y-154418763D01*
X163520417Y-154413481D01*
X163593147Y-154387839D01*
X163654544Y-154351077D01*
X163705824Y-154301865D01*
X163748207Y-154238874D01*
X163782911Y-154160775D01*
X163799894Y-154108396D01*
X163815415Y-154046919D01*
X163827003Y-153981776D01*
X163835010Y-153909580D01*
X163839789Y-153826949D01*
X163841692Y-153730496D01*
X163841760Y-153706226D01*
X163840721Y-153612517D01*
X163837326Y-153532985D01*
X163831208Y-153463775D01*
X163822002Y-153401032D01*
X163809340Y-153340899D01*
X163805567Y-153325725D01*
X163776062Y-153234474D01*
X163737679Y-153158527D01*
X163689568Y-153097241D01*
X163630878Y-153049975D01*
X163560758Y-153016087D01*
X163478359Y-152994934D01*
X163382828Y-152985876D01*
X163354643Y-152985420D01*
X163282977Y-152987438D01*
X163223536Y-152994412D01*
X163170833Y-153007377D01*
X163119380Y-153027364D01*
X163110727Y-153031363D01*
X163048545Y-153070609D01*
X162994397Y-153125629D01*
X162948771Y-153195700D01*
X162912152Y-153280098D01*
X162888660Y-153361750D01*
X162880898Y-153406050D01*
X162874340Y-153464624D01*
X162869103Y-153533634D01*
X162865304Y-153609246D01*
X162863059Y-153687621D01*
X162862486Y-153764923D01*
X162513970Y-153764923D01*
X162512510Y-153725085D01*
X162514833Y-153604565D01*
X162523398Y-153485382D01*
X162537804Y-153371481D01*
X162557650Y-153266807D01*
X162582536Y-153175304D01*
X162585582Y-153166160D01*
X162612708Y-153096259D01*
X162645776Y-153026473D01*
X162681417Y-152963514D01*
X162704332Y-152929481D01*
X162744155Y-152882236D01*
X162794108Y-152833347D01*
X162848474Y-152787821D01*
X162901535Y-152750665D01*
X162922182Y-152738693D01*
X163013908Y-152698480D01*
X163116360Y-152669170D01*
X163225983Y-152650817D01*
X163339224Y-152643476D01*
X163452528Y-152647199D01*
G36*
X165296670Y-152646936D02*
X165365612Y-152650736D01*
X165427929Y-152656912D01*
X165478714Y-152665365D01*
X165481169Y-152665916D01*
X165598194Y-152700683D01*
X165703488Y-152748945D01*
X165797117Y-152810793D01*
X165879147Y-152886324D01*
X165949644Y-152975629D01*
X166008676Y-153078803D01*
X166056309Y-153195940D01*
X166092608Y-153327134D01*
X166117640Y-153472477D01*
X166128339Y-153580522D01*
X166130184Y-153617016D01*
X166131748Y-153671567D01*
X166133029Y-153744091D01*
X166134027Y-153834506D01*
X166134741Y-153942727D01*
X166135173Y-154068672D01*
X166135319Y-154212256D01*
X166135182Y-154373397D01*
X166134759Y-154552011D01*
X166134227Y-154704321D01*
X166133581Y-154862414D01*
X166132942Y-155003435D01*
X166132290Y-155128459D01*
X166131609Y-155238558D01*
X166130878Y-155334803D01*
X166130079Y-155418269D01*
X166129193Y-155490026D01*
X166128202Y-155551148D01*
X166127086Y-155602707D01*
X166125828Y-155645775D01*
X166124407Y-155681425D01*
X166122806Y-155710730D01*
X166121006Y-155734762D01*
X166118987Y-155754593D01*
X166116732Y-155771296D01*
X166115428Y-155779286D01*
X166090668Y-155901126D01*
X166060705Y-156007799D01*
X166024382Y-156101821D01*
X165980540Y-156185712D01*
X165928021Y-156261990D01*
X165865668Y-156333172D01*
X165856445Y-156342516D01*
X165776611Y-156413160D01*
X165691764Y-156469644D01*
X165600053Y-156512642D01*
X165499626Y-156542824D01*
X165388629Y-156560862D01*
X165265211Y-156567426D01*
X165235862Y-156567394D01*
X165186499Y-156566272D01*
X165137808Y-156564083D01*
X165095969Y-156561163D01*
X165070964Y-156558439D01*
X164971714Y-156536623D01*
X164872716Y-156500898D01*
X164779523Y-156453655D01*
X164698674Y-156398085D01*
X164617189Y-156320834D01*
X164546632Y-156229168D01*
X164486992Y-156123063D01*
X164438257Y-156002496D01*
X164400413Y-155867441D01*
X164384481Y-155788357D01*
X164382611Y-155774379D01*
X164380932Y-155754149D01*
X164379437Y-155726790D01*
X164378115Y-155691424D01*
X164376957Y-155647170D01*
X164375956Y-155593152D01*
X164375101Y-155528490D01*
X164374384Y-155452306D01*
X164373796Y-155363721D01*
X164373328Y-155261857D01*
X164372970Y-155145835D01*
X164372715Y-155014777D01*
X164372553Y-154867804D01*
X164372475Y-154704037D01*
X164372466Y-154617715D01*
X164703339Y-154617715D01*
X164703397Y-154741733D01*
X164703596Y-154864039D01*
X164703936Y-154983105D01*
X164704419Y-155097404D01*
X164705044Y-155205411D01*
X164705811Y-155305598D01*
X164706722Y-155396439D01*
X164707776Y-155476408D01*
X164708973Y-155543977D01*
X164710315Y-155597620D01*
X164711801Y-155635810D01*
X164713031Y-155653592D01*
X164730534Y-155775636D01*
X164757098Y-155882218D01*
X164793051Y-155973776D01*
X164838720Y-156050750D01*
X164894433Y-156113582D01*
X164960518Y-156162709D01*
X165037302Y-156198573D01*
X165125112Y-156221613D01*
X165137821Y-156223763D01*
X165199800Y-156229351D01*
X165269938Y-156228784D01*
X165341229Y-156222586D01*
X165406670Y-156211279D01*
X165444451Y-156200873D01*
X165520711Y-156168185D01*
X165586183Y-156124423D01*
X165641594Y-156068565D01*
X165687671Y-155999590D01*
X165725141Y-155916477D01*
X165754730Y-155818203D01*
X165770712Y-155742242D01*
X165773243Y-155726744D01*
X165775502Y-155709141D01*
X165777509Y-155688316D01*
X165779285Y-155663149D01*
X165780851Y-155632524D01*
X165782228Y-155595323D01*
X165783437Y-155550426D01*
X165784500Y-155496718D01*
X165785437Y-155433078D01*
X165786268Y-155358391D01*
X165787016Y-155271537D01*
X165787701Y-155171399D01*
X165788344Y-155056859D01*
X165788966Y-154926799D01*
X165789589Y-154780100D01*
X165789808Y-154725257D01*
X165790421Y-154548781D01*
X165790782Y-154389445D01*
X165790871Y-154246248D01*
X165790664Y-154118190D01*
X165790141Y-154004269D01*
X165789279Y-153903484D01*
X165788057Y-153814834D01*
X165786453Y-153737319D01*
X165784445Y-153669936D01*
X165782011Y-153611685D01*
X165779130Y-153561565D01*
X165775779Y-153518575D01*
X165771938Y-153481714D01*
X165767584Y-153449980D01*
X165762696Y-153422374D01*
X165761326Y-153415710D01*
X165734128Y-153313582D01*
X165698622Y-153226917D01*
X165653988Y-153154652D01*
X165599404Y-153095724D01*
X165534050Y-153049070D01*
X165457104Y-153013626D01*
X165448414Y-153010545D01*
X165423305Y-153002528D01*
X165399374Y-152996894D01*
X165372676Y-152993256D01*
X165339269Y-152991226D01*
X165295209Y-152990419D01*
X165243322Y-152990416D01*
X165185957Y-152990950D01*
X165142928Y-152992271D01*
X165110433Y-152994771D01*
X165084667Y-152998842D01*
X165061829Y-153004875D01*
X165044475Y-153010869D01*
X164982955Y-153037082D01*
X164932870Y-153067224D01*
X164887518Y-153105624D01*
X164869866Y-153123560D01*
X164820414Y-153187079D01*
X164780088Y-153263751D01*
X164748585Y-153354409D01*
X164725599Y-153459887D01*
X164713530Y-153551558D01*
X164711921Y-153577058D01*
X164710449Y-153619164D01*
X164709115Y-153676349D01*
X164707918Y-153747088D01*
X164706859Y-153829853D01*
X164705938Y-153923118D01*
X164705156Y-154025357D01*
X164704513Y-154135041D01*
X164704010Y-154250646D01*
X164703646Y-154370645D01*
X164703422Y-154493509D01*
X164703339Y-154617715D01*
X164372466Y-154617715D01*
X164372464Y-154609071D01*
X164372458Y-154437467D01*
X164372469Y-154282957D01*
X164372548Y-154144496D01*
X164372742Y-154021034D01*
X164373099Y-153911525D01*
X164373667Y-153814921D01*
X164374496Y-153730174D01*
X164375633Y-153656237D01*
X164377126Y-153592062D01*
X164379025Y-153536601D01*
X164381376Y-153488808D01*
X164384229Y-153447634D01*
X164387631Y-153412032D01*
X164391632Y-153380955D01*
X164396279Y-153353354D01*
X164401620Y-153328182D01*
X164407704Y-153304391D01*
X164414579Y-153280935D01*
X164422294Y-153256765D01*
X164430896Y-153230834D01*
X164436811Y-153213067D01*
X164484087Y-153093367D01*
X164541892Y-152988342D01*
X164610694Y-152897570D01*
X164690964Y-152820627D01*
X164783169Y-152757091D01*
X164887779Y-152706538D01*
X165005263Y-152668546D01*
X165052822Y-152657432D01*
X165099180Y-152650759D01*
X165158546Y-152646850D01*
X165226012Y-152645608D01*
X165296670Y-152646936D01*
X165296670Y-152646936D01*
G37*
X165296670Y-152646936D02*
X165365612Y-152650736D01*
X165427929Y-152656912D01*
X165478714Y-152665365D01*
X165481169Y-152665916D01*
X165598194Y-152700683D01*
X165703488Y-152748945D01*
X165797117Y-152810793D01*
X165879147Y-152886324D01*
X165949644Y-152975629D01*
X166008676Y-153078803D01*
X166056309Y-153195940D01*
X166092608Y-153327134D01*
X166117640Y-153472477D01*
X166128339Y-153580522D01*
X166130184Y-153617016D01*
X166131748Y-153671567D01*
X166133029Y-153744091D01*
X166134027Y-153834506D01*
X166134741Y-153942727D01*
X166135173Y-154068672D01*
X166135319Y-154212256D01*
X166135182Y-154373397D01*
X166134759Y-154552011D01*
X166134227Y-154704321D01*
X166133581Y-154862414D01*
X166132942Y-155003435D01*
X166132290Y-155128459D01*
X166131609Y-155238558D01*
X166130878Y-155334803D01*
X166130079Y-155418269D01*
X166129193Y-155490026D01*
X166128202Y-155551148D01*
X166127086Y-155602707D01*
X166125828Y-155645775D01*
X166124407Y-155681425D01*
X166122806Y-155710730D01*
X166121006Y-155734762D01*
X166118987Y-155754593D01*
X166116732Y-155771296D01*
X166115428Y-155779286D01*
X166090668Y-155901126D01*
X166060705Y-156007799D01*
X166024382Y-156101821D01*
X165980540Y-156185712D01*
X165928021Y-156261990D01*
X165865668Y-156333172D01*
X165856445Y-156342516D01*
X165776611Y-156413160D01*
X165691764Y-156469644D01*
X165600053Y-156512642D01*
X165499626Y-156542824D01*
X165388629Y-156560862D01*
X165265211Y-156567426D01*
X165235862Y-156567394D01*
X165186499Y-156566272D01*
X165137808Y-156564083D01*
X165095969Y-156561163D01*
X165070964Y-156558439D01*
X164971714Y-156536623D01*
X164872716Y-156500898D01*
X164779523Y-156453655D01*
X164698674Y-156398085D01*
X164617189Y-156320834D01*
X164546632Y-156229168D01*
X164486992Y-156123063D01*
X164438257Y-156002496D01*
X164400413Y-155867441D01*
X164384481Y-155788357D01*
X164382611Y-155774379D01*
X164380932Y-155754149D01*
X164379437Y-155726790D01*
X164378115Y-155691424D01*
X164376957Y-155647170D01*
X164375956Y-155593152D01*
X164375101Y-155528490D01*
X164374384Y-155452306D01*
X164373796Y-155363721D01*
X164373328Y-155261857D01*
X164372970Y-155145835D01*
X164372715Y-155014777D01*
X164372553Y-154867804D01*
X164372475Y-154704037D01*
X164372466Y-154617715D01*
X164703339Y-154617715D01*
X164703397Y-154741733D01*
X164703596Y-154864039D01*
X164703936Y-154983105D01*
X164704419Y-155097404D01*
X164705044Y-155205411D01*
X164705811Y-155305598D01*
X164706722Y-155396439D01*
X164707776Y-155476408D01*
X164708973Y-155543977D01*
X164710315Y-155597620D01*
X164711801Y-155635810D01*
X164713031Y-155653592D01*
X164730534Y-155775636D01*
X164757098Y-155882218D01*
X164793051Y-155973776D01*
X164838720Y-156050750D01*
X164894433Y-156113582D01*
X164960518Y-156162709D01*
X165037302Y-156198573D01*
X165125112Y-156221613D01*
X165137821Y-156223763D01*
X165199800Y-156229351D01*
X165269938Y-156228784D01*
X165341229Y-156222586D01*
X165406670Y-156211279D01*
X165444451Y-156200873D01*
X165520711Y-156168185D01*
X165586183Y-156124423D01*
X165641594Y-156068565D01*
X165687671Y-155999590D01*
X165725141Y-155916477D01*
X165754730Y-155818203D01*
X165770712Y-155742242D01*
X165773243Y-155726744D01*
X165775502Y-155709141D01*
X165777509Y-155688316D01*
X165779285Y-155663149D01*
X165780851Y-155632524D01*
X165782228Y-155595323D01*
X165783437Y-155550426D01*
X165784500Y-155496718D01*
X165785437Y-155433078D01*
X165786268Y-155358391D01*
X165787016Y-155271537D01*
X165787701Y-155171399D01*
X165788344Y-155056859D01*
X165788966Y-154926799D01*
X165789589Y-154780100D01*
X165789808Y-154725257D01*
X165790421Y-154548781D01*
X165790782Y-154389445D01*
X165790871Y-154246248D01*
X165790664Y-154118190D01*
X165790141Y-154004269D01*
X165789279Y-153903484D01*
X165788057Y-153814834D01*
X165786453Y-153737319D01*
X165784445Y-153669936D01*
X165782011Y-153611685D01*
X165779130Y-153561565D01*
X165775779Y-153518575D01*
X165771938Y-153481714D01*
X165767584Y-153449980D01*
X165762696Y-153422374D01*
X165761326Y-153415710D01*
X165734128Y-153313582D01*
X165698622Y-153226917D01*
X165653988Y-153154652D01*
X165599404Y-153095724D01*
X165534050Y-153049070D01*
X165457104Y-153013626D01*
X165448414Y-153010545D01*
X165423305Y-153002528D01*
X165399374Y-152996894D01*
X165372676Y-152993256D01*
X165339269Y-152991226D01*
X165295209Y-152990419D01*
X165243322Y-152990416D01*
X165185957Y-152990950D01*
X165142928Y-152992271D01*
X165110433Y-152994771D01*
X165084667Y-152998842D01*
X165061829Y-153004875D01*
X165044475Y-153010869D01*
X164982955Y-153037082D01*
X164932870Y-153067224D01*
X164887518Y-153105624D01*
X164869866Y-153123560D01*
X164820414Y-153187079D01*
X164780088Y-153263751D01*
X164748585Y-153354409D01*
X164725599Y-153459887D01*
X164713530Y-153551558D01*
X164711921Y-153577058D01*
X164710449Y-153619164D01*
X164709115Y-153676349D01*
X164707918Y-153747088D01*
X164706859Y-153829853D01*
X164705938Y-153923118D01*
X164705156Y-154025357D01*
X164704513Y-154135041D01*
X164704010Y-154250646D01*
X164703646Y-154370645D01*
X164703422Y-154493509D01*
X164703339Y-154617715D01*
X164372466Y-154617715D01*
X164372464Y-154609071D01*
X164372458Y-154437467D01*
X164372469Y-154282957D01*
X164372548Y-154144496D01*
X164372742Y-154021034D01*
X164373099Y-153911525D01*
X164373667Y-153814921D01*
X164374496Y-153730174D01*
X164375633Y-153656237D01*
X164377126Y-153592062D01*
X164379025Y-153536601D01*
X164381376Y-153488808D01*
X164384229Y-153447634D01*
X164387631Y-153412032D01*
X164391632Y-153380955D01*
X164396279Y-153353354D01*
X164401620Y-153328182D01*
X164407704Y-153304391D01*
X164414579Y-153280935D01*
X164422294Y-153256765D01*
X164430896Y-153230834D01*
X164436811Y-153213067D01*
X164484087Y-153093367D01*
X164541892Y-152988342D01*
X164610694Y-152897570D01*
X164690964Y-152820627D01*
X164783169Y-152757091D01*
X164887779Y-152706538D01*
X165005263Y-152668546D01*
X165052822Y-152657432D01*
X165099180Y-152650759D01*
X165158546Y-152646850D01*
X165226012Y-152645608D01*
X165296670Y-152646936D01*
G36*
X163452528Y-47647199D02*
X163562340Y-47662043D01*
X163665105Y-47688060D01*
X163757269Y-47725305D01*
X163758524Y-47725935D01*
X163849825Y-47780600D01*
X163929712Y-47847128D01*
X163998430Y-47926004D01*
X164056225Y-48017710D01*
X164103343Y-48122730D01*
X164140032Y-48241547D01*
X164166536Y-48374646D01*
X164183102Y-48522509D01*
X164185918Y-48565284D01*
X164189195Y-48666929D01*
X164188210Y-48774115D01*
X164183231Y-48880877D01*
X164174528Y-48981252D01*
X164163419Y-49063101D01*
X164150257Y-49127333D01*
X164131843Y-49197076D01*
X164109973Y-49266693D01*
X164086442Y-49330549D01*
X164063044Y-49383010D01*
X164059148Y-49390502D01*
X164036707Y-49428643D01*
X164008698Y-49470669D01*
X163978428Y-49512131D01*
X163949201Y-49548584D01*
X163924324Y-49575583D01*
X163916083Y-49582940D01*
X163891679Y-49602647D01*
X163931319Y-49644413D01*
X164003481Y-49733535D01*
X164063961Y-49836526D01*
X164112750Y-49953361D01*
X164149837Y-50084018D01*
X164164447Y-50157139D01*
X164175997Y-50242313D01*
X164183805Y-50340171D01*
X164187870Y-50445785D01*
X164188193Y-50554227D01*
X164184774Y-50660569D01*
X164177613Y-50759884D01*
X164166711Y-50847244D01*
X164164399Y-50861051D01*
X164133958Y-50995825D01*
X164092321Y-51116348D01*
X164039433Y-51222687D01*
X163975238Y-51314911D01*
X163899682Y-51393087D01*
X163812709Y-51457282D01*
X163714264Y-51507566D01*
X163610464Y-51542406D01*
X163561932Y-51551909D01*
X163500275Y-51559111D01*
X163430382Y-51563881D01*
X163357140Y-51566084D01*
X163285438Y-51565587D01*
X163220165Y-51562258D01*
X163166208Y-51555964D01*
X163159070Y-51554695D01*
X163044854Y-51525891D01*
X162942477Y-51484594D01*
X162851646Y-51430441D01*
X162772074Y-51363073D01*
X162703468Y-51282127D01*
X162645539Y-51187241D01*
X162597997Y-51078055D01*
X162560552Y-50954206D01*
X162532913Y-50815333D01*
X162525834Y-50765679D01*
X162521405Y-50718572D01*
X162518203Y-50657908D01*
X162516229Y-50588091D01*
X162516052Y-50570338D01*
X162862994Y-50570338D01*
X162864663Y-50644368D01*
X162868255Y-50709776D01*
X162873859Y-50762746D01*
X162874297Y-50765679D01*
X162896218Y-50875545D01*
X162926362Y-50969488D01*
X162965321Y-51048044D01*
X163013685Y-51111750D01*
X163072048Y-51161142D01*
X163140999Y-51196757D01*
X163221131Y-51219131D01*
X163313035Y-51228800D01*
X163384406Y-51228309D01*
X163440397Y-51223751D01*
X163493325Y-51215836D01*
X163534085Y-51206149D01*
X163604481Y-51178111D01*
X163663284Y-51140266D01*
X163711995Y-51090912D01*
X163752115Y-51028346D01*
X163785145Y-50950866D01*
X163799855Y-50904674D01*
X163815384Y-50843188D01*
X163826978Y-50778073D01*
X163834992Y-50705938D01*
X163839778Y-50623394D01*
X163841690Y-50527048D01*
X163841760Y-50502369D01*
X163838698Y-50368556D01*
X163829185Y-50250926D01*
X163812799Y-50148550D01*
X163789119Y-50060502D01*
X163757722Y-49985851D01*
X163718186Y-49923669D01*
X163670090Y-49873029D01*
X163613012Y-49833001D01*
X163546530Y-49802657D01*
X163519750Y-49793784D01*
X163469437Y-49783303D01*
X163407598Y-49777562D01*
X163340205Y-49776501D01*
X163273229Y-49780061D01*
X163212640Y-49788181D01*
X163174915Y-49797249D01*
X163101770Y-49827769D01*
X163039131Y-49871192D01*
X162986409Y-49928264D01*
X162943015Y-49999726D01*
X162908360Y-50086324D01*
X162888396Y-50158854D01*
X162880389Y-50204459D01*
X162873774Y-50264344D01*
X162868638Y-50334690D01*
X162865070Y-50411683D01*
X162863159Y-50491505D01*
X162862994Y-50570338D01*
X162516052Y-50570338D01*
X162515484Y-50513529D01*
X162515969Y-50438630D01*
X162517685Y-50367798D01*
X162520632Y-50305442D01*
X162524813Y-50255968D01*
X162525718Y-50248607D01*
X162550250Y-50104562D01*
X162584094Y-49975862D01*
X162627373Y-49862207D01*
X162680209Y-49763301D01*
X162742724Y-49678844D01*
X162771790Y-49647714D01*
X162810293Y-49609250D01*
X162769972Y-49566072D01*
X162705646Y-49487761D01*
X162651375Y-49400779D01*
X162606665Y-49303714D01*
X162571021Y-49195158D01*
X162543952Y-49073701D01*
X162524962Y-48937932D01*
X162516829Y-48842999D01*
X162513970Y-48764923D01*
X162862486Y-48764923D01*
X162863701Y-48837316D01*
X162866821Y-48900963D01*
X162870926Y-48944282D01*
X162888539Y-49047939D01*
X162913592Y-49140351D01*
X162945426Y-49219597D01*
X162983383Y-49283757D01*
X162990458Y-49293103D01*
X163033743Y-49335681D01*
X163090749Y-49372936D01*
X163157347Y-49402776D01*
X163229406Y-49423113D01*
X163256679Y-49427818D01*
X163310740Y-49432035D01*
X163373929Y-49431650D01*
X163438502Y-49427086D01*
X163496715Y-49418763D01*
X163520417Y-49413481D01*
X163593147Y-49387839D01*
X163654544Y-49351077D01*
X163705824Y-49301865D01*
X163748207Y-49238874D01*
X163782911Y-49160775D01*
X163799894Y-49108396D01*
X163815415Y-49046919D01*
X163827003Y-48981776D01*
X163835010Y-48909580D01*
X163839789Y-48826949D01*
X163841692Y-48730496D01*
X163841760Y-48706226D01*
X163840721Y-48612517D01*
X163837326Y-48532985D01*
X163831208Y-48463775D01*
X163822002Y-48401032D01*
X163809340Y-48340899D01*
X163805567Y-48325725D01*
X163776062Y-48234474D01*
X163737679Y-48158527D01*
X163689568Y-48097241D01*
X163630878Y-48049975D01*
X163560758Y-48016087D01*
X163478359Y-47994934D01*
X163382828Y-47985876D01*
X163354643Y-47985420D01*
X163282977Y-47987438D01*
X163223536Y-47994412D01*
X163170833Y-48007377D01*
X163119380Y-48027364D01*
X163110727Y-48031363D01*
X163048545Y-48070609D01*
X162994397Y-48125629D01*
X162948771Y-48195700D01*
X162912152Y-48280098D01*
X162888660Y-48361750D01*
X162880898Y-48406050D01*
X162874340Y-48464624D01*
X162869103Y-48533634D01*
X162865304Y-48609246D01*
X162863059Y-48687621D01*
X162862486Y-48764923D01*
X162513970Y-48764923D01*
X162512510Y-48725085D01*
X162514833Y-48604565D01*
X162523398Y-48485382D01*
X162537804Y-48371481D01*
X162557650Y-48266807D01*
X162582536Y-48175304D01*
X162585582Y-48166160D01*
X162612708Y-48096259D01*
X162645776Y-48026473D01*
X162681417Y-47963514D01*
X162704332Y-47929481D01*
X162744155Y-47882236D01*
X162794108Y-47833347D01*
X162848474Y-47787821D01*
X162901535Y-47750665D01*
X162922182Y-47738693D01*
X163013908Y-47698480D01*
X163116360Y-47669170D01*
X163225983Y-47650817D01*
X163339224Y-47643476D01*
X163452528Y-47647199D01*
X163452528Y-47647199D01*
G37*
X163452528Y-47647199D02*
X163562340Y-47662043D01*
X163665105Y-47688060D01*
X163757269Y-47725305D01*
X163758524Y-47725935D01*
X163849825Y-47780600D01*
X163929712Y-47847128D01*
X163998430Y-47926004D01*
X164056225Y-48017710D01*
X164103343Y-48122730D01*
X164140032Y-48241547D01*
X164166536Y-48374646D01*
X164183102Y-48522509D01*
X164185918Y-48565284D01*
X164189195Y-48666929D01*
X164188210Y-48774115D01*
X164183231Y-48880877D01*
X164174528Y-48981252D01*
X164163419Y-49063101D01*
X164150257Y-49127333D01*
X164131843Y-49197076D01*
X164109973Y-49266693D01*
X164086442Y-49330549D01*
X164063044Y-49383010D01*
X164059148Y-49390502D01*
X164036707Y-49428643D01*
X164008698Y-49470669D01*
X163978428Y-49512131D01*
X163949201Y-49548584D01*
X163924324Y-49575583D01*
X163916083Y-49582940D01*
X163891679Y-49602647D01*
X163931319Y-49644413D01*
X164003481Y-49733535D01*
X164063961Y-49836526D01*
X164112750Y-49953361D01*
X164149837Y-50084018D01*
X164164447Y-50157139D01*
X164175997Y-50242313D01*
X164183805Y-50340171D01*
X164187870Y-50445785D01*
X164188193Y-50554227D01*
X164184774Y-50660569D01*
X164177613Y-50759884D01*
X164166711Y-50847244D01*
X164164399Y-50861051D01*
X164133958Y-50995825D01*
X164092321Y-51116348D01*
X164039433Y-51222687D01*
X163975238Y-51314911D01*
X163899682Y-51393087D01*
X163812709Y-51457282D01*
X163714264Y-51507566D01*
X163610464Y-51542406D01*
X163561932Y-51551909D01*
X163500275Y-51559111D01*
X163430382Y-51563881D01*
X163357140Y-51566084D01*
X163285438Y-51565587D01*
X163220165Y-51562258D01*
X163166208Y-51555964D01*
X163159070Y-51554695D01*
X163044854Y-51525891D01*
X162942477Y-51484594D01*
X162851646Y-51430441D01*
X162772074Y-51363073D01*
X162703468Y-51282127D01*
X162645539Y-51187241D01*
X162597997Y-51078055D01*
X162560552Y-50954206D01*
X162532913Y-50815333D01*
X162525834Y-50765679D01*
X162521405Y-50718572D01*
X162518203Y-50657908D01*
X162516229Y-50588091D01*
X162516052Y-50570338D01*
X162862994Y-50570338D01*
X162864663Y-50644368D01*
X162868255Y-50709776D01*
X162873859Y-50762746D01*
X162874297Y-50765679D01*
X162896218Y-50875545D01*
X162926362Y-50969488D01*
X162965321Y-51048044D01*
X163013685Y-51111750D01*
X163072048Y-51161142D01*
X163140999Y-51196757D01*
X163221131Y-51219131D01*
X163313035Y-51228800D01*
X163384406Y-51228309D01*
X163440397Y-51223751D01*
X163493325Y-51215836D01*
X163534085Y-51206149D01*
X163604481Y-51178111D01*
X163663284Y-51140266D01*
X163711995Y-51090912D01*
X163752115Y-51028346D01*
X163785145Y-50950866D01*
X163799855Y-50904674D01*
X163815384Y-50843188D01*
X163826978Y-50778073D01*
X163834992Y-50705938D01*
X163839778Y-50623394D01*
X163841690Y-50527048D01*
X163841760Y-50502369D01*
X163838698Y-50368556D01*
X163829185Y-50250926D01*
X163812799Y-50148550D01*
X163789119Y-50060502D01*
X163757722Y-49985851D01*
X163718186Y-49923669D01*
X163670090Y-49873029D01*
X163613012Y-49833001D01*
X163546530Y-49802657D01*
X163519750Y-49793784D01*
X163469437Y-49783303D01*
X163407598Y-49777562D01*
X163340205Y-49776501D01*
X163273229Y-49780061D01*
X163212640Y-49788181D01*
X163174915Y-49797249D01*
X163101770Y-49827769D01*
X163039131Y-49871192D01*
X162986409Y-49928264D01*
X162943015Y-49999726D01*
X162908360Y-50086324D01*
X162888396Y-50158854D01*
X162880389Y-50204459D01*
X162873774Y-50264344D01*
X162868638Y-50334690D01*
X162865070Y-50411683D01*
X162863159Y-50491505D01*
X162862994Y-50570338D01*
X162516052Y-50570338D01*
X162515484Y-50513529D01*
X162515969Y-50438630D01*
X162517685Y-50367798D01*
X162520632Y-50305442D01*
X162524813Y-50255968D01*
X162525718Y-50248607D01*
X162550250Y-50104562D01*
X162584094Y-49975862D01*
X162627373Y-49862207D01*
X162680209Y-49763301D01*
X162742724Y-49678844D01*
X162771790Y-49647714D01*
X162810293Y-49609250D01*
X162769972Y-49566072D01*
X162705646Y-49487761D01*
X162651375Y-49400779D01*
X162606665Y-49303714D01*
X162571021Y-49195158D01*
X162543952Y-49073701D01*
X162524962Y-48937932D01*
X162516829Y-48842999D01*
X162513970Y-48764923D01*
X162862486Y-48764923D01*
X162863701Y-48837316D01*
X162866821Y-48900963D01*
X162870926Y-48944282D01*
X162888539Y-49047939D01*
X162913592Y-49140351D01*
X162945426Y-49219597D01*
X162983383Y-49283757D01*
X162990458Y-49293103D01*
X163033743Y-49335681D01*
X163090749Y-49372936D01*
X163157347Y-49402776D01*
X163229406Y-49423113D01*
X163256679Y-49427818D01*
X163310740Y-49432035D01*
X163373929Y-49431650D01*
X163438502Y-49427086D01*
X163496715Y-49418763D01*
X163520417Y-49413481D01*
X163593147Y-49387839D01*
X163654544Y-49351077D01*
X163705824Y-49301865D01*
X163748207Y-49238874D01*
X163782911Y-49160775D01*
X163799894Y-49108396D01*
X163815415Y-49046919D01*
X163827003Y-48981776D01*
X163835010Y-48909580D01*
X163839789Y-48826949D01*
X163841692Y-48730496D01*
X163841760Y-48706226D01*
X163840721Y-48612517D01*
X163837326Y-48532985D01*
X163831208Y-48463775D01*
X163822002Y-48401032D01*
X163809340Y-48340899D01*
X163805567Y-48325725D01*
X163776062Y-48234474D01*
X163737679Y-48158527D01*
X163689568Y-48097241D01*
X163630878Y-48049975D01*
X163560758Y-48016087D01*
X163478359Y-47994934D01*
X163382828Y-47985876D01*
X163354643Y-47985420D01*
X163282977Y-47987438D01*
X163223536Y-47994412D01*
X163170833Y-48007377D01*
X163119380Y-48027364D01*
X163110727Y-48031363D01*
X163048545Y-48070609D01*
X162994397Y-48125629D01*
X162948771Y-48195700D01*
X162912152Y-48280098D01*
X162888660Y-48361750D01*
X162880898Y-48406050D01*
X162874340Y-48464624D01*
X162869103Y-48533634D01*
X162865304Y-48609246D01*
X162863059Y-48687621D01*
X162862486Y-48764923D01*
X162513970Y-48764923D01*
X162512510Y-48725085D01*
X162514833Y-48604565D01*
X162523398Y-48485382D01*
X162537804Y-48371481D01*
X162557650Y-48266807D01*
X162582536Y-48175304D01*
X162585582Y-48166160D01*
X162612708Y-48096259D01*
X162645776Y-48026473D01*
X162681417Y-47963514D01*
X162704332Y-47929481D01*
X162744155Y-47882236D01*
X162794108Y-47833347D01*
X162848474Y-47787821D01*
X162901535Y-47750665D01*
X162922182Y-47738693D01*
X163013908Y-47698480D01*
X163116360Y-47669170D01*
X163225983Y-47650817D01*
X163339224Y-47643476D01*
X163452528Y-47647199D01*
G36*
X165296670Y-47646936D02*
X165365612Y-47650736D01*
X165427929Y-47656912D01*
X165478714Y-47665365D01*
X165481169Y-47665916D01*
X165598194Y-47700683D01*
X165703488Y-47748945D01*
X165797117Y-47810793D01*
X165879147Y-47886324D01*
X165949644Y-47975629D01*
X166008676Y-48078803D01*
X166056309Y-48195940D01*
X166092608Y-48327134D01*
X166117640Y-48472477D01*
X166128339Y-48580522D01*
X166130184Y-48617016D01*
X166131748Y-48671567D01*
X166133029Y-48744091D01*
X166134027Y-48834506D01*
X166134741Y-48942727D01*
X166135173Y-49068672D01*
X166135319Y-49212256D01*
X166135182Y-49373397D01*
X166134759Y-49552011D01*
X166134227Y-49704321D01*
X166133581Y-49862414D01*
X166132942Y-50003435D01*
X166132290Y-50128459D01*
X166131609Y-50238558D01*
X166130878Y-50334803D01*
X166130079Y-50418269D01*
X166129193Y-50490026D01*
X166128202Y-50551148D01*
X166127086Y-50602707D01*
X166125828Y-50645775D01*
X166124407Y-50681425D01*
X166122806Y-50710730D01*
X166121006Y-50734762D01*
X166118987Y-50754593D01*
X166116732Y-50771296D01*
X166115428Y-50779286D01*
X166090668Y-50901126D01*
X166060705Y-51007799D01*
X166024382Y-51101821D01*
X165980540Y-51185712D01*
X165928021Y-51261990D01*
X165865668Y-51333172D01*
X165856445Y-51342516D01*
X165776611Y-51413160D01*
X165691764Y-51469644D01*
X165600053Y-51512642D01*
X165499626Y-51542824D01*
X165388629Y-51560862D01*
X165265211Y-51567426D01*
X165235862Y-51567394D01*
X165186499Y-51566272D01*
X165137808Y-51564083D01*
X165095969Y-51561163D01*
X165070964Y-51558439D01*
X164971714Y-51536623D01*
X164872716Y-51500898D01*
X164779523Y-51453655D01*
X164698674Y-51398085D01*
X164617189Y-51320834D01*
X164546632Y-51229168D01*
X164486992Y-51123063D01*
X164438257Y-51002496D01*
X164400413Y-50867441D01*
X164384481Y-50788357D01*
X164382611Y-50774379D01*
X164380932Y-50754149D01*
X164379437Y-50726790D01*
X164378115Y-50691424D01*
X164376957Y-50647170D01*
X164375956Y-50593152D01*
X164375101Y-50528490D01*
X164374384Y-50452306D01*
X164373796Y-50363721D01*
X164373328Y-50261857D01*
X164372970Y-50145835D01*
X164372715Y-50014777D01*
X164372553Y-49867804D01*
X164372475Y-49704037D01*
X164372466Y-49617715D01*
X164703339Y-49617715D01*
X164703397Y-49741733D01*
X164703596Y-49864039D01*
X164703936Y-49983105D01*
X164704419Y-50097404D01*
X164705044Y-50205411D01*
X164705811Y-50305598D01*
X164706722Y-50396439D01*
X164707776Y-50476408D01*
X164708973Y-50543977D01*
X164710315Y-50597620D01*
X164711801Y-50635810D01*
X164713031Y-50653592D01*
X164730534Y-50775636D01*
X164757098Y-50882218D01*
X164793051Y-50973776D01*
X164838720Y-51050750D01*
X164894433Y-51113582D01*
X164960518Y-51162709D01*
X165037302Y-51198573D01*
X165125112Y-51221613D01*
X165137821Y-51223763D01*
X165199800Y-51229351D01*
X165269938Y-51228784D01*
X165341229Y-51222586D01*
X165406670Y-51211279D01*
X165444451Y-51200873D01*
X165520711Y-51168185D01*
X165586183Y-51124423D01*
X165641594Y-51068565D01*
X165687671Y-50999590D01*
X165725141Y-50916477D01*
X165754730Y-50818203D01*
X165770712Y-50742242D01*
X165773243Y-50726744D01*
X165775502Y-50709141D01*
X165777509Y-50688316D01*
X165779285Y-50663149D01*
X165780851Y-50632524D01*
X165782228Y-50595323D01*
X165783437Y-50550426D01*
X165784500Y-50496718D01*
X165785437Y-50433078D01*
X165786268Y-50358391D01*
X165787016Y-50271537D01*
X165787701Y-50171399D01*
X165788344Y-50056859D01*
X165788966Y-49926799D01*
X165789589Y-49780100D01*
X165789808Y-49725257D01*
X165790421Y-49548781D01*
X165790782Y-49389445D01*
X165790871Y-49246248D01*
X165790664Y-49118190D01*
X165790141Y-49004269D01*
X165789279Y-48903484D01*
X165788057Y-48814834D01*
X165786453Y-48737319D01*
X165784445Y-48669936D01*
X165782011Y-48611685D01*
X165779130Y-48561565D01*
X165775779Y-48518575D01*
X165771938Y-48481714D01*
X165767584Y-48449980D01*
X165762696Y-48422374D01*
X165761326Y-48415710D01*
X165734128Y-48313582D01*
X165698622Y-48226917D01*
X165653988Y-48154652D01*
X165599404Y-48095724D01*
X165534050Y-48049070D01*
X165457104Y-48013626D01*
X165448414Y-48010545D01*
X165423305Y-48002528D01*
X165399374Y-47996894D01*
X165372676Y-47993256D01*
X165339269Y-47991226D01*
X165295209Y-47990419D01*
X165243322Y-47990416D01*
X165185957Y-47990950D01*
X165142928Y-47992271D01*
X165110433Y-47994771D01*
X165084667Y-47998842D01*
X165061829Y-48004875D01*
X165044475Y-48010869D01*
X164982955Y-48037082D01*
X164932870Y-48067224D01*
X164887518Y-48105624D01*
X164869866Y-48123560D01*
X164820414Y-48187079D01*
X164780088Y-48263751D01*
X164748585Y-48354409D01*
X164725599Y-48459887D01*
X164713530Y-48551558D01*
X164711921Y-48577058D01*
X164710449Y-48619164D01*
X164709115Y-48676349D01*
X164707918Y-48747088D01*
X164706859Y-48829853D01*
X164705938Y-48923118D01*
X164705156Y-49025357D01*
X164704513Y-49135041D01*
X164704010Y-49250646D01*
X164703646Y-49370645D01*
X164703422Y-49493509D01*
X164703339Y-49617715D01*
X164372466Y-49617715D01*
X164372464Y-49609071D01*
X164372458Y-49437467D01*
X164372469Y-49282957D01*
X164372548Y-49144496D01*
X164372742Y-49021034D01*
X164373099Y-48911525D01*
X164373667Y-48814921D01*
X164374496Y-48730174D01*
X164375633Y-48656237D01*
X164377126Y-48592062D01*
X164379025Y-48536601D01*
X164381376Y-48488808D01*
X164384229Y-48447634D01*
X164387631Y-48412032D01*
X164391632Y-48380955D01*
X164396279Y-48353354D01*
X164401620Y-48328182D01*
X164407704Y-48304391D01*
X164414579Y-48280935D01*
X164422294Y-48256765D01*
X164430896Y-48230834D01*
X164436811Y-48213067D01*
X164484087Y-48093367D01*
X164541892Y-47988342D01*
X164610694Y-47897570D01*
X164690964Y-47820627D01*
X164783169Y-47757091D01*
X164887779Y-47706538D01*
X165005263Y-47668546D01*
X165052822Y-47657432D01*
X165099180Y-47650759D01*
X165158546Y-47646850D01*
X165226012Y-47645608D01*
X165296670Y-47646936D01*
X165296670Y-47646936D01*
G37*
X165296670Y-47646936D02*
X165365612Y-47650736D01*
X165427929Y-47656912D01*
X165478714Y-47665365D01*
X165481169Y-47665916D01*
X165598194Y-47700683D01*
X165703488Y-47748945D01*
X165797117Y-47810793D01*
X165879147Y-47886324D01*
X165949644Y-47975629D01*
X166008676Y-48078803D01*
X166056309Y-48195940D01*
X166092608Y-48327134D01*
X166117640Y-48472477D01*
X166128339Y-48580522D01*
X166130184Y-48617016D01*
X166131748Y-48671567D01*
X166133029Y-48744091D01*
X166134027Y-48834506D01*
X166134741Y-48942727D01*
X166135173Y-49068672D01*
X166135319Y-49212256D01*
X166135182Y-49373397D01*
X166134759Y-49552011D01*
X166134227Y-49704321D01*
X166133581Y-49862414D01*
X166132942Y-50003435D01*
X166132290Y-50128459D01*
X166131609Y-50238558D01*
X166130878Y-50334803D01*
X166130079Y-50418269D01*
X166129193Y-50490026D01*
X166128202Y-50551148D01*
X166127086Y-50602707D01*
X166125828Y-50645775D01*
X166124407Y-50681425D01*
X166122806Y-50710730D01*
X166121006Y-50734762D01*
X166118987Y-50754593D01*
X166116732Y-50771296D01*
X166115428Y-50779286D01*
X166090668Y-50901126D01*
X166060705Y-51007799D01*
X166024382Y-51101821D01*
X165980540Y-51185712D01*
X165928021Y-51261990D01*
X165865668Y-51333172D01*
X165856445Y-51342516D01*
X165776611Y-51413160D01*
X165691764Y-51469644D01*
X165600053Y-51512642D01*
X165499626Y-51542824D01*
X165388629Y-51560862D01*
X165265211Y-51567426D01*
X165235862Y-51567394D01*
X165186499Y-51566272D01*
X165137808Y-51564083D01*
X165095969Y-51561163D01*
X165070964Y-51558439D01*
X164971714Y-51536623D01*
X164872716Y-51500898D01*
X164779523Y-51453655D01*
X164698674Y-51398085D01*
X164617189Y-51320834D01*
X164546632Y-51229168D01*
X164486992Y-51123063D01*
X164438257Y-51002496D01*
X164400413Y-50867441D01*
X164384481Y-50788357D01*
X164382611Y-50774379D01*
X164380932Y-50754149D01*
X164379437Y-50726790D01*
X164378115Y-50691424D01*
X164376957Y-50647170D01*
X164375956Y-50593152D01*
X164375101Y-50528490D01*
X164374384Y-50452306D01*
X164373796Y-50363721D01*
X164373328Y-50261857D01*
X164372970Y-50145835D01*
X164372715Y-50014777D01*
X164372553Y-49867804D01*
X164372475Y-49704037D01*
X164372466Y-49617715D01*
X164703339Y-49617715D01*
X164703397Y-49741733D01*
X164703596Y-49864039D01*
X164703936Y-49983105D01*
X164704419Y-50097404D01*
X164705044Y-50205411D01*
X164705811Y-50305598D01*
X164706722Y-50396439D01*
X164707776Y-50476408D01*
X164708973Y-50543977D01*
X164710315Y-50597620D01*
X164711801Y-50635810D01*
X164713031Y-50653592D01*
X164730534Y-50775636D01*
X164757098Y-50882218D01*
X164793051Y-50973776D01*
X164838720Y-51050750D01*
X164894433Y-51113582D01*
X164960518Y-51162709D01*
X165037302Y-51198573D01*
X165125112Y-51221613D01*
X165137821Y-51223763D01*
X165199800Y-51229351D01*
X165269938Y-51228784D01*
X165341229Y-51222586D01*
X165406670Y-51211279D01*
X165444451Y-51200873D01*
X165520711Y-51168185D01*
X165586183Y-51124423D01*
X165641594Y-51068565D01*
X165687671Y-50999590D01*
X165725141Y-50916477D01*
X165754730Y-50818203D01*
X165770712Y-50742242D01*
X165773243Y-50726744D01*
X165775502Y-50709141D01*
X165777509Y-50688316D01*
X165779285Y-50663149D01*
X165780851Y-50632524D01*
X165782228Y-50595323D01*
X165783437Y-50550426D01*
X165784500Y-50496718D01*
X165785437Y-50433078D01*
X165786268Y-50358391D01*
X165787016Y-50271537D01*
X165787701Y-50171399D01*
X165788344Y-50056859D01*
X165788966Y-49926799D01*
X165789589Y-49780100D01*
X165789808Y-49725257D01*
X165790421Y-49548781D01*
X165790782Y-49389445D01*
X165790871Y-49246248D01*
X165790664Y-49118190D01*
X165790141Y-49004269D01*
X165789279Y-48903484D01*
X165788057Y-48814834D01*
X165786453Y-48737319D01*
X165784445Y-48669936D01*
X165782011Y-48611685D01*
X165779130Y-48561565D01*
X165775779Y-48518575D01*
X165771938Y-48481714D01*
X165767584Y-48449980D01*
X165762696Y-48422374D01*
X165761326Y-48415710D01*
X165734128Y-48313582D01*
X165698622Y-48226917D01*
X165653988Y-48154652D01*
X165599404Y-48095724D01*
X165534050Y-48049070D01*
X165457104Y-48013626D01*
X165448414Y-48010545D01*
X165423305Y-48002528D01*
X165399374Y-47996894D01*
X165372676Y-47993256D01*
X165339269Y-47991226D01*
X165295209Y-47990419D01*
X165243322Y-47990416D01*
X165185957Y-47990950D01*
X165142928Y-47992271D01*
X165110433Y-47994771D01*
X165084667Y-47998842D01*
X165061829Y-48004875D01*
X165044475Y-48010869D01*
X164982955Y-48037082D01*
X164932870Y-48067224D01*
X164887518Y-48105624D01*
X164869866Y-48123560D01*
X164820414Y-48187079D01*
X164780088Y-48263751D01*
X164748585Y-48354409D01*
X164725599Y-48459887D01*
X164713530Y-48551558D01*
X164711921Y-48577058D01*
X164710449Y-48619164D01*
X164709115Y-48676349D01*
X164707918Y-48747088D01*
X164706859Y-48829853D01*
X164705938Y-48923118D01*
X164705156Y-49025357D01*
X164704513Y-49135041D01*
X164704010Y-49250646D01*
X164703646Y-49370645D01*
X164703422Y-49493509D01*
X164703339Y-49617715D01*
X164372466Y-49617715D01*
X164372464Y-49609071D01*
X164372458Y-49437467D01*
X164372469Y-49282957D01*
X164372548Y-49144496D01*
X164372742Y-49021034D01*
X164373099Y-48911525D01*
X164373667Y-48814921D01*
X164374496Y-48730174D01*
X164375633Y-48656237D01*
X164377126Y-48592062D01*
X164379025Y-48536601D01*
X164381376Y-48488808D01*
X164384229Y-48447634D01*
X164387631Y-48412032D01*
X164391632Y-48380955D01*
X164396279Y-48353354D01*
X164401620Y-48328182D01*
X164407704Y-48304391D01*
X164414579Y-48280935D01*
X164422294Y-48256765D01*
X164430896Y-48230834D01*
X164436811Y-48213067D01*
X164484087Y-48093367D01*
X164541892Y-47988342D01*
X164610694Y-47897570D01*
X164690964Y-47820627D01*
X164783169Y-47757091D01*
X164887779Y-47706538D01*
X165005263Y-47668546D01*
X165052822Y-47657432D01*
X165099180Y-47650759D01*
X165158546Y-47646850D01*
X165226012Y-47645608D01*
X165296670Y-47646936D01*
G36*
X311452528Y-152647199D02*
X311562340Y-152662043D01*
X311665105Y-152688060D01*
X311757269Y-152725305D01*
X311758524Y-152725935D01*
X311849825Y-152780600D01*
X311929712Y-152847128D01*
X311998430Y-152926004D01*
X312056225Y-153017710D01*
X312103343Y-153122730D01*
X312140032Y-153241547D01*
X312166536Y-153374646D01*
X312183102Y-153522509D01*
X312185918Y-153565284D01*
X312189195Y-153666929D01*
X312188210Y-153774115D01*
X312183231Y-153880877D01*
X312174528Y-153981252D01*
X312163419Y-154063101D01*
X312150257Y-154127333D01*
X312131843Y-154197076D01*
X312109973Y-154266693D01*
X312086442Y-154330549D01*
X312063044Y-154383010D01*
X312059148Y-154390502D01*
X312036707Y-154428643D01*
X312008698Y-154470669D01*
X311978428Y-154512131D01*
X311949201Y-154548584D01*
X311924324Y-154575583D01*
X311916083Y-154582940D01*
X311891679Y-154602647D01*
X311931319Y-154644413D01*
X312003481Y-154733535D01*
X312063961Y-154836526D01*
X312112750Y-154953361D01*
X312149837Y-155084018D01*
X312164447Y-155157139D01*
X312175997Y-155242313D01*
X312183805Y-155340171D01*
X312187870Y-155445785D01*
X312188193Y-155554227D01*
X312184774Y-155660569D01*
X312177613Y-155759884D01*
X312166711Y-155847244D01*
X312164399Y-155861051D01*
X312133958Y-155995825D01*
X312092321Y-156116348D01*
X312039433Y-156222687D01*
X311975238Y-156314911D01*
X311899682Y-156393087D01*
X311812709Y-156457282D01*
X311714264Y-156507566D01*
X311610464Y-156542406D01*
X311561932Y-156551909D01*
X311500275Y-156559111D01*
X311430382Y-156563881D01*
X311357140Y-156566084D01*
X311285438Y-156565587D01*
X311220165Y-156562258D01*
X311166208Y-156555964D01*
X311159070Y-156554695D01*
X311044854Y-156525891D01*
X310942477Y-156484594D01*
X310851646Y-156430441D01*
X310772074Y-156363073D01*
X310703468Y-156282127D01*
X310645539Y-156187241D01*
X310597997Y-156078055D01*
X310560552Y-155954206D01*
X310532913Y-155815333D01*
X310525834Y-155765679D01*
X310521405Y-155718572D01*
X310518203Y-155657908D01*
X310516229Y-155588091D01*
X310516052Y-155570338D01*
X310862994Y-155570338D01*
X310864663Y-155644368D01*
X310868255Y-155709776D01*
X310873859Y-155762746D01*
X310874297Y-155765679D01*
X310896218Y-155875545D01*
X310926362Y-155969488D01*
X310965321Y-156048044D01*
X311013685Y-156111750D01*
X311072048Y-156161142D01*
X311140999Y-156196757D01*
X311221131Y-156219131D01*
X311313035Y-156228800D01*
X311384406Y-156228309D01*
X311440397Y-156223751D01*
X311493325Y-156215836D01*
X311534085Y-156206149D01*
X311604481Y-156178111D01*
X311663284Y-156140266D01*
X311711995Y-156090912D01*
X311752115Y-156028346D01*
X311785145Y-155950866D01*
X311799855Y-155904674D01*
X311815384Y-155843188D01*
X311826978Y-155778073D01*
X311834992Y-155705938D01*
X311839778Y-155623394D01*
X311841690Y-155527048D01*
X311841760Y-155502369D01*
X311838698Y-155368556D01*
X311829185Y-155250926D01*
X311812799Y-155148550D01*
X311789119Y-155060502D01*
X311757722Y-154985851D01*
X311718186Y-154923669D01*
X311670090Y-154873029D01*
X311613012Y-154833001D01*
X311546530Y-154802657D01*
X311519750Y-154793784D01*
X311469437Y-154783303D01*
X311407598Y-154777562D01*
X311340205Y-154776501D01*
X311273229Y-154780061D01*
X311212640Y-154788181D01*
X311174915Y-154797249D01*
X311101770Y-154827769D01*
X311039131Y-154871192D01*
X310986409Y-154928264D01*
X310943015Y-154999726D01*
X310908360Y-155086324D01*
X310888396Y-155158854D01*
X310880389Y-155204459D01*
X310873774Y-155264344D01*
X310868638Y-155334690D01*
X310865070Y-155411683D01*
X310863159Y-155491505D01*
X310862994Y-155570338D01*
X310516052Y-155570338D01*
X310515484Y-155513529D01*
X310515969Y-155438630D01*
X310517685Y-155367798D01*
X310520632Y-155305442D01*
X310524813Y-155255968D01*
X310525718Y-155248607D01*
X310550250Y-155104562D01*
X310584094Y-154975862D01*
X310627373Y-154862207D01*
X310680209Y-154763301D01*
X310742724Y-154678844D01*
X310771790Y-154647714D01*
X310810293Y-154609250D01*
X310769972Y-154566072D01*
X310705646Y-154487761D01*
X310651375Y-154400779D01*
X310606665Y-154303714D01*
X310571021Y-154195158D01*
X310543952Y-154073701D01*
X310524962Y-153937932D01*
X310516829Y-153842999D01*
X310513970Y-153764923D01*
X310862486Y-153764923D01*
X310863701Y-153837316D01*
X310866821Y-153900963D01*
X310870926Y-153944282D01*
X310888539Y-154047939D01*
X310913592Y-154140351D01*
X310945426Y-154219597D01*
X310983383Y-154283757D01*
X310990458Y-154293103D01*
X311033743Y-154335681D01*
X311090749Y-154372936D01*
X311157347Y-154402776D01*
X311229406Y-154423113D01*
X311256679Y-154427818D01*
X311310740Y-154432035D01*
X311373929Y-154431650D01*
X311438502Y-154427086D01*
X311496715Y-154418763D01*
X311520417Y-154413481D01*
X311593147Y-154387839D01*
X311654544Y-154351077D01*
X311705824Y-154301865D01*
X311748207Y-154238874D01*
X311782911Y-154160775D01*
X311799894Y-154108396D01*
X311815415Y-154046919D01*
X311827003Y-153981776D01*
X311835010Y-153909580D01*
X311839789Y-153826949D01*
X311841692Y-153730496D01*
X311841760Y-153706226D01*
X311840721Y-153612517D01*
X311837326Y-153532985D01*
X311831208Y-153463775D01*
X311822002Y-153401032D01*
X311809340Y-153340899D01*
X311805567Y-153325725D01*
X311776062Y-153234474D01*
X311737679Y-153158527D01*
X311689568Y-153097241D01*
X311630878Y-153049975D01*
X311560758Y-153016087D01*
X311478359Y-152994934D01*
X311382828Y-152985876D01*
X311354643Y-152985420D01*
X311282977Y-152987438D01*
X311223536Y-152994412D01*
X311170833Y-153007377D01*
X311119380Y-153027364D01*
X311110727Y-153031363D01*
X311048545Y-153070609D01*
X310994397Y-153125629D01*
X310948771Y-153195700D01*
X310912152Y-153280098D01*
X310888660Y-153361750D01*
X310880898Y-153406050D01*
X310874340Y-153464624D01*
X310869103Y-153533634D01*
X310865304Y-153609246D01*
X310863059Y-153687621D01*
X310862486Y-153764923D01*
X310513970Y-153764923D01*
X310512510Y-153725085D01*
X310514833Y-153604565D01*
X310523398Y-153485382D01*
X310537804Y-153371481D01*
X310557650Y-153266807D01*
X310582536Y-153175304D01*
X310585582Y-153166160D01*
X310612708Y-153096259D01*
X310645776Y-153026473D01*
X310681417Y-152963514D01*
X310704332Y-152929481D01*
X310744155Y-152882236D01*
X310794108Y-152833347D01*
X310848474Y-152787821D01*
X310901535Y-152750665D01*
X310922182Y-152738693D01*
X311013908Y-152698480D01*
X311116360Y-152669170D01*
X311225983Y-152650817D01*
X311339224Y-152643476D01*
X311452528Y-152647199D01*
X311452528Y-152647199D01*
G37*
X311452528Y-152647199D02*
X311562340Y-152662043D01*
X311665105Y-152688060D01*
X311757269Y-152725305D01*
X311758524Y-152725935D01*
X311849825Y-152780600D01*
X311929712Y-152847128D01*
X311998430Y-152926004D01*
X312056225Y-153017710D01*
X312103343Y-153122730D01*
X312140032Y-153241547D01*
X312166536Y-153374646D01*
X312183102Y-153522509D01*
X312185918Y-153565284D01*
X312189195Y-153666929D01*
X312188210Y-153774115D01*
X312183231Y-153880877D01*
X312174528Y-153981252D01*
X312163419Y-154063101D01*
X312150257Y-154127333D01*
X312131843Y-154197076D01*
X312109973Y-154266693D01*
X312086442Y-154330549D01*
X312063044Y-154383010D01*
X312059148Y-154390502D01*
X312036707Y-154428643D01*
X312008698Y-154470669D01*
X311978428Y-154512131D01*
X311949201Y-154548584D01*
X311924324Y-154575583D01*
X311916083Y-154582940D01*
X311891679Y-154602647D01*
X311931319Y-154644413D01*
X312003481Y-154733535D01*
X312063961Y-154836526D01*
X312112750Y-154953361D01*
X312149837Y-155084018D01*
X312164447Y-155157139D01*
X312175997Y-155242313D01*
X312183805Y-155340171D01*
X312187870Y-155445785D01*
X312188193Y-155554227D01*
X312184774Y-155660569D01*
X312177613Y-155759884D01*
X312166711Y-155847244D01*
X312164399Y-155861051D01*
X312133958Y-155995825D01*
X312092321Y-156116348D01*
X312039433Y-156222687D01*
X311975238Y-156314911D01*
X311899682Y-156393087D01*
X311812709Y-156457282D01*
X311714264Y-156507566D01*
X311610464Y-156542406D01*
X311561932Y-156551909D01*
X311500275Y-156559111D01*
X311430382Y-156563881D01*
X311357140Y-156566084D01*
X311285438Y-156565587D01*
X311220165Y-156562258D01*
X311166208Y-156555964D01*
X311159070Y-156554695D01*
X311044854Y-156525891D01*
X310942477Y-156484594D01*
X310851646Y-156430441D01*
X310772074Y-156363073D01*
X310703468Y-156282127D01*
X310645539Y-156187241D01*
X310597997Y-156078055D01*
X310560552Y-155954206D01*
X310532913Y-155815333D01*
X310525834Y-155765679D01*
X310521405Y-155718572D01*
X310518203Y-155657908D01*
X310516229Y-155588091D01*
X310516052Y-155570338D01*
X310862994Y-155570338D01*
X310864663Y-155644368D01*
X310868255Y-155709776D01*
X310873859Y-155762746D01*
X310874297Y-155765679D01*
X310896218Y-155875545D01*
X310926362Y-155969488D01*
X310965321Y-156048044D01*
X311013685Y-156111750D01*
X311072048Y-156161142D01*
X311140999Y-156196757D01*
X311221131Y-156219131D01*
X311313035Y-156228800D01*
X311384406Y-156228309D01*
X311440397Y-156223751D01*
X311493325Y-156215836D01*
X311534085Y-156206149D01*
X311604481Y-156178111D01*
X311663284Y-156140266D01*
X311711995Y-156090912D01*
X311752115Y-156028346D01*
X311785145Y-155950866D01*
X311799855Y-155904674D01*
X311815384Y-155843188D01*
X311826978Y-155778073D01*
X311834992Y-155705938D01*
X311839778Y-155623394D01*
X311841690Y-155527048D01*
X311841760Y-155502369D01*
X311838698Y-155368556D01*
X311829185Y-155250926D01*
X311812799Y-155148550D01*
X311789119Y-155060502D01*
X311757722Y-154985851D01*
X311718186Y-154923669D01*
X311670090Y-154873029D01*
X311613012Y-154833001D01*
X311546530Y-154802657D01*
X311519750Y-154793784D01*
X311469437Y-154783303D01*
X311407598Y-154777562D01*
X311340205Y-154776501D01*
X311273229Y-154780061D01*
X311212640Y-154788181D01*
X311174915Y-154797249D01*
X311101770Y-154827769D01*
X311039131Y-154871192D01*
X310986409Y-154928264D01*
X310943015Y-154999726D01*
X310908360Y-155086324D01*
X310888396Y-155158854D01*
X310880389Y-155204459D01*
X310873774Y-155264344D01*
X310868638Y-155334690D01*
X310865070Y-155411683D01*
X310863159Y-155491505D01*
X310862994Y-155570338D01*
X310516052Y-155570338D01*
X310515484Y-155513529D01*
X310515969Y-155438630D01*
X310517685Y-155367798D01*
X310520632Y-155305442D01*
X310524813Y-155255968D01*
X310525718Y-155248607D01*
X310550250Y-155104562D01*
X310584094Y-154975862D01*
X310627373Y-154862207D01*
X310680209Y-154763301D01*
X310742724Y-154678844D01*
X310771790Y-154647714D01*
X310810293Y-154609250D01*
X310769972Y-154566072D01*
X310705646Y-154487761D01*
X310651375Y-154400779D01*
X310606665Y-154303714D01*
X310571021Y-154195158D01*
X310543952Y-154073701D01*
X310524962Y-153937932D01*
X310516829Y-153842999D01*
X310513970Y-153764923D01*
X310862486Y-153764923D01*
X310863701Y-153837316D01*
X310866821Y-153900963D01*
X310870926Y-153944282D01*
X310888539Y-154047939D01*
X310913592Y-154140351D01*
X310945426Y-154219597D01*
X310983383Y-154283757D01*
X310990458Y-154293103D01*
X311033743Y-154335681D01*
X311090749Y-154372936D01*
X311157347Y-154402776D01*
X311229406Y-154423113D01*
X311256679Y-154427818D01*
X311310740Y-154432035D01*
X311373929Y-154431650D01*
X311438502Y-154427086D01*
X311496715Y-154418763D01*
X311520417Y-154413481D01*
X311593147Y-154387839D01*
X311654544Y-154351077D01*
X311705824Y-154301865D01*
X311748207Y-154238874D01*
X311782911Y-154160775D01*
X311799894Y-154108396D01*
X311815415Y-154046919D01*
X311827003Y-153981776D01*
X311835010Y-153909580D01*
X311839789Y-153826949D01*
X311841692Y-153730496D01*
X311841760Y-153706226D01*
X311840721Y-153612517D01*
X311837326Y-153532985D01*
X311831208Y-153463775D01*
X311822002Y-153401032D01*
X311809340Y-153340899D01*
X311805567Y-153325725D01*
X311776062Y-153234474D01*
X311737679Y-153158527D01*
X311689568Y-153097241D01*
X311630878Y-153049975D01*
X311560758Y-153016087D01*
X311478359Y-152994934D01*
X311382828Y-152985876D01*
X311354643Y-152985420D01*
X311282977Y-152987438D01*
X311223536Y-152994412D01*
X311170833Y-153007377D01*
X311119380Y-153027364D01*
X311110727Y-153031363D01*
X311048545Y-153070609D01*
X310994397Y-153125629D01*
X310948771Y-153195700D01*
X310912152Y-153280098D01*
X310888660Y-153361750D01*
X310880898Y-153406050D01*
X310874340Y-153464624D01*
X310869103Y-153533634D01*
X310865304Y-153609246D01*
X310863059Y-153687621D01*
X310862486Y-153764923D01*
X310513970Y-153764923D01*
X310512510Y-153725085D01*
X310514833Y-153604565D01*
X310523398Y-153485382D01*
X310537804Y-153371481D01*
X310557650Y-153266807D01*
X310582536Y-153175304D01*
X310585582Y-153166160D01*
X310612708Y-153096259D01*
X310645776Y-153026473D01*
X310681417Y-152963514D01*
X310704332Y-152929481D01*
X310744155Y-152882236D01*
X310794108Y-152833347D01*
X310848474Y-152787821D01*
X310901535Y-152750665D01*
X310922182Y-152738693D01*
X311013908Y-152698480D01*
X311116360Y-152669170D01*
X311225983Y-152650817D01*
X311339224Y-152643476D01*
X311452528Y-152647199D01*
G36*
X313296670Y-152646936D02*
X313365612Y-152650736D01*
X313427929Y-152656912D01*
X313478714Y-152665365D01*
X313481169Y-152665916D01*
X313598194Y-152700683D01*
X313703488Y-152748945D01*
X313797117Y-152810793D01*
X313879147Y-152886324D01*
X313949644Y-152975629D01*
X314008676Y-153078803D01*
X314056309Y-153195940D01*
X314092608Y-153327134D01*
X314117640Y-153472477D01*
X314128339Y-153580522D01*
X314130184Y-153617016D01*
X314131748Y-153671567D01*
X314133029Y-153744091D01*
X314134027Y-153834506D01*
X314134741Y-153942727D01*
X314135173Y-154068672D01*
X314135319Y-154212256D01*
X314135182Y-154373397D01*
X314134759Y-154552011D01*
X314134227Y-154704321D01*
X314133581Y-154862414D01*
X314132942Y-155003435D01*
X314132290Y-155128459D01*
X314131609Y-155238558D01*
X314130878Y-155334803D01*
X314130079Y-155418269D01*
X314129193Y-155490026D01*
X314128202Y-155551148D01*
X314127086Y-155602707D01*
X314125828Y-155645775D01*
X314124407Y-155681425D01*
X314122806Y-155710730D01*
X314121006Y-155734762D01*
X314118987Y-155754593D01*
X314116732Y-155771296D01*
X314115428Y-155779286D01*
X314090668Y-155901126D01*
X314060705Y-156007799D01*
X314024382Y-156101821D01*
X313980540Y-156185712D01*
X313928021Y-156261990D01*
X313865668Y-156333172D01*
X313856445Y-156342516D01*
X313776611Y-156413160D01*
X313691764Y-156469644D01*
X313600053Y-156512642D01*
X313499626Y-156542824D01*
X313388629Y-156560862D01*
X313265211Y-156567426D01*
X313235862Y-156567394D01*
X313186499Y-156566272D01*
X313137808Y-156564083D01*
X313095969Y-156561163D01*
X313070964Y-156558439D01*
X312971714Y-156536623D01*
X312872716Y-156500898D01*
X312779523Y-156453655D01*
X312698674Y-156398085D01*
X312617189Y-156320834D01*
X312546632Y-156229168D01*
X312486992Y-156123063D01*
X312438257Y-156002496D01*
X312400413Y-155867441D01*
X312384481Y-155788357D01*
X312382611Y-155774379D01*
X312380932Y-155754149D01*
X312379437Y-155726790D01*
X312378115Y-155691424D01*
X312376957Y-155647170D01*
X312375956Y-155593152D01*
X312375101Y-155528490D01*
X312374384Y-155452306D01*
X312373796Y-155363721D01*
X312373328Y-155261857D01*
X312372970Y-155145835D01*
X312372715Y-155014777D01*
X312372553Y-154867804D01*
X312372475Y-154704037D01*
X312372466Y-154617715D01*
X312703339Y-154617715D01*
X312703397Y-154741733D01*
X312703596Y-154864039D01*
X312703936Y-154983105D01*
X312704419Y-155097404D01*
X312705044Y-155205411D01*
X312705811Y-155305598D01*
X312706722Y-155396439D01*
X312707776Y-155476408D01*
X312708973Y-155543977D01*
X312710315Y-155597620D01*
X312711801Y-155635810D01*
X312713031Y-155653592D01*
X312730534Y-155775636D01*
X312757098Y-155882218D01*
X312793051Y-155973776D01*
X312838720Y-156050750D01*
X312894433Y-156113582D01*
X312960518Y-156162709D01*
X313037302Y-156198573D01*
X313125112Y-156221613D01*
X313137821Y-156223763D01*
X313199800Y-156229351D01*
X313269938Y-156228784D01*
X313341229Y-156222586D01*
X313406670Y-156211279D01*
X313444451Y-156200873D01*
X313520711Y-156168185D01*
X313586183Y-156124423D01*
X313641594Y-156068565D01*
X313687671Y-155999590D01*
X313725141Y-155916477D01*
X313754730Y-155818203D01*
X313770712Y-155742242D01*
X313773243Y-155726744D01*
X313775502Y-155709141D01*
X313777509Y-155688316D01*
X313779285Y-155663149D01*
X313780851Y-155632524D01*
X313782228Y-155595323D01*
X313783437Y-155550426D01*
X313784500Y-155496718D01*
X313785437Y-155433078D01*
X313786268Y-155358391D01*
X313787016Y-155271537D01*
X313787701Y-155171399D01*
X313788344Y-155056859D01*
X313788966Y-154926799D01*
X313789589Y-154780100D01*
X313789808Y-154725257D01*
X313790421Y-154548781D01*
X313790782Y-154389445D01*
X313790871Y-154246248D01*
X313790664Y-154118190D01*
X313790141Y-154004269D01*
X313789279Y-153903484D01*
X313788057Y-153814834D01*
X313786453Y-153737319D01*
X313784445Y-153669936D01*
X313782011Y-153611685D01*
X313779130Y-153561565D01*
X313775779Y-153518575D01*
X313771938Y-153481714D01*
X313767584Y-153449980D01*
X313762696Y-153422374D01*
X313761326Y-153415710D01*
X313734128Y-153313582D01*
X313698622Y-153226917D01*
X313653988Y-153154652D01*
X313599404Y-153095724D01*
X313534050Y-153049070D01*
X313457104Y-153013626D01*
X313448414Y-153010545D01*
X313423305Y-153002528D01*
X313399374Y-152996894D01*
X313372676Y-152993256D01*
X313339269Y-152991226D01*
X313295209Y-152990419D01*
X313243322Y-152990416D01*
X313185957Y-152990950D01*
X313142928Y-152992271D01*
X313110433Y-152994771D01*
X313084667Y-152998842D01*
X313061829Y-153004875D01*
X313044475Y-153010869D01*
X312982955Y-153037082D01*
X312932870Y-153067224D01*
X312887518Y-153105624D01*
X312869866Y-153123560D01*
X312820414Y-153187079D01*
X312780088Y-153263751D01*
X312748585Y-153354409D01*
X312725599Y-153459887D01*
X312713530Y-153551558D01*
X312711921Y-153577058D01*
X312710449Y-153619164D01*
X312709115Y-153676349D01*
X312707918Y-153747088D01*
X312706859Y-153829853D01*
X312705938Y-153923118D01*
X312705156Y-154025357D01*
X312704513Y-154135041D01*
X312704010Y-154250646D01*
X312703646Y-154370645D01*
X312703422Y-154493509D01*
X312703339Y-154617715D01*
X312372466Y-154617715D01*
X312372464Y-154609071D01*
X312372458Y-154437467D01*
X312372469Y-154282957D01*
X312372548Y-154144496D01*
X312372742Y-154021034D01*
X312373099Y-153911525D01*
X312373667Y-153814921D01*
X312374496Y-153730174D01*
X312375633Y-153656237D01*
X312377126Y-153592062D01*
X312379025Y-153536601D01*
X312381376Y-153488808D01*
X312384229Y-153447634D01*
X312387631Y-153412032D01*
X312391632Y-153380955D01*
X312396279Y-153353354D01*
X312401620Y-153328182D01*
X312407704Y-153304391D01*
X312414579Y-153280935D01*
X312422294Y-153256765D01*
X312430896Y-153230834D01*
X312436811Y-153213067D01*
X312484087Y-153093367D01*
X312541892Y-152988342D01*
X312610694Y-152897570D01*
X312690964Y-152820627D01*
X312783169Y-152757091D01*
X312887779Y-152706538D01*
X313005263Y-152668546D01*
X313052822Y-152657432D01*
X313099180Y-152650759D01*
X313158546Y-152646850D01*
X313226012Y-152645608D01*
X313296670Y-152646936D01*
X313296670Y-152646936D01*
G37*
X313296670Y-152646936D02*
X313365612Y-152650736D01*
X313427929Y-152656912D01*
X313478714Y-152665365D01*
X313481169Y-152665916D01*
X313598194Y-152700683D01*
X313703488Y-152748945D01*
X313797117Y-152810793D01*
X313879147Y-152886324D01*
X313949644Y-152975629D01*
X314008676Y-153078803D01*
X314056309Y-153195940D01*
X314092608Y-153327134D01*
X314117640Y-153472477D01*
X314128339Y-153580522D01*
X314130184Y-153617016D01*
X314131748Y-153671567D01*
X314133029Y-153744091D01*
X314134027Y-153834506D01*
X314134741Y-153942727D01*
X314135173Y-154068672D01*
X314135319Y-154212256D01*
X314135182Y-154373397D01*
X314134759Y-154552011D01*
X314134227Y-154704321D01*
X314133581Y-154862414D01*
X314132942Y-155003435D01*
X314132290Y-155128459D01*
X314131609Y-155238558D01*
X314130878Y-155334803D01*
X314130079Y-155418269D01*
X314129193Y-155490026D01*
X314128202Y-155551148D01*
X314127086Y-155602707D01*
X314125828Y-155645775D01*
X314124407Y-155681425D01*
X314122806Y-155710730D01*
X314121006Y-155734762D01*
X314118987Y-155754593D01*
X314116732Y-155771296D01*
X314115428Y-155779286D01*
X314090668Y-155901126D01*
X314060705Y-156007799D01*
X314024382Y-156101821D01*
X313980540Y-156185712D01*
X313928021Y-156261990D01*
X313865668Y-156333172D01*
X313856445Y-156342516D01*
X313776611Y-156413160D01*
X313691764Y-156469644D01*
X313600053Y-156512642D01*
X313499626Y-156542824D01*
X313388629Y-156560862D01*
X313265211Y-156567426D01*
X313235862Y-156567394D01*
X313186499Y-156566272D01*
X313137808Y-156564083D01*
X313095969Y-156561163D01*
X313070964Y-156558439D01*
X312971714Y-156536623D01*
X312872716Y-156500898D01*
X312779523Y-156453655D01*
X312698674Y-156398085D01*
X312617189Y-156320834D01*
X312546632Y-156229168D01*
X312486992Y-156123063D01*
X312438257Y-156002496D01*
X312400413Y-155867441D01*
X312384481Y-155788357D01*
X312382611Y-155774379D01*
X312380932Y-155754149D01*
X312379437Y-155726790D01*
X312378115Y-155691424D01*
X312376957Y-155647170D01*
X312375956Y-155593152D01*
X312375101Y-155528490D01*
X312374384Y-155452306D01*
X312373796Y-155363721D01*
X312373328Y-155261857D01*
X312372970Y-155145835D01*
X312372715Y-155014777D01*
X312372553Y-154867804D01*
X312372475Y-154704037D01*
X312372466Y-154617715D01*
X312703339Y-154617715D01*
X312703397Y-154741733D01*
X312703596Y-154864039D01*
X312703936Y-154983105D01*
X312704419Y-155097404D01*
X312705044Y-155205411D01*
X312705811Y-155305598D01*
X312706722Y-155396439D01*
X312707776Y-155476408D01*
X312708973Y-155543977D01*
X312710315Y-155597620D01*
X312711801Y-155635810D01*
X312713031Y-155653592D01*
X312730534Y-155775636D01*
X312757098Y-155882218D01*
X312793051Y-155973776D01*
X312838720Y-156050750D01*
X312894433Y-156113582D01*
X312960518Y-156162709D01*
X313037302Y-156198573D01*
X313125112Y-156221613D01*
X313137821Y-156223763D01*
X313199800Y-156229351D01*
X313269938Y-156228784D01*
X313341229Y-156222586D01*
X313406670Y-156211279D01*
X313444451Y-156200873D01*
X313520711Y-156168185D01*
X313586183Y-156124423D01*
X313641594Y-156068565D01*
X313687671Y-155999590D01*
X313725141Y-155916477D01*
X313754730Y-155818203D01*
X313770712Y-155742242D01*
X313773243Y-155726744D01*
X313775502Y-155709141D01*
X313777509Y-155688316D01*
X313779285Y-155663149D01*
X313780851Y-155632524D01*
X313782228Y-155595323D01*
X313783437Y-155550426D01*
X313784500Y-155496718D01*
X313785437Y-155433078D01*
X313786268Y-155358391D01*
X313787016Y-155271537D01*
X313787701Y-155171399D01*
X313788344Y-155056859D01*
X313788966Y-154926799D01*
X313789589Y-154780100D01*
X313789808Y-154725257D01*
X313790421Y-154548781D01*
X313790782Y-154389445D01*
X313790871Y-154246248D01*
X313790664Y-154118190D01*
X313790141Y-154004269D01*
X313789279Y-153903484D01*
X313788057Y-153814834D01*
X313786453Y-153737319D01*
X313784445Y-153669936D01*
X313782011Y-153611685D01*
X313779130Y-153561565D01*
X313775779Y-153518575D01*
X313771938Y-153481714D01*
X313767584Y-153449980D01*
X313762696Y-153422374D01*
X313761326Y-153415710D01*
X313734128Y-153313582D01*
X313698622Y-153226917D01*
X313653988Y-153154652D01*
X313599404Y-153095724D01*
X313534050Y-153049070D01*
X313457104Y-153013626D01*
X313448414Y-153010545D01*
X313423305Y-153002528D01*
X313399374Y-152996894D01*
X313372676Y-152993256D01*
X313339269Y-152991226D01*
X313295209Y-152990419D01*
X313243322Y-152990416D01*
X313185957Y-152990950D01*
X313142928Y-152992271D01*
X313110433Y-152994771D01*
X313084667Y-152998842D01*
X313061829Y-153004875D01*
X313044475Y-153010869D01*
X312982955Y-153037082D01*
X312932870Y-153067224D01*
X312887518Y-153105624D01*
X312869866Y-153123560D01*
X312820414Y-153187079D01*
X312780088Y-153263751D01*
X312748585Y-153354409D01*
X312725599Y-153459887D01*
X312713530Y-153551558D01*
X312711921Y-153577058D01*
X312710449Y-153619164D01*
X312709115Y-153676349D01*
X312707918Y-153747088D01*
X312706859Y-153829853D01*
X312705938Y-153923118D01*
X312705156Y-154025357D01*
X312704513Y-154135041D01*
X312704010Y-154250646D01*
X312703646Y-154370645D01*
X312703422Y-154493509D01*
X312703339Y-154617715D01*
X312372466Y-154617715D01*
X312372464Y-154609071D01*
X312372458Y-154437467D01*
X312372469Y-154282957D01*
X312372548Y-154144496D01*
X312372742Y-154021034D01*
X312373099Y-153911525D01*
X312373667Y-153814921D01*
X312374496Y-153730174D01*
X312375633Y-153656237D01*
X312377126Y-153592062D01*
X312379025Y-153536601D01*
X312381376Y-153488808D01*
X312384229Y-153447634D01*
X312387631Y-153412032D01*
X312391632Y-153380955D01*
X312396279Y-153353354D01*
X312401620Y-153328182D01*
X312407704Y-153304391D01*
X312414579Y-153280935D01*
X312422294Y-153256765D01*
X312430896Y-153230834D01*
X312436811Y-153213067D01*
X312484087Y-153093367D01*
X312541892Y-152988342D01*
X312610694Y-152897570D01*
X312690964Y-152820627D01*
X312783169Y-152757091D01*
X312887779Y-152706538D01*
X313005263Y-152668546D01*
X313052822Y-152657432D01*
X313099180Y-152650759D01*
X313158546Y-152646850D01*
X313226012Y-152645608D01*
X313296670Y-152646936D01*
D12*
X247250000Y-106500000D03*
X247250000Y-109040000D03*
X247250000Y-103960000D03*
D13*
X258500000Y-115750000D03*
D14*
X258500000Y-118290000D03*
X258500000Y-120830000D03*
D15*
X261600000Y-67400000D03*
X235000000Y-95200000D03*
D13*
X252000000Y-78250000D03*
D14*
X249460000Y-78250000D03*
X246920000Y-78250000D03*
X244380000Y-78250000D03*
X241840000Y-78250000D03*
X239300000Y-78250000D03*
X236760000Y-78250000D03*
X234220000Y-78250000D03*
D15*
X255700000Y-97050000D03*
X278900000Y-88300000D03*
X274200000Y-95700000D03*
X300750000Y-128750000D03*
D13*
X328500000Y-134750000D03*
D14*
X328500000Y-137290000D03*
X331040000Y-134750000D03*
X331040000Y-137290000D03*
X333580000Y-134750000D03*
X333580000Y-137290000D03*
D15*
X313500000Y-140000000D03*
D16*
X314500000Y-102700000D03*
D15*
X351750000Y-86750000D03*
D13*
X374500000Y-81750000D03*
D14*
X377040000Y-81750000D03*
X374500000Y-79210000D03*
X377040000Y-79210000D03*
X374500000Y-76670000D03*
X377040000Y-76670000D03*
X374500000Y-74130000D03*
X377040000Y-74130000D03*
X374500000Y-71590000D03*
X377040000Y-71590000D03*
D13*
X334250000Y-59000000D03*
D14*
X331710000Y-59000000D03*
X329170000Y-59000000D03*
D17*
X373300000Y-126000000D03*
X363700000Y-126000000D03*
D18*
X371000000Y-133500000D03*
X368500000Y-133500000D03*
X366000000Y-133500000D03*
D19*
X368800000Y-145500000D03*
D20*
X378200000Y-145500000D03*
D21*
X373500000Y-140600000D03*
X373500000Y-148800000D03*
D19*
X351300000Y-145500000D03*
D20*
X360700000Y-145500000D03*
D21*
X356000000Y-140600000D03*
X356000000Y-148800000D03*
D22*
X375000000Y-136000000D03*
D23*
X353000000Y-135500000D03*
X356000000Y-135500000D03*
X359000000Y-135500000D03*
D24*
X349500000Y-135500000D03*
X362500000Y-135500000D03*
D16*
X314500000Y-107500000D03*
D22*
X309000000Y-96000000D03*
D19*
X318800000Y-107500000D03*
D20*
X328200000Y-107500000D03*
D21*
X323500000Y-102600000D03*
X323500000Y-110800000D03*
D17*
X323300000Y-88000000D03*
X313700000Y-88000000D03*
D18*
X321000000Y-95500000D03*
X318500000Y-95500000D03*
X316000000Y-95500000D03*
D17*
X348300000Y-88000000D03*
X338700000Y-88000000D03*
D18*
X346000000Y-95500000D03*
X343500000Y-95500000D03*
X341000000Y-95500000D03*
D17*
X373300000Y-88000000D03*
X363700000Y-88000000D03*
D18*
X371000000Y-95500000D03*
X368500000Y-95500000D03*
X366000000Y-95500000D03*
D19*
X368800000Y-107500000D03*
D20*
X378200000Y-107500000D03*
D21*
X373500000Y-102600000D03*
X373500000Y-110800000D03*
D19*
X351300000Y-107500000D03*
D20*
X360700000Y-107500000D03*
D21*
X356000000Y-102600000D03*
X356000000Y-110800000D03*
D19*
X333800000Y-107500000D03*
D20*
X343200000Y-107500000D03*
D21*
X338500000Y-102600000D03*
X338500000Y-110800000D03*
D17*
X323300000Y-126000000D03*
X313700000Y-126000000D03*
D18*
X321000000Y-133500000D03*
X318500000Y-133500000D03*
X316000000Y-133500000D03*
D19*
X333800000Y-145500000D03*
D20*
X343200000Y-145500000D03*
D21*
X338500000Y-140600000D03*
X338500000Y-148800000D03*
D19*
X318800000Y-145500000D03*
D20*
X328200000Y-145500000D03*
D21*
X323500000Y-140600000D03*
X323500000Y-148800000D03*
D23*
X303000000Y-135500000D03*
X306000000Y-135500000D03*
X309000000Y-135500000D03*
D24*
X299500000Y-135500000D03*
X312500000Y-135500000D03*
D17*
X348300000Y-126000000D03*
X338700000Y-126000000D03*
D18*
X346000000Y-133500000D03*
X343500000Y-133500000D03*
X341000000Y-133500000D03*
D17*
X373300000Y-59000000D03*
X363700000Y-59000000D03*
D18*
X371000000Y-66500000D03*
X368500000Y-66500000D03*
X366000000Y-66500000D03*
D17*
X323300000Y-59000000D03*
X313700000Y-59000000D03*
D18*
X321000000Y-66500000D03*
X318500000Y-66500000D03*
X316000000Y-66500000D03*
D25*
X356000000Y-53770000D03*
D26*
X356000000Y-51230000D03*
D25*
X356000000Y-57730000D03*
D26*
X356000000Y-60270000D03*
D22*
X360000000Y-49000000D03*
D17*
X348300000Y-59000000D03*
X338700000Y-59000000D03*
D18*
X346000000Y-66500000D03*
X343500000Y-66500000D03*
X341000000Y-66500000D03*
D17*
X298300000Y-88000000D03*
X288700000Y-88000000D03*
D18*
X296000000Y-95500000D03*
X293500000Y-95500000D03*
X291000000Y-95500000D03*
D17*
X298300000Y-59000000D03*
X288700000Y-59000000D03*
D18*
X296000000Y-66500000D03*
X293500000Y-66500000D03*
X291000000Y-66500000D03*
D25*
X276000000Y-53770000D03*
D26*
X276000000Y-51230000D03*
D25*
X271000000Y-53770000D03*
D26*
X271000000Y-51230000D03*
D25*
X266000000Y-53770000D03*
D26*
X266000000Y-51230000D03*
D25*
X261000000Y-53770000D03*
D26*
X261000000Y-51230000D03*
D22*
X261000000Y-63000000D03*
D27*
X265250000Y-56750000D03*
X265250000Y-61250000D03*
D28*
X271750000Y-56750000D03*
X271750000Y-61250000D03*
D19*
X251300000Y-145500000D03*
D20*
X260700000Y-145500000D03*
D21*
X256000000Y-140600000D03*
X256000000Y-148800000D03*
D19*
X233800000Y-145500000D03*
D20*
X243200000Y-145500000D03*
D21*
X238500000Y-140600000D03*
X238500000Y-148800000D03*
D22*
X237000000Y-136000000D03*
D23*
X259000000Y-135500000D03*
X256000000Y-135500000D03*
X253000000Y-135500000D03*
D24*
X262500000Y-135500000D03*
X249500000Y-135500000D03*
D17*
X248300000Y-88000000D03*
X238700000Y-88000000D03*
D18*
X246000000Y-95500000D03*
X243500000Y-95500000D03*
X241000000Y-95500000D03*
D17*
X273300000Y-88000000D03*
X263700000Y-88000000D03*
D18*
X271000000Y-95500000D03*
X268500000Y-95500000D03*
X266000000Y-95500000D03*
D12*
X240320000Y-98700000D03*
X237780000Y-98700000D03*
X242860000Y-98700000D03*
D17*
X273300000Y-126000000D03*
X263700000Y-126000000D03*
D18*
X271000000Y-133500000D03*
X268500000Y-133500000D03*
X266000000Y-133500000D03*
D19*
X233800000Y-107500000D03*
D20*
X243200000Y-107500000D03*
D21*
X238500000Y-102600000D03*
X238500000Y-110800000D03*
D19*
X251300000Y-107500000D03*
D20*
X260700000Y-107500000D03*
D21*
X256000000Y-102600000D03*
X256000000Y-110800000D03*
D17*
X248300000Y-126000000D03*
X238700000Y-126000000D03*
D18*
X246000000Y-133500000D03*
X243500000Y-133500000D03*
X241000000Y-133500000D03*
D17*
X298300000Y-126000000D03*
X288700000Y-126000000D03*
D18*
X296000000Y-133500000D03*
X293500000Y-133500000D03*
X291000000Y-133500000D03*
D19*
X268800000Y-107500000D03*
D20*
X278200000Y-107500000D03*
D21*
X273500000Y-102600000D03*
X273500000Y-110800000D03*
D19*
X301300000Y-107500000D03*
D20*
X310700000Y-107500000D03*
D21*
X306000000Y-102600000D03*
X306000000Y-110800000D03*
D19*
X283800000Y-107500000D03*
D20*
X293200000Y-107500000D03*
D21*
X288500000Y-102600000D03*
X288500000Y-110800000D03*
D19*
X301300000Y-145500000D03*
D20*
X310700000Y-145500000D03*
D21*
X306000000Y-140600000D03*
X306000000Y-148800000D03*
D19*
X268800000Y-145500000D03*
D20*
X278200000Y-145500000D03*
D21*
X273500000Y-140600000D03*
X273500000Y-148800000D03*
D19*
X283800000Y-145500000D03*
D20*
X293200000Y-145500000D03*
D21*
X288500000Y-140600000D03*
X288500000Y-148800000D03*
D12*
X297000000Y-107250000D03*
X297000000Y-104710000D03*
X297000000Y-109790000D03*
D13*
X180500000Y-239750000D03*
D14*
X180500000Y-242290000D03*
X183040000Y-239750000D03*
X183040000Y-242290000D03*
X185580000Y-239750000D03*
X185580000Y-242290000D03*
D16*
X166500000Y-207700000D03*
D13*
X186250000Y-164000000D03*
D14*
X183710000Y-164000000D03*
X181170000Y-164000000D03*
D15*
X203750000Y-191750000D03*
D13*
X226500000Y-186750000D03*
D14*
X229040000Y-186750000D03*
X226500000Y-184210000D03*
X229040000Y-184210000D03*
X226500000Y-181670000D03*
X229040000Y-181670000D03*
X226500000Y-179130000D03*
X229040000Y-179130000D03*
X226500000Y-176590000D03*
X229040000Y-176590000D03*
D13*
X104000000Y-183250000D03*
D14*
X101460000Y-183250000D03*
X98920000Y-183250000D03*
X96380000Y-183250000D03*
X93840000Y-183250000D03*
X91300000Y-183250000D03*
X88760000Y-183250000D03*
X86220000Y-183250000D03*
D15*
X87000000Y-200200000D03*
D12*
X99250000Y-211500000D03*
X99250000Y-214040000D03*
X99250000Y-208960000D03*
D15*
X107700000Y-202050000D03*
D13*
X110500000Y-220750000D03*
D14*
X110500000Y-223290000D03*
X110500000Y-225830000D03*
D15*
X165500000Y-245000000D03*
X152750000Y-233750000D03*
X113600000Y-172400000D03*
X130900000Y-193300000D03*
X126200000Y-200700000D03*
D17*
X150300000Y-231000000D03*
X140700000Y-231000000D03*
D18*
X148000000Y-238500000D03*
X145500000Y-238500000D03*
X143000000Y-238500000D03*
D19*
X135800000Y-250500000D03*
D20*
X145200000Y-250500000D03*
D21*
X140500000Y-245600000D03*
X140500000Y-253800000D03*
D17*
X125300000Y-231000000D03*
X115700000Y-231000000D03*
D18*
X123000000Y-238500000D03*
X120500000Y-238500000D03*
X118000000Y-238500000D03*
D19*
X120800000Y-250500000D03*
D20*
X130200000Y-250500000D03*
D21*
X125500000Y-245600000D03*
X125500000Y-253800000D03*
D23*
X155000000Y-240500000D03*
X158000000Y-240500000D03*
X161000000Y-240500000D03*
D24*
X151500000Y-240500000D03*
X164500000Y-240500000D03*
D19*
X153300000Y-250500000D03*
D20*
X162700000Y-250500000D03*
D21*
X158000000Y-245600000D03*
X158000000Y-253800000D03*
D12*
X149000000Y-212250000D03*
X149000000Y-209710000D03*
X149000000Y-214790000D03*
D19*
X153300000Y-212500000D03*
D20*
X162700000Y-212500000D03*
D21*
X158000000Y-207600000D03*
X158000000Y-215800000D03*
D19*
X120800000Y-212500000D03*
D20*
X130200000Y-212500000D03*
D21*
X125500000Y-207600000D03*
X125500000Y-215800000D03*
D19*
X135800000Y-212500000D03*
D20*
X145200000Y-212500000D03*
D21*
X140500000Y-207600000D03*
X140500000Y-215800000D03*
D17*
X225300000Y-231000000D03*
X215700000Y-231000000D03*
D18*
X223000000Y-238500000D03*
X220500000Y-238500000D03*
X218000000Y-238500000D03*
D19*
X203300000Y-250500000D03*
D20*
X212700000Y-250500000D03*
D21*
X208000000Y-245600000D03*
X208000000Y-253800000D03*
D19*
X220800000Y-212500000D03*
D20*
X230200000Y-212500000D03*
D21*
X225500000Y-207600000D03*
X225500000Y-215800000D03*
D19*
X203300000Y-212500000D03*
D20*
X212700000Y-212500000D03*
D21*
X208000000Y-207600000D03*
X208000000Y-215800000D03*
D19*
X220800000Y-250500000D03*
D20*
X230200000Y-250500000D03*
D21*
X225500000Y-245600000D03*
X225500000Y-253800000D03*
D22*
X227000000Y-241000000D03*
D23*
X205000000Y-240500000D03*
X208000000Y-240500000D03*
X211000000Y-240500000D03*
D24*
X201500000Y-240500000D03*
X214500000Y-240500000D03*
D17*
X175300000Y-231000000D03*
X165700000Y-231000000D03*
D18*
X173000000Y-238500000D03*
X170500000Y-238500000D03*
X168000000Y-238500000D03*
D19*
X185800000Y-212500000D03*
D20*
X195200000Y-212500000D03*
D21*
X190500000Y-207600000D03*
X190500000Y-215800000D03*
D16*
X166500000Y-212500000D03*
D19*
X185800000Y-250500000D03*
D20*
X195200000Y-250500000D03*
D21*
X190500000Y-245600000D03*
X190500000Y-253800000D03*
D19*
X170800000Y-250500000D03*
D20*
X180200000Y-250500000D03*
D21*
X175500000Y-245600000D03*
X175500000Y-253800000D03*
D19*
X170800000Y-212500000D03*
D20*
X180200000Y-212500000D03*
D21*
X175500000Y-207600000D03*
X175500000Y-215800000D03*
D17*
X200300000Y-231000000D03*
X190700000Y-231000000D03*
D18*
X198000000Y-238500000D03*
X195500000Y-238500000D03*
X193000000Y-238500000D03*
D17*
X150300000Y-193000000D03*
X140700000Y-193000000D03*
D18*
X148000000Y-200500000D03*
X145500000Y-200500000D03*
X143000000Y-200500000D03*
D17*
X150300000Y-164000000D03*
X140700000Y-164000000D03*
D18*
X148000000Y-171500000D03*
X145500000Y-171500000D03*
X143000000Y-171500000D03*
D17*
X175300000Y-164000000D03*
X165700000Y-164000000D03*
D18*
X173000000Y-171500000D03*
X170500000Y-171500000D03*
X168000000Y-171500000D03*
D22*
X161000000Y-201000000D03*
D17*
X175300000Y-193000000D03*
X165700000Y-193000000D03*
D18*
X173000000Y-200500000D03*
X170500000Y-200500000D03*
X168000000Y-200500000D03*
D17*
X125300000Y-193000000D03*
X115700000Y-193000000D03*
D18*
X123000000Y-200500000D03*
X120500000Y-200500000D03*
X118000000Y-200500000D03*
D25*
X118000000Y-158770000D03*
D26*
X118000000Y-156230000D03*
D25*
X123000000Y-158770000D03*
D26*
X123000000Y-156230000D03*
D25*
X128000000Y-158770000D03*
D26*
X128000000Y-156230000D03*
D27*
X117250000Y-161750000D03*
X117250000Y-166250000D03*
D28*
X123750000Y-161750000D03*
X123750000Y-166250000D03*
D17*
X200300000Y-164000000D03*
X190700000Y-164000000D03*
D18*
X198000000Y-171500000D03*
X195500000Y-171500000D03*
X193000000Y-171500000D03*
D17*
X225300000Y-164000000D03*
X215700000Y-164000000D03*
D18*
X223000000Y-171500000D03*
X220500000Y-171500000D03*
X218000000Y-171500000D03*
D25*
X208000000Y-158770000D03*
D26*
X208000000Y-156230000D03*
D17*
X225300000Y-193000000D03*
X215700000Y-193000000D03*
D18*
X223000000Y-200500000D03*
X220500000Y-200500000D03*
X218000000Y-200500000D03*
D25*
X208000000Y-162730000D03*
D26*
X208000000Y-165270000D03*
D22*
X212000000Y-154000000D03*
D17*
X200300000Y-193000000D03*
X190700000Y-193000000D03*
D18*
X198000000Y-200500000D03*
X195500000Y-200500000D03*
X193000000Y-200500000D03*
D17*
X100300000Y-193000000D03*
X90700000Y-193000000D03*
D18*
X98000000Y-200500000D03*
X95500000Y-200500000D03*
X93000000Y-200500000D03*
D19*
X103300000Y-212500000D03*
D20*
X112700000Y-212500000D03*
D21*
X108000000Y-207600000D03*
X108000000Y-215800000D03*
D19*
X85800000Y-212500000D03*
D20*
X95200000Y-212500000D03*
D21*
X90500000Y-207600000D03*
X90500000Y-215800000D03*
D12*
X92320000Y-203700000D03*
X89780000Y-203700000D03*
X94860000Y-203700000D03*
D25*
X113000000Y-158770000D03*
D26*
X113000000Y-156230000D03*
D22*
X113000000Y-168000000D03*
D17*
X100300000Y-231000000D03*
X90700000Y-231000000D03*
D18*
X98000000Y-238500000D03*
X95500000Y-238500000D03*
X93000000Y-238500000D03*
D23*
X111000000Y-240500000D03*
X108000000Y-240500000D03*
X105000000Y-240500000D03*
D24*
X114500000Y-240500000D03*
X101500000Y-240500000D03*
D19*
X103300000Y-250500000D03*
D20*
X112700000Y-250500000D03*
D21*
X108000000Y-245600000D03*
X108000000Y-253800000D03*
D19*
X85800000Y-250500000D03*
D20*
X95200000Y-250500000D03*
D21*
X90500000Y-245600000D03*
X90500000Y-253800000D03*
D22*
X89000000Y-241000000D03*
D15*
X87000000Y-95200000D03*
D13*
X104000000Y-78250000D03*
D14*
X101460000Y-78250000D03*
X98920000Y-78250000D03*
X96380000Y-78250000D03*
X93840000Y-78250000D03*
X91300000Y-78250000D03*
X88760000Y-78250000D03*
X86220000Y-78250000D03*
D15*
X126200000Y-95700000D03*
X113600000Y-67400000D03*
D12*
X99250000Y-106500000D03*
X99250000Y-109040000D03*
X99250000Y-103960000D03*
D13*
X110500000Y-115750000D03*
D14*
X110500000Y-118290000D03*
X110500000Y-120830000D03*
D15*
X107700000Y-97050000D03*
X152750000Y-128750000D03*
D16*
X166500000Y-102700000D03*
D15*
X130900000Y-88300000D03*
D13*
X186250000Y-59000000D03*
D14*
X183710000Y-59000000D03*
X181170000Y-59000000D03*
D13*
X180500000Y-134750000D03*
D14*
X180500000Y-137290000D03*
X183040000Y-134750000D03*
X183040000Y-137290000D03*
X185580000Y-134750000D03*
X185580000Y-137290000D03*
D15*
X165500000Y-140000000D03*
D13*
X226500000Y-81750000D03*
D14*
X229040000Y-81750000D03*
X226500000Y-79210000D03*
X229040000Y-79210000D03*
X226500000Y-76670000D03*
X229040000Y-76670000D03*
X226500000Y-74130000D03*
X229040000Y-74130000D03*
X226500000Y-71590000D03*
X229040000Y-71590000D03*
D15*
X203750000Y-86750000D03*
D17*
X100300000Y-88000000D03*
X90700000Y-88000000D03*
D18*
X98000000Y-95500000D03*
X95500000Y-95500000D03*
X93000000Y-95500000D03*
D12*
X92320000Y-98700000D03*
X89780000Y-98700000D03*
X94860000Y-98700000D03*
D19*
X120800000Y-107500000D03*
D20*
X130200000Y-107500000D03*
D21*
X125500000Y-102600000D03*
X125500000Y-110800000D03*
D19*
X85800000Y-107500000D03*
D20*
X95200000Y-107500000D03*
D21*
X90500000Y-102600000D03*
X90500000Y-110800000D03*
D19*
X103300000Y-107500000D03*
D20*
X112700000Y-107500000D03*
D21*
X108000000Y-102600000D03*
X108000000Y-110800000D03*
D17*
X100300000Y-126000000D03*
X90700000Y-126000000D03*
D18*
X98000000Y-133500000D03*
X95500000Y-133500000D03*
X93000000Y-133500000D03*
D19*
X103300000Y-145500000D03*
D20*
X112700000Y-145500000D03*
D21*
X108000000Y-140600000D03*
X108000000Y-148800000D03*
D19*
X85800000Y-145500000D03*
D20*
X95200000Y-145500000D03*
D21*
X90500000Y-140600000D03*
X90500000Y-148800000D03*
D22*
X89000000Y-136000000D03*
D23*
X111000000Y-135500000D03*
X108000000Y-135500000D03*
X105000000Y-135500000D03*
D24*
X114500000Y-135500000D03*
X101500000Y-135500000D03*
D19*
X135800000Y-145500000D03*
D20*
X145200000Y-145500000D03*
D21*
X140500000Y-140600000D03*
X140500000Y-148800000D03*
D19*
X153300000Y-145500000D03*
D20*
X162700000Y-145500000D03*
D21*
X158000000Y-140600000D03*
X158000000Y-148800000D03*
D19*
X120800000Y-145500000D03*
D20*
X130200000Y-145500000D03*
D21*
X125500000Y-140600000D03*
X125500000Y-148800000D03*
D17*
X125300000Y-126000000D03*
X115700000Y-126000000D03*
D18*
X123000000Y-133500000D03*
X120500000Y-133500000D03*
X118000000Y-133500000D03*
D27*
X117250000Y-56750000D03*
X117250000Y-61250000D03*
D28*
X123750000Y-56750000D03*
X123750000Y-61250000D03*
D25*
X128000000Y-53770000D03*
D26*
X128000000Y-51230000D03*
D25*
X123000000Y-53770000D03*
D26*
X123000000Y-51230000D03*
D25*
X118000000Y-53770000D03*
D26*
X118000000Y-51230000D03*
D25*
X113000000Y-53770000D03*
D26*
X113000000Y-51230000D03*
D22*
X113000000Y-63000000D03*
D17*
X125300000Y-88000000D03*
X115700000Y-88000000D03*
D18*
X123000000Y-95500000D03*
X120500000Y-95500000D03*
X118000000Y-95500000D03*
D16*
X166500000Y-107500000D03*
D19*
X153300000Y-107500000D03*
D20*
X162700000Y-107500000D03*
D21*
X158000000Y-102600000D03*
X158000000Y-110800000D03*
D22*
X161000000Y-96000000D03*
D19*
X170800000Y-107500000D03*
D20*
X180200000Y-107500000D03*
D21*
X175500000Y-102600000D03*
X175500000Y-110800000D03*
D19*
X135800000Y-107500000D03*
D20*
X145200000Y-107500000D03*
D21*
X140500000Y-102600000D03*
X140500000Y-110800000D03*
D17*
X150300000Y-88000000D03*
X140700000Y-88000000D03*
D18*
X148000000Y-95500000D03*
X145500000Y-95500000D03*
X143000000Y-95500000D03*
D17*
X175300000Y-88000000D03*
X165700000Y-88000000D03*
D18*
X173000000Y-95500000D03*
X170500000Y-95500000D03*
X168000000Y-95500000D03*
D17*
X150300000Y-59000000D03*
X140700000Y-59000000D03*
D18*
X148000000Y-66500000D03*
X145500000Y-66500000D03*
X143000000Y-66500000D03*
D17*
X175300000Y-59000000D03*
X165700000Y-59000000D03*
D18*
X173000000Y-66500000D03*
X170500000Y-66500000D03*
X168000000Y-66500000D03*
D17*
X225300000Y-126000000D03*
X215700000Y-126000000D03*
D18*
X223000000Y-133500000D03*
X220500000Y-133500000D03*
X218000000Y-133500000D03*
D19*
X220800000Y-145500000D03*
D20*
X230200000Y-145500000D03*
D21*
X225500000Y-140600000D03*
X225500000Y-148800000D03*
D19*
X203300000Y-145500000D03*
D20*
X212700000Y-145500000D03*
D21*
X208000000Y-140600000D03*
X208000000Y-148800000D03*
D22*
X227000000Y-136000000D03*
D23*
X205000000Y-135500000D03*
X208000000Y-135500000D03*
X211000000Y-135500000D03*
D24*
X201500000Y-135500000D03*
X214500000Y-135500000D03*
D17*
X200300000Y-88000000D03*
X190700000Y-88000000D03*
D18*
X198000000Y-95500000D03*
X195500000Y-95500000D03*
X193000000Y-95500000D03*
D17*
X225300000Y-88000000D03*
X215700000Y-88000000D03*
D18*
X223000000Y-95500000D03*
X220500000Y-95500000D03*
X218000000Y-95500000D03*
D19*
X220800000Y-107500000D03*
D20*
X230200000Y-107500000D03*
D21*
X225500000Y-102600000D03*
X225500000Y-110800000D03*
D19*
X203300000Y-107500000D03*
D20*
X212700000Y-107500000D03*
D21*
X208000000Y-102600000D03*
X208000000Y-110800000D03*
D19*
X185800000Y-107500000D03*
D20*
X195200000Y-107500000D03*
D21*
X190500000Y-102600000D03*
X190500000Y-110800000D03*
D17*
X175300000Y-126000000D03*
X165700000Y-126000000D03*
D18*
X173000000Y-133500000D03*
X170500000Y-133500000D03*
X168000000Y-133500000D03*
D17*
X200300000Y-126000000D03*
X190700000Y-126000000D03*
D18*
X198000000Y-133500000D03*
X195500000Y-133500000D03*
X193000000Y-133500000D03*
D23*
X155000000Y-135500000D03*
X158000000Y-135500000D03*
X161000000Y-135500000D03*
D24*
X151500000Y-135500000D03*
X164500000Y-135500000D03*
D19*
X185800000Y-145500000D03*
D20*
X195200000Y-145500000D03*
D21*
X190500000Y-140600000D03*
X190500000Y-148800000D03*
D19*
X170800000Y-145500000D03*
D20*
X180200000Y-145500000D03*
D21*
X175500000Y-140600000D03*
X175500000Y-148800000D03*
D12*
X149000000Y-107250000D03*
X149000000Y-104710000D03*
X149000000Y-109790000D03*
D17*
X150300000Y-126000000D03*
X140700000Y-126000000D03*
D18*
X148000000Y-133500000D03*
X145500000Y-133500000D03*
X143000000Y-133500000D03*
D17*
X225300000Y-59000000D03*
X215700000Y-59000000D03*
D18*
X223000000Y-66500000D03*
X220500000Y-66500000D03*
X218000000Y-66500000D03*
D25*
X208000000Y-53770000D03*
D26*
X208000000Y-51230000D03*
D25*
X208000000Y-57730000D03*
D26*
X208000000Y-60270000D03*
D22*
X212000000Y-49000000D03*
D17*
X200300000Y-59000000D03*
X190700000Y-59000000D03*
D18*
X198000000Y-66500000D03*
X195500000Y-66500000D03*
X193000000Y-66500000D03*
D29*
X87000000Y-43000000D03*
X87000000Y-259000000D03*
X377000000Y-259000000D03*
X377000000Y-43000000D03*
D22*
X309000000Y-201000000D03*
X261000000Y-168000000D03*
X237000000Y-241000000D03*
X375000000Y-241000000D03*
X360000000Y-154000000D03*
D19*
X251300000Y-212500000D03*
D20*
X260700000Y-212500000D03*
D21*
X256000000Y-207600000D03*
X256000000Y-215800000D03*
D25*
X261000000Y-158770000D03*
D26*
X261000000Y-156230000D03*
D25*
X266000000Y-158770000D03*
D26*
X266000000Y-156230000D03*
D25*
X271000000Y-158770000D03*
D26*
X271000000Y-156230000D03*
D25*
X276000000Y-158770000D03*
D26*
X276000000Y-156230000D03*
D19*
X283800000Y-212500000D03*
D20*
X293200000Y-212500000D03*
D21*
X288500000Y-207600000D03*
X288500000Y-215800000D03*
D19*
X318800000Y-212500000D03*
D20*
X328200000Y-212500000D03*
D21*
X323500000Y-207600000D03*
X323500000Y-215800000D03*
D19*
X318800000Y-250500000D03*
D20*
X328200000Y-250500000D03*
D21*
X323500000Y-245600000D03*
X323500000Y-253800000D03*
D19*
X283800000Y-250500000D03*
D20*
X293200000Y-250500000D03*
D21*
X288500000Y-245600000D03*
X288500000Y-253800000D03*
D19*
X233800000Y-250500000D03*
D20*
X243200000Y-250500000D03*
D21*
X238500000Y-245600000D03*
X238500000Y-253800000D03*
D19*
X268800000Y-250500000D03*
D20*
X278200000Y-250500000D03*
D21*
X273500000Y-245600000D03*
X273500000Y-253800000D03*
D19*
X233800000Y-212500000D03*
D20*
X243200000Y-212500000D03*
D21*
X238500000Y-207600000D03*
X238500000Y-215800000D03*
D19*
X268800000Y-212500000D03*
D20*
X278200000Y-212500000D03*
D21*
X273500000Y-207600000D03*
X273500000Y-215800000D03*
D19*
X333800000Y-250500000D03*
D20*
X343200000Y-250500000D03*
D21*
X338500000Y-245600000D03*
X338500000Y-253800000D03*
D19*
X368800000Y-250500000D03*
D20*
X378200000Y-250500000D03*
D21*
X373500000Y-245600000D03*
X373500000Y-253800000D03*
D19*
X333800000Y-212500000D03*
D20*
X343200000Y-212500000D03*
D21*
X338500000Y-207600000D03*
X338500000Y-215800000D03*
D19*
X351300000Y-212500000D03*
D20*
X360700000Y-212500000D03*
D21*
X356000000Y-207600000D03*
X356000000Y-215800000D03*
D19*
X368800000Y-212500000D03*
D20*
X378200000Y-212500000D03*
D21*
X373500000Y-207600000D03*
X373500000Y-215800000D03*
D19*
X301300000Y-212500000D03*
D20*
X310700000Y-212500000D03*
D21*
X306000000Y-207600000D03*
X306000000Y-215800000D03*
D19*
X251300000Y-250500000D03*
D20*
X260700000Y-250500000D03*
D21*
X256000000Y-245600000D03*
X256000000Y-253800000D03*
D19*
X301300000Y-250500000D03*
D20*
X310700000Y-250500000D03*
D21*
X306000000Y-245600000D03*
X306000000Y-253800000D03*
D19*
X351300000Y-250500000D03*
D20*
X360700000Y-250500000D03*
D21*
X356000000Y-245600000D03*
X356000000Y-253800000D03*
D13*
X374500000Y-186750000D03*
D14*
X377040000Y-186750000D03*
X374500000Y-184210000D03*
X377040000Y-184210000D03*
X374500000Y-181670000D03*
X377040000Y-181670000D03*
X374500000Y-179130000D03*
X377040000Y-179130000D03*
X374500000Y-176590000D03*
X377040000Y-176590000D03*
D23*
X303000000Y-240500000D03*
X306000000Y-240500000D03*
X309000000Y-240500000D03*
D24*
X299500000Y-240500000D03*
X312500000Y-240500000D03*
D23*
X353000000Y-240500000D03*
X356000000Y-240500000D03*
X359000000Y-240500000D03*
D24*
X349500000Y-240500000D03*
X362500000Y-240500000D03*
D27*
X265250000Y-161750000D03*
X265250000Y-166250000D03*
D28*
X271750000Y-161750000D03*
X271750000Y-166250000D03*
D16*
X314500000Y-212500000D03*
D23*
X259000000Y-240500000D03*
X256000000Y-240500000D03*
X253000000Y-240500000D03*
D24*
X262500000Y-240500000D03*
X249500000Y-240500000D03*
D13*
X258500000Y-220750000D03*
D14*
X258500000Y-223290000D03*
X258500000Y-225830000D03*
D13*
X252000000Y-183250000D03*
D14*
X249460000Y-183250000D03*
X246920000Y-183250000D03*
X244380000Y-183250000D03*
X241840000Y-183250000D03*
X239300000Y-183250000D03*
X236760000Y-183250000D03*
X234220000Y-183250000D03*
D15*
X300750000Y-233750000D03*
X255700000Y-202050000D03*
X351750000Y-191750000D03*
X313500000Y-245000000D03*
D25*
X356000000Y-162730000D03*
D26*
X356000000Y-165270000D03*
D15*
X274200000Y-200700000D03*
X261600000Y-172400000D03*
X278900000Y-193300000D03*
D16*
X314500000Y-207700000D03*
D25*
X356000000Y-158770000D03*
D26*
X356000000Y-156230000D03*
D13*
X334250000Y-164000000D03*
D14*
X331710000Y-164000000D03*
X329170000Y-164000000D03*
D13*
X328500000Y-239750000D03*
D14*
X328500000Y-242290000D03*
X331040000Y-239750000D03*
X331040000Y-242290000D03*
X333580000Y-239750000D03*
X333580000Y-242290000D03*
D12*
X247250000Y-211500000D03*
X247250000Y-214040000D03*
X247250000Y-208960000D03*
X297000000Y-212250000D03*
X297000000Y-209710000D03*
X297000000Y-214790000D03*
X240320000Y-203700000D03*
X237780000Y-203700000D03*
X242860000Y-203700000D03*
D17*
X323300000Y-164000000D03*
X313700000Y-164000000D03*
D18*
X321000000Y-171500000D03*
X318500000Y-171500000D03*
X316000000Y-171500000D03*
D17*
X373300000Y-193000000D03*
X363700000Y-193000000D03*
D18*
X371000000Y-200500000D03*
X368500000Y-200500000D03*
X366000000Y-200500000D03*
D17*
X373300000Y-164000000D03*
X363700000Y-164000000D03*
D18*
X371000000Y-171500000D03*
X368500000Y-171500000D03*
X366000000Y-171500000D03*
D17*
X348300000Y-193000000D03*
X338700000Y-193000000D03*
D18*
X346000000Y-200500000D03*
X343500000Y-200500000D03*
X341000000Y-200500000D03*
D17*
X373300000Y-231000000D03*
X363700000Y-231000000D03*
D18*
X371000000Y-238500000D03*
X368500000Y-238500000D03*
X366000000Y-238500000D03*
D17*
X348300000Y-231000000D03*
X338700000Y-231000000D03*
D18*
X346000000Y-238500000D03*
X343500000Y-238500000D03*
X341000000Y-238500000D03*
D17*
X348300000Y-164000000D03*
X338700000Y-164000000D03*
D18*
X346000000Y-171500000D03*
X343500000Y-171500000D03*
X341000000Y-171500000D03*
D17*
X273300000Y-193000000D03*
X263700000Y-193000000D03*
D18*
X271000000Y-200500000D03*
X268500000Y-200500000D03*
X266000000Y-200500000D03*
D17*
X273300000Y-231000000D03*
X263700000Y-231000000D03*
D18*
X271000000Y-238500000D03*
X268500000Y-238500000D03*
X266000000Y-238500000D03*
D17*
X248300000Y-231000000D03*
X238700000Y-231000000D03*
D18*
X246000000Y-238500000D03*
X243500000Y-238500000D03*
X241000000Y-238500000D03*
D17*
X248300000Y-193000000D03*
X238700000Y-193000000D03*
D18*
X246000000Y-200500000D03*
X243500000Y-200500000D03*
X241000000Y-200500000D03*
D17*
X298300000Y-231000000D03*
X288700000Y-231000000D03*
D18*
X296000000Y-238500000D03*
X293500000Y-238500000D03*
X291000000Y-238500000D03*
D17*
X298300000Y-164000000D03*
X288700000Y-164000000D03*
D18*
X296000000Y-171500000D03*
X293500000Y-171500000D03*
X291000000Y-171500000D03*
D17*
X323300000Y-231000000D03*
X313700000Y-231000000D03*
D18*
X321000000Y-238500000D03*
X318500000Y-238500000D03*
X316000000Y-238500000D03*
D17*
X323300000Y-193000000D03*
X313700000Y-193000000D03*
D18*
X321000000Y-200500000D03*
X318500000Y-200500000D03*
X316000000Y-200500000D03*
D17*
X298300000Y-193000000D03*
X288700000Y-193000000D03*
D18*
X296000000Y-200500000D03*
X293500000Y-200500000D03*
X291000000Y-200500000D03*
D15*
X235000000Y-200200000D03*
M02*
