M48
;DRILL file {KiCad 4.0.2-stable} date 2018-11-15 11:45:20 AM
;FORMAT={2:4/ absolute / inch / suppress leading zeros}
FMAT,2
INCH,TZ
T1C0.016
T2C0.018
T3C0.020
T4C0.025
T5C0.026
T6C0.028
T7C0.039
T8C0.040
T9C0.047
T10C0.047
T11C0.079
T12C0.125
%
G90
G05
M72
T1
X38386Y-43602
X38386Y-84941
X41890Y-35787
X41890Y-77126
X43209Y-38967
X43209Y-80305
X44267Y-34553
X44267Y-75892
X46811Y-24803
X46811Y-66142
X47087Y-28445
X47087Y-69783
X47323Y-24803
X47323Y-66142
X47715Y-28449
X47715Y-69788
X47736Y-35236
X47736Y-76575
X48228Y-29232
X48228Y-70571
X55709Y-41732
X55709Y-83071
X56791Y-28268
X56791Y-69606
X56909Y-31890
X56909Y-73228
X58071Y-34843
X58071Y-76181
X59252Y-47177
X59252Y-88516
X62303Y-28248
X62303Y-32087
X62303Y-69587
X62303Y-73425
X63425Y-35709
X63425Y-77047
X63795Y-34008
X63795Y-75346
X66339Y-46457
X66339Y-87795
X67154Y-44882
X67154Y-86220
X68150Y-45256
X68150Y-86594
X71850Y-46949
X71850Y-88287
X72343Y-26378
X72343Y-67717
X77457Y-35169
X77457Y-76508
X80177Y-49941
X80177Y-91280
X82323Y-50197
X82323Y-91535
X83091Y-48740
X83091Y-90079
X83169Y-21496
X83169Y-62835
X87047Y-22598
X87047Y-63937
X90256Y-20866
X90256Y-62205
X96654Y-43602
X96654Y-84941
X100157Y-35787
X100157Y-77126
X101476Y-38967
X101476Y-80305
X102535Y-34553
X102535Y-75892
X105079Y-24803
X105079Y-66142
X105354Y-28445
X105354Y-69783
X105591Y-24803
X105591Y-66142
X105982Y-28449
X105982Y-69788
X106004Y-35236
X106004Y-76575
X106496Y-29232
X106496Y-70571
X113976Y-41732
X113976Y-83071
X115059Y-28268
X115059Y-69606
X115177Y-31890
X115177Y-73228
X116339Y-34843
X116339Y-76181
X117520Y-47177
X117520Y-88516
X120571Y-28248
X120571Y-32087
X120571Y-69587
X120571Y-73425
X121693Y-35709
X121693Y-77047
X122063Y-34008
X122063Y-75346
X124606Y-46457
X124606Y-87795
X125421Y-44882
X125421Y-86220
X126417Y-45256
X126417Y-86594
X130118Y-46850
X130118Y-88189
X130610Y-26378
X130610Y-67717
X135724Y-35169
X135724Y-76508
X138445Y-49941
X138445Y-91280
X140591Y-50197
X140591Y-91535
X141358Y-48740
X141358Y-90079
X141437Y-21496
X141437Y-62835
X145315Y-22598
X145315Y-63937
X148524Y-20866
X148524Y-62205
T2
X33957Y-33366
X33957Y-74705
X35197Y-32933
X35197Y-74272
X35512Y-32480
X35512Y-73819
X37008Y-34980
X37008Y-76319
X37480Y-36890
X37480Y-78228
X37500Y-33583
X37500Y-74921
X39213Y-35669
X39213Y-77008
X40512Y-35984
X40512Y-77323
X40748Y-34350
X40748Y-75689
X41073Y-34843
X41073Y-76181
X42205Y-37520
X42205Y-78858
X42559Y-54528
X42559Y-95866
X42697Y-34449
X42697Y-75787
X42732Y-31114
X42732Y-72453
X43701Y-32598
X43701Y-73937
X43996Y-39370
X43996Y-80709
X44173Y-54508
X44173Y-95846
X44685Y-29724
X44685Y-71063
X45059Y-32638
X45059Y-73976
X45571Y-37618
X45571Y-78957
X45827Y-38858
X45827Y-80197
X45876Y-28691
X45876Y-70030
X46299Y-53976
X46299Y-95315
X46535Y-42047
X46535Y-83386
X46575Y-32205
X46575Y-73543
X46909Y-29272
X46909Y-70610
X48327Y-26654
X48327Y-67992
X48366Y-35236
X48366Y-76575
X48780Y-29685
X48780Y-71024
X49646Y-31575
X49646Y-72913
X50059Y-25453
X50059Y-66791
X50295Y-29311
X50295Y-70650
X50354Y-34311
X50354Y-75650
X50591Y-39370
X50591Y-39724
X50591Y-40079
X50591Y-80709
X50591Y-81063
X50591Y-81417
X50827Y-34646
X50827Y-75984
X51063Y-39370
X51063Y-80709
X51378Y-31594
X51378Y-72933
X51535Y-39016
X51535Y-80354
X51575Y-29291
X51575Y-70630
X52461Y-45866
X52461Y-45866
X52461Y-87205
X52461Y-87205
X52480Y-26378
X52480Y-67717
X52500Y-28720
X52500Y-70059
X52815Y-38563
X52815Y-79902
X52854Y-22756
X52854Y-64094
X52874Y-26378
X52874Y-67717
X53184Y-30205
X53184Y-71544
X53248Y-45866
X53248Y-87205
X53268Y-26378
X53268Y-67717
X53406Y-27244
X53406Y-68583
X53637Y-29724
X53637Y-71063
X54114Y-45433
X54114Y-86772
X54783Y-37500
X54783Y-78839
X55276Y-45112
X55276Y-86451
X56319Y-48819
X56319Y-90157
X57520Y-28425
X57520Y-69764
X57933Y-46260
X57933Y-87598
X58051Y-32126
X58051Y-73465
X58780Y-47157
X58780Y-88496
X59016Y-28445
X59016Y-31811
X59016Y-69783
X59016Y-73150
X59046Y-27048
X59046Y-68387
X59961Y-25945
X59961Y-67283
X60098Y-48543
X60098Y-89882
X60276Y-47933
X60276Y-89272
X60295Y-44567
X60295Y-85906
X60551Y-28346
X60551Y-69685
X61181Y-32126
X61181Y-73465
X61654Y-33445
X61654Y-74783
X61713Y-46161
X61713Y-87500
X61752Y-48720
X61752Y-90059
X62480Y-33130
X62480Y-74469
X64269Y-26949
X64269Y-68287
X64370Y-32047
X64370Y-73386
X64862Y-47933
X64862Y-89272
X65236Y-47047
X65236Y-88386
X65610Y-28346
X65610Y-31713
X65610Y-69685
X65610Y-73051
X65728Y-33406
X65728Y-74744
X66772Y-33661
X66772Y-75000
X66949Y-27972
X66949Y-69311
X67992Y-28937
X67992Y-70276
X68465Y-31496
X68465Y-72835
X69134Y-31339
X69134Y-72677
X69409Y-46850
X69409Y-88189
X71358Y-26516
X71358Y-67854
X71362Y-49623
X71362Y-90961
X71398Y-46555
X71398Y-87894
X71811Y-51181
X71811Y-92520
X72677Y-48130
X72677Y-89469
X72854Y-32736
X72854Y-74075
X73858Y-45453
X73858Y-86791
X74528Y-48307
X74528Y-89646
X75630Y-46850
X75630Y-88189
X76063Y-32953
X76063Y-74291
X76969Y-31535
X76969Y-72874
X77638Y-47087
X77638Y-88425
X77933Y-33681
X77933Y-75020
X77953Y-30315
X77953Y-71654
X79370Y-46457
X79370Y-87795
X80591Y-27283
X80591Y-27677
X80591Y-68622
X80591Y-69016
X80846Y-51949
X80846Y-93287
X80945Y-27283
X80945Y-27677
X80945Y-68622
X80945Y-69016
X81260Y-46260
X81260Y-54528
X81260Y-87598
X81260Y-95866
X81299Y-27283
X81299Y-27677
X81299Y-68622
X81299Y-69016
X81654Y-27283
X81654Y-27677
X81654Y-68622
X81654Y-69016
X82047Y-27283
X82047Y-27677
X82047Y-68622
X82047Y-69016
X82402Y-27283
X82402Y-27677
X82402Y-68622
X82402Y-69016
X82441Y-32559
X82441Y-73898
X82441Y-33031
X82441Y-74370
X82795Y-27283
X82795Y-27677
X82795Y-33031
X82795Y-68622
X82795Y-69016
X82795Y-74370
X82795Y-32559
X82795Y-73898
X83543Y-48386
X83543Y-89724
X84193Y-47402
X84193Y-88740
X84331Y-31102
X84331Y-72441
X84331Y-27283
X84331Y-27677
X84331Y-29213
X84331Y-30197
X84331Y-32559
X84331Y-33031
X84331Y-68622
X84331Y-69016
X84331Y-70551
X84331Y-71535
X84331Y-73898
X84331Y-74370
X84528Y-19587
X84528Y-60925
X84685Y-27283
X84685Y-27677
X84685Y-32559
X84685Y-68622
X84685Y-69016
X84685Y-73898
X84685Y-33031
X84685Y-74370
X84724Y-30197
X84724Y-31102
X84724Y-71535
X84724Y-72441
X84724Y-29213
X84724Y-70551
X85039Y-27283
X85039Y-27677
X85039Y-32559
X85039Y-33031
X85039Y-68622
X85039Y-69016
X85039Y-73898
X85039Y-74370
X85098Y-21417
X85098Y-62756
X85118Y-29213
X85118Y-30197
X85118Y-31102
X85118Y-70551
X85118Y-71535
X85118Y-72441
X85394Y-27283
X85394Y-27677
X85394Y-32559
X85394Y-33031
X85394Y-68622
X85394Y-69016
X85394Y-73898
X85394Y-74370
X85906Y-23228
X85906Y-64567
X86024Y-18898
X86024Y-60236
X86476Y-20138
X86476Y-61476
X87008Y-31732
X87008Y-73071
X88839Y-19173
X88839Y-60512
X89843Y-23504
X89843Y-64843
X90138Y-21949
X90138Y-63287
X90157Y-21417
X90157Y-62756
X92224Y-33366
X92224Y-74705
X93465Y-32933
X93465Y-74272
X93780Y-32480
X93780Y-73819
X95276Y-34980
X95276Y-76319
X95748Y-36890
X95748Y-78228
X95768Y-33583
X95768Y-74921
X97480Y-35669
X97480Y-77008
X98780Y-35984
X98780Y-77323
X99016Y-34350
X99016Y-75689
X99341Y-34843
X99341Y-76181
X100472Y-37520
X100472Y-78858
X100827Y-54528
X100827Y-95866
X100965Y-34449
X100965Y-75787
X101000Y-31114
X101000Y-72453
X101969Y-32598
X101969Y-73937
X102264Y-39370
X102264Y-80709
X102441Y-54508
X102441Y-95846
X102953Y-29724
X102953Y-71063
X103327Y-32638
X103327Y-73976
X103839Y-37618
X103839Y-78957
X104094Y-38858
X104094Y-80197
X104144Y-28691
X104144Y-70030
X104567Y-53976
X104567Y-95315
X104803Y-42047
X104803Y-83386
X104843Y-32205
X104843Y-73543
X105177Y-29272
X105177Y-70610
X106594Y-26654
X106594Y-67992
X106634Y-35236
X106634Y-76575
X107047Y-29685
X107047Y-71024
X107913Y-31575
X107913Y-72913
X108327Y-25453
X108327Y-66791
X108563Y-29311
X108563Y-70650
X108622Y-34311
X108622Y-75650
X108858Y-39370
X108858Y-39724
X108858Y-40079
X108858Y-80709
X108858Y-81063
X108858Y-81417
X109094Y-34646
X109094Y-75984
X109331Y-39370
X109331Y-80709
X109646Y-31594
X109646Y-72933
X109803Y-39016
X109803Y-80354
X109843Y-29291
X109843Y-70630
X110728Y-45866
X110728Y-45866
X110728Y-87205
X110728Y-87205
X110748Y-26378
X110748Y-67717
X110768Y-28720
X110768Y-70059
X111083Y-38563
X111083Y-79902
X111122Y-22756
X111122Y-64094
X111142Y-26378
X111142Y-67717
X111452Y-30205
X111452Y-71544
X111516Y-45866
X111516Y-87205
X111535Y-26378
X111535Y-67717
X111673Y-27244
X111673Y-68583
X111905Y-29724
X111905Y-71063
X112382Y-45433
X112382Y-86772
X113051Y-37500
X113051Y-78839
X113543Y-45112
X113543Y-86451
X114587Y-48819
X114587Y-90157
X115787Y-28425
X115787Y-69764
X116201Y-46260
X116201Y-87598
X116319Y-32126
X116319Y-73465
X117047Y-47157
X117047Y-88496
X117283Y-28445
X117283Y-31811
X117283Y-69783
X117283Y-73150
X117314Y-27048
X117314Y-68387
X118228Y-25945
X118228Y-67283
X118366Y-48543
X118366Y-89882
X118543Y-47933
X118543Y-89272
X118563Y-44567
X118563Y-85906
X118819Y-28346
X118819Y-69685
X119449Y-32126
X119449Y-73465
X119921Y-33445
X119921Y-74783
X119980Y-46161
X119980Y-87500
X120020Y-48720
X120020Y-90059
X120748Y-33130
X120748Y-74469
X122536Y-26949
X122536Y-68287
X122638Y-32047
X122638Y-73386
X123130Y-47933
X123130Y-89272
X123504Y-47047
X123504Y-88386
X123878Y-28346
X123878Y-31713
X123878Y-69685
X123878Y-73051
X123996Y-33406
X123996Y-74744
X125039Y-33661
X125039Y-75000
X125217Y-27972
X125217Y-69311
X126260Y-28937
X126260Y-70276
X126732Y-31496
X126732Y-72835
X127402Y-31339
X127402Y-72677
X127677Y-46850
X127677Y-88189
X129626Y-26516
X129626Y-67854
X129630Y-49623
X129630Y-90961
X129665Y-46555
X129665Y-87894
X130079Y-51181
X130079Y-92520
X130945Y-48130
X130945Y-89469
X131122Y-32736
X131122Y-74075
X132126Y-45453
X132126Y-86791
X132795Y-48307
X132795Y-89646
X133898Y-46850
X133898Y-88189
X134331Y-32953
X134331Y-74291
X135236Y-31535
X135236Y-72874
X135906Y-47087
X135906Y-88425
X136201Y-33681
X136201Y-75020
X136220Y-30315
X136220Y-71654
X137638Y-46457
X137638Y-87795
X138858Y-27283
X138858Y-27677
X138858Y-68622
X138858Y-69016
X139114Y-51949
X139114Y-93287
X139213Y-27283
X139213Y-27677
X139213Y-68622
X139213Y-69016
X139528Y-46260
X139528Y-54528
X139528Y-87598
X139528Y-95866
X139567Y-27283
X139567Y-27677
X139567Y-68622
X139567Y-69016
X139921Y-27283
X139921Y-27677
X139921Y-68622
X139921Y-69016
X140315Y-27283
X140315Y-27677
X140315Y-68622
X140315Y-69016
X140669Y-27283
X140669Y-27677
X140669Y-68622
X140669Y-69016
X140709Y-32559
X140709Y-73898
X140709Y-33031
X140709Y-74370
X141063Y-27283
X141063Y-27677
X141063Y-33031
X141063Y-68622
X141063Y-69016
X141063Y-74370
X141063Y-32559
X141063Y-73898
X141811Y-48386
X141811Y-89724
X142461Y-47402
X142461Y-88740
X142598Y-31102
X142598Y-72441
X142598Y-27283
X142598Y-27677
X142598Y-29213
X142598Y-30197
X142598Y-32559
X142598Y-33031
X142598Y-68622
X142598Y-69016
X142598Y-70551
X142598Y-71535
X142598Y-73898
X142598Y-74370
X142795Y-19587
X142795Y-60925
X142953Y-27283
X142953Y-27677
X142953Y-32559
X142953Y-68622
X142953Y-69016
X142953Y-73898
X142953Y-33031
X142953Y-74370
X142992Y-30197
X142992Y-31102
X142992Y-71535
X142992Y-72441
X142992Y-29213
X142992Y-70551
X143307Y-27283
X143307Y-27677
X143307Y-32559
X143307Y-33031
X143307Y-68622
X143307Y-69016
X143307Y-73898
X143307Y-74370
X143366Y-21417
X143366Y-62756
X143386Y-29213
X143386Y-30197
X143386Y-31102
X143386Y-70551
X143386Y-71535
X143386Y-72441
X143661Y-27283
X143661Y-27677
X143661Y-32559
X143661Y-33031
X143661Y-68622
X143661Y-69016
X143661Y-73898
X143661Y-74370
X144173Y-23228
X144173Y-64567
X144291Y-18898
X144291Y-60236
X144744Y-20138
X144744Y-61476
X145276Y-31732
X145276Y-73071
X147106Y-19173
X147106Y-60512
X148110Y-23504
X148110Y-64843
X148406Y-21949
X148406Y-63287
X148425Y-21417
X148425Y-62756
T4
X35346Y-38858
X35346Y-80197
X36346Y-38858
X36346Y-80197
X37346Y-38858
X37346Y-80197
X39075Y-40929
X39075Y-41929
X39075Y-42929
X39075Y-82268
X39075Y-83268
X39075Y-84268
X58661Y-41224
X58661Y-42224
X58661Y-43224
X58661Y-82563
X58661Y-83563
X58661Y-84563
X93614Y-38858
X93614Y-80197
X94614Y-38858
X94614Y-80197
X95614Y-38858
X95614Y-80197
X97343Y-40929
X97343Y-41929
X97343Y-42929
X97343Y-82268
X97343Y-83268
X97343Y-84268
X116929Y-41224
X116929Y-42224
X116929Y-43224
X116929Y-82563
X116929Y-83563
X116929Y-84563
T5
X44488Y-20169
X44488Y-21169
X44488Y-61508
X44488Y-62508
X46457Y-20169
X46457Y-21169
X46457Y-61508
X46457Y-62508
X48425Y-20169
X48425Y-21169
X48425Y-61508
X48425Y-62508
X50394Y-20169
X50394Y-21169
X50394Y-61508
X50394Y-62508
X81890Y-20169
X81890Y-21169
X81890Y-22728
X81890Y-23728
X81890Y-61508
X81890Y-62508
X81890Y-64067
X81890Y-65067
X102756Y-20169
X102756Y-21169
X102756Y-61508
X102756Y-62508
X104724Y-20169
X104724Y-21169
X104724Y-61508
X104724Y-62508
X106693Y-20169
X106693Y-21169
X106693Y-61508
X106693Y-62508
X108661Y-20169
X108661Y-21169
X108661Y-61508
X108661Y-62508
X140157Y-20169
X140157Y-21169
X140157Y-22728
X140157Y-23728
X140157Y-61508
X140157Y-62508
X140157Y-64067
X140157Y-65067
T7
X33945Y-30807
X33945Y-72146
X34945Y-30807
X34945Y-72146
X35945Y-30807
X35945Y-72146
X36614Y-37598
X36614Y-52559
X36614Y-78937
X36614Y-93898
X36945Y-30807
X36945Y-72146
X37598Y-37598
X37598Y-52559
X37598Y-78937
X37598Y-93898
X37945Y-30807
X37945Y-72146
X38583Y-37598
X38583Y-52559
X38583Y-78937
X38583Y-93898
X38945Y-30807
X38945Y-72146
X39945Y-30807
X39945Y-72146
X40945Y-30807
X40945Y-72146
X41339Y-53346
X41339Y-94685
X42520Y-53346
X42520Y-94685
X43504Y-45571
X43504Y-46571
X43504Y-47571
X43504Y-86909
X43504Y-87909
X43504Y-88909
X43701Y-53346
X43701Y-94685
X46161Y-22343
X46161Y-24114
X46161Y-63681
X46161Y-65453
X46457Y-37598
X46457Y-52559
X46457Y-78937
X46457Y-93898
X47441Y-37598
X47441Y-52559
X47441Y-78937
X47441Y-93898
X48425Y-37598
X48425Y-52559
X48425Y-78937
X48425Y-93898
X48720Y-22343
X48720Y-24114
X48720Y-63681
X48720Y-65453
X56299Y-26181
X56299Y-37598
X56299Y-52559
X56299Y-67520
X56299Y-78937
X56299Y-93898
X57283Y-26181
X57283Y-37598
X57283Y-52559
X57283Y-67520
X57283Y-78937
X57283Y-93898
X58268Y-26181
X58268Y-37598
X58268Y-52559
X58268Y-67520
X58268Y-78937
X58268Y-93898
X61024Y-53346
X61024Y-94685
X62205Y-53346
X62205Y-94685
X63386Y-53346
X63386Y-94685
X66142Y-26181
X66142Y-37598
X66142Y-52559
X66142Y-67520
X66142Y-78937
X66142Y-93898
X67126Y-26181
X67126Y-37598
X67126Y-52559
X67126Y-67520
X67126Y-78937
X67126Y-93898
X68110Y-26181
X68110Y-37598
X68110Y-52559
X68110Y-67520
X68110Y-78937
X68110Y-93898
X71063Y-53051
X71063Y-54051
X71063Y-94390
X71063Y-95390
X71327Y-23228
X71327Y-64567
X72063Y-53051
X72063Y-54051
X72063Y-94390
X72063Y-95390
X72327Y-23228
X72327Y-64567
X73063Y-53051
X73063Y-54051
X73063Y-94390
X73063Y-95390
X73327Y-23228
X73327Y-64567
X75984Y-26181
X75984Y-37598
X75984Y-52559
X75984Y-67520
X75984Y-78937
X75984Y-93898
X76969Y-26181
X76969Y-37598
X76969Y-52559
X76969Y-67520
X76969Y-78937
X76969Y-93898
X77953Y-26181
X77953Y-37598
X77953Y-52559
X77953Y-67520
X77953Y-78937
X77953Y-93898
X80709Y-53346
X80709Y-94685
X81890Y-53346
X81890Y-94685
X83071Y-53346
X83071Y-94685
X85827Y-26181
X85827Y-37598
X85827Y-52559
X85827Y-67520
X85827Y-78937
X85827Y-93898
X86811Y-26181
X86811Y-37598
X86811Y-52559
X86811Y-67520
X86811Y-78937
X86811Y-93898
X87795Y-26181
X87795Y-37598
X87795Y-52559
X87795Y-67520
X87795Y-78937
X87795Y-93898
X89173Y-28185
X89173Y-29185
X89173Y-30185
X89173Y-31185
X89173Y-32185
X89173Y-69524
X89173Y-70524
X89173Y-71524
X89173Y-72524
X89173Y-73524
X90173Y-28185
X90173Y-29185
X90173Y-30185
X90173Y-31185
X90173Y-32185
X90173Y-69524
X90173Y-70524
X90173Y-71524
X90173Y-72524
X90173Y-73524
X92213Y-30807
X92213Y-72146
X93213Y-30807
X93213Y-72146
X94213Y-30807
X94213Y-72146
X94882Y-37598
X94882Y-52559
X94882Y-78937
X94882Y-93898
X95213Y-30807
X95213Y-72146
X95866Y-37598
X95866Y-52559
X95866Y-78937
X95866Y-93898
X96213Y-30807
X96213Y-72146
X96850Y-37598
X96850Y-52559
X96850Y-78937
X96850Y-93898
X97213Y-30807
X97213Y-72146
X98213Y-30807
X98213Y-72146
X99213Y-30807
X99213Y-72146
X99606Y-53346
X99606Y-94685
X100787Y-53346
X100787Y-94685
X101772Y-45571
X101772Y-46571
X101772Y-47571
X101772Y-86909
X101772Y-87909
X101772Y-88909
X101969Y-53346
X101969Y-94685
X104429Y-22343
X104429Y-24114
X104429Y-63681
X104429Y-65453
X104724Y-37598
X104724Y-52559
X104724Y-78937
X104724Y-93898
X105709Y-37598
X105709Y-52559
X105709Y-78937
X105709Y-93898
X106693Y-37598
X106693Y-52559
X106693Y-78937
X106693Y-93898
X106988Y-22343
X106988Y-24114
X106988Y-63681
X106988Y-65453
X114567Y-26181
X114567Y-37598
X114567Y-52559
X114567Y-67520
X114567Y-78937
X114567Y-93898
X115551Y-26181
X115551Y-37598
X115551Y-52559
X115551Y-67520
X115551Y-78937
X115551Y-93898
X116535Y-26181
X116535Y-37598
X116535Y-52559
X116535Y-67520
X116535Y-78937
X116535Y-93898
X119291Y-53346
X119291Y-94685
X120472Y-53346
X120472Y-94685
X121654Y-53346
X121654Y-94685
X124409Y-26181
X124409Y-37598
X124409Y-52559
X124409Y-67520
X124409Y-78937
X124409Y-93898
X125394Y-26181
X125394Y-37598
X125394Y-52559
X125394Y-67520
X125394Y-78937
X125394Y-93898
X126378Y-26181
X126378Y-37598
X126378Y-52559
X126378Y-67520
X126378Y-78937
X126378Y-93898
X129331Y-53051
X129331Y-54051
X129331Y-94390
X129331Y-95390
X129594Y-23228
X129594Y-64567
X130331Y-53051
X130331Y-54051
X130331Y-94390
X130331Y-95390
X130594Y-23228
X130594Y-64567
X131331Y-53051
X131331Y-54051
X131331Y-94390
X131331Y-95390
X131594Y-23228
X131594Y-64567
X134252Y-26181
X134252Y-37598
X134252Y-52559
X134252Y-67520
X134252Y-78937
X134252Y-93898
X135236Y-26181
X135236Y-37598
X135236Y-52559
X135236Y-67520
X135236Y-78937
X135236Y-93898
X136220Y-26181
X136220Y-37598
X136220Y-52559
X136220Y-67520
X136220Y-78937
X136220Y-93898
X138976Y-53346
X138976Y-94685
X140157Y-53346
X140157Y-94685
X141339Y-53346
X141339Y-94685
X144094Y-26181
X144094Y-37598
X144094Y-52559
X144094Y-67520
X144094Y-78937
X144094Y-93898
X145079Y-26181
X145079Y-37598
X145079Y-52559
X145079Y-67520
X145079Y-78937
X145079Y-93898
X146063Y-26181
X146063Y-37598
X146063Y-52559
X146063Y-67520
X146063Y-78937
X146063Y-93898
X147441Y-28185
X147441Y-29185
X147441Y-30185
X147441Y-31185
X147441Y-32185
X147441Y-69524
X147441Y-70524
X147441Y-71524
X147441Y-72524
X147441Y-73524
X148441Y-28185
X148441Y-29185
X148441Y-30185
X148441Y-31185
X148441Y-32185
X148441Y-69524
X148441Y-70524
X148441Y-71524
X148441Y-72524
X148441Y-73524
T8
X34252Y-37480
X34252Y-78819
X42402Y-38209
X42402Y-79547
X44724Y-26535
X44724Y-67874
X49685Y-37677
X49685Y-79016
X51535Y-34764
X51535Y-76102
X60138Y-50689
X60138Y-92028
X65157Y-55118
X65157Y-96457
X80217Y-34154
X80217Y-75492
X92520Y-37480
X92520Y-78819
X100669Y-38209
X100669Y-79547
X102992Y-26535
X102992Y-67874
X107953Y-37677
X107953Y-79016
X109803Y-34764
X109803Y-76102
X118406Y-50689
X118406Y-92028
X123425Y-55118
X123425Y-96457
X138484Y-34154
X138484Y-75492
T9
X65551Y-40433
X65551Y-42323
X65551Y-81772
X65551Y-83661
X123819Y-40433
X123819Y-42323
X123819Y-81772
X123819Y-83661
T11
X34252Y-16929
X34252Y-101969
X148425Y-16929
X148425Y-101969
T12
X35039Y-53543
X35039Y-94882
X44488Y-24803
X44488Y-66142
X63386Y-37795
X63386Y-79134
X83465Y-19291
X83465Y-60630
X89370Y-53543
X89370Y-94882
X93307Y-53543
X93307Y-94882
X102756Y-24803
X102756Y-66142
X121654Y-37795
X121654Y-79134
X141732Y-19291
X141732Y-60630
X147638Y-53543
X147638Y-94882
T3
X35236Y-40394G85X36024Y-40394
G05
X35236Y-43622G85X36024Y-43622
G05
X35236Y-55354G85X36024Y-55354
G05
X35236Y-58583G85X36024Y-58583
G05
X35236Y-81732G85X36024Y-81732
G05
X35236Y-84961G85X36024Y-84961
G05
X35236Y-96693G85X36024Y-96693
G05
X35236Y-99921G85X36024Y-99921
G05
X42126Y-40394G85X42913Y-40394
G05
X42126Y-43622G85X42913Y-43622
G05
X42126Y-55354G85X42913Y-55354
G05
X42126Y-58583G85X42913Y-58583
G05
X42126Y-81732G85X42913Y-81732
G05
X42126Y-84961G85X42913Y-84961
G05
X42126Y-96693G85X42913Y-96693
G05
X42126Y-99921G85X42913Y-99921
G05
X49016Y-40394G85X49803Y-40394
G05
X49016Y-43622G85X49803Y-43622
G05
X49016Y-55354G85X49803Y-55354
G05
X49016Y-58583G85X49803Y-58583
G05
X49016Y-81732G85X49803Y-81732
G05
X49016Y-84961G85X49803Y-84961
G05
X49016Y-96693G85X49803Y-96693
G05
X49016Y-99921G85X49803Y-99921
G05
X54921Y-40394G85X55709Y-40394
G05
X54921Y-43622G85X55709Y-43622
G05
X54921Y-55354G85X55709Y-55354
G05
X54921Y-58583G85X55709Y-58583
G05
X54921Y-81732G85X55709Y-81732
G05
X54921Y-84961G85X55709Y-84961
G05
X54921Y-96693G85X55709Y-96693
G05
X54921Y-99921G85X55709Y-99921
G05
X61811Y-40394G85X62598Y-40394
G05
X61811Y-43622G85X62598Y-43622
G05
X61811Y-55354G85X62598Y-55354
G05
X61811Y-58583G85X62598Y-58583
G05
X61811Y-81732G85X62598Y-81732
G05
X61811Y-84961G85X62598Y-84961
G05
X61811Y-96693G85X62598Y-96693
G05
X61811Y-99921G85X62598Y-99921
G05
X68701Y-40394G85X69488Y-40394
G05
X68701Y-43622G85X69488Y-43622
G05
X68701Y-55354G85X69488Y-55354
G05
X68701Y-58583G85X69488Y-58583
G05
X68701Y-81732G85X69488Y-81732
G05
X68701Y-84961G85X69488Y-84961
G05
X68701Y-96693G85X69488Y-96693
G05
X68701Y-99921G85X69488Y-99921
G05
X74606Y-40394G85X75394Y-40394
G05
X74606Y-43622G85X75394Y-43622
G05
X74606Y-55354G85X75394Y-55354
G05
X74606Y-58583G85X75394Y-58583
G05
X74606Y-81732G85X75394Y-81732
G05
X74606Y-84961G85X75394Y-84961
G05
X74606Y-96693G85X75394Y-96693
G05
X74606Y-99921G85X75394Y-99921
G05
X81496Y-40394G85X82283Y-40394
G05
X81496Y-43622G85X82283Y-43622
G05
X81496Y-55354G85X82283Y-55354
G05
X81496Y-58583G85X82283Y-58583
G05
X81496Y-81732G85X82283Y-81732
G05
X81496Y-84961G85X82283Y-84961
G05
X81496Y-96693G85X82283Y-96693
G05
X81496Y-99921G85X82283Y-99921
G05
X88386Y-40394G85X89173Y-40394
G05
X88386Y-43622G85X89173Y-43622
G05
X88386Y-55354G85X89173Y-55354
G05
X88386Y-58583G85X89173Y-58583
G05
X88386Y-81732G85X89173Y-81732
G05
X88386Y-84961G85X89173Y-84961
G05
X88386Y-96693G85X89173Y-96693
G05
X88386Y-99921G85X89173Y-99921
G05
X93504Y-40394G85X94291Y-40394
G05
X93504Y-43622G85X94291Y-43622
G05
X93504Y-55354G85X94291Y-55354
G05
X93504Y-58583G85X94291Y-58583
G05
X93504Y-81732G85X94291Y-81732
G05
X93504Y-84961G85X94291Y-84961
G05
X93504Y-96693G85X94291Y-96693
G05
X93504Y-99921G85X94291Y-99921
G05
X100394Y-40394G85X101181Y-40394
G05
X100394Y-43622G85X101181Y-43622
G05
X100394Y-55354G85X101181Y-55354
G05
X100394Y-58583G85X101181Y-58583
G05
X100394Y-81732G85X101181Y-81732
G05
X100394Y-84961G85X101181Y-84961
G05
X100394Y-96693G85X101181Y-96693
G05
X100394Y-99921G85X101181Y-99921
G05
X107283Y-40394G85X108071Y-40394
G05
X107283Y-43622G85X108071Y-43622
G05
X107283Y-55354G85X108071Y-55354
G05
X107283Y-58583G85X108071Y-58583
G05
X107283Y-81732G85X108071Y-81732
G05
X107283Y-84961G85X108071Y-84961
G05
X107283Y-96693G85X108071Y-96693
G05
X107283Y-99921G85X108071Y-99921
G05
X113189Y-40394G85X113976Y-40394
G05
X113189Y-43622G85X113976Y-43622
G05
X113189Y-55354G85X113976Y-55354
G05
X113189Y-58583G85X113976Y-58583
G05
X113189Y-81732G85X113976Y-81732
G05
X113189Y-84961G85X113976Y-84961
G05
X113189Y-96693G85X113976Y-96693
G05
X113189Y-99921G85X113976Y-99921
G05
X120079Y-40394G85X120866Y-40394
G05
X120079Y-43622G85X120866Y-43622
G05
X120079Y-55354G85X120866Y-55354
G05
X120079Y-58583G85X120866Y-58583
G05
X120079Y-81732G85X120866Y-81732
G05
X120079Y-84961G85X120866Y-84961
G05
X120079Y-96693G85X120866Y-96693
G05
X120079Y-99921G85X120866Y-99921
G05
X126969Y-40394G85X127756Y-40394
G05
X126969Y-43622G85X127756Y-43622
G05
X126969Y-55354G85X127756Y-55354
G05
X126969Y-58583G85X127756Y-58583
G05
X126969Y-81732G85X127756Y-81732
G05
X126969Y-84961G85X127756Y-84961
G05
X126969Y-96693G85X127756Y-96693
G05
X126969Y-99921G85X127756Y-99921
G05
X132874Y-40394G85X133661Y-40394
G05
X132874Y-43622G85X133661Y-43622
G05
X132874Y-55354G85X133661Y-55354
G05
X132874Y-58583G85X133661Y-58583
G05
X132874Y-81732G85X133661Y-81732
G05
X132874Y-84961G85X133661Y-84961
G05
X132874Y-96693G85X133661Y-96693
G05
X132874Y-99921G85X133661Y-99921
G05
X139764Y-40394G85X140551Y-40394
G05
X139764Y-43622G85X140551Y-43622
G05
X139764Y-55354G85X140551Y-55354
G05
X139764Y-58583G85X140551Y-58583
G05
X139764Y-81732G85X140551Y-81732
G05
X139764Y-84961G85X140551Y-84961
G05
X139764Y-96693G85X140551Y-96693
G05
X139764Y-99921G85X140551Y-99921
G05
X146654Y-40394G85X147441Y-40394
G05
X146654Y-43622G85X147441Y-43622
G05
X146654Y-55354G85X147441Y-55354
G05
X146654Y-58583G85X147441Y-58583
G05
X146654Y-81732G85X147441Y-81732
G05
X146654Y-84961G85X147441Y-84961
G05
X146654Y-96693G85X147441Y-96693
G05
X146654Y-99921G85X147441Y-99921
G05
T6
X39961Y-53455G85X39961Y-53238
G05
X39961Y-94793G85X39961Y-94577
G05
X45079Y-53455G85X45079Y-53238
G05
X45079Y-94793G85X45079Y-94577
G05
X59646Y-53238G85X59646Y-53455
G05
X59646Y-94577G85X59646Y-94793
G05
X64764Y-53238G85X64764Y-53455
G05
X64764Y-94577G85X64764Y-94793
G05
X79331Y-53238G85X79331Y-53455
G05
X79331Y-94577G85X79331Y-94793
G05
X84449Y-53238G85X84449Y-53455
G05
X84449Y-94577G85X84449Y-94793
G05
X98228Y-53455G85X98228Y-53238
G05
X98228Y-94793G85X98228Y-94577
G05
X103346Y-53455G85X103346Y-53238
G05
X103346Y-94793G85X103346Y-94577
G05
X117913Y-53238G85X117913Y-53455
G05
X117913Y-94577G85X117913Y-94793
G05
X123031Y-53238G85X123031Y-53455
G05
X123031Y-94577G85X123031Y-94793
G05
X137598Y-53238G85X137598Y-53455
G05
X137598Y-94577G85X137598Y-94793
G05
X142717Y-53238G85X142717Y-53455
G05
X142717Y-94577G85X142717Y-94793
G05
T7
X33780Y-42028G85X33780Y-42618
G05
X33780Y-56988G85X33780Y-57579
G05
X33780Y-83366G85X33780Y-83957
G05
X33780Y-98327G85X33780Y-98917
G05
X37480Y-42224G85X37480Y-42421
G05
X37480Y-57185G85X37480Y-57382
G05
X37480Y-83563G85X37480Y-83760
G05
X37480Y-98524G85X37480Y-98720
G05
X40669Y-42028G85X40669Y-42618
G05
X40669Y-56988G85X40669Y-57579
G05
X40669Y-83366G85X40669Y-83957
G05
X40669Y-98327G85X40669Y-98917
G05
X44370Y-42224G85X44370Y-42421
G05
X44370Y-57185G85X44370Y-57382
G05
X44370Y-83563G85X44370Y-83760
G05
X44370Y-98524G85X44370Y-98720
G05
X47559Y-42028G85X47559Y-42618
G05
X47559Y-56988G85X47559Y-57579
G05
X47559Y-83366G85X47559Y-83957
G05
X47559Y-98327G85X47559Y-98917
G05
X51260Y-42224G85X51260Y-42421
G05
X51260Y-57185G85X51260Y-57382
G05
X51260Y-83563G85X51260Y-83760
G05
X51260Y-98524G85X51260Y-98720
G05
X53465Y-42028G85X53465Y-42618
G05
X53465Y-56988G85X53465Y-57579
G05
X53465Y-83366G85X53465Y-83957
G05
X53465Y-98327G85X53465Y-98917
G05
X57165Y-42224G85X57165Y-42421
G05
X57165Y-57185G85X57165Y-57382
G05
X57165Y-83563G85X57165Y-83760
G05
X57165Y-98524G85X57165Y-98720
G05
X60354Y-42028G85X60354Y-42618
G05
X60354Y-56988G85X60354Y-57579
G05
X60354Y-83366G85X60354Y-83957
G05
X60354Y-98327G85X60354Y-98917
G05
X64055Y-42224G85X64055Y-42421
G05
X64055Y-57185G85X64055Y-57382
G05
X64055Y-83563G85X64055Y-83760
G05
X64055Y-98524G85X64055Y-98720
G05
X67244Y-42028G85X67244Y-42618
G05
X67244Y-56988G85X67244Y-57579
G05
X67244Y-83366G85X67244Y-83957
G05
X67244Y-98327G85X67244Y-98917
G05
X70945Y-42224G85X70945Y-42421
G05
X70945Y-57185G85X70945Y-57382
G05
X70945Y-83563G85X70945Y-83760
G05
X70945Y-98524G85X70945Y-98720
G05
X73150Y-42028G85X73150Y-42618
G05
X73150Y-56988G85X73150Y-57579
G05
X73150Y-83366G85X73150Y-83957
G05
X73150Y-98327G85X73150Y-98917
G05
X76850Y-42224G85X76850Y-42421
G05
X76850Y-57185G85X76850Y-57382
G05
X76850Y-83563G85X76850Y-83760
G05
X76850Y-98524G85X76850Y-98720
G05
X80039Y-42028G85X80039Y-42618
G05
X80039Y-56988G85X80039Y-57579
G05
X80039Y-83366G85X80039Y-83957
G05
X80039Y-98327G85X80039Y-98917
G05
X83740Y-42224G85X83740Y-42421
G05
X83740Y-57185G85X83740Y-57382
G05
X83740Y-83563G85X83740Y-83760
G05
X83740Y-98524G85X83740Y-98720
G05
X86929Y-42028G85X86929Y-42618
G05
X86929Y-56988G85X86929Y-57579
G05
X86929Y-83366G85X86929Y-83957
G05
X86929Y-98327G85X86929Y-98917
G05
X90630Y-42224G85X90630Y-42421
G05
X90630Y-57185G85X90630Y-57382
G05
X90630Y-83563G85X90630Y-83760
G05
X90630Y-98524G85X90630Y-98720
G05
X92047Y-42028G85X92047Y-42618
G05
X92047Y-56988G85X92047Y-57579
G05
X92047Y-83366G85X92047Y-83957
G05
X92047Y-98327G85X92047Y-98917
G05
X95748Y-42224G85X95748Y-42421
G05
X95748Y-57185G85X95748Y-57382
G05
X95748Y-83563G85X95748Y-83760
G05
X95748Y-98524G85X95748Y-98720
G05
X98937Y-42028G85X98937Y-42618
G05
X98937Y-56988G85X98937Y-57579
G05
X98937Y-83366G85X98937Y-83957
G05
X98937Y-98327G85X98937Y-98917
G05
X102638Y-42224G85X102638Y-42421
G05
X102638Y-57185G85X102638Y-57382
G05
X102638Y-83563G85X102638Y-83760
G05
X102638Y-98524G85X102638Y-98720
G05
X105827Y-42028G85X105827Y-42618
G05
X105827Y-56988G85X105827Y-57579
G05
X105827Y-83366G85X105827Y-83957
G05
X105827Y-98327G85X105827Y-98917
G05
X109528Y-42224G85X109528Y-42421
G05
X109528Y-57185G85X109528Y-57382
G05
X109528Y-83563G85X109528Y-83760
G05
X109528Y-98524G85X109528Y-98720
G05
X111732Y-42028G85X111732Y-42618
G05
X111732Y-56988G85X111732Y-57579
G05
X111732Y-83366G85X111732Y-83957
G05
X111732Y-98327G85X111732Y-98917
G05
X115433Y-42224G85X115433Y-42421
G05
X115433Y-57185G85X115433Y-57382
G05
X115433Y-83563G85X115433Y-83760
G05
X115433Y-98524G85X115433Y-98720
G05
X118622Y-42028G85X118622Y-42618
G05
X118622Y-56988G85X118622Y-57579
G05
X118622Y-83366G85X118622Y-83957
G05
X118622Y-98327G85X118622Y-98917
G05
X122323Y-42224G85X122323Y-42421
G05
X122323Y-57185G85X122323Y-57382
G05
X122323Y-83563G85X122323Y-83760
G05
X122323Y-98524G85X122323Y-98720
G05
X125512Y-42028G85X125512Y-42618
G05
X125512Y-56988G85X125512Y-57579
G05
X125512Y-83366G85X125512Y-83957
G05
X125512Y-98327G85X125512Y-98917
G05
X129213Y-42224G85X129213Y-42421
G05
X129213Y-57185G85X129213Y-57382
G05
X129213Y-83563G85X129213Y-83760
G05
X129213Y-98524G85X129213Y-98720
G05
X131417Y-42028G85X131417Y-42618
G05
X131417Y-56988G85X131417Y-57579
G05
X131417Y-83366G85X131417Y-83957
G05
X131417Y-98327G85X131417Y-98917
G05
X135118Y-42224G85X135118Y-42421
G05
X135118Y-57185G85X135118Y-57382
G05
X135118Y-83563G85X135118Y-83760
G05
X135118Y-98524G85X135118Y-98720
G05
X138307Y-42028G85X138307Y-42618
G05
X138307Y-56988G85X138307Y-57579
G05
X138307Y-83366G85X138307Y-83957
G05
X138307Y-98327G85X138307Y-98917
G05
X142008Y-42224G85X142008Y-42421
G05
X142008Y-57185G85X142008Y-57382
G05
X142008Y-83563G85X142008Y-83760
G05
X142008Y-98524G85X142008Y-98720
G05
X145197Y-42028G85X145197Y-42618
G05
X145197Y-56988G85X145197Y-57579
G05
X145197Y-83366G85X145197Y-83957
G05
X145197Y-98327G85X145197Y-98917
G05
X148898Y-42224G85X148898Y-42421
G05
X148898Y-57185G85X148898Y-57382
G05
X148898Y-83563G85X148898Y-83760
G05
X148898Y-98524G85X148898Y-98720
G05
T10
X35571Y-34646G85X35846Y-34646
G05
X35571Y-49606G85X35846Y-49606
G05
X35571Y-75984G85X35846Y-75984
G05
X35571Y-90945G85X35846Y-90945
G05
X39350Y-34646G85X39626Y-34646
G05
X39350Y-49606G85X39626Y-49606
G05
X39350Y-75984G85X39626Y-75984
G05
X39350Y-90945G85X39626Y-90945
G05
X45413Y-34646G85X45689Y-34646
G05
X45413Y-49606G85X45689Y-49606
G05
X45413Y-75984G85X45689Y-75984
G05
X45413Y-90945G85X45689Y-90945
G05
X49193Y-34646G85X49469Y-34646
G05
X49193Y-49606G85X49469Y-49606
G05
X49193Y-75984G85X49469Y-75984
G05
X49193Y-90945G85X49469Y-90945
G05
X55256Y-23228G85X55531Y-23228
G05
X55256Y-34646G85X55531Y-34646
G05
X55256Y-49606G85X55531Y-49606
G05
X55256Y-64567G85X55531Y-64567
G05
X55256Y-75984G85X55531Y-75984
G05
X55256Y-90945G85X55531Y-90945
G05
X59035Y-23228G85X59311Y-23228
G05
X59035Y-34646G85X59311Y-34646
G05
X59035Y-49606G85X59311Y-49606
G05
X59035Y-64567G85X59311Y-64567
G05
X59035Y-75984G85X59311Y-75984
G05
X59035Y-90945G85X59311Y-90945
G05
X65098Y-23228G85X65374Y-23228
G05
X65098Y-34646G85X65374Y-34646
G05
X65098Y-49606G85X65374Y-49606
G05
X65098Y-64567G85X65374Y-64567
G05
X65098Y-75984G85X65374Y-75984
G05
X65098Y-90945G85X65374Y-90945
G05
X68878Y-23228G85X69154Y-23228
G05
X68878Y-34646G85X69154Y-34646
G05
X68878Y-49606G85X69154Y-49606
G05
X68878Y-64567G85X69154Y-64567
G05
X68878Y-75984G85X69154Y-75984
G05
X68878Y-90945G85X69154Y-90945
G05
X74941Y-23228G85X75217Y-23228
G05
X74941Y-34646G85X75217Y-34646
G05
X74941Y-49606G85X75217Y-49606
G05
X74941Y-64567G85X75217Y-64567
G05
X74941Y-75984G85X75217Y-75984
G05
X74941Y-90945G85X75217Y-90945
G05
X78720Y-23228G85X78996Y-23228
G05
X78720Y-34646G85X78996Y-34646
G05
X78720Y-49606G85X78996Y-49606
G05
X78720Y-64567G85X78996Y-64567
G05
X78720Y-75984G85X78996Y-75984
G05
X78720Y-90945G85X78996Y-90945
G05
X84783Y-23228G85X85059Y-23228
G05
X84783Y-34646G85X85059Y-34646
G05
X84783Y-49606G85X85059Y-49606
G05
X84783Y-64567G85X85059Y-64567
G05
X84783Y-75984G85X85059Y-75984
G05
X84783Y-90945G85X85059Y-90945
G05
X88563Y-23228G85X88839Y-23228
G05
X88563Y-34646G85X88839Y-34646
G05
X88563Y-49606G85X88839Y-49606
G05
X88563Y-64567G85X88839Y-64567
G05
X88563Y-75984G85X88839Y-75984
G05
X88563Y-90945G85X88839Y-90945
G05
X93839Y-34646G85X94114Y-34646
G05
X93839Y-49606G85X94114Y-49606
G05
X93839Y-75984G85X94114Y-75984
G05
X93839Y-90945G85X94114Y-90945
G05
X97618Y-34646G85X97894Y-34646
G05
X97618Y-49606G85X97894Y-49606
G05
X97618Y-75984G85X97894Y-75984
G05
X97618Y-90945G85X97894Y-90945
G05
X103681Y-34646G85X103957Y-34646
G05
X103681Y-49606G85X103957Y-49606
G05
X103681Y-75984G85X103957Y-75984
G05
X103681Y-90945G85X103957Y-90945
G05
X107461Y-34646G85X107736Y-34646
G05
X107461Y-49606G85X107736Y-49606
G05
X107461Y-75984G85X107736Y-75984
G05
X107461Y-90945G85X107736Y-90945
G05
X113524Y-23228G85X113799Y-23228
G05
X113524Y-34646G85X113799Y-34646
G05
X113524Y-49606G85X113799Y-49606
G05
X113524Y-64567G85X113799Y-64567
G05
X113524Y-75984G85X113799Y-75984
G05
X113524Y-90945G85X113799Y-90945
G05
X117303Y-23228G85X117579Y-23228
G05
X117303Y-34646G85X117579Y-34646
G05
X117303Y-49606G85X117579Y-49606
G05
X117303Y-64567G85X117579Y-64567
G05
X117303Y-75984G85X117579Y-75984
G05
X117303Y-90945G85X117579Y-90945
G05
X123366Y-23228G85X123642Y-23228
G05
X123366Y-34646G85X123642Y-34646
G05
X123366Y-49606G85X123642Y-49606
G05
X123366Y-64567G85X123642Y-64567
G05
X123366Y-75984G85X123642Y-75984
G05
X123366Y-90945G85X123642Y-90945
G05
X127146Y-23228G85X127421Y-23228
G05
X127146Y-34646G85X127421Y-34646
G05
X127146Y-49606G85X127421Y-49606
G05
X127146Y-64567G85X127421Y-64567
G05
X127146Y-75984G85X127421Y-75984
G05
X127146Y-90945G85X127421Y-90945
G05
X133209Y-23228G85X133484Y-23228
G05
X133209Y-34646G85X133484Y-34646
G05
X133209Y-49606G85X133484Y-49606
G05
X133209Y-64567G85X133484Y-64567
G05
X133209Y-75984G85X133484Y-75984
G05
X133209Y-90945G85X133484Y-90945
G05
X136988Y-23228G85X137264Y-23228
G05
X136988Y-34646G85X137264Y-34646
G05
X136988Y-49606G85X137264Y-49606
G05
X136988Y-64567G85X137264Y-64567
G05
X136988Y-75984G85X137264Y-75984
G05
X136988Y-90945G85X137264Y-90945
G05
X143051Y-23228G85X143327Y-23228
G05
X143051Y-34646G85X143327Y-34646
G05
X143051Y-49606G85X143327Y-49606
G05
X143051Y-64567G85X143327Y-64567
G05
X143051Y-75984G85X143327Y-75984
G05
X143051Y-90945G85X143327Y-90945
G05
X146831Y-23228G85X147106Y-23228
G05
X146831Y-34646G85X147106Y-34646
G05
X146831Y-49606G85X147106Y-49606
G05
X146831Y-64567G85X147106Y-64567
G05
X146831Y-75984G85X147106Y-75984
G05
X146831Y-90945G85X147106Y-90945
G05
T0
M30
